<?xml version="1.0" encoding="UTF-8"?>
<!DOCTYPE svg PUBLIC "-//W3C//DTD SVG 1.1//EN" "http://www.w3.org/Graphics/SVG/1.1/DTD/svg11.dtd">
<!-- Creator: CorelDRAW -->
<svg xmlns="http://www.w3.org/2000/svg" xml:space="preserve" width="210mm" height="297mm" style="shape-rendering:geometricPrecision; text-rendering:geometricPrecision; image-rendering:optimizeQuality; fill-rule:evenodd; clip-rule:evenodd"
viewBox="0 0 210 297"
 xmlns:xlink="http://www.w3.org/1999/xlink">
 <defs>
  <style type="text/css">
   <![CDATA[
    .str2 {stroke:#004E32;stroke-width:0.0762}
    .str3 {stroke:#004F33;stroke-width:0.0762}
    .str1 {stroke:#05A742;stroke-width:0.0762}
    .str0 {stroke:#1F1A17;stroke-width:0.0762}
    .str5 {stroke:#800923;stroke-width:0.0762}
    .str4 {stroke:#838281;stroke-width:0.0762}
    .str6 {stroke:#605D5C;stroke-width:0.35}
    .str8 {stroke:#605D5C;stroke-width:0.5}
    .str7 {stroke:#605D5C;stroke-width:0.5}
    .fil0 {fill:none}
    .fil10 {fill:#00A43C}
    .fil7 {fill:#05A742}
    .fil1 {fill:#3E4649}
    .fil3 {fill:#4E5659}
    .fil6 {fill:#666E71}
    .fil9 {fill:#7C8385}
    .fil11 {fill:#800923}
    .fil4 {fill:#868E91}
    .fil2 {fill:#969EA1}
    .fil5 {fill:#A6AEB1}
    .fil8 {fill:#B5BBBD}
   ]]>
  </style>
 </defs>
 <g id="Слой_x0020_1">
  <metadata id="CorelCorpID_0Corel-Layer"/>
  <g id="_47219696">
   <polygon id="_152232336" class="fil0 str0" points="79.205,68.4501 113.591,86.7395 146.156,68.6914 159.82,74.3129 108.554,108.413 60.9869,76.5755 "/>
   <path id="_152235752" class="fil1" d="M90.686 104.208l-0.2424 0.6135 4.9114 3.5248c-0.8245,-1.0585 -1.2605,-2.5829 -0.9179,-4.9505 -0.9559,-0.7828 -0.6484,-1.0145 -1.4241,-1.2021 -1.3582,-0.3292 -1.6974,0.4265 -2.327,2.0143zm7.4864 6.1603l0.0002 -0.0524c-0.0648,-0.0284 -0.1295,-0.0574 -0.1939,-0.0866l0.1937 0.139z"/>
   <polygon id="_45777536" class="fil2" points="90.4436,104.822 90.686,104.208 90.478,101.799 91.9982,100.228 90.5315,99.874 90.6323,98.4657 93.2681,97.1 91.5373,96.5215 90.2338,89.9676 89.6978,90.2678 88.0105,103.075 "/>
   <path id="_46811696" class="fil3" d="M122.376 108.208l-0.8756 -3.4041 0.6205 -5.883 -2.9337 -0.711 -0.2396 2.1558 -2.9751 -4.6519c0.1217,2.334 0.2865,1.6906 0.1968,3.4857 -0.0595,1.1917 -0.5848,1.5788 -1.1848,1.4338l-1.4664 -0.3552 0.0847 -1.6991 -1.833 -0.4423c0.8408,3.3983 3.0973,6.7638 5.5477,7.3758l-0.2181 -2.649 1.6947 -0.0318 1.3658 -1.8065c-0.2182,4.3596 -0.602,7.2845 -1.0993,9.5465l3.3154 -2.3637z"/>
   <polygon id="_45825208" class="fil4" points="136.744,97.9653 135.898,97.9565 133.614,99.1227 134.719,99.4087 "/>
   <path id="_150760304" class="fil5" d="M119.06 110.572c0.4974,-2.262 0.8817,-5.187 1.0999,-9.5469l-1.3658 1.8065 -1.6947 0.0318 0.2181 2.649c-2.4504,-0.612 -4.7069,-3.9775 -5.5477,-7.3758l1.833 0.4423 -0.0847 1.6991 1.4664 0.3552c0.6,0.145 1.1253,-0.2421 1.1848,-1.4338 0.0897,-1.7951 -0.0751,-1.1517 -0.1968,-3.4857l2.9751 4.6519 0.2396 -2.1558 2.9337 0.711 -0.6205 5.883 0.8756 3.4041 12.3427 -8.7995 -1.1048 -0.286c-1.2314,1.4081 -6.1483,1.2031 -6.0674,-5.1231l-2.6049 0.448c0.287,-1.8574 0.4647,-1.8627 0.5791,-4.156 0.1386,-2.76 -0.2856,-0.7195 -0.5201,-4.418l2.6239 -1.3274 -7.5724 0.5584 0.0117 3.0084 -1.2179 2.3884 1.5649 -0.5258 -0.5522 2.5909 2.2365 -0.4849 0.1848 0.855 -3.1424 3.5519 -0.1699 -0.8884 0.475 -2.482c-1.5324,-1.3605 -2.137,-4.8126 -3.0879,-5.0429l-1.0566 -0.2224 -0.5799 3.2653 -1.8562 -0.5515 2.0294 -3.0555 -4.1248 0.1033 0.34 3.0765 -3.9603 -3.986 1.9877 4.7785c-2.9281,-0.7067 -6.3176,4.1412 -6.785,9.5309l0.1598 0.9413 -1.0248 0.5996 0.2429 3.4643 -3.2834 -0.7461 2.846 -5.4072 -1.8027 0.3954 -0.2924 -2.4593 3.6184 -2.6428 -0.1241 -0.9402 -1.8332 -0.4427c1.1041,-6.4898 1.4945,1.5093 2.3698,-2.8635 -2.6313,-0.6366 -4.3004,1.5391 -4.894,1.3953l-1.3638 0.4359 -3.14 1.9739 -0.5597 2.3818 -2.6358 1.3657 -0.1008 1.4083 1.4667 0.3545 -1.5202 1.5705 0.208 2.4094c0.6296,-1.5878 0.9688,-2.3435 2.327,-2.0143 0.7757,0.1876 0.4682,0.4193 1.4241,1.2021 -0.3426,2.3672 0.0935,3.892 0.9179,4.9505l2.6243 1.8834c0.0643,0.0292 0.1287,0.0579 0.1933,0.0862l-0.0002 0.0524 10.5517 7.5727 10.3362 -7.3691z"/>
   <path id="_151681424" class="fil1" d="M135.898 97.9565l-2.1569 -1.3796 0.5704 -10.7747 -7.2794 -2.2712 -2.0317 2.3426c0.2345,3.6985 0.6587,1.658 0.5201,4.418 -0.1144,2.2933 -0.2921,2.2986 -0.5791,4.156l2.6049 -0.448c-0.0809,6.3262 4.836,6.5312 6.0674,5.1231l2.2843 -1.1662z"/>
   <path id="_45434760" class="fil3" d="M152.552 86.6948l-3.0347 -0.1485 -0.5445 0.8859 0.2004 1.6714 3.3788 -2.4088zm-4.3144 3.0759l-0.054 -0.0131 -0.0027 0.0535 0.0567 -0.0404z"/>
   <path id="_45463432" class="fil6" d="M89.6978 90.2678l0.536 -0.3002 0.0791 6.2362 2.9552 0.8962 0.5597 -2.3818 3.14 -1.9739 1.3638 -0.4359c0.5936,0.1438 2.2627,-2.0319 4.894,-1.3953 -0.8753,4.3728 -1.2657,-3.6263 -2.3698,2.8635l1.8332 0.4427 0.1241 0.9402 -3.6184 2.6428 0.2924 2.4593 1.8027 -0.3954 -2.846 5.4072 3.2834 0.7461 -0.2429 -3.4643 1.0248 -0.5996 -0.1598 -0.9413c0.4674,-5.3897 3.8569,-10.2376 6.785,-9.5309l-1.9877 -4.7785 -0.4639 -2.2545 -7.7001 -0.1945 -9.6731 2.1777 0.3883 3.8342z"/>
   <polygon id="_45842672" class="fil5" points="148.181,89.8111 148.184,89.7576 148.238,89.7707 149.173,89.1036 148.973,87.4322 149.517,86.5463 134.312,85.8022 133.742,96.5769 135.898,97.9565 136.744,97.9653 "/>
   <path id="_150211888" class="fil2" d="M120.064 88.113l-1.3861 -1.5161 -7.7507 0.103 -0.2125 -2.0522 -4.0321 -0.1973 0.4639 2.2545 3.9603 3.986 -0.34 -3.0765 4.1248 -0.1033 -2.0294 3.0555 1.8562 0.5515 0.5799 -3.2653 1.0566 0.2224c0.9509,0.2303 1.5555,3.6824 3.0879,5.0429l-0.475 2.482 0.1699 0.8884 3.1424 -3.5519 -0.1848 -0.855 -2.2365 0.4849 0.5522 -2.5909 -1.5649 0.5258 1.2179 -2.3884zm-8.2183 -3.4102l1.2892 0.8259 0.6421 -0.7313 -1.9313 -0.0946z"/>
   <polygon id="_47657688" class="fil1" points="113.777,84.7974 113.135,85.5287 111.846,84.7028 110.715,84.6477 110.927,86.6999 118.678,86.5969 120.064,88.113 120.052,85.1046 "/>
   <polygon id="_48378640" class="fil7 str1" points="147.521,58.4286 146.597,58.9129 146.156,68.6914 113.591,86.7395 79.205,68.4501 79.1148,59.0426 78.2128,58.6122 59.6938,65.5516 20.9157,42.084 111.006,20.8457 197.89,40.769 161.723,63.4418 "/>
   <path id="_48375680" class="fil4" d="M60.6433 66.18c0.1477,0.1192 0.2983,0.2777 0.5711,0.4644l1.0361 0c0.5341,-2.0427 0.4922,-0.3866 2.0722,-1.4112l-0.9701 -0.1001 -2.7093 1.0469z"/>
   <path id="_46943664" class="fil6" d="M63.3526 65.1331l0.9701 0.1001 0.6906 0 0 -0.7418 -1.6607 0.6417zm2.4785 -0.9577l0.2184 0 -0.0012 -0.0839 -0.2172 0.0839zm1.5053 -0.5817l2.4451 0.6576 2.139 2.3931 -0.739 0.0164 0.739 2.4534c0.9614,-0.6575 1.1937,-1.4109 2.7628,-1.4109l3.4536 0 0 -2.4701c0,-1.3484 -0.106,-0.128 0.3454,-1.0578l-0.6907 0 0.0158 -0.6441 -1.3278 0.3334 1.0254 -1.6042 1.6912 -0.5137 0 -2.8958 -0.0232 0.0325c-0.1241,0.5295 -0.0759,1.0589 -0.6907,1.0589 -0.7453,0 -0.6807,-0.1624 -0.7823,-0.3531l-10.3636 4.0044z"/>
   <path id="_45561136" class="fil5" d="M77.7004 59.5891c0.1017,0.1907 0.0364,0.3533 0.7819,0.3533 0.6148,0 0.5666,-0.5294 0.6907,-1.0589l0.0232 -0.0325 0 -0.0898 -0.0814 0.2814 -1.4144 0.5465zm1.4958 2.1577l-1.6912 0.5137 -1.0254 1.6042 1.3278 -0.3334 -0.0158 0.6441 0.6907 0c-0.4514,0.9298 -0.3454,-0.2906 -0.3454,1.0578l0 2.4701 -3.4536 0c-1.5691,0 -1.8014,0.7534 -2.7628,1.4109l-0.739 -2.4534 0.739 -0.0164 -2.139 -2.3931 -2.4451 -0.6576 -1.2881 0.4978 0.0012 0.0839 -0.2184 0 -0.8178 0.316 0 0.7418 -0.6906 0c-1.58,1.0246 -1.5381,-0.6315 -2.0722,1.4112 -0.1303,1.5997 -1.0361,2.761 -1.0361,3.5284 0,3.3618 5.3303,-2.0639 5.4397,-2.1033l0.4314 2.8082c5.3004,0 5.8591,-2.4216 7.7924,-2.2874l1.1993 0.8795 -0.3578 1.761 -4.1443 0 0 0.7058 -1.3814 0c-2.1142,0 -4.6091,0.5043 -5.1804,2.1169l4.502 0.012 -1.3499 1.8653 2.3737 -0.8193 0 0.7052 0.6612 -0.0187 0.4321 -0.7481 -1.2347 -1.1975 0.1844 -0.3203 2.7966 0.9515 -1.4582 1.3331 0 1.0592 4.835 -1.0592 -0.0072 -1.0388 1.001 0.32 0.3876 -1.3973 -1.3814 0 0 -0.7057 1.0361 0 0 -1.0583 0.6907 0c0.2151,0.8229 1.1868,2.8221 2.0721,2.8221 0.3256,0 1.7831,-0.8254 2.7628,-1.0581l0 0.7052 0.9343 0.099 -1.9703 4.1343c-0.2271,-0.8692 -2.6607,-2.469 -2.7628,-2.469 -0.9726,0 -0.6395,0.1523 -1.0361,0.7058 1.5576,0.1316 3.7989,2.6511 3.7989,3.5272 0,0.5685 -0.9882,1.71 -1.3814,2.469l1.036 0 0 -0.7052 1.3814 0c1.3205,0 0.1257,-0.1085 0.9868,0.3523l0 -1.0583 0.3948 0 -0.0095 -0.6547 -1.0167 -0.3431 2.7717 -0.4053 0.3244 -1.0371 2.0743 -0.0287c0.3993,0.0312 2.5929,0.8535 3.4536,1.058l0 -0.7052 0.6907 0c-0.7068,-3.1002 -1.6538,-2.8952 -2.7629,-4.5861l0.9633 0.0648 -5.834 -3.103c-0.5896,0.7963 -1.0241,1.7392 -1.3457,1.9801l0 -0.7057 -0.6908 0 0 -1.7641 0.9756 0.0165 -0.0206 -0.102 -5.0672 -2.6952 0.2084 -0.0744 -0.2172 0 0 -6.6289z"/>
   <polygon id="_46615856" class="fil2" points="93.5462,76.078 93.3203,76.5261 93.6923,78.1964 96.1439,78.6606 95.2638,80.6921 95.5583,80.9122 96.7685,79.4388 98.3404,79.5211 99.0483,79.0045 "/>
   <path id="_45843792" class="fil6" d="M84.2722 71.1453l0.0206 0.102 -0.9756 -0.0165 0 1.7641 0.6908 0 0 0.7057c0.3216,-0.2409 0.7561,-1.1838 1.3457,-1.9801l-1.0815 -0.5752z"/>
   <path id="_45843768" class="fil3" d="M60.374 72.4025c1.2406,1.8086 2.3956,4.0777 2.9125,5.1783 -0.1807,0.043 -0.3593,0.1009 -0.5341,0.1691l5.9399 3.951 4.0107 -3.1042 -0.7825 -1.7208 0 -1.0592 1.4582 -1.3331 -2.7966 -0.9515 -0.1844 0.3203 1.2347 1.1975 -0.4321 0.7481 -0.6612 0.0187 0 -0.7052 -2.3737 0.8193 1.3499 -1.8653 -4.502 -0.012c0.5713,-1.6126 3.0662,-2.1169 5.1804,-2.1169l1.3814 0 0 -0.7058 4.1443 0 0.3578 -1.761 -1.1993 -0.8795c-1.9333,-0.1342 -2.492,2.2874 -7.7924,2.2874l-0.4314 -2.8082c-0.1094,0.0394 -5.4397,5.4651 -5.4397,2.1033 0,-0.7674 0.9058,-1.9287 1.0361,-3.5284l-1.0361 0c-0.273,-0.1868 -0.4236,-0.3451 -0.5714,-0.4643l-0.9048 0.3496 -0.2813 -0.3717 0.9171 6.2445z"/>
   <path id="_150326608" class="fil5" d="M62.753 77.7502c0.1746,-0.0681 0.353,-0.1264 0.5335,-0.1694 -0.5169,-1.1006 -1.6718,-3.3691 -2.9124,-5.1777l0.6128 4.1724 1.7661 1.1747z"/>
   <path id="_151475384" class="fil5" d="M83.4688 86.3069l-0.0089 -0.4707 0.7108 0.4707 1.9583 0 -0.0622 -0.3028 -1.5094 0.2441 1.1774 -1.2586c-1.0235,0.0867 -2.5913,0.5773 -3.7352,1.3173l1.4692 0z"/>
   <path id="_152237160" class="fil8" d="M108.523 86.3069c0.0385,-0.5937 0.2359,-0.9653 1.0416,-0.9653 0.7643,0 1.0161,0.2271 1.0349,0.9653l2.1783 0 -4.577 -2.4345 -0.3451 2.4345 0.6673 0z"/>
   <path id="_45842504" class="fil6" d="M106.111 86.3069l0 -2.7285 -1.0361 0c-3.4847,0 -3.6012,-2.5844 -8.4996,-2.2985l-1.5158 0.887 0 1.0578 1.0361 0 -0.1877 0.5311 -1.8672 2.2388 0.5178 0.3123 11.5525 0z"/>
   <path id="_45809064" class="fil9" d="M71.9205 76.8759l0.7825 1.7208 -4.0107 3.1042 6.9245 4.606 6.3816 0c1.1439,-0.7402 2.7127,-1.2306 3.7364,-1.3173l-1.1774 1.2586 1.5094 -0.2441 0.0622 0.3028 8.4294 0 -0.5178 -0.3123 1.8672 -2.2388 0.1877 -0.5311 -1.0361 0 0 -1.0578 1.5158 -0.887c4.8984,-0.2859 5.0149,2.2985 8.4996,2.2985l1.0361 0 0 2.7285 1.7446 0 0.3451 -2.4345 -9.1523 -4.8679 -0.7079 0.5166 -1.5719 -0.0823 -1.2102 1.4734 -0.2945 -0.2201 0.8801 -2.0315 -2.4516 -0.4642 -0.372 -1.6703 0.2259 -0.4481 -2.3585 -1.2545 -0.9633 -0.0648c1.1091,1.6909 2.0561,1.4859 2.7629,4.5861l-0.6907 0 0 0.7052c-0.8607,-0.2045 -3.0543,-1.0268 -3.4536,-1.058l-2.0743 0.0287 -0.3244 1.0371 -2.7717 0.4053 1.0167 0.3431 0.0095 0.6547 -0.3948 0 0 1.0583c-0.8611,-0.4608 0.3337,-0.3523 -0.9868,-0.3523l-1.3814 0 0 0.7052 -1.036 0c0.3932,-0.759 1.3814,-1.9005 1.3814,-2.469 0,-0.8761 -2.2413,-3.3956 -3.7989,-3.5272 0.3966,-0.5535 0.0635,-0.7058 1.0361,-0.7058 0.1021,0 2.5357,1.5998 2.7628,2.469l1.9703 -4.1343 -0.9343 -0.099 0 -0.7052c-0.9797,0.2327 -2.4372,1.0581 -2.7628,1.0581 -0.8853,0 -1.857,-1.9992 -2.0721,-2.8221l-0.6907 0 0 1.0583 -1.0361 0 0 0.7057 1.3814 0 -0.3876 1.3973 -1.001 -0.32 0.0072 1.0388 -4.835 1.0592zm12.2502 9.431l-0.7108 -0.4707 0.0089 0.4707 0.7019 0z"/>
   <path id="_150730408" class="fil5" d="M110.599 86.3069c-0.0188,-0.7382 -0.2706,-0.9653 -1.0349,-0.9653 -0.8057,0 -1.0031,0.3716 -1.0416,0.9653l2.0765 0z"/>
   <path id="_151681712" class="fil4" d="M161.479 65.1266c-0.1041,-0.0502 -0.2172,-0.1138 -0.3398,-0.1933l0.3818 -0.0394 -0.042 0.2327z"/>
   <path id="_47602544" class="fil6" d="M161.723 64.8728l-0.1692 -0.162 -0.0331 0.1831 -0.3818 0.0394 -0.6906 0 0 -0.7418 1.2747 0.4925 0 0.1888zm-2.0925 -0.9973l-0.2184 0 0.0012 -0.0839 0.2172 0.0839zm-1.5053 -0.5817l-2.4451 0.6576 -2.139 2.3931 0.739 0.0164 -0.739 2.4534c-0.9614,-0.6575 -1.1937,-1.4109 -2.7628,-1.4109l-3.4536 0 0 -2.4701c0,-1.3484 0.106,-0.128 -0.3454,-1.0578l0.6907 0 -0.0158 -0.6441 1.3278 0.3334 -1.0254 -1.6042 -1.6912 -0.5137 0 -2.8958 0.0232 0.0325c0.1241,0.5295 0.0759,1.0589 0.6907,1.0589 0.7453,0 0.6807,-0.1624 0.7823,-0.3531l10.3636 4.0044z"/>
   <path id="_47297824" class="fil5" d="M147.761 59.2892c-0.1017,0.1907 -0.0364,0.3533 -0.7819,0.3533 -0.6148,0 -0.5666,-0.5294 -0.6907,-1.0589l-0.0232 -0.0325 0 -0.0898 0.0814 0.2814 1.4144 0.5465zm-1.4958 2.1577l1.6912 0.5137 1.0254 1.6042 -1.3278 -0.3334 0.0158 0.6441 -0.6907 0c0.4514,0.9298 0.3454,-0.2906 0.3454,1.0578l0 2.4701 3.4536 0c1.5691,0 1.8014,0.7534 2.7628,1.4109l0.739 -2.4534 -0.739 -0.0164 2.139 -2.3931 2.4451 -0.6576 1.2881 0.4978 -0.0012 0.0839 0.2184 0 0.8178 0.316 0 0.7418 0.6906 0c0.1228,0.0796 0.2357,0.1428 0.3399,0.193l-0.779 4.3127c-1.0086,-0.8152 -1.8495,-1.654 -1.8923,-1.6694l-0.4314 2.8082c-5.3004,0 -5.8591,-2.4216 -7.7924,-2.2874l-1.1993 0.8795 0.3578 1.761 4.1443 0 0 0.7058 1.3814 0c1.7812,0 3.8321,0.3576 4.7758,1.4347l-0.1234 0.6836 -3.974 0.0106 1.3499 1.8653 -2.3737 -0.8193 0 0.7052 -0.6612 -0.0187 -0.4321 -0.7481 1.2347 -1.1975 -0.1844 -0.3203 -2.7966 0.9515 1.4582 1.3331 0 1.0592 -4.835 -1.0592 0.0072 -1.0388 -1.001 0.32 -0.3876 -1.3973 1.3814 0 0 -0.7057 -1.0361 0 0 -1.0583 -0.6907 0c-0.2151,0.8229 -1.1868,2.8221 -2.0721,2.8221 -0.3256,0 -1.7831,-0.8254 -2.7628,-1.0581l0 0.7052 -0.9343 0.099 1.9703 4.1343c0.2271,-0.8692 2.6607,-2.469 2.7628,-2.469 0.9726,0 0.6395,0.1523 1.0361,0.7058 -1.5576,0.1316 -3.7989,2.6511 -3.7989,3.5272 0,0.5685 0.9882,1.71 1.3814,2.469l-1.036 0 0 -0.7052 -1.3814 0c-1.3205,0 -0.1257,-0.1085 -0.9868,0.3523l0 -1.0583 -0.3948 0 0.0095 -0.6547 1.0167 -0.3431 -2.7717 -0.4053 -0.3244 -1.0371 -2.0743 -0.0287c-0.3993,0.0312 -2.5929,0.8535 -3.4536,1.058l0 -0.7052 -0.6907 0c0.7068,-3.1002 1.6538,-2.8952 2.7629,-4.5861l-0.9633 0.0648 5.834 -3.103c0.5896,0.7963 1.0241,1.7392 1.3457,1.9801l0 -0.7057 0.6908 0 0 -1.7641 -0.9756 0.0165 0.0206 -0.102 5.0672 -2.6952 -0.2084 -0.0744 0.2172 0 0 -6.6289z"/>
   <polygon id="_47787224" class="fil2" points="131.916,75.7781 132.142,76.2262 131.77,77.8965 129.318,78.3607 130.198,80.3922 129.904,80.6123 128.693,79.1389 127.122,79.2212 126.414,78.7046 "/>
   <path id="_47749320" class="fil6" d="M141.19 70.8454l-0.0206 0.102 0.9756 -0.0165 0 1.7641 -0.6908 0 0 0.7057c-0.3216,-0.2409 -0.7561,-1.1838 -1.3457,-1.9801l1.0815 -0.5752z"/>
   <path id="_151674304" class="fil3" d="M153.254 78.6801l-0.4953 -0.3833 0.7825 -1.7208 0 -1.0592 -1.4582 -1.3331 2.7966 -0.9515 0.1844 0.3203 -1.2347 1.1975 0.4321 0.7481 0.6612 0.0187 0 -0.7052 2.3737 0.8193 -1.3499 -1.8653 3.974 -0.0106 -0.1008 0.5579 -6.5656 4.3672zm6.7899 -5.6091c-0.9439,-1.0767 -2.995,-1.4343 -4.7759,-1.4343l-1.3814 0 0 -0.7058 -4.1443 0 -0.3578 -1.761 1.1993 -0.8795c1.9333,-0.1342 2.492,2.2874 7.7924,2.2874l0.4314 -2.8082c0.0428,0.0154 0.884,0.8545 1.8923,1.6695l-0.656 3.6319z"/>
   <path id="_46547528" class="fil5" d="M141.993 86.007l0.0089 -0.4707 -0.7108 0.4707 -1.9583 0 0.0622 -0.3028 1.5094 0.2441 -1.1774 -1.2586c0.8382,0.071 2.0412,0.4131 3.0777,0.941l-0.5657 0.3763 -0.246 0z"/>
   <path id="_47578832" class="fil8" d="M116.939 86.007c-0.0385,-0.5937 -0.2359,-0.9653 -1.0416,-0.9653 -0.7643,0 -1.0161,0.2271 -1.0349,0.9653l-2.1782 0 4.5769 -2.4345 0.3451 2.4345 -0.6673 0z"/>
   <path id="_148965808" class="fil6" d="M119.351 86.007l0 -2.7285 1.0361 0c3.4847,0 3.6012,-2.5844 8.4996,-2.2985l1.5158 0.887 0 1.0578 -1.0361 0 0.1877 0.5311 1.8672 2.2388 -0.5178 0.3123 -11.5525 0z"/>
   <path id="_151454072" class="fil9" d="M153.541 76.576l-0.7825 1.7208 0.4953 0.3833 -10.4483 6.9499c-1.0367,-0.5278 -2.2406,-0.8693 -3.0788,-0.9403l1.1774 1.2586 -1.5094 -0.2441 -0.0622 0.3028 -8.4294 0 0.5178 -0.3123 -1.8672 -2.2388 -0.1877 -0.5311 1.0361 0 0 -1.0578 -1.5158 -0.887c-4.8984,-0.2859 -5.0149,2.2985 -8.4996,2.2985l-1.0361 0 0 2.7285 -1.7446 0 -0.3451 -2.4345 9.1523 -4.8679 0.7079 0.5166 1.5719 -0.0823 1.2102 1.4734 0.2945 -0.2201 -0.8801 -2.0315 2.4516 -0.4642 0.372 -1.6703 -0.2259 -0.4481 2.3585 -1.2545 0.9633 -0.0648c-1.1091,1.6909 -2.0561,1.4859 -2.7629,4.5861l0.6907 0 0 0.7052c0.8607,-0.2045 3.0543,-1.0268 3.4536,-1.058l2.0743 0.0287 0.3244 1.0371 2.7717 0.4053 -1.0167 0.3431 -0.0095 0.6547 0.3948 0 0 1.0583c0.8611,-0.4608 -0.3337,-0.3523 0.9868,-0.3523l1.3814 0 0 0.7052 1.036 0c-0.3932,-0.759 -1.3814,-1.9005 -1.3814,-2.469 0,-0.8761 2.2413,-3.3956 3.7989,-3.5272 -0.3966,-0.5535 -0.0635,-0.7058 -1.0361,-0.7058 -0.1021,0 -2.5357,1.5998 -2.7628,2.469l-1.9703 -4.1343 0.9343 -0.099 0 -0.7052c0.9797,0.2327 2.4372,1.0581 2.7628,1.0581 0.8853,0 1.857,-1.9992 2.0721,-2.8221l0.6907 0 0 1.0583 1.0361 0 0 0.7057 -1.3814 0 0.3876 1.3973 1.001 -0.32 -0.0072 1.0388 4.835 1.0592zm-12.2502 9.431l0.7108 -0.4707 -0.0089 0.4707 -0.7019 0z"/>
   <path id="_149480136" class="fil5" d="M114.863 86.007c0.0188,-0.7382 0.2706,-0.9653 1.0349,-0.9653 0.8057,0 1.0031,0.3716 1.0416,0.9653l-2.0765 0z"/>
   <path id="_45808584" class="fil6" d="M63.5433 76.0162c-0.0015,0.4526 0.738,0.1993 0.7813,1.1287l1.7762 -3.6724 -2.8122 0.0092 -3.9749 -5.8528 -32.7449 -21.2982 34.0913 20.7616 2.8832 8.9239z"/>
   <path id="_151454552" class="fil5" d="M90.9448 86.134l0.0725 1.1654 -0.8346 -0.6961 0.8009 1.6013 -3.2217 -2.234 1.3455 -0.4048c-0.524,-0.6438 -0.9885,-1.0633 -1.39,-1.4115l3.2274 1.9797zm-20.1405 -12.3538l-0.1234 0.1439 -0.7493 -0.4622 0.035 -0.196 0.8377 0.5143z"/>
   <path id="_45857344" class="fil1" d="M24.9759 50.6231l-1.6897 -3.0044 0.2618 0.4769 5.7702 1.5359 -0.0689 -0.5949 -0.9452 -1.3251 2.6095 1.6001c0.0662,0.8397 0.2382,0.9943 0.4688,1.8608l0.6402 0.3536 0.7307 -0.8675 -0.1572 2.9479c-2.2888,-1.2283 -4.4314,-2.1645 -3.8958,-0.0223 -0.973,-0.3798 -0.6717,-0.0745 -1.4505,-0.5523 -1.3636,-0.8361 -1.6839,-1.3622 -2.2739,-2.4087z"/>
   <polygon id="_151802440" class="fil2" points="28.3041,47.7115 29.2493,49.0366 29.3182,49.6315 23.548,48.0956 23.2862,47.6187 24.9759,50.6231 24.71,51.3882 26.1894,53.0582 24.7169,52.1549 24.7835,52.7595 27.3813,55.1411 25.6398,54.1358 24.1803,55.6952 23.6526,55.2024 20.9871,43.4844 20.9702,43.2126 "/>
   <path id="_150325360" class="fil1" d="M89.3486 89.4317l-1.4508 -0.5515 -0.4617 -1.2479 -2.2899 -3.1443c0.2308,1.6274 0.3652,1.7506 1.538,1.9575 0.2204,3.5388 1.9352,4.2497 4.6208,5.4741l0.0745 1.1941 -1.5098 -0.9952 -1.8386 -1.1317 -2.7592 -3.0224 -4.0217 -3.5001c0.3987,-1.7908 -0.375,-0.8155 -1.5683,-3.7508 -0.3279,-0.8071 2.5737,-0.0875 2.5631,-0.5323l0.1109 3.0861c1.0018,1.1696 5.2372,1.1954 6.9536,3.1663l1.8294 2.8153 -1.4754 1.8935 -0.3149 -1.7107z"/>
   <path id="_152234800" class="fil3" d="M59.3137 67.6289c-1.7144,-1.0175 -2.0835,-1.1546 -1.3979,0.4465l-1.0694 -0.2699 1.3934 0.8741 0.4044 1.488 -2.8969 2.0281 0.4772 2.6665 -2.9454 -1.8061 -0.187 -0.9857 -3.082 -0.3432c0.1779,-0.7976 0.3268,-0.4375 0.2807,-1.1806 -0.0306,-0.4933 -0.5456,-1.0115 -1.148,-1.381l-1.4723 -0.9029 0.0435 0.7032 -1.8403 -1.1292c0.9214,-0.6919 3.2551,-0.3699 5.7157,1.1318l-0.2817 0.8487 1.6907 1.2108 1.3196 1.6502c-0.3234,-5.1933 -2.3032,-6.8619 -4.2512,-11.0751l0.3296 -0.3408 8.371 5.1345 0.5463 1.2321z"/>
   <path id="_151681520" class="fil4" d="M91.1998 90.2294l-0.0329 -0.0199 0.0298 0.7633 -1.8481 -1.5411 1.8014 0.0026 0.0498 0.7951zm-0.0609 -0.9805l-2.6166 -2.1494c-1.7157,-1.9702 -4.3615,-1.6473 -5.3626,-2.8162l4.557 -0.1291c0.4015,0.3482 0.8667,0.7678 1.3907,1.4116l-1.4721 -0.9034 3.3483 3.5422 -0.8009 -1.6013 0.8346 0.6961 0.1216 1.9495zm-17.5647 -9.405c0.0106,0.4444 5.7799,0.0625 6.1077,0.8696 1.1933,2.9353 1.967,1.96 1.5683,3.7508l4.0217 3.5001 2.7592 3.0224 1.8386 1.1317 -2.18 -0.9562 -0.276 0.0508 1.5599 2.3087 0.1976 -0.1741 -0.577 0.9847 -8.1197 -5.2719 -1.8185 -0.7777 -0.1721 -1.2579 -2.361 0.3804 -1.4724 -0.9031 -0.0439 -0.7027 -0.7359 -0.4516 0.0872 1.4067c0.084,1.3443 0.1211,0.1966 -0.3019,0.8282l-3.7033 -2.6093 -2.2519 -2.0576 1.9379 1.1758 -0.6538 -3.4628 4.1061 3.5641c-0.2823,-1.9882 -4.3292,-8.1771 -5.153,-8.6445l-3.1966 -1.5135 0.8737 -1.8646 1.7469 -1.5448 -1.2612 2.8469 2.4115 0.8805c-0.0433,-0.9293 -0.0629,-1.5643 -0.0608,-2.0165l1.5151 0.9294 1.9108 2.6917 4.6409 3.6347 -5.714 -5.8121 2.7699 6.0637z"/>
   <path id="_151682288" class="fil5" d="M50.3964 61.2623l-0.3296 0.3408c1.948,4.2132 3.9278,5.8818 4.2512,11.0751l-1.3196 -1.6502 -1.6907 -1.2108 0.2817 -0.8487c-2.4606,-1.5017 -4.7943,-1.8237 -5.7157,-1.1318l1.8403 1.1292 -0.0435 -0.7032 1.4723 0.9029c0.6024,0.3695 1.1174,0.8877 1.148,1.381 0.0461,0.7431 -0.1028,0.383 -0.2807,1.1806l3.082 0.3432 0.187 0.9857 2.9454 1.8061 -0.4772 -2.6665 2.8969 -2.0281 -0.4044 -1.488 -1.3934 -0.8741 1.0694 0.2699c-0.6856,-1.6011 0.2445,-1.4654 1.9589,-0.4479l0.7008 5.6381 0.4114 3.3099 2.2663 1.5168c0.8238,0.4674 9.5555,4.1125 9.8378,6.1007l-4.1061 -3.5641 0.6538 3.4628 -1.9379 -1.1758c-1.195,-1.4042 -6.1077,-4.8048 -6.1798,-2.3522l-2.5892 -2.0123c0.2416,0.9063 0.4188,1.034 0.4776,1.9833 0.0716,1.143 -0.3025,0.0703 -0.6259,1.3048l0.9185 0.8415 -5.675 -4.1729 -0.117 -1.0088 -1.1579 -1.7658 1.5493 1.306 -0.4885 -1.3715 2.2205 1.7656 0.2052 -0.193 -3.0507 -3.5678 -0.1911 0.2162 0.4142 1.2758c-1.5624,-0.5688 -2.2493,0.3105 -3.204,-0.2749l-1.06 -0.6633 -0.4999 -1.6466 -1.8662 -1.1043 1.9519 2.5926 -4.1147 -2.957 0.4137 -0.9244 -4.0492 -1.2922 2.0995 -0.4033c-2.9397,-1.8037 -6.2057,-6.037 -6.542,-8.4084l0.1823 -0.2433 -1.0084 -0.952 0.3262 -1.1399 -3.2953 -2.0401 2.71 4.0606 -1.7898 -1.425 -0.3513 0.7244 3.5478 3.5603 -0.1466 0.2682 -1.8405 -1.1292c0.9452,3.2383 1.5282,0.4857 2.2962,2.7606 -2.6418,-1.6203 -4.2552,-3.6249 -4.8512,-3.9904l-1.3507 -1.1297 -3.0864 -2.9686 -0.5011 -1.2978 -2.5978 -2.3816 -0.0666 -0.6046 1.4725 0.9033 -1.4794 -1.67 0.2659 -0.7651c0.59,1.0465 0.9103,1.5726 2.2739,2.4087 0.7788,0.4778 0.4775,0.1725 1.4505,0.5523 -0.5356,-2.1422 1.607,-1.206 3.8958,0.0223l0.1572 -2.9479 -0.7307 0.8675 -0.6402 -0.3536c-0.2306,-0.8665 -0.4021,-1.0211 -0.4687,-1.8602l19.4827 11.9501z"/>
   <path id="_150760016" class="fil1" d="M69.9527 84.9735l-2.1862 -1.0035 0.3089 4.4832 -8.3734 -5.7722 -0.9185 -0.8415c0.3234,-1.2345 0.6975,-0.1618 0.6259,-1.3048 -0.0588,-0.9493 -0.236,-1.077 -0.4776,-1.9833l2.5892 2.0123c0.0721,-2.4526 4.9848,0.948 6.1798,2.3522l2.2519 2.0576z"/>
   <path id="_152237832" class="fil3" d="M80.4745 89.0605l-5.1177 -1.4316 0.5514 2.0112 0.7365 0.4516 -0.0663 -1.054 0.9805 0.676 0.9911 1.563 0.3123 -1.0299 1.8318 0.3741 -0.615 1.1094 1.2409 -0.4608 1.4726 0.9033 0.1688 1.0221 5.3989 8.556 1.8439 0.7288 18.5196 15.5837 -22.2038 -16.0574 -4.6932 -3.394 1.2943 -1.1663 -1.1044 -0.6774 -0.044 -0.7033c1.3169,0.3988 -1.3985,-3.2244 -1.9937,-3.5898 -1.7926,-1.0999 -2.0344,-0.2326 -2.5107,-0.5254 -1.4159,-0.8687 -1.8097,-2.2361 -2.3401,-3.464l-1.4722 -0.903c0.423,-0.6316 0.3859,0.5161 0.3019,-0.8282l-0.0872 -1.4067 0.7359 0.4516 0.0439 0.7027 1.4724 0.9031 2.361 -0.3804 0.1721 1.2579 1.8185 0.7777z"/>
   <path id="_45394208" class="fil6" d="M23.6526 55.2024l0.5277 0.4928 1.4595 -1.5594 1.7415 1.0053 0.5011 1.2978 3.0864 2.9686 1.3507 1.1297c0.596,0.3655 2.2094,2.3701 4.8512,3.9904 -0.768,-2.2749 -1.351,0.4777 -2.2962,-2.7606l1.8405 1.1292 0.1466 -0.2682 -3.5478 -3.5603 0.3513 -0.7244 1.7898 1.425 -2.71 -4.0606 3.2953 2.0401 -0.3262 1.1399 1.0084 0.952 -0.1823 0.2433c0.3363,2.3714 3.6023,6.6047 6.542,8.4084l-2.0995 0.4033 -0.1034 0.105 -16.8619 -12.194 0 0 -0.3647 -1.6033z"/>
   <path id="_48377920" class="fil5" d="M73.656 87.5828l1.4722 0.903c0.5304,1.2279 0.9242,2.5953 2.3401,3.464 0.4763,0.2928 0.7181,-0.5745 2.5107,0.5254 0.5952,0.3654 3.3106,3.9886 1.9937,3.5898l0.044 0.7033 1.1044 0.6774 -0.7422 1.5655 -2.7293 -1.9736 -17.1729 -12.444 5.2898 -0.6236 2.1862 1.0035 3.7033 2.6093z"/>
   <path id="_150419184" class="fil5" d="M91.5148 95.2872c-1.3923,-0.6225 -2.0745,-1.0492 -2.1114,0.5548l1.1189 1.0721c-2.4856,-1.5248 -4.2272,-3.6065 -5.5867,-4.4414l-0.3687 -0.225c-1.4166,-0.8689 -1.5026,-0.7353 -1.7743,-0.0749l-1.4726 -0.9033 -1.2409 0.4608 0.615 -1.1094 -1.8318 -0.3741 -0.3123 1.0299 -0.9911 -1.563 -0.9805 -0.676 0.0663 1.054 -0.7365 -0.4516 -0.5514 -2.0112 5.1177 1.4316 8.1197 5.2719 0.577 -0.9847 -0.1976 0.1741 -1.5599 -2.3087 0.276 -0.0508 2.18 0.9562 1.5098 0.9952 0.1353 2.1735zm-0.2098 -3.3676c-2.6856,-1.2244 -4.4004,-1.9353 -4.6208,-5.4741 -1.1728,-0.2069 -1.3072,-0.3301 -1.538,-1.9575l2.6064 2.3214 0.1452 2.0708 1.4508 0.5515 1.8481 1.5411 -0.0298 -0.7633 0.0329 0.0199 0.1052 1.6902z"/>
   <path id="_150157352" class="fil2" d="M53.91 77.4993l-1.4201 -0.4064 -7.7338 -5.5219 -0.0745 0.1785 -3.8024 -2.7498 0.1034 -0.105 4.0492 1.2922 -0.4137 0.9244 4.1147 2.957 -1.9519 -2.5926 1.8662 1.1043 0.4999 1.6466 1.06 0.6633c0.9547,0.5854 1.6416,-0.2939 3.204,0.2749l-0.4142 -1.2758 0.1911 -0.2162 3.0507 3.5678 -0.2052 0.193 -2.2205 -1.7656 0.4885 1.3715 -1.5493 -1.306 1.1579 1.7658zm-7.7301 -4.6672l0.7749 0.5605 0.7125 0.5161 -1.4874 -1.0766z"/>
   <polygon id="_148696464" class="fil1" points="47.6673,73.9087 46.9548,73.3926 45.8577,72.6 44.6816,71.7495 44.7561,71.571 52.4899,77.0929 53.91,77.4993 54.027,78.508 "/>
   <path id="_152243864" class="fil9" d="M108.724 118.063l-18.5166 -15.4026 -1.8469 -0.9098 -5.3989 -8.556 -0.1688 -1.0221c0.2717,-0.6604 0.3577,-0.794 1.7743,0.0749l0.3687 0.225c1.3595,0.8349 3.1011,2.9166 5.5867,4.4414l-1.1189 -1.0721c0.0369,-1.604 0.7191,-1.1773 2.1114,-0.5548l3.2103 4.0488 13.8294 9.0773 0.1693 9.65z"/>
   <polygon id="_150761936" class="fil0 str0" points="20.9479,43.2658 59.7382,66.5297 60.9869,76.5755 108.554,108.413 108.724,118.063 24.0173,56.8057 "/>
   <polygon id="_151674688" class="fil0 str0" points="59.7382,66.5297 79.1148,59.0426 79.205,68.4501 60.9869,76.5755 "/>
   <polygon id="_152232728" class="fil7 str2" points="20.9157,42.084 59.6938,65.5516 78.2128,58.6122 79.1148,59.0426 59.7382,66.5297 20.9479,43.2658 "/>
   <polygon id="_45843520" class="fil10 str3" points="146.597,58.9129 161.554,64.7108 198.571,41.0256 197.89,40.769 161.723,63.4418 147.521,58.4286 "/>
   <path id="_47406120" class="fil6" d="M151.044 71.4136c0.0015,0.4526 -0.0189,1.0881 -0.0622,2.0186l2.4115 -0.9433 0.4857 -1.3147 6.3014 -4.7054 0.5463 -1.2464 -9.6827 6.1912z"/>
   <path id="_45772304" class="fil5" d="M128.549 85.7968l-0.0725 1.1673 0.8346 -0.7178 -0.8009 1.6221 3.3483 -3.6293 -1.4721 0.9417c0.524,-0.6575 0.9885,-1.089 1.39,-1.4477l-3.2274 2.0637zm20.1405 -12.8778l0.1234 0.1407 0.7493 -0.4817 1.3186 5.3039 -2.1913 -4.9629z"/>
   <path id="_148575208" class="fil1" d="M194.518 48.5696l1.6897 -3.0483 -0.2618 0.4837 -5.7702 1.686 0.0689 -0.5967 0.9452 -1.3497 -2.6095 1.668c-0.0662,0.8414 -0.2382,1.0005 -0.4688,1.873l-0.6402 0.3702 -0.7307 -0.8484 0.1572 2.9438c2.2888,-1.2879 4.4314,-2.2798 3.8958,-0.1237 0.973,-0.4051 0.6717,-0.092 1.4505,-0.59 1.3636,-0.8716 1.6839,-1.406 2.2739,-2.4679z"/>
   <polygon id="_151996016" class="fil2" points="191.19,45.7446 190.245,47.0943 190.176,47.691 195.946,46.005 196.208,45.5213 194.518,48.5696 194.784,49.3278 193.304,51.0363 194.777,50.0947 194.71,50.701 192.113,53.1502 193.854,52.0996 195.314,53.621 195.841,53.1145 198.507,41.3271 198.524,41.0549 "/>
   <path id="_45843744" class="fil1" d="M130.145 89.053l1.4508 -0.5893 0.1452 -2.0746 2.6064 -2.3892c-0.2308,1.6334 -0.3652,1.7601 -1.538,1.9975 -0.2204,3.5446 -1.9352,4.3001 -4.6208,5.5944l-0.0745 1.196 1.5098 -1.0345 1.8386 -1.1795 2.7592 -3.0942 4.0217 -3.6047c-0.3987,-1.7805 0.375,-0.8253 1.5683,-3.7916 0.3279,-0.8157 0.4289,-1.3243 0.4395,-1.7694l-6.2014 3.9654c-1.0018,1.1957 -1.3621,2.4045 -3.0785,4.42l-2.6166 2.2174 -0.0111 0.1857 1.8014 -0.0494z"/>
   <path id="_47787112" class="fil3" d="M160.18 66.4688c1.7144,-1.0621 2.0835,-1.2088 1.3979,0.4101l1.0694 -0.2977 -1.3934 0.9103 -0.4044 1.4985 2.8969 1.9528 -0.4772 2.6789 2.9454 -1.8827 0.187 -0.9906 3.082 -0.4234c-0.1779,-0.793 -0.3268,-0.429 -0.2807,-1.1733 0.0306,-0.4941 0.5456,-1.0257 1.148,-1.4109l1.4723 -0.9412 -0.0435 0.7044 1.8403 -1.1771c-0.9214,-0.6679 -3.2551,-0.2852 -5.7157,1.2805l0.2817 0.8414 -1.6907 1.2548 -1.3196 1.6845c0.3234,-5.2017 2.3032,-6.9218 4.2512,-11.1857l-0.3296 -0.3322 -8.371 5.3522 -0.5463 1.2464z"/>
   <path id="_152232672" class="fil4" d="M128.294 89.8988l0.0329 -0.0207 -0.0298 0.764 1.8481 -1.5891 -1.8014 0.0494 -0.0498 0.7964zm0.0609 -0.9821l2.6166 -2.2174c1.7157,-2.0149 2.0773,-3.2242 3.0784,-4.4192l-2.2728 1.4529c-0.4015,0.3586 -0.8667,0.7903 -1.3907,1.4478l1.4721 -0.9417 -3.3483 3.6293 0.8009 -1.6221 -0.8346 0.7178 -0.1216 1.9526zm11.8965 -10.6028c-0.0106,0.4446 -0.1117,0.9537 -0.4395,1.7694 -1.1933,2.9663 -1.967,2.0111 -1.5683,3.7916l-4.0217 3.6047 -2.7592 3.0942 -1.8386 1.1795 2.18 -1.0129 0.276 0.0436 -1.5599 2.3493 -0.1976 -0.169 0.577 0.9697 8.1197 -5.4831 1.8185 -0.825 0.1721 -1.2624 2.361 0.319 1.4724 -0.9414 0.0439 -0.7039 0.7359 -0.4707 -0.0872 1.4089c-0.084,1.3465 -0.1211,0.1998 0.3019,0.8204l3.7033 -2.7057 2.2519 -2.1161 -1.9379 1.2262 0.6538 -3.4798 -4.1061 3.6709c0.2823,-1.9956 4.3292,-8.2897 5.153,-8.7786l3.1966 -1.5966 -0.8737 -1.8419 -1.7469 -1.4994 1.2612 2.8141 -2.4115 0.9433c0.0433,-0.9305 0.0629,-1.566 0.0608,-2.0181l-1.5151 0.9688 0.035 0.1951 -0.7493 0.4817 -6.0454 10.9419 -2.5161 -5.6877z"/>
   <path id="_152231152" class="fil5" d="M169.098 59.8702l0.3296 0.3322c-1.948,4.2639 -3.9278,5.984 -4.2512,11.1857l1.3196 -1.6845 1.6907 -1.2548 -0.2817 -0.8414c2.4606,-1.5657 4.7943,-1.9484 5.7157,-1.2805l-1.8403 1.1771 0.0435 -0.7044 -1.4723 0.9412c-0.6024,0.3852 -1.1174,0.9168 -1.148,1.4109 -0.0461,0.7443 0.1028,0.3803 0.2807,1.1733l-3.082 0.4234 -0.187 0.9906 -2.9454 1.8827 0.4772 -2.6789 -2.8969 -1.9528 0.4044 -1.4985 1.3934 -0.9103 -1.0694 0.2977c0.6856,-1.6189 0.3165,-1.4722 -1.3979,-0.4101l-6.3014 4.7054 0.8737 1.8419 -3.1966 1.5966c-0.8238,0.4889 -4.8707,6.783 -5.153,8.7786l4.1061 -3.6709 -0.6538 3.4798 1.9379 -1.2262c1.195,-1.4353 6.1077,-4.9637 6.1798,-2.513l2.5892 -2.0797c-0.2416,0.9126 -0.4188,1.0449 -0.4776,1.9957 -0.0716,1.1449 0.3025,0.0625 0.6259,1.2886l-0.9185 0.8654 5.8764 -4.2038 -0.0844 -1.1286 1.1579 -1.796 -1.5493 1.3464 0.4885 -1.3843 -2.2205 1.8234 -0.2052 -0.1876 3.0507 -3.6472 0.1911 0.2112 -0.4142 1.2866c1.5624,-0.6095 2.2493,0.252 3.204,-0.3583l1.06 -0.6908 0.4999 -1.6596 1.8662 -1.1529 -1.9519 2.6434 4.1147 -3.0641 -0.4137 -0.9136 4.0492 -1.3976 -2.0995 -0.3486c2.9397,-1.8802 6.2057,-6.1985 6.542,-8.5786l-0.1823 -0.2386 1.0084 -0.9782 -0.3262 -1.1314 3.2953 -2.1259 -2.71 4.1311 1.7898 -1.4715 0.3513 0.7152 -3.5478 3.6526 0.1466 0.2644 1.8405 -1.1771c-0.9452,3.2629 -1.5282,0.5255 -2.2962,2.8204 2.6418,-1.6891 4.2552,-3.7356 4.8512,-4.1166l1.3507 -1.1649 3.0864 -3.0489 0.5011 -1.3108 2.5978 -2.4492 0.0666 -0.6063 -1.4725 0.9416 1.4794 -1.7085 -0.2659 -0.7582c-0.59,1.0619 -0.9103,1.5963 -2.2739,2.4679 -0.7788,0.498 -0.4775,0.1849 -1.4505,0.59 0.5356,-2.1561 -1.607,-1.1642 -3.8958,0.1237l-0.1572 -2.9438 0.7307 0.8484 0.6402 -0.3702c0.2306,-0.8725 0.4021,-1.0316 0.4687,-1.8724l-19.4827 12.457z"/>
   <path id="_47404864" class="fil1" d="M149.541 84.0901l2.1862 -1.0603 -0.3089 4.4912 8.3734 -5.99 0.9185 -0.8654c-0.3234,-1.2261 -0.6975,-0.1437 -0.6259,-1.2886 0.0588,-0.9508 0.236,-1.0831 0.4776,-1.9957l-2.5892 2.0797c-0.0721,-2.4507 -4.9848,1.0777 -6.1798,2.513l-2.2519 2.1161z"/>
   <path id="_46657520" class="fil3" d="M139.019 88.4509l5.1177 -1.5648 -0.5514 2.0256 -0.7365 0.4707 0.0663 -1.0557 -0.9805 0.7015 -0.9911 1.5888 -0.3123 -1.0218 -1.8318 0.4218 0.615 1.0934 -1.2409 -0.4285 -1.4726 0.9416 -0.1688 1.0265 -5.3989 8.6964 -1.8439 0.7768 0.1868 1.0942 6.7471 -4.8266 0.5221 -0.7342 -0.3729 -0.7517 1.1044 -0.7061 0.044 -0.7044c-1.3169,0.433 1.3985,-3.2608 1.9937,-3.6417 1.7926,-1.1465 2.0344,-0.2855 2.5107,-0.5907 1.4159,-0.9056 1.8097,-2.2832 2.3401,-3.5249l1.4722 -0.9413c-0.423,-0.6206 -0.3859,0.5261 -0.3019,-0.8204l0.0872 -1.4089 -0.7359 0.4707 -0.0439 0.7039 -1.4724 0.9414 -2.361 -0.319 -0.1721 1.2624 -1.8185 0.825z"/>
   <path id="_47305616" class="fil6" d="M195.841 53.1145l-0.5277 0.5065 -1.4595 -1.5214 -1.7415 1.0506 -0.5011 1.3108 -3.0864 3.0489 -1.3507 1.1649c-0.596,0.381 -2.2094,2.4275 -4.8512,4.1166 0.768,-2.2949 1.351,0.4425 2.2962,-2.8204l-1.8405 1.1771 -0.1466 -0.2644 3.5478 -3.6526 -0.3513 -0.7152 -1.7898 1.4715 2.71 -4.1311 -3.2953 2.1259 0.3262 1.1314 -1.0084 0.9782 0.1823 0.2386c-0.3363,2.3801 -3.6023,6.6984 -6.542,8.5786l2.0995 0.3486 0.5175 0.512 16.0644 -11.4918 0.0187 0.0624 0.7294 -3.2257z"/>
   <path id="_150762512" class="fil5" d="M145.838 86.7958l-1.4722 0.9413c-0.5304,1.2417 -0.9242,2.6193 -2.3401,3.5249 -0.4763,0.3052 -0.7181,-0.5558 -2.5107,0.5907 -0.5952,0.3809 -3.3106,4.0747 -1.9937,3.6417l-0.044 0.7044 -1.1044 0.7061 0.3729 0.7517 -0.5221 0.7342 15.1949 -10.8698 0.3089 -4.4912 -2.1862 1.0603 -3.7033 2.7057z"/>
   <path id="_45814784" class="fil5" d="M127.979 94.9648c1.3923,-0.6587 2.0745,-1.1032 2.1114,0.4999l-1.1189 1.1012c2.4856,-1.5895 4.2272,-3.7165 5.5867,-4.5868l0.3687 -0.2345c1.4166,-0.9058 1.5026,-0.7744 1.7743,-0.1211l1.4726 -0.9416 1.2409 0.4285 -0.615 -1.0934 1.8318 -0.4218 0.3123 1.0218 0.9911 -1.5888 0.9805 -0.7015 -0.0663 1.0557 0.7365 -0.4707 0.5514 -2.0256 -5.1177 1.5648 -8.1197 5.4831 -0.577 -0.9697 0.1976 0.169 1.5599 -2.3493 -0.276 -0.0436 -2.18 1.0129 -1.5098 1.0345 -0.1353 2.177zm0.2098 -3.373c2.6856,-1.2943 4.4004,-2.0498 4.6208,-5.5944 1.1728,-0.2374 1.3072,-0.3641 1.538,-1.9975l-2.6064 2.3892 -0.1452 2.0746 -1.4508 0.5893 -1.8481 1.5891 0.0298 -0.764 -0.0329 0.0207 -0.1052 1.693z"/>
   <path id="_150326032" class="fil2" d="M165.584 76.1986l1.4201 -0.4434 7.7338 -5.7231 0.2617 0.6199 4.0293 -2.8824 -0.5175 -0.512 -4.0492 1.3976 0.4137 0.9136 -4.1147 3.0641 1.9519 -2.6434 -1.8662 1.1529 -0.4999 1.6596 -1.06 0.6908c-0.9547,0.6103 -1.6416,-0.2512 -3.204,0.3583l0.4142 -1.2866 -0.1911 -0.2112 -3.0507 3.6472 0.2052 0.1876 2.2205 -1.8234 -0.4885 1.3843 1.5493 -1.3464 -1.1579 1.796zm8.2854 -4.738l-1.3068 0.6333 -0.6232 0.7473 1.93 -1.3806z"/>
   <polygon id="_151454456" class="fil1" points="171.939,72.8412 172.563,72.0939 173.869,71.4606 174.999,70.652 174.738,70.0321 167.004,75.7552 165.584,76.1986 165.668,77.3272 "/>
   <path id="_48127120" class="fil9" d="M129.476 103.217l-0.1868 -1.0942 1.8439 -0.7768 5.3989 -8.6964 0.1688 -1.0265c-0.2717,-0.6533 -0.3577,-0.7847 -1.7743,0.1211l-0.3687 0.2345c-1.3595,0.8703 -3.1011,2.9973 -5.5867,4.5868l1.1189 -1.1012c-0.0369,-1.6031 -0.7191,-1.1586 -2.1114,-0.4999l-2.3699 4.5924 0.3364 6.1861 3.5309 -2.5259z"/>
   <polygon id="_152234968" class="fil0 str0" points="146.597,58.9129 161.554,64.7108 159.82,74.3129 146.156,68.6914 "/>
   <polygon id="_46944104" class="fil0 str0" points="108.554,108.413 108.724,118.063 195.093,56.2778 198.571,41.0256 161.554,64.7108 159.82,74.3129 "/>
   <line id="_48549896" class="fil0 str4" x1="113.295" y1="67.104" x2="113.591" y2= "86.7395" />
  </g>
  <g id="_124944704">
   <polygon id="_152232280" class="fil11 str5" points="113.401,67.1178 171.475,39.9003 170.334,46.5474 146.703,58.9267 146.262,68.7052 113.697,86.7533 "/>
   <polygon id="_47772792" class="fil11 str6" points="56.6717,39.2721 113.274,63.494 113.186,67.0406 53.6522,40.1754 "/>
   <polygon id="_45434736" class="fil11 str6" points="113.385,63.7149 167.719,39.2712 171.37,39.9823 113.296,67.1998 "/>
   <polygon id="_151802536" class="fil11 str6" points="56.5545,39.3027 111.582,24.8892 114.362,25.5888 58.8661,40.2916 "/>
   <polygon id="_151674496" class="fil11 str6" points="114.417,25.6706 167.638,39.1955 165.433,40.1871 111.603,26.4161 "/>
   <polygon id="_151682576" class="fil11 str5" points="111.757,26.4843 165.301,40.282 156.805,44.1807 111.801,31.6832 "/>
   <polygon id="_46607816" class="fil11 str5" points="113.269,67.262 53.4215,40.259 53.7656,47.0204 79.0889,59.2006 79.1791,68.6081 113.565,86.8975 "/>
   <g>
    <line id="_48549896_0" class="fil0 str7" x1="113.297" y1="67.2615" x2="113.593" y2= "86.897" />
    <line id="_125783504" class="fil0 str7" x1="53.4826" y1="42.5184" x2="113.349" y2= "70.7142" />
    <line id="_274822560" class="fil0 str7" x1="53.6347" y1="44.8893" x2="113.44" y2= "74.4883" />
    <line id="_46575088" class="fil0 str7" x1="113.369" y1="77.9393" x2="79.0367" y2= "60.7283" />
    <line id="_123901512" class="fil0 str7" x1="113.499" y1="81.7021" x2="79.1669" y2= "64.4911" />
    <line id="_276832632" class="fil0 str7" x1="113.565" y1="85.3823" x2="79.1987" y2= "67.7408" />
    <line id="_126700768" class="fil0 str7" x1="58.3274" y1="42.4595" x2="58.3864" y2= "44.828" />
    <line id="_46574256" class="fil0 str7" x1="64.2038" y1="45.131" x2="64.2643" y2= "47.5963" />
    <line id="_44681528" class="fil0 str7" x1="69.8006" y1="47.6361" x2="69.8382" y2= "50.2215" />
    <line id="_270069728" class="fil0 str7" x1="75.6638" y1="50.3206" x2="75.7218" y2= "52.9612" />
    <line id="_46573896" class="fil0 str7" x1="82.1906" y1="53.2348" x2="82.2282" y2= "56.0068" />
    <line id="_47031608" class="fil0 str7" x1="88.0481" y1="55.8693" x2="88.1094" y2= "58.8269" />
    <line id="_46392288" class="fil0 str7" x1="94.5806" y1="58.8335" x2="94.6287" y2= "61.8972" />
    <line id="_45445056" class="fil0 str7" x1="100.444" y1="61.4622" x2="100.497" y2= "64.6613" />
    <line id="_46572600" class="fil0 str7" x1="106.971" y1="64.4322" x2="106.978" y2= "67.7137" />
    <line id="_43628856" class="fil0 str7" x1="84.7541" y1="63.5848" x2="84.8082" y2= "67.3191" />
    <line id="_46911448" class="fil0 str7" x1="90.6334" y1="66.5289" x2="90.722" y2= "70.2838" />
    <line id="_45051472" class="fil0 str7" x1="96.2327" y1="69.3488" x2="96.333" y2= "73.0966" />
    <line id="_45040624" class="fil0 str7" x1="102.099" y1="72.2897" x2="102.14" y2= "76.008" />
    <line id="_273307424" class="fil0 str7" x1="108.626" y1="75.5619" x2="108.617" y2= "79.2547" />
    <line id="_126578304" class="fil0 str7" x1="87.3204" y1="68.5106" x2="87.411" y2= "71.8739" />
    <line id="_46932144" class="fil0 str7" x1="80.7045" y1="65.274" x2="80.7951" y2= "68.6373" />
    <line id="_45118432" class="fil0 str7" x1="93.2039" y1="71.528" x2="93.2883" y2= "74.9928" />
    <line id="_46998680" class="fil0 str7" x1="98.8059" y1="74.3363" x2="98.8993" y2= "77.7146" />
    <line id="_129036792" class="fil0 str7" x1="104.67" y1="77.2763" x2="104.72" y2= "80.842" />
    <line id="_43955840" class="fil0 str7" x1="111.19" y1="80.5444" x2="111.166" y2= "84.1509" />
    <line id="_47034704" class="fil0 str7" x1="58.0749" y1="47.0496" x2="58.126" y2= "49.1038" />
    <line id="_272879584" class="fil0 str7" x1="55.1039" y1="43.3074" x2="55.155" y2= "45.6219" />
    <line id="_47027992" class="fil0 str7" x1="63.951" y1="49.9951" x2="64" y2= "51.9909" />
    <line id="_125214560" class="fil0 str7" x1="69.4942" y1="52.7386" x2="69.5636" y2= "54.7009" />
    <line id="_46375352" class="fil0 str7" x1="75.408" y1="55.614" x2="75.4492" y2= "57.4911" />
    <line id="_45135640" class="fil0 str7" x1="81.9348" y1="58.842" x2="82.0063" y2= "62.217" />
    <line id="_270999736" class="fil0 str7" x1="87.7923" y1="61.758" x2="87.8261" y2= "65.1345" />
    <line id="_45344016" class="fil0 str7" x1="94.3248" y1="65.0362" x2="94.3649" y2= "68.4126" />
    <line id="_47116520" class="fil0 str7" x1="100.188" y1="67.9467" x2="100.233" y2= "71.3543" />
    <line id="_44938736" class="fil0 str7" x1="106.715" y1="71.2305" x2="106.722" y2= "74.6072" />
    <line id="_46559120" class="fil0 str7" x1="61.2203" y1="46.2472" x2="61.2793" y2= "48.6157" />
    <line id="_130356184" class="fil0 str7" x1="67.0967" y1="48.9187" x2="67.1201" y2= "51.5636" />
    <line id="_46906952" class="fil0 str7" x1="72.6946" y1="51.5669" x2="72.7155" y2= "54.2848" />
    <line id="_46580464" class="fil0 str7" x1="78.56" y1="54.3293" x2="78.6025" y2= "57.2465" />
    <line id="_274822392" class="fil0 str7" x1="85.0893" y1="57.4045" x2="85.1355" y2= "60.4798" />
    <line id="_122876672" class="fil0 str7" x1="90.9539" y1="60.1665" x2="91.0351" y2= "63.3996" />
    <line id="_272254560" class="fil0 str7" x1="97.481" y1="63.2406" x2="97.5212" y2= "66.6099" />
    <line id="_46928136" class="fil0 str7" x1="103.343" y1="66.0013" x2="103.369" y2= "69.5043" />
    <line id="_45536328" class="fil0 str7" x1="109.857" y1="69.0696" x2="109.83" y2= "72.702" />
   </g>
   <line id="_48549896_1" class="fil0 str7" x1="113.597" y1="67.2146" x2="113.742" y2= "86.8606" />
   <line id="_44197840" class="fil0 str7" x1="170.819" y1="41.7858" x2="113.622" y2= "70.6692" />
   <line id="_46568528" class="fil0 str7" x1="170.724" y1="44.1593" x2="113.618" y2= "74.4457" />
   <line id="_126091240" class="fil0 str7" x1="113.762" y1="77.8971" x2="146.54" y2= "60.2915" />
   <line id="_45353008" class="fil0 str7" x1="113.719" y1="81.6628" x2="146.497" y2= "64.0571" />
   <line id="_276963952" class="fil0 str7" x1="113.736" y1="85.3451" x2="146.538" y2= "67.3084" />
   <line id="_46923648" class="fil0 str7" x1="166.139" y1="41.7817" x2="166.134" y2= "44.1518" />
   <line id="_46894416" class="fil0 str7" x1="160.522" y1="44.5207" x2="160.518" y2= "46.9876" />
   <line id="_44568496" class="fil0 str7" x1="155.172" y1="47.09" x2="155.193" y2= "49.6768" />
   <line id="_47078384" class="fil0 str7" x1="149.569" y1="49.8418" x2="149.571" y2= "52.484" />
   <line id="_47098464" class="fil0 str7" x1="143.33" y1="52.8309" x2="143.354" y2= "55.6043" />
   <line id="_47104448" class="fil0 str7" x1="137.731" y1="55.5327" x2="137.736" y2= "58.492" />
   <line id="_47108008" class="fil0 str7" x1="131.487" y1="58.5718" x2="131.508" y2= "61.6372" />
   <line id="_47114816" class="fil0 str7" x1="125.882" y1="61.2678" x2="125.901" y2= "64.4686" />
   <line id="_47118776" class="fil0 str7" x1="117.315" y1="65.4519" x2="117.38" y2= "68.7347" />
   <line id="_47122808" class="fil0 str7" x1="141.081" y1="63.2137" x2="141.111" y2= "66.95" />
   <line id="_47125888" class="fil0 str7" x1="135.468" y1="66.2254" x2="135.465" y2= "69.9826" />
   <line id="_47130784" class="fil0 str7" x1="130.122" y1="69.1096" x2="130.108" y2= "72.8599" />
   <line id="_122547968" class="fil0 str7" x1="124.521" y1="72.118" x2="124.563" y2= "75.8381" />
   <line id="_122628104" class="fil0 str7" x1="118.29" y1="75.4652" x2="118.38" y2= "79.1592" />
   <line id="_122610728" class="fil0 str7" x1="138.711" y1="68.1703" x2="138.697" y2= "71.5359" />
   <line id="_122544240" class="fil0 str7" x1="145.029" y1="64.8577" x2="145.016" y2= "68.2233" />
   <line id="_122575864" class="fil0 str7" x1="133.095" y1="71.2554" x2="133.09" y2= "74.7224" />
   <line id="_122623248" class="fil0 str7" x1="127.747" y1="74.1281" x2="127.731" y2= "77.5087" />
   <line id="_122606688" class="fil0 str7" x1="122.148" y1="77.1355" x2="122.178" y2= "80.703" />
   <line id="_122556392" class="fil0 str7" x1="115.924" y1="80.4785" x2="116.026" y2= "84.0861" />
   <line id="_122636272" class="fil0 str7" x1="166.483" y1="46.3706" x2="166.479" y2= "48.4262" />
   <line id="_122554248" class="fil0 str7" x1="169.27" y1="42.5934" x2="169.272" y2= "44.9094" />
   <line id="_122554224" class="fil0 str7" x1="160.873" y1="49.3837" x2="160.87" y2= "51.3807" />
   <line id="_122568128" class="fil0 str7" x1="155.58" y1="52.1909" x2="155.556" y2= "54.1547" />
   <line id="_122600224" class="fil0 str7" x1="149.932" y1="55.1343" x2="149.934" y2= "57.0125" />
   <line id="_122632312" class="fil0 str7" x1="143.7" y1="58.4372" x2="143.705" y2= "61.8143" />
   <line id="_122615080" class="fil0 str7" x1="138.107" y1="61.4206" x2="138.149" y2= "64.7987" />
   <line id="_122582432" class="fil0 str7" x1="131.87" y1="64.7739" x2="131.906" y2= "68.1519" />
   <line id="_16315664" class="fil0 str7" x1="126.272" y1="67.7518" x2="126.303" y2= "71.1611" />
   <line id="_46899816" class="fil0 str7" x1="120.041" y1="71.1106" x2="120.108" y2= "74.4886" />
   <line id="_129357968" class="fil0 str7" x1="163.428" y1="45.6035" x2="163.423" y2= "47.9736" />
   <line id="_46577584" class="fil0 str7" x1="157.812" y1="48.3425" x2="157.847" y2= "50.9886" />
   <line id="_44389936" class="fil0 str7" x1="152.464" y1="51.055" x2="152.503" y2= "53.7741" />
   <line id="_46981128" class="fil0 str7" x1="146.86" y1="53.8847" x2="146.883" y2= "56.8035" />
   <line id="_43920088" class="fil0 str7" x1="140.622" y1="57.0349" x2="140.645" y2= "60.1119" />
   <line id="_122602376" class="fil0 str7" x1="135.019" y1="59.8643" x2="135.011" y2= "63.0995" />
   <line id="_43910224" class="fil0 str7" x1="128.783" y1="63.0134" x2="128.818" y2= "66.3843" />
   <line id="_275854776" class="fil0 str7" x1="123.183" y1="65.8414" x2="123.234" y2= "69.3459" />
   <line id="_45300496" class="fil0 str7" x1="116.959" y1="68.9845" x2="117.064" y2= "72.6179" />
   <line id="_47039672" class="fil0 str7" x1="58.1164" y1="42.5228" x2="61.8447" y2= "41.4858" />
   <line id="_45301456" class="fil0 str7" x1="64.1641" y1="45.1057" x2="67.6134" y2= "44.2192" />
   <line id="_274652072" class="fil0 str7" x1="69.8528" y1="47.5876" x2="73.2449" y2= "46.7158" />
   <line id="_46555832" class="fil0 str7" x1="75.7261" y1="50.2529" x2="79.5341" y2= "49.2742" />
   <line id="_274956272" class="fil0 str7" x1="82.2066" y1="53.1113" x2="86.0765" y2= "52.1167" />
   <line id="_122980944" class="fil0 str7" x1="87.9813" y1="55.7935" x2="92.1982" y2= "54.7097" />
   <line id="_47107360" class="fil0 str7" x1="94.5877" y1="58.7739" x2="99.0427" y2= "57.6289" />
   <line id="_128640960" class="fil0 str7" x1="100.414" y1="61.4189" x2="105.04" y2= "60.2301" />
   <line id="_126390240" class="fil0 str7" x1="107.01" y1="64.3262" x2="112.03" y2= "63.0063" />
   <line id="_44082448" class="fil0 str7" x1="168.27" y1="42.4098" x2="165.129" y2= "41.6024" />
   <line id="_130357008" class="fil0 str7" x1="162.433" y1="45.056" x2="158.984" y2= "44.1695" />
   <line id="_47222648" class="fil0 str7" x1="156.745" y1="47.5379" x2="153.352" y2= "46.6661" />
   <line id="_127276080" class="fil0 str7" x1="150.871" y1="50.2032" x2="147.063" y2= "49.2245" />
   <line id="_276442816" class="fil0 str7" x1="144.391" y1="53.0616" x2="140.521" y2= "52.067" />
   <line id="_43615704" class="fil0 str7" x1="138.616" y1="55.7438" x2="134.399" y2= "54.66" />
   <line id="_43445648" class="fil0 str7" x1="132.01" y1="58.7242" x2="127.555" y2= "57.5792" />
   <line id="_126578216" class="fil0 str7" x1="126.183" y1="61.3692" x2="121.558" y2= "60.1804" />
   <line id="_10907904" class="fil0 str7" x1="117.324" y1="65.2792" x2="111.669" y2= "62.8821" />
   <polygon id="_45885888" class="fil11 str5" points="112.255,63.4366 114.95,64.6035 113.445,66.9192 111.173,65.8953 "/>
   <polygon id="_46416528" class="fil11 str5" points="59.5067,40.2943 112.188,26.337 112.232,31.5342 68.7801,44.2051 "/>
   <g>
    <line id="_46845536" class="fil0 str8" x1="62.7211" y1="41.677" x2="112.2" y2= "28.0592" />
    <line id="_46434664" class="fil0 str8" x1="65.8001" y1="42.9083" x2="112.217" y2= "30.0041" />
    <line id="_129828376" class="fil0 str8" x1="107.671" y1="27.4395" x2="107.713" y2= "29.2944" />
    <line id="_269297296" class="fil0 str8" x1="101.83" y1="30.9134" x2="101.834" y2= "28.9861" />
    <line id="_269082592" class="fil0 str8" x1="96.1902" y1="32.4656" x2="96.2184" y2= "30.4738" />
    <line id="_47088120" class="fil0 str8" x1="90.1079" y1="32.2565" x2="90.1493" y2= "34.1114" />
    <line id="_45049096" class="fil0 str8" x1="84.2668" y1="35.7304" x2="84.2705" y2= "33.8031" />
    <line id="_130070776" class="fil0 str8" x1="78.6269" y1="37.2826" x2="78.6551" y2= "35.2908" />
    <line id="_274802904" class="fil0 str8" x1="72.5446" y1="36.8005" x2="72.586" y2= "38.9284" />
    <line id="_122610680" class="fil0 str8" x1="66.7035" y1="40.5474" x2="66.7124" y2= "38.3497" />
    <line id="_46982088" class="fil0 str8" x1="108.034" y1="31.167" x2="108.071" y2= "32.873" />
    <line id="_46914728" class="fil0 str8" x1="102.194" y1="34.5609" x2="102.197" y2= "32.7885" />
    <line id="_47199920" class="fil0 str8" x1="96.5535" y1="36.268" x2="96.5807" y2= "34.3511" />
    <line id="_122878696" class="fil0 str8" x1="90.4712" y1="36.0589" x2="90.5047" y2= "37.9695" />
    <line id="_277706720" class="fil0 str8" x1="84.6298" y1="39.6837" x2="84.6335" y2= "37.7564" />
    <line id="_122489024" class="fil0 str8" x1="78.9867" y1="41.337" x2="79.0149" y2= "39.3452" />
    <line id="_46819312" class="fil0 str8" x1="72.9146" y1="40.9494" x2="72.956" y2= "43.0773" />
    <line id="_47204560" class="fil0 str8" x1="105.365" y1="29.9406" x2="105.391" y2= "31.912" />
    <line id="_47029608" class="fil0 str8" x1="99.5086" y1="33.531" x2="99.5123" y2= "31.6037" />
    <line id="_46366848" class="fil0 str8" x1="93.8687" y1="35.0832" x2="93.8969" y2= "33.0914" />
    <line id="_129936704" class="fil0 str8" x1="87.8457" y1="34.7622" x2="87.8278" y2= "36.729" />
    <line id="_45393544" class="fil0 str8" x1="81.9281" y1="38.4247" x2="81.949" y2= "36.4207" />
    <line id="_47150496" class="fil0 str8" x1="76.3042" y1="39.9887" x2="76.3148" y2= "37.9358" />
    <line id="_45300712" class="fil0 str8" x1="70.2264" y1="39.586" x2="70.2678" y2= "41.7139" />
   </g>
   <g>
    <line id="_275855784" class="fil0 str8" x1="162.755" y1="41.6831" x2="112.097" y2= "28.2193" />
    <line id="_278267712" class="fil0 str8" x1="159.603" y1="42.9005" x2="112.08" y2= "30.1422" />
    <line id="_126758448" class="fil0 str8" x1="116.734" y1="27.6066" x2="116.692" y2= "29.4405" />
    <line id="_276442264" class="fil0 str8" x1="122.714" y1="31.0412" x2="122.711" y2= "29.1357" />
    <line id="_271622368" class="fil0 str8" x1="128.489" y1="32.5759" x2="128.46" y2= "30.6066" />
    <line id="_46933280" class="fil0 str8" x1="134.716" y1="32.3691" x2="134.673" y2= "34.2031" />
    <line id="_45352432" class="fil0 str8" x1="140.696" y1="35.8037" x2="140.692" y2= "33.8982" />
    <line id="_44070464" class="fil0 str8" x1="146.471" y1="37.3384" x2="146.442" y2= "35.3691" />
    <line id="_126599248" class="fil0 str8" x1="152.698" y1="36.8617" x2="152.655" y2= "38.9656" />
    <line id="_44535464" class="fil0 str8" x1="158.678" y1="40.5663" x2="158.669" y2= "38.3934" />
    <line id="_45107088" class="fil0 str8" x1="116.363" y1="31.2919" x2="116.325" y2= "32.9787" />
    <line id="_47136344" class="fil0 str8" x1="122.342" y1="34.6475" x2="122.339" y2= "32.8951" />
    <line id="_45025888" class="fil0 str8" x1="128.117" y1="36.3353" x2="128.089" y2= "34.44" />
    <line id="_269696992" class="fil0 str8" x1="134.344" y1="36.1285" x2="134.31" y2= "38.0175" />
    <line id="_129038688" class="fil0 str8" x1="140.325" y1="39.7123" x2="140.321" y2= "37.8068" />
    <line id="_44535616" class="fil0 str8" x1="146.102" y1="41.3469" x2="146.073" y2= "39.3777" />
    <line id="_123900448" class="fil0 str8" x1="152.319" y1="40.9637" x2="152.277" y2= "43.0676" />
    <line id="_274325656" class="fil0 str8" x1="119.096" y1="30.0794" x2="119.069" y2= "32.0285" />
    <line id="_269119336" class="fil0 str8" x1="125.091" y1="33.6292" x2="125.087" y2= "31.7237" />
    <line id="_46949000" class="fil0 str8" x1="130.865" y1="35.1639" x2="130.837" y2= "33.1946" />
    <line id="_44000520" class="fil0 str8" x1="137.032" y1="34.8465" x2="137.05" y2= "36.7911" />
    <line id="_274578976" class="fil0 str8" x1="143.091" y1="38.4676" x2="143.069" y2= "36.4862" />
    <line id="_274579168" class="fil0 str8" x1="148.849" y1="40.0139" x2="148.838" y2= "37.9842" />
    <line id="_275856568" class="fil0 str8" x1="155.071" y1="39.6157" x2="155.029" y2= "41.7196" />
   </g>
   <line id="_47107632" class="fil0 str8" x1="66.7123" y1="38.3853" x2="64.3126" y2= "37.2706" />
   <line id="_130355896" class="fil0 str8" x1="72.8356" y1="36.7838" x2="70.4359" y2= "35.6691" />
   <line id="_124120944" class="fil0 str8" x1="78.8315" y1="35.2437" x2="76.4318" y2= "34.129" />
   <line id="_276211312" class="fil0 str8" x1="84.5053" y1="33.7351" x2="82.1056" y2= "32.6204" />
   <line id="_129576544" class="fil0 str8" x1="90.3133" y1="32.2028" x2="87.9136" y2= "31.0881" />
   <line id="_270127024" class="fil0 str8" x1="96.447" y1="30.6004" x2="94.0473" y2= "29.4857" />
   <line id="_47211688" class="fil0 str8" x1="102.111" y1="29.1033" x2="99.7111" y2= "27.9886" />
   <line id="_44369600" class="fil0 str8" x1="107.854" y1="27.6284" x2="105.454" y2= "26.5137" />
   <line id="_129031072" class="fil0 str8" x1="111.801" y1="31.6832" x2="111.952" y2= "26.2273" />
   <line id="_45352624" class="fil0 str8" x1="116.731" y1="27.7282" x2="118.822" y2= "26.7901" />
   <line id="_268753144" class="fil0 str8" x1="122.559" y1="29.2096" x2="124.649" y2= "28.2715" />
   <line id="_46568984" class="fil0 str8" x1="128.324" y1="30.6844" x2="130.415" y2= "29.7463" />
   <line id="_47243592" class="fil0 str8" x1="134.498" y1="32.3381" x2="136.433" y2= "31.2656" />
   <line id="_122425336" class="fil0 str8" x1="140.45" y1="33.9052" x2="142.719" y2= "32.8631" />
   <line id="_47208344" class="fil0 str8" x1="146.271" y1="35.2946" x2="148.362" y2= "34.3565" />
   <line id="_122436168" class="fil0 str8" x1="152.59" y1="36.928" x2="154.681" y2= "35.9899" />
   <line id="_46452784" class="fil0 str8" x1="158.622" y1="38.496" x2="160.712" y2= "37.5579" />
  </g>
 </g>
</svg>
