<?xml version="1.0" encoding="UTF-8"?>
<!DOCTYPE svg PUBLIC "-//W3C//DTD SVG 1.1//EN" "http://www.w3.org/Graphics/SVG/1.1/DTD/svg11.dtd">
<!-- Creator: CorelDRAW -->
<svg xmlns="http://www.w3.org/2000/svg" xml:space="preserve" width="210mm" height="297mm" style="shape-rendering:geometricPrecision; text-rendering:geometricPrecision; image-rendering:optimizeQuality; fill-rule:evenodd; clip-rule:evenodd"
viewBox="0 0 210 297"
 xmlns:xlink="http://www.w3.org/1999/xlink">
 <defs>
  <style type="text/css">
   <![CDATA[
    .str2 {stroke:#004E32;stroke-width:0.0762}
    .str3 {stroke:#004F33;stroke-width:0.0762}
    .str1 {stroke:#05A742;stroke-width:0.0762}
    .str0 {stroke:#1F1A17;stroke-width:0.0762}
    .str5 {stroke:#800923;stroke-width:0.0762}
    .str4 {stroke:#838281;stroke-width:0.0762}
    .str6 {stroke:#605D5C;stroke-width:0.35}
    .str8 {stroke:#605D5C;stroke-width:0.5}
    .str7 {stroke:#605D5C;stroke-width:0.5}
    .fil4 {fill:none}
    .fil6 {fill:#00A43C}
    .fil5 {fill:#05A742}
    .fil7 {fill:#735D4A}
    .fil8 {fill:#800923}
    .fil3 {fill:#8A725A}
    .fil1 {fill:#967D66}
    .fil0 {fill:#A28D76}
    .fil2 {fill:#B6A28D}
   ]]>
  </style>
 </defs>
 <g id="Слой_x0020_1">
  <metadata id="CorelCorpID_0Corel-Layer"/>
  <g id="_126578272">
   <path id="_130724008" class="fil0" d="M88.8906 59.463c2.0076,0.536 0.8269,0.9458 2.3645,0.9458l1.419 0 -0.0172 0.5517 -2.4189 0.1343 1.0171 0.2601 -0.0233 0.8752 -0.8954 0.4405 1.7941 0.5529 0.3311 -0.9934 0.0135 0.5879 4.2272 1.9281 1.1753 0.393 0.0204 -1.3126 2.3445 -0.5796 0 1.4192 3.4941 0.1706 -1.1049 1.3449 2.548 -0.9225 -3.5425 -2.0235 5.2274 0.0113 0.0186 -1.0037 1.8739 0.5306 0 0.9462 -0.9463 0 0.1349 1.6269 1.7573 -1.6269 0.9459 0 0 1.4191 1.4021 -0.0043 0.5028 -2.2938 1.2936 -0.3348 -2.3801 -1.3534 1.6272 -0.8746 -1.0264 -0.8152 1.4188 0 -0.0344 0.7747 3.3455 -0.3017 0.2747 -2.6766 0.6771 -1.0453 2.3595 -0.5353 -35.4763 0 0.8277 0.473 0.0943 2.2384 2.2065 -0.1754 1.1291 1.2482z"/>
   <path id="_123662056" class="fil0" d="M133.354 69.8692l1.892 2.365 1.8925 0 0 -1.5482 3.7837 0.1292 0 -0.946 1.3278 0.0548 -0.7754 -1.7685 -2.895 1.2905 0.1636 -0.6073 -4.9536 -1.6206 2.0962 -0.3015 -1.5859 -1.7775 0.0819 1.2242 -2.188 -0.7715 -0.235 -2.7468 0.9125 -0.518 1.4286 0.4468 0 0.9462 -0.9459 0 -0.0011 0.9173 3.3807 -0.0282 -0.9097 -1.1964 1.3146 -1.1118 1.0341 -0.5069 -0.5412 -1.4918 2.3448 0.5798 0.4729 -0.946 -0.9458 0 0 -1.4193c0,-0.7738 -0.2832,-1.4189 -0.9461,-1.4189 -1.1371,0 -1.3907,0.7665 -2.418,1.499l-1.8393 -1.499 0.9461 0 -0.0236 -0.875 -0.9225 -0.544 -9.9332 0 -2.9188 1.492 1.5 1.8186 -3.1454 -0.1042 -1.1376 -1.3241 -0.447 1.4288c0.5769,0.3241 0.5056,0.4731 1.4187,0.4731l1.5826 0.102 -1.082 1.7346 2.8107 1.4742 0 -0.9458 0.9201 -0.01 -0.3442 1.2453 2.3895 1.8048 -1.5207 0.734 0.4345 1.3621 -1.4063 0.54 2.8378 0 0 1.4191 1.3159 -0.0273 0.5765 -1.8649 -1.8213 -0.0234 -0.518 -0.9125 0.4469 -1.4291 1.4192 0 0 1.4189 1.419 0c1.8087,0 0.172,0.145 1.4911,-0.5l0.8706 2.871 -1.9571 -0.8949 1.0146 1.3622c2.7515,-0.0614 2.2554,-1.2353 2.838,0.9459z"/>
   <path id="_276963424" class="fil0" d="M73.1542 92.2106l0.3385 -0.2098 -1.0216 -2.638 2.2287 0.8463 0 -1.4195 -2.365 0c0.5541,-0.7969 0.0679,-0.946 1.419,-0.946 1.5377,0 0.3572,0.4097 2.294,0.9225l0.6128 -0.9795 -1.0148 -1.3621 1.4191 0 0 -0.9459 0 -2.3652 0.9461 0 -0.0269 -1.5222 -1.8832 0.573 0.4926 -2.3574 -2.8397 0.9416c0.4116,-1.5408 0.8872,-1.365 3.3111,-1.4192l-0.1044 -0.7801 -1.254 -1.2799 3.3006 1.3735 -1.4522 0.2179 -0.5867 2.3365 0.5212 0.1587 0.7002 -2.1411 1.7133 2.0067 0 0.946 -0.2644 0.4968 1.1178 0.426 1.0031 -3.5183 1.4796 2.8059 -0.2351 0.5255 1.6291 -2.1549 -1.4189 0 0 -1.4192c0.7252,0.4858 3.2075,1.8922 4.257,1.8922 1.0838,0 0.5503,-0.1601 1.8923,-0.473l-1.0146 -0.5298 1.0146 -1.3621 -0.9462 0 -0.0941 -2.5498 -3.3357 1.7661 1.504 1.1685 -1.2277 0.4033 -2.0236 -1.7242 0.396 -1.0453 -6.2387 -1.1359 3.4517 -1.6128 -1.8835 -0.5377 -0.0012 -0.476 1.315 0.043 0.5697 -2.3405 2.4195 -0.0912 -1.4737 -1.3276 -0.8997 0.0333 -1.4482 1.8547 -0.4801 -2.3353 -1.5353 0.2887 2.9445 -2.2067c-1.9436,0.162 -1.0568,0.4731 -2.8381,0.4731 -2.1355,0 -0.9279,-1.1584 -3.3112,-1.4192l0.135 -1.6267 1.8397 1.7053 1.7836 -1.4875 -0.4471 -1.4292 1.4188 0 0 -0.946 -1.5368 -0.374 2.3564 -0.596 -0.3471 2.3939 3.5171 0.3558 -0.8543 -2.5097 1.5904 2.1265 2.8428 -0.4505 0 0.9462 -1.192 0.1356 -1.1732 1.7563 1.419 0 0.0337 -1.5071 1.3854 0.5612 0 -0.946 1.0342 -0.034 -0.4797 -1.1958 1.8107 -1.1353 -1.0429 -0.0245 0.5701 -2.3405 -1.1291 -1.2482 -2.2065 0.1754 -0.0943 -2.2384 -0.8277 -0.473 -30.2727 0 0 22.9405 18.7939 13.5913z"/>
   <path id="_47106376" class="fil1" d="M88.8906 59.463l-0.5701 2.3405 1.0429 0.0245 -1.8107 1.1353 0.4797 1.1958 -1.0342 0.034 0 0.946 -1.3854 -0.5612 -0.0337 1.5071 -1.419 0 1.1732 -1.7563 1.192 -0.1356 0 -0.9462 -2.8428 0.4505 -1.5904 -2.1265 0.8543 2.5097 -3.5171 -0.3558 0.3471 -2.3939 -2.3564 0.596 1.5368 0.374 0 0.946 -1.4188 0 0.4471 1.4292 -1.7836 1.4875 -1.8397 -1.7053 -0.135 1.6267c2.3833,0.2608 1.1757,1.4192 3.3112,1.4192 1.7813,0 0.8945,-0.3111 2.8381,-0.4731l-2.9445 2.2067 1.5353 -0.2887 0.4801 2.3353 1.4482 -1.8547 0.8997 -0.0333 1.4737 1.3276 -2.4195 0.0912 -0.5697 2.3405 -1.315 -0.043 0.0012 0.476 1.8835 0.5377 6.3128 2.2628 -0.8802 -1.6059 1.6282 -2.0032 2.3993 0.8732 0 -0.9461 -1.4186 0 0.391 -0.4698 -2.7563 -2.3682 0.9458 0 0 -0.9459 -1.9636 0.0156 0.5531 2.7575 1.8836 0.5378 -2.2407 0.0664 -1.0705 2.2987c-1.7706,-0.5872 0.7875,-0.1748 -2.365,-2.3651l1.8921 0c-0.4253,-2.0085 0.3356,-1.2104 0.5975,-2.952 0.3597,-2.3909 -1.1783,-2.0624 2.2406,-1.778 -1.121,-2.4237 0.7478,-1.8922 3.3253,-1.8715l-1.9258 1.8069 2.3844 -0.4085 -0.0543 -2.6894 2.8926 0.7974 -0.0185 0.8881 -2.0148 0.7626 3.5208 1.6034 -0.9121 -1.5258 1.6621 0.9184 1.5465 -0.7547 0 1.419c1.723,0.1433 3.0906,0.7727 3.7841,-0.9459l0.9461 0 0 0.9459 1.9607 -0.0569 -1.0145 -1.3621 2.8381 0 0.2627 -2.1548 1.6292 2.1548 -1.0041 0.0183 0.5273 1.8795 -2.172 -0.8572 0.2232 0.6598 -2.0726 0.8485 2.1331 1.7081 0.0036 -1.4283 4.2537 1.9014 -3.8628 0.0828 1.4976 1.8093 1.0345 -0.0341 -0.5615 -1.2666 2.2635 -0.017 1.139 1.4335 0.8548 2.7223 -1.4597 0.0249 0.5135 0.9209 2.365 -0.9458 -1.4188 -1.4191 0 -2.3651 -0.5962 0.0509 0.1229 -2.8889 2.2738 0.0548 -0.8546 -1.9469 -1.8921 0 0.0704 -1.6855 3.7135 -1.1525 -0.0044 0.923 2.8927 -0.1906 -1.5269 0.2319 0.5308 1.8737 1.4194 0 0 -0.946 2.4566 -0.2053 -2.0338 -1.0002 1.4691 -0.2136c-0.554,-0.7972 -0.0682,-0.9459 -1.4192,-0.9459l-1.8921 0 0 -0.9461 -1.4189 0 0.0183 -1.004 1.8738 0.5309 0 -0.946 1.3362 -0.0217 -0.1775 1.985 0.2602 -1.0173 0.8751 0.0238 0.5441 0.9224 0 -0.9462 1.0267 -0.1306 -0.9224 -0.9877 4.2253 2.3617 -1.8985 0.2052 -0.8452 2.5082 3.8962 2.1628 -0.2783 0.4795 -1.877 -0.0543 0.0058 0.514 -4.2573 -2.2456 -1.951 0.6759 1.5766 0.3042 0.8259 2.721 1.4189 0 -0.0062 -1.2787 4.8193 -0.1621 0.39 1.9138 2.0334 0.2317 -3.5371 1.8119 1.5037 0.7945 -0.0097 1.9179 1.4972 0.4732 -1.3386 3.8594 1.9572 0.7831 -0.2137 0.5348 -1.8924 0c-1.8082,0 -0.172,-0.1454 -1.2219,0.1428l-1.6159 -1.0889 1.892 0 -0.0847 -1.1774 -2.9109 1.1774 0.1574 -1.4193 -1.7027 -0.0813 -1.2715 -1.9232 -2.0305 2.6394 -0.9716 -1.237 -0.6728 1.7966 -2.811 0.6976 -0.4916 2.4232 -1.8735 -0.5311 0.0409 1.5564 3.7431 -1.0833 0 -1.4192 -0.946 0 0 -0.946c3.4581,0.2879 1.0978,3.6663 0.5025,4.1908l2.8086 1.0126 0 -1.4193 -1.0865 -0.0352 1.2219 -4.468 1.7435 -1.1707 0.4765 2.81 1.1998 -0.1622 3.0415 2.0702 -0.4644 1.2242 -2.349 0.1942 0.2532 -0.5093 -2.5916 -0.9091 0.4472 1.4289 -1.3461 -0.0342 0.8734 2.3993 2.3649 0 1.9729 -0.342 -0.9225 0.6493 1.3925 0.7842 2.8989 0.6903 -0.1387 0.583 0.9459 0 0 -1.4187c1.9498,0.902 4.4774,-0.9464 5.6762,2.3649l-0.473 0.9463 1.3931 0.0099 -0.2841 -1.1386 2.6753 -1.7091 -2.3653 0.4728 0 -0.9462 -2.838 0 -0.0047 -1.4363 -2.1967 0.3879 -1.0933 -1.912 3.7678 0.5955 0.0573 -2.018 2.2904 1.0674 0.5219 -2.1161 1.4557 -0.1881 -0.0684 -0.5295 3.3112 0 0 -1.8919 -1.4998 0.1307 0.9854 1.0602 -6.211 -1.1639 0.525 2.064 -2.4467 -0.6295 0.2602 -0.7176 -1.5964 -1.0034 1.5269 -0.232 -0.5309 -1.8739 0.9461 0 -0.0234 1.2615 5.2267 -0.7884 0 1.4191 4.0764 -0.2435 -2.6572 -3.0676 -1.4761 -0.5418 -1.3606 0.9517 -2.8397 0.0632c0.554,-0.7974 0.0677,-0.9462 1.4189,-0.9462l1.8921 0 0 -1.4189c-2.8525,0.3121 -0.0238,0.4731 -3.784,0.4731l-1.4192 0c0.6098,-1.6852 1.9179,-1.8179 -1.4189,-1.8921l0 2.365 -1.0667 -0.0197 0.5935 -3.2913c1.6514,0.3845 7.2175,-0.4592 5.2032,-2.3652l1.4877 -0.0568 -1.0147 -1.3621c-0.5826,-2.1812 -0.0865,-1.0073 -2.838,-0.9459l-1.0146 -1.3622 1.9571 0.8949 -0.8706 -2.871c-1.3191,0.645 0.3176,0.5 -1.4911,0.5l-1.419 0 0 -1.4189 -1.4192 0 -0.4469 1.4291 0.518 0.9125 1.8213 0.0234 -0.5765 1.8649 -1.3159 0.0273 0 -1.4191 -2.8378 0 1.4063 -0.54 -0.4345 -1.3621 1.5207 -0.734 -2.3895 -1.8048 0.3442 -1.2453 -0.9201 0.01 0 0.9458 -2.8107 -1.4742 1.082 -1.7346 -1.5826 -0.102c-0.9131,0 -0.8418,-0.149 -1.4187,-0.4731l0.447 -1.4288 1.1376 1.3241 3.1454 0.1042 -1.5 -1.8186 2.9188 -1.492 -4.2569 0 -2.3595 0.5353 -0.6771 1.0453 -0.2747 2.6766 -3.3455 0.3017 0.0344 -0.7747 -1.4188 0 1.0264 0.8152 -1.6272 0.8746 2.3801 1.3534 -1.2936 0.3348 -0.5028 2.2938 -1.4021 0.0043 0 -1.4191 -0.9459 0 -1.7573 1.6269 -0.1349 -1.6269 0.9463 0 0 -0.9462 -1.8739 -0.5306 -0.0186 1.0037 -5.2274 -0.0113 3.5425 2.0235 -2.548 0.9225 1.1049 -1.3449 -3.4941 -0.1706 0 -1.4192 -2.3445 0.5796 -0.0204 1.3126 -1.1753 -0.393 -4.2272 -1.9281 -0.0135 -0.5879 -0.3311 0.9934 -1.7941 -0.5529 0.8954 -0.4405 0.0233 -0.8752 -1.0171 -0.2601 2.4189 -0.1343 0.0172 -0.5517 -1.419 0c-1.5376,0 -0.3569,-0.4098 -2.3645,-0.9458z"/>
   <path id="_130526416" class="fil2" d="M165.046 69.3964l-2.3651 -1.4193 0 0.9462 0.9516 0.0036 -1.0458 2.0727 -3.2879 -1.8163 1.017 -0.26 -0.2368 -0.7098 -1.1637 -1.7134 1.8734 0.531c0.336,-1.0134 0.4795,-0.9461 1.8922,-0.9461l1.4191 0 0.0041 1.4022 2.4795 0.6523 -1.5376 1.2569zm-20.8127 -2.3653l-0.3422 1.2678 2.2087 1.5605 -0.4475 1.4287c3.1656,0.2635 2.5366,1.4191 5.2033,1.4191 1.0833,0 0.5497,-0.1603 1.8089,-0.4515l-0.3901 -1.9135c1.1267,1.1878 2.417,1.419 4.7303,1.419l2.7671 0.0237 0.544 0.9223c0.2815,-1.0541 0.1102,-1.4191 1.419,-1.4191l1.892 0 0 -1.4189 0.7804 0.1047 1.1696 1.296 -0.5308 -1.8735 0.946 0 0.1306 1.0268 0.8154 -1.0268 0 1.4188 0.891 0.0032 0.0644 -3.3724 -3.3404 -0.4334 0.9661 -1.4006 1.4189 0c1.3085,0 1.1374,-0.3649 1.4364,-1.2928l4.2396 -0.5992 0 -8.0412 -2.8381 0 0.8632 0.4515 -0.39 1.9136 -1.892 0 0 1.8921c-1.2687,-0.3036 -0.8919,-0.473 -1.8922,-0.473 -1.0834,0 -0.5498,0.1605 -1.8662,0.4826l0.4473 -1.4289 2.5227 -0.1574 -1.8923 -1.8919 0.155 0.6695 -3.2051 1.4712 1.4272 0.9942 -2.082 0.5702 1.187 1.599 6.1849 0.5231 -0.0405 0.4792 -1.4997 0.1309 1.0153 0.7817 -4.2456 1.4527 -0.0191 -0.8281 -3.7651 -0.591c-2.1083,-0.3372 -5.0177,1.1345 -6.0782,1.8685l-0.5439 -0.9224 0.0816 1.2298 1.792 1.1931 -1.8736 -0.5309c0.3109,3.7364 1.4234,0.9461 3.3111,0.9461 1.332,0 0.8758,0.2046 1.2918,0.755l-1.2894 1.1192 -4.2422 -0.5815 -0.0191 0.7209 -7.2309 -0.2208 1.0835 -1.7928 -1.4191 0c-1.8083,0 -0.1721,0.145 -1.419,-0.4731z"/>
   <path id="_276180080" class="fil0" d="M139.976 60.882l2.8927 -0.5645 -1.4513 -1.3776 3.3902 1.5704 -1.757 1.3177 -0.4387 -1.0736 -0.7437 1.5465c-1.5649,-0.7506 -2.6027,-0.7344 -2.6254,1.4901l0.2603 -1.0172 0.9458 0 0.2597 1.4691 0.2134 -1.4691 0.9462 0 0 0.9462 2.01 0.3743 -2.2883 0.4901 0.7513 2.4467 1.892 0c1.2469,0.6181 -0.3893,0.4731 1.419,0.4731l1.4191 0 -1.0835 1.7928 7.2309 0.2208 0.0191 -0.7209 4.2422 0.5815 1.2894 -1.1192c-0.416,-0.5504 0.0402,-0.755 -1.2918,-0.755 -1.8877,0 -3.0002,2.7903 -3.3111,-0.9461l1.8736 0.5309 -1.792 -1.1931 -0.0816 -1.2298 0.5439 0.9224c1.0605,-0.734 3.9699,-2.2057 6.0782,-1.8685l3.7651 0.591 0.0191 0.8281 4.2456 -1.4527 -1.0153 -0.7817 1.4997 -0.1309 0.0405 -0.4792 -6.1849 -0.5231 -1.187 -1.599 2.082 -0.5702 -1.4272 -0.9942 3.2051 -1.4712 -0.155 -0.6695 1.8923 1.8919 -2.5227 0.1574 -0.4473 1.4289c1.3164,-0.3221 0.7828,-0.4826 1.8662,-0.4826 1.0003,0 0.6235,0.1694 1.8922,0.473l0 -1.8921 1.892 0 0.39 -1.9136 -0.8632 -0.4515 -35.4761 0 0.9225 0.544 0.0236 0.875 -0.9461 0 1.8393 1.499c1.0273,-0.7325 1.2809,-1.499 2.418,-1.499 0.6629,0 0.9461,0.6451 0.9461,1.4189l0 1.4193 0.9458 0 -0.4729 0.946z"/>
   <path id="_129207576" class="fil3" d="M165.046 69.3964l1.5376 -1.2569 -2.4795 -0.6523 -0.0041 -1.4022 -1.4191 0c-1.4127,0 -1.5562,-0.0673 -1.8922,0.9461l-1.8734 -0.531 1.1637 1.7134 0.2368 0.7098 -1.017 0.26 3.2879 1.8163 1.0458 -2.0727 -0.9516 -0.0036 0 -0.9462 2.3651 1.4193z"/>
   <path id="_45338160" class="fil1" d="M90.3092 73.6533l-2.365 0.946 0 1.419 0.9464 0 0 0.946c0.5766,-0.324 0.5057,-0.4729 1.4186,-0.4729l0.4773 0.1437 2.8339 -0.1437 0 -0.9461 -0.9463 0 0 -0.946 0.9463 0 0 -1.4189c0,-1.8085 0.1452,-0.1723 -0.4732,-1.4192l0.9462 0 -0.0363 1.3607 2.7861 -1.3269 0.5612 1.392 3.7014 0.015 -0.4241 -2.0022 -1.3851 0.5614c-0.0765,-0.9177 0.0222,-1.892 -0.9462,-1.892 -1.2776,0 -1.3043,0.2258 -2.2766,0.439l-0.5772 -1.2654 -4.71 -0.6248 -0.0045 0.5726 -1.4187 -0.0673 0 2.3648 1.4387 -0.0188 -0.9416 -1.4966 2.3408 0.5695 0 -0.9458 0.9459 0 0 0.9458 0.8755 -0.0237 0.5437 -0.9221 -0.0241 1.3222 -2.1879 0.5754 -0.1531 3.3053 -0.9462 0 0 -0.946 -0.9459 0z"/>
   <path id="_128216464" class="fil1" d="M113.487 76.4914c0.0338,1.5157 -0.1541,2.3651 1.4189,2.3651l1.4192 0 -0.0184 -1.004 -1.8737 0.5309 0 -0.9462c4.4503,-0.3701 1.967,-3.4175 3.7988,-4.7386l0.9314 0.9547c-0.0077,0.0089 -0.473,0.8824 -0.3546,0.946l0.0702 2.0103 4.0687 1.7738 0 -0.9462c-1.055,-0.2456 -3.3113,-0.7412 -3.3113,-1.8919 0,-1.8352 0.8741,-0.0862 0.8625,-3.0996l-2.7514 -1.3088 -4.7911 -0.3035 0.5888 1.8553 -0.657 0.1452 0.5945 2.2157 2.9005 -0.432 -0.5309 1.8738 -2.3651 0z"/>
   <path id="_46434208" class="fil2" d="M113.487 76.4914l2.3651 0 0.5309 -1.8738 -2.9005 0.432 -0.5945 -2.2157 0.657 -0.1452 -0.5888 -1.8553 4.7911 0.3035 2.7514 1.3088c0.0116,3.0134 -0.8625,1.2644 -0.8625,3.0996 0,1.1507 2.2563,1.6463 3.3113,1.8919l0 0.9462 -4.0687 -1.7738 -0.0702 -2.0103c-0.1184,-0.0636 0.3469,-0.9371 0.3546,-0.946l-0.9314 -0.9547c-1.8318,1.3211 0.6515,4.3685 -3.7988,4.7386l0 0.9462 1.8737 -0.5309 0.0184 1.004 -1.4192 0c-1.573,0 -1.3851,-0.8494 -1.4189,-2.3651zm0 0l-2.365 0.9458 1.8921 0.9462 0 0.9458 -0.9459 0 0 0.9461 1.8919 0 0.0045 0.9236 -2.9121 -0.3515 1.9616 1.32 2.811 -0.6976 0.6728 -1.7966 0.9716 1.237 2.0305 -2.6394 1.2715 1.9232 1.7027 0.0813 -0.1574 1.4193 2.9109 -1.1774 0.0847 1.1774 -1.892 0 1.6159 1.0889c1.0499,-0.2882 -0.5863,-0.1428 1.2219,-0.1428l1.8924 0 0.2137 -0.5348 -1.9572 -0.7831 1.3386 -3.8594 -1.4972 -0.4732 0.0097 -1.9179 -1.5037 -0.7945 3.5371 -1.8119 -2.0334 -0.2317 -0.39 -1.9138 -4.8193 0.1621 0.0062 1.2787 -1.4189 0 -0.8259 -2.721 -1.5766 -0.3042 1.951 -0.6759 4.2573 2.2456 -0.0058 -0.514 1.877 0.0543 0.2783 -0.4795 -3.8962 -2.1628 0.8452 -2.5082 1.8985 -0.2052 -4.2253 -2.3617 0.9224 0.9877 -1.0267 0.1306 0 0.9462 -0.5441 -0.9224 -0.8751 -0.0238 -0.2602 1.0173 0.1775 -1.985 -1.3362 0.0217 0 0.946 -1.8738 -0.5309 -0.0183 1.004 1.4189 0 0 0.9461 1.8921 0c1.351,0 0.8652,0.1487 1.4192,0.9459l-1.4691 0.2136 2.0338 1.0002 -2.4566 0.2053 0 0.946 -1.4194 0 -0.5308 -1.8737 1.5269 -0.2319 -2.8927 0.1906 0.0044 -0.923 -3.7135 1.1525 -0.0704 1.6855 1.8921 0 0.8546 1.9469 -2.2738 -0.0548 -0.1229 2.8889 0.5962 -0.0509 0 2.3651 1.4188 1.4191z"/>
   <path id="_275641592" class="fil1" d="M160.912 80.7484l-0.1233 0 0 -1.4192 -1.5847 -0.1042 1.1118 -1.3147 0 0.9462c1.0607,-0.2473 1.0875,-0.4731 2.3651,-0.4731l0.4729 0c0.5147,0 0.7625,0.0309 0.9031,0.1153l0.4847 -0.3468c-1.3936,-0.3863 -2.7466,-1.126 -3.2798,-2.1336l0.946 0 0 0.946 1.7106 -0.0684 1.1038 -2.6988 -0.9935 -0.331 2.5169 -0.082 -1.033 0.9149 2.535 0.0027 -1.0052 1.6239 0.0214 0.022 5.5502 -3.9705 0 -8.6571 -4.2396 0.5992c-0.299,0.9279 -0.1279,1.2928 -1.4364,1.2928l-1.4189 0 -0.9661 1.4006 3.3404 0.4334 -0.0644 3.3724 -0.891 -0.0032 0 -1.4188 -0.8154 1.0268 -0.1306 -1.0268 -0.946 0 0.5308 1.8735 -1.1696 -1.296 -0.7804 -0.1047 0 1.4189 -1.892 0c-1.3088,0 -1.1375,0.365 -1.419,1.4191l-0.544 -0.9223 -2.7671 -0.0237c-2.3133,0 -3.6036,-0.2312 -4.7303,-1.419l0.3901 1.9135c-1.2592,0.2912 -0.7256,0.4515 -1.8089,0.4515 -2.6667,0 -2.0377,-1.1556 -5.2033,-1.4191l0.4475 -1.4287 -2.2087 -1.5605 0.3422 -1.2678 -1.892 0 -0.7513 -2.4467 2.2883 -0.4901 -2.01 -0.3743 0 -0.9462 -0.9462 0 -0.2134 1.4691 -0.2597 -1.4691 -0.9458 0 -0.2603 1.0172c0.0227,-2.2245 1.0605,-2.2407 2.6254,-1.4901l0.7437 -1.5465 0.4387 1.0736 1.757 -1.3177 -3.3902 -1.5704 1.4513 1.3776 -2.8927 0.5645 -2.3448 -0.5798 0.5412 1.4918 -1.0341 0.5069 1.4187 0.946 -1.4689 0.2596 1.4689 0.2135c-1.9943,1.8872 -0.0519,1.4191 2.4281,1.5052l-1.4807 1.3286 3.7826 0.9504 0.1045 1.7262 1.3349 1.188 -2.3852 0.8697 2.8381 0 0 0.9461 1.3324 0.0061 0.0865 2.832 0.9461 0 0.0266 -1.5247 4.3219 1.1061 0.8546 -1.9465c0.577,0.3241 0.506,0.4732 1.4191,0.4732l1.5903 0.0513 -1.1976 2.3666 1.2087 1.6435 1.7097 -1.6965 -0.0242 1.7654 2.474 -0.1531 -3.647 1.6002 0.2511 0.5714 1.419 0c1.8084,0 0.1721,-0.1451 1.6265,0.6525l-1.6604 2.274 -1.3851 -0.5611 0 1.4188c1.0088,-0.484 1.4719,-0.7322 1.773,-0.4998l2.6074 -1.8652zm2.1227 -1.5185l-1.4097 -0.1585 0.952 0.4859 0.4577 -0.3274z"/>
   <path id="_275220384" class="fil3" d="M137.138 77.9103l2.4455 -0.6035 -1.0268 -0.8154 1.49 -0.2129 -1.017 -0.2602c0.2364,-0.4208 0.3079,-0.946 0.946,-0.946 1.2775,0 1.3041,0.2259 2.4943,0.1729l-2.1022 -0.7765 1.014 -0.7485 -1.4061 -0.5398 1.8922 0 -0.0156 -1.1729 -2.3495 -0.2463c-1.1705,-0.0726 -0.9282,2.1045 -3.2048,2.3854l-0.4772 2.225 1.3172 1.5387z"/>
   <path id="_128475952" class="fil2" d="M165.022 74.1971l-1.1038 2.6988 -1.7106 0.0684 0 -0.946 -0.946 0c0.5332,1.0076 1.8868,1.7468 3.2805,2.1331l2.5215 -1.8038 -0.0214 -0.022 1.0052 -1.6239 -2.535 -0.0027 1.033 -0.9149 -2.5169 0.082 0.9935 0.331z"/>
   <path id="_44535272" class="fil2" d="M161.625 79.0714l1.4097 0.1585 1.022 -0.7311c-0.1405,-0.0846 -0.3879,-0.1154 -0.9029,-0.1154l-0.4729 0c-1.2776,0 -1.3044,0.2258 -2.3651,0.4731l0 -0.9462 -1.1118 1.3147 1.5847 0.1042 0 1.4192 0.1233 0 1.665 -1.1911 -0.952 -0.4859z"/>
   <path id="_129746992" class="fil3" d="M147.544 76.4914l-1.8921 -0.4731 0 1.4189 -1.419 0 0 -0.9458 -0.7433 0 -0.1844 1.8344 1.8738 0.5307 0 0.9458 -1.8923 0 -0.0225 0.4799 2.3877 -0.0069 0 0.9461 0.828 -0.1181 1.0908 -1.3616 5.2023 2.4358 0.457 -1.4481 2.6312 1.1082 1.6161 -1.0892c-2.2062,-0.0489 -2.6872,-0.173 -1.9948,-1.5597l-4.3907 -1.2784 0 0.9462 -0.5492 0.2657 -1.5296 -1.798 0.4229 -0.3599 -1.439 -0.0185 0.966 -1.4005 -1.4189 0 0 0.9461z"/>
   <path id="_47193888" class="fil2" d="M99.2548 85.0304l1.4366 -1.7903 2.141 0.6253 3.0016 2.7904 -2.5623 -1.0675 -1.4486 2.5876 1.2577 1.5598 -1.6922 -0.0153 -0.5156 -2.0345 -0.18 0.9902 -2.8154 0.5866 0 -0.946 1.4995 -0.131 -1.0267 -0.8149 2.3181 0.0279 -1.4137 -2.3683zm-8.9456 -11.3771l0.9459 0 0 0.946 0.9462 0 0.1531 -3.3053 2.1879 -0.5754 0.0241 -1.3222 -0.5437 0.9221 -0.8755 0.0237 0 -0.9458 -0.9459 0 0 0.9458 -2.3408 -0.5695 0.9416 1.4966 -1.4387 0.0188 0 -2.3648 1.4187 0.0673 0.0045 -0.5726 4.71 0.6248 0.5772 1.2654c0.9723,-0.2132 0.999,-0.439 2.2766,-0.439 0.9684,0 0.8697,0.9743 0.9462,1.892l1.3851 -0.5614 0.4241 2.0022 -3.7014 -0.015 -0.5612 -1.392 -2.7861 1.3269 0.0363 -1.3607 -0.9462 0c0.6184,1.2469 0.4732,-0.3893 0.4732,1.4192l0 1.4189 -0.9463 0 0 0.946 0.9463 0 0 0.9461 -2.8339 0.1437 -0.4773 -0.1437c-0.9129,0 -0.842,0.1489 -1.4186,0.4729l0 -0.946 -0.9464 0 0 -1.419 2.365 -0.946zm0 0l-2.3993 -0.8732 -1.6282 2.0032 0.8802 1.6059 -6.3128 -2.2628 -3.4517 1.6128 6.2387 1.1359 -0.396 1.0453 2.0236 1.7242 1.2277 -0.4033 -1.504 -1.1685 3.3357 -1.7661 0.0941 2.5498 0.9462 0 -1.0146 1.3621 1.0146 0.5298 -0.3103 1.6815 1.729 1.6296c2.1309,-0.1774 1.6913,-0.4222 1.892,-2.8381l1.1607 0.1856 1.6777 2.6525 0.6835 -0.3819 2.146 -1.4457 -1.8836 -0.5373 1.9421 -0.2595 -1.7318 -0.6037 2.1547 -1.0291 0.0317 -1.1741 1.456 -0.1887 -0.0686 -0.5292 0.946 0 0 1.4189 1.8039 -0.0335 0.5618 -1.3622 -1.8767 0.0543 -0.0161 -0.5506 1.4194 0c1.4496,0 2.3135,1.3742 2.8424,2.3881l-2.8924 0.7097 1.1402 0.4085 1.7386 2.9294 0.4653 -0.2805 -0.9292 -3.3171 0.9462 0 0 -0.9461 1.4189 0 0 2.3654 0.5982 -0.1658 0.321 1.688 -2.0729 -0.3367 2.1 1.6525 0 -0.9461 0.8576 0.0339 0.5612 1.3853 -2.3651 0 0 1.4188 -0.4999 0.2308 -0.8736 -1.6493 -4.7759 -3.7846 0 1.4193c-1.2681,-0.3039 -0.8912,-0.4733 -1.8915,-0.4733 -1.0907,0 -0.9231,1.3224 -0.9423,2.5646l-7.0992 0.2737c0.5134,2.2032 1.595,2.9422 3.7841,1.8919l-0.3375 0.3644 2.0718 1.5276 0.0531 1.2535 -1.2838 1.0402 1.3642 0.9211 -2.3609 0.588 0.8993 1.5246 -2.4196 -0.9662 1.5586 1.6956 -3.6758 -0.4048 0.2892 2.4578 -1.2944 -1.0145 0 1.4189 -0.5408 0 0 -1.8919c0,-1.8084 0.1456,-0.1721 -0.4725,-1.4193 0.7095,-0.1697 1.4187,-0.1037 1.4187,-0.9457 0,-1.0836 -0.1602,-0.5499 -0.3738,-1.7548l1.793 -1.083 0 -1.4195 -1.175 0.3932 0.2107 0.6109 -1.5106 -0.2996 -1.6778 2.441 1.2101 0.9461 -1.4332 1.2739 1.5437 1.2948 -2.8281 0.8362 2.8223 0.5449 -0.0341 0.8576 -1.3851 0.5614 0.9464 2.3651 2.9088 -0.213 -2.4104 -0.7232 0.4002 -1.3415 3.5213 2.0306 2.202 -2.118 0 -0.9462 -0.9461 0 0.0856 -1.139 2.7524 1.139 0 0.9462 -1.4191 0 0.0811 0.6072 2.2435 -0.1152 2.3798 -0.029 -0.432 1.2287 1.9182 0.2516 -1.9076 1.8309 0.4475 1.4289c2.1071,-1.522 -1.5028,-2.0433 2.4829,-2.3647l-0.0997 -2.4233 1.8738 0.531 0.2364 -1.1827 1.1583 1.5289 2.3896 -0.3462 0.442 -0.8748 -1.5411 -0.6605 0.1212 -0.5095 -3.7527 1.0987 0 -0.9462 -1.5073 -0.0338 0.5616 -1.5035 -2.365 0.1184 0.0267 -1.7887 1.9482 -0.5981 0.3901 1.9138c0.421,-0.2367 0.9457,-0.308 0.9457,-0.9462 0,-1.4298 -0.5563,-1.3077 -1.8919,-1.4188l0 -0.9463 2.4839 -0.1623 -1.3519 -0.9982 2.4555 -1.7655 -0.6444 -0.017 -1.8919 -1.8919 0.3678 -0.3681 1.8663 -0.0101 -0.4471 1.4292 1.8918 0 -0.0011 -1.0169 6.1505 0.071 1.654 0.1014 1.1622 2.6536 1.5984 -0.5477 0.7888 -0.7885 -0.8734 -2.3993 1.3461 0.0342 -0.4472 -1.4289 2.5916 0.9091 -0.2532 0.5093 2.349 -0.1942 0.4644 -1.2242 -3.0415 -2.0702 -1.1998 0.1622 -0.4765 -2.81 -1.7435 1.1707 -1.2219 4.468 1.0865 0.0352 0 1.4193 -2.8086 -1.0126c0.5953,-0.5245 2.9556,-3.9029 -0.5025,-4.1908l0 0.946 0.946 0 0 1.4192 -3.7431 1.0833 -0.0409 -1.5564 1.8735 0.5311 0.4916 -2.4232 -1.9616 -1.32 2.9121 0.3515 -0.0045 -0.9236 -1.8919 0 0 -0.9461 0.9459 0 0 -0.9458 -1.8921 -0.9462 -0.5135 -0.9209 1.4597 -0.0249 -0.8548 -2.7223 -1.139 -1.4335 -2.2635 0.017 0.5615 1.2666 -1.0345 0.0341 -1.4976 -1.8093 3.8628 -0.0828 -4.2537 -1.9014 -0.0036 1.4283 -2.1331 -1.7081 2.0726 -0.8485 -0.2232 -0.6598 2.172 0.8572 -0.5273 -1.8795 1.0041 -0.0183 -1.6292 -2.1548 -0.2627 2.1548 -2.8381 0 1.0145 1.3621 -1.9607 0.0569 0 -0.9459 -0.9461 0c-0.6935,1.7186 -2.0611,1.0892 -3.7841,0.9459l0 -1.419 -1.5465 0.7547 -1.6621 -0.9184 0.9121 1.5258 -3.5208 -1.6034 2.0148 -0.7626 0.0185 -0.8881 -2.8926 -0.7974 0.0543 2.6894 -2.3844 0.4085 1.9258 -1.8069c-2.5775,-0.0207 -4.4463,-0.5522 -3.3253,1.8715 -3.4189,-0.2844 -1.8809,-0.6129 -2.2406,1.778 -0.2619,1.7416 -1.0228,0.9435 -0.5975,2.952l-1.8921 0c3.1525,2.1903 0.5944,1.7779 2.365,2.3651l1.0705 -2.2987 2.2407 -0.0664 -1.8836 -0.5378 -0.5531 -2.7575 1.9636 -0.0156 0 0.9459 -0.9458 0 2.7563 2.3682 -0.391 0.4698 1.4186 0 0 0.9461z"/>
   <path id="_123902000" class="fil1" d="M90.7821 84.0595l-0.4729 1.4191 -1.4892 0.1995 1.4892 0.7464 -0.9458 0 0 1.4191c0.7878,-0.3645 2.9497,-0.4042 4.6897,0.076 1.3138,0.3628 0.5008,1.7099 1.4594,3.7081l-0.9461 0 -0.027 -1.3156 -2.0479 -0.7471 1.1158 -1.3153 -1.406 0.5399 0 1.4195 -1.793 1.083c0.2136,1.2049 0.3738,0.6712 0.3738,1.7548 0,0.842 -0.7092,0.776 -1.4187,0.9457 0.6181,1.2472 0.4725,-0.3891 0.4725,1.4193l0 1.8919 0.5408 0 0 -1.4189 1.2944 1.0145 -0.2892 -2.4578 3.6758 0.4048 -1.5586 -1.6956 2.4196 0.9662 -0.8993 -1.5246 2.3609 -0.588 -1.3642 -0.9211 1.2838 -1.0402 -0.0531 -1.2535 -2.0718 -1.5276 0.3375 -0.3644c-2.1891,1.0503 -3.2707,0.3113 -3.7841,-1.8919l7.0992 -0.2737c0.0192,-1.2422 -0.1484,-2.5646 0.9423,-2.5646 1.0003,0 0.6234,0.1694 1.8915,0.4733l0 -1.4193 4.7759 3.7846 0.8736 1.6493 0.4999 -0.2308 0 -1.4188 2.3651 0 -0.5612 -1.3853 -0.8576 -0.0339 0 0.9461 -2.1 -1.6525 2.0729 0.3367 -0.321 -1.688 -0.5982 0.1658 0 -2.3654 -1.4189 0 0 0.9461 -0.9462 0 0.9292 3.3171 -0.4653 0.2805 -1.7386 -2.9294 -1.1402 -0.4085 2.8924 -0.7097c-0.5289,-1.0139 -1.3928,-2.3881 -2.8424,-2.3881l-1.4194 0 0.0161 0.5506 1.8767 -0.0543 -0.5618 1.3622 -1.8039 0.0335 0 -1.4189 -0.946 0 0.0686 0.5292 -1.456 0.1887 -0.0317 1.1741 -2.1547 1.0291 1.7318 0.6037 -1.9421 0.2595 1.8836 0.5373 -2.146 1.4457 -0.6835 0.3819 -1.6777 -2.6525 -1.1607 -0.1856c-0.2007,2.4159 0.2389,2.6607 -1.892,2.8381z"/>
   <path id="_277606280" class="fil1" d="M142.541 82.1523l-2.1181 -0.9411 -0.3657 1.2402 1.8107 1.1351 -2.3651 0 -0.0245 1.0424 -2.3364 -0.5862 -0.0039 0.5577 -1.4192 -0.0678c0.3401,0.6434 1.035,2.365 1.8917,2.365 1.631,0 1.8318,-0.3497 3.4175,-0.4934l-0.347 -2.634 1.6713 1.4341 5.194 0.2197 0.0283 0.485 -2.8687 0.0425c0.0545,2.4553 1.9087,2.693 4.268,3.3367l3.162 -2.262 -0.3349 -0.1286 0.5265 -0.0084 0.8733 -0.6247 -0.352 -1.8517 1.1169 1.3045 1.1655 -0.8338 -0.1002 -0.0087 1.0272 -0.8153 -1.5223 -0.027 0.5762 -1.8651 -1.3157 0.0273 -0.5761 1.8648 -3.0126 0.0266 -0.3228 -1.8223 -2.3409 -0.5692c-0.4577,1.3801 -3.9539,-0.5825 -5.1449,-1.4234l0.1419 1.8811z"/>
   <polygon id="_126642224" class="fil1" points="103.081,89.7357 101.823,88.1759 103.272,85.5883 105.834,86.6558 102.832,83.8654 100.691,83.2401 99.2548,85.0304 100.668,87.3987 98.3504,87.3708 99.3771,88.1857 97.8776,88.3167 97.8776,89.2627 100.693,88.6761 100.873,87.6859 101.389,89.7204 "/>
   <path id="_46569104" class="fil2" d="M142.541 82.1523l-0.1419 -1.8811c1.191,0.8409 4.6872,2.8035 5.1449,1.4234l2.3409 0.5692 0.3228 1.8223 3.0126 -0.0266 0.5761 -1.8648 1.3157 -0.0273 -0.5762 1.8651 1.5223 0.027 -1.0272 0.8153 0.1002 0.0087 3.1727 -2.2696c-0.3011,-0.2327 -0.7635,0.0153 -1.7727,0.4995l0 -1.4188 1.3851 0.5611 1.6604 -2.274c-1.4544,-0.7976 0.1819,-0.6525 -1.6265,-0.6525l-1.419 0 -0.2511 -0.5714 3.647 -1.6002 -2.474 0.1531 0.0242 -1.7654 -1.7097 1.6965 -1.2087 -1.6435 1.1976 -2.3666 -1.5903 -0.0513c-0.9131,0 -0.8421,-0.1491 -1.4191,-0.4732l-0.8546 1.9465 -4.3219 -1.1061 -0.0266 1.5247 -0.9461 0 -0.0865 -2.832 -1.3324 -0.0061 0 -0.9461 -2.8381 0 2.3852 -0.8697 -1.3349 -1.188 -0.1045 -1.7262 -3.7826 -0.9504 1.4807 -1.3286c-2.48,-0.0861 -4.4224,0.382 -2.4281,-1.5052l-1.4689 -0.2135 1.4689 -0.2596 -1.4187 -0.946 -1.3146 1.1118 0.9097 1.1964 -3.3807 0.0282 0.0011 -0.9173 0.9459 0 0 -0.9462 -1.4286 -0.4468 -0.9125 0.518 0.235 2.7468 2.188 0.7715 -0.0819 -1.2242 1.5859 1.7775 -2.0962 0.3015 4.9536 1.6206 -0.1636 0.6073 2.895 -1.2905 0.7754 1.7685 -1.3278 -0.0548 0 0.946 -3.7837 -0.1292 0 1.5482 -1.8925 0 -1.892 -2.365 1.0147 1.3621 -1.4877 0.0568c2.0143,1.906 -3.5518,2.7497 -5.2032,2.3652l-0.5935 3.2913 1.0667 0.0197 0 -2.365c3.3368,0.0742 2.0287,0.2069 1.4189,1.8921l1.4192 0c3.7602,0 0.9315,-0.161 3.784,-0.4731l0 1.4189 -1.8921 0c-1.3512,0 -0.8649,0.1488 -1.4189,0.9462l2.8397 -0.0632 1.3606 -0.9517 1.4761 0.5418 2.6572 3.0676 -4.0764 0.2435 0 -1.4191 -5.2267 0.7884 0.0234 -1.2615 -0.9461 0 0.5309 1.8739 -1.5269 0.232 1.5964 1.0034 -0.2602 0.7176 2.4467 0.6295 -0.525 -2.064 6.211 1.1639 -0.9854 -1.0602 1.4998 -0.1307 0 1.8919 -3.3112 0 0.0684 0.5295 -1.4557 0.1881 -0.5219 2.1161 -2.2904 -1.0674 -0.0573 2.018 -3.7678 -0.5955 1.0933 1.912 2.1967 -0.3879 0.0047 1.4363 2.838 0 0 0.9462 2.3653 -0.4728 0 0.9453 2.3789 -0.0203 -1.9059 -1.7533 2.3649 -0.1181 0.1273 1.1369 1.2917 -1.1369c3.4219,0 4.9991,-0.5577 5.2578,1.8008l-2.0278 -0.7241 1.0003 0.9186 -1.8651 -0.5761 0 0.9458 1.0168 0.213 -1.0168 0.2599 0 0.9463 1.1059 0.1952 5.5271 -3.9539c-2.3593,-0.6437 -4.2135,-0.8814 -4.268,-3.3367l2.8687 -0.0425 -0.0283 -0.485 -5.194 -0.2197 -1.6713 -1.4341 0.347 2.634c-1.5857,0.1437 -1.7865,0.4934 -3.4175,0.4934 -0.8567,0 -1.5516,-1.7216 -1.8917,-2.365l1.4192 0.0678 0.0039 -0.5577 2.3364 0.5862 0.0245 -1.0424 2.3651 0 -1.8107 -1.1351 0.3657 -1.2402 2.1181 0.9411zm11.4247 3.565l-1.1169 -1.3045 0.352 1.8517 0.7649 -0.5472zm-1.6382 1.1719l-0.5265 0.0084 0.3349 0.1286 0.1916 -0.137zm-4.7835 -11.3439l1.4189 0 -0.966 1.4005 1.439 0.0185 -0.4229 0.3599 1.5296 1.798 0.5492 -0.2657 0 -0.9462 4.3907 1.2784c-0.6924,1.3867 -0.2114,1.5108 1.9948,1.5597l-1.6161 1.0892 -2.6312 -1.1082 -0.457 1.4481 -5.2023 -2.4358 -1.0908 1.3616 -0.828 0.1181 0 -0.9461 -2.3877 0.0069 0.0225 -0.4799 1.8923 0 0 -0.9458 -1.8738 -0.5307 0.1844 -1.8344 0.7433 0 0 0.9458 1.419 0 0 -1.4189 1.8921 0.4731 0 -0.9461zm-10.406 2.365l-1.3172 -1.5387 0.4772 -2.225c2.2766,-0.2809 2.0343,-2.458 3.2048,-2.3854l2.3495 0.2463 0.0156 1.1729 -1.8922 0 1.4061 0.5398 -1.014 0.7485 2.1022 0.7765c-1.1902,0.053 -1.2168,-0.1729 -2.4943,-0.1729 -0.6381,0 -0.7096,0.5252 -0.946,0.946l1.017 0.2602 -1.49 0.2129 1.0268 0.8154 -2.4455 0.6035zm6.104 15.4784l-0.9011 0.1308 0 0.5137 0.9011 -0.6445z"/>
   <path id="_127771576" class="fil1" d="M108.757 99.1961l3.7836 0.4728c-1.4845,-2.2168 -2.9368,-2.8379 -6.5239,-2.8786l-0.9871 -2.866 1.3622 1.0146 0 -0.9463 1.4189 0c2.3184,0 0.2664,1.7001 3.3111,3.3112l0 -0.9459 0.8496 0.0241 0.5879 2.3609 1.3176 -0.9443 -0.3649 -1.9542 0.6213 0.2806 2.1916 -3.0781 1.8924 0 0.0155 1.3471 2.8221 0.5449 -0.0812 -0.7566 -1.7914 -1.0339 3.2917 -0.5748 0 -0.9459 -1.1036 -0.1577 -0.7882 -0.7881 0 -1.8923 -2.3649 0 -0.7888 0.7885 -1.5984 0.5477 -1.1622 -2.6536 -1.654 -0.1014 -6.1505 -0.071 0.0011 1.0169 -1.8918 0 0.4471 -1.4292 -1.8663 0.0101 -0.3678 0.3681 1.8919 1.8919 0.6444 0.017 -2.4555 1.7655 1.3519 0.9982 -2.4839 0.1623 0 0.9463c1.3356,0.1111 1.8919,-0.011 1.8919,1.4188 0,0.6382 -0.5247,0.7095 -0.9457,0.9462l-0.3901 -1.9138 -1.9482 0.5981 -0.0267 1.7887 2.365 -0.1184 -0.5616 1.5035 1.5073 0.0338 0 0.9462 3.7527 -1.0987 -0.1212 0.5095 1.5411 0.6605 -0.442 0.8748z"/>
   <path id="_123345224" class="fil2" d="M76.9519 94.9569l0.524 -0.7614 -1.4504 0.0915 0.9264 0.6699zm-0.9557 -0.6911l2.5541 -1.7633 -3.1667 -2.9594 0.4264 -0.4797 4.2528 3.2512 -2.018 1.59 1.3851 0.5611c2.2145,-2.0066 0.9462,-0.7792 0.9462,-2.3651 0,-1.8083 -0.1453,-0.1719 0.4544,-1.4771l-1.9563 0.5528 -0.3904 -1.9136 -2.0554 -0.0743 1.5577 -3.1965 -0.9212 -0.5133 0 0.9459 -1.4191 0 1.0148 1.3621 -0.6128 0.9795c-1.9368,-0.5128 -0.7563,-0.9225 -2.294,-0.9225 -1.3511,0 -0.8649,0.1491 -1.419,0.946l2.365 0 0 1.4195 -2.2287 -0.8463 1.0216 2.638 -0.3385 0.2098 2.842 2.0552z"/>
   <path id="_45130488" class="fil0" d="M77.0649 85.4786l0.9212 0.5133 -1.5577 3.1965 2.0554 0.0743 0.3904 1.9136 1.9563 -0.5528c-0.5997,1.3052 -0.4544,-0.3312 -0.4544,1.4771 0,1.5859 1.2683,0.3585 -0.9462,2.3651l-1.3851 -0.5611 2.018 -1.59 -4.2528 -3.2512 -0.4264 0.4797 3.1667 2.9594 -2.5541 1.7633 0.0293 0.0212 1.4504 -0.0915 -0.524 0.7614 5.3049 3.8364 0.0112 -0.0704 0.7804 0.1043 0.6246 0.9902 0.5776 0.4177 0.3404 -0.04 0.042 -1.9451 1.6692 0.0625 -0.3182 2.2071 1.9602 -2.2696 1.3851 -0.5614 0.0341 -0.8576 -2.8223 -0.5449 2.8281 -0.8362 -1.5437 -1.2948 1.4332 -1.2739 -1.2101 -0.9461 1.6778 -2.441 1.5106 0.2996 -0.2107 -0.6109 1.175 -0.3932 1.406 -0.5399 -1.1158 1.3153 2.0479 0.7471 0.027 1.3156 0.9461 0c-0.9586,-1.9982 -0.1456,-3.3453 -1.4594,-3.7081 -1.74,-0.4802 -3.9019,-0.4405 -4.6897,-0.076l0 -1.4191 0.9458 0 -1.4892 -0.7464 1.4892 -0.1995 0.4729 -1.4191 -1.729 -1.6296 0.3103 -1.6815c-1.342,0.3129 -0.8085,0.473 -1.8923,0.473 -1.0495,0 -3.5318,-1.4064 -4.257,-1.8922l0 1.4192 1.4189 0 -1.6291 2.1549 0.2351 -0.5255 -1.4796 -2.8059 -1.0031 3.5183 -1.1178 -0.426 0.2644 -0.4968 0 -0.946 -1.7133 -2.0067 -0.7002 2.1411 -0.5212 -0.1587 0.5867 -2.3365 1.4522 -0.2179 -3.3006 -1.3735 1.254 1.2799 0.1044 0.7801c-2.4239,0.0542 -2.8995,-0.1216 -3.3111,1.4192l2.8397 -0.9416 -0.4926 2.3574 1.8832 -0.573 0.0269 1.5222 -0.9461 0 0 2.3652zm12.4576 18.569l0.3134 -0.1214 0 -1.8922c-1.7878,-0.9459 -3.2328,-2.0909 -3.7772,-0.4913l0.0309 0.0223 1.9256 0.2087 -1.0856 0.3173 0.138 0.1813 2.4549 1.7753z"/>
   <path id="_45377176" class="fil0" d="M135.719 90.2091l-2.6753 1.7091 0.2841 1.1386 -1.3931 -0.0099 0.473 -0.9463 -3.4726 0.1986 1.2019 -0.766 -1.1671 -0.8756 -0.3462 2.3893c3.6128,0.8418 1.8297,0.6322 2.8381,2.365l1.4189 -0.473c0.8033,2.4225 -0.0039,0 1.4189,0 1.1059,0 2.3653,0.6153 2.3653,1.8921l0.0005 1.2625 5.6757 -4.0603 0 -0.5137 0.9011 -0.1308 0.2048 -0.1466 -1.1059 -0.1952 0 -0.9463 1.0168 -0.2599 -1.0168 -0.213 0 -0.9458 1.8651 0.5761 -1.0003 -0.9186 2.0278 0.7241c-0.2587,-2.3585 -1.8359,-1.8008 -5.2578,-1.8008l-1.2917 1.1369 -0.1273 -1.1369 -2.3649 0.1181 1.9059 1.7533 -2.3789 0.0203 0 -0.9453z"/>
   <path id="_45302152" class="fil2" d="M120.582 88.7896l0 1.8923 0.7882 0.7881 1.1036 0.1577 0 0.9459 -3.2917 0.5748 1.7914 1.0339 0.0812 0.7566 -2.8221 -0.5449 -0.0155 -1.3471 -1.8924 0 -2.1916 3.0781 -0.6213 -0.2806 0.3649 1.9542 -1.3176 0.9443 -0.5879 -2.3609 -0.8496 -0.0241 0 0.9459c-3.0447,-1.6111 -0.9927,-3.3112 -3.3111,-3.3112l-1.4189 0 0 0.9463 -1.3622 -1.0146 0.9871 2.866c3.5871,0.0407 5.0394,0.6618 6.5239,2.8786l-3.7836 -0.4728c0.7798,2.1547 1.4073,0.9988 3.9211,1.0449l-0.9477 2.0201 1.6856 -1.1495 0.5439 0.9224 1.0726 -0.1975 2.7136 3.4104 0.3879 -0.3529 -0.3899 -1.9141 2.3651 0 -0.0219 -0.8629 1.914 0.39c-1.4783,-1.3394 -1.238,-1.8328 1.4189,-1.8919l0 -0.9462 -1.3883 -0.1811 -3.7563 -0.6362 -0.1296 0.5573 1.017 0.26 -0.0235 0.8753 -0.898 0.6404 2.3407 -0.5695 -0.0657 0.7357 -3.7396 1.1668 -2.3139 -5.3119 4.3216 1.5172 -0.0946 -3.311 -1.0037 0.0184 0.531 1.8735 -1.6462 -0.0152 -0.2462 -2.3497c-0.0418,-0.6752 0.5782,-0.6904 1.2298,-0.8517l-0.2794 0.8197 4.6373 0.5388 0.5614 1.3853 1.8921 0 0 0.9459c-2.4329,-0.5668 -2.736,-1.6799 -3.2772,0.5615l1.3851 -0.5615 0 1.4192 1.419 0 0.1257 1.0259 3.1852 1.339 2.2946 0.4968 0.3057 0.8211 1.1843 -2.737 2.6376 -0.0148 0.2005 -1.8771 -0.1033 -1.2355 -2.2618 -1.6026c-1.0084,-1.7328 0.7747,-1.5232 -2.8381,-2.365l0.3462 -2.3893 1.1671 0.8756 -1.2019 0.766 3.4726 -0.1986c-1.1988,-3.3113 -3.7264,-1.4629 -5.6762,-2.3649l0 1.4187 -0.9459 0 0.1387 -0.583 -2.8989 -0.6903 -1.3925 -0.7842 0.9225 -0.6493 -1.9729 0.342z"/>
   <path id="_47239536" class="fil1" d="M127.204 101.561l-4.9429 0.6525 2.7055 2.8606 -1.5463 0.7441 0 -1.4191 -1.4189 0 0.0268 2.4681 1.9208 -0.6017 0.1741 0.8001 12.5421 -8.9721 -0.0005 -1.2625c0,-1.2768 -1.2594,-1.8921 -2.3653,-1.8921 -1.4228,0 -0.6156,2.4225 -1.4189,0l-1.4189 0.473 2.2618 1.6026 0.1033 1.2355 -0.2005 1.8771 -2.6376 0.0148 -1.1843 2.737 -0.3057 -0.8211 -2.2946 -0.4968z"/>
   <path id="_276964912" class="fil1" d="M87.9442 98.25l-1.9602 2.2696 0.3182 -2.2071 -1.6692 -0.0625 -0.042 1.9451 -0.3404 0.04 1.8081 1.3076c0.5443,-1.5997 1.9894,-0.4547 3.7772,0.4913l0 1.8922 -0.3134 0.1214 1.2094 0.8747 0.0502 -0.0502c0.0098,0.0369 0.0197,0.0727 0.0299,0.1081l2.5069 1.8129c0.3429,0.022 0.7302,0.0338 1.169,0.0484l-1.8138 -2.4424 0.9463 0 -0.0218 -1.8091 1.9139 0.3899 0.0037 1.4253 1.8622 -0.962 -0.434 1.362 1.3016 0.3741 -1.3145 1.112 0.9461 0 -0.0217 1.3361 1.765 -0.3359 -1.0285 -2.8077 0.6544 -0.2296 1.0772 3.2668 1.8207 1.1611 -1.4289 0.4472 0.0271 1.7838 3.7568 1.0543 -0.0079 -0.8636 4.7382 0.3906 0.9389 -1.7569 2.7486 -0.1111 0.589 2.4613 3.2915 -0.5933 -0.1281 -0.6914 -2.2464 -1.6155 3.3207 0.4148 0 -0.7883 -2.9092 -0.3707 1.0714 -0.3194 -2.4195 -2.7789c-1.2751,0.527 -3.9229,-1.7174 1.5598,-0.5308l-1.0867 -2.7802 -0.5439 -0.9224 -1.6856 1.1495 0.9477 -2.0201c-2.5138,-0.0461 -3.1413,1.1098 -3.9211,-1.0449l-2.3896 0.3462 -1.1583 -1.5289 -0.2364 1.1827 -1.8738 -0.531 0.0997 2.4233c-3.9857,0.3214 -0.3758,0.8427 -2.4829,2.3647l-0.4475 -1.4289 1.9076 -1.8309 -1.9182 -0.2516 0.432 -1.2287 -2.3798 0.029 -2.2435 0.1152 -0.0811 -0.6072 1.4191 0 0 -0.9462 -2.7524 -1.139 -0.0856 1.139 0.9461 0 0 0.9462 -2.202 2.118 -3.5213 -2.0306 -0.4002 1.3415 2.4104 0.7232 -2.9088 0.213 -0.9464 -2.3651zm-4.2712 1.5674l-0.6246 -0.9902 -0.7804 -0.1043 -0.0112 0.0704 1.4162 1.0241zm3.3946 2.4549l-0.138 -0.1813 1.0856 -0.3173 -1.9256 -0.2087 0.978 0.7073z"/>
   <path id="_46925144" class="fil3" d="M113.96 102.034l1.0867 2.7802c-5.4827,-1.1866 -2.8349,1.0578 -1.5598,0.5308l3.3111 0 0.2596 1.4693 0.2078 -1.4065 3.8326 0.7677 -3.0804 0.3934 2.4559 1.7657 0.0915 -0.4864 2.1939 0.1933 1.3642 -0.9759 -0.1741 -0.8001 -1.9208 0.6017 -0.0268 -2.4681 1.4189 0 0 1.4191 1.5463 -0.7441 -2.7055 -2.8606 4.9429 -0.6525 -3.1852 -1.339 -0.1257 -1.0259 -1.419 0 0 -1.4192 -1.3851 0.5615c0.5412,-2.2414 0.8443,-1.1283 3.2772,-0.5615l0 -0.9459 -1.8921 0 -0.5614 -1.3853 -4.6373 -0.5388 0.2794 -0.8197c-0.6516,0.1613 -1.2716,0.1765 -1.2298,0.8517l0.2462 2.3497 1.6462 0.0152 -0.531 -1.8735 1.0037 -0.0184 0.0946 3.311 -4.3216 -1.5172 2.3139 5.3119 3.7396 -1.1668 0.0657 -0.7357 -2.3407 0.5695 0.898 -0.6404 0.0235 -0.8753 -1.017 -0.26 0.1296 -0.5573 3.7563 0.6362 1.3883 0.1811 0 0.9462c-2.6569,0.0591 -2.8972,0.5525 -1.4189,1.8919l-1.914 -0.39 0.0219 0.8629 -2.3651 0 0.3899 1.9141 -0.3879 0.3529 -2.7136 -3.4104 -1.0726 0.1975z"/>
   <path id="_46402888" class="fil2" d="M93.96 107.257l3.5153 -0.2795 -1.0169 0.2597 0.0272 1.3159 1.8648 0.5765 0.0604 -1.1377 2.305 1.1377 1.4289 -0.4472 -1.8207 -1.1611 -1.0772 -3.2668 -0.6544 0.2296 1.0285 2.8077 -1.765 0.3359 0.0217 -1.3361 -0.9461 0 1.3145 -1.112 -1.3016 -0.3741 0.434 -1.362 -1.8622 0.962 -0.0037 -1.4253 -1.9139 -0.3899 0.0218 1.8091 -0.9463 0 1.8138 2.4424c-0.4388,-0.0146 -0.8261,-0.0265 -1.169,-0.0484l0.6411 0.4636zm-3.1481 -2.2766c-0.0101,-0.0354 -0.02,-0.0713 -0.0298,-0.108l-0.0502 0.0502 0.08 0.0578z"/>
   <path id="_274579360" class="fil3" d="M99.1427 111.005l0.1539 0.0168 0 0.0945 0.4666 0.3374 -0.1036 -0.6298 -1.7095 -0.6814 1.1926 0.8625zm1.1647 0.8423l1.392 -0.1659 -1.8718 -0.1811 0.4798 0.347zm-3.4606 -2.5027l0.0574 -0.1429 2.8657 0.8736 0 -0.9457 0.9459 0 -2.305 -1.1377 -0.0604 1.1377 -1.8648 -0.5765 -0.0272 -1.3159 1.0169 -0.2597 -3.5153 0.2795 2.8868 2.0876z"/>
   <path id="_269451248" class="fil2" d="M107.669 117.171l1.5612 0 -0.0154 -2.1652 -1.9652 -0.1661 0.5614 1.3851c-1.945,-0.2126 -1.6326,0.0657 -0.9462,-1.4189l-0.9457 0 0 0.9459 -0.3397 -0.0919 2.0896 1.5111zm-3.1032 -2.2442l-1.0143 -1.0491 4.4715 0.3552 -1.1521 -2.2029 2.3593 -0.5351 -4.7382 -0.3906 0.0079 0.8636 -3.7568 -1.0543 -0.0271 -1.7838 -0.9459 0 0 0.9457 -2.8657 -0.8736 -0.0574 0.1429 1.1033 0.7979 1.7095 0.6814 0.1036 0.6298 0.0644 0.0466 1.8718 0.1811 -1.392 0.1659 4.2582 3.0793zm-5.269 -3.8103l0 -0.0945 -0.1539 -0.0168 0.1539 0.1113z"/>
   <path id="_45311936" class="fil0" d="M109.23 111.494l-2.3593 0.5351 1.1521 2.2029 -4.4715 -0.3552 1.0143 1.0491 1.0136 0.7331 0.3397 0.0919 0 -0.9459 0.9457 0c-0.6864,1.4846 -0.9988,1.2063 0.9462,1.4189l-0.5614 -1.3851 1.9652 0.1661 0.0154 2.1652 0 0.5491 13.5289 -9.6781 -2.1939 -0.1933 -0.0915 0.4864 -2.4559 -1.7657 3.0804 -0.3934 -3.8326 -0.7677 -0.2078 1.4065 -0.2596 -1.4693 -3.3111 0 2.4195 2.7789 -1.0714 0.3194 2.9092 0.3707 0 0.7883 -3.3207 -0.4148 2.2464 1.6155 0.1281 0.6914 -3.2915 0.5933 -0.589 -2.4613 -2.7486 0.1111 -0.9389 1.7569z"/>
   <polygon id="_43915672" class="fil3" points="109.23,117.72 109.23,117.171 107.669,117.171 108.827,118.008 "/>
   <path id="_45421392" class="fil0" d="M182.967 44.6503c2.0076,0.536 0.8269,0.9458 2.3645,0.9458l1.419 0 -0.0172 0.5517 -2.4189 0.1343 1.0171 0.2601 -0.0233 0.8752 -0.8954 0.4405 1.7941 0.5529 0.3311 -0.9934 0.0135 0.5879 4.2272 1.9281 1.1753 0.393 0.0204 -1.3126 2.3445 -0.5796 0 1.4192 2.4242 0.1184 0.1836 -0.856 -1.2131 -0.6929 1.361 0.0029 1.599 -7.4553 0.2487 -0.1044 -20.2129 0 0.8277 0.473 0.0943 2.2384 2.2065 -0.1754 1.1291 1.2482z"/>
   <path id="_47214280" class="fil0" d="M148.437 86.2757l0.6218 -1.0947 3.1982 -1.7636 -0.9821 -1.3991 -1.3005 1.419 -0.1184 -2.3651 1.3932 0.01 -0.4686 -1.2892 5.2933 0.8629 -0.9696 1.2255 3.1464 0.7294 0.2459 -0.1765 -1.6746 -1.1893 1.9398 -0.8352 -0.2561 0.554 1.0101 0.7385 7.6691 -5.5074 -0.637 -1.6448 1.9148 0.7271 0.3139 -0.2254 0 -1.0749 -2.365 0c0.5541,-0.7969 0.0679,-0.946 1.419,-0.946 1.5376,0 0.3572,0.4097 2.2939,0.9225l0.6128 -0.9795 -1.0148 -1.3621 1.4191 0 0 -0.9459 0 -2.3651 0.9461 0 -0.0269 -1.5222 -1.8832 0.573 0.4926 -2.3574 -2.8396 0.9416c0.4116,-1.5408 0.8872,-1.365 3.311,-1.4192l-0.1044 -0.7801 -1.254 -1.2799 3.3006 1.3735 -1.4522 0.2179 -0.5867 2.3365 0.5212 0.1587 0.7002 -2.1411 1.7133 2.0067 0 0.946 -0.2644 0.4968 1.1178 0.426 1.0031 -3.5183 1.4796 2.8059 -0.2351 0.5255 1.6291 -2.1549 -1.4189 0 0 -1.4192c0.6094,0.4082 2.4593,1.4667 3.6574,1.7942l1.7273 -1.2404 0.7646 -1.0265 -0.9462 0 -0.0941 -2.5498 -3.3357 1.7661 1.504 1.1685 -1.2277 0.4033 -2.0236 -1.7242 0.396 -1.0453 -6.2387 -1.1359 3.4517 -1.6128 -1.8835 -0.5377 -0.0012 -0.476 1.315 0.043 0.5697 -2.3405 2.4195 -0.0912 -1.4737 -1.3277 -0.8997 0.0333 -1.4482 1.8548 -0.4801 -2.3354 -1.5353 0.2887 2.9445 -2.2067c-1.9436,0.162 -1.0568,0.4731 -2.8381,0.4731 -2.1355,0 -0.9279,-1.1584 -3.3111,-1.4192l0.135 -1.6267 1.8396 1.7053 1.7836 -1.4875 -0.4471 -1.4292 1.4188 0 0 -0.946 -1.5368 -0.374 2.3564 -0.596 -0.3471 2.3939 3.5171 0.3558 -0.8543 -2.5097 1.5904 2.1265 2.8428 -0.4505 0 0.9462 -1.192 0.1356 -1.1732 1.7563 1.419 0 0.0337 -1.5071 1.3854 0.5612 0 -0.946 1.0342 -0.034 -0.4797 -1.1958 1.8107 -1.1353 -1.0429 -0.0245 0.5701 -2.3405 -1.1291 -1.2482 -2.2065 0.1754 -0.0943 -2.2384 -0.8277 -0.473 -30.2727 0 0 45.4096z"/>
   <path id="_44375936" class="fil1" d="M182.967 44.6503l-0.5701 2.3405 1.0429 0.0245 -1.8107 1.1353 0.4797 1.1958 -1.0342 0.034 0 0.946 -1.3854 -0.5612 -0.0337 1.5071 -1.419 0 1.1732 -1.7563 1.192 -0.1356 0 -0.9462 -2.8428 0.4505 -1.5904 -2.1265 0.8543 2.5097 -3.5171 -0.3558 0.3471 -2.3939 -2.3564 0.596 1.5368 0.374 0 0.946 -1.4188 0 0.4471 1.4292 -1.7836 1.4875 -1.8396 -1.7053 -0.135 1.6267c2.3832,0.2608 1.1756,1.4192 3.3111,1.4192 1.7813,0 0.8945,-0.3111 2.8381,-0.4731l-2.9445 2.2067 1.5353 -0.2887 0.4801 2.3354 1.4482 -1.8548 0.8997 -0.0333 1.4737 1.3277 -2.4195 0.0912 -0.5697 2.3405 -1.315 -0.043 0.0012 0.476 1.8835 0.5377 6.3128 2.2628 -0.8802 -1.6059 1.6282 -2.0032 2.3993 0.8732 0 -0.9461 -1.4186 0 0.391 -0.4698 -2.7563 -2.3683 0.9458 0 0 -0.9459 -1.9636 0.0156 0.5531 2.7576 1.8836 0.5378 -2.2407 0.0664 -1.0705 2.2987c-1.7706,-0.5872 0.7875,-0.1748 -2.365,-2.3651l1.8921 0c-0.4253,-2.0085 0.3356,-1.2104 0.5975,-2.9521 0.3597,-2.3909 -1.1783,-2.0624 2.2406,-1.778 -1.121,-2.4237 0.7478,-1.8922 3.3253,-1.8715l-1.9258 1.8069 2.3844 -0.4085 -0.0543 -2.6894 2.8926 0.7974 -0.0185 0.8881 -2.0148 0.7626 3.5208 1.6034 -0.9121 -1.5258 1.6621 0.9184 1.5465 -0.7547 0 1.419c1.723,0.1433 3.0906,0.7727 3.7841,-0.9459l0.8949 0 0.5833 -2.7197 -2.4242 -0.1184 0 -1.4192 -2.3445 0.5796 -0.0204 1.3126 -1.1753 -0.393 -4.2272 -1.9281 -0.0135 -0.5879 -0.3311 0.9934 -1.7941 -0.5529 0.8954 -0.4405 0.0233 -0.8752 -1.0171 -0.2601 2.4189 -0.1343 0.0172 -0.5517 -1.419 0c-1.5376,0 -0.3569,-0.4098 -2.3645,-0.9458zm14.1076 3.7755l-1.361 -0.0029 1.2131 0.6929 0.1479 -0.69z"/>
   <path id="_46936992" class="fil1" d="M184.386 58.8407l-2.365 0.946 0 1.419 0.9464 0 0 0.946c0.5766,-0.324 0.5057,-0.4729 1.4186,-0.4729l0.4773 0.1437 2.5123 -0.1274 0.3216 -0.2309 0 -0.7315 -0.9463 0 0 -0.946 0.9463 0 0 -1.4189c0,-1.8085 0.1452,-0.1723 -0.4732,-1.4192l0.9462 0 -0.0363 1.3607 2.7861 -1.3269 0.5612 1.392 0.5155 0.0021 2.7629 -1.9841 -0.0011 -0.0052 -1.3851 0.5614c-0.0765,-0.9177 0.0222,-1.8921 -0.9462,-1.8921 -1.2776,0 -1.3043,0.2258 -2.2766,0.4391l-0.5772 -1.2655 -4.71 -0.6248 -0.0045 0.5726 -1.4187 -0.0673 0 2.3649 1.4387 -0.0188 -0.9416 -1.4967 2.3408 0.5696 0 -0.9459 0.9459 0 0 0.9459 0.8755 -0.0237 0.5437 -0.9222 -0.0241 1.3223 -2.1879 0.5754 -0.1531 3.3053 -0.9462 0 0 -0.946 -0.9459 0z"/>
   <path id="_46448152" class="fil2" d="M184.386 58.8407l0.9459 0 0 0.946 0.9462 0 0.1531 -3.3053 2.1879 -0.5754 0.0241 -1.3223 -0.5437 0.9222 -0.8755 0.0237 0 -0.9459 -0.9459 0 0 0.9459 -2.3408 -0.5696 0.9416 1.4967 -1.4387 0.0188 0 -2.3649 1.4187 0.0673 0.0045 -0.5726 4.71 0.6248 0.5772 1.2655c0.9723,-0.2133 0.999,-0.4391 2.2766,-0.4391 0.9684,0 0.8697,0.9744 0.9462,1.8921l1.3851 -0.5614 0.0011 0.0052 0.7173 -0.5152 0.6833 -3.1857 -0.8949 0c-0.6935,1.7186 -2.0611,1.0892 -3.7841,0.9459l0 -1.419 -1.5465 0.7547 -1.6621 -0.9184 0.9121 1.5258 -3.5208 -1.6034 2.0148 -0.7626 0.0185 -0.8881 -2.8926 -0.7974 0.0543 2.6894 -2.3844 0.4085 1.9258 -1.8069c-2.5775,-0.0207 -4.4463,-0.5522 -3.3253,1.8715 -3.4189,-0.2844 -1.8809,-0.6129 -2.2406,1.778 -0.2619,1.7417 -1.0228,0.9436 -0.5975,2.9521l-1.8921 0c3.1525,2.1903 0.5944,1.7779 2.365,2.3651l1.0705 -2.2987 2.2407 -0.0664 -1.8836 -0.5378 -0.5531 -2.7576 1.9636 -0.0156 0 0.9459 -0.9458 0 2.7563 2.3683 -0.391 0.4698 1.4186 0 0 0.9461 -2.3993 -0.8732 -1.6282 2.0032 0.8802 1.6059 -6.3128 -2.2628 -3.4517 1.6128 6.2387 1.1359 -0.396 1.0453 2.0236 1.7242 1.2277 -0.4033 -1.504 -1.1685 3.3357 -1.7661 0.0941 2.5498 0.9462 0 -0.7646 1.0265 4.7 -3.3753 -2.5123 0.1274 -0.4773 -0.1437c-0.9129,0 -0.842,0.1489 -1.4186,0.4729l0 -0.946 -0.9464 0 0 -1.419 2.365 -0.946zm7.6107 -0.4642l-0.5155 -0.0021 -0.5612 -1.392 -2.7861 1.3269 0.0363 -1.3607 -0.9462 0c0.6184,1.2469 0.4732,-0.3893 0.4732,1.4192l0 1.4189 -0.9463 0 0 0.946 0.9463 0 0 0.7315 4.2995 -3.0877z"/>
   <path id="_46399008" class="fil2" d="M169.877 74.2611l0.0093 -0.0104 0.0025 0.0019 1.0397 -0.7466 1.1339 -2.3268 -0.9212 -0.5133 0 0.9459 -1.4191 0 1.0148 1.3621 -0.6128 0.9795c-1.9367,-0.5128 -0.7563,-0.9225 -2.2939,-0.9225 -1.3511,0 -0.8649,0.1491 -1.419,0.946l2.365 0 0 1.0749 1.1008 -0.7907zm-1.4147 1.0161l-1.9148 -0.7271 0.637 1.6448 1.2778 -0.9177z"/>
   <path id="_44082488" class="fil0" d="M171.142 70.6659l0.9212 0.5133 -1.1339 2.3268 10.0193 -7.1952c-1.1981,-0.3275 -3.048,-1.386 -3.6574,-1.7942l0 1.4192 1.4189 0 -1.6291 2.1549 0.2351 -0.5255 -1.4796 -2.8059 -1.0031 3.5183 -1.1178 -0.426 0.2644 -0.4968 0 -0.946 -1.7133 -2.0067 -0.7002 2.1411 -0.5212 -0.1587 0.5867 -2.3365 1.4522 -0.2179 -3.3006 -1.3735 1.254 1.2799 0.1044 0.7801c-2.4238,0.0542 -2.8994,-0.1216 -3.311,1.4192l2.8396 -0.9416 -0.4926 2.3574 1.8832 -0.573 0.0269 1.5222 -0.9461 0 0 2.3651zm-1.2524 3.5867l-0.0025 -0.0019 -0.0093 0.0104 0.0118 -0.0085zm-10.3734 7.4497l-1.0101 -0.7385 0.2561 -0.554 -1.9398 0.8352 1.6746 1.1893 1.0192 -0.732zm-1.2651 0.9085l-3.1464 -0.7294 0.9696 -1.2255 -5.2933 -0.8629 0.4686 1.2892 -1.3932 -0.01 0.1184 2.3651 1.3005 -1.419 2.434 0.4162 -1.0147 -1.3623 2.104 0.0998 -1.0558 2.429 1.8949 -1.2149 1.1447 1.2795 1.4687 -1.0548zm-3.774 2.7103l-0.3636 0.0081 0 -1.419 -0.9461 0 0 1.419 -3.311 0 0.0197 0.8256 2.7497 0.4958 0.5416 -0.3889 0 -0.4593 0.6395 0 0.6702 -0.4813z"/>
   <path id="_122761640" class="fil1" d="M148.437 89.6585l0 -3.3828 0.6218 -1.0947 3.1982 -1.7636 -0.9821 -1.3991 2.434 0.4162 -1.0147 -1.3623 2.104 0.0998 -1.0558 2.429 1.8949 -1.2149 1.1447 1.2795 -2.3053 1.6555 -0.3636 0.0081 0 -1.419 -0.9461 0 0 1.419 -3.311 0 0.0197 0.8256 2.7497 0.4958 -4.1884 3.0079zm4.73 -3.3968l0 -0.4593 0.6395 0 -0.6395 0.4593z"/>
   <polygon id="_152232336" class="fil4 str0" points="79.3077,68.395 113.694,86.6843 146.259,68.6363 159.923,74.2577 108.657,108.358 61.0897,76.5203 "/>
   <polygon id="_48378640" class="fil5 str1" points="147.624,58.3735 146.7,58.8578 146.259,68.6363 113.694,86.6843 79.3077,68.395 79.2175,58.9875 78.3155,58.5571 59.7966,65.4965 21.0185,42.0289 111.109,20.7906 197.993,40.7139 161.826,63.3867 "/>
   <polygon id="_152232728" class="fil5 str2" points="21.0185,42.0289 59.7966,65.4965 78.3155,58.5571 79.2175,58.9875 59.841,66.4746 21.0507,43.2107 "/>
   <polygon id="_45843520" class="fil6 str3" points="146.7,58.8578 161.657,64.6557 198.674,40.9705 197.993,40.7139 161.826,63.3867 147.624,58.3735 "/>
   <polygon id="_152234968" class="fil4 str0" points="146.688,58.8598 161.644,64.6577 159.911,74.2597 146.247,68.6383 "/>
   <polygon id="_46944104" class="fil4 str0" points="108.657,108.358 108.827,118.008 195.196,56.2227 198.674,40.9705 161.657,64.6557 159.923,74.2577 "/>
   <polygon id="_150761936" class="fil4 str0" points="21.0459,43.3487 59.8413,66.4748 61.09,76.5205 108.657,108.358 108.827,118.008 24.1204,56.7508 "/>
   <polygon id="_151674688" class="fil4 str0" points="59.841,66.4746 79.2175,58.9875 79.3077,68.395 61.0897,76.5203 "/>
   <line id="_48549896" class="fil4 str4" x1="113.398" y1="67.0489" x2="113.694" y2= "86.6843" />
   <path id="_45302032" class="fil0" d="M22.8574 51.2543l0.7266 0 0 -1.5482 3.7837 0.1292 0 -0.9461 1.3278 0.0548 -0.5734 -1.3079 -0.5297 -0.3145 -2.5673 1.1444 0.1636 -0.6073 -3.3024 -1.0804 0.9711 4.476zm-1.1347 -5.2302l0.6086 -0.0875 -0.8292 -0.9294 0.2206 1.0169zm-0.516 -2.3785l0.1937 -0.0016 -0.2227 -0.1323 0.029 0.1339z"/>
   <path id="_46372360" class="fil2" d="M32.18 50.0462l-0.0821 0.262c0.2352,0.0196 0.4492,0.044 0.6454,0.0726l-0.5633 -0.3346z"/>
   <path id="_271355872" class="fil1" d="M50.9592 61.1995l-0.9748 0.022 0.3181 1.1785 -1.1946 1.6836 -1.9544 -0.6616 1.0269 -0.8154 -1.4691 -0.2594 1.5398 -0.4263 -1.0223 -0.264 0.9516 -1.8884 -0.9461 0 0 -0.7813 -1.2078 -0.7173 -0.3769 -0.0248 0.112 -0.1325 -1.6138 -0.9585 -1.4217 0.6238 0.2511 0.5714 1.419 0c1.8084,0 0.1721,-0.1451 1.6265,0.6525l-1.6604 2.274 -1.3851 -0.5611 0 1.4188c1.7305,-0.8303 1.8545,-0.9658 2.3114,0.8255l-1.8383 1.0668 2.3652 0 0.4938 -0.3423 0.9032 1.6783 1.914 -0.3902 0.0196 1.0666 3.3413 -0.8528 -1.4689 -0.2138 0.2592 -2.4151 0.2306 1.2643 2.1738 0.1291 -1.7174 2.9138c2.3202,1.441 1.5531,-0.2776 1.4189,-1.8921l1.4191 0c1.1926,0 0.9517,-0.164 1.2779,-0.7304l-0.3627 -0.2154 -1.3882 0 0 -0.8245 -0.9863 -0.5858 -0.3508 0.0032 0.0662 -0.1722 -2.0996 -1.247zm-19.7966 -11.7575l-2.3757 0.8662 2.8381 0 0 0.9461 1.3324 0.0061 0.0865 2.832 0.9461 0 0.0266 -1.5247 4.233 1.0833 -5.5053 -3.2697c-0.1965,-0.0286 -0.4108,-0.0535 -0.6464,-0.0731l0.0821 -0.262 -1.0174 -0.6042zm10.716 6.3644l0.335 0.4555 0.1617 -0.1605 -0.4967 -0.295zm12.9774 7.7075l-0.0533 0.0388 0.1186 0 -0.0653 -0.0388zm1.8388 1.0921l0 0.3656 0.7949 0.1065 -0.7949 -0.4721zm1.2172 0.7229l-1.1969 0.6952 1.6717 -0.4132 -0.4748 -0.282z"/>
   <path id="_45118680" class="fil3" d="M24.0632 56.8121l0.0572 -0.0613 0.0487 0.0352 1.8604 -0.4591 -1.0268 -0.8154 1.49 -0.2129 -1.017 -0.2602c0.2364,-0.4208 0.3079,-0.946 0.946,-0.946 1.2775,0 1.3041,0.2259 2.4943,0.1729l-2.1022 -0.7765 1.014 -0.7485 -1.4061 -0.5398 1.8922 0 -0.0156 -1.1729 -2.3495 -0.2463c-1.0756,-0.0667 -0.9583,1.7665 -2.6989,2.282l0.8133 3.7488z"/>
   <path id="_44377072" class="fil2" d="M45.7616 58.1126l-0.112 0.1325 0.3769 0.0248 -0.2649 -0.1573zm1.4727 0.8746l0 0.7813 0.9461 0 -0.9516 1.8884 1.0223 0.264 -1.5398 0.4263 1.4691 0.2594 -1.0269 0.8154 1.9544 0.6616 1.1946 -1.6836 -0.3181 -1.1785 0.9748 -0.022 -3.7249 -2.2123z"/>
   <path id="_45300688" class="fil3" d="M33.99 55.5115l-1.8921 -0.4731 0 1.4189 -1.419 0 0 -0.9458 -0.7433 0 -0.1844 1.8344 1.8738 0.5307 0 0.9458 -1.8923 0 -0.0225 0.4799 2.3877 -0.0069 0 0.9461 0.828 -0.1181 1.0908 -1.3616 5.2023 2.4358 0.457 -1.4481 2.6312 1.1082 1.6161 -1.0892c-2.2062,-0.0489 -2.6872,-0.173 -1.9948,-1.5597l-4.3907 -1.2784 0 0.9462 -0.5492 0.2657 -1.5296 -1.798 0.4229 -0.3599 -1.439 -0.0185 0.966 -1.4005 -1.4189 0 0 0.9461z"/>
   <path id="_46374488" class="fil1" d="M38.247 66.9667l0 -0.0356 1.4193 0 -0.0132 -0.4734 -1.4061 -0.54 1.5155 -0.0243 -0.4677 -2.4605 1.3174 1.5387 2.365 0 0 -0.9458 -1.5002 -0.1309 1.0272 -0.8153 -1.5223 -0.027 0.5762 -1.8651 -1.3157 0.0273 -0.5761 1.8648 -3.0126 0.0266 -0.3228 -1.8223 -2.3409 -0.5692c-0.4577,1.3801 -3.9539,-0.5825 -5.1449,-1.4234l0.0699 0.9268 9.332 6.7486z"/>
   <path id="_46595488" class="fil2" d="M28.915 60.2181l-0.0699 -0.9268c1.191,0.8409 4.6872,2.8035 5.1449,1.4234l2.3409 0.5692 0.3228 1.8223 3.0126 -0.0266 0.5761 -1.8648 1.3157 -0.0273 -0.5762 1.8651 1.5223 0.027 -1.0272 0.8153 1.5002 0.1309 0 0.9458 -2.365 0 -1.3174 -1.5387 0.4677 2.4605 -1.5155 0.0243 1.4061 0.54 0.0132 0.4734 -1.4193 0 0 0.0356 7.0216 5.0777 -1.3453 -1.3967c2.3239,0.1935 1.7328,0.9459 3.7841,0.9459l1.4889 0.0234 -1.0058 2.5405 1.6876 1.2204 2.0866 0 0 1.419 1.0168 0.2128 -0.5852 0.1893 1.2765 0.9231 0.2219 -0.4859 5.165 -0.8393 0 -0.4731 -1.8981 -0.9496 0.9313 -1.5139 -4.9944 -0.4505 -2.1068 -5.2304 -1.6533 0.4763 -1.1588 -2.1651 3.7851 0.3731 1.7174 -2.9138 -2.1738 -0.1291 -0.2306 -1.2643 -0.2592 2.4151 1.4689 0.2138 -3.3413 0.8528 -0.0196 -1.0666 -1.914 0.3902 -0.9032 -1.6783 -0.4938 0.3423 -2.3652 0 1.8383 -1.0668c-0.4569,-1.7913 -0.5809,-1.6558 -2.3114,-0.8255l0 -1.4188 1.3851 0.5611 1.6604 -2.274c-1.4544,-0.7976 0.1819,-0.6525 -1.6265,-0.6525l-1.419 0 -0.2511 -0.5714 1.4217 -0.6238 -1.7725 -1.0527 -0.1617 0.1605 -0.335 -0.4555 -3.629 -2.1554 -4.233 -1.0833 -0.0266 1.5247 -0.9461 0 -0.0865 -2.832 -1.3324 -0.0061 0 -0.9461 -2.8381 0 2.3757 -0.8662 -3.0405 -1.8059 0.5734 1.3079 -1.3278 -0.0548 0 0.9461 -3.7837 -0.1292 0 1.5482 -0.7266 0 0.3925 1.809c1.7406,-0.5155 1.6233,-2.3487 2.6989,-2.282l2.3495 0.2463 0.0156 1.1729 -1.8922 0 1.4061 0.5398 -1.014 0.7485 2.1022 0.7765c-1.1902,0.053 -1.2168,-0.1729 -2.4943,-0.1729 -0.6381,0 -0.7096,0.5252 -0.946,0.946l1.017 0.2602 -1.49 0.2129 1.0268 0.8154 -1.8604 0.4591 4.7459 3.4321zm-7.5146 -16.5741l-0.1937 0.0016 0.2954 1.3616 0.8292 0.9294 -0.6086 0.0875 0.1636 0.7542 3.3024 1.0804 -0.1636 0.6073 2.5673 -1.1444 -6.192 -3.6776zm12.5896 10.9214l1.4189 0 -0.966 1.4005 1.439 0.0185 -0.4229 0.3599 1.5296 1.798 0.5492 -0.2657 0 -0.9462 4.3907 1.2784c-0.6924,1.3867 -0.2114,1.5108 1.9948,1.5597l-1.6161 1.0892 -2.6312 -1.1082 -0.457 1.4481 -5.2023 -2.4358 -1.0908 1.3616 -0.828 0.1181 0 -0.9461 -2.3877 0.0069 0.0225 -0.4799 1.8923 0 0 -0.9458 -1.8738 -0.5307 0.1844 -1.8344 0.7433 0 0 0.9458 1.419 0 0 -1.4189 1.8921 0.4731 0 -0.9461z"/>
   <path id="_46479928" class="fil0" d="M51.9647 66.8637l-3.7851 -0.3731 1.1588 2.1651 1.6533 -0.4763 2.1068 5.2304 4.9944 0.4505 -0.9313 1.5139 1.8981 0.9496 0 -10.3132 -0.6729 -0.3997 -1.6717 0.4132 1.1969 -0.6952 -0.4223 -0.2508 -0.7949 -0.1065 0 -0.3656 -0.614 -0.3647c-0.3265,0.5667 -0.0853,0.7303 -1.2781,0.7303l-1.4191 0c0.1342,1.6145 0.9013,3.3331 -1.4189,1.8921zm2.9566 -3.311l-0.1186 0 0.0533 -0.0388 -0.5263 -0.3126 0 0.8245 1.3882 0 -0.7966 -0.4731zm-1.8625 -1.1062l-0.0662 0.1722 0.3508 -0.0032 -0.2846 -0.169z"/>
   <path id="_45421768" class="fil1" d="M58.9518 81.9397l0.1079 0.0602 0 -5.203 -5.165 0.8393 -0.2219 0.4859 5.279 3.8176zm-6.5555 -4.7407l0.5852 -0.1893 -1.0168 -0.2128 0 -1.419 -2.0866 0 2.5182 1.8211zm-4.2058 -3.0415l1.0058 -2.5405 -1.4889 -0.0234c-2.0513,0 -1.4602,-0.7524 -3.7841,-0.9459l1.3453 1.3967 2.9219 2.1131z"/>
   <polygon id="_45586920" class="fil7" points="59.0597,82.0178 59.0597,81.9999 58.9518,81.9397 "/>
  </g>
  <g id="_124944704">
   <polygon id="_152232280" class="fil8 str5" points="113.401,67.1178 171.475,39.9003 170.334,46.5474 146.703,58.9267 146.262,68.7052 113.697,86.7533 "/>
   <polygon id="_47772792" class="fil8 str6" points="56.6717,39.2721 113.274,63.494 113.186,67.0406 53.6522,40.1754 "/>
   <polygon id="_45434736" class="fil8 str6" points="113.385,63.7149 167.719,39.2712 171.37,39.9823 113.296,67.1998 "/>
   <polygon id="_151802536" class="fil8 str6" points="56.5545,39.3027 111.582,24.8892 114.362,25.5888 58.8661,40.2916 "/>
   <polygon id="_151674496" class="fil8 str6" points="114.417,25.6706 167.638,39.1955 165.433,40.1871 111.603,26.4161 "/>
   <polygon id="_151682576" class="fil8 str5" points="111.757,26.4843 165.301,40.282 156.805,44.1807 111.801,31.6832 "/>
   <polygon id="_46607816" class="fil8 str5" points="113.269,67.262 53.4215,40.259 53.7656,47.0204 79.0889,59.2006 79.1791,68.6081 113.565,86.8975 "/>
   <g>
    <line id="_48549896_0" class="fil4 str7" x1="113.297" y1="67.2615" x2="113.593" y2= "86.897" />
    <line id="_125783504" class="fil4 str7" x1="53.4826" y1="42.5184" x2="113.349" y2= "70.7142" />
    <line id="_274822560" class="fil4 str7" x1="53.6347" y1="44.8893" x2="113.44" y2= "74.4883" />
    <line id="_46575088" class="fil4 str7" x1="113.369" y1="77.9393" x2="79.0367" y2= "60.7283" />
    <line id="_123901512" class="fil4 str7" x1="113.499" y1="81.7021" x2="79.1669" y2= "64.4911" />
    <line id="_276832632" class="fil4 str7" x1="113.565" y1="85.3823" x2="79.1987" y2= "67.7408" />
    <line id="_126700768" class="fil4 str7" x1="58.3274" y1="42.4595" x2="58.3864" y2= "44.828" />
    <line id="_46574256" class="fil4 str7" x1="64.2038" y1="45.131" x2="64.2643" y2= "47.5963" />
    <line id="_44681528" class="fil4 str7" x1="69.8006" y1="47.6361" x2="69.8382" y2= "50.2215" />
    <line id="_270069728" class="fil4 str7" x1="75.6638" y1="50.3206" x2="75.7218" y2= "52.9612" />
    <line id="_46573896" class="fil4 str7" x1="82.1906" y1="53.2348" x2="82.2282" y2= "56.0068" />
    <line id="_47031608" class="fil4 str7" x1="88.0481" y1="55.8693" x2="88.1094" y2= "58.8269" />
    <line id="_46392288" class="fil4 str7" x1="94.5806" y1="58.8335" x2="94.6287" y2= "61.8972" />
    <line id="_45445056" class="fil4 str7" x1="100.444" y1="61.4622" x2="100.497" y2= "64.6613" />
    <line id="_46572600" class="fil4 str7" x1="106.971" y1="64.4322" x2="106.978" y2= "67.7137" />
    <line id="_43628856" class="fil4 str7" x1="84.7541" y1="63.5848" x2="84.8082" y2= "67.3191" />
    <line id="_46911448" class="fil4 str7" x1="90.6334" y1="66.5289" x2="90.722" y2= "70.2838" />
    <line id="_45051472" class="fil4 str7" x1="96.2327" y1="69.3488" x2="96.333" y2= "73.0966" />
    <line id="_45040624" class="fil4 str7" x1="102.099" y1="72.2897" x2="102.14" y2= "76.008" />
    <line id="_273307424" class="fil4 str7" x1="108.626" y1="75.5619" x2="108.617" y2= "79.2547" />
    <line id="_126578304" class="fil4 str7" x1="87.3204" y1="68.5106" x2="87.411" y2= "71.8739" />
    <line id="_46932144" class="fil4 str7" x1="80.7045" y1="65.274" x2="80.7951" y2= "68.6373" />
    <line id="_45118432" class="fil4 str7" x1="93.2039" y1="71.528" x2="93.2883" y2= "74.9928" />
    <line id="_46998680" class="fil4 str7" x1="98.8059" y1="74.3363" x2="98.8993" y2= "77.7146" />
    <line id="_129036792" class="fil4 str7" x1="104.67" y1="77.2763" x2="104.72" y2= "80.842" />
    <line id="_43955840" class="fil4 str7" x1="111.19" y1="80.5444" x2="111.166" y2= "84.1509" />
    <line id="_47034704" class="fil4 str7" x1="58.0749" y1="47.0496" x2="58.126" y2= "49.1038" />
    <line id="_272879584" class="fil4 str7" x1="55.1039" y1="43.3074" x2="55.155" y2= "45.6219" />
    <line id="_47027992" class="fil4 str7" x1="63.951" y1="49.9951" x2="64" y2= "51.9909" />
    <line id="_125214560" class="fil4 str7" x1="69.4942" y1="52.7386" x2="69.5636" y2= "54.7009" />
    <line id="_46375352" class="fil4 str7" x1="75.408" y1="55.614" x2="75.4492" y2= "57.4911" />
    <line id="_45135640" class="fil4 str7" x1="81.9348" y1="58.842" x2="82.0063" y2= "62.217" />
    <line id="_270999736" class="fil4 str7" x1="87.7923" y1="61.758" x2="87.8261" y2= "65.1345" />
    <line id="_45344016" class="fil4 str7" x1="94.3248" y1="65.0362" x2="94.3649" y2= "68.4126" />
    <line id="_47116520" class="fil4 str7" x1="100.188" y1="67.9467" x2="100.233" y2= "71.3543" />
    <line id="_44938736" class="fil4 str7" x1="106.715" y1="71.2305" x2="106.722" y2= "74.6072" />
    <line id="_46559120" class="fil4 str7" x1="61.2203" y1="46.2472" x2="61.2793" y2= "48.6157" />
    <line id="_130356184" class="fil4 str7" x1="67.0967" y1="48.9187" x2="67.1201" y2= "51.5636" />
    <line id="_46906952" class="fil4 str7" x1="72.6946" y1="51.5669" x2="72.7155" y2= "54.2848" />
    <line id="_46580464" class="fil4 str7" x1="78.56" y1="54.3293" x2="78.6025" y2= "57.2465" />
    <line id="_274822392" class="fil4 str7" x1="85.0893" y1="57.4045" x2="85.1355" y2= "60.4798" />
    <line id="_122876672" class="fil4 str7" x1="90.9539" y1="60.1665" x2="91.0351" y2= "63.3996" />
    <line id="_272254560" class="fil4 str7" x1="97.481" y1="63.2406" x2="97.5212" y2= "66.6099" />
    <line id="_46928136" class="fil4 str7" x1="103.343" y1="66.0013" x2="103.369" y2= "69.5043" />
    <line id="_45536328" class="fil4 str7" x1="109.857" y1="69.0696" x2="109.83" y2= "72.702" />
   </g>
   <line id="_48549896_1" class="fil4 str7" x1="113.597" y1="67.2146" x2="113.742" y2= "86.8606" />
   <line id="_44197840" class="fil4 str7" x1="170.819" y1="41.7858" x2="113.622" y2= "70.6692" />
   <line id="_46568528" class="fil4 str7" x1="170.724" y1="44.1593" x2="113.618" y2= "74.4457" />
   <line id="_126091240" class="fil4 str7" x1="113.762" y1="77.8971" x2="146.54" y2= "60.2915" />
   <line id="_45353008" class="fil4 str7" x1="113.719" y1="81.6628" x2="146.497" y2= "64.0571" />
   <line id="_276963952" class="fil4 str7" x1="113.736" y1="85.3451" x2="146.538" y2= "67.3084" />
   <line id="_46923648" class="fil4 str7" x1="166.139" y1="41.7817" x2="166.134" y2= "44.1518" />
   <line id="_46894416" class="fil4 str7" x1="160.522" y1="44.5207" x2="160.518" y2= "46.9876" />
   <line id="_44568496" class="fil4 str7" x1="155.172" y1="47.09" x2="155.193" y2= "49.6768" />
   <line id="_47078384" class="fil4 str7" x1="149.569" y1="49.8418" x2="149.571" y2= "52.484" />
   <line id="_47098464" class="fil4 str7" x1="143.33" y1="52.8309" x2="143.354" y2= "55.6043" />
   <line id="_47104448" class="fil4 str7" x1="137.731" y1="55.5327" x2="137.736" y2= "58.492" />
   <line id="_47108008" class="fil4 str7" x1="131.487" y1="58.5718" x2="131.508" y2= "61.6372" />
   <line id="_47114816" class="fil4 str7" x1="125.882" y1="61.2678" x2="125.901" y2= "64.4686" />
   <line id="_47118776" class="fil4 str7" x1="117.315" y1="65.4519" x2="117.38" y2= "68.7347" />
   <line id="_47122808" class="fil4 str7" x1="141.081" y1="63.2137" x2="141.111" y2= "66.95" />
   <line id="_47125888" class="fil4 str7" x1="135.468" y1="66.2254" x2="135.465" y2= "69.9826" />
   <line id="_47130784" class="fil4 str7" x1="130.122" y1="69.1096" x2="130.108" y2= "72.8599" />
   <line id="_122547968" class="fil4 str7" x1="124.521" y1="72.118" x2="124.563" y2= "75.8381" />
   <line id="_122628104" class="fil4 str7" x1="118.29" y1="75.4652" x2="118.38" y2= "79.1592" />
   <line id="_122610728" class="fil4 str7" x1="138.711" y1="68.1703" x2="138.697" y2= "71.5359" />
   <line id="_122544240" class="fil4 str7" x1="145.029" y1="64.8577" x2="145.016" y2= "68.2233" />
   <line id="_122575864" class="fil4 str7" x1="133.095" y1="71.2554" x2="133.09" y2= "74.7224" />
   <line id="_122623248" class="fil4 str7" x1="127.747" y1="74.1281" x2="127.731" y2= "77.5087" />
   <line id="_122606688" class="fil4 str7" x1="122.148" y1="77.1355" x2="122.178" y2= "80.703" />
   <line id="_122556392" class="fil4 str7" x1="115.924" y1="80.4785" x2="116.026" y2= "84.0861" />
   <line id="_122636272" class="fil4 str7" x1="166.483" y1="46.3706" x2="166.479" y2= "48.4262" />
   <line id="_122554248" class="fil4 str7" x1="169.27" y1="42.5934" x2="169.272" y2= "44.9094" />
   <line id="_122554224" class="fil4 str7" x1="160.873" y1="49.3837" x2="160.87" y2= "51.3807" />
   <line id="_122568128" class="fil4 str7" x1="155.58" y1="52.1909" x2="155.556" y2= "54.1547" />
   <line id="_122600224" class="fil4 str7" x1="149.932" y1="55.1343" x2="149.934" y2= "57.0125" />
   <line id="_122632312" class="fil4 str7" x1="143.7" y1="58.4372" x2="143.705" y2= "61.8143" />
   <line id="_122615080" class="fil4 str7" x1="138.107" y1="61.4206" x2="138.149" y2= "64.7987" />
   <line id="_122582432" class="fil4 str7" x1="131.87" y1="64.7739" x2="131.906" y2= "68.1519" />
   <line id="_16315664" class="fil4 str7" x1="126.272" y1="67.7518" x2="126.303" y2= "71.1611" />
   <line id="_46899816" class="fil4 str7" x1="120.041" y1="71.1106" x2="120.108" y2= "74.4886" />
   <line id="_129357968" class="fil4 str7" x1="163.428" y1="45.6035" x2="163.423" y2= "47.9736" />
   <line id="_46577584" class="fil4 str7" x1="157.812" y1="48.3425" x2="157.847" y2= "50.9886" />
   <line id="_44389936" class="fil4 str7" x1="152.464" y1="51.055" x2="152.503" y2= "53.7741" />
   <line id="_46981128" class="fil4 str7" x1="146.86" y1="53.8847" x2="146.883" y2= "56.8035" />
   <line id="_43920088" class="fil4 str7" x1="140.622" y1="57.0349" x2="140.645" y2= "60.1119" />
   <line id="_122602376" class="fil4 str7" x1="135.019" y1="59.8643" x2="135.011" y2= "63.0995" />
   <line id="_43910224" class="fil4 str7" x1="128.783" y1="63.0134" x2="128.818" y2= "66.3843" />
   <line id="_275854776" class="fil4 str7" x1="123.183" y1="65.8414" x2="123.234" y2= "69.3459" />
   <line id="_45300496" class="fil4 str7" x1="116.959" y1="68.9845" x2="117.064" y2= "72.6179" />
   <line id="_47039672" class="fil4 str7" x1="58.1164" y1="42.5228" x2="61.8447" y2= "41.4858" />
   <line id="_45301456" class="fil4 str7" x1="64.1641" y1="45.1057" x2="67.6134" y2= "44.2192" />
   <line id="_274652072" class="fil4 str7" x1="69.8528" y1="47.5876" x2="73.2449" y2= "46.7158" />
   <line id="_46555832" class="fil4 str7" x1="75.7261" y1="50.2529" x2="79.5341" y2= "49.2742" />
   <line id="_274956272" class="fil4 str7" x1="82.2066" y1="53.1113" x2="86.0765" y2= "52.1167" />
   <line id="_122980944" class="fil4 str7" x1="87.9813" y1="55.7935" x2="92.1982" y2= "54.7097" />
   <line id="_47107360" class="fil4 str7" x1="94.5877" y1="58.7739" x2="99.0427" y2= "57.6289" />
   <line id="_128640960" class="fil4 str7" x1="100.414" y1="61.4189" x2="105.04" y2= "60.2301" />
   <line id="_126390240" class="fil4 str7" x1="107.01" y1="64.3262" x2="112.03" y2= "63.0063" />
   <line id="_44082448" class="fil4 str7" x1="168.27" y1="42.4098" x2="165.129" y2= "41.6024" />
   <line id="_130357008" class="fil4 str7" x1="162.433" y1="45.056" x2="158.984" y2= "44.1695" />
   <line id="_47222648" class="fil4 str7" x1="156.745" y1="47.5379" x2="153.352" y2= "46.6661" />
   <line id="_127276080" class="fil4 str7" x1="150.871" y1="50.2032" x2="147.063" y2= "49.2245" />
   <line id="_276442816" class="fil4 str7" x1="144.391" y1="53.0616" x2="140.521" y2= "52.067" />
   <line id="_43615704" class="fil4 str7" x1="138.616" y1="55.7438" x2="134.399" y2= "54.66" />
   <line id="_43445648" class="fil4 str7" x1="132.01" y1="58.7242" x2="127.555" y2= "57.5792" />
   <line id="_126578216" class="fil4 str7" x1="126.183" y1="61.3692" x2="121.558" y2= "60.1804" />
   <line id="_10907904" class="fil4 str7" x1="117.324" y1="65.2792" x2="111.669" y2= "62.8821" />
   <polygon id="_45885888" class="fil8 str5" points="112.255,63.4366 114.95,64.6035 113.445,66.9192 111.173,65.8953 "/>
   <polygon id="_46416528" class="fil8 str5" points="59.5067,40.2943 112.188,26.337 112.232,31.5342 68.7801,44.2051 "/>
   <g>
    <line id="_46845536" class="fil4 str8" x1="62.7211" y1="41.677" x2="112.2" y2= "28.0592" />
    <line id="_46434664" class="fil4 str8" x1="65.8001" y1="42.9083" x2="112.217" y2= "30.0041" />
    <line id="_129828376" class="fil4 str8" x1="107.671" y1="27.4395" x2="107.713" y2= "29.2944" />
    <line id="_269297296" class="fil4 str8" x1="101.83" y1="30.9134" x2="101.834" y2= "28.9861" />
    <line id="_269082592" class="fil4 str8" x1="96.1902" y1="32.4656" x2="96.2184" y2= "30.4738" />
    <line id="_47088120" class="fil4 str8" x1="90.1079" y1="32.2565" x2="90.1493" y2= "34.1114" />
    <line id="_45049096" class="fil4 str8" x1="84.2668" y1="35.7304" x2="84.2705" y2= "33.8031" />
    <line id="_130070776" class="fil4 str8" x1="78.6269" y1="37.2826" x2="78.6551" y2= "35.2908" />
    <line id="_274802904" class="fil4 str8" x1="72.5446" y1="36.8005" x2="72.586" y2= "38.9284" />
    <line id="_122610680" class="fil4 str8" x1="66.7035" y1="40.5474" x2="66.7124" y2= "38.3497" />
    <line id="_46982088" class="fil4 str8" x1="108.034" y1="31.167" x2="108.071" y2= "32.873" />
    <line id="_46914728" class="fil4 str8" x1="102.194" y1="34.5609" x2="102.197" y2= "32.7885" />
    <line id="_47199920" class="fil4 str8" x1="96.5535" y1="36.268" x2="96.5807" y2= "34.3511" />
    <line id="_122878696" class="fil4 str8" x1="90.4712" y1="36.0589" x2="90.5047" y2= "37.9695" />
    <line id="_277706720" class="fil4 str8" x1="84.6298" y1="39.6837" x2="84.6335" y2= "37.7564" />
    <line id="_122489024" class="fil4 str8" x1="78.9867" y1="41.337" x2="79.0149" y2= "39.3452" />
    <line id="_46819312" class="fil4 str8" x1="72.9146" y1="40.9494" x2="72.956" y2= "43.0773" />
    <line id="_47204560" class="fil4 str8" x1="105.365" y1="29.9406" x2="105.391" y2= "31.912" />
    <line id="_47029608" class="fil4 str8" x1="99.5086" y1="33.531" x2="99.5123" y2= "31.6037" />
    <line id="_46366848" class="fil4 str8" x1="93.8687" y1="35.0832" x2="93.8969" y2= "33.0914" />
    <line id="_129936704" class="fil4 str8" x1="87.8457" y1="34.7622" x2="87.8278" y2= "36.729" />
    <line id="_45393544" class="fil4 str8" x1="81.9281" y1="38.4247" x2="81.949" y2= "36.4207" />
    <line id="_47150496" class="fil4 str8" x1="76.3042" y1="39.9887" x2="76.3148" y2= "37.9358" />
    <line id="_45300712" class="fil4 str8" x1="70.2264" y1="39.586" x2="70.2678" y2= "41.7139" />
   </g>
   <g>
    <line id="_275855784" class="fil4 str8" x1="162.755" y1="41.6831" x2="112.097" y2= "28.2193" />
    <line id="_278267712" class="fil4 str8" x1="159.603" y1="42.9005" x2="112.08" y2= "30.1422" />
    <line id="_126758448" class="fil4 str8" x1="116.734" y1="27.6066" x2="116.692" y2= "29.4405" />
    <line id="_276442264" class="fil4 str8" x1="122.714" y1="31.0412" x2="122.711" y2= "29.1357" />
    <line id="_271622368" class="fil4 str8" x1="128.489" y1="32.5759" x2="128.46" y2= "30.6066" />
    <line id="_46933280" class="fil4 str8" x1="134.716" y1="32.3691" x2="134.673" y2= "34.2031" />
    <line id="_45352432" class="fil4 str8" x1="140.696" y1="35.8037" x2="140.692" y2= "33.8982" />
    <line id="_44070464" class="fil4 str8" x1="146.471" y1="37.3384" x2="146.442" y2= "35.3691" />
    <line id="_126599248" class="fil4 str8" x1="152.698" y1="36.8617" x2="152.655" y2= "38.9656" />
    <line id="_44535464" class="fil4 str8" x1="158.678" y1="40.5663" x2="158.669" y2= "38.3934" />
    <line id="_45107088" class="fil4 str8" x1="116.363" y1="31.2919" x2="116.325" y2= "32.9787" />
    <line id="_47136344" class="fil4 str8" x1="122.342" y1="34.6475" x2="122.339" y2= "32.8951" />
    <line id="_45025888" class="fil4 str8" x1="128.117" y1="36.3353" x2="128.089" y2= "34.44" />
    <line id="_269696992" class="fil4 str8" x1="134.344" y1="36.1285" x2="134.31" y2= "38.0175" />
    <line id="_129038688" class="fil4 str8" x1="140.325" y1="39.7123" x2="140.321" y2= "37.8068" />
    <line id="_44535616" class="fil4 str8" x1="146.102" y1="41.3469" x2="146.073" y2= "39.3777" />
    <line id="_123900448" class="fil4 str8" x1="152.319" y1="40.9637" x2="152.277" y2= "43.0676" />
    <line id="_274325656" class="fil4 str8" x1="119.096" y1="30.0794" x2="119.069" y2= "32.0285" />
    <line id="_269119336" class="fil4 str8" x1="125.091" y1="33.6292" x2="125.087" y2= "31.7237" />
    <line id="_46949000" class="fil4 str8" x1="130.865" y1="35.1639" x2="130.837" y2= "33.1946" />
    <line id="_44000520" class="fil4 str8" x1="137.032" y1="34.8465" x2="137.05" y2= "36.7911" />
    <line id="_274578976" class="fil4 str8" x1="143.091" y1="38.4676" x2="143.069" y2= "36.4862" />
    <line id="_274579168" class="fil4 str8" x1="148.849" y1="40.0139" x2="148.838" y2= "37.9842" />
    <line id="_275856568" class="fil4 str8" x1="155.071" y1="39.6157" x2="155.029" y2= "41.7196" />
   </g>
   <line id="_47107632" class="fil4 str8" x1="66.7123" y1="38.3853" x2="64.3126" y2= "37.2706" />
   <line id="_130355896" class="fil4 str8" x1="72.8356" y1="36.7838" x2="70.4359" y2= "35.6691" />
   <line id="_124120944" class="fil4 str8" x1="78.8315" y1="35.2437" x2="76.4318" y2= "34.129" />
   <line id="_276211312" class="fil4 str8" x1="84.5053" y1="33.7351" x2="82.1056" y2= "32.6204" />
   <line id="_129576544" class="fil4 str8" x1="90.3133" y1="32.2028" x2="87.9136" y2= "31.0881" />
   <line id="_270127024" class="fil4 str8" x1="96.447" y1="30.6004" x2="94.0473" y2= "29.4857" />
   <line id="_47211688" class="fil4 str8" x1="102.111" y1="29.1033" x2="99.7111" y2= "27.9886" />
   <line id="_44369600" class="fil4 str8" x1="107.854" y1="27.6284" x2="105.454" y2= "26.5137" />
   <line id="_129031072" class="fil4 str8" x1="111.801" y1="31.6832" x2="111.952" y2= "26.2273" />
   <line id="_45352624" class="fil4 str8" x1="116.731" y1="27.7282" x2="118.822" y2= "26.7901" />
   <line id="_268753144" class="fil4 str8" x1="122.559" y1="29.2096" x2="124.649" y2= "28.2715" />
   <line id="_46568984" class="fil4 str8" x1="128.324" y1="30.6844" x2="130.415" y2= "29.7463" />
   <line id="_47243592" class="fil4 str8" x1="134.498" y1="32.3381" x2="136.433" y2= "31.2656" />
   <line id="_122425336" class="fil4 str8" x1="140.45" y1="33.9052" x2="142.719" y2= "32.8631" />
   <line id="_47208344" class="fil4 str8" x1="146.271" y1="35.2946" x2="148.362" y2= "34.3565" />
   <line id="_122436168" class="fil4 str8" x1="152.59" y1="36.928" x2="154.681" y2= "35.9899" />
   <line id="_46452784" class="fil4 str8" x1="158.622" y1="38.496" x2="160.712" y2= "37.5579" />
  </g>
 </g>
</svg>
