<?xml version="1.0" encoding="UTF-8"?>
<!DOCTYPE svg PUBLIC "-//W3C//DTD SVG 1.1//EN" "http://www.w3.org/Graphics/SVG/1.1/DTD/svg11.dtd">
<!-- Creator: CorelDRAW -->
<svg xmlns="http://www.w3.org/2000/svg" xml:space="preserve" width="210mm" height="297mm" style="shape-rendering:geometricPrecision; text-rendering:geometricPrecision; image-rendering:optimizeQuality; fill-rule:evenodd; clip-rule:evenodd"
viewBox="0 0 210 297"
 xmlns:xlink="http://www.w3.org/1999/xlink">
 <defs>
  <style type="text/css">
   <![CDATA[
    .str5 {stroke:#1F1A17;stroke-width:0.0762}
    .str7 {stroke:#605D5C;stroke-width:0.0762}
    .str2 {stroke:#004E32;stroke-width:0.0762}
    .str3 {stroke:#004F33;stroke-width:0.0762}
    .str1 {stroke:#05A742;stroke-width:0.0762}
    .str0 {stroke:#1F1A17;stroke-width:0.0762}
    .str6 {stroke:#605D5C;stroke-width:0.0762}
    .str4 {stroke:#838281;stroke-width:0.0762}
    .fil8 {fill:none}
    .fil10 {fill:#00A43C}
    .fil9 {fill:#05A742}
    .fil0 {fill:#3E4649}
    .fil2 {fill:#4E5659}
    .fil11 {fill:#605D5C}
    .fil5 {fill:#666E71}
    .fil7 {fill:#7C8385}
    .fil3 {fill:#868E91}
    .fil1 {fill:#969EA1}
    .fil4 {fill:#A6AEB1}
    .fil6 {fill:#B5BBBD}
    .fil12 {fill:#DEDEDD}
   ]]>
  </style>
 </defs>
 <g id="Слой_x0020_1">
  <metadata id="CorelCorpID_0Corel-Layer"/>
  <g id="_125358072">
   <path id="_152235752" class="fil0" d="M97.0366 77.6338l-0.2424 0.6135 4.9114 3.5248c-0.8245,-1.0585 -1.2605,-2.5829 -0.9179,-4.9505 -0.9559,-0.7828 -0.6484,-1.0145 -1.4241,-1.2021 -1.3582,-0.3292 -1.6974,0.4265 -2.327,2.0143zm7.4864 6.1603l0.0002 -0.0524c-0.0648,-0.0284 -0.1295,-0.0574 -0.1939,-0.0866l0.1937 0.139z"/>
   <polygon id="_45777536" class="fil1" points="96.7942,78.2478 97.0366,77.6338 96.8286,75.2248 98.3488,73.6538 96.8821,73.2998 96.9829,71.8916 99.6187,70.5259 97.8879,69.9474 96.5844,63.3935 96.0484,63.6937 94.3611,76.5008 "/>
   <path id="_46811696" class="fil2" d="M128.727 81.6338l-0.8756 -3.4041 0.6205 -5.883 -2.9337 -0.711 -0.2396 2.1558 -2.975 -4.6519c0.1217,2.334 0.2865,1.6906 0.1968,3.4857 -0.0595,1.1917 -0.5848,1.5788 -1.1848,1.4338l-1.4665 -0.3552 0.0847 -1.6991 -1.833 -0.4423c0.8408,3.3983 3.0974,6.7638 5.5478,7.3758l-0.2181 -2.649 1.6946 -0.0318 1.3658 -1.8065c-0.2182,4.3596 -0.602,7.2845 -1.0993,9.5465l3.3154 -2.3637z"/>
   <polygon id="_45825208" class="fil3" points="143.095,71.3912 142.249,71.3824 139.965,72.5486 141.07,72.8346 "/>
   <path id="_150760304" class="fil4" d="M125.411 83.9978c0.4974,-2.262 0.8817,-5.187 1.0999,-9.5469l-1.3658 1.8065 -1.6946 0.0318 0.2181 2.649c-2.4504,-0.612 -4.707,-3.9775 -5.5478,-7.3758l1.833 0.4423 -0.0847 1.6991 1.4665 0.3552c0.6,0.145 1.1253,-0.2421 1.1848,-1.4338 0.0897,-1.7951 -0.0751,-1.1517 -0.1968,-3.4857l2.975 4.6519 0.2396 -2.1558 2.9337 0.711 -0.6205 5.883 0.8756 3.4041 12.3427 -8.7995 -1.1048 -0.286c-1.2314,1.4081 -6.1483,1.2031 -6.0674,-5.1231l-2.6049 0.448c0.287,-1.8574 0.4647,-1.8627 0.5791,-4.156 0.1386,-2.76 -0.2856,-0.7195 -0.5201,-4.418l2.6239 -1.3274 -7.5724 0.5584 0.0117 3.0084 -1.2179 2.3884 1.5649 -0.5258 -0.5522 2.5909 2.2365 -0.4849 0.1848 0.855 -3.1424 3.5519 -0.1699 -0.8884 0.475 -2.482c-1.5324,-1.3605 -2.1369,-4.8126 -3.0878,-5.0429l-1.0566 -0.2224 -0.5799 3.2653 -1.8563 -0.5515 2.0295 -3.0555 -4.1249 0.1033 0.34 3.0765 -3.9603 -3.986 1.9877 4.7785c-2.9281,-0.7067 -6.3176,4.1412 -6.785,9.5309l0.1598 0.9413 -1.0248 0.5996 0.2429 3.4643 -3.2834 -0.7461 2.846 -5.4072 -1.8027 0.3954 -0.2924 -2.4593 3.6184 -2.6428 -0.1241 -0.9402 -1.8332 -0.4427c1.1041,-6.4898 1.4945,1.5093 2.3698,-2.8635 -2.6313,-0.6366 -4.3004,1.5391 -4.894,1.3953l-1.3638 0.4359 -3.14 1.9739 -0.5597 2.3818 -2.6358 1.3657 -0.1008 1.4083 1.4667 0.3545 -1.5202 1.5705 0.208 2.4094c0.6296,-1.5878 0.9688,-2.3435 2.327,-2.0143 0.7757,0.1876 0.4682,0.4193 1.4241,1.2021 -0.3426,2.3672 0.0935,3.892 0.9179,4.9505l2.6243 1.8834c0.0643,0.0292 0.1287,0.0579 0.1933,0.0862l-0.0002 0.0524 10.5517 7.5727 10.3362 -7.3691z"/>
   <path id="_151681424" class="fil0" d="M142.249 71.3824l-2.1569 -1.3796 0.5704 -10.7747 -7.2794 -2.2712 -2.0317 2.3426c0.2345,3.6985 0.6587,1.658 0.5201,4.418 -0.1144,2.2933 -0.2921,2.2986 -0.5791,4.156l2.6049 -0.448c-0.0809,6.3262 4.836,6.5312 6.0674,5.1231l2.2843 -1.1662z"/>
   <path id="_45434760" class="fil2" d="M158.903 60.1207l-3.0347 -0.1485 -0.5445 0.8859 0.2004 1.6714 3.3788 -2.4088zm-4.3144 3.0759l-0.054 -0.0131 -0.0027 0.0535 0.0567 -0.0404z"/>
   <path id="_45463432" class="fil5" d="M96.0484 63.6937l0.536 -0.3002 0.0791 6.2362 2.9552 0.8962 0.5597 -2.3818 3.14 -1.9739 1.3638 -0.4359c0.5936,0.1438 2.2627,-2.0319 4.894,-1.3953 -0.8753,4.3728 -1.2657,-3.6263 -2.3698,2.8635l1.8332 0.4427 0.1241 0.9402 -3.6184 2.6428 0.2924 2.4593 1.8027 -0.3954 -2.846 5.4072 3.2834 0.7461 -0.2429 -3.4643 1.0248 -0.5996 -0.1598 -0.9413c0.4674,-5.3897 3.8569,-10.2376 6.785,-9.5309l-1.9877 -4.7785 -0.4639 -2.2545 -7.7001 -0.1945 -9.6731 2.1777 0.3883 3.8342z"/>
   <polygon id="_45842672" class="fil4" points="154.532,63.237 154.535,63.1835 154.589,63.1966 155.524,62.5295 155.324,60.8581 155.868,59.9722 140.663,59.2281 140.093,70.0028 142.249,71.3824 143.095,71.3912 "/>
   <path id="_150211888" class="fil1" d="M126.415 61.5389l-1.3861 -1.5161 -7.7507 0.103 -0.2125 -2.0522 -4.0321 -0.1973 0.4639 2.2545 3.9603 3.986 -0.34 -3.0765 4.1249 -0.1033 -2.0295 3.0555 1.8563 0.5515 0.5799 -3.2653 1.0566 0.2224c0.9509,0.2303 1.5554,3.6824 3.0878,5.0429l-0.475 2.482 0.1699 0.8884 3.1424 -3.5519 -0.1848 -0.855 -2.2365 0.4849 0.5522 -2.5909 -1.5649 0.5258 1.2179 -2.3884zm-8.2183 -3.4102l1.2892 0.8259 0.6421 -0.7313 -1.9313 -0.0946z"/>
   <polygon id="_47657688" class="fil0" points="120.128,58.2233 119.486,58.9546 118.197,58.1287 117.066,58.0736 117.278,60.1258 125.029,60.0228 126.415,61.5389 126.403,58.5305 "/>
   <polygon id="_46615856" class="fil1" points="99.8968,49.5039 99.6709,49.952 100.043,51.6223 102.495,52.0865 101.614,54.118 101.909,54.3381 103.119,52.8647 104.691,52.947 105.399,52.4304 "/>
   <path id="_151475384" class="fil4" d="M89.8194 59.7328l-0.0089 -0.4707 0.7108 0.4707 1.9583 0 -0.0622 -0.3028 -1.5094 0.2441 1.1774 -1.2586c-1.0235,0.0867 -2.5913,0.5773 -3.7352,1.3173l1.4692 0z"/>
   <path id="_152237160" class="fil6" d="M114.874 59.7328c0.0385,-0.5937 0.2359,-0.9653 1.0416,-0.9653 0.7643,0 1.0161,0.2271 1.0349,0.9653l2.1783 0 -4.577 -2.4345 -0.3451 2.4345 0.6673 0z"/>
   <path id="_45842504" class="fil5" d="M112.462 59.7328l0 -2.7285 -1.0361 0c-3.4847,0 -3.6012,-2.5844 -8.4996,-2.2985l-1.5158 0.887 0 1.0578 1.0361 0 -0.1877 0.5311 -1.8672 2.2388 0.5178 0.3123 11.5525 0z"/>
   <path id="_150730408" class="fil4" d="M116.95 59.7328c-0.0188,-0.7382 -0.2706,-0.9653 -1.0349,-0.9653 -0.8057,0 -1.0031,0.3716 -1.0416,0.9653l2.0765 0z"/>
   <polygon id="_47787224" class="fil1" points="138.267,49.204 138.493,49.6521 138.121,51.3224 135.669,51.7866 136.549,53.8181 136.255,54.0382 135.044,52.5648 133.473,52.6471 132.765,52.1305 "/>
   <path id="_46547528" class="fil4" d="M148.344 59.4329l0.0089 -0.4707 -0.7108 0.4707 -1.9583 0 0.0622 -0.3028 1.5094 0.2441 -1.1774 -1.2586c0.8382,0.071 2.0412,0.4131 3.0777,0.941l-0.5657 0.3763 -0.246 0z"/>
   <path id="_47578832" class="fil6" d="M123.29 59.4329c-0.0385,-0.5937 -0.2359,-0.9653 -1.0416,-0.9653 -0.7643,0 -1.0161,0.2271 -1.0349,0.9653l-2.1783 0 4.577 -2.4345 0.3451 2.4345 -0.6673 0z"/>
   <path id="_148965808" class="fil5" d="M125.702 59.4329l0 -2.7285 1.0361 0c3.4847,0 3.6012,-2.5844 8.4996,-2.2985l1.5158 0.887 0 1.0578 -1.0361 0 0.1877 0.5311 1.8672 2.2388 -0.5178 0.3123 -11.5525 0z"/>
   <path id="_149480136" class="fil4" d="M121.214 59.4329c0.0188,-0.7382 0.2706,-0.9653 1.0349,-0.9653 0.8057,0 1.0031,0.3716 1.0416,0.9653l-2.0765 0z"/>
   <path id="_150325360" class="fil0" d="M95.6992 62.8576l-1.4508 -0.5515 -0.4617 -1.2479 -2.2899 -3.1443c0.2308,1.6274 0.3652,1.7506 1.538,1.9575 0.2204,3.5388 1.9352,4.2497 4.6208,5.4741l0.0745 1.1941 -1.5098 -0.9952 -1.8386 -1.1317 -2.7592 -3.0224 -4.0217 -3.5001c0.3987,-1.7908 -0.375,-0.8155 -1.5683,-3.7508 -0.3279,-0.8071 2.5737,-0.0875 2.5631,-0.5323l0.1109 3.0861c1.0018,1.1696 5.2372,1.1954 6.9536,3.1663l1.8294 2.8153 -1.4754 1.8935 -0.3149 -1.7107z"/>
   <path id="_152243864" class="fil7" d="M115.075 91.4888l-18.5166 -15.4026 -1.8469 -0.9098 -5.3989 -8.556 -0.1688 -1.0221c0.2717,-0.6604 0.3577,-0.794 1.7743,0.0749l0.3687 0.225c1.3595,0.8349 3.1011,2.9166 5.5867,4.4414l-1.1189 -1.0721c0.0369,-1.604 0.7191,-1.1773 2.1114,-0.5548l3.2103 4.0488 13.8294 9.0773 0.1693 9.65z"/>
   <path id="_45843744" class="fil0" d="M136.496 62.4789l1.4508 -0.5893 0.1452 -2.0746 2.6064 -2.3892c-0.2308,1.6334 -0.3652,1.7601 -1.538,1.9975 -0.2204,3.5446 -1.9352,4.3001 -4.6208,5.5944l-0.0745 1.196 1.5098 -1.0345 1.8386 -1.1795 2.7592 -3.0942 4.0217 -3.6047c-0.3987,-1.7805 0.375,-0.8253 1.5683,-3.7916 0.3279,-0.8157 0.4289,-1.3243 0.4395,-1.7694l-6.2014 3.9654c-1.0018,1.1957 -1.3621,2.4045 -3.0785,4.42l-2.6166 2.2174 -0.0111 0.1857 1.8014 -0.0494z"/>
   <path id="_47404864" class="fil0" d="M155.892 57.516l2.1862 -1.0603 -0.3089 4.4912 8.3734 -5.99 0.9185 -0.8654c-0.3234,-1.2261 -0.6975,-0.1437 -0.6259,-1.2886 0.0588,-0.9508 0.236,-1.0831 0.4776,-1.9957l-2.5892 2.0797c-0.0721,-2.4507 -4.9848,1.0777 -6.1798,2.513l-2.2519 2.1161z"/>
   <path id="_46657520" class="fil2" d="M145.37 61.8768l5.1177 -1.5648 -0.5514 2.0256 -0.7365 0.4707 0.0663 -1.0557 -0.9805 0.7015 -0.9911 1.5888 -0.3123 -1.0218 -1.8318 0.4218 0.615 1.0934 -1.2409 -0.4285 -1.4726 0.9416 -0.1688 1.0265 -5.3989 8.6964 -1.8439 0.7768 0.1868 1.0942 6.7471 -4.8266 0.5221 -0.7342 -0.3729 -0.7517 1.1044 -0.7061 0.044 -0.7044c-1.3169,0.433 1.3985,-3.2608 1.9937,-3.6417 1.7926,-1.1465 2.0344,-0.2855 2.5107,-0.5907 1.4159,-0.9056 1.8097,-2.2832 2.3401,-3.5249l1.4722 -0.9413c-0.423,-0.6206 -0.3859,0.5261 -0.3019,-0.8204l0.0872 -1.4089 -0.7359 0.4707 -0.0439 0.7039 -1.4724 0.9414 -2.361 -0.319 -0.1721 1.2624 -1.8185 0.825z"/>
   <path id="_150762512" class="fil4" d="M152.189 60.2217l-1.4722 0.9413c-0.5304,1.2417 -0.9242,2.6193 -2.3401,3.5249 -0.4763,0.3052 -0.7181,-0.5558 -2.5107,0.5907 -0.5952,0.3809 -3.3106,4.0747 -1.9937,3.6417l-0.044 0.7044 -1.1044 0.7061 0.3729 0.7517 -0.5221 0.7342 15.1949 -10.8698 0.3089 -4.4912 -2.1862 1.0603 -3.7033 2.7057z"/>
   <path id="_45814784" class="fil4" d="M134.33 68.3907c1.3923,-0.6587 2.0745,-1.1032 2.1114,0.4999l-1.1189 1.1012c2.4856,-1.5895 4.2272,-3.7165 5.5867,-4.5868l0.3687 -0.2345c1.4166,-0.9058 1.5026,-0.7744 1.7743,-0.1211l1.4726 -0.9416 1.2409 0.4285 -0.615 -1.0934 1.8318 -0.4218 0.3123 1.0218 0.9911 -1.5888 0.9805 -0.7015 -0.0663 1.0557 0.7365 -0.4707 0.5514 -2.0256 -5.1177 1.5648 -8.1197 5.4831 -0.577 -0.9697 0.1976 0.169 1.5599 -2.3493 -0.276 -0.0436 -2.18 1.0129 -1.5098 1.0345 -0.1353 2.177zm0.2098 -3.373c2.6856,-1.2943 4.4004,-2.0498 4.6208,-5.5944 1.1728,-0.2374 1.3072,-0.3641 1.538,-1.9975l-2.6064 2.3892 -0.1452 2.0746 -1.4508 0.5893 -1.8481 1.5891 0.0298 -0.764 -0.0329 0.0207 -0.1052 1.693z"/>
   <path id="_48127120" class="fil7" d="M135.827 76.6428l-0.1868 -1.0942 1.8439 -0.7768 5.3989 -8.6964 0.1688 -1.0265c-0.2717,-0.6533 -0.3577,-0.7847 -1.7743,0.1211l-0.3687 0.2345c-1.3595,0.8703 -3.1011,2.9973 -5.5867,4.5868l1.1189 -1.1012c-0.0369,-1.6031 -0.7191,-1.1586 -2.1114,-0.4999l-2.3699 4.5924 0.3364 6.1861 3.5309 -2.5259z"/>
  </g>
  <g id="_283085136">
   <path id="_152235752_0" class="fil0" d="M72.9066 71.2838l-0.2424 0.6135 4.9114 3.5248c-0.8245,-1.0585 -1.2605,-2.5829 -0.9179,-4.9505 -0.9559,-0.7828 -0.6484,-1.0145 -1.4241,-1.2021 -1.3582,-0.3292 -1.6974,0.4265 -2.327,2.0143zm7.4864 6.1603l0.0002 -0.0524c-0.0648,-0.0284 -0.1295,-0.0574 -0.1939,-0.0866l0.1937 0.139z"/>
   <polygon id="_45777536_1" class="fil1" points="72.6642,71.8978 72.9066,71.2838 72.6986,68.8748 74.2188,67.3038 72.7521,66.9498 72.8529,65.5416 75.4887,64.1759 73.7579,63.5974 72.4544,57.0435 71.9184,57.3437 70.2311,70.1508 "/>
   <path id="_46811696_2" class="fil2" d="M104.597 75.2838l-0.8756 -3.4041 0.6205 -5.883 -2.9337 -0.711 -0.2396 2.1558 -2.975 -4.6519c0.1217,2.334 0.2865,1.6906 0.1968,3.4857 -0.0595,1.1917 -0.5848,1.5788 -1.1848,1.4338l-1.4665 -0.3552 0.0847 -1.6991 -1.833 -0.4423c0.8408,3.3983 3.0974,6.7638 5.5478,7.3758l-0.2181 -2.649 1.6946 -0.0318 1.3658 -1.8065c-0.2182,4.3596 -0.602,7.2845 -1.0993,9.5465l3.3154 -2.3637z"/>
   <polygon id="_45825208_3" class="fil3" points="118.965,65.0412 118.119,65.0324 115.835,66.1986 116.94,66.4846 "/>
   <path id="_150760304_4" class="fil4" d="M101.281 77.6478c0.4974,-2.262 0.8817,-5.187 1.0999,-9.5469l-1.3658 1.8065 -1.6946 0.0318 0.2181 2.649c-2.4504,-0.612 -4.707,-3.9775 -5.5478,-7.3758l1.833 0.4423 -0.0847 1.6991 1.4665 0.3552c0.6,0.145 1.1253,-0.2421 1.1848,-1.4338 0.0897,-1.7951 -0.0751,-1.1517 -0.1968,-3.4857l2.975 4.6519 0.2396 -2.1558 2.9337 0.711 -0.6205 5.883 0.8756 3.4041 12.3427 -8.7995 -1.1048 -0.286c-1.2314,1.4081 -6.1483,1.2031 -6.0674,-5.1231l-2.6049 0.448c0.287,-1.8574 0.4647,-1.8627 0.5791,-4.156 0.1386,-2.76 -0.2856,-0.7195 -0.5201,-4.418l2.6239 -1.3274 -7.5724 0.5584 0.0117 3.0084 -1.2179 2.3884 1.5649 -0.5258 -0.5522 2.5909 2.2365 -0.4849 0.1848 0.855 -3.1424 3.5519 -0.1699 -0.8884 0.475 -2.482c-1.5324,-1.3605 -2.1369,-4.8126 -3.0878,-5.0429l-1.0566 -0.2224 -0.5799 3.2653 -1.8563 -0.5515 2.0295 -3.0555 -4.1249 0.1033 0.34 3.0765 -3.9603 -3.986 1.9877 4.7785c-2.9281,-0.7067 -6.3176,4.1412 -6.785,9.5309l0.1598 0.9413 -1.0248 0.5996 0.2429 3.4643 -3.2834 -0.7461 2.846 -5.4072 -1.8027 0.3954 -0.2924 -2.4593 3.6184 -2.6428 -0.1241 -0.9402 -1.8332 -0.4427c1.1041,-6.4898 1.4945,1.5093 2.3698,-2.8635 -2.6313,-0.6366 -4.3004,1.5391 -4.894,1.3953l-1.3638 0.4359 -3.14 1.9739 -0.5597 2.3818 -2.6358 1.3657 -0.1008 1.4083 1.4667 0.3545 -1.5202 1.5705 0.208 2.4094c0.6296,-1.5878 0.9688,-2.3435 2.327,-2.0143 0.7757,0.1876 0.4682,0.4193 1.4241,1.2021 -0.3426,2.3672 0.0935,3.892 0.9179,4.9505l2.6243 1.8834c0.0643,0.0292 0.1287,0.0579 0.1933,0.0862l-0.0002 0.0524 10.5517 7.5727 10.3362 -7.3691z"/>
   <path id="_151681424_5" class="fil0" d="M118.119 65.0324l-2.1569 -1.3796 0.5704 -10.7747 -7.2794 -2.2712 -2.0317 2.3426c0.2345,3.6985 0.6587,1.658 0.5201,4.418 -0.1144,2.2933 -0.2921,2.2986 -0.5791,4.156l2.6049 -0.448c-0.0809,6.3262 4.836,6.5312 6.0674,5.1231l2.2843 -1.1662z"/>
   <path id="_45434760_6" class="fil2" d="M134.773 53.7707l-3.0347 -0.1485 -0.5445 0.8859 0.2004 1.6714 3.3788 -2.4088zm-4.3144 3.0759l-0.054 -0.0131 -0.0027 0.0535 0.0567 -0.0404z"/>
   <path id="_45463432_7" class="fil5" d="M71.9184 57.3437l0.536 -0.3002 0.0791 6.2362 2.9552 0.8962 0.5597 -2.3818 3.14 -1.9739 1.3638 -0.4359c0.5936,0.1438 2.2627,-2.0319 4.894,-1.3953 -0.8753,4.3728 -1.2657,-3.6263 -2.3698,2.8635l1.8332 0.4427 0.1241 0.9402 -3.6184 2.6428 0.2924 2.4593 1.8027 -0.3954 -2.846 5.4072 3.2834 0.7461 -0.2429 -3.4643 1.0248 -0.5996 -0.1598 -0.9413c0.4674,-5.3897 3.8569,-10.2376 6.785,-9.5309l-1.9877 -4.7785 -0.4639 -2.2545 -7.7001 -0.1945 -9.6731 2.1777 0.3883 3.8342z"/>
   <polygon id="_45842672_8" class="fil4" points="130.402,56.887 130.405,56.8335 130.459,56.8466 131.394,56.1795 131.194,54.5081 131.738,53.6222 116.533,52.8781 115.963,63.6528 118.119,65.0324 118.965,65.0412 "/>
   <path id="_150211888_9" class="fil1" d="M102.285 55.1889l-1.3861 -1.5161 -7.7507 0.103 -0.2125 -2.0522 -4.0321 -0.1973 0.4639 2.2545 3.9603 3.986 -0.34 -3.0765 4.1249 -0.1033 -2.0295 3.0555 1.8563 0.5515 0.5799 -3.2653 1.0566 0.2224c0.9509,0.2303 1.5554,3.6824 3.0878,5.0429l-0.475 2.482 0.1699 0.8884 3.1424 -3.5519 -0.1848 -0.855 -2.2365 0.4849 0.5522 -2.5909 -1.5649 0.5258 1.2179 -2.3884zm-8.2183 -3.4102l1.2892 0.8259 0.6421 -0.7313 -1.9313 -0.0946z"/>
   <polygon id="_47657688_10" class="fil0" points="95.998,51.8733 95.356,52.6046 94.067,51.7787 92.936,51.7236 93.148,53.7758 100.899,53.6728 102.285,55.1889 102.273,52.1805 "/>
   <polygon id="_46615856_11" class="fil1" points="75.7668,43.1539 75.5409,43.602 75.9129,45.2723 78.3645,45.7365 77.4844,47.768 77.7789,47.9881 78.9891,46.5147 80.561,46.597 81.2689,46.0804 "/>
   <path id="_151475384_12" class="fil4" d="M65.6894 53.3828l-0.0089 -0.4707 0.7108 0.4707 1.9583 0 -0.0622 -0.3028 -1.5094 0.2441 1.1774 -1.2586c-1.0235,0.0867 -2.5913,0.5773 -3.7352,1.3173l1.4692 0z"/>
   <path id="_152237160_13" class="fil6" d="M90.744 53.3828c0.0385,-0.5937 0.2359,-0.9653 1.0416,-0.9653 0.7643,0 1.0161,0.2271 1.0349,0.9653l2.1783 0 -4.577 -2.4345 -0.3451 2.4345 0.6673 0z"/>
   <path id="_45842504_14" class="fil5" d="M88.332 53.3828l0 -2.7285 -1.0361 0c-3.4847,0 -3.6012,-2.5844 -8.4996,-2.2985l-1.5158 0.887 0 1.0578 1.0361 0 -0.1877 0.5311 -1.8672 2.2388 0.5178 0.3123 11.5525 0z"/>
   <path id="_150730408_15" class="fil4" d="M92.82 53.3828c-0.0188,-0.7382 -0.2706,-0.9653 -1.0349,-0.9653 -0.8057,0 -1.0031,0.3716 -1.0416,0.9653l2.0765 0z"/>
   <polygon id="_47787224_16" class="fil1" points="114.137,42.854 114.363,43.3021 113.991,44.9724 111.539,45.4366 112.419,47.4681 112.125,47.6882 110.914,46.2148 109.343,46.2971 108.635,45.7805 "/>
   <path id="_46547528_17" class="fil4" d="M124.214 53.0829l0.0089 -0.4707 -0.7108 0.4707 -1.9583 0 0.0622 -0.3028 1.5094 0.2441 -1.1774 -1.2586c0.8382,0.071 2.0412,0.4131 3.0777,0.941l-0.5657 0.3763 -0.246 0z"/>
   <path id="_47578832_18" class="fil6" d="M99.16 53.0829c-0.0385,-0.5937 -0.2359,-0.9653 -1.0416,-0.9653 -0.7643,0 -1.0161,0.2271 -1.0349,0.9653l-2.1783 0 4.577 -2.4345 0.3451 2.4345 -0.6673 0z"/>
   <path id="_148965808_19" class="fil5" d="M101.572 53.0829l0 -2.7285 1.0361 0c3.4847,0 3.6012,-2.5844 8.4996,-2.2985l1.5158 0.887 0 1.0578 -1.0361 0 0.1877 0.5311 1.8672 2.2388 -0.5178 0.3123 -11.5525 0z"/>
   <path id="_149480136_20" class="fil4" d="M97.084 53.0829c0.0188,-0.7382 0.2706,-0.9653 1.0349,-0.9653 0.8057,0 1.0031,0.3716 1.0416,0.9653l-2.0765 0z"/>
   <path id="_150325360_21" class="fil0" d="M71.5692 56.5076l-1.4508 -0.5515 -0.4617 -1.2479 -2.2899 -3.1443c0.2308,1.6274 0.3652,1.7506 1.538,1.9575 0.2204,3.5388 1.9352,4.2497 4.6208,5.4741l0.0745 1.1941 -1.5098 -0.9952 -1.8386 -1.1317 -2.7592 -3.0224 -4.0217 -3.5001c0.3987,-1.7908 -0.375,-0.8155 -1.5683,-3.7508 -0.3279,-0.8071 2.5737,-0.0875 2.5631,-0.5323l0.1109 3.0861c1.0018,1.1696 5.2372,1.1954 6.9536,3.1663l1.8294 2.8153 -1.4754 1.8935 -0.3149 -1.7107z"/>
   <path id="_152243864_22" class="fil7" d="M90.945 85.1388l-18.5166 -15.4026 -1.8469 -0.9098 -5.3989 -8.556 -0.1688 -1.0221c0.2717,-0.6604 0.3577,-0.794 1.7743,0.0749l0.3687 0.225c1.3595,0.8349 3.1011,2.9166 5.5867,4.4414l-1.1189 -1.0721c0.0369,-1.604 0.7191,-1.1773 2.1114,-0.5548l3.2103 4.0488 13.8294 9.0773 0.1693 9.65z"/>
   <path id="_45843744_23" class="fil0" d="M112.366 56.1289l1.4508 -0.5893 0.1452 -2.0746 2.6064 -2.3892c-0.2308,1.6334 -0.3652,1.7601 -1.538,1.9975 -0.2204,3.5446 -1.9352,4.3001 -4.6208,5.5944l-0.0745 1.196 1.5098 -1.0345 1.8386 -1.1795 2.7592 -3.0942 4.0217 -3.6047c-0.3987,-1.7805 0.375,-0.8253 1.5683,-3.7916 0.3279,-0.8157 0.4289,-1.3243 0.4395,-1.7694l-6.2014 3.9654c-1.0018,1.1957 -1.3621,2.4045 -3.0785,4.42l-2.6166 2.2174 -0.0111 0.1857 1.8014 -0.0494z"/>
   <path id="_47404864_24" class="fil0" d="M131.762 51.166l2.1862 -1.0603 -0.3089 4.4912 8.3734 -5.99 0.9185 -0.8654c-0.3234,-1.2261 -0.6975,-0.1437 -0.6259,-1.2886 0.0588,-0.9508 0.236,-1.0831 0.4776,-1.9957l-2.5892 2.0797c-0.0721,-2.4507 -4.9848,1.0777 -6.1798,2.513l-2.2519 2.1161z"/>
   <path id="_46657520_25" class="fil2" d="M121.24 55.5268l5.1177 -1.5648 -0.5514 2.0256 -0.7365 0.4707 0.0663 -1.0557 -0.9805 0.7015 -0.9911 1.5888 -0.3123 -1.0218 -1.8318 0.4218 0.615 1.0934 -1.2409 -0.4285 -1.4726 0.9416 -0.1688 1.0265 -5.3989 8.6964 -1.8439 0.7768 0.1868 1.0942 6.7471 -4.8266 0.5221 -0.7342 -0.3729 -0.7517 1.1044 -0.7061 0.044 -0.7044c-1.3169,0.433 1.3985,-3.2608 1.9937,-3.6417 1.7926,-1.1465 2.0344,-0.2855 2.5107,-0.5907 1.4159,-0.9056 1.8097,-2.2832 2.3401,-3.5249l1.4722 -0.9413c-0.423,-0.6206 -0.3859,0.5261 -0.3019,-0.8204l0.0872 -1.4089 -0.7359 0.4707 -0.0439 0.7039 -1.4724 0.9414 -2.361 -0.319 -0.1721 1.2624 -1.8185 0.825z"/>
   <path id="_150762512_26" class="fil4" d="M128.059 53.8717l-1.4722 0.9413c-0.5304,1.2417 -0.9242,2.6193 -2.3401,3.5249 -0.4763,0.3052 -0.7181,-0.5558 -2.5107,0.5907 -0.5952,0.3809 -3.3106,4.0747 -1.9937,3.6417l-0.044 0.7044 -1.1044 0.7061 0.3729 0.7517 -0.5221 0.7342 15.1949 -10.8698 0.3089 -4.4912 -2.1862 1.0603 -3.7033 2.7057z"/>
   <path id="_45814784_27" class="fil4" d="M110.2 62.0407c1.3923,-0.6587 2.0745,-1.1032 2.1114,0.4999l-1.1189 1.1012c2.4856,-1.5895 4.2272,-3.7165 5.5867,-4.5868l0.3687 -0.2345c1.4166,-0.9058 1.5026,-0.7744 1.7743,-0.1211l1.4726 -0.9416 1.2409 0.4285 -0.615 -1.0934 1.8318 -0.4218 0.3123 1.0218 0.9911 -1.5888 0.9805 -0.7015 -0.0663 1.0557 0.7365 -0.4707 0.5514 -2.0256 -5.1177 1.5648 -8.1197 5.4831 -0.577 -0.9697 0.1976 0.169 1.5599 -2.3493 -0.276 -0.0436 -2.18 1.0129 -1.5098 1.0345 -0.1353 2.177zm0.2098 -3.373c2.6856,-1.2943 4.4004,-2.0498 4.6208,-5.5944 1.1728,-0.2374 1.3072,-0.3641 1.538,-1.9975l-2.6064 2.3892 -0.1452 2.0746 -1.4508 0.5893 -1.8481 1.5891 0.0298 -0.764 -0.0329 0.0207 -0.1052 1.693z"/>
   <path id="_48127120_28" class="fil7" d="M111.697 70.2928l-0.1868 -1.0942 1.8439 -0.7768 5.3989 -8.6964 0.1688 -1.0265c-0.2717,-0.6533 -0.3577,-0.7847 -1.7743,0.1211l-0.3687 0.2345c-1.3595,0.8703 -3.1011,2.9973 -5.5867,4.5868l1.1189 -1.1012c-0.0369,-1.6031 -0.7191,-1.1586 -2.1114,-0.4999l-2.3699 4.5924 0.3364 6.1861 3.5309 -2.5259z"/>
  </g>
  <polygon id="_152232336" class="fil8 str0" points="79.2056,68.546 113.592,86.8354 146.157,68.7873 159.821,74.4088 108.555,108.509 60.9875,76.6714 "/>
  <polygon id="_48378640" class="fil9 str1" points="147.522,58.5245 146.598,59.0088 146.266,59.3109 124.446,70.4905 105.893,71.9458 79.1167,59.2725 79.1154,59.1385 78.2134,58.7081 59.6944,65.6475 20.9164,42.18 111.007,20.9417 197.891,40.865 161.724,63.5377 "/>
  <path id="_48375680" class="fil3" d="M60.6439 66.2759c0.1477,0.1192 0.2983,0.2777 0.5711,0.4644l1.0361 0c0.5341,-2.0427 0.4922,-0.3866 2.0722,-1.4112l-0.9701 -0.1001 -2.7093 1.0469z"/>
  <path id="_46943664" class="fil5" d="M63.3532 65.229l0.9701 0.1001 0.6906 0 0 -0.7418 -1.6607 0.6417zm2.4785 -0.9577l0.2184 0 -0.0012 -0.0839 -0.2172 0.0839zm1.5053 -0.5817l2.4451 0.6576 2.139 2.3931 -0.739 0.0164 0.739 2.4534c0.9614,-0.6575 1.1937,-1.4109 2.7628,-1.4109l3.4536 0 0 -2.4701c0,-1.3484 -0.106,-0.128 0.3454,-1.0578l-0.6907 0 0.0158 -0.6441 -1.3278 0.3334 1.0254 -1.6042 1.6912 -0.5137 0 -2.8958 -0.0232 0.0325c-0.1241,0.5295 -0.0759,1.0589 -0.6907,1.0589 -0.7453,0 -0.6807,-0.1624 -0.7823,-0.3531l-10.3636 4.0044z"/>
  <path id="_45561136" class="fil4" d="M77.701 59.685c0.1017,0.1907 0.0364,0.3533 0.7819,0.3533 0.6148,0 0.5666,-0.5294 0.6907,-1.0589l0.0232 -0.0325 0 -0.0898 -0.0814 0.2814 -1.4144 0.5465zm1.4958 2.1577l-1.6912 0.5137 -1.0254 1.6042 1.3278 -0.3334 -0.0158 0.6441 0.6907 0c-0.4514,0.9298 -0.3454,-0.2906 -0.3454,1.0578l0 2.4701 -3.4536 0c-1.5691,0 -1.8014,0.7534 -2.7628,1.4109l-0.739 -2.4534 0.739 -0.0164 -2.139 -2.3931 -2.4451 -0.6576 -1.2881 0.4978 0.0012 0.0839 -0.2184 0 -0.8178 0.316 0 0.7418 -0.6906 0c-1.58,1.0246 -1.5381,-0.6315 -2.0722,1.4112 -0.1303,1.5997 -1.0361,2.761 -1.0361,3.5284 0,3.3618 5.3303,-2.0639 5.4397,-2.1033l0.4314 2.8082c5.3004,0 5.8591,-2.4216 7.7924,-2.2874l1.1993 0.8795 -0.3578 1.761 -4.1443 0 0 0.7058 -1.3814 0c-2.1142,0 -4.6091,0.5043 -5.1804,2.1169l4.502 0.012 -1.3499 1.8653 2.3737 -0.8193 0 0.7052 0.6612 -0.0187 0.4321 -0.7481 -1.2347 -1.1975 0.1844 -0.3203 2.7966 0.9515 -1.4582 1.3331 0 1.0592 4.835 -1.0592 -0.0072 -1.0388 1.001 0.32 0.3876 -1.3973 -1.3814 0 0 -0.7057 1.0361 0 0 -1.0583 0.6907 0c0.2151,0.8229 1.1868,2.8221 2.0721,2.8221 0.3256,0 1.7831,-0.8254 2.7628,-1.0581l0 0.7052 0.9343 0.099 -1.9703 4.1343c-0.2271,-0.8692 -2.6607,-2.469 -2.7628,-2.469 -0.9726,0 -0.6395,0.1523 -1.0361,0.7058 1.5576,0.1316 3.7989,2.6511 3.7989,3.5272 0,0.5685 -0.9882,1.71 -1.3814,2.469l1.036 0 0 -0.7052 1.3814 0c1.3205,0 0.1257,-0.1085 0.9868,0.3523l0 -1.0583 0.3948 0 -0.0095 -0.6547 -1.0167 -0.3431 2.7717 -0.4053 0.3244 -1.0371 2.0743 -0.0287c0.3993,0.0312 2.5929,0.8535 3.4536,1.058l0 -0.7052 0.6907 0c-0.7068,-3.1002 -1.6538,-2.8952 -2.7629,-4.5861l0.9633 0.0648 -5.834 -3.103c-0.5896,0.7963 -1.0241,1.7392 -1.3457,1.9801l0 -0.7057 -0.6908 0 0 -1.7641 0.9756 0.0165 -0.0206 -0.102 -5.0672 -2.6952 0.2084 -0.0744 -0.2172 0 0 -6.6289z"/>
  <path id="_45843792" class="fil5" d="M84.2728 71.2412l0.0206 0.102 -0.9756 -0.0165 0 1.7641 0.6908 0 0 0.7057c0.3216,-0.2409 0.7561,-1.1838 1.3457,-1.9801l-1.0815 -0.5752z"/>
  <path id="_45843768" class="fil2" d="M60.3746 72.4984c1.2406,1.8086 2.3956,4.0777 2.9125,5.1783 -0.1807,0.043 -0.3593,0.1009 -0.5341,0.1691l5.9399 3.951 4.0107 -3.1042 -0.7825 -1.7208 0 -1.0592 1.4582 -1.3331 -2.7966 -0.9515 -0.1844 0.3203 1.2347 1.1975 -0.4321 0.7481 -0.6612 0.0187 0 -0.7052 -2.3737 0.8193 1.3499 -1.8653 -4.502 -0.012c0.5713,-1.6126 3.0662,-2.1169 5.1804,-2.1169l1.3814 0 0 -0.7058 4.1443 0 0.3578 -1.761 -1.1993 -0.8795c-1.9333,-0.1342 -2.492,2.2874 -7.7924,2.2874l-0.4314 -2.8082c-0.1094,0.0394 -5.4397,5.4651 -5.4397,2.1033 0,-0.7674 0.9058,-1.9287 1.0361,-3.5284l-1.0361 0c-0.273,-0.1868 -0.4236,-0.3451 -0.5714,-0.4643l-0.9048 0.3496 -0.2813 -0.3717 0.9171 6.2445z"/>
  <path id="_150326608" class="fil4" d="M62.7536 77.8461c0.1746,-0.0681 0.353,-0.1264 0.5335,-0.1694 -0.5169,-1.1006 -1.6718,-3.3691 -2.9124,-5.1777l0.6128 4.1724 1.7661 1.1747z"/>
  <path id="_45809064" class="fil7" d="M71.9211 76.9718l0.7825 1.7208 -4.0107 3.1042 6.9245 4.606 6.3816 0c1.1439,-0.7402 2.7127,-1.2306 3.7364,-1.3173l-1.1774 1.2586 1.5094 -0.2441 0.0622 0.3028 8.4294 0 -0.5178 -0.3123 1.8672 -2.2388 0.1877 -0.5311 -1.0361 0 0 -1.0578 1.5158 -0.887c4.8984,-0.2859 5.0149,2.2985 8.4996,2.2985l1.0361 0 0 2.7285 1.7446 0 0.3451 -2.4345 -9.1523 -4.8679 -0.7079 0.5166 -1.5719 -0.0823 -1.2102 1.4734 -0.2945 -0.2201 0.8801 -2.0315 -2.4516 -0.4642 -0.372 -1.6703 0.2259 -0.4481 -2.3585 -1.2545 -0.9633 -0.0648c1.1091,1.6909 2.0561,1.4859 2.7629,4.5861l-0.6907 0 0 0.7052c-0.8607,-0.2045 -3.0543,-1.0268 -3.4536,-1.058l-2.0743 0.0287 -0.3244 1.0371 -2.7717 0.4053 1.0167 0.3431 0.0095 0.6547 -0.3948 0 0 1.0583c-0.8611,-0.4608 0.3337,-0.3523 -0.9868,-0.3523l-1.3814 0 0 0.7052 -1.036 0c0.3932,-0.759 1.3814,-1.9005 1.3814,-2.469 0,-0.8761 -2.2413,-3.3956 -3.7989,-3.5272 0.3966,-0.5535 0.0635,-0.7058 1.0361,-0.7058 0.1021,0 2.5357,1.5998 2.7628,2.469l1.9703 -4.1343 -0.9343 -0.099 0 -0.7052c-0.9797,0.2327 -2.4372,1.0581 -2.7628,1.0581 -0.8853,0 -1.857,-1.9992 -2.0721,-2.8221l-0.6907 0 0 1.0583 -1.0361 0 0 0.7057 1.3814 0 -0.3876 1.3973 -1.001 -0.32 0.0072 1.0388 -4.835 1.0592zm12.2502 9.431l-0.7108 -0.4707 0.0089 0.4707 0.7019 0z"/>
  <path id="_151681712" class="fil3" d="M161.48 65.2225c-0.1041,-0.0502 -0.2172,-0.1138 -0.3398,-0.1933l0.3818 -0.0394 -0.042 0.2327z"/>
  <path id="_47602544" class="fil5" d="M161.724 64.9687l-0.1692 -0.162 -0.0331 0.1831 -0.3818 0.0394 -0.6906 0 0 -0.7418 1.2747 0.4925 0 0.1888zm-2.0925 -0.9973l-0.2184 0 0.0012 -0.0839 0.2172 0.0839zm-1.5053 -0.5817l-2.4451 0.6576 -2.139 2.3931 0.739 0.0164 -0.739 2.4534c-0.9614,-0.6575 -1.1937,-1.4109 -2.7628,-1.4109l-3.4536 0 0 -2.4701c0,-1.3484 0.106,-0.128 -0.3454,-1.0578l0.6907 0 -0.0158 -0.6441 1.3278 0.3334 -1.0254 -1.6042 -1.6912 -0.5137 0 -2.8958 0.0232 0.0325c0.1241,0.5295 0.0759,1.0589 0.6907,1.0589 0.7453,0 0.6807,-0.1624 0.7823,-0.3531l10.3636 4.0044z"/>
  <path id="_47297824" class="fil4" d="M147.762 59.3851c-0.1017,0.1907 -0.0364,0.3533 -0.7819,0.3533 -0.6148,0 -0.5666,-0.5294 -0.6907,-1.0589l-0.0232 -0.0325 0 -0.0898 0.0814 0.2814 1.4144 0.5465zm-1.4958 2.1577l1.6912 0.5137 1.0254 1.6042 -1.3278 -0.3334 0.0158 0.6441 -0.6907 0c0.4514,0.9298 0.3454,-0.2906 0.3454,1.0578l0 2.4701 3.4536 0c1.5691,0 1.8014,0.7534 2.7628,1.4109l0.739 -2.4534 -0.739 -0.0164 2.139 -2.3931 2.4451 -0.6576 1.2881 0.4978 -0.0012 0.0839 0.2184 0 0.8178 0.316 0 0.7418 0.6906 0c0.1228,0.0796 0.2357,0.1428 0.3399,0.193l-0.779 4.3127c-1.0086,-0.8152 -1.8495,-1.654 -1.8923,-1.6694l-0.4314 2.8082c-5.3004,0 -5.8591,-2.4216 -7.7924,-2.2874l-1.1993 0.8795 0.3578 1.761 4.1443 0 0 0.7058 1.3814 0c1.7812,0 3.8321,0.3576 4.7758,1.4347l-0.1234 0.6836 -3.974 0.0106 1.3499 1.8653 -2.3737 -0.8193 0 0.7052 -0.6612 -0.0187 -0.4321 -0.7481 1.2347 -1.1975 -0.1844 -0.3203 -2.7966 0.9515 1.4582 1.3331 0 1.0592 -4.835 -1.0592 0.0072 -1.0388 -1.001 0.32 -0.3876 -1.3973 1.3814 0 0 -0.7057 -1.0361 0 0 -1.0583 -0.6907 0c-0.2151,0.8229 -1.1868,2.8221 -2.0721,2.8221 -0.3256,0 -1.7831,-0.8254 -2.7628,-1.0581l0 0.7052 -0.9343 0.099 1.9703 4.1343c0.2271,-0.8692 2.6607,-2.469 2.7628,-2.469 0.9726,0 0.6395,0.1523 1.0361,0.7058 -1.5576,0.1316 -3.7989,2.6511 -3.7989,3.5272 0,0.5685 0.9882,1.71 1.3814,2.469l-1.036 0 0 -0.7052 -1.3814 0c-1.3205,0 -0.1257,-0.1085 -0.9868,0.3523l0 -1.0583 -0.3948 0 0.0095 -0.6547 1.0167 -0.3431 -2.7717 -0.4053 -0.3244 -1.0371 -2.0743 -0.0287c-0.3993,0.0312 -2.5929,0.8535 -3.4536,1.058l0 -0.7052 -0.6907 0c0.7068,-3.1002 1.6538,-2.8952 2.7629,-4.5861l-0.9633 0.0648 5.834 -3.103c0.5896,0.7963 1.0241,1.7392 1.3457,1.9801l0 -0.7057 0.6908 0 0 -1.7641 -0.9756 0.0165 0.0206 -0.102 5.0672 -2.6952 -0.2084 -0.0744 0.2172 0 0 -6.6289z"/>
  <path id="_47749320" class="fil5" d="M141.191 70.9413l-0.0206 0.102 0.9756 -0.0165 0 1.7641 -0.6908 0 0 0.7057c-0.3216,-0.2409 -0.7561,-1.1838 -1.3457,-1.9801l1.0815 -0.5752z"/>
  <path id="_151674304" class="fil2" d="M153.255 78.776l-0.4953 -0.3833 0.7825 -1.7208 0 -1.0592 -1.4582 -1.3331 2.7966 -0.9515 0.1844 0.3203 -1.2347 1.1975 0.4321 0.7481 0.6612 0.0187 0 -0.7052 2.3737 0.8193 -1.3499 -1.8653 3.974 -0.0106 -0.1008 0.5579 -6.5656 4.3672zm6.7899 -5.6091c-0.9439,-1.0767 -2.995,-1.4343 -4.7759,-1.4343l-1.3814 0 0 -0.7058 -4.1443 0 -0.3578 -1.761 1.1993 -0.8795c1.9333,-0.1342 2.492,2.2874 7.7924,2.2874l0.4314 -2.8082c0.0428,0.0154 0.884,0.8545 1.8923,1.6695l-0.656 3.6319z"/>
  <path id="_151454072" class="fil7" d="M153.542 76.6719l-0.7825 1.7208 0.4953 0.3833 -10.4483 6.9499c-1.0367,-0.5278 -2.2406,-0.8693 -3.0788,-0.9403l1.1774 1.2586 -1.5094 -0.2441 -0.0622 0.3028 -8.4294 0 0.5178 -0.3123 -1.8672 -2.2388 -0.1877 -0.5311 1.0361 0 0 -1.0578 -1.5158 -0.887c-4.8984,-0.2859 -5.0149,2.2985 -8.4996,2.2985l-1.0361 0 0 2.7285 -1.7445 0 -0.3451 -2.4345 9.1522 -4.8679 0.7079 0.5166 1.5719 -0.0823 1.2102 1.4734 0.2945 -0.2201 -0.8801 -2.0315 2.4516 -0.4642 0.372 -1.6703 -0.2259 -0.4481 2.3585 -1.2545 0.9633 -0.0648c-1.1091,1.6909 -2.0561,1.4859 -2.7629,4.5861l0.6907 0 0 0.7052c0.8607,-0.2045 3.0543,-1.0268 3.4536,-1.058l2.0743 0.0287 0.3244 1.0371 2.7717 0.4053 -1.0167 0.3431 -0.0095 0.6547 0.3948 0 0 1.0583c0.8611,-0.4608 -0.3337,-0.3523 0.9868,-0.3523l1.3814 0 0 0.7052 1.036 0c-0.3932,-0.759 -1.3814,-1.9005 -1.3814,-2.469 0,-0.8761 2.2413,-3.3956 3.7989,-3.5272 -0.3966,-0.5535 -0.0635,-0.7058 -1.0361,-0.7058 -0.1021,0 -2.5357,1.5998 -2.7628,2.469l-1.9703 -4.1343 0.9343 -0.099 0 -0.7052c0.9797,0.2327 2.4372,1.0581 2.7628,1.0581 0.8853,0 1.857,-1.9992 2.0721,-2.8221l0.6907 0 0 1.0583 1.0361 0 0 0.7057 -1.3814 0 0.3876 1.3973 1.001 -0.32 -0.0072 1.0388 4.835 1.0592zm-12.2502 9.431l0.7108 -0.4707 -0.0089 0.4707 -0.7019 0z"/>
  <path id="_45808584" class="fil5" d="M63.5439 76.1121c-0.0015,0.4526 0.738,0.1993 0.7813,1.1287l1.7762 -3.6724 -2.8122 0.0092 -3.9749 -5.8528 -32.7448 -21.2981 34.0912 20.7615 2.8832 8.9239z"/>
  <path id="_151454552" class="fil4" d="M90.9454 86.2299l0.0725 1.1654 -0.8346 -0.6961 0.8009 1.6013 -3.2217 -2.234 1.3455 -0.4048c-0.524,-0.6438 -0.9885,-1.0633 -1.39,-1.4115l3.2274 1.9797zm-20.1405 -12.3538l-0.1234 0.1439 -0.7493 -0.4622 0.035 -0.196 0.8377 0.5143z"/>
  <path id="_45857344" class="fil0" d="M24.9766 50.7191l-1.6897 -3.0044 0.2618 0.4769 5.7702 1.5359 -0.0689 -0.5949 -0.9452 -1.3251 2.6095 1.6001c0.0662,0.8397 0.2382,0.9943 0.4688,1.8608l0.6402 0.3536 0.7307 -0.8675 -0.1572 2.9478c-2.2888,-1.2282 -4.4314,-2.1644 -3.8958,-0.0223 -0.973,-0.3798 -0.6717,-0.0745 -1.4505,-0.5522 -1.3636,-0.8361 -1.6839,-1.3622 -2.2739,-2.4087z"/>
  <polygon id="_151802440" class="fil1" points="28.3048,47.8075 29.25,49.1326 29.3189,49.7275 23.5487,48.1916 23.2869,47.7147 24.9766,50.7191 24.7107,51.4842 26.1901,53.1542 24.7176,52.2509 24.7842,52.8555 27.382,55.237 25.6405,54.2317 24.181,55.7911 23.6533,55.2983 20.9878,43.5804 20.9709,43.3086 "/>
  <path id="_152234800" class="fil2" d="M59.3143 67.7248c-1.7144,-1.0175 -2.0835,-1.1546 -1.3979,0.4465l-1.0694 -0.2699 1.3934 0.8741 0.4044 1.488 -2.8969 2.0281 0.4772 2.6665 -2.9454 -1.8061 -0.1869 -0.9857 -3.082 -0.3432c0.1779,-0.7976 0.3268,-0.4375 0.2807,-1.1806 -0.0306,-0.4933 -0.5456,-1.0115 -1.148,-1.381l-1.4723 -0.9029 0.0435 0.7032 -1.8403 -1.1292c0.9214,-0.6919 3.2551,-0.3699 5.7157,1.1318l-0.2817 0.8487 1.6907 1.2108 1.3195 1.6502c-0.3234,-5.1933 -2.3031,-6.8619 -4.2511,-11.0751l0.3296 -0.3408 8.3709 5.1345 0.5463 1.2321z"/>
  <path id="_151681520" class="fil3" d="M91.2004 90.3253l-0.0329 -0.0199 0.0298 0.7633 -1.8481 -1.5411 1.8014 0.0026 0.0498 0.7951zm-0.0609 -0.9805l-2.6166 -2.1494c-1.7157,-1.9702 -4.3615,-1.6473 -5.3626,-2.8162l4.557 -0.1291c0.4015,0.3482 0.8667,0.7678 1.3907,1.4116l-1.4721 -0.9034 3.3483 3.5422 -0.8009 -1.6013 0.8346 0.6961 0.1216 1.9495zm-17.5647 -9.405c0.0106,0.4444 5.7799,0.0625 6.1077,0.8696 1.1933,2.9353 1.967,1.96 1.5683,3.7508l4.0217 3.5001 2.7592 3.0224 1.8386 1.1317 -2.18 -0.9562 -0.276 0.0508 1.5599 2.3087 0.1976 -0.1741 -0.577 0.9847 -8.1197 -5.2719 -1.8185 -0.7777 -0.1721 -1.2579 -2.361 0.3804 -1.4724 -0.9031 -0.0439 -0.7027 -0.7359 -0.4516 0.0872 1.4067c0.084,1.3443 0.1211,0.1966 -0.3019,0.8282l-3.7033 -2.6093 -2.2519 -2.0576 1.9379 1.1758 -0.6538 -3.4628 4.1061 3.5641c-0.2823,-1.9882 -4.3292,-8.1771 -5.153,-8.6445l-3.1966 -1.5135 0.8737 -1.8646 1.7469 -1.5448 -1.2612 2.8469 2.4115 0.8805c-0.0433,-0.9293 -0.0629,-1.5643 -0.0608,-2.0165l1.5151 0.9294 1.9108 2.6917 4.6409 3.6347 -5.714 -5.8121 2.7699 6.0637z"/>
  <path id="_151682288" class="fil4" d="M50.3971 61.3582l-0.3296 0.3408c1.948,4.2132 3.9277,5.8818 4.2511,11.0751l-1.3195 -1.6502 -1.6907 -1.2108 0.2817 -0.8487c-2.4606,-1.5017 -4.7943,-1.8237 -5.7157,-1.1318l1.8403 1.1292 -0.0435 -0.7032 1.4723 0.9029c0.6024,0.3695 1.1174,0.8877 1.148,1.381 0.0461,0.7431 -0.1028,0.383 -0.2807,1.1806l3.082 0.3432 0.1869 0.9857 2.9454 1.8061 -0.4772 -2.6665 2.8969 -2.0281 -0.4044 -1.488 -1.3934 -0.8741 1.0694 0.2699c-0.6856,-1.6011 0.2445,-1.4654 1.9589,-0.4479l0.7008 5.6381 0.4114 3.3099 2.2663 1.5168c0.8238,0.4674 9.5555,4.1125 9.8378,6.1007l-4.1061 -3.5641 0.6538 3.4628 -1.9379 -1.1758c-1.195,-1.4042 -6.1077,-4.8048 -6.1798,-2.3522l-2.5892 -2.0123c0.2416,0.9063 0.4188,1.034 0.4776,1.9833 0.0716,1.143 -0.3025,0.0703 -0.6259,1.3048l0.9185 0.8415 -5.675 -4.1729 -0.117 -1.0088 -1.1578 -1.7658 1.5492 1.306 -0.4885 -1.3715 2.2205 1.7656 0.2052 -0.193 -3.0507 -3.5678 -0.191 0.2162 0.4141 1.2758c-1.5623,-0.5688 -2.2492,0.3105 -3.2039,-0.2749l-1.06 -0.6633 -0.4999 -1.6466 -1.8662 -1.1043 1.9519 2.5926 -4.1147 -2.957 0.4137 -0.9244 -4.0492 -1.2922 2.0995 -0.4033c-2.9397,-1.8037 -6.2057,-6.037 -6.542,-8.4084l0.1823 -0.2433 -1.0084 -0.952 0.3262 -1.1399 -3.2953 -2.0401 2.71 4.0606 -1.7898 -1.425 -0.3513 0.7244 3.5478 3.5603 -0.1466 0.2682 -1.8405 -1.1292c0.9452,3.2383 1.5282,0.4857 2.2962,2.7606 -2.6418,-1.6203 -4.2552,-3.6249 -4.8512,-3.9904l-1.3507 -1.1297 -3.0864 -2.9686 -0.5011 -1.2978 -2.5978 -2.3815 -0.0666 -0.6046 1.4725 0.9033 -1.4794 -1.67 0.2659 -0.7651c0.59,1.0465 0.9103,1.5726 2.2739,2.4087 0.7788,0.4777 0.4775,0.1724 1.4505,0.5522 -0.5356,-2.1421 1.607,-1.2059 3.8958,0.0223l0.1572 -2.9478 -0.7307 0.8675 -0.6402 -0.3536c-0.2306,-0.8665 -0.4021,-1.0211 -0.4687,-1.8602l19.4827 11.95z"/>
  <path id="_150760016" class="fil0" d="M69.9533 85.0694l-2.1862 -1.0035 0.3089 4.4832 -8.3734 -5.7722 -0.9185 -0.8415c0.3234,-1.2345 0.6975,-0.1618 0.6259,-1.3048 -0.0588,-0.9493 -0.236,-1.077 -0.4776,-1.9833l2.5892 2.0123c0.0721,-2.4526 4.9848,0.948 6.1798,2.3522l2.2519 2.0576z"/>
  <path id="_152237832" class="fil2" d="M80.4751 89.1564l-5.1177 -1.4316 0.5514 2.0112 0.7365 0.4516 -0.0663 -1.054 0.9805 0.676 0.9911 1.563 0.3123 -1.0299 1.8318 0.3741 -0.615 1.1094 1.2409 -0.4608 1.4726 0.9033 0.1688 1.0221 5.3989 8.556 1.8439 0.7288 18.5196 15.5837 -22.2038 -16.0574 -4.6932 -3.394 1.2943 -1.1663 -1.1044 -0.6774 -0.044 -0.7033c1.3169,0.3988 -1.3985,-3.2244 -1.9937,-3.5898 -1.7926,-1.0999 -2.0344,-0.2326 -2.5107,-0.5254 -1.4159,-0.8687 -1.8097,-2.2361 -2.3401,-3.464l-1.4722 -0.903c0.423,-0.6316 0.3859,0.5161 0.3019,-0.8282l-0.0872 -1.4067 0.7359 0.4516 0.0439 0.7027 1.4724 0.9031 2.361 -0.3804 0.1721 1.2579 1.8185 0.7777z"/>
  <path id="_45394208" class="fil5" d="M23.6533 55.2983l0.5277 0.4928 1.4595 -1.5594 1.7415 1.0053 0.5011 1.2978 3.0864 2.9686 1.3507 1.1297c0.596,0.3655 2.2094,2.3701 4.8512,3.9904 -0.768,-2.2749 -1.351,0.4777 -2.2962,-2.7606l1.8405 1.1292 0.1466 -0.2682 -3.5478 -3.5603 0.3513 -0.7244 1.7898 1.425 -2.71 -4.0606 3.2953 2.0401 -0.3262 1.1399 1.0084 0.952 -0.1823 0.2433c0.3363,2.3714 3.6023,6.6047 6.542,8.4084l-2.0995 0.4033 -0.1034 0.105 -16.8619 -12.194 0 0 -0.3647 -1.6033z"/>
  <path id="_48377920" class="fil4" d="M73.6566 87.6787l1.4722 0.903c0.5304,1.2279 0.9242,2.5953 2.3401,3.464 0.4763,0.2928 0.7181,-0.5745 2.5107,0.5254 0.5952,0.3654 3.3106,3.9886 1.9937,3.5898l0.044 0.7033 1.1044 0.6774 -0.7422 1.5655 -2.7293 -1.9736 -17.1729 -12.444 5.2898 -0.6236 2.1862 1.0035 3.7033 2.6093z"/>
  <path id="_150419184" class="fil4" d="M91.5154 95.3831c-1.3923,-0.6225 -2.0745,-1.0492 -2.1114,0.5548l1.1189 1.0721c-2.4856,-1.5248 -4.2272,-3.6065 -5.5867,-4.4414l-0.3687 -0.225c-1.4166,-0.8689 -1.5026,-0.7353 -1.7743,-0.0749l-1.4726 -0.9033 -1.2409 0.4608 0.615 -1.1094 -1.8318 -0.3741 -0.3123 1.0299 -0.9911 -1.563 -0.9805 -0.676 0.0663 1.054 -0.7365 -0.4516 -0.5514 -2.0112 5.1177 1.4316 8.1197 5.2719 0.577 -0.9847 -0.1976 0.1741 -1.5599 -2.3087 0.276 -0.0508 2.18 0.9562 1.5098 0.9952 0.1353 2.1735zm-0.2098 -3.3676c-2.6856,-1.2244 -4.4004,-1.9353 -4.6208,-5.4741 -1.1728,-0.2069 -1.3072,-0.3301 -1.538,-1.9575l2.6064 2.3214 0.1452 2.0708 1.4508 0.5515 1.8481 1.5411 -0.0298 -0.7633 0.0329 0.0199 0.1052 1.6902z"/>
  <path id="_150157352" class="fil1" d="M53.9106 77.5952l-1.42 -0.4064 -7.7338 -5.5219 -0.0745 0.1785 -3.8024 -2.7498 0.1034 -0.105 4.0492 1.2922 -0.4137 0.9244 4.1147 2.957 -1.9519 -2.5926 1.8662 1.1043 0.4999 1.6466 1.06 0.6633c0.9547,0.5854 1.6416,-0.2939 3.2039,0.2749l-0.4141 -1.2758 0.191 -0.2162 3.0507 3.5678 -0.2052 0.193 -2.2205 -1.7656 0.4885 1.3715 -1.5492 -1.306 1.1578 1.7658zm-7.73 -4.6672l0.7749 0.5605 0.7125 0.5161 -1.4874 -1.0766z"/>
  <polygon id="_148696464" class="fil0" points="47.668,74.0046 46.9555,73.4885 45.8584,72.6959 44.6823,71.8454 44.7568,71.6669 52.4906,77.1888 53.9106,77.5952 54.0276,78.6039 "/>
  <polygon id="_150761936" class="fil8 str0" points="20.9486,43.3618 59.7388,66.6256 60.9875,76.6714 108.555,108.509 108.725,118.159 24.018,56.9016 "/>
  <polygon id="_151674688" class="fil8 str0" points="59.7388,66.6256 79.1154,59.1385 79.2056,68.546 60.9875,76.6714 "/>
  <polygon id="_152232728" class="fil9 str2" points="20.9164,42.18 59.6944,65.6475 78.2134,58.7081 79.1154,59.1385 59.7388,66.6256 20.9486,43.3618 "/>
  <polygon id="_45843520" class="fil10 str3" points="146.598,59.0088 161.555,64.8067 198.572,41.1216 197.891,40.865 161.724,63.5377 147.522,58.5245 "/>
  <path id="_47406120" class="fil5" d="M151.045 71.5095c0.0015,0.4526 -0.0189,1.0881 -0.0622,2.0186l2.4115 -0.9433 0.4857 -1.3147 6.3014 -4.7054 0.5463 -1.2464 -9.6827 6.1912z"/>
  <path id="_45772304" class="fil4" d="M128.55 85.8927l-0.0725 1.1673 0.8346 -0.7178 -0.8009 1.6221 3.3483 -3.6293 -1.4721 0.9417c0.524,-0.6575 0.9885,-1.089 1.39,-1.4477l-3.2274 2.0637zm20.1405 -12.8778l0.1234 0.1407 0.7493 -0.4817 1.3186 5.3039 -2.1913 -4.9629z"/>
  <path id="_148575208" class="fil0" d="M194.519 48.6656l1.6897 -3.0483 -0.2618 0.4837 -5.7702 1.686 0.0689 -0.5967 0.9452 -1.3497 -2.6095 1.668c-0.0662,0.8414 -0.2382,1.0005 -0.4688,1.873l-0.6402 0.3702 -0.7307 -0.8484 0.1572 2.9438c2.2888,-1.2879 4.4314,-2.2798 3.8958,-0.1237 0.973,-0.4051 0.6717,-0.092 1.4505,-0.59 1.3636,-0.8716 1.6839,-1.406 2.2739,-2.4679z"/>
  <polygon id="_151996016" class="fil1" points="191.191,45.8406 190.246,47.1903 190.177,47.787 195.947,46.101 196.209,45.6173 194.519,48.6656 194.785,49.4238 193.305,51.1323 194.778,50.1907 194.711,50.797 192.114,53.2461 193.855,52.1956 195.315,53.7169 195.842,53.2104 198.508,41.4231 198.525,41.1509 "/>
  <path id="_47787112" class="fil2" d="M160.181 66.5647c1.7144,-1.0621 2.0835,-1.2088 1.3979,0.4101l1.0694 -0.2977 -1.3934 0.9103 -0.4044 1.4985 2.8969 1.9528 -0.4772 2.6789 2.9454 -1.8827 0.187 -0.9906 3.082 -0.4234c-0.1779,-0.793 -0.3268,-0.429 -0.2807,-1.1733 0.0306,-0.4941 0.5456,-1.0257 1.148,-1.4109l1.4723 -0.9412 -0.0435 0.7044 1.8403 -1.1771c-0.9214,-0.6679 -3.2551,-0.2852 -5.7157,1.2805l0.2817 0.8414 -1.6907 1.2548 -1.3196 1.6845c0.3234,-5.2017 2.3032,-6.9218 4.2512,-11.1857l-0.3296 -0.3322 -8.371 5.3522 -0.5463 1.2464z"/>
  <path id="_152232672" class="fil3" d="M128.295 89.9947l0.0329 -0.0207 -0.0298 0.764 1.8481 -1.5891 -1.8014 0.0494 -0.0498 0.7964zm0.0609 -0.9821l2.6166 -2.2174c1.7157,-2.0149 2.0773,-3.2242 3.0784,-4.4192l-2.2728 1.4529c-0.4015,0.3586 -0.8667,0.7903 -1.3907,1.4478l1.4721 -0.9417 -3.3483 3.6293 0.8009 -1.6221 -0.8346 0.7178 -0.1216 1.9526zm11.8965 -10.6028c-0.0106,0.4446 -0.1117,0.9537 -0.4395,1.7694 -1.1933,2.9663 -1.967,2.0111 -1.5683,3.7916l-4.0217 3.6047 -2.7592 3.0942 -1.8386 1.1795 2.18 -1.0129 0.276 0.0436 -1.5599 2.3493 -0.1976 -0.169 0.577 0.9697 8.1197 -5.4831 1.8185 -0.825 0.1721 -1.2624 2.361 0.319 1.4724 -0.9414 0.0439 -0.7039 0.7359 -0.4707 -0.0872 1.4089c-0.084,1.3465 -0.1211,0.1998 0.3019,0.8204l3.7033 -2.7057 2.2519 -2.1161 -1.9379 1.2262 0.6538 -3.4798 -4.1061 3.6709c0.2823,-1.9956 4.3292,-8.2897 5.153,-8.7786l3.1966 -1.5966 -0.8737 -1.8419 -1.7469 -1.4994 1.2612 2.8141 -2.4115 0.9433c0.0433,-0.9305 0.0629,-1.566 0.0608,-2.0181l-1.5151 0.9688 0.035 0.1951 -0.7493 0.4817 -6.0454 10.9419 -2.5161 -5.6877z"/>
  <path id="_152231152" class="fil4" d="M169.099 59.9661l0.3296 0.3322c-1.948,4.2639 -3.9278,5.984 -4.2512,11.1857l1.3196 -1.6845 1.6907 -1.2548 -0.2817 -0.8414c2.4606,-1.5657 4.7943,-1.9484 5.7157,-1.2805l-1.8403 1.1771 0.0435 -0.7044 -1.4723 0.9412c-0.6024,0.3852 -1.1174,0.9168 -1.148,1.4109 -0.0461,0.7443 0.1028,0.3803 0.2807,1.1733l-3.082 0.4234 -0.187 0.9906 -2.9454 1.8827 0.4772 -2.6789 -2.8969 -1.9528 0.4044 -1.4985 1.3934 -0.9103 -1.0694 0.2977c0.6856,-1.6189 0.3165,-1.4722 -1.3979,-0.4101l-6.3014 4.7054 0.8737 1.8419 -3.1966 1.5966c-0.8238,0.4889 -4.8707,6.783 -5.153,8.7786l4.1061 -3.6709 -0.6538 3.4798 1.9379 -1.2262c1.195,-1.4353 6.1077,-4.9637 6.1798,-2.513l2.5892 -2.0797c-0.2416,0.9126 -0.4188,1.0449 -0.4776,1.9957 -0.0716,1.1449 0.3025,0.0625 0.6259,1.2886l-0.9185 0.8654 5.8764 -4.2038 -0.0844 -1.1286 1.1579 -1.796 -1.5493 1.3464 0.4885 -1.3843 -2.2205 1.8234 -0.2052 -0.1876 3.0507 -3.6472 0.1911 0.2112 -0.4142 1.2866c1.5624,-0.6095 2.2493,0.252 3.204,-0.3583l1.06 -0.6908 0.4999 -1.6596 1.8662 -1.1529 -1.9519 2.6434 4.1147 -3.0641 -0.4137 -0.9136 4.0492 -1.3976 -2.0995 -0.3486c2.9397,-1.8802 6.2056,-6.1985 6.5419,-8.5786l-0.1823 -0.2386 1.0084 -0.9782 -0.3262 -1.1314 3.2953 -2.1259 -2.71 4.1311 1.7898 -1.4715 0.3513 0.7152 -3.5478 3.6526 0.1466 0.2644 1.8405 -1.1771c-0.9452,3.2629 -1.5282,0.5255 -2.2962,2.8204 2.6418,-1.6891 4.2552,-3.7356 4.8512,-4.1166l1.3507 -1.1649 3.0864 -3.0489 0.5011 -1.3108 2.5978 -2.4491 0.0666 -0.6063 -1.4725 0.9416 1.4794 -1.7085 -0.2659 -0.7582c-0.59,1.0619 -0.9103,1.5963 -2.2739,2.4679 -0.7788,0.498 -0.4775,0.1849 -1.4505,0.59 0.5356,-2.1561 -1.607,-1.1642 -3.8958,0.1237l-0.1572 -2.9438 0.7307 0.8484 0.6402 -0.3702c0.2306,-0.8725 0.4021,-1.0316 0.4687,-1.8724l-19.4826 12.4569z"/>
  <path id="_47305616" class="fil5" d="M195.842 53.2104l-0.5277 0.5065 -1.4595 -1.5213 -1.7415 1.0505 -0.5011 1.3108 -3.0864 3.0489 -1.3507 1.1649c-0.596,0.381 -2.2094,2.4275 -4.8512,4.1166 0.768,-2.2949 1.351,0.4425 2.2962,-2.8204l-1.8405 1.1771 -0.1466 -0.2644 3.5478 -3.6526 -0.3513 -0.7152 -1.7898 1.4715 2.71 -4.1311 -3.2953 2.1259 0.3262 1.1314 -1.0084 0.9782 0.1823 0.2386c-0.3363,2.3801 -3.6022,6.6984 -6.5419,8.5786l2.0995 0.3486 0.5175 0.512 16.0643 -11.4918 0.0187 0.0624 0.7294 -3.2257z"/>
  <path id="_150326032" class="fil1" d="M165.585 76.2945l1.4201 -0.4434 7.7338 -5.7231 0.2617 0.6199 4.0293 -2.8824 -0.5175 -0.512 -4.0492 1.3976 0.4137 0.9136 -4.1147 3.0641 1.9519 -2.6434 -1.8662 1.1529 -0.4999 1.6596 -1.06 0.6908c-0.9547,0.6103 -1.6416,-0.2512 -3.204,0.3583l0.4142 -1.2866 -0.1911 -0.2112 -3.0507 3.6472 0.2052 0.1876 2.2205 -1.8234 -0.4885 1.3843 1.5493 -1.3464 -1.1579 1.796zm8.2854 -4.738l-1.3068 0.6333 -0.6232 0.7473 1.93 -1.3806z"/>
  <polygon id="_151454456" class="fil0" points="171.94,72.9371 172.564,72.1898 173.87,71.5565 175,70.7479 174.739,70.128 167.005,75.8511 165.585,76.2945 165.669,77.4231 "/>
  <g id="_268855896">
   <path id="_152235752_29" class="fil0" d="M90.6866 104.304l-0.2424 0.6135 4.9114 3.5248c-0.8245,-1.0585 -1.2605,-2.5829 -0.9179,-4.9505 -0.9559,-0.7828 -0.6484,-1.0145 -1.4241,-1.2021 -1.3582,-0.3292 -1.6974,0.4265 -2.327,2.0143zm7.4864 6.1603l0.0002 -0.0524c-0.0648,-0.0284 -0.1295,-0.0574 -0.1939,-0.0866l0.1937 0.139z"/>
   <polygon id="_45777536_30" class="fil1" points="90.4442,104.918 90.6866,104.304 90.4786,101.895 91.9988,100.324 90.5321,99.9698 90.6329,98.5616 93.2687,97.1959 91.5379,96.6174 90.2344,90.0635 89.6984,90.3637 88.0111,103.171 "/>
   <path id="_46811696_31" class="fil2" d="M122.377 108.304l-0.8756 -3.4041 0.6205 -5.883 -2.9337 -0.711 -0.2396 2.1558 -2.975 -4.6519c0.1217,2.334 0.2865,1.6906 0.1968,3.4857 -0.0595,1.1917 -0.5848,1.5788 -1.1848,1.4338l-1.4665 -0.3552 0.0847 -1.6991 -1.833 -0.4423c0.8408,3.3983 3.0974,6.7638 5.5478,7.3758l-0.2181 -2.649 1.6946 -0.0318 1.3658 -1.8065c-0.2182,4.3596 -0.602,7.2845 -1.0993,9.5465l3.3154 -2.3637z"/>
   <polygon id="_45825208_32" class="fil3" points="136.745,98.0612 135.899,98.0524 133.615,99.2186 134.72,99.5046 "/>
   <path id="_150760304_33" class="fil4" d="M119.061 110.668c0.4974,-2.262 0.8817,-5.187 1.0999,-9.5469l-1.3658 1.8065 -1.6946 0.0318 0.2181 2.649c-2.4504,-0.612 -4.707,-3.9775 -5.5478,-7.3758l1.833 0.4423 -0.0847 1.6991 1.4665 0.3552c0.6,0.145 1.1253,-0.2421 1.1848,-1.4338 0.0897,-1.7951 -0.0751,-1.1517 -0.1968,-3.4857l2.975 4.6519 0.2396 -2.1558 2.9337 0.711 -0.6205 5.883 0.8756 3.4041 12.3427 -8.7995 -1.1048 -0.286c-1.2314,1.4081 -6.1483,1.2031 -6.0674,-5.1231l-2.6049 0.448c0.287,-1.8574 0.4647,-1.8627 0.5791,-4.156 0.1386,-2.76 -0.2856,-0.7195 -0.5201,-4.418l2.6239 -1.3274 -7.5724 0.5584 0.0117 3.0084 -1.2179 2.3884 1.5649 -0.5258 -0.5522 2.5909 2.2365 -0.4849 0.1848 0.855 -3.1424 3.5519 -0.1699 -0.8884 0.475 -2.482c-1.5324,-1.3605 -2.1369,-4.8126 -3.0878,-5.0429l-1.0566 -0.2224 -0.5799 3.2653 -1.8563 -0.5515 2.0295 -3.0555 -4.1249 0.1033 0.34 3.0765 -3.9603 -3.986 1.9877 4.7785c-2.9281,-0.7067 -6.3176,4.1412 -6.785,9.5309l0.1598 0.9413 -1.0248 0.5996 0.2429 3.4643 -3.2834 -0.7461 2.846 -5.4072 -1.8027 0.3954 -0.2924 -2.4593 3.6184 -2.6428 -0.1241 -0.9402 -1.8332 -0.4427c1.1041,-6.4898 1.4945,1.5093 2.3698,-2.8635 -2.6313,-0.6366 -4.3004,1.5391 -4.894,1.3953l-1.3638 0.4359 -3.14 1.9739 -0.5597 2.3818 -2.6358 1.3657 -0.1008 1.4083 1.4667 0.3545 -1.5202 1.5705 0.208 2.4094c0.6296,-1.5878 0.9688,-2.3435 2.327,-2.0143 0.7757,0.1876 0.4682,0.4193 1.4241,1.2021 -0.3426,2.3672 0.0935,3.892 0.9179,4.9505l2.6243 1.8834c0.0643,0.0292 0.1287,0.0579 0.1933,0.0862l-0.0002 0.0524 10.5517 7.5727 10.3362 -7.3691z"/>
   <path id="_151681424_34" class="fil0" d="M135.899 98.0524l-2.1569 -1.3796 0.5704 -10.7747 -7.2794 -2.2712 -2.0317 2.3426c0.2345,3.6985 0.6587,1.658 0.5201,4.418 -0.1144,2.2933 -0.2921,2.2986 -0.5791,4.156l2.6049 -0.448c-0.0809,6.3262 4.836,6.5312 6.0674,5.1231l2.2843 -1.1662z"/>
   <path id="_45434760_35" class="fil2" d="M152.553 86.7907l-3.0347 -0.1485 -0.5445 0.8859 0.2004 1.6714 3.3788 -2.4088zm-4.3144 3.0759l-0.054 -0.0131 -0.0027 0.0535 0.0567 -0.0404z"/>
   <path id="_45463432_36" class="fil5" d="M89.6984 90.3637l0.536 -0.3002 0.0791 6.2362 2.9552 0.8962 0.5597 -2.3818 3.14 -1.9739 1.3638 -0.4359c0.5936,0.1438 2.2627,-2.0319 4.894,-1.3953 -0.8753,4.3728 -1.2657,-3.6263 -2.3698,2.8635l1.8332 0.4427 0.1241 0.9402 -3.6184 2.6428 0.2924 2.4593 1.8027 -0.3954 -2.846 5.4072 3.2834 0.7461 -0.2429 -3.4643 1.0248 -0.5996 -0.1598 -0.9413c0.4674,-5.3897 3.8569,-10.2376 6.785,-9.5309l-1.9877 -4.7785 -0.4639 -2.2545 -7.7001 -0.1945 -9.6731 2.1777 0.3883 3.8342z"/>
   <polygon id="_45842672_37" class="fil4" points="148.182,89.907 148.185,89.8535 148.239,89.8666 149.174,89.1995 148.974,87.5281 149.518,86.6422 134.313,85.8981 133.743,96.6728 135.899,98.0524 136.745,98.0612 "/>
   <path id="_150211888_38" class="fil1" d="M120.065 88.2089l-1.3861 -1.5161 -7.7507 0.103 -0.2125 -2.0522 -4.0321 -0.1973 0.4639 2.2545 3.9603 3.986 -0.34 -3.0765 4.1249 -0.1033 -2.0295 3.0555 1.8563 0.5515 0.5799 -3.2653 1.0566 0.2224c0.9509,0.2303 1.5554,3.6824 3.0878,5.0429l-0.475 2.482 0.1699 0.8884 3.1424 -3.5519 -0.1848 -0.855 -2.2365 0.4849 0.5522 -2.5909 -1.5649 0.5258 1.2179 -2.3884zm-8.2183 -3.4102l1.2892 0.8259 0.6421 -0.7313 -1.9313 -0.0946z"/>
   <polygon id="_47657688_39" class="fil0" points="113.778,84.8933 113.136,85.6246 111.847,84.7987 110.716,84.7436 110.928,86.7958 118.679,86.6928 120.065,88.2089 120.053,85.2005 "/>
   <polygon id="_46615856_40" class="fil1" points="93.5468,76.1739 93.3209,76.622 93.6929,78.2923 96.1445,78.7565 95.2644,80.788 95.5589,81.0081 96.7691,79.5347 98.341,79.617 99.0489,79.1004 "/>
   <path id="_151475384_41" class="fil4" d="M83.4694 86.4028l-0.0089 -0.4707 0.7108 0.4707 1.9583 0 -0.0622 -0.3028 -1.5094 0.2441 1.1774 -1.2586c-1.0235,0.0867 -2.5913,0.5773 -3.7352,1.3173l1.4692 0z"/>
   <path id="_152237160_42" class="fil6" d="M108.524 86.4028c0.0385,-0.5937 0.2359,-0.9653 1.0416,-0.9653 0.7643,0 1.0161,0.2271 1.0349,0.9653l2.1783 0 -4.577 -2.4345 -0.3451 2.4345 0.6673 0z"/>
   <path id="_45842504_43" class="fil5" d="M106.112 86.4028l0 -2.7285 -1.0361 0c-3.4847,0 -3.6012,-2.5844 -8.4996,-2.2985l-1.5158 0.887 0 1.0578 1.0361 0 -0.1877 0.5311 -1.8672 2.2388 0.5178 0.3123 11.5525 0z"/>
   <path id="_150730408_44" class="fil4" d="M110.6 86.4028c-0.0188,-0.7382 -0.2706,-0.9653 -1.0349,-0.9653 -0.8057,0 -1.0031,0.3716 -1.0416,0.9653l2.0765 0z"/>
   <polygon id="_47787224_45" class="fil1" points="131.917,75.874 132.143,76.3221 131.771,77.9924 129.319,78.4566 130.199,80.4881 129.905,80.7082 128.694,79.2348 127.123,79.3171 126.415,78.8005 "/>
   <path id="_46547528_46" class="fil4" d="M141.994 86.1029l0.0089 -0.4707 -0.7108 0.4707 -1.9583 0 0.0622 -0.3028 1.5094 0.2441 -1.1774 -1.2586c0.8382,0.071 2.0412,0.4131 3.0777,0.941l-0.5657 0.3763 -0.246 0z"/>
   <path id="_47578832_47" class="fil6" d="M116.94 86.1029c-0.0385,-0.5937 -0.2359,-0.9653 -1.0416,-0.9653 -0.7643,0 -1.0161,0.2271 -1.0349,0.9653l-2.1783 0 4.577 -2.4345 0.3451 2.4345 -0.6673 0z"/>
   <path id="_148965808_48" class="fil5" d="M119.352 86.1029l0 -2.7285 1.0361 0c3.4847,0 3.6012,-2.5844 8.4996,-2.2985l1.5158 0.887 0 1.0578 -1.0361 0 0.1877 0.5311 1.8672 2.2388 -0.5178 0.3123 -11.5525 0z"/>
   <path id="_149480136_49" class="fil4" d="M114.864 86.1029c0.0188,-0.7382 0.2706,-0.9653 1.0349,-0.9653 0.8057,0 1.0031,0.3716 1.0416,0.9653l-2.0765 0z"/>
   <path id="_150325360_50" class="fil0" d="M89.3492 89.5276l-1.4508 -0.5515 -0.4617 -1.2479 -2.2899 -3.1443c0.2308,1.6274 0.3652,1.7506 1.538,1.9575 0.2204,3.5388 1.9352,4.2497 4.6208,5.4741l0.0745 1.1941 -1.5098 -0.9952 -1.8386 -1.1317 -2.7592 -3.0224 -4.0217 -3.5001c0.3987,-1.7908 -0.375,-0.8155 -1.5683,-3.7508 -0.3279,-0.8071 2.5737,-0.0875 2.5631,-0.5323l0.1109 3.0861c1.0018,1.1696 5.2372,1.1954 6.9536,3.1663l1.8294 2.8153 -1.4754 1.8935 -0.3149 -1.7107z"/>
   <path id="_152243864_51" class="fil7" d="M108.725 118.159l-18.5166 -15.4026 -1.8469 -0.9098 -5.3989 -8.556 -0.1688 -1.0221c0.2717,-0.6604 0.3577,-0.794 1.7743,0.0749l0.3687 0.225c1.3595,0.8349 3.1011,2.9166 5.5867,4.4414l-1.1189 -1.0721c0.0369,-1.604 0.7191,-1.1773 2.1114,-0.5548l3.2103 4.0488 13.8294 9.0773 0.1693 9.65z"/>
   <path id="_45843744_52" class="fil0" d="M130.146 89.1489l1.4508 -0.5893 0.1452 -2.0746 2.6064 -2.3892c-0.2308,1.6334 -0.3652,1.7601 -1.538,1.9975 -0.2204,3.5446 -1.9352,4.3001 -4.6208,5.5944l-0.0745 1.196 1.5098 -1.0345 1.8386 -1.1795 2.7592 -3.0942 4.0217 -3.6047c-0.3987,-1.7805 0.375,-0.8253 1.5683,-3.7916 0.3279,-0.8157 0.4289,-1.3243 0.4395,-1.7694l-6.2014 3.9654c-1.0018,1.1957 -1.3621,2.4045 -3.0785,4.42l-2.6166 2.2174 -0.0111 0.1857 1.8014 -0.0494z"/>
   <path id="_47404864_53" class="fil0" d="M149.542 84.186l2.1862 -1.0603 -0.3089 4.4912 8.3734 -5.99 0.9185 -0.8654c-0.3234,-1.2261 -0.6975,-0.1437 -0.6259,-1.2886 0.0588,-0.9508 0.236,-1.0831 0.4776,-1.9957l-2.5892 2.0797c-0.0721,-2.4507 -4.9848,1.0777 -6.1798,2.513l-2.2519 2.1161z"/>
   <path id="_46657520_54" class="fil2" d="M139.02 88.5468l5.1177 -1.5648 -0.5514 2.0256 -0.7365 0.4707 0.0663 -1.0557 -0.9805 0.7015 -0.9911 1.5888 -0.3123 -1.0218 -1.8318 0.4218 0.615 1.0934 -1.2409 -0.4285 -1.4726 0.9416 -0.1688 1.0265 -5.3989 8.6964 -1.8439 0.7768 0.1868 1.0942 6.7471 -4.8266 0.5221 -0.7342 -0.3729 -0.7517 1.1044 -0.7061 0.044 -0.7044c-1.3169,0.433 1.3985,-3.2608 1.9937,-3.6417 1.7926,-1.1465 2.0344,-0.2855 2.5107,-0.5907 1.4159,-0.9056 1.8097,-2.2832 2.3401,-3.5249l1.4722 -0.9413c-0.423,-0.6206 -0.3859,0.5261 -0.3019,-0.8204l0.0872 -1.4089 -0.7359 0.4707 -0.0439 0.7039 -1.4724 0.9414 -2.361 -0.319 -0.1721 1.2624 -1.8185 0.825z"/>
   <path id="_150762512_55" class="fil4" d="M145.839 86.8917l-1.4722 0.9413c-0.5304,1.2417 -0.9242,2.6193 -2.3401,3.5249 -0.4763,0.3052 -0.7181,-0.5558 -2.5107,0.5907 -0.5952,0.3809 -3.3106,4.0747 -1.9937,3.6417l-0.044 0.7044 -1.1044 0.7061 0.3729 0.7517 -0.5221 0.7342 15.1949 -10.8698 0.3089 -4.4912 -2.1862 1.0603 -3.7033 2.7057z"/>
   <path id="_45814784_56" class="fil4" d="M127.98 95.0607c1.3923,-0.6587 2.0745,-1.1032 2.1114,0.4999l-1.1189 1.1012c2.4856,-1.5895 4.2272,-3.7165 5.5867,-4.5868l0.3687 -0.2345c1.4166,-0.9058 1.5026,-0.7744 1.7743,-0.1211l1.4726 -0.9416 1.2409 0.4285 -0.615 -1.0934 1.8318 -0.4218 0.3123 1.0218 0.9911 -1.5888 0.9805 -0.7015 -0.0663 1.0557 0.7365 -0.4707 0.5514 -2.0256 -5.1177 1.5648 -8.1197 5.4831 -0.577 -0.9697 0.1976 0.169 1.5599 -2.3493 -0.276 -0.0436 -2.18 1.0129 -1.5098 1.0345 -0.1353 2.177zm0.2098 -3.373c2.6856,-1.2943 4.4004,-2.0498 4.6208,-5.5944 1.1728,-0.2374 1.3072,-0.3641 1.538,-1.9975l-2.6064 2.3892 -0.1452 2.0746 -1.4508 0.5893 -1.8481 1.5891 0.0298 -0.764 -0.0329 0.0207 -0.1052 1.693z"/>
   <path id="_48127120_57" class="fil7" d="M129.477 103.313l-0.1868 -1.0942 1.8439 -0.7768 5.3989 -8.6964 0.1688 -1.0265c-0.2717,-0.6533 -0.3577,-0.7847 -1.7743,0.1211l-0.3687 0.2345c-1.3595,0.8703 -3.1011,2.9973 -5.5867,4.5868l1.1189 -1.1012c-0.0369,-1.6031 -0.7191,-1.1586 -2.1114,-0.4999l-2.3699 4.5924 0.3364 6.1861 3.5309 -2.5259z"/>
  </g>
  <polygon id="_152234968" class="fil8 str0" points="146.598,59.0088 161.555,64.8067 159.821,74.4088 146.157,68.7873 "/>
  <polygon id="_46944104" class="fil8 str0" points="108.555,108.509 108.725,118.159 195.094,56.3737 198.572,41.1216 161.555,64.8067 159.821,74.4088 "/>
  <line id="_48549896" class="fil8 str4" x1="113.296" y1="67.1999" x2="113.592" y2= "86.8354" />
  <polygon id="_152232728_58" class="fil9 str2" points="20.9165,42.1798 59.6946,65.6474 79.3973,58.207 100.981,68.4192 101.024,69.6743 79.1475,59.1357 59.739,66.6255 20.9487,43.3616 "/>
  <polygon id="_45843520_59" class="fil10 str3" points="146.734,59.0684 161.555,64.8066 198.572,41.1214 197.891,40.8648 161.724,63.5376 146.634,57.8899 124.665,69.3152 124.692,70.4915 "/>
  <polygon id="_46944104_60" class="fil8 str0" points="108.555,108.509 108.725,118.159 195.094,56.3736 198.572,41.1214 161.555,64.8066 159.821,74.4087 "/>
  <polygon id="_150761936_61" class="fil8 str0" points="20.9439,43.4996 59.7393,66.6257 60.988,76.6715 108.555,108.509 108.725,118.159 24.0184,56.9017 "/>
  <g id="_159954752">
   <polygon id="_154605672" class="fil8 str5" points="101.394,80.3474 100.742,61.5357 112.679,57.3231 124.496,61.9508 124.922,80.556 113.592,86.8353 "/>
   <polygon id="_150587648" class="fil11 str6" points="124.496,61.9508 112.478,57.3942 100.742,61.5357 113.296,67.1998 "/>
   <polygon id="_150377200" class="fil12 str5" points="101.394,80.3474 100.742,61.5357 113.296,67.1998 113.592,86.8353 "/>
   <polygon id="_123604560" class="fil12 str5" points="113.592,86.8353 113.296,67.1998 124.496,61.9508 124.922,80.556 "/>
  </g>
  <g id="_45696688">
   <polygon id="_125023064" class="fil11 str7" points="60.3288,50.1022 60.1039,43.1998 67.7256,41.3298 60.4896,38.4653 53.4482,40.1968 53.7923,46.9582 "/>
   <polygon id="_406223656" class="fil12 str5" points="67.7256,41.3298 67.7337,47.9106 60.3288,50.1022 60.1039,43.1998 "/>
   <polygon id="_45371088" class="fil12 str5" points="53.4482,40.1968 60.1039,43.1998 60.3288,50.1022 53.7923,46.9582 "/>
  </g>
  <g id="_277773584">
   <polygon id="_45225688" class="fil11 str7" points="111.278,36.2392 110.193,30.5016 117.1,28.376 110.479,26.3376 105.254,27.8605 105.509,33.8072 "/>
   <polygon id="_280510024" class="fil12 str5" points="117.1,28.376 116.949,34.3331 111.278,36.2392 110.193,30.5016 "/>
   <polygon id="_156414592" class="fil12 str5" points="105.254,27.8605 111.309,30.1581 111.278,36.2392 105.509,33.8072 "/>
  </g>
  <g id="_270421664">
   <polygon id="_125062392" class="fil12 str5" points="163.481,49.4857 163.774,43.359 170.48,40.5861 169.993,46.5284 "/>
   <polygon id="_173159336" class="fil11 str6" points="163.774,43.359 157.457,41.7123 163.675,39.2633 170.48,40.5861 "/>
   <polygon id="_123115320" class="fil12 str5" points="157.457,41.7123 157.367,47.5749 163.481,49.4857 163.774,43.359 "/>
  </g>
 </g>
</svg>
