<?xml version="1.0" encoding="UTF-8"?>
<!DOCTYPE svg PUBLIC "-//W3C//DTD SVG 1.1//EN" "http://www.w3.org/Graphics/SVG/1.1/DTD/svg11.dtd">
<!-- Creator: CorelDRAW -->
<svg xmlns="http://www.w3.org/2000/svg" xml:space="preserve" width="210mm" height="297mm" style="shape-rendering:geometricPrecision; text-rendering:geometricPrecision; image-rendering:optimizeQuality; fill-rule:evenodd; clip-rule:evenodd"
viewBox="0 0 210 297"
 xmlns:xlink="http://www.w3.org/1999/xlink">
 <defs>
  <style type="text/css">
   <![CDATA[
    .str4 {stroke:#383431;stroke-width:0.0762}
    .str2 {stroke:#4F2E28;stroke-width:0.0762}
    .str1 {stroke:#60322A;stroke-width:0.0762}
    .str3 {stroke:#838281;stroke-width:0.0762}
    .str0 {stroke:#86482E;stroke-width:0.0762}
    .fil9 {fill:#383431}
    .fil3 {fill:#4F2D28}
    .fil5 {fill:#4F2E28}
    .fil8 {fill:#838281}
    .fil1 {fill:#B58C33}
    .fil0 {fill:#E5D366}
    .fil4 {fill:#EBE7B2}
    .fil2 {fill:#ECE7B2}
    .fil10 {fill:url(#id0)}
    .fil6 {fill:url(#id1)}
    .fil11 {fill:url(#id2)}
    .fil7 {fill:url(#id3)}
	.hidden {visibility: hidden;}:
   ]]>
  </style>
  <linearGradient id="id0" gradientUnits="userSpaceOnUse" x1="146.467" y1="82.2087" x2="150.337" y2="64.7933">
   <stop offset="0" style="stop-color:#55312B"/>
   <stop offset="1" style="stop-color:#6D412C"/>
  </linearGradient>
  <linearGradient id="id1" gradientUnits="userSpaceOnUse" x1="146.467" y1="53.2735" x2="150.337" y2="35.8581">
   <stop offset="0" style="stop-color:#55312B"/>
   <stop offset="1" style="stop-color:#6D412C"/>
  </linearGradient>
  <linearGradient id="id2" gradientUnits="userSpaceOnUse" x1="150.195" y1="92.9535" x2="146.608" y2="83.0899">
   <stop offset="0" style="stop-color:#55312B"/>
   <stop offset="1" style="stop-color:#6D412C"/>
  </linearGradient>
  <linearGradient id="id3" gradientUnits="userSpaceOnUse" xlink:href="#id2" x1="151.264" y1="64.1265" x2="145.332" y2="53.2521">
  </linearGradient>
 </defs>
 <g id="Слой_x0020_1">
  <metadata id="CorelCorpID_0Corel-Layer"/>
  <g id="_163712336">
   <rect id="_180647464" class="fil0 str0" x="21.1891" y="106.221" width="170.631" height="5.46536"/>
   <rect id="_163011712" class="fil0 str0" x="21.1891" y="84.1318" width="170.631" height="5.46536"/>
   <rect id="_163938200" class="fil0 str0" x="21.1891" y="62.0995" width="170.631" height="5.46536"/>
   <rect id="_163939792" class="fil0 str0" x="21.1891" y="40.0528" width="170.631" height="5.46536"/>
   <rect id="_163942448" class="fil0 str0" x="21.1891" y="100.672" width="170.631" height="5.46536"/>
   <rect id="_163943552" class="fil0 str0" x="21.1891" y="78.5824" width="170.631" height="5.46536"/>
   <rect id="_163721368" class="fil0 str0" x="21.1891" y="56.5502" width="170.631" height="5.46536"/>
   <rect id="_163722720" class="fil0 str0" x="21.1891" y="34.5034" width="170.631" height="5.46536"/>
   <rect id="_163728256" class="fil0 str0" x="21.1891" y="95.2233" width="170.631" height="5.46536"/>
   <rect id="_163726000" class="fil0 str0" x="21.1891" y="73.1336" width="170.631" height="5.46536"/>
   <rect id="_163733104" class="fil0 str0" x="21.1891" y="51.1013" width="170.631" height="5.46536"/>
   <rect id="_163732160" class="fil0 str0" x="21.1891" y="29.0546" width="170.631" height="5.46536"/>
   <rect id="_163734792" class="fil0 str0" x="21.1891" y="89.706" width="170.631" height="5.46536"/>
   <rect id="_163738144" class="fil0 str0" x="21.1891" y="67.6163" width="170.631" height="5.46536"/>
   <rect id="_163740608" class="fil0 str0" x="21.1891" y="45.584" width="170.631" height="5.46536"/>
   <rect id="_163745528" class="fil0 str0" x="21.1891" y="23.5372" width="170.631" height="5.46536"/>
   <rect id="_163744712" class="fil0 str0" x="21.1891" y="17.9932" width="170.631" height="5.46536"/>
   <rect id="_163750968" class="fil1" x="21.1892" y="106.137" width="5.77675" height="5.54943"/>
   <rect id="_163754480" class="fil1" x="186.06" y="106.139" width="5.77675" height="5.54943"/>
   <rect id="_163755976" class="fil1" x="21.2077" y="95.1404" width="5.77675" height="5.54943"/>
   <rect id="_163761680" class="fil1" x="186.079" y="95.1419" width="5.77675" height="5.54943"/>
   <rect id="_163760592" class="fil1" x="21.1612" y="84.1105" width="5.77675" height="5.54943"/>
   <rect id="_163804056" class="fil1" x="186.032" y="84.1117" width="5.77675" height="5.54943"/>
   <rect id="_163807688" class="fil1" x="21.1923" y="73.0793" width="5.77675" height="5.54943"/>
   <rect id="_163809184" class="fil1" x="186.063" y="73.0805" width="5.77675" height="5.54943"/>
   <rect id="_163814888" class="fil1" x="21.2015" y="62.0435" width="5.77675" height="5.54943"/>
   <rect id="_163813752" class="fil1" x="186.073" y="62.0448" width="5.77675" height="5.54943"/>
   <rect id="_163816288" class="fil1" x="21.2092" y="51.0354" width="5.77675" height="5.54943"/>
   <rect id="_163819944" class="fil1" x="186.08" y="51.0368" width="5.77675" height="5.54943"/>
   <rect id="_163821424" class="fil1" x="21.192" y="39.9894" width="5.77675" height="5.54943"/>
   <rect id="_163827128" class="fil1" x="186.063" y="39.9907" width="5.77675" height="5.54943"/>
   <rect id="_163831400" class="fil1" x="21.2097" y="28.9932" width="5.77675" height="5.54943"/>
   <rect id="_163827872" class="fil1" x="186.081" y="28.9946" width="5.77675" height="5.54943"/>
   <rect id="_163832184" class="fil1" x="21.1947" y="17.9677" width="5.77675" height="5.54943"/>
   <rect id="_163833664" class="fil1" x="186.066" y="17.9691" width="5.77675" height="5.54943"/>
  </g>
 </g>
 <g id="Рамка" spec_attr="ramka">
  <metadata id="CorelCorpID_1Corel-Layer"/>
  <rect class="fil2 str1" x="45.8494" y="34.6763" width="28.5012" height="38.0435"/>
 </g>
 <g id="Окно_x0020_4" spec_attr="okno">
  <metadata id="CorelCorpID_2Corel-Layer"/>
  <rect id="_73230344" class="fil3 str2" x="91.2965" y="34.4041" width="28.5012" height="38.0435"/>
 </g>
 <g id="Окно_x0020_0" spec_attr="okno">
  <metadata id="CorelCorpID_3Corel-Layer"/>
  <rect id="_73215760" class="fil4 str1" x="92.8997" y="35.8594" width="25.3119" height="33.3742"/>
 </g>
 <g id="Окно_x0020_1" spec_attr="okno">
  <metadata id="CorelCorpID_4Corel-Layer"/>
  <rect id="_72858240" class="fil5 str2" x="105.059" y="34.4041" width="0.9765" height="38.0435"/>
 </g>
 <g id="Окно_x0020_2" spec_attr="okno">
  <metadata id="CorelCorpID_5Corel-Layer"/>
  <rect id="_72812912" class="fil5 str2" x="91.6755" y="45.842" width="27.2614" height="0.3551"/>
 </g>
 <g id="Окно_x0020_3" spec_attr="okno">
  <metadata id="CorelCorpID_6Corel-Layer"/>
  <rect id="_72812840" class="fil5 str2" x="91.5063" y="57.1182" width="27.4306" height="0.3551"/>
 </g>
 <g id="Дверь_x0020_0" spec_attr="dver">
  <metadata id="CorelCorpID_7Corel-Layer"/>
  <rect id="_73511216" class="fil5 str2" x="133.643" y="34.6232" width="29.4827" height="60.907"/>
 </g>
 <g id="Дверь_x0020_1" spec_attr="dver">
  <metadata id="CorelCorpID_8Corel-Layer"/>
  <polygon id="_73510840" class="fil6 str2" points="135.352,53.088 161.451,53.088 161.451,36.0436 135.352,36.0436 "/>
 </g>
 <g id="Дверь_x0020_2" spec_attr="dver">
  <metadata id="CorelCorpID_9Corel-Layer"/>
  <polygon id="_73267544" class="fil7 str2" points="135.249,62.9503 161.348,62.9503 161.348,54.4282 135.249,54.4282 "/>
 </g>
 <g id="Дверь_x0020_4" spec_attr="dver">
  <metadata id="CorelCorpID_10Corel-Layer"/>
  <rect id="_72923208" class="fil8 str3" x="153.151" y="60.7226" width="7.5458" height="1.2872"/>
 </g>
 <g id="Дверь_x0020_3" spec_attr="dver">
  <metadata id="CorelCorpID_11Corel-Layer"/>
  <rect id="_23049568" class="fil9 str4" x="158.079" y="61.2109" width="2.2637" height="0.4883"/>
 </g>
 <g id="Дверь_x0020_5" spec_attr="dver">
  <metadata id="CorelCorpID_12Corel-Layer"/>
  <polygon id="_23201688" class="fil10 str2" points="135.352,82.0232 161.451,82.0232 161.451,64.9787 135.352,64.9787 "/>
 </g>
 <g id="Дверь_x0020_6" spec_attr="dver">
  <metadata id="CorelCorpID_13Corel-Layer"/>
  <polygon id="_73267912" class="fil11 str2" points="135.352,92.2827 161.451,92.2827 161.451,83.7606 135.352,83.7606 "/>
 </g>
</svg>
