<?xml version="1.0" encoding="UTF-8"?>
<!DOCTYPE svg PUBLIC "-//W3C//DTD SVG 1.1//EN" "http://www.w3.org/Graphics/SVG/1.1/DTD/svg11.dtd">
<!-- Creator: CorelDRAW -->
<svg xmlns="http://www.w3.org/2000/svg" xml:space="preserve" width="210mm" height="297mm" style="shape-rendering:geometricPrecision; text-rendering:geometricPrecision; image-rendering:optimizeQuality; fill-rule:evenodd; clip-rule:evenodd"
viewBox="0 0 210 297"
 xmlns:xlink="http://www.w3.org/1999/xlink">
 <defs>
  <style type="text/css">
   <![CDATA[
    .str1 {stroke:#825C1C;stroke-width:0.0762}
    .str0 {stroke:#ECDB81;stroke-width:0.0762}
    .str2 {stroke:#825C1C;stroke-width:0.13}
    .fil14 {fill:none}
    .fil15 {fill:#825C1C}
    .fil1 {fill:#E0C172}
    .fil0 {fill:#ECDB81}
    .fil6 {fill:url(#id0)}
    .fil10 {fill:url(#id1)}
    .fil2 {fill:url(#id2)}
    .fil7 {fill:url(#id3)}
    .fil3 {fill:url(#id4)}
    .fil11 {fill:url(#id5)}
    .fil12 {fill:url(#id6)}
    .fil8 {fill:url(#id7)}
    .fil5 {fill:url(#id8)}
    .fil13 {fill:url(#id9)}
    .fil9 {fill:url(#id10)}
    .fil4 {fill:url(#id11)}
   ]]>
  </style>
  <radialGradient id="id0" gradientUnits="userSpaceOnUse" cx="6.0338" cy="85.3563" r="2.9875" fx="6.0338" fy="85.3563">
   <stop offset="0" style="stop-color:#EEEECA"/>
   <stop offset="1" style="stop-color:#EBD97F"/>
   <stop offset="1" style="stop-color:#EBD97F"/>
  </radialGradient>
  <radialGradient id="id1" gradientUnits="userSpaceOnUse" cx="6.0338" cy="95.8837" r="2.9875" fx="6.0338" fy="95.8837">
   <stop offset="0" style="stop-color:#EFEFCA"/>
   <stop offset="1" style="stop-color:#ECDB81"/>
   <stop offset="1" style="stop-color:#ECDB81"/>
  </radialGradient>
  <radialGradient id="id2" gradientUnits="userSpaceOnUse" cx="6.0338" cy="74.7849" r="2.9875" fx="6.0338" fy="74.7849">
   <stop offset="0" style="stop-color:#F0F0CE"/>
   <stop offset="1" style="stop-color:#F0DE82"/>
   <stop offset="1" style="stop-color:#F0DE82"/>
  </radialGradient>
  <radialGradient id="id3" gradientUnits="userSpaceOnUse" cx="6.0338" cy="52.5343" r="2.9875" fx="6.0338" fy="52.5343">
   <stop offset="0" style="stop-color:#F0F0C5"/>
   <stop offset="1" style="stop-color:#E8D784"/>
   <stop offset="1" style="stop-color:#E8D784"/>
  </radialGradient>
  <radialGradient id="id4" gradientUnits="userSpaceOnUse" cx="6.0338" cy="41.9629" r="2.9875" fx="6.0338" fy="41.9629">
   <stop offset="0" style="stop-color:#F5F5D0"/>
   <stop offset="1" style="stop-color:#F0DE87"/>
   <stop offset="1" style="stop-color:#F0DE87"/>
  </radialGradient>
  <radialGradient id="id5" gradientUnits="userSpaceOnUse" cx="6.0338" cy="63.0616" r="2.9875" fx="6.0338" fy="63.0616">
   <stop offset="0" style="stop-color:#ECECC0"/>
   <stop offset="1" style="stop-color:#F2E18C"/>
   <stop offset="1" style="stop-color:#F2E18C"/>
  </radialGradient>
  <radialGradient id="id6" gradientUnits="userSpaceOnUse" cx="200.48" cy="95.823" r="2.9875" fx="200.48" fy="95.823">
   <stop offset="0" style="stop-color:#F2F2C6"/>
   <stop offset="1" style="stop-color:#EDDB82"/>
   <stop offset="1" style="stop-color:#EDDB82"/>
  </radialGradient>
  <radialGradient id="id7" gradientUnits="userSpaceOnUse" cx="200.48" cy="85.2958" r="2.9875" fx="200.48" fy="85.2958">
   <stop offset="0" style="stop-color:#F2F2D3"/>
   <stop offset="1" style="stop-color:#EDDC85"/>
   <stop offset="1" style="stop-color:#EDDC85"/>
  </radialGradient>
  <radialGradient id="id8" gradientUnits="userSpaceOnUse" cx="200.48" cy="41.9432" r="2.9875" fx="200.48" fy="41.9432">
   <stop offset="0" style="stop-color:#F2F2C6"/>
   <stop offset="1" style="stop-color:#EBDA84"/>
   <stop offset="1" style="stop-color:#EBDA84"/>
  </radialGradient>
  <radialGradient id="id9" gradientUnits="userSpaceOnUse" cx="200.48" cy="63.0418" r="2.9875" fx="200.48" fy="63.0418">
   <stop offset="0" style="stop-color:#F7F7CA"/>
   <stop offset="1" style="stop-color:#EDDC87"/>
   <stop offset="1" style="stop-color:#EDDC87"/>
  </radialGradient>
  <radialGradient id="id10" gradientUnits="userSpaceOnUse" cx="200.48" cy="52.5146" r="2.9875" fx="200.48" fy="52.5146">
   <stop offset="0" style="stop-color:#F7F7DC"/>
   <stop offset="1" style="stop-color:#EDDC8A"/>
   <stop offset="1" style="stop-color:#EDDC8A"/>
  </radialGradient>
  <radialGradient id="id11" gradientUnits="userSpaceOnUse" cx="200.48" cy="73.5625" r="2.9875" fx="200.48" fy="73.5625">
   <stop offset="0" style="stop-color:#EDEDC2"/>
   <stop offset="1" style="stop-color:#EDDB82"/>
   <stop offset="1" style="stop-color:#EDDB82"/>
  </radialGradient>
 </defs>
 <g id="Слой_x0020_1">
  <metadata id="CorelCorpID_0Corel-Layer"/>
  <g id="_43968728">
   <polygon id="_43975768" class="fil0 str0" points="54.199,71.8254 54.129,83.7814 65.139,83.7814 65.1766,71.8254 "/>
   <polygon id="_141898072" class="fil0 str0" points="143.489,72.1293 143.419,84.0852 154.429,84.0852 154.466,72.1293 "/>
   <polygon id="_141900192" class="fil1 str1" points="8.841,70.3671 201.071,69.8545 196.264,74.0907 14.1413,74.532 "/>
   <polygon id="_141902440" class="fil1 str1" points="7.7549,64.226 201.327,63.9796 201.658,66.178 8.6463,66.3961 "/>
   <polygon id="_141904808" class="fil0 str1" points="8.9191,66.4999 202.491,66.2535 202.822,68.4519 9.8103,68.67 "/>
   <polygon id="_141907176" class="fil0 str1" points="8.2752,68.7026 201.849,68.5236 202.177,70.1206 9.1665,70.279 "/>
   <ellipse id="_45630816" class="fil2 str0" cx="8.32751" cy="75.6299" rx="6.03611" ry="5.28154"/>
   <ellipse id="_141925560" class="fil3 str0" cx="8.32751" cy="43.8643" rx="6.03611" ry="5.28154"/>
   <ellipse id="_141932064" class="fil4 str0" cx="201.929" cy="75.147" rx="6.03611" ry="5.28154"/>
   <ellipse id="_141940552" class="fil5 str0" cx="201.929" cy="43.3164" rx="6.03611" ry="5.28154"/>
   <ellipse id="_141949920" class="fil6 str0" cx="8.32751" cy="86.2013" rx="6.03611" ry="5.28154"/>
   <ellipse id="_141958696" class="fil7 str0" cx="8.32751" cy="54.4357" rx="6.03611" ry="5.28154"/>
   <ellipse id="_141968384" class="fil8 str0" cx="201.929" cy="85.7184" rx="6.03611" ry="5.28154"/>
   <ellipse id="_141977160" class="fil9 str0" cx="201.929" cy="53.8878" rx="6.03611" ry="5.28154"/>
   <ellipse id="_141986848" class="fil10 str0" cx="8.32751" cy="96.7288" rx="6.03611" ry="5.28154"/>
   <ellipse id="_141998120" class="fil11 str0" cx="8.32751" cy="64.963" rx="6.03611" ry="5.28154"/>
   <ellipse id="_142005904" class="fil12 str0" cx="201.929" cy="96.2456" rx="6.03611" ry="5.28154"/>
   <ellipse id="_142014968" class="fil13 str0" cx="201.929" cy="64.415" rx="6.03611" ry="5.28154"/>
   <g id="_131006592">
    <line id="_45177000" class="fil14 str2" x1="26.0913" y1="70.2339" x2="26.1015" y2= "74.5682" />
    <line id="_46300952" class="fil14 str2" x1="45.4048" y1="70.184" x2="45.415" y2= "74.5177" />
    <line id="_131138640" class="fil14 str2" x1="64.4446" y1="70.1357" x2="64.455" y2= "74.4746" />
    <line id="_46330568" class="fil14 str2" x1="82.7" y1="70.1759" x2="82.7102" y2= "74.38" />
    <line id="_46331872" class="fil14 str2" x1="103.122" y1="70.0381" x2="103.132" y2= "74.3945" />
    <line id="_46333176" class="fil14 str2" x1="118.698" y1="70.0065" x2="118.709" y2= "74.3382" />
    <line id="_46334480" class="fil14 str2" x1="139.021" y1="69.9502" x2="139.031" y2= "74.2943" />
    <line id="_131138352" class="fil14 str2" x1="157.033" y1="69.9019" x2="157.043" y2= "74.2511" />
    <line id="_45928120" class="fil14 str2" x1="180.511" y1="69.8419" x2="180.522" y2= "74.1923" />
   </g>
   <g id="_47026552">
    <line id="_46298336" class="fil14 str2" x1="26.2296" y1="64.1839" x2="26.2399" y2= "66.3428" />
    <line id="_46191528" class="fil14 str2" x1="45.5432" y1="64.1589" x2="45.5534" y2= "66.3177" />
    <line id="_47574728" class="fil14 str2" x1="64.583" y1="64.135" x2="64.5932" y2= "66.2963" />
    <line id="_46122672" class="fil14 str2" x1="82.8384" y1="64.155" x2="82.8486" y2= "66.249" />
    <line id="_47026712" class="fil14 str2" x1="103.26" y1="64.0864" x2="103.269" y2= "66.2564" />
    <line id="_47035520" class="fil14 str2" x1="118.837" y1="64.0706" x2="118.847" y2= "66.2282" />
    <line id="_45393808" class="fil14 str2" x1="139.159" y1="64.0425" x2="139.17" y2= "66.2065" />
    <line id="_47031096" class="fil14 str2" x1="157.171" y1="64.0185" x2="157.182" y2= "66.1848" />
    <line id="_47259488" class="fil14 str2" x1="180.65" y1="63.9886" x2="180.66" y2= "66.1555" />
   </g>
   <g id="_131898928">
    <g>
     <path id="_45515496" class="fil14 str1" d="M11.7142 70.3076c0.9362,-0.2196 0.857,-1.5783 1.5156,-1.5788 0.722,-0.0004 0.4068,1.5773 1.3992,1.5765"/>
     <path id="_47028328" class="fil14 str1" d="M14.6235 70.3021c0.8874,0.0473 0.857,-1.5784 1.5156,-1.5789 0.722,-0.0005 0.5827,1.596 1.3993,1.5764"/>
     <path id="_46125688" class="fil14 str1" d="M20.4404 70.3068c0.8873,0.0473 0.857,-1.5783 1.5156,-1.5788 0.722,-0.0006 0.5826,1.596 1.3992,1.5764"/>
     <path id="_131280832" class="fil14 str1" d="M23.3334 70.3011c0.8874,0.0474 0.857,-1.5782 1.5156,-1.5787 0.722,-0.0006 0.5827,1.596 1.3992,1.5764"/>
     <path id="_45102760" class="fil14 str1" d="M26.2339 70.2955c0.8873,0.0474 0.857,-1.5783 1.5156,-1.5787 0.722,-0.0006 0.5826,1.596 1.3992,1.5764"/>
     <path id="_46411992" class="fil14 str1" d="M29.0954 70.2936c0.8872,0.0474 0.8569,-1.5782 1.5156,-1.5787 0.722,-0.0006 0.5825,1.596 1.3991,1.5764"/>
     <path id="_46014472" class="fil14 str1" d="M17.5326 70.3064c0.8872,0.0475 0.857,-1.5783 1.5156,-1.5787 0.722,-0.0006 0.5825,1.5959 1.3992,1.5764"/>
    </g>
    <g>
     <path id="_46119712" class="fil14 str1" d="M31.9631 70.2715c0.9362,-0.2196 0.857,-1.5783 1.5156,-1.5788 0.722,-0.0005 0.4068,1.5773 1.3992,1.5765"/>
     <path id="_47252360" class="fil14 str1" d="M34.8725 70.2659c0.8873,0.0473 0.8569,-1.5783 1.5156,-1.5788 0.722,-0.0006 0.5826,1.596 1.3992,1.5764"/>
     <path id="_45498072" class="fil14 str1" d="M40.6893 70.2707c0.8873,0.0473 0.857,-1.5783 1.5156,-1.5789 0.7221,-0.0005 0.5826,1.5961 1.3992,1.5765"/>
     <path id="_131088488" class="fil14 str1" d="M43.5823 70.2651c0.8873,0.0473 0.857,-1.5783 1.5156,-1.5789 0.722,-0.0005 0.5826,1.5961 1.3992,1.5765"/>
     <path id="_131051576" class="fil14 str1" d="M46.4828 70.2594c0.8873,0.0474 0.857,-1.5783 1.5156,-1.5788 0.722,-0.0005 0.5826,1.5961 1.3992,1.5765"/>
     <path id="_45131264" class="fil14 str1" d="M49.3443 70.2576c0.8873,0.0473 0.857,-1.5783 1.5156,-1.5789 0.722,-0.0005 0.5826,1.5961 1.3992,1.5765"/>
     <path id="_45912152" class="fil14 str1" d="M37.7815 70.2703c0.8873,0.0474 0.857,-1.5783 1.5156,-1.5788 0.722,-0.0005 0.5826,1.5961 1.3992,1.5765"/>
    </g>
    <g>
     <path id="_45925200" class="fil14 str1" d="M52.2411 70.2561c0.9362,-0.2196 0.857,-1.5782 1.5155,-1.5787 0.722,-0.0006 0.4068,1.5772 1.3993,1.5764"/>
     <path id="_46188936" class="fil14 str1" d="M55.1504 70.2505c0.8873,0.0475 0.857,-1.5783 1.5156,-1.5787 0.7219,-0.0006 0.5826,1.596 1.3992,1.5764"/>
     <path id="_45500784" class="fil14 str1" d="M60.9672 70.2553c0.8874,0.0474 0.857,-1.5783 1.5156,-1.5787 0.722,-0.0006 0.5827,1.596 1.3992,1.5764"/>
     <path id="_130927936" class="fil14 str1" d="M63.8602 70.2497c0.8873,0.0473 0.857,-1.5783 1.5156,-1.5788 0.722,-0.0005 0.5827,1.596 1.3992,1.5765"/>
     <path id="_130914632" class="fil14 str1" d="M66.7607 70.2441c0.8873,0.0473 0.8569,-1.5783 1.5156,-1.5788 0.722,-0.0006 0.5826,1.596 1.3993,1.5764"/>
     <path id="_46113896" class="fil14 str1" d="M69.6221 70.2422c0.8874,0.0473 0.857,-1.5783 1.5156,-1.5788 0.7221,-0.0005 0.5827,1.596 1.3992,1.5765"/>
     <path id="_131067800" class="fil14 str1" d="M58.0594 70.255c0.8873,0.0473 0.8569,-1.5783 1.5156,-1.5788 0.722,-0.0006 0.5826,1.596 1.3992,1.5764"/>
    </g>
    <g>
     <path id="_46386328" class="fil14 str1" d="M72.5038 70.234c0.9362,-0.2196 0.857,-1.5783 1.5156,-1.5788 0.722,-0.0005 0.4067,1.5773 1.3992,1.5765"/>
     <path id="_46456584" class="fil14 str1" d="M75.4131 70.2284c0.8873,0.0474 0.857,-1.5783 1.5156,-1.5788 0.722,-0.0006 0.5826,1.596 1.3992,1.5764"/>
     <path id="_130918464" class="fil14 str1" d="M81.2299 70.2332c0.8874,0.0473 0.857,-1.5783 1.5156,-1.5789 0.722,-0.0005 0.5827,1.5961 1.3992,1.5765"/>
     <path id="_46409720" class="fil14 str1" d="M84.1229 70.2276c0.8874,0.0473 0.857,-1.5783 1.5156,-1.5789 0.722,-0.0005 0.5827,1.5961 1.3992,1.5765"/>
     <path id="_131084272" class="fil14 str1" d="M87.0235 70.2219c0.8872,0.0474 0.8569,-1.5783 1.5155,-1.5787 0.722,-0.0006 0.5827,1.596 1.3993,1.5764"/>
     <path id="_24400888" class="fil14 str1" d="M89.8849 70.2201c0.8873,0.0473 0.8569,-1.5783 1.5156,-1.5788 0.722,-0.0006 0.5826,1.596 1.3993,1.5764"/>
     <path id="_46413224" class="fil14 str1" d="M78.3221 70.2328c0.8873,0.0474 0.857,-1.5783 1.5156,-1.5787 0.722,-0.0006 0.5827,1.596 1.3993,1.5764"/>
    </g>
    <g>
     <path id="_46355944" class="fil14 str1" d="M92.7944 70.2287c0.9362,-0.2196 0.857,-1.5783 1.5157,-1.5787 0.722,-0.0006 0.4067,1.5772 1.3991,1.5764"/>
     <path id="_131010528" class="fil14 str1" d="M95.7038 70.2231c0.8873,0.0473 0.857,-1.5783 1.5156,-1.5788 0.722,-0.0005 0.5826,1.596 1.3992,1.5765"/>
     <path id="_44930008" class="fil14 str1" d="M101.521 70.2279c0.8872,0.0474 0.8568,-1.5783 1.5156,-1.5789 0.722,-0.0004 0.5825,1.5961 1.3992,1.5766"/>
     <path id="_45507632" class="fil14 str1" d="M104.413 70.2223c0.8873,0.0473 0.857,-1.5783 1.5156,-1.5789 0.722,-0.0005 0.5826,1.5961 1.3992,1.5765"/>
     <path id="_48166520" class="fil14 str1" d="M107.314 70.2167c0.8872,0.0473 0.8568,-1.5783 1.5156,-1.5789 0.7219,-0.0005 0.5825,1.5961 1.3992,1.5765"/>
     <path id="_131988616" class="fil14 str1" d="M110.176 70.2148c0.8873,0.0473 0.857,-1.5783 1.5156,-1.5789 0.7219,-0.0005 0.5826,1.5961 1.3992,1.5765"/>
     <path id="_45180880" class="fil14 str1" d="M98.6123 70.2276c0.8873,0.0473 0.857,-1.5783 1.5157,-1.5789 0.722,-0.0005 0.5825,1.5961 1.3991,1.5765"/>
    </g>
    <g>
     <path id="_45018000" class="fil14 str1" d="M113.043 70.2047c0.9362,-0.2196 0.8569,-1.5783 1.5156,-1.5788 0.722,-0.0005 0.4067,1.5773 1.3991,1.5765"/>
     <path id="_44981040" class="fil14 str1" d="M115.951 70.1991c0.8872,0.0473 0.8569,-1.5783 1.5156,-1.5788 0.722,-0.0006 0.5825,1.596 1.3992,1.5764"/>
     <path id="_46318592" class="fil14 str1" d="M121.769 70.2039c0.8872,0.0473 0.857,-1.5783 1.5156,-1.5789 0.722,-0.0005 0.5825,1.5961 1.3992,1.5765"/>
     <path id="_47243728" class="fil14 str1" d="M124.661 70.1983c0.8873,0.0473 0.857,-1.5783 1.5156,-1.5789 0.7221,-0.0005 0.5826,1.5961 1.3992,1.5765"/>
     <path id="_45502184" class="fil14 str1" d="M127.561 70.1926c0.8872,0.0474 0.857,-1.5783 1.5156,-1.5788 0.722,-0.0005 0.5825,1.5961 1.3992,1.5765"/>
     <path id="_47244256" class="fil14 str1" d="M130.424 70.1908c0.8873,0.0473 0.857,-1.5783 1.5156,-1.5789 0.722,-0.0005 0.5826,1.5961 1.3992,1.5765"/>
     <path id="_47253984" class="fil14 str1" d="M118.86 70.2035c0.8872,0.0474 0.857,-1.5783 1.5156,-1.5788 0.722,-0.0005 0.5825,1.5961 1.3992,1.5765"/>
    </g>
    <g>
     <path id="_45992296" class="fil14 str1" d="M133.301 70.178c0.9362,-0.2196 0.857,-1.5783 1.5156,-1.5789 0.722,-0.0005 0.4068,1.5774 1.3992,1.5765"/>
     <path id="_45506736" class="fil14 str1" d="M136.21 70.1724c0.8874,0.0473 0.857,-1.5783 1.5156,-1.5789 0.722,-0.0005 0.5827,1.5961 1.3992,1.5765"/>
     <path id="_46784496" class="fil14 str1" d="M142.026 70.1772c0.8872,0.0473 0.8568,-1.5784 1.5156,-1.5789 0.7219,-0.0005 0.5825,1.596 1.3992,1.5764"/>
     <path id="_48095456" class="fil14 str1" d="M144.919 70.1715c0.8873,0.0474 0.857,-1.5784 1.5156,-1.5788 0.722,-0.0005 0.5827,1.5961 1.3992,1.5764"/>
     <path id="_46161496" class="fil14 str1" d="M147.819 70.1659c0.8874,0.0474 0.857,-1.5784 1.5156,-1.5789 0.722,-0.0004 0.5827,1.5961 1.3992,1.5765"/>
     <path id="_46132384" class="fil14 str1" d="M150.68 70.164c0.8873,0.0474 0.857,-1.5784 1.5156,-1.5788 0.722,-0.0005 0.5826,1.5961 1.3992,1.5764"/>
     <path id="_45899744" class="fil14 str1" d="M139.118 70.1768c0.8874,0.0474 0.857,-1.5783 1.5156,-1.5789 0.722,-0.0004 0.5827,1.5961 1.3992,1.5765"/>
    </g>
    <g>
     <path id="_47257072" class="fil14 str1" d="M153.591 70.1604c0.9362,-0.2196 0.857,-1.5783 1.5156,-1.5787 0.722,-0.0006 0.4068,1.5772 1.3992,1.5764"/>
     <path id="_46456816" class="fil14 str1" d="M156.5 70.1548c0.8873,0.0473 0.857,-1.5783 1.5156,-1.5788 0.722,-0.0006 0.5826,1.596 1.3992,1.5764"/>
     <path id="_45877712" class="fil14 str1" d="M162.318 70.1596c0.8873,0.0473 0.857,-1.5783 1.5156,-1.5789 0.722,-0.0005 0.5826,1.5961 1.3992,1.5764"/>
     <path id="_131665624" class="fil14 str1" d="M165.211 70.154c0.8873,0.0473 0.857,-1.5783 1.5156,-1.5789 0.722,-0.0005 0.5826,1.5961 1.3992,1.5765"/>
     <path id="_46575136" class="fil14 str1" d="M168.112 70.1483c0.8873,0.0474 0.857,-1.5782 1.5156,-1.5788 0.7221,-0.0005 0.5826,1.5961 1.3992,1.5765"/>
     <path id="_46413568" class="fil14 str1" d="M170.972 70.1465c0.8874,0.0473 0.857,-1.5783 1.5156,-1.5789 0.7221,-0.0005 0.5827,1.5961 1.3992,1.5765"/>
     <path id="_46426328" class="fil14 str1" d="M159.408 70.1592c0.8873,0.0474 0.857,-1.5783 1.5156,-1.5788 0.722,-0.0005 0.5827,1.5961 1.3992,1.5765"/>
    </g>
    <g>
     <path id="_45888520" class="fil14 str1" d="M173.869 70.1285c0.9362,-0.2196 0.8569,-1.5783 1.5156,-1.5787 0.722,-0.0006 0.4068,1.5772 1.3992,1.5764"/>
     <path id="_47578672" class="fil14 str1" d="M176.778 70.1229c0.8872,0.0473 0.8569,-1.5783 1.5156,-1.5787 0.722,-0.0006 0.5825,1.5959 1.3992,1.5764"/>
     <path id="_45514648" class="fil14 str1" d="M182.594 70.1277c0.8874,0.0474 0.857,-1.5783 1.5156,-1.5789 0.722,-0.0004 0.5827,1.5961 1.3992,1.5766"/>
     <path id="_46312840" class="fil14 str1" d="M185.487 70.1221c0.8873,0.0473 0.857,-1.5783 1.5156,-1.5789 0.7221,-0.0005 0.5826,1.5961 1.3992,1.5765"/>
     <path id="_45175264" class="fil14 str1" d="M188.387 70.1165c0.8872,0.0473 0.857,-1.5783 1.5156,-1.5789 0.722,-0.0005 0.5826,1.5961 1.3992,1.5765"/>
     <path id="_45179296" class="fil14 str1" d="M191.249 70.1146c0.8873,0.0473 0.857,-1.5783 1.5156,-1.5789 0.722,-0.0005 0.5826,1.5961 1.3992,1.5765"/>
     <path id="_130973952" class="fil14 str1" d="M179.688 70.1274c0.8872,0.0473 0.857,-1.5783 1.5156,-1.5789 0.722,-0.0005 0.5825,1.5961 1.3992,1.5765"/>
    </g>
   </g>
   <ellipse id="_142455896" class="fil15 str1" cx="14.8899" cy="67.0822" rx="0.377462" ry="0.323556"/>
   <ellipse id="_142458224" class="fil15 str1" cx="32.2996" cy="67.1224" rx="0.377462" ry="0.323556"/>
   <ellipse id="_142461336" class="fil15 str1" cx="50.138" cy="67.1175" rx="0.377462" ry="0.323556"/>
   <ellipse id="_142469072" class="fil15 str1" cx="68.773" cy="66.9062" rx="0.377462" ry="0.323556"/>
   <ellipse id="_142472432" class="fil15 str1" cx="87.027" cy="66.9062" rx="0.377462" ry="0.323556"/>
   <ellipse id="_142479152" class="fil15 str1" cx="105.28" cy="66.9062" rx="0.377462" ry="0.323556"/>
   <ellipse id="_142482520" class="fil15 str1" cx="123.535" cy="66.9062" rx="0.377462" ry="0.323556"/>
   <ellipse id="_142481472" class="fil15 str1" cx="141.789" cy="66.9062" rx="0.377462" ry="0.323556"/>
   <ellipse id="_142485208" class="fil15 str1" cx="160.042" cy="66.9062" rx="0.377462" ry="0.323556"/>
   <ellipse id="_142488960" class="fil15 str1" cx="178.296" cy="66.9062" rx="0.377462" ry="0.323556"/>
   <ellipse id="_142495712" class="fil15 str1" cx="17.6429" cy="67.8605" rx="0.377462" ry="0.323556"/>
   <ellipse id="_142498984" class="fil15 str1" cx="35.0524" cy="67.9007" rx="0.377462" ry="0.323556"/>
   <ellipse id="_142497816" class="fil15 str1" cx="52.891" cy="67.8958" rx="0.377462" ry="0.323556"/>
   <ellipse id="_142501592" class="fil15 str1" cx="71.526" cy="67.6845" rx="0.377462" ry="0.323556"/>
   <ellipse id="_142505320" class="fil15 str1" cx="89.7799" cy="67.6845" rx="0.377462" ry="0.323556"/>
   <ellipse id="_142512072" class="fil15 str1" cx="108.034" cy="67.6845" rx="0.377462" ry="0.323556"/>
   <ellipse id="_142515344" class="fil15 str1" cx="126.289" cy="67.6845" rx="0.377462" ry="0.323556"/>
   <ellipse id="_142514232" class="fil15 str1" cx="144.542" cy="67.6845" rx="0.377462" ry="0.323556"/>
   <ellipse id="_142523912" class="fil15 str1" cx="162.796" cy="67.6845" rx="0.377462" ry="0.323556"/>
   <ellipse id="_142518432" class="fil15 str1" cx="181.05" cy="67.6845" rx="0.377462" ry="0.323556"/>
   <ellipse id="_142528432" class="fil15 str1" cx="19.6692" cy="67.0752" rx="0.377462" ry="0.323556"/>
   <ellipse id="_142531704" class="fil15 str1" cx="37.0787" cy="67.1154" rx="0.377462" ry="0.323556"/>
   <ellipse id="_142530600" class="fil15 str1" cx="54.9173" cy="67.1105" rx="0.377462" ry="0.323556"/>
   <ellipse id="_142534360" class="fil15 str1" cx="73.5522" cy="66.8992" rx="0.377462" ry="0.323556"/>
   <ellipse id="_142538104" class="fil15 str1" cx="91.8062" cy="66.8992" rx="0.377462" ry="0.323556"/>
   <ellipse id="_142544856" class="fil15 str1" cx="110.06" cy="66.8992" rx="0.377462" ry="0.323556"/>
   <ellipse id="_142548128" class="fil15 str1" cx="128.315" cy="66.8992" rx="0.377462" ry="0.323556"/>
   <ellipse id="_142547016" class="fil15 str1" cx="146.568" cy="66.8992" rx="0.377462" ry="0.323556"/>
   <ellipse id="_142550744" class="fil15 str1" cx="164.822" cy="66.8992" rx="0.377462" ry="0.323556"/>
   <ellipse id="_142554464" class="fil15 str1" cx="183.077" cy="66.8992" rx="0.377462" ry="0.323556"/>
   <ellipse id="_142561216" class="fil15 str1" cx="22.312" cy="67.3269" rx="0.377462" ry="0.323556"/>
   <ellipse id="_142564496" class="fil15 str1" cx="39.7215" cy="67.3671" rx="0.377462" ry="0.323556"/>
   <ellipse id="_142563384" class="fil15 str1" cx="57.5601" cy="67.3622" rx="0.377462" ry="0.323556"/>
   <ellipse id="_142573064" class="fil15 str1" cx="76.1951" cy="67.1509" rx="0.377462" ry="0.323556"/>
   <ellipse id="_142567584" class="fil15 str1" cx="94.4491" cy="67.1509" rx="0.377462" ry="0.323556"/>
   <ellipse id="_142577584" class="fil15 str1" cx="112.703" cy="67.1509" rx="0.377462" ry="0.323556"/>
   <ellipse id="_142580856" class="fil15 str1" cx="130.957" cy="67.1509" rx="0.377462" ry="0.323556"/>
   <ellipse id="_142579752" class="fil15 str1" cx="149.212" cy="67.1509" rx="0.377462" ry="0.323556"/>
   <ellipse id="_142583512" class="fil15 str1" cx="167.465" cy="67.1509" rx="0.377462" ry="0.323556"/>
   <ellipse id="_142587256" class="fil15 str1" cx="185.719" cy="67.1509" rx="0.377462" ry="0.323556"/>
   <ellipse id="_142594008" class="fil15 str1" cx="25.1782" cy="67.1877" rx="0.377462" ry="0.323556"/>
   <ellipse id="_142597280" class="fil15 str1" cx="42.5878" cy="67.2279" rx="0.377462" ry="0.323556"/>
   <ellipse id="_142596168" class="fil15 str1" cx="60.4264" cy="67.223" rx="0.377462" ry="0.323556"/>
   <ellipse id="_142599896" class="fil15 str1" cx="79.0614" cy="67.0117" rx="0.377462" ry="0.323556"/>
   <ellipse id="_142603616" class="fil15 str1" cx="97.3157" cy="67.0117" rx="0.377462" ry="0.323556"/>
   <ellipse id="_142610368" class="fil15 str1" cx="115.569" cy="67.0117" rx="0.377462" ry="0.323556"/>
   <ellipse id="_142613648" class="fil15 str1" cx="133.824" cy="67.0117" rx="0.377462" ry="0.323556"/>
   <ellipse id="_142612536" class="fil15 str1" cx="152.078" cy="67.0117" rx="0.377462" ry="0.323556"/>
   <ellipse id="_142622216" class="fil15 str1" cx="170.331" cy="67.0117" rx="0.377462" ry="0.323556"/>
   <ellipse id="_142616736" class="fil15 str1" cx="188.586" cy="67.0117" rx="0.377462" ry="0.323556"/>
   <ellipse id="_142626736" class="fil15 str1" cx="27.828" cy="67.7275" rx="0.377462" ry="0.323556"/>
   <ellipse id="_142630008" class="fil15 str1" cx="45.2377" cy="67.7678" rx="0.377462" ry="0.323556"/>
   <ellipse id="_142628904" class="fil15 str1" cx="63.0761" cy="67.7627" rx="0.377462" ry="0.323556"/>
   <ellipse id="_142632664" class="fil15 str1" cx="81.7112" cy="67.5515" rx="0.377462" ry="0.323556"/>
   <ellipse id="_142636408" class="fil15 str1" cx="99.9658" cy="67.5515" rx="0.377462" ry="0.323556"/>
   <ellipse id="_142643160" class="fil15 str1" cx="118.219" cy="67.5515" rx="0.377462" ry="0.323556"/>
   <ellipse id="_142646432" class="fil15 str1" cx="136.473" cy="67.5515" rx="0.377462" ry="0.323556"/>
   <ellipse id="_142645320" class="fil15 str1" cx="154.728" cy="67.5515" rx="0.377462" ry="0.323556"/>
   <ellipse id="_142649048" class="fil15 str1" cx="172.981" cy="67.5515" rx="0.377462" ry="0.323556"/>
   <ellipse id="_142652768" class="fil15 str1" cx="191.235" cy="67.5515" rx="0.377462" ry="0.323556"/>
   <ellipse id="_142659520" class="fil15 str1" cx="30.2239" cy="67.0436" rx="0.377462" ry="0.323556"/>
   <ellipse id="_142662800" class="fil15 str1" cx="47.6336" cy="67.0838" rx="0.377462" ry="0.323556"/>
   <ellipse id="_142661688" class="fil15 str1" cx="65.472" cy="67.0788" rx="0.377462" ry="0.323556"/>
   <ellipse id="_142671368" class="fil15 str1" cx="84.1071" cy="66.8674" rx="0.377462" ry="0.323556"/>
   <ellipse id="_142665888" class="fil15 str1" cx="102.361" cy="66.8674" rx="0.377462" ry="0.323556"/>
   <ellipse id="_142675888" class="fil15 str1" cx="120.615" cy="66.8674" rx="0.377462" ry="0.323556"/>
   <ellipse id="_142679160" class="fil15 str1" cx="138.87" cy="66.8674" rx="0.377462" ry="0.323556"/>
   <ellipse id="_142678056" class="fil15 str1" cx="157.123" cy="66.8674" rx="0.377462" ry="0.323556"/>
   <ellipse id="_142681816" class="fil15 str1" cx="175.377" cy="66.8674" rx="0.377462" ry="0.323556"/>
   <ellipse id="_142685560" class="fil15 str1" cx="193.632" cy="66.8674" rx="0.377462" ry="0.323556"/>
  </g>
 </g>
</svg>
