<?xml version="1.0" encoding="UTF-8"?>
<!DOCTYPE svg PUBLIC "-//W3C//DTD SVG 1.1//EN" "http://www.w3.org/Graphics/SVG/1.1/DTD/svg11.dtd">
<!-- Creator: CorelDRAW -->
<svg xmlns="http://www.w3.org/2000/svg" xml:space="preserve" width="210mm" height="297mm" style="shape-rendering:geometricPrecision; text-rendering:geometricPrecision; image-rendering:optimizeQuality; fill-rule:evenodd; clip-rule:evenodd"
viewBox="0 0 210 297"
 xmlns:xlink="http://www.w3.org/1999/xlink">
 <defs>
  <style type="text/css">
   <![CDATA[
    .str2 {stroke:#825C1C;stroke-width:0.0762}
    .str0 {stroke:#ECDB81;stroke-width:0.0762}
    .str3 {stroke:#825C1C;stroke-width:0.13}
    .str1 {stroke:#DA251D;stroke-width:0.5}
    .fil1 {fill:none}
    .fil2 {fill:#CA7B47}
    .fil0 {fill:#ECDB81}
    .fil3 {fill:#EDC653}
    .fil4 {fill:url(#id0)}
    .fil6 {fill:url(#id1)}
    .fil8 {fill:url(#id2)}
    .fil7 {fill:url(#id3)}
    .fil9 {fill:url(#id4)}
    .fil5 {fill:url(#id5)}
   ]]>
  </style>
  <radialGradient id="id0" gradientUnits="userSpaceOnUse" cx="19.9425" cy="82.5294" r="3.5422" fx="19.9425" fy="82.5294">
   <stop offset="0" style="stop-color:#F0F0CE"/>
   <stop offset="1" style="stop-color:#F0DE82"/>
   <stop offset="1" style="stop-color:#F0DE82"/>
  </radialGradient>
  <radialGradient id="id1" gradientUnits="userSpaceOnUse" cx="19.9425" cy="91.2771" r="3.5422" fx="19.9425" fy="91.2771">
   <stop offset="0" style="stop-color:#EEEECA"/>
   <stop offset="1" style="stop-color:#EBD97F"/>
   <stop offset="1" style="stop-color:#EBD97F"/>
  </radialGradient>
  <radialGradient id="id2" gradientUnits="userSpaceOnUse" cx="19.9425" cy="99.9871" r="3.5422" fx="19.9425" fy="99.9871">
   <stop offset="0" style="stop-color:#EFEFCA"/>
   <stop offset="1" style="stop-color:#ECDB81"/>
   <stop offset="1" style="stop-color:#ECDB81"/>
  </radialGradient>
  <radialGradient id="id3" gradientUnits="userSpaceOnUse" cx="185.712" cy="91.2255" r="3.5422" fx="185.712" fy="91.2255">
   <stop offset="0" style="stop-color:#F2F2D3"/>
   <stop offset="1" style="stop-color:#EDDC85"/>
   <stop offset="1" style="stop-color:#EDDC85"/>
  </radialGradient>
  <radialGradient id="id4" gradientUnits="userSpaceOnUse" cx="185.712" cy="99.9354" r="3.5422" fx="185.712" fy="99.9354">
   <stop offset="0" style="stop-color:#F2F2C6"/>
   <stop offset="1" style="stop-color:#EDDB82"/>
   <stop offset="1" style="stop-color:#EDDB82"/>
  </radialGradient>
  <radialGradient id="id5" gradientUnits="userSpaceOnUse" cx="185.712" cy="81.0362" r="3.5422" fx="185.712" fy="81.0362">
   <stop offset="0" style="stop-color:#EDEDC2"/>
   <stop offset="1" style="stop-color:#EDDB82"/>
   <stop offset="1" style="stop-color:#EDDB82"/>
  </radialGradient>
 </defs>
 <g id="Слой_x0020_1">
  <metadata id="CorelCorpID_0Corel-Layer"/>
  <g id="_46323608">
   <polygon id="_47111888" class="fil0 str0" points="13.8083,78.1636 13.8083,75.384 105.088,25.2412 196.257,75.4952 196.59,78.2746 192.478,78.3859 106.867,30.4668 103.532,30.4668 18.1444,78.1636 "/>
   <polygon id="_47099840" class="fil0 str0" points="103.532,30.4668 103.31,77.3853 107.09,77.3853 106.867,30.4668 "/>
   <polygon id="_47116344" class="fil0 str0" points="103.441,77.8401 103.188,85.7377 107.476,85.7377 107.223,77.8401 "/>
   <polygon id="_47116504" class="fil0 str0" points="66.8578,50.9526 143.344,50.8842 148.904,53.9962 60.838,54.3151 "/>
   <polygon id="_47121080" class="fil0 str0" points="72.4202,47.8454 102.141,78.0394 103.064,78.0371 108.591,78.0232 137.974,47.8783 135.109,46.2749 107.074,73.9392 103.326,73.9215 75.974,45.8603 "/>
   <path id="_47123984" class="fil1 str1" d="M19.5763 79.7572l-17.7995 0 103.014 -57.1809 103.511 57.0177 -18.1228 0.2223m-170.603 -0.0591z"/>
   <polygon id="_47124528" class="fil2 str2" points="22.3641,78.1977 185.702,77.7829 181.601,81.3965 26.2407,81.773 "/>
   <polygon id="_47126808" class="fil3 str2" points="21.3995,76.4608 188.044,76.0237 191.198,77.7805 18.1443,78.1634 "/>
   <polygon id="_47129504" class="fil3 str2" points="25.9108,81.7925 182.362,81.4089 182.971,83.4164 25.8974,83.7016 "/>
   <ellipse id="_46771288" class="fil4 str0" cx="21.2813" cy="82.7096" rx="5.14916" ry="4.50548"/>
   <ellipse id="_47147720" class="fil5 str0" cx="186.433" cy="82.2977" rx="5.14916" ry="4.50548"/>
   <ellipse id="_47156208" class="fil6 str0" cx="21.2813" cy="91.7276" rx="5.14916" ry="4.50548"/>
   <ellipse id="_47165144" class="fil7 str0" cx="186.433" cy="91.3156" rx="5.14916" ry="4.50548"/>
   <ellipse id="_47174208" class="fil8 str0" cx="21.2813" cy="100.708" rx="5.14916" ry="4.50548"/>
   <ellipse id="_47183272" class="fil9 str0" cx="186.433" cy="100.296" rx="5.14916" ry="4.50548"/>
   <g id="_72071864">
    <line id="_72065248" class="fil1 str3" x1="36.4347" y1="78.1065" x2="36.4434" y2= "81.8038" />
    <line id="_72071992" class="fil1 str3" x1="52.9102" y1="78.0639" x2="52.9189" y2= "81.7608" />
    <line id="_72199096" class="fil1 str3" x1="69.1522" y1="78.0227" x2="69.161" y2= "81.724" />
    <line id="_72376240" class="fil1 str3" x1="84.725" y1="78.057" x2="84.7338" y2= "81.6434" />
    <line id="_72094824" class="fil1 str3" x1="102.146" y1="77.9394" x2="102.154" y2= "81.6557" />
    <line id="_72199848" class="fil1 str3" x1="115.434" y1="77.9125" x2="115.442" y2= "81.6076" />
    <line id="_72769024" class="fil1 str3" x1="132.77" y1="77.8644" x2="132.779" y2= "81.5702" />
    <line id="_72070200" class="fil1 str3" x1="148.135" y1="77.8233" x2="148.144" y2= "81.5333" />
    <line id="_72071888" class="fil1 str3" x1="168.164" y1="77.7721" x2="168.172" y2= "81.4832" />
   </g>
   <g id="_72072712">
    <line id="_72070736" class="fil1 str3" x1="114.824" y1="76.2041" x2="114.829" y2= "78.0009" />
    <line id="_72196592" class="fil1 str3" x1="122.831" y1="76.1834" x2="122.836" y2= "77.98" />
    <line id="_72198608" class="fil1 str3" x1="130.725" y1="76.1635" x2="130.729" y2= "77.9621" />
    <line id="_72056688" class="fil1 str3" x1="138.292" y1="76.1801" x2="138.297" y2= "77.923" />
    <line id="_72196696" class="fil1 str3" x1="146.758" y1="76.1229" x2="146.763" y2= "77.929" />
    <line id="_72072400" class="fil1 str3" x1="153.216" y1="76.1099" x2="153.22" y2= "77.9056" />
    <line id="_72094176" class="fil1 str3" x1="161.641" y1="76.0864" x2="161.645" y2= "77.8874" />
    <line id="_71966432" class="fil1 str3" x1="169.108" y1="76.0665" x2="169.113" y2= "77.8695" />
    <line id="_73027432" class="fil1 str3" x1="178.841" y1="76.0415" x2="178.845" y2= "77.8451" />
   </g>
   <g id="_72013280">
    <line id="_72071344" class="fil1 str3" x1="106.951" y1="81.6643" x2="106.956" y2= "83.5763" />
    <line id="_72071464" class="fil1 str3" x1="115.471" y1="81.6422" x2="115.476" y2= "83.5541" />
    <line id="_72071552" class="fil1 str3" x1="123.87" y1="81.621" x2="123.875" y2= "83.535" />
    <line id="_72199024" class="fil1 str3" x1="131.924" y1="81.6387" x2="131.928" y2= "83.4933" />
    <line id="_72094064" class="fil1 str3" x1="140.932" y1="81.5779" x2="140.937" y2= "83.4997" />
    <line id="_72198456" class="fil1 str3" x1="147.804" y1="81.564" x2="147.808" y2= "83.4748" />
    <line id="_71952472" class="fil1 str3" x1="156.768" y1="81.5391" x2="156.773" y2= "83.4555" />
    <line id="_72071112" class="fil1 str3" x1="164.714" y1="81.5178" x2="164.718" y2= "83.4365" />
    <line id="_72394976" class="fil1 str3" x1="175.071" y1="81.4913" x2="175.076" y2= "83.4104" />
   </g>
   <g id="_72142760">
    <line id="_73027520" class="fil1 str3" x1="28.5436" y1="81.7345" x2="28.5481" y2= "83.6465" />
    <line id="_72198920" class="fil1 str3" x1="37.0635" y1="81.7124" x2="37.068" y2= "83.6243" />
    <line id="_72230544" class="fil1 str3" x1="45.4628" y1="81.6912" x2="45.4673" y2= "83.6052" />
    <line id="_71952368" class="fil1 str3" x1="53.5158" y1="81.7089" x2="53.5203" y2= "83.5635" />
    <line id="_71952264" class="fil1 str3" x1="62.5244" y1="81.6482" x2="62.5289" y2= "83.5699" />
    <line id="_72065640" class="fil1 str3" x1="69.3959" y1="81.6342" x2="69.4004" y2= "83.545" />
    <line id="_72233464" class="fil1 str3" x1="78.3606" y1="81.6093" x2="78.3653" y2= "83.5257" />
    <line id="_71946016" class="fil1 str3" x1="86.3066" y1="81.588" x2="86.3113" y2= "83.5067" />
    <line id="_71999888" class="fil1 str3" x1="96.6638" y1="81.5615" x2="96.6683" y2= "83.4806" />
   </g>
   <g id="_72421344">
    <line id="_72227400" class="fil1 str3" x1="42.5076" y1="76.4028" x2="42.5119" y2= "78.1996" />
    <line id="_73027336" class="fil1 str3" x1="50.5143" y1="76.3821" x2="50.5186" y2= "78.1787" />
    <line id="_72117976" class="fil1 str3" x1="58.4075" y1="76.3622" x2="58.4119" y2= "78.1608" />
    <line id="_72503832" class="fil1 str3" x1="65.9754" y1="76.3788" x2="65.9798" y2= "78.1217" />
    <line id="_71676664" class="fil1 str3" x1="74.4414" y1="76.3217" x2="74.4456" y2= "78.1277" />
    <line id="_72436912" class="fil1 str3" x1="80.899" y1="76.3086" x2="80.9032" y2= "78.1043" />
    <line id="_72229488" class="fil1 str3" x1="89.3237" y1="76.2852" x2="89.3279" y2= "78.0861" />
    <line id="_72014024" class="fil1 str3" x1="96.791" y1="76.2653" x2="96.7954" y2= "78.0682" />
    <line id="_71952168" class="fil1 str3" x1="106.524" y1="76.2402" x2="106.528" y2= "78.0438" />
   </g>
   <line id="_140903952" class="fil1 str3" x1="-28.661" y1="76.5742" x2="-28.6568" y2= "78.371" />
   <line id="_140907016" class="fil1 str3" x1="25.6224" y1="76.4366" x2="25.6267" y2= "78.2396" />
   <line id="_140910024" class="fil1 str3" x1="35.3556" y1="76.4116" x2="35.3598" y2= "78.2152" />
  </g>
 </g>
</svg>
