<?xml version="1.0" encoding="UTF-8"?>
<!DOCTYPE svg PUBLIC "-//W3C//DTD SVG 1.1//EN" "http://www.w3.org/Graphics/SVG/1.1/DTD/svg11.dtd">
<!-- Creator: CorelDRAW -->
<svg xmlns="http://www.w3.org/2000/svg" xml:space="preserve" width="210mm" height="297mm" style="shape-rendering:geometricPrecision; text-rendering:geometricPrecision; image-rendering:optimizeQuality; fill-rule:evenodd; clip-rule:evenodd"
viewBox="0 0 210 297"
 xmlns:xlink="http://www.w3.org/1999/xlink">
 <defs>
  <style type="text/css">
   <![CDATA[
    .str1 {stroke:#825C1C;stroke-width:0.0762}
    .str0 {stroke:#ECDB81;stroke-width:0.0762}
    .str2 {stroke:#825C1C;stroke-width:0.13}
    .fil14 {fill:none}
    .fil1 {fill:#E0C172}
    .fil0 {fill:#ECDB81}
    .fil8 {fill:url(#id0)}
    .fil12 {fill:url(#id1)}
    .fil4 {fill:url(#id2)}
    .fil13 {fill:url(#id3)}
    .fil9 {fill:url(#id4)}
    .fil6 {fill:url(#id5)}
    .fil2 {fill:url(#id6)}
    .fil10 {fill:url(#id7)}
    .fil5 {fill:url(#id8)}
    .fil7 {fill:url(#id9)}
    .fil11 {fill:url(#id10)}
    .fil3 {fill:url(#id11)}
   ]]>
  </style>
  <linearGradient id="id0" gradientUnits="userSpaceOnUse" x1="196.456" y1="53.3377" x2="208.642" y2="53.3377">
   <stop offset="0" style="stop-color:#E8D679"/>
   <stop offset="1" style="stop-color:#F0E8A1"/>
  </linearGradient>
  <linearGradient id="id1" gradientUnits="userSpaceOnUse" x1="196.456" y1="63.9645" x2="208.642" y2="63.9645">
   <stop offset="0" style="stop-color:#F0DF8B"/>
   <stop offset="1" style="stop-color:#F7ECB2"/>
  </linearGradient>
  <linearGradient id="id2" gradientUnits="userSpaceOnUse" x1="196.456" y1="42.6663" x2="208.642" y2="42.6663">
   <stop offset="0" style="stop-color:#F7E794"/>
   <stop offset="1" style="stop-color:#FAE9B1"/>
  </linearGradient>
  <linearGradient id="id3" gradientUnits="userSpaceOnUse" x1="1.0239" y1="64.8382" x2="13.2105" y2="64.8382">
   <stop offset="0" style="stop-color:#E8D67B"/>
   <stop offset="1" style="stop-color:#F5E79B"/>
  </linearGradient>
  <linearGradient id="id4" gradientUnits="userSpaceOnUse" x1="1.0239" y1="54.2114" x2="13.2105" y2="54.2114">
   <stop offset="0" style="stop-color:#EDDD8E"/>
   <stop offset="1" style="stop-color:#F7EEA8"/>
  </linearGradient>
  <radialGradient id="id5" gradientUnits="userSpaceOnUse" cx="3.8268" cy="85.4523" r="2.9754" fx="3.8268" fy="85.4523">
   <stop offset="0" style="stop-color:#EEEECA"/>
   <stop offset="1" style="stop-color:#EBD97F"/>
   <stop offset="1" style="stop-color:#EBD97F"/>
  </radialGradient>
  <radialGradient id="id6" gradientUnits="userSpaceOnUse" cx="3.8268" cy="73.5013" r="2.9754" fx="3.8268" fy="73.5013">
   <stop offset="0" style="stop-color:#F0F0CE"/>
   <stop offset="1" style="stop-color:#F0DE82"/>
   <stop offset="1" style="stop-color:#F0DE82"/>
  </radialGradient>
  <radialGradient id="id7" gradientUnits="userSpaceOnUse" cx="3.8268" cy="94.0533" r="2.9754" fx="3.8268" fy="94.0533">
   <stop offset="0" style="stop-color:#EFEFCA"/>
   <stop offset="1" style="stop-color:#ECDB81"/>
   <stop offset="1" style="stop-color:#ECDB81"/>
  </radialGradient>
  <radialGradient id="id8" gradientUnits="userSpaceOnUse" cx="5.6548" cy="42.4736" r="2.9754" fx="5.6548" fy="42.4736">
   <stop offset="0" style="stop-color:#F0E8AA"/>
   <stop offset="1" style="stop-color:#F2E294"/>
   <stop offset="1" style="stop-color:#F2E294"/>
  </radialGradient>
  <radialGradient id="id9" gradientUnits="userSpaceOnUse" cx="201.696" cy="83.7918" r="2.9754" fx="201.696" fy="83.7918">
   <stop offset="0" style="stop-color:#F2F2D3"/>
   <stop offset="1" style="stop-color:#EDDC85"/>
   <stop offset="1" style="stop-color:#EDDC85"/>
  </radialGradient>
  <radialGradient id="id10" gradientUnits="userSpaceOnUse" cx="201.696" cy="94.0987" r="2.9754" fx="201.696" fy="94.0987">
   <stop offset="0" style="stop-color:#F2F2C6"/>
   <stop offset="1" style="stop-color:#EDDB82"/>
   <stop offset="1" style="stop-color:#EDDB82"/>
  </radialGradient>
  <radialGradient id="id11" gradientUnits="userSpaceOnUse" cx="201.696" cy="71.7341" r="2.9754" fx="201.696" fy="71.7341">
   <stop offset="0" style="stop-color:#EDEDC2"/>
   <stop offset="1" style="stop-color:#EDDB82"/>
   <stop offset="1" style="stop-color:#EDDB82"/>
  </radialGradient>
 </defs>
 <g id="Слой_x0020_1">
  <metadata id="CorelCorpID_0Corel-Layer"/>
  <g id="_44618776">
   <polygon id="_45692456" class="fil0 str0" points="53.4226,71.4735 53.3519,83.5426 64.4661,83.5426 64.5041,71.4735 "/>
   <polygon id="_45394832" class="fil0 str0" points="143.558,71.7802 143.488,83.8493 154.602,83.8493 154.64,71.7802 "/>
   <polygon id="_45396648" class="fil1 str1" points="7.6355,70.0014 201.684,69.4839 196.833,73.7602 12.986,74.2057 "/>
   <polygon id="_45398408" class="fil1 str1" points="6.3937,67.7316 201.799,67.4828 202.131,69.7019 7.2933,69.9221 "/>
   <ellipse id="_45171848" class="fil2 str0" cx="7.11718" cy="75.314" rx="6.09328" ry="5.33157"/>
   <ellipse id="_45489208" class="fil3 str0" cx="202.549" cy="74.8265" rx="6.09328" ry="5.33157"/>
   <ellipse id="_45548496" class="fil4 str0" cx="202.549" cy="42.6663" rx="6.09328" ry="5.33157"/>
   <ellipse id="_45557328" class="fil5 str0" cx="7.11718" cy="43.5399" rx="6.09328" ry="5.33157"/>
   <ellipse id="_45565104" class="fil6 str0" cx="7.11718" cy="85.9854" rx="6.09328" ry="5.33157"/>
   <ellipse id="_45590392" class="fil7 str0" cx="202.549" cy="85.4979" rx="6.09328" ry="5.33157"/>
   <ellipse id="_45597936" class="fil8 str0" cx="202.549" cy="53.3377" rx="6.09328" ry="5.33157"/>
   <ellipse id="_45605888" class="fil9 str0" cx="7.11718" cy="54.2114" rx="6.09328" ry="5.33157"/>
   <ellipse id="_45615488" class="fil10 str0" cx="7.11718" cy="96.6124" rx="6.09328" ry="5.33157"/>
   <ellipse id="_45624728" class="fil11 str0" cx="202.549" cy="96.1248" rx="6.09328" ry="5.33157"/>
   <ellipse id="_45788112" class="fil12 str0" cx="202.549" cy="63.9645" rx="6.09328" ry="5.33157"/>
   <ellipse id="_45795984" class="fil13 str0" cx="7.11718" cy="64.8382" rx="6.09328" ry="5.33157"/>
   <g id="_45168152">
    <line id="_45176112" class="fil14 str2" x1="25.049" y1="69.8668" x2="25.0593" y2= "74.2422" />
    <line id="_45175224" class="fil14 str2" x1="44.5452" y1="69.8164" x2="44.5555" y2= "74.1912" />
    <line id="_45174304" class="fil14 str2" x1="63.7653" y1="69.7678" x2="63.7756" y2= "74.1477" />
    <line id="_45173416" class="fil14 str2" x1="82.1934" y1="69.8084" x2="82.2037" y2= "74.0523" />
    <line id="_45172528" class="fil14 str2" x1="102.809" y1="69.6692" x2="102.819" y2= "74.0669" />
    <line id="_45171640" class="fil14 str2" x1="118.533" y1="69.6374" x2="118.543" y2= "74.0099" />
    <line id="_45170752" class="fil14 str2" x1="139.048" y1="69.5804" x2="139.058" y2= "73.9657" />
    <line id="_45169864" class="fil14 str2" x1="157.23" y1="69.5318" x2="157.241" y2= "73.922" />
    <line id="_45168336" class="fil14 str2" x1="180.93" y1="69.4712" x2="180.94" y2= "73.8627" />
   </g>
   <g id="_45214112">
    <line id="_45503344" class="fil14 str2" x1="25.0421" y1="67.7577" x2="25.0524" y2= "69.9369" />
    <line id="_45924064" class="fil14 str2" x1="44.5383" y1="67.7324" x2="44.5486" y2= "69.9116" />
    <line id="_45219552" class="fil14 str2" x1="63.7584" y1="67.7083" x2="63.7687" y2= "69.8899" />
    <line id="_45236800" class="fil14 str2" x1="82.1865" y1="67.7285" x2="82.1968" y2= "69.8422" />
    <line id="_45421328" class="fil14 str2" x1="102.802" y1="67.6593" x2="102.812" y2= "69.8496" />
    <line id="_45503440" class="fil14 str2" x1="118.526" y1="67.6433" x2="118.536" y2= "69.8211" />
    <line id="_45230848" class="fil14 str2" x1="139.041" y1="67.6149" x2="139.051" y2= "69.7992" />
    <line id="_45231776" class="fil14 str2" x1="157.224" y1="67.5907" x2="157.234" y2= "69.7774" />
    <line id="_45232864" class="fil14 str2" x1="180.924" y1="67.5606" x2="180.935" y2= "69.7478" />
   </g>
   <g id="_45214112_0">
    <line id="_45503344_1" class="fil14 str2" x1="25.1065" y1="67.7286" x2="25.1168" y2= "69.908" />
    <line id="_45924064_2" class="fil14 str2" x1="44.6028" y1="67.7034" x2="44.6131" y2= "69.8827" />
    <line id="_45219552_3" class="fil14 str2" x1="63.8229" y1="67.6793" x2="63.8332" y2= "69.861" />
    <line id="_45236800_4" class="fil14 str2" x1="82.251" y1="67.6994" x2="82.2613" y2= "69.8133" />
    <line id="_45421328_5" class="fil14 str2" x1="102.865" y1="67.6302" x2="102.876" y2= "69.8207" />
    <line id="_45503440_6" class="fil14 str2" x1="118.59" y1="67.6143" x2="118.6" y2= "69.7922" />
    <line id="_45230848_7" class="fil14 str2" x1="139.105" y1="67.5859" x2="139.115" y2= "69.7703" />
    <line id="_45231776_8" class="fil14 str2" x1="157.287" y1="67.5616" x2="157.297" y2= "69.7485" />
    <line id="_45232864_9" class="fil14 str2" x1="180.988" y1="67.5315" x2="180.998" y2= "69.7189" />
   </g>
  </g>
 </g>
</svg>
