<?xml version="1.0" encoding="UTF-8"?>
<!DOCTYPE svg PUBLIC "-//W3C//DTD SVG 1.1//EN" "http://www.w3.org/Graphics/SVG/1.1/DTD/svg11.dtd">
<!-- Creator: CorelDRAW -->
<svg xmlns="http://www.w3.org/2000/svg" xml:space="preserve" width="210mm" height="297mm" style="shape-rendering:geometricPrecision; text-rendering:geometricPrecision; image-rendering:optimizeQuality; fill-rule:evenodd; clip-rule:evenodd"
viewBox="0 0 210 297"
 xmlns:xlink="http://www.w3.org/1999/xlink">
 <defs>
  <style type="text/css">
   <![CDATA[
    .str0 {stroke:#472007;stroke-width:0.0762}
    .str2 {stroke:#825C1C;stroke-width:0.0762}
    .str4 {stroke:#8F0E2A;stroke-width:0.0762}
    .str1 {stroke:#ECDB81;stroke-width:0.0762}
    .str3 {stroke:#825C1C;stroke-width:0.13}
    .fil9 {fill:none}
    .fil0 {fill:#472007}
    .fil10 {fill:#6B2829}
    .fil2 {fill:#E0C172}
    .fil1 {fill:#ECDB81}
    .fil5 {fill:url(#id0)}
    .fil3 {fill:url(#id1)}
    .fil7 {fill:url(#id2)}
    .fil4 {fill:url(#id3)}
    .fil8 {fill:url(#id4)}
    .fil6 {fill:url(#id5)}
   ]]>
  </style>
  <radialGradient id="id0" gradientUnits="userSpaceOnUse" cx="7.2404" cy="54.0539" r="2.9991" fx="7.2404" fy="54.0539">
   <stop offset="0" style="stop-color:#EEEECA"/>
   <stop offset="1" style="stop-color:#EBD97F"/>
   <stop offset="1" style="stop-color:#EBD97F"/>
  </radialGradient>
  <radialGradient id="id1" gradientUnits="userSpaceOnUse" cx="7.2404" cy="43.5176" r="2.9991" fx="7.2404" fy="43.5176">
   <stop offset="0" style="stop-color:#F0F0CE"/>
   <stop offset="1" style="stop-color:#F0DE82"/>
   <stop offset="1" style="stop-color:#F0DE82"/>
  </radialGradient>
  <radialGradient id="id2" gradientUnits="userSpaceOnUse" cx="7.2404" cy="64.4411" r="2.9991" fx="7.2404" fy="64.4411">
   <stop offset="0" style="stop-color:#EFEFCA"/>
   <stop offset="1" style="stop-color:#ECDB81"/>
   <stop offset="1" style="stop-color:#ECDB81"/>
  </radialGradient>
  <radialGradient id="id3" gradientUnits="userSpaceOnUse" cx="201.642" cy="43.4979" r="2.9991" fx="201.642" fy="43.4979">
   <stop offset="0" style="stop-color:#EDEDC2"/>
   <stop offset="1" style="stop-color:#EDDB82"/>
   <stop offset="1" style="stop-color:#EDDB82"/>
  </radialGradient>
  <radialGradient id="id4" gradientUnits="userSpaceOnUse" cx="201.642" cy="64.5265" r="2.9991" fx="201.642" fy="64.5265">
   <stop offset="0" style="stop-color:#F2F2C6"/>
   <stop offset="1" style="stop-color:#EDDB82"/>
   <stop offset="1" style="stop-color:#EDDB82"/>
  </radialGradient>
  <radialGradient id="id5" gradientUnits="userSpaceOnUse" cx="201.642" cy="54.0343" r="2.9991" fx="201.642" fy="54.0343">
   <stop offset="0" style="stop-color:#F2F2D3"/>
   <stop offset="1" style="stop-color:#EDDC85"/>
   <stop offset="1" style="stop-color:#EDDC85"/>
  </radialGradient>
 </defs>
 <g id="Слой_x0020_1">
  <metadata id="CorelCorpID_0Corel-Layer"/>
  <g id="_46951584">
   <path id="_140926224" class="fil0 str0" d="M12.516 83.3597c26.3377,-3.8229 36.1141,-2.9603 52.7914,-3.2479 16.6773,-0.2875 43.1311,0.2876 49.457,0.5751 6.3258,0.2875 34.9831,-0.6978 34.9831,-0.6978 0,0 8.8587,0.2412 10.1606,0.9853 1.3021,0.7443 16.9675,-0.2385 17.8276,-0.2875 0.86,-0.0488 22.29,-2.383 22.29,-2.383l3.0954 6.8692c0,0 -60.7529,0.1145 -68.804,0.1145 -8.0511,0 -123.864,1.54 -123.864,1.54l2.0627 -3.4679 -0.0001 0z"/>
   <path id="_46760912" class="fil0 str0" d="M14.0136 82.5015l182.948 0c0.0095,0 0.0173,0.0078 0.0173,0.0174l0 5.2286c0,0.0094 -0.0078,0.0173 -0.0173,0.0173l-182.948 0c-0.0093,0 -0.0171,-0.0079 -0.0171,-0.0173l-0.0001 -5.2286c0.0001,-0.0096 0.0079,-0.0174 0.0174,-0.0174l-0.0002 0z"/>
   <polygon id="_46761352" class="fil1 str1" points="56.4021,73.0704 56.3673,79.0286 61.8541,79.0286 61.8727,73.0704 "/>
   <polygon id="_46761984" class="fil1 str1" points="147.718,72.8183 147.682,78.7764 153.17,78.7764 153.188,72.8183 "/>
   <polygon id="_141086464" class="fil2 str2" points="10.0382,71.617 201.63,71.1061 196.839,75.3282 15.3209,75.7681 "/>
   <polygon id="_141088640" class="fil2 str2" points="9.0449,69.3286 201.975,69.0831 202.303,71.2742 9.9332,71.4916 "/>
   <ellipse id="_46759240" class="fil3 str1" cx="9.52649" cy="45.2021" rx="6.01604" ry="5.26396"/>
   <ellipse id="_141106344" class="fil4 str1" cx="202.484" cy="44.6561" rx="6.01604" ry="5.26396"/>
   <ellipse id="_141116008" class="fil5 str1" cx="9.52649" cy="55.7384" rx="6.01604" ry="5.26396"/>
   <ellipse id="_141125696" class="fil6 str1" cx="202.484" cy="55.1924" rx="6.01604" ry="5.26396"/>
   <ellipse id="_141135480" class="fil7 str1" cx="9.52649" cy="66.2309" rx="6.01604" ry="5.26396"/>
   <ellipse id="_141145456" class="fil8 str1" cx="202.484" cy="65.6846" rx="6.01604" ry="5.26396"/>
   <g id="_45168152">
    <line id="_45176112" class="fil9 str3" x1="27.2312" y1="71.4841" x2="27.2414" y2= "75.804" />
    <line id="_45175224" class="fil9 str3" x1="46.4806" y1="71.4344" x2="46.4907" y2= "75.7538" />
    <line id="_45174304" class="fil9 str3" x1="65.4572" y1="71.3863" x2="65.4674" y2= "75.7108" />
    <line id="_45173416" class="fil9 str3" x1="83.6519" y1="71.4264" x2="83.6621" y2= "75.6166" />
    <line id="_45172528" class="fil9 str3" x1="104.005" y1="71.289" x2="104.016" y2= "75.631" />
    <line id="_45171640" class="fil9 str3" x1="119.531" y1="71.2576" x2="119.541" y2= "75.5747" />
    <line id="_45170752" class="fil9 str3" x1="139.786" y1="71.2014" x2="139.797" y2= "75.5311" />
    <line id="_45169864" class="fil9 str3" x1="157.738" y1="71.1533" x2="157.748" y2= "75.488" />
    <line id="_45168336" class="fil9 str3" x1="181.139" y1="71.0935" x2="181.149" y2= "75.4294" />
   </g>
   <g id="_45214112">
    <line id="_45503344" class="fil9 str3" x1="27.2366" y1="69.3046" x2="27.2467" y2= "71.4563" />
    <line id="_45924064" class="fil9 str3" x1="46.4861" y1="69.2797" x2="46.4962" y2= "71.4313" />
    <line id="_45219552" class="fil9 str3" x1="65.4626" y1="69.2558" x2="65.4729" y2= "71.4099" />
    <line id="_45236800" class="fil9 str3" x1="83.6574" y1="69.2757" x2="83.6675" y2= "71.3629" />
    <line id="_45421328" class="fil9 str3" x1="104.01" y1="69.2074" x2="104.021" y2= "71.3702" />
    <line id="_45503440" class="fil9 str3" x1="119.536" y1="69.1916" x2="119.546" y2= "71.3419" />
    <line id="_45230848" class="fil9 str3" x1="139.791" y1="69.1637" x2="139.801" y2= "71.3204" />
    <line id="_45231776" class="fil9 str3" x1="157.743" y1="69.1397" x2="157.754" y2= "71.2989" />
    <line id="_45232864" class="fil9 str3" x1="181.143" y1="69.1099" x2="181.154" y2= "71.2697" />
   </g>
   <g id="_45180272">
    <rect id="_46188832" class="fil10 str4" x="3.5037" y="70.5436" width="6.0563" height="1.7201"/>
    <rect id="_45182184" class="fil10 str4" x="3.54326" y="73.9891" width="6.0563" height="1.7201"/>
    <rect id="_131006664" class="fil10 str4" x="3.52441" y="77.4714" width="6.0563" height="1.7201"/>
    <rect id="_46178104" class="fil10 str4" x="9.56012" y="70.5412" width="5.93029" height="1.7201"/>
    <rect id="_45186088" class="fil10 str4" x="9.59956" y="73.9868" width="5.8734" height="1.7201"/>
    <rect id="_47036424" class="fil10 str4" x="9.58071" y="77.469" width="5.8734" height="1.7201"/>
    <rect id="_131006688" class="fil10 str4" x="6.72947" y="72.272" width="5.80429" height="1.7201"/>
    <rect id="_45188040" class="fil10 str4" x="6.76344" y="75.7398" width="5.80429" height="1.7201"/>
    <rect id="_46324584" class="fil10 str4" x="3.50359" y="72.2773" width="3.23822" height="1.7201"/>
    <rect id="_45178144" class="fil10 str4" x="3.53756" y="75.7452" width="3.23822" height="1.7201"/>
    <rect id="_45180232" class="fil10 str4" x="12.555" y="72.2739" width="2.91791" height="1.7201"/>
    <rect id="_45184784" class="fil10 str4" x="12.589" y="75.7417" width="2.91791" height="1.7201"/>
   </g>
   <g id="_46300832">
    <rect id="_131138232" class="fil10 str4" x="196.976" y="70.5161" width="6.0563" height="1.7201"/>
    <rect id="_131138640" class="fil10 str4" x="197.017" y="73.9616" width="6.0563" height="1.7201"/>
    <rect id="_131138736" class="fil10 str4" x="196.998" y="77.4438" width="6.0563" height="1.7201"/>
    <rect id="_131138280" class="fil10 str4" x="203.033" y="70.5136" width="5.93029" height="1.7201"/>
    <rect id="_131138928" class="fil10 str4" x="203.074" y="73.9592" width="5.8734" height="1.7201"/>
    <rect id="_46300280" class="fil10 str4" x="203.055" y="77.4415" width="5.8734" height="1.7201"/>
    <rect id="_131139168" class="fil10 str4" x="200.204" y="72.2446" width="5.80429" height="1.7201"/>
    <rect id="_46300016" class="fil10 str4" x="200.237" y="75.7123" width="5.80429" height="1.7201"/>
    <rect id="_46330568" class="fil10 str4" x="196.976" y="72.2498" width="3.23822" height="1.7201"/>
    <rect id="_46331872" class="fil10 str4" x="197.01" y="75.7176" width="3.23822" height="1.7201"/>
    <rect id="_46333176" class="fil10 str4" x="206.029" y="72.2464" width="2.91791" height="1.7201"/>
    <rect id="_46334480" class="fil10 str4" x="206.063" y="75.7142" width="2.91791" height="1.7201"/>
   </g>
   <g id="_131006520">
    <rect id="_130820400" class="fil10 str4" x="3.48602" y="79.1443" width="6.0563" height="1.7201"/>
    <rect id="_48228496" class="fil10 str4" x="3.52581" y="82.5898" width="6.0563" height="1.7201"/>
    <rect id="_131210792" class="fil10 str4" x="3.50673" y="86.0721" width="6.0563" height="1.7201"/>
    <rect id="_46010992" class="fil10 str4" x="9.5422" y="79.142" width="5.93029" height="1.7201"/>
    <rect id="_131006496" class="fil10 str4" x="9.58199" y="82.5875" width="5.8734" height="1.7201"/>
    <rect id="_46175632" class="fil10 str4" x="9.56314" y="86.0697" width="5.8734" height="1.7201"/>
    <rect id="_48227672" class="fil10 str4" x="6.71178" y="80.8728" width="5.80429" height="1.7201"/>
    <rect id="_46134928" class="fil10 str4" x="6.74599" y="84.3405" width="5.80429" height="1.7201"/>
    <rect id="_131210320" class="fil10 str4" x="3.4859" y="80.878" width="3.23822" height="1.7201"/>
    <rect id="_47447488" class="fil10 str4" x="3.51987" y="84.3459" width="3.23822" height="1.7201"/>
    <rect id="_45501480" class="fil10 str4" x="12.5374" y="80.8746" width="2.91791" height="1.7201"/>
    <rect id="_45499792" class="fil10 str4" x="12.5713" y="84.3424" width="2.91791" height="1.7201"/>
   </g>
   <g id="_47967792">
    <rect id="_131139024" class="fil10 str4" x="196.96" y="79.1168" width="6.0563" height="1.7201"/>
    <rect id="_45188080" class="fil10 str4" x="196.998" y="82.5624" width="6.0563" height="1.7201"/>
    <rect id="_46300328" class="fil10 str4" x="196.98" y="86.0446" width="6.0563" height="1.7201"/>
    <rect id="_46300400" class="fil10 str4" x="203.016" y="79.1144" width="5.93029" height="1.7201"/>
    <rect id="_46300472" class="fil10 str4" x="203.055" y="82.5599" width="5.8734" height="1.7201"/>
    <rect id="_46300496" class="fil10 str4" x="203.037" y="86.0422" width="5.8734" height="1.7201"/>
    <rect id="_46300664" class="fil10 str4" x="200.185" y="80.8453" width="5.80429" height="1.7201"/>
    <rect id="_46300760" class="fil10 str4" x="200.219" y="84.3131" width="5.80429" height="1.7201"/>
    <rect id="_131138328" class="fil10 str4" x="196.96" y="80.8505" width="3.23822" height="1.7201"/>
    <rect id="_46300640" class="fil10 str4" x="196.994" y="84.3183" width="3.23822" height="1.7201"/>
    <rect id="_131138904" class="fil10 str4" x="206.011" y="80.8472" width="2.91791" height="1.7201"/>
    <rect id="_46300088" class="fil10 str4" x="206.044" y="84.3149" width="2.91791" height="1.7201"/>
   </g>
  </g>
 </g>
</svg>
