<?xml version="1.0" encoding="UTF-8"?>
<!DOCTYPE svg PUBLIC "-//W3C//DTD SVG 1.1//EN" "http://www.w3.org/Graphics/SVG/1.1/DTD/svg11.dtd">
<!-- Creator: CorelDRAW -->
<svg xmlns="http://www.w3.org/2000/svg" xml:space="preserve" width="210mm" height="297mm" style="shape-rendering:geometricPrecision; text-rendering:geometricPrecision; image-rendering:optimizeQuality; fill-rule:evenodd; clip-rule:evenodd"
viewBox="0 0 210 297"
 xmlns:xlink="http://www.w3.org/1999/xlink">
 <defs>
  <style type="text/css">
   <![CDATA[
    .str2 {stroke:#333333;stroke-width:0.25}
    .str0 {stroke:#2B2A29;stroke-width:0.5}
    .str1 {stroke:#333333;stroke-width:0.5}
    .fil1 {fill:none}
    .fil0 {fill:#9E312B}
   ]]>
  </style>
 </defs>
 <g id="Слой_x0020_1">
  <metadata id="CorelCorpID_0Corel-Layer"/>
  <polygon class="fil0 str0" points="4.327,52.9084 43.2545,7.7273 46.5858,11.9618 12.1856,53.4821 "/>
  <line class="fil1 str0" x1="17.1433" y1="47.4984" x2="16.3464" y2= "88.6145" />
  <line class="fil1 str0" x1="93.0986" y1="55.7554" x2="93.5462" y2= "89.5391" />
  <line class="fil1 str0" x1="188.775" y1="56.562" x2="188.774" y2= "89.8903" />
  <line class="fil1 str0" x1="3.4024" y1="88.6145" x2="204.954" y2= "90.0014" />
  <g id="_359313336">
   <polygon id="_352798608" class="fil0 str1" points="42.6032,7.7228 158.669,8.5151 196.412,56.6223 81.8656,55.456 "/>
   <g>
    <g id="_197247856">
     <path id="_197247352" class="fil1 str2" d="M78.4504 50.4186c1.6761,-1.0449 2.0949,-1.1389 2.4207,-1.1789 0.1389,-0.017 0.5696,0.0149 0.8659,0.2489 0.3984,0.3148 0.8521,1.2313 0.8521,1.2313 0.9906,-0.619 2.4261,-1.6865 3.245,-1.4067 0.2624,0.0897 0.3476,0.2328 0.501,0.4443l0.6181 0.8575c0.419,-0.2505 0.847,-0.6019 1.266,-0.8525 0.3973,-0.2819 0.6997,-0.4544 1.1549,-0.5096 0.2936,-0.0023 0.5294,0.0225 0.7169,0.2839 0.2094,0.2904 0.4271,0.6596 0.664,1.1128 0.2392,-0.1482 0.5334,-0.3756 0.7727,-0.5239 0.3859,-0.2534 0.7606,-0.5127 1.2023,-0.6371 0.2807,-0.0671 0.5763,-0.0979 0.7669,0.0431 0.3146,0.183 0.8038,0.7573 1.0472,1.1262"/>
     <path id="_197248648" class="fil1 str2" d="M94.43 50.6492c1.6762,-1.0449 2.0949,-1.1389 2.4207,-1.1787 0.139,-0.0171 0.5696,0.0147 0.8659,0.2488 0.3984,0.3148 0.8521,1.2313 0.8521,1.2313 0.9906,-0.6191 2.4261,-1.6866 3.245,-1.4068 0.2624,0.0897 0.3476,0.2328 0.501,0.4444l0.6181 0.8575c0.419,-0.2506 0.847,-0.602 1.266,-0.8524 0.3973,-0.2819 0.6997,-0.4546 1.1549,-0.5098 0.2937,-0.0023 0.5294,0.0225 0.7169,0.2839 0.2094,0.2905 0.4271,0.6596 0.664,1.1128 0.2392,-0.148 0.5334,-0.3755 0.7728,-0.5238 0.3859,-0.2535 0.7605,-0.5126 1.2022,-0.6371 0.2807,-0.0672 0.5763,-0.098 0.7669,0.0432 0.3146,0.1828 0.8038,0.7572 1.0472,1.1261"/>
     <path id="_197247448" class="fil1 str2" d="M110.318 50.9614c1.6761,-1.0449 2.0949,-1.139 2.4207,-1.1789 0.1389,-0.017 0.5696,0.0149 0.8658,0.2489 0.3984,0.3148 0.8522,1.2313 0.8522,1.2313 0.9906,-0.619 2.4261,-1.6865 3.245,-1.4067 0.2624,0.0897 0.3476,0.2328 0.501,0.4442l0.6181 0.8575c0.4189,-0.2505 0.847,-0.6018 1.266,-0.8524 0.3973,-0.2818 0.6997,-0.4544 1.1549,-0.5096 0.2936,-0.0023 0.5294,0.0225 0.7169,0.2838 0.2093,0.2905 0.4271,0.6596 0.6639,1.1129 0.2393,-0.1482 0.5335,-0.3757 0.7728,-0.5239 0.3859,-0.2535 0.7606,-0.5127 1.2023,-0.6371 0.2807,-0.0672 0.5763,-0.098 0.7669,0.0431 0.3146,0.1829 0.8038,0.7572 1.0472,1.1261"/>
     <path id="_197250208" class="fil1 str2" d="M126.205 51.2734c1.6762,-1.0449 2.0949,-1.1388 2.4207,-1.1787 0.139,-0.0171 0.5696,0.0147 0.8659,0.2488 0.3984,0.3148 0.8521,1.2313 0.8521,1.2313 0.9906,-0.6191 2.4261,-1.6866 3.245,-1.4068 0.2624,0.0897 0.3476,0.2328 0.501,0.4444l0.6181 0.8575c0.419,-0.2506 0.847,-0.602 1.266,-0.8524 0.3973,-0.2819 0.6997,-0.4546 1.1549,-0.5098 0.2937,-0.0023 0.5294,0.0225 0.7169,0.2839 0.2094,0.2905 0.4271,0.6596 0.664,1.1128 0.2392,-0.148 0.5334,-0.3755 0.7728,-0.5238 0.3859,-0.2535 0.7605,-0.5126 1.2022,-0.6371 0.2807,-0.0672 0.5763,-0.098 0.7669,0.0432 0.3146,0.1828 0.8038,0.7572 1.0472,1.1261"/>
     <path id="_197256568" class="fil1 str2" d="M142.094 51.5856c1.6762,-1.0451 2.0949,-1.139 2.4207,-1.1789 0.139,-0.017 0.5696,0.0149 0.8659,0.2489 0.3984,0.3148 0.8521,1.2313 0.8521,1.2313 0.9906,-0.619 2.4261,-1.6865 3.245,-1.4067 0.2624,0.0897 0.3476,0.2328 0.501,0.4442l0.6181 0.8575c0.419,-0.2505 0.8471,-0.6018 1.2661,-0.8524 0.3972,-0.2818 0.6996,-0.4544 1.1548,-0.5096 0.2937,-0.0023 0.5294,0.0225 0.7169,0.2838 0.2094,0.2905 0.4272,0.6596 0.664,1.1129 0.2392,-0.1482 0.5335,-0.3757 0.7728,-0.5239 0.3859,-0.2535 0.7605,-0.5127 1.2022,-0.6371 0.2807,-0.0672 0.5763,-0.098 0.7669,0.0431 0.3146,0.1829 0.8038,0.7572 1.0472,1.1261"/>
     <path id="_197256688" class="fil1 str2" d="M157.981 51.8976c1.6761,-1.0449 2.0948,-1.1388 2.4206,-1.1787 0.139,-0.0171 0.5696,0.0147 0.8659,0.2488 0.3984,0.3148 0.8521,1.2313 0.8521,1.2313 0.9907,-0.6191 2.4262,-1.6866 3.2451,-1.4068 0.2623,0.0897 0.3475,0.2328 0.501,0.4444l0.618 0.8575c0.419,-0.2506 0.8471,-0.602 1.2661,-0.8526 0.3972,-0.2817 0.6996,-0.4544 1.1549,-0.5096 0.2936,-0.0023 0.5294,0.0225 0.7169,0.2839 0.2093,0.2905 0.4271,0.6596 0.6639,1.1128 0.2392,-0.1481 0.5335,-0.3755 0.7728,-0.5238 0.3859,-0.2535 0.7605,-0.5128 1.2022,-0.6371 0.2807,-0.0672 0.5764,-0.098 0.7669,0.0432 0.3147,0.1828 0.8038,0.7572 1.0472,1.1261"/>
     <path id="_197252128" class="fil1 str2" d="M173.869 52.2098c1.6761,-1.0451 2.0948,-1.139 2.4206,-1.1789 0.139,-0.017 0.5696,0.0149 0.8659,0.2489 0.3984,0.3148 0.8521,1.2313 0.8521,1.2313 0.9907,-0.619 2.4262,-1.6865 3.2451,-1.4067 0.2623,0.0897 0.3475,0.2328 0.501,0.4442l0.618 0.8575c0.419,-0.2505 0.8471,-0.6018 1.2661,-0.8524 0.3972,-0.2818 0.6996,-0.4544 1.1549,-0.5096 0.2936,-0.0023 0.5294,0.0225 0.7169,0.2838 0.2093,0.2905 0.4271,0.6596 0.6639,1.1129"/>
    </g>
    <g id="_197247856_0">
     <path id="_197247352_1" class="fil1 str2" d="M81.3364 54.2179c1.6761,-1.0449 2.0949,-1.1389 2.4207,-1.1789 0.1389,-0.017 0.5696,0.0149 0.8659,0.2489 0.3984,0.3148 0.8521,1.2313 0.8521,1.2313 0.9906,-0.619 2.4261,-1.6865 3.245,-1.4067 0.2624,0.0897 0.3476,0.2328 0.501,0.4444l0.6181 0.8575c0.419,-0.2506 0.847,-0.602 1.266,-0.8526 0.3973,-0.2818 0.6997,-0.4544 1.1549,-0.5096 0.2936,-0.0023 0.5294,0.0225 0.7169,0.2839 0.2094,0.2904 0.4271,0.6596 0.664,1.1128 0.2392,-0.1482 0.5334,-0.3756 0.7727,-0.5239 0.3859,-0.2534 0.7606,-0.5127 1.2023,-0.6371 0.2807,-0.0671 0.5763,-0.0979 0.7669,0.0431 0.3146,0.183 0.8038,0.7573 1.0472,1.1262"/>
     <path id="_197248648_2" class="fil1 str2" d="M97.316 54.4485c1.6762,-1.0449 2.0949,-1.1388 2.4207,-1.1787 0.139,-0.0171 0.5696,0.0147 0.8659,0.2488 0.3984,0.3148 0.8521,1.2313 0.8521,1.2313 0.9906,-0.6191 2.4261,-1.6866 3.245,-1.4068 0.2624,0.0897 0.3476,0.2328 0.501,0.4444l0.6181 0.8575c0.419,-0.2506 0.847,-0.602 1.266,-0.8524 0.3973,-0.2819 0.6997,-0.4546 1.1549,-0.5098 0.2937,-0.0022 0.5294,0.0225 0.7169,0.284 0.2094,0.2904 0.4271,0.6595 0.664,1.1127 0.2392,-0.148 0.5334,-0.3755 0.7728,-0.5238 0.3859,-0.2535 0.7605,-0.5126 1.2022,-0.6371 0.2807,-0.0672 0.5763,-0.098 0.7669,0.0432 0.3146,0.1828 0.8038,0.7572 1.0472,1.1261"/>
     <path id="_197247448_3" class="fil1 str2" d="M113.204 54.7607c1.6761,-1.0449 2.0949,-1.139 2.4207,-1.1789 0.1389,-0.017 0.5696,0.0149 0.8658,0.2489 0.3984,0.3148 0.8522,1.2313 0.8522,1.2313 0.9906,-0.619 2.4261,-1.6865 3.245,-1.4067 0.2624,0.0897 0.3476,0.2328 0.501,0.4442l0.6181 0.8575c0.4189,-0.2505 0.847,-0.6018 1.266,-0.8524 0.3973,-0.2818 0.6997,-0.4544 1.1549,-0.5096 0.2936,-0.0023 0.5294,0.0225 0.7169,0.2838 0.2093,0.2905 0.4271,0.6596 0.6639,1.1129 0.2393,-0.1482 0.5335,-0.3757 0.7728,-0.5238 0.3859,-0.2536 0.7606,-0.5128 1.2023,-0.6372 0.2807,-0.0672 0.5763,-0.098 0.7669,0.0431 0.3146,0.1829 0.8038,0.7572 1.0472,1.1261"/>
     <path id="_197250208_4" class="fil1 str2" d="M129.091 55.0727c1.6762,-1.0449 2.0949,-1.1388 2.4207,-1.1787 0.139,-0.0171 0.5696,0.0147 0.8659,0.2488 0.3984,0.3148 0.8521,1.2313 0.8521,1.2313 0.9906,-0.6191 2.4261,-1.6866 3.245,-1.4068 0.2624,0.0897 0.3476,0.2328 0.501,0.4444l0.6181 0.8575c0.419,-0.2506 0.847,-0.602 1.266,-0.8524 0.3973,-0.2819 0.6997,-0.4546 1.1549,-0.5097 0.2937,-0.0023 0.5294,0.0224 0.7169,0.2839 0.2094,0.2904 0.4271,0.6595 0.664,1.1127 0.2392,-0.148 0.5334,-0.3755 0.7728,-0.5238 0.3859,-0.2535 0.7605,-0.5126 1.2022,-0.6371 0.2807,-0.0672 0.5763,-0.098 0.7669,0.0432 0.3146,0.1828 0.8038,0.7572 1.0472,1.1261"/>
     <path id="_197256568_5" class="fil1 str2" d="M144.98 55.3849c1.6762,-1.0451 2.0949,-1.139 2.4207,-1.1789 0.139,-0.017 0.5696,0.0149 0.8659,0.2489 0.3984,0.3148 0.8521,1.2313 0.8521,1.2313 0.9906,-0.619 2.4261,-1.6865 3.245,-1.4067 0.2624,0.0897 0.3476,0.2328 0.501,0.4442l0.6181 0.8575c0.419,-0.2505 0.8471,-0.6018 1.2661,-0.8524 0.3972,-0.2818 0.6996,-0.4544 1.1548,-0.5096 0.2937,-0.0023 0.5294,0.0225 0.7169,0.2838 0.2094,0.2905 0.4272,0.6596 0.664,1.1129 0.2392,-0.1482 0.5335,-0.3757 0.7728,-0.5238 0.3859,-0.2536 0.7605,-0.5128 1.2022,-0.6372 0.2807,-0.0672 0.5763,-0.098 0.7669,0.0431 0.3146,0.1829 0.8038,0.7572 1.0472,1.1261"/>
     <path id="_197256688_6" class="fil1 str2" d="M160.867 55.6969c1.6761,-1.0449 2.0948,-1.1388 2.4206,-1.1787 0.139,-0.0171 0.5696,0.0147 0.8659,0.2488 0.3984,0.3148 0.8521,1.2313 0.8521,1.2313 0.9907,-0.6191 2.4262,-1.6866 3.2451,-1.4068 0.2623,0.0897 0.3475,0.2328 0.501,0.4444l0.618 0.8575c0.419,-0.2506 0.8471,-0.602 1.2661,-0.8525 0.3972,-0.2818 0.6996,-0.4545 1.1549,-0.5096 0.2936,-0.0023 0.5294,0.0224 0.7169,0.2839 0.2093,0.2904 0.4271,0.6595 0.6639,1.1127 0.2392,-0.1481 0.5335,-0.3755 0.7728,-0.5238 0.3859,-0.2535 0.7605,-0.5127 1.2022,-0.6371 0.2807,-0.0672 0.5764,-0.098 0.7669,0.0432 0.3147,0.1828 0.8038,0.7572 1.0472,1.1261"/>
     <path id="_197252128_7" class="fil1 str2" d="M176.755 56.0091c1.6761,-1.045 2.0948,-1.139 2.4206,-1.1789 0.139,-0.017 0.5696,0.0149 0.8659,0.2489 0.3984,0.3149 0.8521,1.2313 0.8521,1.2313 0.9907,-0.619 2.4262,-1.6865 3.2451,-1.4067 0.2623,0.0897 0.3475,0.2328 0.501,0.4442l0.618 0.8575c0.419,-0.2505 0.8471,-0.6018 1.2661,-0.8524 0.3972,-0.2818 0.6996,-0.4544 1.1549,-0.5096 0.2936,-0.0023 0.5294,0.0225 0.7169,0.2838 0.2093,0.2905 0.4271,0.6596 0.6639,1.1129"/>
    </g>
    <g id="_197248192">
     <path id="_197251240" class="fil1 str2" d="M74.6082 46.4076c1.6761,-1.0449 2.0949,-1.139 2.4206,-1.1789 0.139,-0.017 0.5697,0.0149 0.8659,0.2489 0.3984,0.3148 0.8522,1.2313 0.8522,1.2313 0.9906,-0.619 2.4261,-1.6865 3.245,-1.4067 0.2624,0.0897 0.3476,0.2328 0.501,0.4443l0.618 0.8576c0.419,-0.2506 0.8471,-0.602 1.2661,-0.8526 0.3973,-0.2819 0.6997,-0.4544 1.1549,-0.5096 0.2936,-0.0023 0.5294,0.0225 0.7169,0.2839 0.2093,0.2904 0.4271,0.6595 0.6639,1.1128 0.2393,-0.1482 0.5335,-0.3756 0.7728,-0.5239 0.3859,-0.2536 0.7606,-0.5127 1.2023,-0.6371 0.2807,-0.0671 0.5763,-0.0979 0.7669,0.0431 0.3146,0.183 0.8038,0.7573 1.0472,1.1261"/>
     <path id="_197248744" class="fil1 str2" d="M90.5878 46.6382c1.6761,-1.0449 2.0949,-1.1388 2.4207,-1.1788 0.1389,-0.017 0.5696,0.0148 0.8659,0.2489 0.3984,0.3148 0.8521,1.2312 0.8521,1.2312 0.9906,-0.619 2.4261,-1.6865 3.245,-1.4067 0.2624,0.0897 0.3476,0.2328 0.501,0.4444l0.6181 0.8575c0.419,-0.2506 0.847,-0.602 1.266,-0.8526 0.3973,-0.2818 0.6997,-0.4544 1.1549,-0.5096 0.2936,-0.0023 0.5294,0.0225 0.7169,0.2839 0.2094,0.2905 0.4271,0.6596 0.664,1.1128 0.2392,-0.1481 0.5334,-0.3755 0.7727,-0.5238 0.3859,-0.2536 0.7606,-0.5128 1.2023,-0.6371 0.2807,-0.0672 0.5763,-0.098 0.7669,0.0431 0.3146,0.1829 0.8038,0.7573 1.0472,1.1262"/>
     <path id="_197247472" class="fil1 str2" d="M106.476 46.9503c1.6761,-1.045 2.0949,-1.1389 2.4206,-1.1788 0.139,-0.017 0.5697,0.0149 0.8659,0.2489 0.3984,0.3147 0.8522,1.2313 0.8522,1.2313 0.9906,-0.6191 2.4261,-1.6867 3.245,-1.4069 0.2624,0.0898 0.3476,0.2329 0.501,0.4444l0.618 0.8575c0.419,-0.2505 0.8471,-0.6018 1.2661,-0.8524 0.3972,-0.2818 0.6997,-0.4544 1.1549,-0.5097 0.2936,-0.0022 0.5294,0.0224 0.7169,0.2839 0.2093,0.2905 0.4271,0.6596 0.6639,1.1129 0.2393,-0.1482 0.5335,-0.3757 0.7728,-0.5239 0.3859,-0.2535 0.7606,-0.5127 1.2023,-0.6371 0.2806,-0.0672 0.5763,-0.098 0.7669,0.0431 0.3146,0.1829 0.8038,0.7572 1.0472,1.1261"/>
     <path id="_197249104" class="fil1 str2" d="M122.363 47.2624c1.6761,-1.0449 2.0949,-1.139 2.4207,-1.1788 0.1389,-0.017 0.5696,0.0148 0.8659,0.2489 0.3984,0.3148 0.8521,1.2312 0.8521,1.2312 0.9906,-0.619 2.4261,-1.6865 3.245,-1.4067 0.2624,0.0897 0.3476,0.2328 0.501,0.4444l0.6181 0.8575c0.419,-0.2506 0.847,-0.602 1.266,-0.8526 0.3973,-0.2818 0.6997,-0.4544 1.1549,-0.5096 0.2936,-0.0022 0.5294,0.0225 0.7169,0.2839 0.2094,0.2905 0.4271,0.6596 0.664,1.1128 0.2392,-0.1481 0.5334,-0.3755 0.7727,-0.5238 0.3859,-0.2536 0.7606,-0.5128 1.2023,-0.6371 0.2807,-0.0672 0.5763,-0.098 0.7669,0.0431 0.3146,0.1829 0.8038,0.7573 1.0472,1.1262"/>
     <path id="_194944632" class="fil1 str2" d="M138.251 47.5745c1.6762,-1.045 2.0949,-1.1389 2.4207,-1.1788 0.139,-0.017 0.5696,0.0149 0.8659,0.2489 0.3984,0.3147 0.8521,1.2313 0.8521,1.2313 0.9906,-0.6191 2.4261,-1.6867 3.245,-1.4069 0.2624,0.0898 0.3476,0.2329 0.501,0.4444l0.6181 0.8575c0.419,-0.2505 0.847,-0.6018 1.266,-0.8524 0.3973,-0.2818 0.6997,-0.4544 1.1549,-0.5097 0.2937,-0.0022 0.5294,0.0224 0.7169,0.2839 0.2094,0.2905 0.4271,0.6596 0.664,1.1129 0.2392,-0.1482 0.5334,-0.3757 0.7728,-0.5239 0.3859,-0.2535 0.7605,-0.5127 1.2022,-0.6371 0.2807,-0.0672 0.5763,-0.098 0.7669,0.0431 0.3146,0.1829 0.8038,0.7572 1.0472,1.1261"/>
     <path id="_194950776" class="fil1 str2" d="M154.139 47.8866c1.6762,-1.0449 2.0949,-1.139 2.4207,-1.1788 0.139,-0.017 0.5696,0.0148 0.8659,0.2489 0.3984,0.3148 0.8521,1.2312 0.8521,1.2312 0.9906,-0.619 2.4261,-1.6865 3.2451,-1.4067 0.2623,0.0897 0.3475,0.2328 0.501,0.4444l0.618 0.8575c0.419,-0.2506 0.8471,-0.602 1.2661,-0.8526 0.3972,-0.2818 0.6996,-0.4544 1.1549,-0.5096 0.2936,-0.0022 0.5293,0.0225 0.7168,0.284 0.2094,0.2904 0.4272,0.6594 0.664,1.1127 0.2392,-0.1481 0.5335,-0.3755 0.7728,-0.5238 0.3859,-0.2536 0.7605,-0.5128 1.2022,-0.6371 0.2807,-0.0672 0.5764,-0.098 0.7669,0.0431 0.3147,0.1829 0.8038,0.7573 1.0472,1.1262"/>
     <path id="_194951160" class="fil1 str2" d="M170.027 48.1987c1.6761,-1.045 2.0948,-1.1389 2.4206,-1.1788 0.139,-0.017 0.5696,0.0149 0.8659,0.2489 0.3984,0.3147 0.8521,1.2313 0.8521,1.2313 0.9907,-0.6191 2.4261,-1.6867 3.2451,-1.4069 0.2623,0.0898 0.3475,0.2329 0.501,0.4444l0.618 0.8575c0.419,-0.2505 0.8471,-0.6018 1.2661,-0.8524 0.3972,-0.2818 0.6996,-0.4545 1.1549,-0.5097 0.2936,-0.0022 0.5294,0.0224 0.7169,0.2839 0.2093,0.2905 0.4271,0.6596 0.6639,1.1129"/>
    </g>
    <path id="_197251240_8" class="fil1 str2" d="M158.748 19.7341c1.6761,-1.045 2.0949,-1.1389 2.4208,-1.1788 0.139,-0.017 0.5695,0.0149 0.8659,0.2489 0.3984,0.3147 0.852,1.2313 0.852,1.2313 0.9907,-0.6192 2.4262,-1.6865 3.245,-1.4068 0.2625,0.0898 0.3477,0.2328 0.5011,0.4443l0.618 0.8575c0.0916,-0.0548 0.1838,-0.1145 0.2761,-0.1768"/>
    <path id="_197251240_9" class="fil1 str2" d="M161.833 23.4981c1.6761,-1.0449 2.0949,-1.1389 2.4208,-1.1787 0.139,-0.0171 0.5695,0.0148 0.8659,0.2489 0.3984,0.3147 0.852,1.2312 0.852,1.2312 0.9907,-0.6191 2.4262,-1.6865 3.245,-1.4067 0.2625,0.0897 0.3477,0.2327 0.5011,0.4443l0.618 0.8575c0.0916,-0.0549 0.1838,-0.1145 0.2761,-0.1768"/>
    <path id="_197251240_10" class="fil1 str2" d="M165.121 27.5771c1.6761,-1.0449 2.0949,-1.1389 2.4208,-1.1787 0.139,-0.0171 0.5695,0.0148 0.8659,0.2488 0.3984,0.3147 0.852,1.2313 0.852,1.2313 0.9907,-0.6191 2.4262,-1.6865 3.245,-1.4067 0.2625,0.0897 0.3477,0.2327 0.5011,0.4443l0.618 0.8575c0.0916,-0.0549 0.1838,-0.1145 0.2761,-0.1768"/>
    <path id="_197251240_11" class="fil1 str2" d="M168.352 31.6322c1.6761,-1.045 2.0949,-1.1389 2.4208,-1.1788 0.139,-0.017 0.5695,0.0149 0.8659,0.2489 0.3984,0.3147 0.852,1.2313 0.852,1.2313 0.9907,-0.6192 2.4262,-1.6865 3.245,-1.4067 0.2625,0.0897 0.3477,0.2327 0.5011,0.4442l0.618 0.8575c0,0 0.085,-0.0488 0.1773,-0.1111"/>
    <path id="_197251240_12" class="fil1 str2" d="M171.953 35.9137c1.6761,-1.045 2.0949,-1.1389 2.4208,-1.1788 0.139,-0.017 0.5695,0.0149 0.8659,0.2489 0.3984,0.3147 0.852,1.2313 0.852,1.2313 0.9907,-0.6192 2.001,-1.7259 2.8198,-1.4461 0.2625,0.0897 0.6012,0.2975 0.7546,0.5091"/>
    <path id="_197251240_13" class="fil1 str2" d="M175.29 39.9448c1.6761,-1.0449 2.0949,-1.1389 2.4208,-1.1787 0.139,-0.017 0.5695,0.0148 0.8659,0.2489 0.3984,0.3147 0.852,1.2312 0.852,1.2312 0.9907,-0.6191 2.1774,-1.7312 2.9962,-1.4514"/>
    <path id="_197251240_14" class="fil1 str2" d="M178.808 44.1534c1.6761,-1.0449 2.0949,-1.1389 2.4208,-1.1787 0.139,-0.0171 0.5695,0.0148 0.8659,0.2488 0.3984,0.3147 0.852,1.2313 0.852,1.2313 0.9907,-0.6191 1.9684,-1.7221 2.7872,-1.4424"/>
    <path id="_197251240_15" class="fil1 str2" d="M182.252 48.2842c1.6761,-1.045 2.0949,-1.1389 2.4208,-1.1788 0.139,-0.017 0.5695,0.0149 0.8659,0.2489 0.3984,0.3147 0.852,1.2313 0.852,1.2313 0.9907,-0.6191 1.7902,-1.6908 2.609,-1.411"/>
    <path id="_197251240_16" class="fil1 str2" d="M186.096 52.4022c1.6761,-1.045 0.5956,-1.0324 0.9215,-1.0723 0.139,-0.017 1.0529,-0.3134 1.3493,-0.0794 0.3984,0.3147 1.3028,1.6021 1.3028,1.6021 0.9907,-0.6191 1.5581,-1.7557 2.3769,-1.4759 0.2625,0.0897 0.7512,0.6232 0.9046,0.8348"/>
    <path id="_197251240_17" class="fil1 str2" d="M188.603 55.2274c1.6761,-1.0449 1.5974,-1.2819 1.9233,-1.3218 0.139,-0.017 0.401,-0.113 0.6974,0.121 0.3984,0.3147 2.5385,1.8719 3.2598,0.4905"/>
    <path id="_197251240_18" class="fil1 str2" d="M155.358 15.7148c1.6761,-1.0449 2.0949,-1.1388 2.4208,-1.1787 0.139,-0.017 0.5695,0.0149 0.8659,0.2489 0.3984,0.3147 0.852,1.2313 0.852,1.2313 0.9907,-0.6192 2.4262,-1.6866 3.245,-1.4068 0.2625,0.0898 0.3477,0.2327 0.5011,0.4443l0.618 0.8575c0.0916,-0.0548 0.1838,-0.1145 0.2761,-0.1768"/>
    <path id="_197251240_19" class="fil1 str2" d="M152.553 12.1721c1.6761,-1.0449 2.0949,-1.1388 2.4208,-1.1787 0.139,-0.017 0.5695,0.0149 0.8659,0.2489 0.3984,0.3147 0.852,1.2313 0.852,1.2313 0.9907,-0.6192 2.4262,-1.6866 3.245,-1.4068 0.2625,0.0898 0.3477,0.2327 0.5011,0.4443l0.618 0.8575c0.0916,-0.0548 0.1838,-0.1145 0.2761,-0.1768"/>
    <g id="_197248120">
     <path id="_197247208" class="fil1 str2" d="M71.158 42.3081c1.6761,-1.045 2.0948,-1.1389 2.4206,-1.1789 0.139,-0.017 0.5697,0.0149 0.8659,0.2489 0.3984,0.3148 0.8521,1.2313 0.8521,1.2313 0.9907,-0.6191 2.4262,-1.6866 3.2451,-1.4068 0.2623,0.0898 0.3475,0.2329 0.501,0.4444l0.618 0.8575c0.419,-0.2505 0.8471,-0.6019 1.2661,-0.8525 0.3972,-0.2819 0.6996,-0.4544 1.1549,-0.5096 0.2936,-0.0023 0.5294,0.0224 0.7169,0.2839 0.2093,0.2904 0.4271,0.6596 0.6639,1.1128 0.2393,-0.1482 0.5335,-0.3756 0.7728,-0.5239 0.3859,-0.2536 0.7605,-0.5127 1.2022,-0.6371 0.2807,-0.0671 0.5764,-0.0979 0.767,0.0431 0.3146,0.183 0.8037,0.7573 1.0472,1.1262"/>
     <path id="_197257168" class="fil1 str2" d="M87.1376 42.5387c1.6761,-1.0449 2.0949,-1.1389 2.4206,-1.1787 0.139,-0.0172 0.5697,0.0147 0.8659,0.2488 0.3984,0.3148 0.8521,1.2313 0.8521,1.2313 0.9907,-0.6191 2.4262,-1.6866 3.2451,-1.4068 0.2624,0.0897 0.3476,0.2328 0.501,0.4444l0.618 0.8575c0.419,-0.2506 0.8471,-0.602 1.2661,-0.8524 0.3972,-0.2819 0.6997,-0.4546 1.1549,-0.5098 0.2936,-0.0023 0.5294,0.0225 0.7169,0.2839 0.2093,0.2905 0.4271,0.6596 0.6639,1.1128 0.2393,-0.148 0.5335,-0.3755 0.7728,-0.5238 0.3859,-0.2535 0.7606,-0.5126 1.2023,-0.6371 0.2806,-0.0672 0.5763,-0.098 0.7669,0.0432 0.3146,0.1828 0.8038,0.7571 1.0472,1.1261"/>
     <path id="_194951352" class="fil1 str2" d="M103.026 42.8509c1.6761,-1.0451 2.0949,-1.139 2.4207,-1.1789 0.1389,-0.017 0.5696,0.0149 0.8659,0.2489 0.3983,0.3148 0.8521,1.2313 0.8521,1.2313 0.9906,-0.619 2.4261,-1.6865 3.245,-1.4067 0.2624,0.0897 0.3476,0.2328 0.501,0.4442l0.6181 0.8575c0.4189,-0.2505 0.847,-0.6018 1.266,-0.8524 0.3973,-0.2819 0.6997,-0.4544 1.1549,-0.5096 0.2936,-0.0023 0.5294,0.0225 0.7169,0.2838 0.2093,0.2905 0.4271,0.6596 0.6639,1.1129 0.2393,-0.1482 0.5335,-0.3757 0.7728,-0.5239 0.3859,-0.2536 0.7606,-0.5127 1.2023,-0.6371 0.2807,-0.0673 0.5763,-0.098 0.7669,0.0431 0.3146,0.1829 0.8038,0.7572 1.0472,1.1261"/>
     <path id="_195127048" class="fil1 str2" d="M118.913 43.1629c1.6762,-1.0449 2.0949,-1.1389 2.4207,-1.1787 0.139,-0.0172 0.5696,0.0147 0.8659,0.2488 0.3984,0.3148 0.8521,1.2313 0.8521,1.2313 0.9906,-0.6191 2.4261,-1.6866 3.245,-1.4068 0.2624,0.0897 0.3476,0.2328 0.501,0.4444l0.6181 0.8575c0.419,-0.2506 0.847,-0.602 1.266,-0.8526 0.3973,-0.2817 0.6997,-0.4544 1.1549,-0.5096 0.2937,-0.0023 0.5294,0.0225 0.7169,0.2839 0.2094,0.2905 0.4271,0.6596 0.664,1.1128 0.2392,-0.1481 0.5334,-0.3755 0.7728,-0.5238 0.3859,-0.2535 0.7605,-0.5128 1.2022,-0.6371 0.2807,-0.0672 0.5763,-0.098 0.7669,0.0432 0.3146,0.1828 0.8038,0.7571 1.0472,1.1261"/>
     <path id="_195127240" class="fil1 str2" d="M134.801 43.475c1.6762,-1.045 2.0949,-1.1389 2.4207,-1.1788 0.139,-0.017 0.5696,0.0149 0.8659,0.2489 0.3984,0.3148 0.8521,1.2313 0.8521,1.2313 0.9906,-0.619 2.4261,-1.6865 3.2451,-1.4067 0.2623,0.0897 0.3475,0.2328 0.501,0.4442l0.618 0.8575c0.419,-0.2505 0.8471,-0.6018 1.2661,-0.8524 0.3972,-0.2819 0.6996,-0.4544 1.1549,-0.5096 0.2936,-0.0023 0.5293,0.0225 0.7168,0.2838 0.2094,0.2905 0.4272,0.6596 0.664,1.1129 0.2392,-0.1482 0.5335,-0.3757 0.7728,-0.5239 0.3859,-0.2536 0.7605,-0.5127 1.2022,-0.6371 0.2807,-0.0672 0.5764,-0.098 0.7669,0.0431 0.3147,0.1829 0.8038,0.7572 1.0472,1.1261"/>
     <path id="_195127432" class="fil1 str2" d="M150.689 43.7871c1.6761,-1.0449 2.0948,-1.1389 2.4206,-1.1787 0.139,-0.0172 0.5696,0.0147 0.8659,0.2488 0.3984,0.3148 0.8521,1.2312 0.8521,1.2312 0.9907,-0.619 2.4262,-1.6865 3.2451,-1.4067 0.2623,0.0897 0.3475,0.2328 0.501,0.4444l0.618 0.8575c0.419,-0.2506 0.8471,-0.602 1.2661,-0.8526 0.3972,-0.2817 0.6996,-0.4544 1.1549,-0.5096 0.2936,-0.0023 0.5294,0.0225 0.7169,0.2839 0.2093,0.2905 0.4271,0.6596 0.6639,1.1128 0.2392,-0.1481 0.5335,-0.3755 0.7728,-0.5238 0.3859,-0.2535 0.7605,-0.5128 1.2022,-0.6371 0.2807,-0.0672 0.5764,-0.098 0.7669,0.0431 0.3147,0.1829 0.8038,0.7572 1.0472,1.1262"/>
     <path id="_195128008" class="fil1 str2" d="M166.576 44.0992c1.6761,-1.045 2.0949,-1.1389 2.4206,-1.1788 0.139,-0.017 0.5697,0.0149 0.8659,0.2489 0.3984,0.3148 0.8521,1.2313 0.8521,1.2313 0.9907,-0.6192 2.4262,-1.6865 3.2451,-1.4069 0.2624,0.0899 0.3476,0.233 0.501,0.4444l0.618 0.8575c0.419,-0.2505 0.8471,-0.6018 1.2661,-0.8524 0.3972,-0.2819 0.6997,-0.4544 1.1549,-0.5097 0.2936,-0.0022 0.5294,0.0226 0.7169,0.2839 0.2093,0.2905 0.4271,0.6596 0.6639,1.1129"/>
    </g>
    <g id="_197257072">
     <path id="_195130696" class="fil1 str2" d="M67.6303 38.1189c1.6761,-1.0449 2.0948,-1.1388 2.4206,-1.1788 0.139,-0.017 0.5696,0.0149 0.8659,0.2489 0.3984,0.3148 0.8521,1.2312 0.8521,1.2312 0.9907,-0.619 2.4262,-1.6865 3.2451,-1.4067 0.2623,0.0897 0.3475,0.2328 0.501,0.4444l0.618 0.8575c0.419,-0.2506 0.8471,-0.602 1.2661,-0.8525 0.3972,-0.2819 0.6996,-0.4544 1.1549,-0.5096 0.2936,-0.0023 0.5294,0.0224 0.7169,0.2839 0.2093,0.2904 0.4271,0.6596 0.6639,1.1128 0.2393,-0.1482 0.5335,-0.3756 0.7728,-0.5239 0.3859,-0.2536 0.7605,-0.5127 1.2022,-0.6371 0.2807,-0.0672 0.5764,-0.0979 0.767,0.0431 0.3146,0.1829 0.8037,0.7573 1.0472,1.1262"/>
     <path id="_195130888" class="fil1 str2" d="M83.6099 38.3496c1.6761,-1.0449 2.0949,-1.1389 2.4206,-1.1787 0.139,-0.0172 0.5697,0.0147 0.8659,0.2487 0.3984,0.3149 0.8521,1.2314 0.8521,1.2314 0.9907,-0.6191 2.4262,-1.6866 3.2451,-1.4068 0.2624,0.0897 0.3476,0.2328 0.501,0.4444l0.618 0.8575c0.419,-0.2506 0.8471,-0.602 1.2661,-0.8525 0.3972,-0.2818 0.6997,-0.4545 1.1549,-0.5097 0.2936,-0.0023 0.5294,0.0225 0.7169,0.2839 0.2093,0.2904 0.4271,0.6596 0.6639,1.1128 0.2393,-0.148 0.5335,-0.3756 0.7728,-0.5238 0.3859,-0.2535 0.7606,-0.5127 1.2023,-0.6372 0.2806,-0.0671 0.5763,-0.0979 0.7669,0.0433 0.3146,0.1828 0.8038,0.7571 1.0472,1.126"/>
     <path id="_195131080" class="fil1 str2" d="M99.4977 38.6618c1.6761,-1.045 2.0948,-1.139 2.4206,-1.1789 0.139,-0.017 0.5696,0.0149 0.8659,0.2489 0.3984,0.3148 0.8521,1.2313 0.8521,1.2313 0.9907,-0.6191 2.4262,-1.6866 3.2451,-1.4068 0.2623,0.0898 0.3475,0.2329 0.501,0.4443l0.618 0.8575c0.419,-0.2506 0.8471,-0.6018 1.2661,-0.8524 0.3972,-0.2819 0.6996,-0.4544 1.1549,-0.5096 0.2936,-0.0023 0.5294,0.0224 0.7169,0.2838 0.2093,0.2905 0.4271,0.6595 0.6639,1.1129 0.2392,-0.1482 0.5335,-0.3757 0.7728,-0.5239 0.3859,-0.2536 0.7605,-0.5127 1.2022,-0.6371 0.2807,-0.0673 0.5764,-0.0981 0.7669,0.0431 0.3147,0.1828 0.8038,0.7572 1.0472,1.1261"/>
     <path id="_195131272" class="fil1 str2" d="M115.386 38.9738c1.6761,-1.0449 2.0949,-1.1389 2.4206,-1.1787 0.139,-0.0172 0.5697,0.0147 0.8659,0.2487 0.3984,0.3149 0.8521,1.2314 0.8521,1.2314 0.9907,-0.6191 2.4262,-1.6866 3.2451,-1.4068 0.2624,0.0897 0.3475,0.2328 0.501,0.4444l0.618 0.8575c0.419,-0.2506 0.8471,-0.602 1.2661,-0.8525 0.3972,-0.2818 0.6997,-0.4545 1.1549,-0.5097 0.2936,-0.0023 0.5294,0.0225 0.7169,0.2839 0.2093,0.2904 0.4271,0.6596 0.6639,1.1128 0.2393,-0.148 0.5335,-0.3755 0.7728,-0.5238 0.3859,-0.2535 0.7606,-0.5127 1.2023,-0.6372 0.2806,-0.0671 0.5763,-0.0979 0.7669,0.0433 0.3146,0.1828 0.8038,0.7571 1.0472,1.126"/>
     <path id="_195131464" class="fil1 str2" d="M131.273 39.286c1.6761,-1.0451 2.0949,-1.139 2.4206,-1.1789 0.139,-0.017 0.5697,0.0149 0.8659,0.2489 0.3984,0.3148 0.8522,1.2313 0.8522,1.2313 0.9906,-0.6191 2.4261,-1.6866 3.245,-1.4068 0.2624,0.0898 0.3476,0.2329 0.501,0.4443l0.618 0.8575c0.419,-0.2506 0.8471,-0.6018 1.2661,-0.8524 0.3973,-0.2819 0.6997,-0.4544 1.1549,-0.5096 0.2936,-0.0023 0.5294,0.0224 0.7169,0.2838 0.2093,0.2905 0.4271,0.6595 0.6639,1.1129 0.2393,-0.1482 0.5335,-0.3757 0.7728,-0.5239 0.3859,-0.2536 0.7606,-0.5127 1.2023,-0.6371 0.2807,-0.0673 0.5763,-0.0981 0.7669,0.0431 0.3146,0.1828 0.8038,0.7572 1.0472,1.1261"/>
     <path id="_195131656" class="fil1 str2" d="M147.161 39.598c1.6762,-1.0449 2.0949,-1.1389 2.4207,-1.1787 0.139,-0.0172 0.5696,0.0147 0.8659,0.2487 0.3984,0.3149 0.8521,1.2314 0.8521,1.2314 0.9906,-0.6191 2.4261,-1.6866 3.245,-1.4068 0.2624,0.0897 0.3476,0.2328 0.501,0.4444l0.6181 0.8575c0.419,-0.2506 0.847,-0.602 1.266,-0.8526 0.3973,-0.2817 0.6997,-0.4544 1.1549,-0.5096 0.2937,-0.0023 0.5294,0.0225 0.7169,0.2839 0.2094,0.2904 0.4271,0.6596 0.664,1.1128 0.2392,-0.1482 0.5334,-0.3755 0.7728,-0.5238 0.3859,-0.2535 0.7605,-0.5128 1.2022,-0.6372 0.2807,-0.0671 0.5763,-0.0979 0.7669,0.0431 0.3146,0.183 0.8038,0.7573 1.0472,1.1262"/>
     <path id="_195131848" class="fil1 str2" d="M163.049 39.9102c1.6762,-1.0451 2.0949,-1.139 2.4207,-1.1789 0.139,-0.017 0.5696,0.0149 0.8659,0.2489 0.3984,0.3148 0.8521,1.2313 0.8521,1.2313 0.9906,-0.6191 2.4261,-1.6866 3.245,-1.4068 0.2624,0.0898 0.3476,0.2329 0.501,0.4443l0.6181 0.8575c0.419,-0.2506 0.8471,-0.6018 1.266,-0.8524 0.3973,-0.2819 0.6997,-0.4544 1.1549,-0.5096 0.2937,-0.0023 0.5294,0.0224 0.7169,0.2838 0.2094,0.2905 0.4271,0.6595 0.664,1.1129"/>
    </g>
    <g id="_195130504">
     <path id="_195132232" class="fil1 str2" d="M64.2652 34.0704c1.6761,-1.0449 2.0948,-1.1389 2.4206,-1.1787 0.139,-0.0172 0.5696,0.0147 0.8659,0.2487 0.3984,0.3149 0.8521,1.2314 0.8521,1.2314 0.9907,-0.6191 2.4262,-1.6866 3.2451,-1.4068 0.2623,0.0897 0.3475,0.2328 0.501,0.4444l0.618 0.8575c0.419,-0.2506 0.8471,-0.602 1.2661,-0.8525 0.3972,-0.2818 0.6996,-0.4545 1.1549,-0.5097 0.2936,-0.0023 0.5294,0.0225 0.7169,0.2839 0.2093,0.2904 0.4271,0.6596 0.6639,1.1128 0.2393,-0.148 0.5335,-0.3756 0.7728,-0.5238 0.3859,-0.2535 0.7605,-0.5127 1.2022,-0.6372 0.2807,-0.0671 0.5764,-0.0979 0.767,0.0433 0.3146,0.1828 0.8037,0.7571 1.0472,1.126"/>
     <path id="_195132424" class="fil1 str2" d="M80.2448 34.301c1.6761,-1.0449 2.0949,-1.1388 2.4206,-1.1787 0.139,-0.0171 0.5697,0.0149 0.8659,0.2489 0.3984,0.3147 0.8521,1.2313 0.8521,1.2313 0.9907,-0.6192 2.4262,-1.6867 3.2451,-1.4069 0.2624,0.0897 0.3476,0.2328 0.501,0.4444l0.618 0.8575c0.419,-0.2506 0.8471,-0.6018 1.2661,-0.8524 0.3972,-0.2819 0.6997,-0.4546 1.1549,-0.5097 0.2936,-0.0023 0.5294,0.0224 0.7169,0.2839 0.2093,0.2905 0.4271,0.6595 0.6639,1.1128 0.2393,-0.1481 0.5335,-0.3756 0.7728,-0.5239 0.3859,-0.2535 0.7606,-0.5126 1.2023,-0.6371 0.2806,-0.0672 0.5763,-0.098 0.7669,0.0432 0.3146,0.1828 0.8038,0.7572 1.0472,1.1261"/>
     <path id="_195132616" class="fil1 str2" d="M96.1326 34.6132c1.6761,-1.0449 2.0948,-1.139 2.4206,-1.1788 0.139,-0.0171 0.5696,0.0148 0.8659,0.2488 0.3984,0.3149 0.8521,1.2313 0.8521,1.2313 0.9907,-0.619 2.4261,-1.6865 3.2451,-1.4067 0.2623,0.0897 0.3475,0.2328 0.501,0.4444l0.618 0.8575c0.419,-0.2506 0.8471,-0.602 1.2661,-0.8526 0.3972,-0.2818 0.6996,-0.4544 1.1549,-0.5096 0.2936,-0.0023 0.5294,0.0225 0.7169,0.2838 0.2093,0.2906 0.4271,0.6596 0.6639,1.1129 0.2392,-0.1482 0.5335,-0.3755 0.7728,-0.5238 0.3859,-0.2536 0.7605,-0.5128 1.2022,-0.6372 0.2807,-0.0671 0.5764,-0.098 0.7669,0.0432 0.3147,0.1829 0.8038,0.7572 1.0472,1.126"/>
     <path id="_195132808" class="fil1 str2" d="M112.02 34.9252c1.6762,-1.0449 2.0949,-1.1388 2.4207,-1.1787 0.139,-0.0171 0.5696,0.0149 0.8659,0.2489 0.3984,0.3147 0.8521,1.2313 0.8521,1.2313 0.9906,-0.6192 2.4261,-1.6867 3.245,-1.4069 0.2624,0.0897 0.3476,0.2328 0.501,0.4444l0.6181 0.8575c0.419,-0.2506 0.8471,-0.6018 1.2661,-0.8524 0.3972,-0.2819 0.6996,-0.4546 1.1548,-0.5097 0.2937,-0.0023 0.5294,0.0224 0.7169,0.2839 0.2094,0.2904 0.4271,0.6595 0.664,1.1128 0.2392,-0.1481 0.5334,-0.3756 0.7728,-0.5239 0.3859,-0.2535 0.7605,-0.5126 1.2022,-0.6371 0.2807,-0.0672 0.5763,-0.098 0.7669,0.0432 0.3146,0.1828 0.8038,0.7572 1.0472,1.1261"/>
     <path id="_194941176" class="fil1 str2" d="M127.908 35.2374c1.6761,-1.0449 2.0948,-1.139 2.4206,-1.1788 0.139,-0.0171 0.5696,0.0148 0.8659,0.2488 0.3984,0.3149 0.8521,1.2313 0.8521,1.2313 0.9907,-0.619 2.4261,-1.6865 3.2451,-1.4067 0.2623,0.0897 0.3475,0.2328 0.501,0.4444l0.618 0.8574c0.419,-0.2505 0.8471,-0.6019 1.2661,-0.8525 0.3972,-0.2818 0.6996,-0.4544 1.1549,-0.5096 0.2936,-0.0023 0.5294,0.0225 0.7169,0.2838 0.2093,0.2906 0.4271,0.6596 0.6639,1.1129 0.2392,-0.1482 0.5335,-0.3755 0.7728,-0.5238 0.3859,-0.2536 0.7605,-0.5128 1.2022,-0.6372 0.2807,-0.0671 0.5764,-0.098 0.7669,0.0432 0.3147,0.1828 0.8038,0.7571 1.0472,1.126"/>
     <path id="_194941368" class="fil1 str2" d="M143.796 35.5494c1.6761,-1.0449 2.0948,-1.1388 2.4206,-1.1787 0.139,-0.0171 0.5696,0.0149 0.8659,0.2489 0.3984,0.3147 0.8521,1.2313 0.8521,1.2313 0.9907,-0.6192 2.4262,-1.6867 3.2451,-1.4069 0.2623,0.0897 0.3475,0.2328 0.501,0.4444l0.618 0.8575c0.419,-0.2506 0.8471,-0.6018 1.2661,-0.8524 0.3972,-0.2819 0.6996,-0.4545 1.1549,-0.5097 0.2936,-0.0023 0.5294,0.0224 0.7169,0.2839 0.2093,0.2904 0.4271,0.6596 0.6639,1.1128 0.2393,-0.1481 0.5335,-0.3756 0.7728,-0.5239 0.3859,-0.2535 0.7605,-0.5126 1.2022,-0.6371 0.2807,-0.0672 0.5764,-0.098 0.767,0.0432 0.3146,0.1828 0.8037,0.7572 1.0472,1.1261"/>
     <path id="_194941944" class="fil1 str2" d="M159.684 35.8616c1.6761,-1.0449 2.0949,-1.139 2.4206,-1.1788 0.139,-0.0171 0.5697,0.0148 0.8659,0.2488 0.3984,0.3149 0.8521,1.2313 0.8521,1.2313 0.9907,-0.619 2.4262,-1.6865 3.2451,-1.4067 0.2624,0.0897 0.3476,0.2328 0.501,0.4443l0.618 0.8575c0.419,-0.2505 0.8471,-0.6019 1.2661,-0.8525 0.3972,-0.2818 0.6997,-0.4544 1.1549,-0.5096 0.2936,-0.0023 0.5294,0.0225 0.7169,0.2838 0.2093,0.2906 0.4271,0.6596 0.6639,1.1129"/>
    </g>
    <g id="_195132040">
     <path id="_194942328" class="fil1 str2" d="M60.6543 29.7533c1.6762,-1.0449 2.0949,-1.139 2.4207,-1.1789 0.139,-0.017 0.5696,0.0149 0.8659,0.2489 0.3984,0.3148 0.8521,1.2313 0.8521,1.2313 0.9906,-0.619 2.4261,-1.6865 3.2451,-1.4067 0.2623,0.0897 0.3475,0.2328 0.501,0.4443l0.618 0.8575c0.419,-0.2505 0.8471,-0.6019 1.2661,-0.8525 0.3972,-0.2819 0.6996,-0.4544 1.1549,-0.5096 0.2936,-0.0023 0.5293,0.0225 0.7168,0.2839 0.2094,0.2904 0.4272,0.6596 0.664,1.1128 0.2392,-0.1482 0.5335,-0.3756 0.7728,-0.5239 0.3859,-0.2536 0.7605,-0.5127 1.2022,-0.6371 0.2807,-0.0671 0.5764,-0.0979 0.7669,0.0431 0.3147,0.183 0.8038,0.7573 1.0472,1.1262"/>
     <path id="_194945784" class="fil1 str2" d="M76.634 29.9839c1.6761,-1.0449 2.0948,-1.1389 2.4206,-1.1787 0.139,-0.0171 0.5696,0.0147 0.8659,0.2488 0.3984,0.3148 0.8521,1.2313 0.8521,1.2313 0.9907,-0.6191 2.4262,-1.6866 3.2451,-1.4068 0.2623,0.0897 0.3475,0.2328 0.501,0.4444l0.618 0.8575c0.419,-0.2506 0.8471,-0.602 1.2661,-0.8526 0.3972,-0.2817 0.6996,-0.4544 1.1549,-0.5096 0.2936,-0.0023 0.5294,0.0225 0.7169,0.2839 0.2093,0.2905 0.4271,0.6596 0.6639,1.1128 0.2393,-0.1481 0.5335,-0.3755 0.7728,-0.5238 0.3859,-0.2535 0.7605,-0.5128 1.2022,-0.6371 0.2807,-0.0672 0.5764,-0.098 0.767,0.0431 0.3146,0.1829 0.8037,0.7572 1.0472,1.1262"/>
     <path id="_194945976" class="fil1 str2" d="M92.5217 30.296c1.6762,-1.045 2.0949,-1.1389 2.4207,-1.1788 0.139,-0.017 0.5696,0.0149 0.8659,0.2489 0.3984,0.3148 0.8521,1.2313 0.8521,1.2313 0.9906,-0.619 2.4261,-1.6865 3.2451,-1.4067 0.2623,0.0897 0.3475,0.2328 0.5009,0.4442l0.6181 0.8575c0.419,-0.2505 0.8471,-0.6018 1.2661,-0.8524 0.3972,-0.2818 0.6996,-0.4544 1.1549,-0.5096 0.2936,-0.0023 0.5293,0.0225 0.7168,0.2838 0.2094,0.2905 0.4272,0.6596 0.664,1.1129 0.2392,-0.1482 0.5335,-0.3757 0.7728,-0.5239 0.3859,-0.2535 0.7605,-0.5127 1.2022,-0.6371 0.2807,-0.0672 0.5764,-0.098 0.7669,0.0431 0.3147,0.1829 0.8038,0.7572 1.0472,1.1261"/>
     <path id="_194946168" class="fil1 str2" d="M108.409 30.6081c1.6762,-1.0449 2.0949,-1.1388 2.4207,-1.1787 0.1389,-0.0171 0.5696,0.0147 0.8659,0.2488 0.3984,0.3148 0.8521,1.2312 0.8521,1.2312 0.9906,-0.619 2.4261,-1.6865 3.245,-1.4067 0.2624,0.0897 0.3476,0.2328 0.501,0.4444l0.6181 0.8575c0.419,-0.2506 0.847,-0.602 1.266,-0.8526 0.3973,-0.2818 0.6997,-0.4544 1.1549,-0.5096 0.2936,-0.0023 0.5294,0.0225 0.7169,0.2839 0.2094,0.2905 0.4271,0.6596 0.664,1.1128 0.2392,-0.1481 0.5334,-0.3755 0.7727,-0.5238 0.3859,-0.2535 0.7606,-0.5128 1.2023,-0.6371 0.2807,-0.0672 0.5763,-0.098 0.7669,0.0431 0.3146,0.1829 0.8038,0.7573 1.0472,1.1262"/>
     <path id="_194946360" class="fil1 str2" d="M124.297 30.9202c1.6762,-1.045 2.0949,-1.1389 2.4207,-1.1788 0.139,-0.017 0.5696,0.0149 0.8659,0.2489 0.3984,0.3148 0.8521,1.2313 0.8521,1.2313 0.9906,-0.6192 2.4261,-1.6865 3.2451,-1.4069 0.2623,0.0898 0.3475,0.233 0.5009,0.4444l0.6181 0.8575c0.419,-0.2505 0.8471,-0.6018 1.2661,-0.8524 0.3972,-0.2818 0.6996,-0.4544 1.1549,-0.5097 0.2936,-0.0022 0.5293,0.0226 0.7168,0.2839 0.2094,0.2905 0.4272,0.6596 0.664,1.1129 0.2392,-0.1482 0.5335,-0.3757 0.7728,-0.5239 0.3859,-0.2535 0.7605,-0.5127 1.2022,-0.6371 0.2807,-0.0672 0.5764,-0.098 0.7669,0.0431 0.3147,0.1829 0.8038,0.7572 1.0472,1.1261"/>
     <path id="_194946552" class="fil1 str2" d="M140.185 31.2323c1.6762,-1.0449 2.0949,-1.1388 2.4207,-1.1788 0.139,-0.017 0.5696,0.0148 0.8659,0.2489 0.3984,0.3148 0.8521,1.2312 0.8521,1.2312 0.9907,-0.619 2.4261,-1.6865 3.2451,-1.4067 0.2623,0.0897 0.3475,0.2328 0.501,0.4444l0.618 0.8575c0.419,-0.2506 0.8471,-0.602 1.2661,-0.8526 0.3972,-0.2818 0.6996,-0.4544 1.1549,-0.5096 0.2936,-0.0023 0.5293,0.0225 0.7168,0.2839 0.2094,0.2905 0.4272,0.6596 0.664,1.1128 0.2392,-0.1481 0.5335,-0.3755 0.7728,-0.5238 0.3859,-0.2535 0.7605,-0.5128 1.2022,-0.6371 0.2807,-0.0672 0.5764,-0.098 0.7669,0.0431 0.3147,0.1829 0.8038,0.7573 1.0472,1.1262"/>
     <path id="_194946744" class="fil1 str2" d="M156.073 31.5444c1.6761,-1.045 2.0949,-1.1389 2.4206,-1.1788 0.139,-0.017 0.5697,0.0149 0.8659,0.2489 0.3984,0.3147 0.8521,1.2313 0.8521,1.2313 0.9907,-0.6191 2.4262,-1.6867 3.2451,-1.4069 0.2623,0.0898 0.3475,0.2329 0.501,0.4444l0.618 0.8575c0.419,-0.2505 0.8471,-0.6018 1.2661,-0.8524 0.3972,-0.2818 0.6997,-0.4544 1.1549,-0.5097 0.2936,-0.0022 0.5294,0.0226 0.7169,0.2839 0.2093,0.2905 0.4271,0.6596 0.6639,1.1129"/>
    </g>
    <g id="_194942136">
     <path id="_194947896" class="fil1 str2" d="M57.4027 25.733c1.6762,-1.0449 2.0949,-1.1389 2.4207,-1.1787 0.139,-0.0172 0.5696,0.0148 0.8659,0.2488 0.3984,0.3147 0.8521,1.2313 0.8521,1.2313 0.9906,-0.6191 2.4261,-1.6866 3.245,-1.4068 0.2624,0.0897 0.3476,0.2328 0.501,0.4443l0.6181 0.8576c0.419,-0.2506 0.847,-0.6019 1.266,-0.8525 0.3973,-0.2818 0.6997,-0.4545 1.1549,-0.5097 0.2937,-0.0022 0.5294,0.0225 0.7169,0.2839 0.2094,0.2905 0.4271,0.6596 0.664,1.1129 0.2392,-0.1482 0.5334,-0.3757 0.7728,-0.5238 0.3859,-0.2536 0.7605,-0.5128 1.2022,-0.6372 0.2807,-0.0672 0.5763,-0.098 0.7669,0.0431 0.3146,0.1829 0.8038,0.7572 1.0472,1.1261"/>
     <path id="_194948088" class="fil1 str2" d="M73.3823 25.9636c1.6762,-1.0449 2.0949,-1.1388 2.4207,-1.1787 0.139,-0.017 0.5696,0.0149 0.8659,0.2489 0.3984,0.3148 0.8521,1.2312 0.8521,1.2312 0.9906,-0.6191 2.4261,-1.6865 3.2451,-1.4068 0.2623,0.0897 0.3475,0.2329 0.501,0.4444l0.618 0.8575c0.419,-0.2506 0.8471,-0.6019 1.2661,-0.8524 0.3972,-0.2819 0.6996,-0.4544 1.1549,-0.5098 0.2936,-0.0021 0.5293,0.0226 0.7168,0.2839 0.2094,0.2906 0.4272,0.6596 0.664,1.113 0.2392,-0.1482 0.5335,-0.3757 0.7728,-0.5239 0.3859,-0.2536 0.7605,-0.5127 1.2022,-0.6371 0.2807,-0.0673 0.5764,-0.0981 0.7669,0.0431 0.3147,0.1828 0.8038,0.7572 1.0472,1.1261"/>
     <path id="_194948280" class="fil1 str2" d="M89.2701 26.2758c1.6762,-1.0449 2.0949,-1.1389 2.4207,-1.1789 0.139,-0.017 0.5696,0.0149 0.8659,0.2489 0.3984,0.3148 0.8521,1.2313 0.8521,1.2313 0.9906,-0.619 2.4261,-1.6865 3.245,-1.4067 0.2624,0.0897 0.3476,0.2328 0.501,0.4444l0.6181 0.8575c0.419,-0.2506 0.847,-0.602 1.266,-0.8526 0.3973,-0.2818 0.6997,-0.4544 1.1549,-0.5096 0.2937,-0.0023 0.5294,0.0225 0.7169,0.2839 0.2094,0.2904 0.4271,0.6596 0.664,1.1128 0.2392,-0.1482 0.5334,-0.3756 0.7727,-0.5239 0.386,-0.2535 0.7606,-0.5127 1.2023,-0.6371 0.2807,-0.0671 0.5763,-0.0979 0.7669,0.0431 0.3146,0.183 0.8038,0.7573 1.0472,1.1262"/>
     <path id="_194948472" class="fil1 str2" d="M105.158 26.5878c1.6761,-1.0449 2.0949,-1.1388 2.4206,-1.1787 0.139,-0.017 0.5697,0.0149 0.8659,0.2489 0.3984,0.3147 0.8522,1.2312 0.8522,1.2312 0.9906,-0.6191 2.4261,-1.6866 3.245,-1.4068 0.2624,0.0897 0.3476,0.2329 0.501,0.4444l0.618 0.8575c0.419,-0.2506 0.8471,-0.6019 1.2661,-0.8524 0.3972,-0.2819 0.6997,-0.4544 1.1549,-0.5098 0.2936,-0.0021 0.5294,0.0226 0.7169,0.2839 0.2093,0.2906 0.4271,0.6596 0.6639,1.113 0.2393,-0.1482 0.5335,-0.3757 0.7728,-0.5239 0.3859,-0.2536 0.7606,-0.5127 1.2023,-0.6371 0.2807,-0.0673 0.5763,-0.0981 0.7669,0.0431 0.3146,0.1828 0.8038,0.7572 1.0472,1.1261"/>
     <path id="_194948664" class="fil1 str2" d="M121.045 26.9c1.6762,-1.0449 2.0949,-1.1389 2.4207,-1.1789 0.139,-0.017 0.5696,0.0149 0.8659,0.2489 0.3984,0.3148 0.8521,1.2313 0.8521,1.2313 0.9906,-0.619 2.4261,-1.6865 3.245,-1.4067 0.2624,0.0897 0.3476,0.2328 0.501,0.4444l0.6181 0.8575c0.419,-0.2506 0.847,-0.602 1.266,-0.8526 0.3973,-0.2818 0.6997,-0.4544 1.1549,-0.5096 0.2936,-0.0023 0.5294,0.0225 0.7169,0.2839 0.2094,0.2904 0.4271,0.6596 0.664,1.1128 0.2392,-0.1482 0.5334,-0.3756 0.7727,-0.5238 0.3859,-0.2536 0.7606,-0.5128 1.2023,-0.6372 0.2807,-0.0671 0.5763,-0.0979 0.7669,0.0431 0.3146,0.183 0.8038,0.7573 1.0472,1.1262"/>
     <path id="_194948856" class="fil1 str2" d="M136.934 27.212c1.6762,-1.0449 2.0949,-1.1388 2.4207,-1.1787 0.139,-0.017 0.5696,0.0149 0.8659,0.2489 0.3984,0.3147 0.8521,1.2312 0.8521,1.2312 0.9906,-0.6191 2.4261,-1.6866 3.245,-1.4068 0.2624,0.0897 0.3476,0.2328 0.501,0.4444l0.6181 0.8575c0.419,-0.2506 0.847,-0.6019 1.266,-0.8524 0.3973,-0.2819 0.6997,-0.4544 1.1549,-0.5098 0.2937,-0.0021 0.5294,0.0225 0.7169,0.284 0.2094,0.2905 0.4271,0.6595 0.664,1.1129 0.2392,-0.1482 0.5334,-0.3757 0.7728,-0.5239 0.3859,-0.2536 0.7605,-0.5127 1.2022,-0.6371 0.2807,-0.0673 0.5763,-0.0981 0.7669,0.0431 0.3146,0.1828 0.8038,0.7572 1.0472,1.1261"/>
     <path id="_194949048" class="fil1 str2" d="M152.821 27.5242c1.6761,-1.0449 2.0948,-1.139 2.4206,-1.1789 0.139,-0.017 0.5696,0.0149 0.8659,0.2489 0.3984,0.3148 0.8521,1.2313 0.8521,1.2313 0.9907,-0.619 2.4261,-1.6865 3.2451,-1.4067 0.2623,0.0897 0.3475,0.2328 0.501,0.4444l0.618 0.8575c0.419,-0.2506 0.8471,-0.602 1.2661,-0.8526 0.3972,-0.2818 0.6996,-0.4544 1.1549,-0.5096 0.2936,-0.0023 0.5294,0.0225 0.7168,0.2839 0.2094,0.2904 0.4272,0.6596 0.664,1.1128"/>
    </g>
    <g id="_194946936">
     <path id="_194949816" class="fil1 str2" d="M54.1367 21.6984c1.6761,-1.0449 2.0948,-1.1388 2.4206,-1.1787 0.139,-0.0171 0.5696,0.0149 0.8659,0.2489 0.3984,0.3147 0.8521,1.2312 0.8521,1.2312 0.9907,-0.6191 2.4262,-1.6866 3.2451,-1.4068 0.2623,0.0897 0.3475,0.2328 0.501,0.4444l0.618 0.8575c0.419,-0.2506 0.8471,-0.6019 1.2661,-0.8524 0.3972,-0.2819 0.6996,-0.4546 1.1549,-0.5097 0.2936,-0.0022 0.5294,0.0224 0.7169,0.2839 0.2093,0.2905 0.4271,0.6595 0.6639,1.1129 0.2393,-0.1482 0.5335,-0.3757 0.7728,-0.5239 0.3859,-0.2536 0.7605,-0.5127 1.2022,-0.6371 0.2807,-0.0673 0.5764,-0.0981 0.767,0.0431 0.3146,0.1828 0.8037,0.7572 1.0472,1.1261"/>
     <path id="_194950008" class="fil1 str2" d="M70.1163 21.9291c1.6761,-1.0449 2.0949,-1.1389 2.4206,-1.1787 0.139,-0.0171 0.5697,0.0148 0.8659,0.2488 0.3984,0.3149 0.8521,1.2313 0.8521,1.2313 0.9907,-0.6191 2.4262,-1.6865 3.2451,-1.4067 0.2624,0.0897 0.3476,0.2328 0.501,0.4442l0.618 0.8576c0.419,-0.2506 0.8471,-0.6019 1.2661,-0.8525 0.3972,-0.2818 0.6997,-0.4544 1.1549,-0.5097 0.2936,-0.0022 0.5294,0.0226 0.7169,0.2839 0.2093,0.2905 0.4271,0.6596 0.6639,1.1129 0.2393,-0.1482 0.5335,-0.3757 0.7728,-0.5238 0.3859,-0.2536 0.7606,-0.5128 1.2023,-0.6372 0.2806,-0.0672 0.5763,-0.098 0.7669,0.0432 0.3146,0.1828 0.8038,0.7571 1.0472,1.126"/>
     <path id="_194952312" class="fil1 str2" d="M86.0041 22.2412c1.6761,-1.0449 2.0948,-1.1388 2.4206,-1.1787 0.139,-0.0171 0.5696,0.0148 0.8659,0.2488 0.3984,0.3148 0.8521,1.2312 0.8521,1.2312 0.9907,-0.619 2.4262,-1.6865 3.2451,-1.4067 0.2623,0.0897 0.3475,0.2328 0.501,0.4444l0.618 0.8575c0.419,-0.2506 0.8471,-0.602 1.2661,-0.8525 0.3972,-0.2819 0.6996,-0.4545 1.1549,-0.5096 0.2936,-0.0023 0.5294,0.0224 0.7169,0.2839 0.2093,0.2904 0.4271,0.6595 0.6639,1.1128 0.2393,-0.1482 0.5335,-0.3756 0.7728,-0.5239 0.3859,-0.2535 0.7605,-0.5127 1.2022,-0.6371 0.2807,-0.0672 0.5764,-0.098 0.7669,0.0431 0.3147,0.1829 0.8038,0.7573 1.0472,1.1262"/>
     <path id="_194952504" class="fil1 str2" d="M101.892 22.5533c1.6762,-1.0449 2.0949,-1.1389 2.4207,-1.1787 0.139,-0.0171 0.5696,0.0148 0.8659,0.2488 0.3984,0.3149 0.8521,1.2313 0.8521,1.2313 0.9906,-0.6191 2.4261,-1.6865 3.245,-1.4068 0.2624,0.0897 0.3476,0.2329 0.501,0.4444l0.6181 0.8575c0.419,-0.2506 0.8471,-0.6019 1.2661,-0.8525 0.3972,-0.2818 0.6996,-0.4544 1.1548,-0.5097 0.2937,-0.0022 0.5294,0.0226 0.7169,0.2839 0.2094,0.2905 0.4272,0.6596 0.664,1.1129 0.2392,-0.1482 0.5335,-0.3757 0.7728,-0.5238 0.3859,-0.2536 0.7605,-0.5128 1.2022,-0.6372 0.2807,-0.0672 0.5764,-0.098 0.7669,0.0432 0.3146,0.1828 0.8038,0.7571 1.0472,1.126"/>
     <path id="_195126664" class="fil1 str2" d="M117.78 22.8654c1.6762,-1.0449 2.0949,-1.1388 2.4207,-1.1788 0.139,-0.017 0.5696,0.0149 0.8659,0.2489 0.3984,0.3148 0.8521,1.2312 0.8521,1.2312 0.9906,-0.619 2.4261,-1.6865 3.245,-1.4067 0.2624,0.0897 0.3476,0.2328 0.501,0.4444l0.6181 0.8575c0.419,-0.2506 0.847,-0.602 1.266,-0.8525 0.3973,-0.2819 0.6997,-0.4545 1.1549,-0.5096 0.2937,-0.0023 0.5294,0.0224 0.7169,0.2839 0.2094,0.2904 0.4271,0.6595 0.664,1.1128 0.2392,-0.1482 0.5334,-0.3756 0.7728,-0.5239 0.3859,-0.2536 0.7605,-0.5127 1.2022,-0.6371 0.2807,-0.0672 0.5763,-0.098 0.7669,0.0431 0.3146,0.1829 0.8038,0.7573 1.0472,1.1262"/>
     <path id="_195128584" class="fil1 str2" d="M133.668 23.1775c1.6762,-1.0449 2.0949,-1.1389 2.4207,-1.1787 0.139,-0.0171 0.5696,0.0148 0.8659,0.2488 0.3984,0.3147 0.8521,1.2313 0.8521,1.2313 0.9906,-0.6191 2.4261,-1.6866 3.245,-1.4068 0.2624,0.0897 0.3476,0.2329 0.501,0.4444l0.6181 0.8575c0.419,-0.2506 0.8471,-0.6019 1.2661,-0.8525 0.3972,-0.2818 0.6996,-0.4544 1.1548,-0.5097 0.2937,-0.0022 0.5294,0.0226 0.7169,0.2839 0.2094,0.2906 0.4271,0.6596 0.664,1.1129 0.2392,-0.1482 0.5335,-0.3757 0.7728,-0.5238 0.3859,-0.2536 0.7605,-0.5128 1.2022,-0.6372 0.2807,-0.0672 0.5763,-0.098 0.7669,0.0432 0.3146,0.1828 0.8038,0.7571 1.0472,1.126"/>
     <path id="_195128776" class="fil1 str2" d="M149.555 23.4896c1.6761,-1.0449 2.0948,-1.1388 2.4206,-1.1788 0.139,-0.017 0.5696,0.0149 0.8659,0.2489 0.3984,0.3148 0.8521,1.2312 0.8521,1.2312 0.9907,-0.619 2.4261,-1.6865 3.2451,-1.4067 0.2623,0.0897 0.3475,0.2328 0.501,0.4444l0.618 0.8575c0.419,-0.2506 0.8471,-0.602 1.2661,-0.8525 0.3972,-0.2819 0.6996,-0.4545 1.1549,-0.5096 0.2936,-0.0023 0.5294,0.0224 0.7169,0.2839 0.2093,0.2904 0.4271,0.6596 0.6639,1.1128"/>
    </g>
    <g id="_194949624">
     <path id="_195129736" class="fil1 str2" d="M51.0433 17.8916c1.6761,-1.0449 2.0949,-1.1388 2.4206,-1.1787 0.139,-0.017 0.5697,0.0149 0.8659,0.2489 0.3984,0.3147 0.8521,1.2313 0.8521,1.2313 0.9907,-0.6192 2.4262,-1.6867 3.2451,-1.4069 0.2624,0.0897 0.3475,0.2328 0.501,0.4444l0.618 0.8575c0.419,-0.2506 0.8471,-0.6018 1.2661,-0.8524 0.3972,-0.2819 0.6997,-0.4544 1.1549,-0.5097 0.2936,-0.0022 0.5294,0.0224 0.7169,0.2839 0.2093,0.2905 0.4271,0.6595 0.6639,1.1129 0.2393,-0.1482 0.5335,-0.3757 0.7728,-0.5239 0.3859,-0.2536 0.7606,-0.5127 1.2023,-0.6371 0.2806,-0.0673 0.5763,-0.0981 0.7669,0.0431 0.3146,0.1828 0.8038,0.7572 1.0472,1.1261"/>
     <path id="_195130312" class="fil1 str2" d="M67.0229 18.1224c1.6761,-1.045 2.0949,-1.139 2.4206,-1.1788 0.139,-0.0171 0.5697,0.0148 0.8659,0.2488 0.3984,0.3149 0.8522,1.2313 0.8522,1.2313 0.9906,-0.619 2.4261,-1.6865 3.245,-1.4067 0.2624,0.0897 0.3476,0.2328 0.501,0.4443l0.618 0.8575c0.419,-0.2506 0.8471,-0.6019 1.2661,-0.8525 0.3972,-0.2818 0.6997,-0.4544 1.1549,-0.5096 0.2936,-0.0023 0.5294,0.0225 0.7169,0.2838 0.2093,0.2906 0.4271,0.6596 0.6639,1.1129 0.2393,-0.1482 0.5335,-0.3757 0.7728,-0.5238 0.3859,-0.2536 0.7606,-0.5128 1.2023,-0.6372 0.2806,-0.0672 0.5763,-0.098 0.7669,0.0432 0.3146,0.1828 0.8038,0.7571 1.0472,1.126"/>
     <path id="_194940024" class="fil1 str2" d="M82.9107 18.4344c1.6761,-1.0449 2.0949,-1.1388 2.4206,-1.1787 0.139,-0.0171 0.5697,0.0148 0.8659,0.2488 0.3984,0.3148 0.8521,1.2312 0.8521,1.2312 0.9907,-0.619 2.4262,-1.6865 3.2451,-1.4067 0.2623,0.0897 0.3475,0.2328 0.501,0.4444l0.618 0.8575c0.419,-0.2506 0.8471,-0.602 1.2661,-0.8525 0.3972,-0.2818 0.6997,-0.4544 1.1549,-0.5096 0.2936,-0.0023 0.5294,0.0224 0.7169,0.2839 0.2093,0.2904 0.4271,0.6596 0.6639,1.1128 0.2393,-0.1482 0.5335,-0.3756 0.7728,-0.5239 0.3859,-0.2535 0.7605,-0.5127 1.2022,-0.6371 0.2807,-0.0672 0.5764,-0.0979 0.767,0.0431 0.3146,0.1829 0.8038,0.7573 1.0472,1.1262"/>
     <path id="_194940216" class="fil1 str2" d="M98.7984 18.7465c1.6762,-1.0449 2.0949,-1.1389 2.4207,-1.1787 0.139,-0.0171 0.5696,0.0148 0.8659,0.2488 0.3984,0.3149 0.8521,1.2313 0.8521,1.2313 0.9906,-0.6191 2.4261,-1.6865 3.2451,-1.4067 0.2623,0.0897 0.3475,0.2328 0.501,0.4443l0.618 0.8575c0.419,-0.2506 0.8471,-0.6019 1.2661,-0.8525 0.3972,-0.2818 0.6996,-0.4544 1.1549,-0.5097 0.2936,-0.0022 0.5293,0.0226 0.7168,0.2839 0.2094,0.2906 0.4272,0.6596 0.664,1.1129 0.2392,-0.1481 0.5335,-0.3757 0.7728,-0.5238 0.3859,-0.2536 0.7605,-0.5128 1.2022,-0.6372 0.2807,-0.0672 0.5764,-0.098 0.7669,0.0432 0.3147,0.1828 0.8038,0.7571 1.0472,1.126"/>
     <path id="_194940408" class="fil1 str2" d="M114.686 19.0587c1.6761,-1.045 2.0948,-1.1389 2.4206,-1.1788 0.139,-0.0171 0.5696,0.0148 0.8659,0.2488 0.3984,0.3148 0.8521,1.2312 0.8521,1.2312 0.9907,-0.619 2.4262,-1.6865 3.2451,-1.4067 0.2623,0.0897 0.3475,0.2328 0.501,0.4444l0.618 0.8575c0.419,-0.2505 0.8471,-0.602 1.2661,-0.8525 0.3972,-0.2819 0.6996,-0.4544 1.1549,-0.5096 0.2936,-0.0023 0.5294,0.0224 0.7169,0.2839 0.2093,0.2904 0.4271,0.6596 0.6639,1.1128 0.2393,-0.1482 0.5335,-0.3756 0.7728,-0.5239 0.3859,-0.2535 0.7605,-0.5127 1.2022,-0.6371 0.2807,-0.0672 0.5764,-0.0979 0.7669,0.0431 0.3147,0.1829 0.8038,0.7573 1.0472,1.1262"/>
     <path id="_194940600" class="fil1 str2" d="M130.574 19.3707c1.6761,-1.0449 2.0948,-1.1389 2.4206,-1.1787 0.139,-0.0171 0.5697,0.0148 0.8659,0.2488 0.3984,0.3149 0.8521,1.2313 0.8521,1.2313 0.9907,-0.6191 2.4262,-1.6865 3.2451,-1.4068 0.2623,0.0897 0.3475,0.2329 0.501,0.4444l0.618 0.8575c0.419,-0.2506 0.8471,-0.6019 1.2661,-0.8525 0.3972,-0.2818 0.6996,-0.4544 1.1549,-0.5097 0.2936,-0.0022 0.5294,0.0226 0.7169,0.2839 0.2093,0.2906 0.4271,0.6596 0.6639,1.1129 0.2393,-0.1481 0.5335,-0.3757 0.7728,-0.5238 0.3859,-0.2536 0.7605,-0.5128 1.2022,-0.6372 0.2807,-0.0672 0.5764,-0.098 0.767,0.0432 0.3146,0.1828 0.8038,0.7571 1.0472,1.126"/>
     <path id="_194940792" class="fil1 str2" d="M146.462 19.6829c1.6761,-1.045 2.0949,-1.1389 2.4206,-1.1789 0.139,-0.017 0.5697,0.0149 0.8659,0.2489 0.3984,0.3148 0.8522,1.2312 0.8522,1.2312 0.9906,-0.619 2.4261,-1.6865 3.245,-1.4067 0.2624,0.0898 0.3476,0.2328 0.501,0.4444l0.618 0.8575c0.419,-0.2505 0.8471,-0.602 1.2661,-0.8525 0.3972,-0.2819 0.6997,-0.4544 1.1549,-0.5096 0.2936,-0.0023 0.5294,0.0224 0.7169,0.2839 0.2093,0.2904 0.4271,0.6596 0.6639,1.1128"/>
    </g>
    <g id="_195128968">
     <path id="_194941752" class="fil1 str2" d="M47.4926 13.8509c1.6762,-1.0449 2.0949,-1.1388 2.4207,-1.1787 0.139,-0.017 0.5696,0.0149 0.8659,0.2489 0.3984,0.3147 0.8521,1.2312 0.8521,1.2312 0.9906,-0.6191 2.4261,-1.6866 3.245,-1.4068 0.2624,0.0897 0.3476,0.2328 0.501,0.4444l0.6181 0.8575c0.419,-0.2506 0.847,-0.6019 1.266,-0.8524 0.3973,-0.2819 0.6997,-0.4544 1.1549,-0.5097 0.2937,-0.0022 0.5294,0.0224 0.7169,0.2839 0.2094,0.2905 0.4271,0.6595 0.664,1.1129 0.2392,-0.1482 0.5334,-0.3757 0.7728,-0.5239 0.3859,-0.2536 0.7605,-0.5127 1.2022,-0.6371 0.2807,-0.0673 0.5763,-0.0981 0.7669,0.0431 0.3146,0.1828 0.8038,0.7572 1.0472,1.1261"/>
     <path id="_194942520" class="fil1 str2" d="M63.4722 14.0817c1.6762,-1.045 2.0949,-1.139 2.4207,-1.1788 0.139,-0.0171 0.5696,0.0148 0.8659,0.2488 0.3984,0.3149 0.8521,1.2313 0.8521,1.2313 0.9906,-0.619 2.4261,-1.6865 3.245,-1.4067 0.2624,0.0897 0.3476,0.2328 0.501,0.4443l0.6181 0.8575c0.419,-0.2506 0.8471,-0.6019 1.2661,-0.8525 0.3972,-0.2818 0.6996,-0.4544 1.1549,-0.5096 0.2936,-0.0023 0.5293,0.0225 0.7168,0.2838 0.2094,0.2905 0.4272,0.6596 0.664,1.1129 0.2392,-0.1482 0.5335,-0.3757 0.7728,-0.5238 0.3859,-0.2536 0.7605,-0.5128 1.2022,-0.6372 0.2807,-0.0672 0.5764,-0.098 0.7669,0.0432 0.3147,0.1828 0.8038,0.7571 1.0472,1.126"/>
     <path id="_194942712" class="fil1 str2" d="M79.36 14.3937c1.6761,-1.0449 2.0949,-1.1388 2.4207,-1.1787 0.1389,-0.0171 0.5696,0.0148 0.8659,0.2488 0.3984,0.3148 0.8521,1.2314 0.8521,1.2314 0.9906,-0.6192 2.4261,-1.6867 3.245,-1.4069 0.2624,0.0897 0.3476,0.2328 0.501,0.4444l0.6181 0.8575c0.419,-0.2506 0.847,-0.602 1.266,-0.8525 0.3973,-0.2818 0.6997,-0.4545 1.1549,-0.5096 0.2936,-0.0023 0.5294,0.0224 0.7169,0.2839 0.2094,0.2904 0.4271,0.6595 0.664,1.1128 0.2392,-0.1482 0.5334,-0.3756 0.7727,-0.5239 0.3859,-0.2535 0.7606,-0.5127 1.2023,-0.6371 0.2807,-0.0672 0.5763,-0.098 0.7669,0.0431 0.3146,0.1829 0.8038,0.7573 1.0472,1.1262"/>
     <path id="_194942904" class="fil1 str2" d="M95.2478 14.7058c1.6761,-1.0449 2.0949,-1.1389 2.4206,-1.1787 0.139,-0.0171 0.5697,0.0148 0.8659,0.2488 0.3984,0.3149 0.8522,1.2313 0.8522,1.2313 0.9906,-0.619 2.4261,-1.6865 3.245,-1.4067 0.2624,0.0897 0.3476,0.2328 0.501,0.4443l0.618 0.8575c0.419,-0.2506 0.8471,-0.6019 1.2661,-0.8525 0.3972,-0.2818 0.6997,-0.4544 1.1549,-0.5096 0.2936,-0.0023 0.5294,0.0225 0.7169,0.2838 0.2093,0.2906 0.4271,0.6596 0.6639,1.1129 0.2393,-0.1482 0.5335,-0.3757 0.7728,-0.5238 0.3859,-0.2536 0.7606,-0.5128 1.2023,-0.6372 0.2806,-0.0672 0.5763,-0.098 0.7669,0.0432 0.3146,0.1828 0.8038,0.7571 1.0472,1.126"/>
     <path id="_194943096" class="fil1 str2" d="M111.136 15.0179c1.6761,-1.0449 2.0949,-1.1388 2.4206,-1.1787 0.139,-0.0171 0.5697,0.0148 0.8659,0.2488 0.3984,0.3148 0.8521,1.2312 0.8521,1.2312 0.9907,-0.619 2.4262,-1.6865 3.2451,-1.4067 0.2623,0.0897 0.3475,0.2328 0.501,0.4444l0.618 0.8575c0.419,-0.2506 0.8471,-0.602 1.2661,-0.8525 0.3972,-0.2819 0.6996,-0.4545 1.1549,-0.5096 0.2936,-0.0023 0.5294,0.0224 0.7169,0.2839 0.2093,0.2904 0.4271,0.6596 0.6639,1.1128 0.2393,-0.1482 0.5335,-0.3756 0.7728,-0.5239 0.3859,-0.2535 0.7605,-0.5127 1.2022,-0.6371 0.2807,-0.0672 0.5764,-0.098 0.767,0.0431 0.3146,0.1829 0.8038,0.7573 1.0472,1.1262"/>
     <path id="_194943288" class="fil1 str2" d="M127.024 15.33c1.6761,-1.0449 2.0949,-1.1389 2.4206,-1.1787 0.139,-0.0171 0.5697,0.0148 0.8659,0.2488 0.3984,0.3149 0.8522,1.2313 0.8522,1.2313 0.9906,-0.6191 2.4261,-1.6865 3.245,-1.4067 0.2624,0.0897 0.3476,0.2328 0.501,0.4443l0.618 0.8575c0.419,-0.2506 0.8471,-0.6019 1.2661,-0.8525 0.3973,-0.2818 0.6997,-0.4544 1.1549,-0.5097 0.2936,-0.0022 0.5294,0.0226 0.7169,0.2839 0.2093,0.2906 0.4271,0.6596 0.6639,1.1129 0.2393,-0.1482 0.5335,-0.3757 0.7728,-0.5238 0.3859,-0.2536 0.7606,-0.5128 1.2023,-0.6372 0.2807,-0.0672 0.5763,-0.098 0.7669,0.0432 0.3146,0.1828 0.8038,0.7571 1.0472,1.126"/>
     <path id="_194943480" class="fil1 str2" d="M142.911 15.6421c1.6762,-1.0449 2.0949,-1.1388 2.4207,-1.1788 0.139,-0.017 0.5696,0.0149 0.8659,0.2489 0.3984,0.3148 0.8521,1.2312 0.8521,1.2312 0.9906,-0.619 2.4261,-1.6865 3.245,-1.4067 0.2624,0.0897 0.3476,0.2328 0.501,0.4444l0.6181 0.8575c0.419,-0.2506 0.847,-0.602 1.266,-0.8525 0.3973,-0.2819 0.6997,-0.4544 1.1549,-0.5096 0.2937,-0.0023 0.5294,0.0224 0.7169,0.2839 0.2094,0.2904 0.4271,0.6596 0.664,1.1128"/>
    </g>
    <g id="_194941560">
     <path id="_194944824" class="fil1 str2" d="M44.6456 10.377c1.6761,-1.045 2.0949,-1.139 2.4207,-1.1789 0.1389,-0.017 0.5696,0.0149 0.8659,0.2489 0.3984,0.3148 0.8521,1.2312 0.8521,1.2312 0.9906,-0.619 2.4261,-1.6865 3.245,-1.4067 0.2624,0.0898 0.3476,0.2328 0.501,0.4444l0.6181 0.8575c0.419,-0.2505 0.847,-0.602 1.266,-0.8525 0.3973,-0.2819 0.6997,-0.4544 1.1549,-0.5096 0.2936,-0.0023 0.5294,0.0224 0.7169,0.2838 0.2094,0.2905 0.4271,0.6595 0.6639,1.1129 0.2393,-0.1482 0.5335,-0.3756 0.7728,-0.5239 0.3859,-0.2536 0.7606,-0.5127 1.2023,-0.6371 0.2807,-0.0672 0.5763,-0.0981 0.7669,0.0431 0.3146,0.1829 0.8038,0.7573 1.0472,1.1261"/>
     <path id="_194945016" class="fil1 str2" d="M60.6252 10.6076c1.6762,-1.0449 2.0949,-1.139 2.4207,-1.1788 0.139,-0.0171 0.5696,0.0148 0.8659,0.2488 0.3984,0.3149 0.8521,1.2313 0.8521,1.2313 0.9906,-0.619 2.4261,-1.6865 3.245,-1.4067 0.2624,0.0897 0.3476,0.2328 0.501,0.4444l0.6181 0.8575c0.419,-0.2506 0.847,-0.602 1.266,-0.8526 0.3973,-0.2818 0.6997,-0.4544 1.1549,-0.5096 0.2937,-0.0023 0.5294,0.0225 0.7169,0.2839 0.2094,0.2904 0.4271,0.6596 0.664,1.1128 0.2392,-0.1482 0.5334,-0.3755 0.7728,-0.5238 0.3859,-0.2536 0.7605,-0.5128 1.2022,-0.6372 0.2807,-0.0671 0.5763,-0.0979 0.7669,0.0431 0.3146,0.183 0.8038,0.7573 1.0472,1.1262"/>
     <path id="_194945208" class="fil1 str2" d="M76.513 10.9196c1.6761,-1.0449 2.0949,-1.1388 2.4206,-1.1787 0.139,-0.017 0.5697,0.0149 0.8659,0.2489 0.3984,0.3147 0.8522,1.2313 0.8522,1.2313 0.9906,-0.6192 2.4261,-1.6867 3.245,-1.4069 0.2624,0.0897 0.3476,0.2328 0.501,0.4444l0.618 0.8575c0.419,-0.2506 0.8471,-0.6018 1.2661,-0.8524 0.3973,-0.2819 0.6997,-0.4546 1.1549,-0.5097 0.2936,-0.0022 0.5294,0.0224 0.7169,0.2839 0.2093,0.2905 0.4271,0.6595 0.6639,1.1129 0.2393,-0.1482 0.5335,-0.3757 0.7728,-0.5239 0.3859,-0.2536 0.7606,-0.5127 1.2023,-0.6371 0.2807,-0.0673 0.5763,-0.0981 0.7669,0.0431 0.3146,0.1828 0.8038,0.7572 1.0472,1.1261"/>
     <path id="_194945400" class="fil1 str2" d="M92.4008 11.2318c1.6761,-1.0449 2.0949,-1.139 2.4206,-1.1788 0.139,-0.0171 0.5697,0.0148 0.8659,0.2488 0.3984,0.3149 0.8521,1.2313 0.8521,1.2313 0.9907,-0.619 2.4262,-1.6865 3.2451,-1.4067 0.2624,0.0897 0.3476,0.2328 0.501,0.4444l0.618 0.8575c0.419,-0.2506 0.8471,-0.602 1.2661,-0.8526 0.3972,-0.2818 0.6997,-0.4544 1.1549,-0.5096 0.2936,-0.0023 0.5294,0.0225 0.7169,0.2839 0.2093,0.2904 0.4271,0.6595 0.6639,1.1128 0.2393,-0.1482 0.5335,-0.3755 0.7728,-0.5238 0.3859,-0.2536 0.7606,-0.5128 1.2023,-0.6372 0.2806,-0.0671 0.5763,-0.0979 0.7669,0.0432 0.3146,0.1829 0.8038,0.7572 1.0472,1.126"/>
     <path id="_194945592" class="fil1 str2" d="M108.289 11.5438c1.6761,-1.0449 2.0948,-1.1388 2.4206,-1.1787 0.139,-0.0171 0.5696,0.0149 0.8659,0.2489 0.3984,0.3147 0.8521,1.2313 0.8521,1.2313 0.9907,-0.6192 2.4261,-1.6867 3.2451,-1.4069 0.2623,0.0897 0.3475,0.2328 0.501,0.4444l0.618 0.8575c0.419,-0.2506 0.8471,-0.6018 1.2661,-0.8524 0.3972,-0.2819 0.6996,-0.4546 1.1549,-0.5097 0.2936,-0.0022 0.5294,0.0224 0.7169,0.2839 0.2093,0.2905 0.4271,0.6595 0.6639,1.1129 0.2392,-0.1482 0.5335,-0.3757 0.7728,-0.5239 0.3859,-0.2536 0.7605,-0.5127 1.2022,-0.6371 0.2807,-0.0673 0.5764,-0.0981 0.7669,0.0431 0.3147,0.1828 0.8038,0.7572 1.0472,1.1261"/>
     <path id="_194947128" class="fil1 str2" d="M124.177 11.856c1.6761,-1.0449 2.0949,-1.139 2.4206,-1.1788 0.139,-0.0171 0.5697,0.0148 0.8659,0.2488 0.3984,0.3149 0.8522,1.2313 0.8522,1.2313 0.9906,-0.619 2.4261,-1.6865 3.245,-1.4067 0.2624,0.0897 0.3476,0.2328 0.501,0.4444l0.618 0.8575c0.419,-0.2506 0.8471,-0.602 1.2661,-0.8526 0.3973,-0.2818 0.6997,-0.4544 1.1549,-0.5096 0.2936,-0.0023 0.5294,0.0225 0.7169,0.2839 0.2093,0.2904 0.4271,0.6595 0.6639,1.1128 0.2393,-0.1482 0.5335,-0.3755 0.7728,-0.5238 0.3859,-0.2536 0.7606,-0.5128 1.2023,-0.6372 0.2807,-0.0671 0.5763,-0.0979 0.7669,0.0432 0.3146,0.1829 0.8038,0.7572 1.0472,1.126"/>
     <path id="_194947320" class="fil1 str2" d="M140.064 12.168c1.6762,-1.0449 2.0949,-1.1388 2.4207,-1.1787 0.139,-0.0171 0.5696,0.0149 0.8659,0.2489 0.3984,0.3147 0.8521,1.2313 0.8521,1.2313 0.9906,-0.6192 2.4261,-1.6867 3.245,-1.4069 0.2624,0.0897 0.3476,0.2328 0.501,0.4444l0.6181 0.8575c0.419,-0.2506 0.847,-0.6018 1.266,-0.8524 0.3973,-0.2819 0.6997,-0.4546 1.1549,-0.5097 0.2937,-0.0022 0.5294,0.0224 0.7169,0.2839 0.2094,0.2905 0.4271,0.6595 0.664,1.1128"/>
    </g>
    <line id="_359696520" class="fil1 str2" x1="85.4531" y1="54.1123" x2="46.2964" y2= "7.7314" />
    <line id="_359696856" class="fil1 str2" x1="89.842" y1="54.148" x2="50.6853" y2= "7.7669" />
    <line id="_359697192" class="fil1 str2" x1="93.8341" y1="54.3252" x2="54.6774" y2= "7.9441" />
    <line id="_359697528" class="fil1 str2" x1="97.4287" y1="54.5729" x2="58.2717" y2= "8.1918" />
    <line id="_359697864" class="fil1 str2" x1="101.413" y1="54.4721" x2="62.2564" y2= "8.0911" />
    <line id="_359698200" class="fil1 str2" x1="105.924" y1="54.5405" x2="66.7672" y2= "8.1595" />
    <line id="_359698536" class="fil1 str2" x1="109.859" y1="54.5083" x2="70.7021" y2= "8.1272" />
    <line id="_359698872" class="fil1 str2" x1="113.398" y1="54.5955" x2="74.2407" y2= "8.2144" />
    <line id="_359699208" class="fil1 str2" x1="117.178" y1="54.4862" x2="78.0214" y2= "8.1051" />
    <line id="_359699544" class="fil1 str2" x1="121.938" y1="54.7869" x2="82.7807" y2= "8.4058" />
    <line id="_359699880" class="fil1 str2" x1="125.852" y1="54.803" x2="86.6957" y2= "8.422" />
    <line id="_359700216" class="fil1 str2" x1="129.488" y1="54.826" x2="90.332" y2= "8.4449" />
    <line id="_359700552" class="fil1 str2" x1="133.316" y1="54.872" x2="94.1591" y2= "8.4909" />
    <line id="_359700888" class="fil1 str2" x1="137.312" y1="54.8699" x2="98.1558" y2= "8.4888" />
    <line id="_359701224" class="fil1 str2" x1="141.281" y1="55.0246" x2="102.124" y2= "8.6435" />
    <line id="_359701560" class="fil1 str2" x1="145.155" y1="55.0793" x2="105.998" y2= "8.6983" />
    <line id="_359701896" class="fil1 str2" x1="148.909" y1="54.9952" x2="109.753" y2= "8.6142" />
    <line id="_359702232" class="fil1 str2" x1="153.178" y1="55.0549" x2="114.021" y2= "8.6739" />
    <line id="_359702568" class="fil1 str2" x1="157.31" y1="55.1603" x2="118.153" y2= "8.7793" />
    <line id="_359702904" class="fil1 str2" x1="160.983" y1="55.2504" x2="121.826" y2= "8.8694" />
    <line id="_359703240" class="fil1 str2" x1="164.619" y1="55.2874" x2="125.463" y2= "8.9064" />
    <line id="_359703576" class="fil1 str2" x1="169.219" y1="55.3338" x2="130.062" y2= "8.9527" />
    <line id="_359703912" class="fil1 str2" x1="173.237" y1="55.2986" x2="134.081" y2= "8.9175" />
    <line id="_359704248" class="fil1 str2" x1="176.541" y1="55.2861" x2="137.385" y2= "8.905" />
    <line id="_359704584" class="fil1 str2" x1="180.832" y1="55.5374" x2="141.675" y2= "9.1564" />
    <line id="_359704920" class="fil1 str2" x1="184.976" y1="55.6169" x2="145.819" y2= "9.2358" />
    <line id="_359705256" class="fil1 str2" x1="188.494" y1="54.9285" x2="149.337" y2= "8.5475" />
    <line id="_359705592" class="fil1 str2" x1="192.755" y1="56.6461" x2="153.649" y2= "8.5562" />
   </g>
  </g>
 </g>
</svg>
