<?xml version="1.0" encoding="UTF-8"?>
<!DOCTYPE svg PUBLIC "-//W3C//DTD SVG 1.1//EN" "http://www.w3.org/Graphics/SVG/1.1/DTD/svg11.dtd">
<!-- Creator: CorelDRAW -->
<svg xmlns="http://www.w3.org/2000/svg" xml:space="preserve" width="210mm" height="297mm" style="shape-rendering:geometricPrecision; text-rendering:geometricPrecision; image-rendering:optimizeQuality; fill-rule:evenodd; clip-rule:evenodd"
viewBox="0 0 210 297"
 xmlns:xlink="http://www.w3.org/1999/xlink">
 <defs>
  <style type="text/css">
   <![CDATA[
    .str0 {stroke:#333333;stroke-width:0.5}
    .fil1 {fill:none}
    .fil0 {fill:#96272E}
   ]]>
  </style>
 </defs>
 <g id="Слой_x0020_1">
  <metadata id="CorelCorpID_0Corel-Layer"/>
  <polygon class="fil0 str0" points="4.327,52.9301 42.696,8.7738 46.5858,13.5314 12.1856,53.4821 "/>
  <line class="fil1 str0" x1="17.1237" y1="47.7474" x2="16.3464" y2= "88.6145" />
  <line class="fil1 str0" x1="188.775" y1="56.562" x2="188.774" y2= "89.8903" />
  <line class="fil1 str0" x1="3.4024" y1="88.6145" x2="204.954" y2= "90.0014" />
  <line class="fil1 str0" x1="94.1516" y1="56.0635" x2="93.5088" y2= "89.2346" />
  <g id="_356424576">
   <polygon id="_362732120" class="fil0 str0" points="42.6032,9.183 157.522,9.9442 196.412,56.6264 81.8656,55.4948 "/>
   <polygon id="_362733944" class="fil0 str0" points="42.7075,9.1266 45.0986,11.9551 159.667,12.5194 157.522,9.9442 "/>
   <polygon id="_362734664" class="fil0 str0" points="54.2461,22.9163 56.358,21.3145 60.786,26.2853 58.8481,28.3446 56.9664,26.1249 55.4767,24.3677 "/>
   <polygon id="_362734856" class="fil0 str0" points="46.7691,14.0969 52.83,14.7832 57.6254,18.9971 54.2461,22.9163 51.392,19.5498 48.7818,16.471 "/>
   <polygon id="_362735048" class="fil0 str0" points="84.0871,51.5967 93.46,51.5542 98.2554,55.7681 98.1275,55.6556 83.7916,55.5139 82.307,54.0229 "/>
   <polygon id="_362735240" class="fil0 str0" points="95.3036,49.0611 104.676,49.0184 109.472,53.2323 107.655,55.7861 98.1275,55.6556 93.5235,51.4872 "/>
   <polygon id="_362735432" class="fil0 str0" points="106.52,46.5253 115.893,46.4828 120.688,50.6966 118.872,53.2504 109.317,53.5484 104.74,48.9514 "/>
   <polygon id="_362735624" class="fil0 str0" points="117.737,43.9896 127.109,43.947 131.905,48.1609 130.088,50.7147 120.534,51.0127 115.956,46.4158 "/>
   <polygon id="_362735816" class="fil0 str0" points="128.953,41.4538 138.326,41.4113 143.121,45.6252 141.305,48.179 131.75,48.4769 127.173,43.88 "/>
   <polygon id="_362736008" class="fil0 str0" points="140.169,38.9182 149.542,38.8755 154.338,43.0894 152.521,45.6432 142.967,45.9412 138.389,41.3443 "/>
   <polygon id="_362736200" class="fil0 str0" points="151.386,36.3824 160.759,36.3398 165.554,40.5537 163.738,43.1075 154.183,43.4055 149.606,38.8085 "/>
   <polygon id="_362736392" class="fil0 str0" points="162.602,33.8467 171.975,33.8041 176.771,38.018 174.954,40.5718 165.4,40.8698 160.822,36.2729 "/>
   <polygon id="_362736584" class="fil0 str0" points="74.4926,47.0585 79.2671,47.1159 84.0626,51.3297 82.2461,53.8835 80.8428,54.0714 76.6465,49.3388 "/>
   <polygon id="_362736776" class="fil0 str0" points="81.1107,44.6227 90.4836,44.5802 95.279,48.7941 93.4626,51.3479 83.9081,51.6458 79.3306,47.0489 "/>
   <polygon id="_362736968" class="fil0 str0" points="92.3272,42.087 101.7,42.0444 106.496,46.2583 104.679,48.8121 95.1245,49.1101 90.5471,44.5132 "/>
   <polygon id="_362737160" class="fil0 str0" points="103.544,39.5513 112.917,39.5087 117.712,43.7226 115.896,46.2764 106.341,46.5743 101.763,41.9774 "/>
   <polygon id="_362737352" class="fil0 str0" points="114.76,37.0156 124.133,36.973 128.928,41.1868 127.112,43.7406 117.557,44.0387 112.98,39.4417 "/>
   <polygon id="_362737544" class="fil0 str0" points="125.977,34.4798 135.349,34.4373 140.145,38.6512 138.328,41.205 128.774,41.5029 124.197,36.906 "/>
   <polygon id="_362737736" class="fil0 str0" points="137.193,31.9441 146.566,31.9015 151.361,36.1154 149.545,38.6692 139.99,38.9672 135.413,34.3703 "/>
   <polygon id="_362737928" class="fil0 str0" points="148.41,29.4084 157.782,29.3658 162.578,33.5797 160.761,36.1335 151.207,36.4314 146.629,31.8345 "/>
   <polygon id="_362738120" class="fil0 str0" points="159.626,26.8727 168.999,26.83 173.794,31.0439 171.978,33.5977 162.423,33.8958 157.846,29.2988 "/>
   <polygon id="_362738312" class="fil0 str0" points="68.8709,40.167 76.2907,40.1418 81.0862,44.3557 79.2697,46.9095 74.7157,47.0611 70.5992,42.2055 "/>
   <polygon id="_362738504" class="fil0 str0" points="78.1343,37.6487 87.5072,37.6062 92.3026,41.8199 90.4862,44.3737 80.9317,44.6718 76.3542,40.0748 "/>
   <polygon id="_362738696" class="fil0 str0" points="89.3508,35.113 98.7237,35.0704 103.519,39.2843 101.703,41.8381 92.1481,42.1361 87.5707,37.5392 "/>
   <polygon id="_362738888" class="fil0 str0" points="100.567,32.5772 109.94,32.5347 114.736,36.7486 112.919,39.3024 103.365,39.6003 98.7871,35.0034 "/>
   <polygon id="_362739080" class="fil0 str0" points="111.784,30.0416 121.157,29.9989 125.952,34.2128 124.136,36.7666 114.581,37.0645 110.004,32.4677 "/>
   <polygon id="_362739272" class="fil0 str0" points="123,27.5058 132.373,27.4633 137.168,31.677 135.352,34.2308 125.798,34.5289 121.22,29.9319 "/>
   <polygon id="_362739464" class="fil0 str0" points="134.217,24.9701 143.589,24.9275 148.385,29.1414 146.569,31.6952 137.014,31.9932 132.437,27.3963 "/>
   <polygon id="_362739656" class="fil0 str0" points="145.433,22.4343 154.806,22.3918 159.601,26.6057 157.785,29.1595 148.23,29.4574 143.653,24.8605 "/>
   <polygon id="_362739848" class="fil0 str0" points="156.65,19.8987 166.022,19.856 169.806,24.6889 169.001,26.6237 159.447,26.9216 154.869,22.3248 "/>
   <polygon id="_362740040" class="fil0 str0" points="63.9415,33.2104 73.3143,33.1678 78.1098,37.3817 76.2933,39.9355 68.8709,40.167 63.9961,34.4169 "/>
   <polygon id="_362740232" class="fil0 str0" points="75.1579,30.6747 84.5308,30.6321 89.3262,34.8459 87.5098,37.3997 77.9553,37.6977 73.3778,33.1008 "/>
   <polygon id="_362740424" class="fil0 str0" points="86.3744,28.139 95.7473,28.0964 100.543,32.3102 98.7262,34.864 89.1717,35.1621 84.5943,30.5651 "/>
   <polygon id="_362740616" class="fil0 str0" points="97.5908,25.6032 106.964,25.5607 111.759,29.7746 109.943,32.3284 100.388,32.6263 95.8107,28.0294 "/>
   <polygon id="_362740808" class="fil0 str0" points="108.807,23.0675 118.18,23.0249 122.976,27.2388 121.159,29.7926 111.605,30.0905 107.027,25.4937 "/>
   <polygon id="_362741000" class="fil0 str0" points="120.024,20.5318 129.397,20.4892 134.192,24.703 132.376,27.2568 122.821,27.5548 118.244,22.9579 "/>
   <polygon id="_362741192" class="fil0 str0" points="131.24,17.9961 140.613,17.9535 145.409,22.1673 143.592,24.7211 134.038,25.0192 129.46,20.4222 "/>
   <polygon id="_362741384" class="fil0 str0" points="142.457,15.4603 151.83,15.4178 156.625,19.6317 154.809,22.1855 145.254,22.4834 140.677,17.8865 "/>
   <polygon id="_362741576" class="fil0 str0" points="153.673,12.9245 160.268,12.8947 164.416,18.2191 165.618,19.6625 156.471,19.9476 151.893,15.3508 "/>
   <polygon id="_362741768" class="fil0 str0" points="60.9651,26.2364 70.3379,26.1938 75.1334,30.4077 73.3169,32.9615 63.7624,33.2594 59.185,28.6626 "/>
   <polygon id="_362741960" class="fil0 str0" points="72.1815,23.7006 81.5544,23.6581 86.3498,27.8719 84.5334,30.4257 74.9789,30.7237 70.4014,26.1268 "/>
   <polygon id="_362742152" class="fil0 str0" points="83.398,21.165 92.7709,21.1223 97.5663,25.3362 95.7498,27.89 86.1953,28.1879 81.6179,23.5911 "/>
   <polygon id="_362742344" class="fil0 str0" points="94.6145,18.6292 103.987,18.5867 108.783,22.8004 106.966,25.3542 97.4118,25.6523 92.8343,21.0553 "/>
   <polygon id="_362742536" class="fil0 str0" points="105.831,16.0935 115.204,16.0509 119.999,20.2648 118.183,22.8186 108.628,23.1165 104.051,18.5197 "/>
   <polygon id="_362742728" class="fil0 str0" points="117.047,13.5577 126.42,13.5152 131.216,17.729 129.399,20.2828 119.845,20.5808 115.267,15.9839 "/>
   <polygon id="_362742920" class="fil0 str0" points="128.724,12.3671 139.275,12.419 142.432,15.1933 140.616,17.7471 131.061,18.045 126.484,13.4482 "/>
   <polygon id="_362743112" class="fil0 str0" points="142.523,12.435 148.809,12.4659 153.649,12.6575 151.832,15.2113 142.278,15.5094 139.275,12.419 "/>
   <polygon id="_362743304" class="fil0 str0" points="57.9887,19.2624 67.3615,19.2198 72.157,23.4336 70.3405,25.9875 60.786,26.2854 56.2086,21.6884 "/>
   <polygon id="_362743496" class="fil0 str0" points="69.2051,16.7266 78.578,16.6841 83.3734,20.8979 81.557,23.4517 72.0025,23.7497 67.425,19.1528 "/>
   <polygon id="_362743688" class="fil0 str0" points="80.4216,14.1908 89.7945,14.1483 94.5899,18.3622 92.7735,20.916 83.2189,21.2139 78.6415,16.6171 "/>
   <polygon id="_362743880" class="fil0 str0" points="91.7018,12.1847 101.1,12.2312 105.806,15.8264 103.99,18.3802 94.4354,18.6782 89.8579,14.0813 "/>
   <polygon id="_362744072" class="fil0 str0" points="105.236,12.2512 115.71,12.4435 117.023,13.2907 115.206,15.8445 105.652,16.1425 101.1,12.2313 "/>
   <polygon id="_362744264" class="fil0 str0" points="117.775,12.3132 123.311,12.3404 128.724,12.3671 126.423,13.3088 116.868,13.6068 115.569,12.3023 "/>
   <polygon id="_362744456" class="fil0 str0" points="55.0123,12.2884 64.3851,12.2457 69.1806,16.4596 67.3641,19.0134 57.8096,19.3113 53.2322,14.7144 "/>
   <polygon id="_362744648" class="fil0 str0" points="67.6412,12.0662 78.3429,12.1189 80.397,13.9238 78.5806,16.4777 69.0261,16.7757 64.4486,12.1787 "/>
   <polygon id="_362744840" class="fil0 str0" points="80.0928,12.1276 87.6126,12.1646 91.7019,12.1847 89.7971,13.942 80.2425,14.2399 78.3429,12.1189 "/>
   <polygon id="_362745032" class="fil0 str0" points="109.506,53.3061 118.879,53.2635 122.357,55.9034 120.051,55.8721 112.171,55.7943 107.726,55.7322 "/>
   <polygon id="_362745224" class="fil0 str0" points="120.723,50.7704 130.095,50.7278 134.891,54.9416 133.983,56.2187 121.868,55.89 118.942,53.1966 "/>
   <polygon id="_362745416" class="fil0 str0" points="131.939,48.2346 141.312,48.1921 146.107,52.406 144.291,54.9598 134.736,55.2577 130.159,50.6608 "/>
   <polygon id="_362745608" class="fil0 str0" points="143.155,45.6989 152.528,45.6563 157.324,49.8702 155.507,52.424 145.953,52.7219 141.375,48.1251 "/>
   <polygon id="_362745800" class="fil0 str0" points="154.372,43.1632 163.745,43.1206 168.54,47.3345 166.724,49.8882 157.169,50.1862 152.592,45.5893 "/>
   <polygon id="_362745992" class="fil0 str0" points="165.588,40.6275 174.961,40.5849 179.757,44.7987 177.94,47.3526 168.386,47.6506 163.808,43.0536 "/>
   <polygon id="_362746184" class="fil0 str0" points="176.805,38.0917 181.182,38.0718 184.862,42.7623 186.877,45.1806 179.602,45.1148 175.025,40.5179 "/>
   <polygon id="_362746376" class="fil0 str0" points="146.087,52.8201 155.46,52.7776 160.255,56.4545 157.513,56.2422 149.28,56.1609 144.086,56.1096 "/>
   <polygon id="_362746568" class="fil0 str0" points="157.303,50.2844 166.676,50.2418 171.472,54.4557 169.524,56.3608 159.651,56.4604 155.523,52.7106 "/>
   <polygon id="_362746760" class="fil0 str0" points="168.52,47.7487 177.893,47.7061 182.688,51.92 180.872,54.4738 171.317,54.7717 166.74,50.1748 "/>
   <polygon id="_362746952" class="fil0 str0" points="179.736,45.213 187.06,45.4007 191.031,50.1669 192.088,51.938 182.534,52.2361 177.956,47.6391 "/>
  </g>
 </g>
</svg>
