<?xml version="1.0" encoding="UTF-8"?>
<!DOCTYPE svg PUBLIC "-//W3C//DTD SVG 1.1//EN" "http://www.w3.org/Graphics/SVG/1.1/DTD/svg11.dtd">
<!-- Creator: CorelDRAW -->
<svg xmlns="http://www.w3.org/2000/svg" xml:space="preserve" width="210mm" height="297mm" style="shape-rendering:geometricPrecision; text-rendering:geometricPrecision; image-rendering:optimizeQuality; fill-rule:evenodd; clip-rule:evenodd"
viewBox="0 0 210 297"
 xmlns:xlink="http://www.w3.org/1999/xlink">
 <defs>
  <style type="text/css">
   <![CDATA[
    .str0 {stroke:#333333;stroke-width:0.5}
    .fil1 {fill:none}
    .fil0 {fill:#96272E}
   ]]>
  </style>
 </defs>
 <g id="Слой_x0020_1">
  <metadata id="CorelCorpID_0Corel-Layer"/>
  <polygon class="fil0 str0" points="42.6032,16.1328 157.522,16.7825 196.412,56.6264 81.8656,55.6606 "/>
  <polygon class="fil0 str0" points="4.327,53.0198 42.696,16.0377 46.5858,20.0223 12.1856,53.4821 "/>
  <line class="fil1 str0" x1="17.1032" y1="48.6998" x2="16.3464" y2= "88.6145" />
  <line class="fil1 str0" x1="188.775" y1="56.562" x2="188.774" y2= "89.8903" />
  <line class="fil1 str0" x1="3.4024" y1="88.6145" x2="204.954" y2= "90.0014" />
  <polygon class="fil0 str0" points="42.7075,16.0847 45.0986,18.4989 159.667,18.9805 157.522,16.7825 "/>
  <line class="fil1 str0" x1="94.1516" y1="56.0635" x2="93.5088" y2= "89.2346" />
  <polygon class="fil0 str0" points="54.2461,27.8544 56.358,26.4872 60.786,30.7299 58.8481,32.4875 56.9664,30.593 55.4767,29.0932 "/>
  <polygon class="fil0 str0" points="46.7691,20.3269 52.83,20.9127 57.6254,24.5093 54.2461,27.8544 51.392,24.981 48.7818,22.3532 "/>
  <polygon class="fil0 str0" points="84.0871,52.3335 93.46,52.2972 98.2554,55.8938 98.1275,55.7978 83.7916,55.6769 82.307,54.4043 "/>
  <polygon class="fil0 str0" points="95.3036,50.1693 104.676,50.1329 109.472,53.7295 107.655,55.9092 98.1275,55.7978 93.5235,52.24 "/>
  <polygon class="fil0 str0" points="106.52,48.005 115.893,47.9687 120.688,51.5652 118.872,53.7449 109.317,53.9993 104.74,50.0757 "/>
  <polygon class="fil0 str0" points="117.737,45.8407 127.109,45.8044 131.905,49.401 130.088,51.5807 120.534,51.835 115.956,47.9115 "/>
  <polygon class="fil0 str0" points="128.953,43.6764 138.326,43.6401 143.121,47.2367 141.305,49.4164 131.75,49.6707 127.173,45.7472 "/>
  <polygon class="fil0 str0" points="140.169,41.5122 149.542,41.4758 154.338,45.0724 152.521,47.2521 142.967,47.5064 138.389,43.5829 "/>
  <polygon class="fil0 str0" points="151.386,39.3479 160.759,39.3115 165.554,42.9081 163.738,45.0878 154.183,45.3422 149.606,41.4186 "/>
  <polygon class="fil0 str0" points="162.602,37.1836 171.975,37.1473 176.771,40.7439 174.954,42.9236 165.4,43.1779 160.822,39.2544 "/>
  <polygon class="fil0 str0" points="74.4926,48.4601 79.2671,48.5091 84.0626,52.1056 82.2461,54.2853 80.8428,54.4457 76.6465,50.4063 "/>
  <polygon class="fil0 str0" points="81.1107,46.3811 90.4836,46.3448 95.279,49.9414 93.4626,52.1211 83.9081,52.3754 79.3306,48.4519 "/>
  <polygon class="fil0 str0" points="92.3272,44.2168 101.7,44.1805 106.496,47.7771 104.679,49.9568 95.1245,50.2111 90.5471,46.2876 "/>
  <polygon class="fil0 str0" points="103.544,42.0526 112.917,42.0162 117.712,45.6128 115.896,47.7925 106.341,48.0468 101.763,44.1233 "/>
  <polygon class="fil0 str0" points="114.76,39.8883 124.133,39.852 128.928,43.4485 127.112,45.6282 117.557,45.8826 112.98,41.959 "/>
  <polygon class="fil0 str0" points="125.977,37.724 135.349,37.6877 140.145,41.2843 138.328,43.464 128.774,43.7183 124.197,39.7948 "/>
  <polygon class="fil0 str0" points="137.193,35.5597 146.566,35.5234 151.361,39.12 149.545,41.2997 139.99,41.554 135.413,37.6305 "/>
  <polygon class="fil0 str0" points="148.41,33.3955 157.782,33.3591 162.578,36.9557 160.761,39.1354 151.207,39.3897 146.629,35.4662 "/>
  <polygon class="fil0 str0" points="159.626,31.2312 168.999,31.1948 173.794,34.7914 171.978,36.9711 162.423,37.2255 157.846,33.3019 "/>
  <polygon class="fil0 str0" points="68.8709,42.5781 76.2907,42.5566 81.0862,46.1532 79.2697,48.3329 74.7157,48.4623 70.5992,44.318 "/>
  <polygon class="fil0 str0" points="78.1343,40.4287 87.5072,40.3924 92.3026,43.9889 90.4862,46.1686 80.9317,46.423 76.3542,42.4994 "/>
  <polygon class="fil0 str0" points="89.3508,38.2644 98.7237,38.2281 103.519,41.8247 101.703,44.0044 92.1481,44.2587 87.5707,40.3352 "/>
  <polygon class="fil0 str0" points="100.567,36.1001 109.94,36.0638 114.736,39.6604 112.919,41.8401 103.365,42.0944 98.7871,38.1709 "/>
  <polygon class="fil0 str0" points="111.784,33.9359 121.157,33.8995 125.952,37.4961 124.136,39.6758 114.581,39.9301 110.004,36.0066 "/>
  <polygon class="fil0 str0" points="123,31.7716 132.373,31.7353 137.168,35.3318 135.352,37.5115 125.798,37.7659 121.22,33.8423 "/>
  <polygon class="fil0 str0" points="134.217,29.6073 143.589,29.571 148.385,33.1676 146.569,35.3473 137.014,35.6016 132.437,31.6781 "/>
  <polygon class="fil0 str0" points="145.433,27.443 154.806,27.4067 159.601,31.0033 157.785,33.183 148.23,33.4373 143.653,29.5138 "/>
  <polygon class="fil0 str0" points="156.65,25.2788 166.022,25.2424 169.806,29.3673 169.001,31.0187 159.447,31.273 154.869,27.3495 "/>
  <polygon class="fil0 str0" points="63.9415,36.6405 73.3143,36.6042 78.1098,40.2008 76.2933,42.3805 68.8709,42.5781 63.9961,37.6703 "/>
  <polygon class="fil0 str0" points="75.1579,34.4763 84.5308,34.4399 89.3262,38.0365 87.5098,40.2162 77.9553,40.4705 73.3778,36.547 "/>
  <polygon class="fil0 str0" points="86.3744,32.312 95.7473,32.2757 100.543,35.8722 98.7262,38.0519 89.1717,38.3063 84.5943,34.3827 "/>
  <polygon class="fil0 str0" points="97.5908,30.1477 106.964,30.1114 111.759,33.708 109.943,35.8877 100.388,36.142 95.8107,32.2185 "/>
  <polygon class="fil0 str0" points="108.807,27.9834 118.18,27.9471 122.976,31.5437 121.159,33.7234 111.605,33.9777 107.027,30.0542 "/>
  <polygon class="fil0 str0" points="120.024,25.8192 129.397,25.7828 134.192,29.3794 132.376,31.5591 122.821,31.8134 118.244,27.8899 "/>
  <polygon class="fil0 str0" points="131.24,23.6549 140.613,23.6186 145.409,27.2151 143.592,29.3948 134.038,29.6492 129.46,25.7256 "/>
  <polygon class="fil0 str0" points="142.457,21.4906 151.83,21.4543 156.625,25.0509 154.809,27.2306 145.254,27.4849 140.677,23.5614 "/>
  <polygon class="fil0 str0" points="153.673,19.3263 160.268,19.3008 164.416,23.8453 165.618,25.0772 156.471,25.3206 151.893,21.3971 "/>
  <polygon class="fil0 str0" points="60.9651,30.6881 70.3379,30.6518 75.1334,34.2484 73.3169,36.4281 63.7624,36.6824 59.185,32.7589 "/>
  <polygon class="fil0 str0" points="72.1815,28.5238 81.5544,28.4875 86.3498,32.0841 84.5334,34.2638 74.9789,34.5181 70.4014,30.5946 "/>
  <polygon class="fil0 str0" points="83.398,26.3596 92.7709,26.3232 97.5663,29.9198 95.7498,32.0995 86.1953,32.3538 81.6179,28.4303 "/>
  <polygon class="fil0 str0" points="94.6145,24.1953 103.987,24.159 108.783,27.7555 106.966,29.9352 97.4118,30.1896 92.8343,26.266 "/>
  <polygon class="fil0 str0" points="105.831,22.031 115.204,21.9947 119.999,25.5913 118.183,27.771 108.628,28.0253 104.051,24.1018 "/>
  <polygon class="fil0 str0" points="117.047,19.8667 126.42,19.8304 131.216,23.427 129.399,25.6067 119.845,25.861 115.267,21.9375 "/>
  <polygon class="fil0 str0" points="128.724,18.8505 139.275,18.8948 142.432,21.2627 140.616,23.4424 131.061,23.6967 126.484,19.7732 "/>
  <polygon class="fil0 str0" points="142.523,18.9085 148.809,18.9348 153.649,19.0984 151.832,21.2781 142.278,21.5325 139.275,18.8948 "/>
  <polygon class="fil0 str0" points="57.9887,24.7357 67.3615,24.6994 72.157,28.2959 70.3405,30.4757 60.786,30.73 56.2086,26.8064 "/>
  <polygon class="fil0 str0" points="69.2051,22.5714 78.578,22.5351 83.3734,26.1317 81.557,28.3114 72.0025,28.5657 67.425,24.6422 "/>
  <polygon class="fil0 str0" points="80.4216,20.4071 89.7945,20.3708 94.5899,23.9674 92.7735,26.1471 83.2189,26.4014 78.6415,22.4779 "/>
  <polygon class="fil0 str0" points="91.7018,18.6948 101.1,18.7345 105.806,21.8031 103.99,23.9828 94.4354,24.2371 89.8579,20.3136 "/>
  <polygon class="fil0 str0" points="105.236,18.7516 115.71,18.9157 117.023,19.6388 115.206,21.8185 105.652,22.0729 101.1,18.7346 "/>
  <polygon class="fil0 str0" points="117.775,18.8045 123.311,18.8277 128.724,18.8505 126.423,19.6543 116.868,19.9086 115.569,18.7952 "/>
  <polygon class="fil0 str0" points="55.0123,18.7833 64.3851,18.7469 69.1806,22.3435 67.3641,24.5232 57.8096,24.7775 53.2322,20.854 "/>
  <polygon class="fil0 str0" points="67.6412,18.5937 78.3429,18.6387 80.397,20.1792 78.5806,22.359 69.0261,22.6133 64.4486,18.6897 "/>
  <polygon class="fil0 str0" points="80.0928,18.6461 87.6126,18.6777 91.7019,18.6948 89.7971,20.1947 80.2425,20.449 78.3429,18.6387 "/>
  <polygon class="fil0 str0" points="109.506,53.7925 118.879,53.7561 122.357,56.0093 120.051,55.9826 112.171,55.9162 107.726,55.8632 "/>
  <polygon class="fil0 str0" points="120.723,51.6282 130.095,51.5919 134.891,55.1884 133.983,56.2784 121.868,55.9979 118.942,53.699 "/>
  <polygon class="fil0 str0" points="131.939,49.4639 141.312,49.4276 146.107,53.0242 144.291,55.2039 134.736,55.4582 130.159,51.5347 "/>
  <polygon class="fil0 str0" points="143.155,47.2996 152.528,47.2633 157.324,50.8599 155.507,53.0396 145.953,53.2939 141.375,49.3704 "/>
  <polygon class="fil0 str0" points="154.372,45.1354 163.745,45.099 168.54,48.6956 166.724,50.8753 157.169,51.1296 152.592,47.2061 "/>
  <polygon class="fil0 str0" points="165.588,42.9711 174.961,42.9348 179.757,46.5313 177.94,48.7111 168.386,48.9654 163.808,45.0418 "/>
  <polygon class="fil0 str0" points="176.805,40.8068 181.182,40.7898 184.862,44.7932 186.877,46.8573 179.602,46.8011 175.025,42.8776 "/>
  <polygon class="fil0 str0" points="146.087,53.3777 155.46,53.3414 160.255,56.4797 157.513,56.2985 149.28,56.2291 144.086,56.1853 "/>
  <polygon class="fil0 str0" points="157.303,51.2134 166.676,51.1771 171.472,54.7737 169.524,56.3997 159.651,56.4847 155.523,53.2842 "/>
  <polygon class="fil0 str0" points="168.52,49.0492 177.893,49.0128 182.688,52.6094 180.872,54.7891 171.317,55.0434 166.74,51.1199 "/>
  <polygon class="fil0 str0" points="179.736,46.8849 187.06,47.0451 191.031,51.1131 192.088,52.6248 182.534,52.8792 177.956,48.9556 "/>
 </g>
</svg>
