<?xml version="1.0" encoding="UTF-8"?>
<!DOCTYPE svg PUBLIC "-//W3C//DTD SVG 1.1//EN" "http://www.w3.org/Graphics/SVG/1.1/DTD/svg11.dtd">
<!-- Creator: CorelDRAW -->
<svg xmlns="http://www.w3.org/2000/svg" xml:space="preserve" width="210mm" height="297mm" style="shape-rendering:geometricPrecision; text-rendering:geometricPrecision; image-rendering:optimizeQuality; fill-rule:evenodd; clip-rule:evenodd"
viewBox="0 0 210 297"
 xmlns:xlink="http://www.w3.org/1999/xlink">
 <defs>
  <style type="text/css">
   <![CDATA[
    .str0 {stroke:#2B2A29;stroke-width:0.5}
    .str1 {stroke:#333333;stroke-width:0.5}
    .fil1 {fill:none}
    .fil0 {fill:#999999}
   ]]>
  </style>
 </defs>
 <g id="Слой_x0020_1">
  <metadata id="CorelCorpID_0Corel-Layer"/>
  <polygon class="fil0 str0" points="4.327,53.0198 42.696,16.0377 46.5858,20.0223 12.1856,53.4821 "/>
  <line class="fil1 str0" x1="17.1032" y1="48.6998" x2="16.3464" y2= "88.6145" />
  <line class="fil1 str0" x1="93.0875" y1="54.9178" x2="93.5462" y2= "89.5391" />
  <line class="fil1 str0" x1="188.775" y1="55.2915" x2="188.775" y2= "89.0768" />
  <line class="fil1 str0" x1="3.4024" y1="88.6145" x2="204.954" y2= "90.0014" />
 </g>
 <g id="_355463808">
  <path id="_355480200" class="fil0 str1" d="M79.7493 55.5795l-37.1461 -39.4467 116.065 0.6561 36.707 37.5445c-0.613,0.0038 -2.2924,1.4401 -3.0059,1.4716 -0.8334,0.037 -0.7202,-1.3152 -1.6929,-1.0773 -0.8341,0.204 -2.0031,1.0437 -2.7171,1.0957 -0.8334,0.0607 -0.6456,-1.1265 -1.4933,-1.0303 -0.678,0.077 -1.765,0.8257 -2.3948,0.852 -0.7823,0.0326 -0.5153,-1.0337 -1.3271,-0.9696 -0.6485,0.0514 -2.1466,1.096 -2.7692,1.1173 -0.9199,0.0315 -0.6817,-1.2417 -1.6166,-1.1847 -0.7713,0.0471 -2.0701,1.0913 -2.8274,1.1172 -0.727,0.0247 -0.6248,-1.0734 -1.3565,-1.0433 -0.6586,0.0269 -1.9303,0.8602 -2.5815,0.8777 -0.7489,0.0201 -0.4661,-0.9724 -1.2224,-0.9477 -0.6504,0.0212 -2.1419,1.0088 -2.7881,1.0223 -0.7967,0.0165 -0.5488,-1.1618 -1.3522,-1.1398 -0.7217,0.0197 -2.5261,1.1269 -3.2437,1.1433 -0.8167,0.0188 -0.5655,-1.0574 -1.3769,-1.0415 -0.5843,0.0114 -1.8834,0.8486 -2.4632,0.8567 -0.7062,0.0099 -0.3898,-1.0035 -1.0958,-0.9916 -0.7148,0.0121 -2.3172,1.1241 -3.0254,1.131 -0.8529,0.0083 -0.5646,-1.2028 -1.4166,-1.1922 -0.7814,0.0097 -2.3263,1.1377 -3.1016,1.1422 -0.8016,0.0048 -0.4559,-1.0558 -1.2573,-1.0505 -0.6494,0.0042 -1.9982,0.8731 -2.6448,0.8746 -0.6609,0.0014 -0.3278,-1.0028 -0.989,-1.0011 -0.6164,0.0017 -2.2846,1.0816 -2.8981,1.0806 -0.8211,-0.0014 -0.664,-1.0887 -1.4839,-1.0902 -0.7523,-0.0014 -2.4137,1.0962 -3.1617,1.0908 -0.6661,-0.0049 -0.5027,-1.0472 -1.1674,-1.0526 -0.627,-0.0051 -2.082,0.8283 -2.7056,0.8208 -0.6025,-0.0074 -0.4061,-0.9367 -1.0069,-0.9448 -0.7423,-0.01 -2.3737,1.0568 -3.1105,1.0427 -0.787,-0.0151 -0.5022,-1.0908 -1.2855,-1.1078 -0.7572,-0.0164 -2.3871,1.1662 -3.1384,1.1448 -0.7294,-0.0206 -0.6264,-1.0219 -1.3517,-1.0453 -0.6408,-0.0207 -1.9487,0.8398 -2.5851,0.8154 -0.6099,-0.0233 -0.4247,-0.9198 -1.0315,-0.9455 -0.6108,-0.0258 -2.301,1.1039 -2.907,1.0742 -0.7484,-0.0368 -0.6572,-1.0986 -1.3995,-1.1397 -0.7401,-0.0409 -2.5508,1.1905 -3.2826,1.1427 -0.6703,-0.0437 -0.5482,-0.9972 -1.2122,-1.0457 -0.6394,-0.0466 -1.9386,0.869 -2.5711,0.8167 -0.605,-0.05 -0.5135,-0.8872 -1.1126,-0.9418 -0.6873,-0.0627 -2.3235,1.1029 -3.0016,1.0323 -0.6905,-0.0718 -0.4978,-1.0771 -1.1796,-1.1563 -0.6609,-0.0767 -2.7,1.2862 -3.3506,1.2005 -0.6172,-0.0812 -0.5292,-0.9627 -1.1376,-1.0513 -0.6186,-0.0901 -2.199,0.9175 -2.8073,0.8183 -0.492,-0.0802 -0.2908,-0.8444 -0.7761,-0.9303 -0.6474,-0.1146 -2.6807,1.2278 -3.3144,1.1011 -0.6184,-0.1237 -0.5542,-0.8957 -1.1598,-1.0307 -0.6842,-0.1524 -2.8435,1.4389 -3.5087,1.2694 -0.558,-0.1421 -0.6109,-0.7773 -1.1556,-0.9315 -0.6621,-0.1873 -2.4953,1.1609 -3.1357,0.9534 -0.6981,-0.2263 -0.6757,-0.7187 -1.6942,-0.6618l-2.2349 0.8857 0.0004 0 0.0004 0z"/>
  <line id="_355463304" class="fil1 str1" x1="68.5489" y1="16.3562" x2="104.611" y2= "54.5386" />
  <line id="_355466736" class="fil1 str1" x1="93.344" y1="16.3334" x2="129.406" y2= "54.5158" />
  <line id="_355464360" class="fil1 str1" x1="118.139" y1="16.3106" x2="154.201" y2= "54.493" />
  <line id="_355461456" class="fil1 str1" x1="142.934" y1="16.2878" x2="178.996" y2= "54.4702" />
  <g id="_187780872">
   <path id="_187782408" class="fil1 str1" d="M66.5711 41.6939c2.5331,-2.9013 2.8482,1.1775 4.9481,-0.8487 0.9082,-0.8761 1.4071,-0.5462 2.0889,0.0394 0.9868,0.8479 1.3722,0.6822 2.3618,-0.5367 0.434,-0.5346 1.2949,-0.6509 1.9039,0.0804 0.4843,0.5815 0.8751,0.5867 1.3024,0.6569"/>
   <path id="_187782312" class="fil1 str1" d="M79.0574 41.023c0.8358,0.3581 1.1552,-0.5777 1.4209,-0.8247 1.5828,-1.4713 1.7051,1.9798 3.6346,0.2476 0.908,-0.815 1.4071,-0.452 2.0888,0.1795 0.9869,0.9142 1.3723,0.7742 2.3619,-0.3782 0.4339,-0.5054 1.2949,-0.564 1.9039,0.2081 0.4843,0.6141 0.8751,0.6455 1.3024,0.7444"/>
   <path id="_187784328" class="fil1 str1" d="M91.6532 41.1529c0.8357,0.3582 1.1552,-0.5777 1.4208,-0.8247 1.5829,-1.4712 1.7051,1.9799 3.6346,0.2476 0.908,-0.815 1.4071,-0.4519 2.0889,0.1796 0.9868,0.9141 1.3722,0.7742 2.3618,-0.3782 0.434,-0.5055 1.2949,-0.5641 1.9039,0.2081 0.4843,0.6141 0.8751,0.6454 1.3024,0.7443"/>
   <path id="_187788792" class="fil1 str1" d="M104.249 41.2829c0.8357,0.3581 1.1552,-0.5777 1.4209,-0.8247 1.5828,-1.4713 1.705,1.9798 3.6346,0.2476 0.9079,-0.815 1.407,-0.4519 2.0888,0.1796 0.9868,0.9141 1.3723,0.7742 2.3619,-0.3783 0.4339,-0.5054 1.2949,-0.564 1.9039,0.2081 0.4843,0.6142 0.875,0.6455 1.3023,0.7444"/>
   <path id="_187787064" class="fil1 str1" d="M116.845 41.4129c0.8358,0.3581 1.1552,-0.5777 1.4209,-0.8247 1.5828,-1.4713 1.7051,1.9798 3.6346,0.2476 0.908,-0.815 1.4071,-0.452 2.0888,0.1795 0.9869,0.9142 1.3723,0.7742 2.3619,-0.3782 0.4339,-0.5054 1.2949,-0.564 1.9039,0.2081 0.4843,0.6141 0.8751,0.6454 1.3024,0.7444"/>
   <path id="_187786368" class="fil1 str1" d="M129.44 41.5428c0.8357,0.3582 1.1552,-0.5777 1.4208,-0.8247 1.5829,-1.4712 1.7051,1.9798 3.6346,0.2476 0.908,-0.815 1.4071,-0.4519 2.0889,0.1796 0.9868,0.9141 1.3722,0.7742 2.3618,-0.3783 0.434,-0.5054 1.2949,-0.564 1.9039,0.2082 0.4843,0.6141 0.8751,0.6454 1.3024,0.7443"/>
   <path id="_187788384" class="fil1 str1" d="M142.036 41.6728c0.8357,0.3581 1.1552,-0.5777 1.4209,-0.8247 1.5828,-1.4713 1.705,1.9798 3.6346,0.2476 0.9079,-0.815 1.407,-0.4519 2.0888,0.1796 0.9868,0.9141 1.3723,0.7742 2.3619,-0.3783 0.4339,-0.5054 1.2949,-0.564 1.9039,0.2081 0.4843,0.6141 0.875,0.6455 1.3023,0.7444"/>
   <path id="_187787088" class="fil1 str1" d="M154.632 41.8028c0.8358,0.3581 1.1552,-0.5777 1.4209,-0.8247 1.5828,-1.4713 1.7051,1.9798 3.6346,0.2476 0.908,-0.815 1.4071,-0.452 2.0888,0.1795 0.9869,0.9142 1.3723,0.7742 2.3619,-0.3782 0.4339,-0.5054 1.2949,-0.564 1.9039,0.2081 0.4843,0.6141 0.8751,0.6454 1.3024,0.7444"/>
   <path id="_187783872" class="fil1 str1" d="M167.227 41.9327c0.8357,0.3581 1.1552,-0.5777 1.4208,-0.8247 1.5829,-1.4712 1.7051,1.9798 3.6346,0.2476 0.908,-0.815 1.4071,-0.4519 2.0889,0.1796 0.9868,0.9141 1.3722,0.7742 2.3618,-0.3783 0.434,-0.5054 1.2949,-0.564 1.9039,0.2082 0.4843,0.6141 0.8751,0.6454 1.3024,0.7443"/>
   <path id="_187787760" class="fil1 str1" d="M179.823 42.0627c0.8357,0.3581 1.2954,-1.7289 1.7541,-1.6921"/>
  </g>
  <g id="_187780872_0">
   <path id="_187782408_1" class="fil1 str1" d="M52.6922 26.4552c2.5331,-2.9013 2.8482,1.1775 4.9481,-0.8487 0.9082,-0.8761 1.4071,-0.5462 2.0889,0.0394 0.9868,0.8479 1.3722,0.6822 2.3618,-0.5367 0.434,-0.5346 1.2949,-0.6509 1.9039,0.0804 0.4843,0.5815 0.8751,0.5867 1.3024,0.6569"/>
   <path id="_187782312_2" class="fil1 str1" d="M65.1785 25.7843c0.8358,0.3581 1.1552,-0.5777 1.4209,-0.8247 1.5828,-1.4713 1.7051,1.9798 3.6346,0.2476 0.908,-0.815 1.4071,-0.452 2.0888,0.1795 0.9869,0.9142 1.3723,0.7742 2.3619,-0.3782 0.4339,-0.5054 1.2949,-0.564 1.9039,0.2081 0.4843,0.6141 0.8751,0.6455 1.3024,0.7444"/>
   <path id="_187784328_3" class="fil1 str1" d="M77.7743 25.9142c0.8357,0.3582 1.1552,-0.5777 1.4208,-0.8247 1.5829,-1.4712 1.7051,1.9799 3.6346,0.2476 0.908,-0.815 1.4071,-0.4519 2.0889,0.1796 0.9868,0.9141 1.3722,0.7742 2.3618,-0.3782 0.434,-0.5055 1.2949,-0.5641 1.9039,0.2081 0.4843,0.6141 0.8751,0.6454 1.3024,0.7443"/>
   <path id="_187788792_4" class="fil1 str1" d="M90.3701 26.0442c0.8357,0.3581 1.1552,-0.5777 1.4209,-0.8247 1.5828,-1.4713 1.705,1.9798 3.6346,0.2476 0.9079,-0.815 1.407,-0.4519 2.0888,0.1796 0.9868,0.9141 1.3723,0.7742 2.3619,-0.3783 0.4339,-0.5054 1.2949,-0.564 1.9039,0.2081 0.4843,0.6142 0.875,0.6455 1.3023,0.7444"/>
   <path id="_187787064_5" class="fil1 str1" d="M102.966 26.1742c0.8358,0.3581 1.1552,-0.5777 1.4209,-0.8247 1.5828,-1.4713 1.7051,1.9798 3.6346,0.2476 0.908,-0.815 1.4071,-0.452 2.0888,0.1795 0.9869,0.9142 1.3723,0.7742 2.3619,-0.3782 0.4339,-0.5054 1.2949,-0.564 1.9039,0.2081 0.4843,0.6141 0.8751,0.6454 1.3024,0.7444"/>
   <path id="_187786368_6" class="fil1 str1" d="M115.561 26.3041c0.8357,0.3582 1.1552,-0.5777 1.4208,-0.8247 1.5829,-1.4712 1.7051,1.9798 3.6346,0.2476 0.908,-0.815 1.4071,-0.4519 2.0889,0.1796 0.9868,0.9141 1.3722,0.7742 2.3618,-0.3783 0.434,-0.5054 1.2949,-0.564 1.9039,0.2082 0.4843,0.6141 0.8751,0.6454 1.3024,0.7443"/>
   <path id="_187788384_7" class="fil1 str1" d="M128.157 26.4341c0.8357,0.3581 1.1552,-0.5777 1.4209,-0.8247 1.5828,-1.4713 1.705,1.9798 3.6346,0.2476 0.9079,-0.815 1.407,-0.4519 2.0888,0.1796 0.9868,0.9141 1.3723,0.7742 2.3619,-0.3783 0.4339,-0.5054 1.2949,-0.564 1.9039,0.2081 0.4843,0.6141 0.875,0.6455 1.3023,0.7444"/>
   <path id="_187787088_8" class="fil1 str1" d="M140.753 26.5641c0.8358,0.3581 1.1552,-0.5777 1.4209,-0.8247 1.5828,-1.4713 1.7051,1.9798 3.6346,0.2476 0.908,-0.815 1.4071,-0.452 2.0888,0.1795 0.9869,0.9142 1.3723,0.7742 2.3619,-0.3782 0.4339,-0.5054 1.2949,-0.564 1.9039,0.2081 0.4843,0.6141 0.8751,0.6454 1.3024,0.7444"/>
   <path id="_187783872_9" class="fil1 str1" d="M153.348 26.694c0.8357,0.3581 1.1552,-0.5777 1.4208,-0.8247 1.5829,-1.4712 1.7051,1.9798 3.6346,0.2476 0.908,-0.815 1.4071,-0.4519 2.0889,0.1796 0.9868,0.9141 1.3722,0.7742 2.3618,-0.3783 0.434,-0.5054 1.2949,-0.564 1.9039,0.2082 0.4843,0.6141 0.8751,0.6454 1.3024,0.7443"/>
   <path id="_187787760_10" class="fil1 str1" d="M165.944 26.824c0.8357,0.3581 1.2954,-1.7289 1.7541,-1.6921"/>
  </g>
 </g>
</svg>
