<?xml version="1.0" encoding="UTF-8"?>
<!DOCTYPE svg PUBLIC "-//W3C//DTD SVG 1.1//EN" "http://www.w3.org/Graphics/SVG/1.1/DTD/svg11.dtd">
<!-- Creator: CorelDRAW -->
<svg xmlns="http://www.w3.org/2000/svg" xml:space="preserve" width="210mm" height="297mm" style="shape-rendering:geometricPrecision; text-rendering:geometricPrecision; image-rendering:optimizeQuality; fill-rule:evenodd; clip-rule:evenodd"
viewBox="0 0 210 297"
 xmlns:xlink="http://www.w3.org/1999/xlink">
 <defs>
  <style type="text/css">
   <![CDATA[
    .str0 {stroke:#333333;stroke-width:0.5}
    .fil1 {fill:none}
    .fil0 {fill:#B32E37}
   ]]>
  </style>
 </defs>
 <g id="Слой_x0020_1">
  <metadata id="CorelCorpID_0Corel-Layer"/>
  <polygon class="fil0 str0" points="42.6032,16.1328 157.522,16.7825 196.412,56.6264 81.8656,55.6606 "/>
  <polygon class="fil0 str0" points="4.327,53.0198 42.696,16.0377 46.5858,20.0223 12.1856,53.4821 "/>
  <line class="fil1 str0" x1="17.1032" y1="48.6998" x2="16.3464" y2= "88.6145" />
  <line class="fil1 str0" x1="93.0986" y1="55.7554" x2="93.5462" y2= "89.5391" />
  <line class="fil1 str0" x1="188.775" y1="56.562" x2="188.774" y2= "89.8903" />
  <line class="fil1 str0" x1="3.4024" y1="88.6145" x2="204.954" y2= "90.0014" />
  <line class="fil1 str0" x1="51.1148" y1="17.9786" x2="88.6822" y2= "55.7222" />
  <line class="fil1 str0" x1="57.4444" y1="17.911" x2="95.0118" y2= "55.6546" />
  <line class="fil1 str0" x1="63.961" y1="18.0312" x2="101.528" y2= "55.7748" />
  <line class="fil1 str0" x1="70.3566" y1="18.03" x2="107.924" y2= "55.7736" />
  <line class="fil1 str0" x1="76.873" y1="18.15" x2="114.44" y2= "55.8936" />
  <line class="fil1 str0" x1="83.2697" y1="18.1497" x2="120.837" y2= "55.8933" />
  <line class="fil1 str0" x1="90.1066" y1="18.3668" x2="127.674" y2= "56.1104" />
  <line class="fil1 str0" x1="96.1049" y1="18.1914" x2="133.672" y2= "55.935" />
  <line class="fil1 str0" x1="102.955" y1="18.4399" x2="140.522" y2= "56.1835" />
  <line class="fil1 str0" x1="109.128" y1="18.4839" x2="146.695" y2= "56.2275" />
  <line class="fil1 str0" x1="115.895" y1="18.5651" x2="153.463" y2= "56.3087" />
  <line class="fil1 str0" x1="122.358" y1="18.5719" x2="159.926" y2= "56.3155" />
  <line class="fil1 str0" x1="128.466" y1="18.638" x2="166.033" y2= "56.3816" />
  <line class="fil1 str0" x1="135.345" y1="18.6825" x2="172.912" y2= "56.4261" />
  <line class="fil1 str0" x1="141.496" y1="18.6604" x2="179.064" y2= "56.404" />
  <line class="fil1 str0" x1="147.934" y1="18.8812" x2="185.502" y2= "56.6248" />
  <line class="fil1 str0" x1="154.834" y1="18.949" x2="192.401" y2= "56.6926" />
  <polygon class="fil0 str0" points="42.7075,16.0847 45.0986,18.4989 159.667,18.9805 157.522,16.7825 "/>
  <g id="_197261320">
   <path id="_188344768" class="fil1 str0" d="M78.2061 51.9469c0.1337,0.1395 0.7377,0.5893 0.9401,0.7277 0.9121,0.624 2.8646,0.689 3.7919,0.0935 1.0466,-0.6722 1.4605,-0.8832 2.0841,-0.5237 0.4524,0.2608 0.5246,0.6852 1.5913,0.9996 0.883,0.2602 1.8015,0.26 2.6823,-0.1649 0.9487,-0.4577 1.597,-1.4942 2.5098,-0.59 0.6044,0.5987 1.3082,0.8384 2.2894,0.8432 1.0937,0.0054 1.4776,0.0792 2.3263,-0.5512 1.5818,-1.1747 1.5999,-0.1536 2.6293,0.3291 0.628,0.3765 2.8633,0.3159 3.5407,-0.0869 0.3562,-0.2118 0.7809,-0.7672 1.1007,-0.9001 0.2823,-0.1172 0.5422,0.0445 0.7445,0.1952"/>
   <path id="_188343352" class="fil1 str0" d="M104.28 52.2463c0.1337,0.1395 0.7377,0.5893 0.9401,0.7277 0.9121,0.624 2.8646,0.689 3.7919,0.0935 1.0466,-0.6722 1.4605,-0.8832 2.0841,-0.5237 0.4524,0.2608 0.5246,0.6852 1.5912,0.9996 0.883,0.2602 1.8015,0.26 2.6823,-0.1649 0.9487,-0.4577 1.597,-1.4942 2.5098,-0.59 0.6044,0.5987 1.3082,0.8384 2.2894,0.8432 1.0937,0.0054 1.4776,0.0792 2.3263,-0.5512 1.5818,-1.1747 1.5999,-0.1536 2.6293,0.3291 0.628,0.3765 2.8633,0.3159 3.5407,-0.0869 0.3562,-0.2118 0.7809,-0.7672 1.1007,-0.9001 0.2823,-0.1172 0.5422,0.0445 0.7445,0.1952"/>
   <path id="_346964440" class="fil1 str0" d="M130.354 52.5457c0.1337,0.1395 0.7377,0.5893 0.9401,0.7277 0.9121,0.624 2.8646,0.689 3.7919,0.0935 1.0466,-0.6722 1.4605,-0.8832 2.0841,-0.5237 0.4524,0.2608 0.5246,0.6852 1.5913,0.9996 0.883,0.2602 1.8015,0.26 2.6823,-0.1649 0.9487,-0.4577 1.597,-1.4942 2.5098,-0.59 0.6044,0.5987 1.3082,0.8384 2.2894,0.8432 1.0937,0.0054 1.4776,0.0792 2.3263,-0.5512 1.5818,-1.1747 1.5999,-0.1536 2.6293,0.3291 0.628,0.3765 2.8633,0.3159 3.5407,-0.0869 0.3562,-0.2118 0.7809,-0.7672 1.1007,-0.9001 0.2823,-0.1172 0.5422,0.0445 0.7445,0.1952"/>
   <path id="_188342920" class="fil1 str0" d="M156.428 52.8451c0.1337,0.1395 0.7377,0.5893 0.9401,0.7277 0.9121,0.624 2.8646,0.689 3.7919,0.0935 1.0466,-0.6722 1.4605,-0.8832 2.0841,-0.5237 0.4524,0.2608 0.5246,0.6852 1.5913,0.9996 0.883,0.2602 1.8015,0.26 2.6823,-0.1649 0.9487,-0.4577 1.597,-1.4942 2.5098,-0.59 0.6044,0.5987 1.3082,0.8384 2.2894,0.8432 1.0937,0.0054 1.4776,0.0792 2.3263,-0.5512 1.5818,-1.1747 1.5999,-0.1536 2.6293,0.3291 0.628,0.3765 2.8633,0.3159 3.5407,-0.0869 0.3562,-0.2118 0.7809,-0.7672 1.1007,-0.9001 0.2823,-0.1172 0.5422,0.0445 0.7445,0.1952"/>
   <path id="_346960864" class="fil1 str0" d="M182.502 53.1445c0.1337,0.1395 0.7377,0.5893 0.9401,0.7277 0.9121,0.624 2.8645,0.689 3.7918,0.0935 1.0466,-0.6722 1.4605,-0.8832 2.0841,-0.5237 0.4524,0.2608 0.5246,0.6852 1.5913,0.9996 0.883,0.2602 2.2363,0.0918 3.1171,-0.3331"/>
  </g>
  <g id="_197261392">
   <path id="_188344768_0" class="fil1 str0" d="M74.5592 48.2605c0.1337,0.1395 0.7377,0.5893 0.9401,0.7277 0.9121,0.624 2.8646,0.689 3.7919,0.0935 1.0466,-0.6722 1.4605,-0.8832 2.0841,-0.5237 0.4524,0.2608 0.5246,0.6852 1.5913,0.9996 0.883,0.2602 1.8015,0.26 2.6823,-0.1649 0.9487,-0.4577 1.597,-1.4942 2.5098,-0.59 0.6044,0.5987 1.3082,0.8384 2.2894,0.8432 1.0937,0.0054 1.4776,0.0792 2.3263,-0.5512 1.5818,-1.1747 1.5999,-0.1536 2.6293,0.3291 0.628,0.3765 2.8633,0.3159 3.5407,-0.0869 0.3562,-0.2118 0.7809,-0.7672 1.1007,-0.9001 0.2823,-0.1172 0.5422,0.0445 0.7445,0.1952"/>
   <path id="_188343352_1" class="fil1 str0" d="M100.633 48.5599c0.1337,0.1395 0.7377,0.5893 0.9401,0.7277 0.9121,0.624 2.8646,0.689 3.7919,0.0935 1.0466,-0.6722 1.4605,-0.8832 2.0841,-0.5237 0.4524,0.2608 0.5246,0.6852 1.5912,0.9996 0.883,0.2602 1.8015,0.26 2.6823,-0.1649 0.9487,-0.4577 1.597,-1.4942 2.5098,-0.59 0.6044,0.5987 1.3082,0.8384 2.2894,0.8432 1.0937,0.0054 1.4776,0.0792 2.3263,-0.5512 1.5818,-1.1747 1.5999,-0.1536 2.6293,0.3291 0.628,0.3765 2.8633,0.3159 3.5407,-0.0869 0.3562,-0.2118 0.7809,-0.7672 1.1007,-0.9001 0.2823,-0.1172 0.5422,0.0445 0.7445,0.1952"/>
   <path id="_346964440_2" class="fil1 str0" d="M126.707 48.8593c0.1337,0.1395 0.7377,0.5893 0.9401,0.7277 0.9121,0.624 2.8646,0.689 3.7919,0.0935 1.0466,-0.6722 1.4605,-0.8832 2.0841,-0.5237 0.4524,0.2608 0.5246,0.6852 1.5913,0.9996 0.883,0.2602 1.8015,0.26 2.6823,-0.1649 0.9487,-0.4577 1.597,-1.4942 2.5098,-0.59 0.6044,0.5987 1.3082,0.8384 2.2894,0.8432 1.0937,0.0054 1.4776,0.0792 2.3263,-0.5512 1.5818,-1.1747 1.5999,-0.1536 2.6293,0.3291 0.628,0.3765 2.8633,0.3159 3.5407,-0.0869 0.3562,-0.2118 0.7809,-0.7672 1.1007,-0.9001 0.2823,-0.1172 0.5422,0.0445 0.7445,0.1952"/>
   <path id="_188342920_3" class="fil1 str0" d="M152.781 49.1587c0.1337,0.1395 0.7377,0.5893 0.9401,0.7277 0.9121,0.624 2.8646,0.689 3.7919,0.0935 1.0466,-0.6722 1.4605,-0.8832 2.0841,-0.5237 0.4524,0.2608 0.5246,0.6852 1.5913,0.9996 0.883,0.2602 1.8015,0.26 2.6823,-0.1649 0.9487,-0.4577 1.597,-1.4942 2.5098,-0.59 0.6044,0.5987 1.3082,0.8384 2.2894,0.8432 1.0937,0.0054 1.4776,0.0792 2.3263,-0.5512 1.5818,-1.1747 1.5999,-0.1536 2.6293,0.3291 0.628,0.3765 2.8633,0.3159 3.5407,-0.0869 0.3562,-0.2118 0.7809,-0.7672 1.1007,-0.9001 0.2823,-0.1172 0.5422,0.0445 0.7445,0.1952"/>
   <path id="_346960864_4" class="fil1 str0" d="M178.855 49.4581c0.1337,0.1395 0.7377,0.5893 0.9401,0.7277 0.9121,0.624 2.8645,0.689 3.7918,0.0935 1.0466,-0.6722 1.4605,-0.8832 2.0841,-0.5237 0.4524,0.2608 0.5246,0.6852 1.5913,0.9996 0.883,0.2602 2.2363,0.0918 3.1171,-0.3331"/>
  </g>
  <g id="_197261512">
   <path id="_188344768_5" class="fil1 str0" d="M70.9123 44.5741c0.1337,0.1395 0.7377,0.5893 0.9401,0.7277 0.9121,0.624 2.8646,0.689 3.7919,0.0935 1.0466,-0.6722 1.4605,-0.8832 2.0841,-0.5237 0.4524,0.2608 0.5246,0.6852 1.5913,0.9996 0.883,0.2602 1.8015,0.26 2.6823,-0.1649 0.9487,-0.4577 1.597,-1.4942 2.5098,-0.59 0.6044,0.5987 1.3082,0.8384 2.2894,0.8432 1.0937,0.0054 1.4776,0.0792 2.3263,-0.5512 1.5818,-1.1747 1.5999,-0.1536 2.6293,0.3291 0.628,0.3765 2.8633,0.3159 3.5407,-0.0869 0.3562,-0.2118 0.7809,-0.7672 1.1007,-0.9001 0.2823,-0.1172 0.5422,0.0445 0.7445,0.1952"/>
   <path id="_188343352_6" class="fil1 str0" d="M96.9862 44.8735c0.1337,0.1395 0.7377,0.5893 0.9401,0.7277 0.9121,0.624 2.8646,0.689 3.7919,0.0935 1.0466,-0.6722 1.4605,-0.8832 2.0841,-0.5237 0.4524,0.2608 0.5246,0.6852 1.5912,0.9996 0.883,0.2602 1.8015,0.26 2.6823,-0.1649 0.9487,-0.4577 1.597,-1.4942 2.5098,-0.59 0.6044,0.5987 1.3082,0.8384 2.2894,0.8432 1.0937,0.0054 1.4776,0.0792 2.3263,-0.5512 1.5818,-1.1747 1.5999,-0.1536 2.6293,0.3291 0.628,0.3765 2.8633,0.3159 3.5407,-0.0869 0.3562,-0.2118 0.7809,-0.7672 1.1007,-0.9001 0.2823,-0.1172 0.5422,0.0445 0.7445,0.1952"/>
   <path id="_346964440_7" class="fil1 str0" d="M123.06 45.1729c0.1337,0.1395 0.7377,0.5893 0.9401,0.7277 0.9121,0.624 2.8646,0.689 3.7919,0.0935 1.0466,-0.6722 1.4605,-0.8832 2.0841,-0.5237 0.4524,0.2608 0.5246,0.6852 1.5913,0.9996 0.883,0.2602 1.8015,0.26 2.6823,-0.1649 0.9487,-0.4577 1.597,-1.4942 2.5098,-0.59 0.6044,0.5987 1.3082,0.8384 2.2894,0.8432 1.0937,0.0054 1.4776,0.0792 2.3263,-0.5512 1.5818,-1.1747 1.5999,-0.1536 2.6293,0.3291 0.628,0.3765 2.8633,0.3159 3.5407,-0.0869 0.3562,-0.2118 0.7809,-0.7672 1.1007,-0.9001 0.2823,-0.1172 0.5422,0.0445 0.7445,0.1952"/>
   <path id="_188342920_8" class="fil1 str0" d="M149.134 45.4723c0.1337,0.1395 0.7377,0.5893 0.9401,0.7277 0.9121,0.624 2.8646,0.689 3.7919,0.0935 1.0466,-0.6722 1.4605,-0.8832 2.0841,-0.5237 0.4524,0.2608 0.5246,0.6852 1.5913,0.9996 0.883,0.2602 1.8015,0.26 2.6823,-0.1649 0.9487,-0.4577 1.597,-1.4942 2.5098,-0.59 0.6044,0.5987 1.3082,0.8384 2.2894,0.8432 1.0937,0.0054 1.4776,0.0792 2.3263,-0.5512 1.5818,-1.1747 1.5999,-0.1536 2.6293,0.3291 0.628,0.3765 2.8633,0.3159 3.5407,-0.0869 0.3562,-0.2118 0.7809,-0.7672 1.1007,-0.9001 0.2823,-0.1172 0.5422,0.0445 0.7445,0.1952"/>
   <path id="_346960864_9" class="fil1 str0" d="M175.208 45.7717c0.1337,0.1395 0.7377,0.5893 0.9401,0.7277 0.9121,0.624 2.8645,0.689 3.7918,0.0935 1.0466,-0.6722 1.4605,-0.8832 2.0841,-0.5237 0.4524,0.2608 0.5246,0.6852 1.5913,0.9996 0.883,0.2602 2.2363,0.0918 3.1171,-0.3331"/>
  </g>
  <g id="_197275528">
   <path id="_188344768_10" class="fil1 str0" d="M67.2654 40.8877c0.1337,0.1395 0.7377,0.5893 0.9401,0.7277 0.9121,0.624 2.8646,0.689 3.7919,0.0935 1.0466,-0.6722 1.4605,-0.8832 2.0841,-0.5237 0.4524,0.2608 0.5246,0.6852 1.5913,0.9996 0.883,0.2602 1.8015,0.26 2.6823,-0.1649 0.9487,-0.4577 1.597,-1.4942 2.5098,-0.59 0.6044,0.5987 1.3082,0.8384 2.2894,0.8432 1.0937,0.0054 1.4776,0.0792 2.3263,-0.5512 1.5818,-1.1747 1.5999,-0.1536 2.6293,0.3291 0.628,0.3765 2.8633,0.3159 3.5407,-0.0869 0.3562,-0.2118 0.7809,-0.7672 1.1007,-0.9001 0.2823,-0.1172 0.5422,0.0445 0.7445,0.1952"/>
   <path id="_188343352_11" class="fil1 str0" d="M93.3393 41.1871c0.1337,0.1395 0.7377,0.5893 0.9401,0.7277 0.9121,0.624 2.8646,0.689 3.7919,0.0935 1.0466,-0.6722 1.4605,-0.8832 2.0841,-0.5237 0.4524,0.2608 0.5246,0.6852 1.5912,0.9996 0.883,0.2602 1.8015,0.26 2.6823,-0.1649 0.9487,-0.4577 1.597,-1.4942 2.5098,-0.59 0.6044,0.5987 1.3082,0.8384 2.2894,0.8432 1.0937,0.0054 1.4776,0.0792 2.3263,-0.5512 1.5818,-1.1747 1.5999,-0.1536 2.6293,0.3291 0.628,0.3765 2.8633,0.3159 3.5407,-0.0869 0.3562,-0.2118 0.7809,-0.7672 1.1007,-0.9001 0.2823,-0.1172 0.5422,0.0445 0.7445,0.1952"/>
   <path id="_346964440_12" class="fil1 str0" d="M119.413 41.4865c0.1337,0.1395 0.7377,0.5893 0.9401,0.7277 0.9121,0.624 2.8646,0.689 3.7919,0.0935 1.0466,-0.6722 1.4605,-0.8832 2.0841,-0.5237 0.4524,0.2608 0.5246,0.6852 1.5913,0.9996 0.883,0.2602 1.8015,0.26 2.6823,-0.1649 0.9487,-0.4577 1.597,-1.4942 2.5098,-0.59 0.6044,0.5987 1.3082,0.8384 2.2894,0.8432 1.0937,0.0054 1.4776,0.0792 2.3263,-0.5512 1.5818,-1.1747 1.5999,-0.1536 2.6293,0.3291 0.628,0.3765 2.8633,0.3159 3.5407,-0.0869 0.3562,-0.2118 0.7809,-0.7672 1.1007,-0.9001 0.2823,-0.1172 0.5422,0.0445 0.7445,0.1952"/>
   <path id="_188342920_13" class="fil1 str0" d="M145.487 41.7859c0.1337,0.1395 0.7377,0.5893 0.9401,0.7277 0.9121,0.624 2.8646,0.689 3.7919,0.0935 1.0466,-0.6722 1.4605,-0.8832 2.0841,-0.5237 0.4524,0.2608 0.5246,0.6852 1.5913,0.9996 0.883,0.2602 1.8015,0.26 2.6823,-0.1649 0.9487,-0.4577 1.597,-1.4942 2.5098,-0.59 0.6044,0.5987 1.3082,0.8384 2.2894,0.8432 1.0937,0.0054 1.4776,0.0792 2.3263,-0.5512 1.5818,-1.1747 1.5999,-0.1536 2.6293,0.3291 0.628,0.3765 2.8633,0.3159 3.5407,-0.0869 0.3562,-0.2118 0.7809,-0.7672 1.1007,-0.9001 0.2823,-0.1172 0.5422,0.0445 0.7445,0.1952"/>
   <path id="_346960864_14" class="fil1 str0" d="M171.561 42.0853c0.1337,0.1395 0.7377,0.5893 0.9401,0.7277 0.9121,0.624 2.8645,0.689 3.7918,0.0935 1.0466,-0.6722 1.4605,-0.8832 2.0841,-0.5237 0.4524,0.2608 0.5246,0.6852 1.5913,0.9996 0.883,0.2602 2.2363,0.0918 3.1171,-0.3331"/>
  </g>
  <g id="_197246488">
   <path id="_188344768_15" class="fil1 str0" d="M63.6185 37.2013c0.1337,0.1395 0.7377,0.5893 0.9401,0.7277 0.9121,0.624 2.8646,0.689 3.7919,0.0935 1.0466,-0.6722 1.4605,-0.8832 2.0841,-0.5237 0.4524,0.2608 0.5246,0.6852 1.5913,0.9996 0.883,0.2602 1.8015,0.26 2.6823,-0.1649 0.9487,-0.4577 1.597,-1.4942 2.5098,-0.59 0.6044,0.5987 1.3082,0.8384 2.2894,0.8432 1.0937,0.0054 1.4776,0.0792 2.3263,-0.5512 1.5818,-1.1747 1.5999,-0.1536 2.6293,0.3291 0.628,0.3765 2.8633,0.3159 3.5407,-0.0869 0.3562,-0.2118 0.7809,-0.7672 1.1007,-0.9001 0.2823,-0.1172 0.5422,0.0445 0.7445,0.1952"/>
   <path id="_188343352_16" class="fil1 str0" d="M89.6924 37.5007c0.1337,0.1395 0.7377,0.5893 0.9401,0.7277 0.9121,0.624 2.8646,0.689 3.7919,0.0935 1.0466,-0.6722 1.4605,-0.8832 2.0841,-0.5237 0.4524,0.2608 0.5246,0.6852 1.5912,0.9996 0.883,0.2602 1.8015,0.26 2.6823,-0.1649 0.9487,-0.4577 1.597,-1.4942 2.5098,-0.59 0.6044,0.5987 1.3082,0.8384 2.2894,0.8432 1.0937,0.0054 1.4776,0.0792 2.3263,-0.5512 1.5818,-1.1747 1.5999,-0.1536 2.6293,0.3291 0.628,0.3765 2.8633,0.3159 3.5407,-0.0869 0.3562,-0.2118 0.7809,-0.7672 1.1007,-0.9001 0.2823,-0.1172 0.5422,0.0445 0.7445,0.1952"/>
   <path id="_346964440_17" class="fil1 str0" d="M115.766 37.8001c0.1337,0.1395 0.7377,0.5893 0.9401,0.7277 0.9121,0.624 2.8646,0.689 3.7919,0.0935 1.0466,-0.6722 1.4605,-0.8832 2.0841,-0.5237 0.4524,0.2608 0.5246,0.6852 1.5913,0.9996 0.883,0.2602 1.8015,0.26 2.6823,-0.1649 0.9487,-0.4577 1.597,-1.4942 2.5098,-0.59 0.6044,0.5987 1.3082,0.8384 2.2894,0.8432 1.0937,0.0054 1.4776,0.0792 2.3263,-0.5512 1.5818,-1.1747 1.5999,-0.1536 2.6293,0.3291 0.628,0.3765 2.8633,0.3159 3.5407,-0.0869 0.3562,-0.2118 0.7809,-0.7672 1.1007,-0.9001 0.2823,-0.1172 0.5422,0.0445 0.7445,0.1952"/>
   <path id="_188342920_18" class="fil1 str0" d="M141.84 38.0995c0.1337,0.1395 0.7377,0.5893 0.9401,0.7277 0.9121,0.624 2.8646,0.689 3.7919,0.0935 1.0466,-0.6722 1.4605,-0.8832 2.0841,-0.5237 0.4524,0.2608 0.5246,0.6852 1.5913,0.9996 0.883,0.2602 1.8015,0.26 2.6823,-0.1649 0.9487,-0.4577 1.597,-1.4942 2.5098,-0.59 0.6044,0.5987 1.3082,0.8384 2.2894,0.8432 1.0937,0.0054 1.4776,0.0792 2.3263,-0.5512 1.5818,-1.1747 1.5999,-0.1536 2.6293,0.3291 0.628,0.3765 2.8633,0.3159 3.5407,-0.0869 0.3562,-0.2118 0.7809,-0.7672 1.1007,-0.9001 0.2823,-0.1172 0.5422,0.0445 0.7445,0.1952"/>
   <path id="_346960864_19" class="fil1 str0" d="M167.914 38.3989c0.1337,0.1395 0.7377,0.5893 0.9401,0.7277 0.9121,0.624 2.8645,0.689 3.7918,0.0935 1.0466,-0.6722 1.4605,-0.8832 2.0841,-0.5237 0.4524,0.2608 0.5246,0.6852 1.5913,0.9996 0.883,0.2602 2.2363,0.0918 3.1171,-0.3331"/>
  </g>
  <g id="_197264848">
   <path id="_188344768_20" class="fil1 str0" d="M59.9716 33.5149c0.1337,0.1395 0.7377,0.5893 0.9401,0.7277 0.9121,0.624 2.8646,0.689 3.7919,0.0935 1.0466,-0.6722 1.4605,-0.8832 2.0841,-0.5237 0.4524,0.2608 0.5246,0.6852 1.5913,0.9996 0.883,0.2602 1.8015,0.26 2.6823,-0.1649 0.9487,-0.4577 1.597,-1.4942 2.5098,-0.59 0.6044,0.5987 1.3082,0.8384 2.2894,0.8432 1.0937,0.0054 1.4776,0.0792 2.3263,-0.5512 1.5818,-1.1747 1.5999,-0.1536 2.6293,0.3291 0.628,0.3765 2.8633,0.3159 3.5407,-0.0869 0.3562,-0.2118 0.7809,-0.7672 1.1007,-0.9001 0.2823,-0.1172 0.5422,0.0445 0.7445,0.1952"/>
   <path id="_188343352_21" class="fil1 str0" d="M86.0455 33.8143c0.1337,0.1395 0.7377,0.5893 0.9401,0.7277 0.9121,0.624 2.8646,0.689 3.7919,0.0935 1.0466,-0.6722 1.4605,-0.8832 2.0841,-0.5237 0.4524,0.2608 0.5246,0.6852 1.5912,0.9996 0.883,0.2602 1.8015,0.26 2.6823,-0.1649 0.9487,-0.4577 1.597,-1.4942 2.5098,-0.59 0.6044,0.5987 1.3082,0.8384 2.2894,0.8432 1.0937,0.0054 1.4776,0.0792 2.3263,-0.5512 1.5818,-1.1747 1.5999,-0.1536 2.6293,0.3291 0.628,0.3765 2.8633,0.3159 3.5407,-0.0869 0.3562,-0.2118 0.7809,-0.7672 1.1007,-0.9001 0.2823,-0.1172 0.5422,0.0445 0.7445,0.1952"/>
   <path id="_346964440_22" class="fil1 str0" d="M112.119 34.1137c0.1337,0.1395 0.7377,0.5893 0.9401,0.7277 0.9121,0.624 2.8646,0.689 3.7919,0.0935 1.0466,-0.6722 1.4605,-0.8832 2.0841,-0.5237 0.4524,0.2608 0.5246,0.6852 1.5913,0.9996 0.883,0.2602 1.8015,0.26 2.6823,-0.1649 0.9487,-0.4577 1.597,-1.4942 2.5098,-0.59 0.6044,0.5987 1.3082,0.8384 2.2894,0.8432 1.0937,0.0054 1.4776,0.0792 2.3263,-0.5512 1.5818,-1.1747 1.5999,-0.1536 2.6293,0.3291 0.628,0.3765 2.8633,0.3159 3.5407,-0.0869 0.3562,-0.2118 0.7809,-0.7672 1.1007,-0.9001 0.2823,-0.1172 0.5422,0.0445 0.7445,0.1952"/>
   <path id="_188342920_23" class="fil1 str0" d="M138.193 34.4131c0.1337,0.1395 0.7377,0.5893 0.9401,0.7277 0.9121,0.624 2.8646,0.689 3.7919,0.0935 1.0466,-0.6722 1.4605,-0.8832 2.0841,-0.5237 0.4524,0.2608 0.5246,0.6852 1.5913,0.9996 0.883,0.2602 1.8015,0.26 2.6823,-0.1649 0.9487,-0.4577 1.597,-1.4942 2.5098,-0.59 0.6044,0.5987 1.3082,0.8384 2.2894,0.8432 1.0937,0.0054 1.4776,0.0792 2.3263,-0.5512 1.5818,-1.1747 1.5999,-0.1536 2.6293,0.3291 0.628,0.3765 2.8633,0.3159 3.5407,-0.0869 0.3562,-0.2118 0.7809,-0.7672 1.1007,-0.9001 0.2823,-0.1172 0.5422,0.0445 0.7445,0.1952"/>
   <path id="_346960864_24" class="fil1 str0" d="M164.267 34.7125c0.1337,0.1395 0.7377,0.5893 0.9401,0.7277 0.9121,0.624 2.8645,0.689 3.7918,0.0935 1.0466,-0.6722 1.4605,-0.8832 2.0841,-0.5237 0.4524,0.2608 0.5246,0.6852 1.5913,0.9996 0.883,0.2602 2.2363,0.0918 3.1171,-0.3331"/>
  </g>
  <g id="_197251480">
   <path id="_188344768_25" class="fil1 str0" d="M56.6442 30.0592c0.1337,0.1395 0.7377,0.5893 0.9401,0.7277 0.9121,0.624 2.8646,0.689 3.7919,0.0935 1.0466,-0.6722 1.4605,-0.8832 2.0841,-0.5237 0.4524,0.2608 0.5246,0.6852 1.5913,0.9996 0.883,0.2602 1.8015,0.26 2.6823,-0.1649 0.9487,-0.4577 1.597,-1.4942 2.5098,-0.59 0.6044,0.5987 1.3082,0.8384 2.2894,0.8432 1.0937,0.0054 1.4776,0.0792 2.3263,-0.5512 1.5818,-1.1747 1.5999,-0.1536 2.6293,0.3291 0.628,0.3765 2.8633,0.3159 3.5407,-0.0869 0.3562,-0.2118 0.7809,-0.7672 1.1007,-0.9001 0.2823,-0.1172 0.5422,0.0445 0.7445,0.1952"/>
   <path id="_188343352_26" class="fil1 str0" d="M82.7181 30.3586c0.1337,0.1395 0.7377,0.5893 0.9401,0.7277 0.9121,0.624 2.8646,0.689 3.7919,0.0935 1.0466,-0.6722 1.4605,-0.8832 2.0841,-0.5237 0.4524,0.2608 0.5246,0.6852 1.5912,0.9996 0.883,0.2602 1.8015,0.26 2.6823,-0.1649 0.9487,-0.4577 1.597,-1.4942 2.5098,-0.59 0.6044,0.5987 1.3082,0.8384 2.2894,0.8432 1.0937,0.0054 1.4776,0.0792 2.3263,-0.5512 1.5818,-1.1747 1.5999,-0.1536 2.6293,0.3291 0.628,0.3765 2.8633,0.3159 3.5407,-0.0869 0.3562,-0.2118 0.7809,-0.7672 1.1007,-0.9001 0.2823,-0.1172 0.5422,0.0445 0.7445,0.1952"/>
   <path id="_346964440_27" class="fil1 str0" d="M108.792 30.658c0.1337,0.1395 0.7377,0.5893 0.9401,0.7277 0.9121,0.624 2.8646,0.689 3.7919,0.0935 1.0466,-0.6722 1.4605,-0.8832 2.0841,-0.5237 0.4524,0.2608 0.5246,0.6852 1.5913,0.9996 0.883,0.2602 1.8015,0.26 2.6823,-0.1649 0.9487,-0.4577 1.597,-1.4942 2.5098,-0.59 0.6044,0.5987 1.3082,0.8384 2.2894,0.8432 1.0937,0.0054 1.4776,0.0792 2.3263,-0.5512 1.5818,-1.1747 1.5999,-0.1536 2.6293,0.3291 0.628,0.3765 2.8633,0.3159 3.5407,-0.0869 0.3562,-0.2118 0.7809,-0.7672 1.1007,-0.9001 0.2823,-0.1172 0.5422,0.0445 0.7445,0.1952"/>
   <path id="_188342920_28" class="fil1 str0" d="M134.866 30.9574c0.1337,0.1395 0.7377,0.5893 0.9401,0.7277 0.9121,0.624 2.8646,0.689 3.7919,0.0935 1.0466,-0.6722 1.4605,-0.8832 2.0841,-0.5237 0.4524,0.2608 0.5246,0.6852 1.5913,0.9996 0.883,0.2602 1.8015,0.26 2.6823,-0.1649 0.9487,-0.4577 1.597,-1.4942 2.5098,-0.59 0.6044,0.5987 1.3082,0.8384 2.2894,0.8432 1.0937,0.0054 1.4776,0.0792 2.3263,-0.5512 1.5818,-1.1747 1.5999,-0.1536 2.6293,0.3291 0.628,0.3765 2.8633,0.3159 3.5407,-0.0869 0.3562,-0.2118 0.7809,-0.7672 1.1007,-0.9001 0.2823,-0.1172 0.5422,0.0445 0.7445,0.1952"/>
   <path id="_346960864_29" class="fil1 str0" d="M160.94 31.2568c0.1337,0.1395 0.7377,0.5893 0.9401,0.7277 0.9121,0.624 2.8645,0.689 3.7918,0.0935 1.0466,-0.6722 1.4605,-0.8832 2.0841,-0.5237 0.4524,0.2608 0.5246,0.6852 1.5913,0.9996 0.883,0.2602 2.2363,0.0918 3.1171,-0.3331"/>
  </g>
  <g id="_194940408">
   <path id="_188344768_30" class="fil1 str0" d="M52.8187 26.1848c0.1337,0.1395 0.7377,0.5893 0.9401,0.7277 0.9121,0.624 2.8646,0.689 3.7919,0.0935 1.0466,-0.6722 1.4605,-0.8832 2.0841,-0.5237 0.4524,0.2608 0.5246,0.6852 1.5913,0.9996 0.883,0.2602 1.8015,0.26 2.6823,-0.1649 0.9487,-0.4577 1.597,-1.4942 2.5098,-0.59 0.6044,0.5987 1.3082,0.8384 2.2894,0.8432 1.0937,0.0054 1.4776,0.0792 2.3263,-0.5512 1.5818,-1.1747 1.5999,-0.1536 2.6293,0.3291 0.628,0.3765 2.8633,0.3159 3.5407,-0.0869 0.3562,-0.2118 0.7809,-0.7672 1.1007,-0.9001 0.2823,-0.1172 0.5422,0.0445 0.7445,0.1952"/>
   <path id="_188343352_31" class="fil1 str0" d="M78.8926 26.4842c0.1337,0.1395 0.7377,0.5893 0.9401,0.7277 0.9121,0.624 2.8646,0.689 3.7919,0.0935 1.0466,-0.6722 1.4605,-0.8832 2.0841,-0.5237 0.4524,0.2608 0.5246,0.6852 1.5912,0.9996 0.883,0.2602 1.8015,0.26 2.6823,-0.1649 0.9487,-0.4577 1.597,-1.4942 2.5098,-0.59 0.6044,0.5987 1.3082,0.8384 2.2894,0.8432 1.0937,0.0054 1.4776,0.0792 2.3263,-0.5512 1.5818,-1.1747 1.5999,-0.1536 2.6293,0.3291 0.628,0.3765 2.8633,0.3159 3.5407,-0.0869 0.3562,-0.2118 0.7809,-0.7672 1.1007,-0.9001 0.2823,-0.1172 0.5422,0.0445 0.7445,0.1952"/>
   <path id="_346964440_32" class="fil1 str0" d="M104.967 26.7836c0.1337,0.1395 0.7377,0.5893 0.9401,0.7277 0.9121,0.624 2.8646,0.689 3.7919,0.0935 1.0466,-0.6722 1.4605,-0.8832 2.0841,-0.5237 0.4524,0.2608 0.5246,0.6852 1.5913,0.9996 0.883,0.2602 1.8015,0.26 2.6823,-0.1649 0.9487,-0.4577 1.597,-1.4942 2.5098,-0.59 0.6044,0.5987 1.3082,0.8384 2.2894,0.8432 1.0937,0.0054 1.4776,0.0792 2.3263,-0.5512 1.5818,-1.1747 1.5999,-0.1536 2.6293,0.3291 0.628,0.3765 2.8633,0.3159 3.5407,-0.0869 0.3562,-0.2118 0.7809,-0.7672 1.1007,-0.9001 0.2823,-0.1172 0.5422,0.0445 0.7445,0.1952"/>
   <path id="_188342920_33" class="fil1 str0" d="M131.041 27.083c0.1337,0.1395 0.7377,0.5893 0.9401,0.7277 0.9121,0.624 2.8646,0.689 3.7919,0.0935 1.0466,-0.6722 1.4605,-0.8832 2.0841,-0.5237 0.4524,0.2608 0.5246,0.6852 1.5913,0.9996 0.883,0.2602 1.8015,0.26 2.6823,-0.1649 0.9487,-0.4577 1.597,-1.4942 2.5098,-0.59 0.6044,0.5987 1.3082,0.8384 2.2894,0.8432 1.0937,0.0054 1.4776,0.0792 2.3263,-0.5512 1.5818,-1.1747 1.5999,-0.1536 2.6293,0.3291 0.628,0.3765 2.8633,0.3159 3.5407,-0.0869 0.3562,-0.2118 0.7809,-0.7672 1.1007,-0.9001 0.2823,-0.1172 0.5422,0.0445 0.7445,0.1952"/>
   <path id="_346960864_34" class="fil1 str0" d="M157.114 27.3824c0.1337,0.1395 0.7377,0.5893 0.9401,0.7277 0.9121,0.624 2.8645,0.689 3.7918,0.0935 1.0466,-0.6722 1.4605,-0.8832 2.0841,-0.5237 0.4524,0.2608 0.5246,0.6852 1.5913,0.9996 0.883,0.2602 2.2363,0.0918 3.1171,-0.3331"/>
  </g>
  <g id="_197256904">
   <path id="_188344768_35" class="fil1 str0" d="M49.2454 22.4856c0.1337,0.1395 0.7377,0.5893 0.9401,0.7277 0.9121,0.624 2.8646,0.689 3.7919,0.0935 1.0466,-0.6722 1.4605,-0.8832 2.0841,-0.5237 0.4524,0.2608 0.5246,0.6852 1.5913,0.9996 0.883,0.2602 1.8015,0.26 2.6823,-0.1649 0.9487,-0.4577 1.597,-1.4942 2.5098,-0.59 0.6044,0.5987 1.3082,0.8384 2.2894,0.8432 1.0937,0.0054 1.4776,0.0792 2.3263,-0.5512 1.5818,-1.1747 1.5999,-0.1536 2.6293,0.3291 0.628,0.3765 2.8633,0.3159 3.5407,-0.0869 0.3562,-0.2118 0.7809,-0.7672 1.1007,-0.9001 0.2823,-0.1172 0.5422,0.0445 0.7445,0.1952"/>
   <path id="_188343352_36" class="fil1 str0" d="M75.3193 22.785c0.1337,0.1395 0.7377,0.5893 0.9401,0.7277 0.9121,0.624 2.8646,0.689 3.7919,0.0935 1.0466,-0.6722 1.4605,-0.8832 2.0841,-0.5237 0.4524,0.2608 0.5246,0.6852 1.5912,0.9996 0.883,0.2602 1.8015,0.26 2.6823,-0.1649 0.9487,-0.4577 1.597,-1.4942 2.5098,-0.59 0.6044,0.5987 1.3082,0.8384 2.2894,0.8432 1.0937,0.0054 1.4776,0.0792 2.3263,-0.5512 1.5818,-1.1747 1.5999,-0.1536 2.6293,0.3291 0.628,0.3765 2.8633,0.3159 3.5407,-0.0869 0.3562,-0.2118 0.7809,-0.7672 1.1007,-0.9001 0.2823,-0.1172 0.5422,0.0445 0.7445,0.1952"/>
   <path id="_346964440_37" class="fil1 str0" d="M101.393 23.0844c0.1337,0.1395 0.7377,0.5893 0.9401,0.7277 0.9121,0.624 2.8646,0.689 3.7919,0.0935 1.0466,-0.6722 1.4605,-0.8832 2.0841,-0.5237 0.4524,0.2608 0.5246,0.6852 1.5913,0.9996 0.883,0.2602 1.8015,0.26 2.6823,-0.1649 0.9487,-0.4577 1.597,-1.4942 2.5098,-0.59 0.6044,0.5987 1.3082,0.8384 2.2894,0.8432 1.0937,0.0054 1.4776,0.0792 2.3263,-0.5512 1.5818,-1.1747 1.5999,-0.1536 2.6293,0.3291 0.628,0.3765 2.8633,0.3159 3.5407,-0.0869 0.3562,-0.2118 0.7809,-0.7672 1.1007,-0.9001 0.2823,-0.1172 0.5422,0.0445 0.7445,0.1952"/>
   <path id="_188342920_38" class="fil1 str0" d="M127.467 23.3838c0.1337,0.1395 0.7377,0.5893 0.9401,0.7277 0.9121,0.624 2.8646,0.689 3.7919,0.0935 1.0466,-0.6722 1.4605,-0.8832 2.0841,-0.5237 0.4524,0.2608 0.5246,0.6852 1.5913,0.9996 0.883,0.2602 1.8015,0.26 2.6823,-0.1649 0.9487,-0.4577 1.597,-1.4942 2.5098,-0.59 0.6044,0.5987 1.3082,0.8384 2.2894,0.8432 1.0937,0.0054 1.4776,0.0792 2.3263,-0.5512 1.5818,-1.1747 1.5999,-0.1536 2.6293,0.3291 0.628,0.3765 2.8633,0.3159 3.5407,-0.0869 0.3562,-0.2118 0.7809,-0.7672 1.1007,-0.9001 0.2823,-0.1172 0.5422,0.0445 0.7445,0.1952"/>
   <path id="_346960864_39" class="fil1 str0" d="M153.541 23.6832c0.1337,0.1395 0.7377,0.5893 0.9401,0.7277 0.9121,0.624 2.8645,0.689 3.7918,0.0935 1.0466,-0.6722 1.4605,-0.8832 2.0841,-0.5237 0.4524,0.2608 0.5246,0.6852 1.5913,0.9996 0.883,0.2602 2.2363,0.0918 3.1171,-0.3331"/>
  </g>
  <g id="_197251696">
   <path id="_188344768_40" class="fil1 str0" d="M45.6925 18.8157c0.1337,0.1395 0.7377,0.5893 0.9401,0.7277 0.9121,0.624 2.8646,0.689 3.7919,0.0935 1.0466,-0.6722 1.4605,-0.8832 2.0841,-0.5237 0.4524,0.2608 0.5246,0.6852 1.5913,0.9996 0.883,0.2602 1.8015,0.26 2.6823,-0.1649 0.9487,-0.4577 1.597,-1.4942 2.5098,-0.59 0.6044,0.5987 1.3082,0.8384 2.2894,0.8432 1.0937,0.0054 1.4776,0.0792 2.3263,-0.5512 1.5818,-1.1747 1.5999,-0.1536 2.6293,0.3291 0.628,0.3765 2.8633,0.3159 3.5407,-0.0869 0.3562,-0.2118 0.7809,-0.7672 1.1007,-0.9001 0.2823,-0.1172 0.5422,0.0445 0.7445,0.1952"/>
   <path id="_188343352_41" class="fil1 str0" d="M71.7664 19.1151c0.1337,0.1395 0.7377,0.5893 0.9401,0.7277 0.9121,0.624 2.8646,0.689 3.7919,0.0935 1.0466,-0.6722 1.4605,-0.8832 2.0841,-0.5237 0.4524,0.2608 0.5246,0.6852 1.5912,0.9996 0.883,0.2602 1.8015,0.26 2.6823,-0.1649 0.9487,-0.4577 1.597,-1.4942 2.5098,-0.59 0.6044,0.5987 1.3082,0.8384 2.2894,0.8432 1.0937,0.0054 1.4776,0.0792 2.3263,-0.5512 1.5818,-1.1747 1.5999,-0.1536 2.6293,0.3291 0.628,0.3765 2.8633,0.3159 3.5407,-0.0869 0.3562,-0.2118 0.7809,-0.7672 1.1007,-0.9001 0.2823,-0.1172 0.5422,0.0445 0.7445,0.1952"/>
   <path id="_346964440_42" class="fil1 str0" d="M97.8403 19.4145c0.1337,0.1395 0.7377,0.5893 0.9401,0.7277 0.9121,0.624 2.8646,0.689 3.7919,0.0935 1.0466,-0.6722 1.4605,-0.8832 2.0841,-0.5237 0.4524,0.2608 0.5246,0.6852 1.5913,0.9996 0.883,0.2602 1.8015,0.26 2.6823,-0.1649 0.9487,-0.4577 1.597,-1.4942 2.5098,-0.59 0.6044,0.5987 1.3082,0.8384 2.2894,0.8432 1.0937,0.0054 1.4776,0.0792 2.3263,-0.5512 1.5818,-1.1747 1.5999,-0.1536 2.6293,0.3291 0.628,0.3765 2.8633,0.3159 3.5407,-0.0869 0.3562,-0.2118 0.7809,-0.7672 1.1007,-0.9001 0.2823,-0.1172 0.5422,0.0445 0.7445,0.1952"/>
   <path id="_188342920_43" class="fil1 str0" d="M123.914 19.7139c0.1337,0.1395 0.7377,0.5893 0.9401,0.7277 0.9121,0.624 2.8646,0.689 3.7919,0.0935 1.0466,-0.6722 1.4605,-0.8832 2.0841,-0.5237 0.4524,0.2608 0.5246,0.6852 1.5913,0.9996 0.883,0.2602 1.8015,0.26 2.6823,-0.1649 0.9487,-0.4577 1.597,-1.4942 2.5098,-0.59 0.6044,0.5987 1.3082,0.8384 2.2894,0.8432 1.0937,0.0054 1.4776,0.0792 2.3263,-0.5512 1.5818,-1.1747 1.5999,-0.1536 2.6293,0.3291 0.628,0.3765 2.8633,0.3159 3.5407,-0.0869 0.3562,-0.2118 0.7809,-0.7672 1.1007,-0.9001 0.2823,-0.1172 0.5422,0.0445 0.7445,0.1952"/>
   <path id="_346960864_44" class="fil1 str0" d="M149.988 20.0133c0.1337,0.1395 0.7377,0.5893 0.9401,0.7277 0.9121,0.624 2.8645,0.689 3.7918,0.0935 1.0466,-0.6722 1.4605,-0.8832 2.0841,-0.5237 0.4524,0.2608 0.5246,0.6852 1.5913,0.9996 0.883,0.2602 2.2363,0.0918 3.1171,-0.3331"/>
  </g>
 </g>
</svg>
