<?xml version="1.0" encoding="UTF-8"?>
<!DOCTYPE svg PUBLIC "-//W3C//DTD SVG 1.1//EN" "http://www.w3.org/Graphics/SVG/1.1/DTD/svg11.dtd">
<!-- Creator: CorelDRAW -->
<svg xmlns="http://www.w3.org/2000/svg" xml:space="preserve" width="210mm" height="297mm" style="shape-rendering:geometricPrecision; text-rendering:geometricPrecision; image-rendering:optimizeQuality; fill-rule:evenodd; clip-rule:evenodd"
viewBox="0 0 210 297"
 xmlns:xlink="http://www.w3.org/1999/xlink">
 <defs>
  <style type="text/css">
   <![CDATA[
    .str0 {stroke:#2B2A29;stroke-width:0.5}
    .str1 {stroke:#333333;stroke-width:0.5}
    .fil0 {fill:none}
    .fil1 {fill:#999999}
   ]]>
  </style>
 </defs>
 <g id="Слой_x0020_1">
  <metadata id="CorelCorpID_0Corel-Layer"/>
  <line class="fil0 str0" x1="16.995" y1="54.4075" x2="16.3464" y2= "88.6145" />
  <line class="fil0 str0" x1="93.0875" y1="54.9178" x2="93.5462" y2= "89.5391" />
  <line class="fil0 str0" x1="188.775" y1="55.2915" x2="188.775" y2= "89.0768" />
  <line class="fil0 str0" x1="3.4024" y1="88.6145" x2="204.954" y2= "90.0014" />
  <polygon class="fil1 str0" points="11.706,56.3776 42.1434,1.7805 46.7737,7.7708 21.3984,53.2819 "/>
 </g>
 <g id="_355463808">
  <path id="_355480200" class="fil1 str1" d="M79.7493 55.4902l-37.1461 -53.7552 116.065 0.8941 36.707 51.163c-0.613,0.0052 -2.2924,1.9625 -3.0059,2.0054 -0.8334,0.0504 -0.7202,-1.7923 -1.6929,-1.4681 -0.8341,0.278 -2.0031,1.4223 -2.7171,1.4932 -0.8334,0.0827 -0.6456,-1.5351 -1.4933,-1.4041 -0.678,0.105 -1.765,1.1253 -2.3948,1.1611 -0.7823,0.0444 -0.5153,-1.4087 -1.3271,-1.3213 -0.6485,0.07 -2.1466,1.4935 -2.7692,1.5226 -0.9199,0.0429 -0.6817,-1.6921 -1.6166,-1.6145 -0.7713,0.0642 -2.0701,1.4872 -2.8274,1.5225 -0.727,0.0336 -0.6248,-1.4628 -1.3565,-1.4218 -0.6586,0.0367 -1.9303,1.1723 -2.5815,1.1961 -0.7489,0.0274 -0.4661,-1.3251 -1.2224,-1.2914 -0.6504,0.0288 -2.1419,1.3747 -2.7881,1.3931 -0.7967,0.0225 -0.5488,-1.5832 -1.3522,-1.5533 -0.7217,0.0269 -2.5261,1.5357 -3.2437,1.558 -0.8167,0.0257 -0.5655,-1.4409 -1.3769,-1.4192 -0.5843,0.0155 -1.8834,1.1564 -2.4632,1.1674 -0.7062,0.0135 -0.3898,-1.3675 -1.0958,-1.3513 -0.7148,0.0165 -2.3172,1.5319 -3.0254,1.5413 -0.8529,0.0113 -0.5646,-1.6391 -1.4166,-1.6247 -0.7814,0.0132 -2.3263,1.5504 -3.1016,1.5565 -0.8016,0.0066 -0.4559,-1.4387 -1.2573,-1.4315 -0.6494,0.0057 -1.9982,1.1898 -2.6448,1.1918 -0.6609,0.0019 -0.3278,-1.3665 -0.989,-1.3642 -0.6164,0.0023 -2.2846,1.4739 -2.8981,1.4726 -0.8211,-0.0019 -0.664,-1.4836 -1.4839,-1.4857 -0.7523,-0.0019 -2.4137,1.4938 -3.1617,1.4865 -0.6661,-0.0067 -0.5027,-1.4271 -1.1674,-1.4344 -0.627,-0.007 -2.082,1.1287 -2.7056,1.1185 -0.6025,-0.0101 -0.4061,-1.2765 -1.0069,-1.2875 -0.7423,-0.0136 -2.3737,1.4401 -3.1105,1.4209 -0.787,-0.0206 -0.5022,-1.4864 -1.2855,-1.5096 -0.7572,-0.0224 -2.3871,1.5892 -3.1384,1.56 -0.7294,-0.028 -0.6264,-1.3925 -1.3517,-1.4244 -0.6408,-0.0282 -1.9487,1.1444 -2.5851,1.1111 -0.6099,-0.0317 -0.4247,-1.2534 -1.0315,-1.2884 -0.6108,-0.0352 -2.301,1.5043 -2.907,1.4638 -0.7484,-0.0501 -0.6572,-1.4971 -1.3995,-1.5531 -0.7401,-0.0557 -2.5508,1.6224 -3.2826,1.5572 -0.6703,-0.0595 -0.5482,-1.3589 -1.2122,-1.425 -0.6394,-0.0635 -1.9386,1.1842 -2.5711,1.113 -0.605,-0.0682 -0.5135,-1.2091 -1.1126,-1.2835 -0.6873,-0.0854 -2.3235,1.503 -3.0016,1.4068 -0.6905,-0.0979 -0.4978,-1.4678 -1.1796,-1.5757 -0.6609,-0.1046 -2.7,1.7527 -3.3506,1.6359 -0.6172,-0.1106 -0.5292,-1.3119 -1.1376,-1.4326 -0.6186,-0.1228 -2.199,1.2503 -2.8073,1.1151 -0.492,-0.1093 -0.2908,-1.1507 -0.7761,-1.2677 -0.6474,-0.1562 -2.6807,1.6731 -3.3144,1.5005 -0.6184,-0.1686 -0.5542,-1.2206 -1.1598,-1.4046 -0.6842,-0.2077 -2.8435,1.9608 -3.5087,1.7298 -0.558,-0.1936 -0.6109,-1.0592 -1.1556,-1.2693 -0.6621,-0.2553 -2.4953,1.5819 -3.1357,1.2992 -0.6981,-0.3084 -0.6757,-0.9794 -1.6942,-0.9019l-2.2349 1.207 0.0004 0 0.0004 0z"/>
  <line id="_355463304" class="fil0 str1" x1="68.5489" y1="2.0394" x2="104.611" y2= "54.0717" />
  <line id="_355466736" class="fil0 str1" x1="93.344" y1="2.0084" x2="129.406" y2= "54.0407" />
  <line id="_355464360" class="fil0 str1" x1="118.139" y1="1.9773" x2="154.201" y2= "54.0096" />
  <line id="_355461456" class="fil0 str1" x1="142.934" y1="1.9462" x2="178.996" y2= "53.9785" />
  <g id="_187780872">
   <path id="_187782408" class="fil0 str1" d="M66.5711 36.5679c2.5331,-3.9537 2.8482,1.6046 4.9481,-1.1566 0.9082,-1.1939 1.4071,-0.7443 2.0889,0.0537 0.9868,1.1555 1.3722,0.9297 2.3618,-0.7314 0.434,-0.7285 1.2949,-0.887 1.9039,0.1096 0.4843,0.7924 0.8751,0.7995 1.3024,0.8952"/>
   <path id="_187782312" class="fil0 str1" d="M79.0574 35.6536c0.8358,0.488 1.1552,-0.7872 1.4209,-1.1238 1.5828,-2.005 1.7051,2.6979 3.6346,0.3374 0.908,-1.1106 1.4071,-0.616 2.0888,0.2446 0.9869,1.2458 1.3723,1.055 2.3619,-0.5154 0.4339,-0.6887 1.2949,-0.7686 1.9039,0.2836 0.4843,0.8368 0.8751,0.8796 1.3024,1.0144"/>
   <path id="_187784328" class="fil0 str1" d="M91.6532 35.8306c0.8357,0.4882 1.1552,-0.7872 1.4208,-1.1238 1.5829,-2.0049 1.7051,2.6981 3.6346,0.3374 0.908,-1.1106 1.4071,-0.6158 2.0889,0.2448 0.9868,1.2456 1.3722,1.055 2.3618,-0.5154 0.434,-0.6889 1.2949,-0.7687 1.9039,0.2836 0.4843,0.8368 0.8751,0.8795 1.3024,1.0142"/>
   <path id="_187788792" class="fil0 str1" d="M104.249 36.0078c0.8357,0.488 1.1552,-0.7873 1.4209,-1.1239 1.5828,-2.0049 1.705,2.698 3.6346,0.3375 0.9079,-1.1107 1.407,-0.6159 2.0888,0.2447 0.9868,1.2457 1.3723,1.055 2.3619,-0.5155 0.4339,-0.6887 1.2949,-0.7686 1.9039,0.2836 0.4843,0.837 0.875,0.8796 1.3023,1.0144"/>
   <path id="_187787064" class="fil0 str1" d="M116.845 36.1849c0.8358,0.488 1.1552,-0.7872 1.4209,-1.1238 1.5828,-2.005 1.7051,2.6979 3.6346,0.3374 0.908,-1.1106 1.4071,-0.6159 2.0888,0.2446 0.9869,1.2458 1.3723,1.0551 2.3619,-0.5154 0.4339,-0.6887 1.2949,-0.7685 1.9039,0.2836 0.4843,0.8369 0.8751,0.8795 1.3024,1.0144"/>
   <path id="_187786368" class="fil0 str1" d="M129.44 36.362c0.8357,0.4881 1.1552,-0.7873 1.4208,-1.1239 1.5829,-2.0048 1.7051,2.698 3.6346,0.3374 0.908,-1.1106 1.4071,-0.6158 2.0889,0.2448 0.9868,1.2457 1.3722,1.055 2.3618,-0.5155 0.434,-0.6888 1.2949,-0.7686 1.9039,0.2837 0.4843,0.8368 0.8751,0.8795 1.3024,1.0143"/>
   <path id="_187788384" class="fil0 str1" d="M142.036 36.5391c0.8357,0.488 1.1552,-0.7872 1.4209,-1.1238 1.5828,-2.005 1.705,2.6979 3.6346,0.3374 0.9079,-1.1106 1.407,-0.6158 2.0888,0.2447 0.9868,1.2457 1.3723,1.0551 2.3619,-0.5155 0.4339,-0.6887 1.2949,-0.7686 1.9039,0.2836 0.4843,0.8369 0.875,0.8796 1.3023,1.0144"/>
   <path id="_187787088" class="fil0 str1" d="M154.632 36.7163c0.8358,0.488 1.1552,-0.7873 1.4209,-1.1239 1.5828,-2.005 1.7051,2.698 3.6346,0.3374 0.908,-1.1106 1.4071,-0.6159 2.0888,0.2447 0.9869,1.2458 1.3723,1.055 2.3619,-0.5154 0.4339,-0.6888 1.2949,-0.7686 1.9039,0.2836 0.4843,0.8368 0.8751,0.8795 1.3024,1.0144"/>
   <path id="_187783872" class="fil0 str1" d="M167.227 36.8933c0.8357,0.488 1.1552,-0.7873 1.4208,-1.1238 1.5829,-2.0049 1.7051,2.6979 3.6346,0.3374 0.908,-1.1107 1.4071,-0.6159 2.0889,0.2447 0.9868,1.2457 1.3722,1.055 2.3618,-0.5155 0.434,-0.6887 1.2949,-0.7686 1.9039,0.2837 0.4843,0.8369 0.8751,0.8795 1.3024,1.0143"/>
   <path id="_187787760" class="fil0 str1" d="M179.823 37.0704c0.8357,0.488 1.2954,-2.356 1.7541,-2.3058"/>
  </g>
  <g id="_187780872_0">
   <path id="_187782408_1" class="fil0 str1" d="M52.6922 15.8016c2.5331,-3.9536 2.8482,1.6047 4.9481,-1.1565 0.9082,-1.1939 1.4071,-0.7443 2.0889,0.0537 0.9868,1.1554 1.3722,0.9296 2.3618,-0.7314 0.434,-0.7285 1.2949,-0.887 1.9039,0.1096 0.4843,0.7924 0.8751,0.7995 1.3024,0.8951"/>
   <path id="_187782312_2" class="fil0 str1" d="M65.1785 14.8874c0.8358,0.488 1.1552,-0.7873 1.4209,-1.1239 1.5828,-2.0049 1.7051,2.698 3.6346,0.3375 0.908,-1.1107 1.4071,-0.616 2.0888,0.2446 0.9869,1.2458 1.3723,1.055 2.3619,-0.5154 0.4339,-0.6887 1.2949,-0.7686 1.9039,0.2836 0.4843,0.8368 0.8751,0.8796 1.3024,1.0144"/>
   <path id="_187784328_3" class="fil0 str1" d="M77.7743 15.0644c0.8357,0.4881 1.1552,-0.7872 1.4208,-1.1238 1.5829,-2.0049 1.7051,2.698 3.6346,0.3374 0.908,-1.1106 1.4071,-0.6158 2.0889,0.2447 0.9868,1.2457 1.3722,1.055 2.3618,-0.5154 0.434,-0.6888 1.2949,-0.7687 1.9039,0.2836 0.4843,0.8369 0.8751,0.8795 1.3024,1.0143"/>
   <path id="_187788792_4" class="fil0 str1" d="M90.3701 15.2416c0.8357,0.488 1.1552,-0.7873 1.4209,-1.1239 1.5828,-2.005 1.705,2.698 3.6346,0.3374 0.9079,-1.1106 1.407,-0.6158 2.0888,0.2448 0.9868,1.2456 1.3723,1.055 2.3619,-0.5155 0.4339,-0.6888 1.2949,-0.7686 1.9039,0.2835 0.4843,0.837 0.875,0.8797 1.3023,1.0145"/>
   <path id="_187787064_5" class="fil0 str1" d="M102.966 15.4187c0.8358,0.488 1.1552,-0.7872 1.4209,-1.1238 1.5828,-2.005 1.7051,2.6979 3.6346,0.3374 0.908,-1.1106 1.4071,-0.616 2.0888,0.2446 0.9869,1.2458 1.3723,1.055 2.3619,-0.5154 0.4339,-0.6887 1.2949,-0.7686 1.9039,0.2836 0.4843,0.8368 0.8751,0.8795 1.3024,1.0144"/>
   <path id="_187786368_6" class="fil0 str1" d="M115.561 15.5957c0.8357,0.4882 1.1552,-0.7872 1.4208,-1.1238 1.5829,-2.0049 1.7051,2.6979 3.6346,0.3374 0.908,-1.1106 1.4071,-0.6158 2.0889,0.2447 0.9868,1.2457 1.3722,1.0551 2.3618,-0.5155 0.434,-0.6887 1.2949,-0.7686 1.9039,0.2837 0.4843,0.8369 0.8751,0.8796 1.3024,1.0143"/>
   <path id="_187788384_7" class="fil0 str1" d="M128.157 15.7729c0.8357,0.488 1.1552,-0.7873 1.4209,-1.1239 1.5828,-2.0049 1.705,2.698 3.6346,0.3375 0.9079,-1.1107 1.407,-0.6159 2.0888,0.2447 0.9868,1.2457 1.3723,1.055 2.3619,-0.5155 0.4339,-0.6887 1.2949,-0.7686 1.9039,0.2836 0.4843,0.8368 0.875,0.8796 1.3023,1.0144"/>
   <path id="_187787088_8" class="fil0 str1" d="M140.753 15.95c0.8358,0.488 1.1552,-0.7872 1.4209,-1.1238 1.5828,-2.005 1.7051,2.6979 3.6346,0.3374 0.908,-1.1106 1.4071,-0.6159 2.0888,0.2446 0.9869,1.2458 1.3723,1.055 2.3619,-0.5154 0.4339,-0.6887 1.2949,-0.7685 1.9039,0.2836 0.4843,0.8369 0.8751,0.8795 1.3024,1.0144"/>
   <path id="_187783872_9" class="fil0 str1" d="M153.348 16.1271c0.8357,0.488 1.1552,-0.7873 1.4208,-1.1239 1.5829,-2.0048 1.7051,2.698 3.6346,0.3374 0.908,-1.1106 1.4071,-0.6158 2.0889,0.2448 0.9868,1.2456 1.3722,1.055 2.3618,-0.5155 0.434,-0.6888 1.2949,-0.7686 1.9039,0.2837 0.4843,0.8368 0.8751,0.8795 1.3024,1.0143"/>
   <path id="_187787760_10" class="fil0 str1" d="M165.944 16.3042c0.8357,0.488 1.2954,-2.356 1.7541,-2.3059"/>
  </g>
 </g>
</svg>
