<?xml version="1.0" encoding="UTF-8"?>
<!DOCTYPE svg PUBLIC "-//W3C//DTD SVG 1.1//EN" "http://www.w3.org/Graphics/SVG/1.1/DTD/svg11.dtd">
<!-- Creator: CorelDRAW -->
<svg xmlns="http://www.w3.org/2000/svg" xml:space="preserve" width="210mm" height="297mm" style="shape-rendering:geometricPrecision; text-rendering:geometricPrecision; image-rendering:optimizeQuality; fill-rule:evenodd; clip-rule:evenodd"
viewBox="0 0 210 297"
 xmlns:xlink="http://www.w3.org/1999/xlink">
 <defs>
  <style type="text/css">
   <![CDATA[
    .str0 {stroke:#333333;stroke-width:0.5}
    .fil1 {fill:none}
    .fil0 {fill:#B32E37}
   ]]>
  </style>
 </defs>
 <g id="Слой_x0020_1">
  <metadata id="CorelCorpID_0Corel-Layer"/>
  <polygon class="fil0 str0" points="4.327,52.8358 42.696,1.1331 46.5858,6.7038 12.1856,53.4821 "/>
  <line class="fil1 str0" x1="17.0542" y1="46.8618" x2="16.3464" y2= "88.6145" />
  <line class="fil1 str0" x1="93.0986" y1="55.7554" x2="93.5462" y2= "89.5391" />
  <line class="fil1 str0" x1="188.775" y1="56.562" x2="188.774" y2= "89.8903" />
  <line class="fil1 str0" x1="3.4024" y1="88.6145" x2="204.954" y2= "90.0014" />
  <g id="_349016040">
   <polygon id="_362894416" class="fil0 str0" points="42.6032,1.5513 157.522,2.4346 196.412,56.6026 81.8656,55.2896 "/>
   <line id="_362897008" class="fil1 str0" x1="51.1148" y1="4.0607" x2="88.6822" y2= "55.3733" />
   <line id="_362897344" class="fil1 str0" x1="57.4444" y1="3.9688" x2="95.0118" y2= "55.2814" />
   <line id="_362897680" class="fil1 str0" x1="63.961" y1="4.1322" x2="101.528" y2= "55.4448" />
   <line id="_362898016" class="fil1 str0" x1="70.3566" y1="4.1305" x2="107.924" y2= "55.4432" />
   <line id="_362898352" class="fil1 str0" x1="76.873" y1="4.2937" x2="114.44" y2= "55.6064" />
   <line id="_362898688" class="fil1 str0" x1="83.2697" y1="4.2933" x2="120.837" y2= "55.6059" />
   <line id="_362899024" class="fil1 str0" x1="90.1066" y1="4.5884" x2="127.674" y2= "55.9011" />
   <line id="_362899360" class="fil1 str0" x1="96.1049" y1="4.35" x2="133.672" y2= "55.6626" />
   <line id="_362899696" class="fil1 str0" x1="102.955" y1="4.6878" x2="140.522" y2= "56.0005" />
   <line id="_362900032" class="fil1 str0" x1="109.128" y1="4.7476" x2="146.695" y2= "56.0603" />
   <line id="_362900368" class="fil1 str0" x1="115.895" y1="4.858" x2="153.463" y2= "56.1707" />
   <line id="_362900704" class="fil1 str0" x1="122.358" y1="4.8673" x2="159.926" y2= "56.1799" />
   <line id="_362901040" class="fil1 str0" x1="128.466" y1="4.9571" x2="166.033" y2= "56.2698" />
   <line id="_362901376" class="fil1 str0" x1="135.345" y1="5.0176" x2="172.912" y2= "56.3303" />
   <line id="_362901712" class="fil1 str0" x1="141.496" y1="4.9876" x2="179.064" y2= "56.3002" />
   <line id="_362902048" class="fil1 str0" x1="147.934" y1="5.2878" x2="185.502" y2= "56.6004" />
   <line id="_362902384" class="fil1 str0" x1="154.834" y1="5.3799" x2="192.401" y2= "56.6926" />
   <polygon id="_362902336" class="fil0 str0" points="42.7075,1.4859 45.0986,4.768 159.667,5.4228 157.522,2.4346 "/>
   <g id="_197261320">
    <path id="_188344768" class="fil1 str0" d="M78.2061 50.2408c0.1337,0.1896 0.7377,0.8011 0.9401,0.9893 0.9121,0.8483 2.8646,0.9367 3.7919,0.1271 1.0466,-0.9138 1.4605,-1.2007 2.0841,-0.712 0.4524,0.3546 0.5246,0.9316 1.5913,1.359 0.883,0.3537 1.8015,0.3535 2.6823,-0.2242 0.9487,-0.6222 1.597,-2.0314 2.5098,-0.8021 0.6044,0.814 1.3082,1.1398 2.2894,1.1464 1.0937,0.0073 1.4776,0.1076 2.3263,-0.7494 1.5818,-1.597 1.5999,-0.2088 2.6293,0.4474 0.628,0.5119 2.8633,0.4295 3.5407,-0.1181 0.3562,-0.288 0.7809,-1.0431 1.1007,-1.2237 0.2823,-0.1594 0.5422,0.0605 0.7445,0.2653"/>
    <path id="_188343352" class="fil1 str0" d="M104.28 50.6478c0.1337,0.1897 0.7377,0.8012 0.9401,0.9893 0.9121,0.8484 2.8646,0.9367 3.7919,0.1272 1.0466,-0.9139 1.4605,-1.2008 2.0841,-0.712 0.4524,0.3545 0.5246,0.9315 1.5912,1.3589 0.883,0.3538 1.8015,0.3535 2.6823,-0.2241 0.9487,-0.6223 1.597,-2.0314 2.5098,-0.8021 0.6044,0.8139 1.3082,1.1398 2.2894,1.1463 1.0937,0.0073 1.4776,0.1077 2.3263,-0.7494 1.5818,-1.597 1.5999,-0.2088 2.6293,0.4474 0.628,0.5119 2.8633,0.4295 3.5407,-0.1181 0.3562,-0.2879 0.7809,-1.043 1.1007,-1.2237 0.2823,-0.1593 0.5422,0.0605 0.7445,0.2654"/>
    <path id="_346964440" class="fil1 str0" d="M130.354 51.0549c0.1337,0.1896 0.7377,0.8011 0.9401,0.9893 0.9121,0.8483 2.8646,0.9367 3.7919,0.1271 1.0466,-0.9139 1.4605,-1.2007 2.0841,-0.712 0.4524,0.3546 0.5246,0.9315 1.5913,1.359 0.883,0.3537 1.8015,0.3534 2.6823,-0.2242 0.9487,-0.6223 1.597,-2.0314 2.5098,-0.8021 0.6044,0.8139 1.3082,1.1398 2.2894,1.1463 1.0937,0.0074 1.4776,0.1077 2.3263,-0.7493 1.5818,-1.597 1.5999,-0.2089 2.6293,0.4474 0.628,0.5118 2.8633,0.4294 3.5407,-0.1182 0.3562,-0.2879 0.7809,-1.043 1.1007,-1.2237 0.2823,-0.1593 0.5422,0.0605 0.7445,0.2654"/>
    <path id="_188342920" class="fil1 str0" d="M156.428 51.4619c0.1337,0.1896 0.7377,0.8012 0.9401,0.9893 0.9121,0.8483 2.8646,0.9367 3.7919,0.1271 1.0466,-0.9138 1.4605,-1.2007 2.0841,-0.7119 0.4524,0.3545 0.5246,0.9315 1.5913,1.3589 0.883,0.3538 1.8015,0.3535 2.6823,-0.2242 0.9487,-0.6222 1.597,-2.0313 2.5098,-0.8021 0.6044,0.814 1.3082,1.1398 2.2894,1.1464 1.0937,0.0073 1.4776,0.1076 2.3263,-0.7494 1.5818,-1.597 1.5999,-0.2088 2.6293,0.4474 0.628,0.5119 2.8633,0.4295 3.5407,-0.1181 0.3562,-0.288 0.7809,-1.043 1.1007,-1.2237 0.2823,-0.1594 0.5422,0.0605 0.7445,0.2654"/>
    <path id="_346960864" class="fil1 str0" d="M182.502 51.8689c0.1337,0.1897 0.7377,0.8012 0.9401,0.9893 0.9121,0.8484 2.8645,0.9367 3.7918,0.1272 1.0466,-0.9139 1.4605,-1.2008 2.0841,-0.712 0.4524,0.3545 0.5246,0.9315 1.5913,1.359 0.883,0.3537 2.2363,0.1248 3.1171,-0.4529"/>
   </g>
   <g id="_197261392">
    <path id="_188344768_0" class="fil1 str0" d="M74.5592 45.2291c0.1337,0.1897 0.7377,0.8012 0.9401,0.9893 0.9121,0.8483 2.8646,0.9367 3.7919,0.1271 1.0466,-0.9138 1.4605,-1.2007 2.0841,-0.7119 0.4524,0.3545 0.5246,0.9315 1.5913,1.3589 0.883,0.3538 1.8015,0.3535 2.6823,-0.2242 0.9487,-0.6222 1.597,-2.0313 2.5098,-0.8021 0.6044,0.814 1.3082,1.1398 2.2894,1.1464 1.0937,0.0073 1.4776,0.1076 2.3263,-0.7494 1.5818,-1.597 1.5999,-0.2088 2.6293,0.4474 0.628,0.5119 2.8633,0.4295 3.5407,-0.1181 0.3562,-0.288 0.7809,-1.043 1.1007,-1.2237 0.2823,-0.1593 0.5422,0.0605 0.7445,0.2654"/>
    <path id="_188343352_1" class="fil1 str0" d="M100.633 45.6361c0.1337,0.1897 0.7377,0.8012 0.9401,0.9894 0.9121,0.8483 2.8646,0.9367 3.7919,0.1271 1.0466,-0.9139 1.4605,-1.2007 2.0841,-0.712 0.4524,0.3546 0.5246,0.9315 1.5912,1.359 0.883,0.3537 1.8015,0.3534 2.6823,-0.2242 0.9487,-0.6223 1.597,-2.0314 2.5098,-0.8021 0.6044,0.8139 1.3082,1.1398 2.2894,1.1463 1.0937,0.0073 1.4776,0.1077 2.3263,-0.7494 1.5818,-1.597 1.5999,-0.2088 2.6293,0.4475 0.628,0.5118 2.8633,0.4294 3.5407,-0.1182 0.3562,-0.2879 0.7809,-1.043 1.1007,-1.2237 0.2823,-0.1593 0.5422,0.0605 0.7445,0.2654"/>
    <path id="_346964440_2" class="fil1 str0" d="M126.707 46.0432c0.1337,0.1896 0.7377,0.8011 0.9401,0.9893 0.9121,0.8483 2.8646,0.9367 3.7919,0.1271 1.0466,-0.9139 1.4605,-1.2007 2.0841,-0.712 0.4524,0.3546 0.5246,0.9316 1.5913,1.359 0.883,0.3537 1.8015,0.3535 2.6823,-0.2242 0.9487,-0.6222 1.597,-2.0314 2.5098,-0.8021 0.6044,0.8139 1.3082,1.1398 2.2894,1.1463 1.0937,0.0074 1.4776,0.1077 2.3263,-0.7493 1.5818,-1.597 1.5999,-0.2088 2.6293,0.4474 0.628,0.5118 2.8633,0.4295 3.5407,-0.1181 0.3562,-0.288 0.7809,-1.0431 1.1007,-1.2237 0.2823,-0.1594 0.5422,0.0605 0.7445,0.2653"/>
    <path id="_188342920_3" class="fil1 str0" d="M152.781 46.4502c0.1337,0.1897 0.7377,0.8012 0.9401,0.9893 0.9121,0.8484 2.8646,0.9367 3.7919,0.1271 1.0466,-0.9138 1.4605,-1.2007 2.0841,-0.7119 0.4524,0.3545 0.5246,0.9315 1.5913,1.3589 0.883,0.3538 1.8015,0.3535 2.6823,-0.2242 0.9487,-0.6222 1.597,-2.0313 2.5098,-0.8021 0.6044,0.814 1.3082,1.1398 2.2894,1.1464 1.0937,0.0073 1.4776,0.1076 2.3263,-0.7494 1.5818,-1.597 1.5999,-0.2088 2.6293,0.4474 0.628,0.5119 2.8633,0.4295 3.5407,-0.1181 0.3562,-0.288 0.7809,-1.043 1.1007,-1.2237 0.2823,-0.1593 0.5422,0.0605 0.7445,0.2654"/>
    <path id="_346960864_4" class="fil1 str0" d="M178.855 46.8573c0.1337,0.1896 0.7377,0.8011 0.9401,0.9893 0.9121,0.8483 2.8645,0.9367 3.7918,0.1271 1.0466,-0.9139 1.4605,-1.2007 2.0841,-0.712 0.4524,0.3546 0.5246,0.9315 1.5913,1.359 0.883,0.3537 2.2363,0.1248 3.1171,-0.4529"/>
   </g>
   <g id="_197261512">
    <path id="_188344768_5" class="fil1 str0" d="M70.9123 40.2174c0.1337,0.1897 0.7377,0.8012 0.9401,0.9893 0.9121,0.8484 2.8646,0.9367 3.7919,0.1271 1.0466,-0.9138 1.4605,-1.2007 2.0841,-0.7119 0.4524,0.3545 0.5246,0.9315 1.5913,1.3589 0.883,0.3538 1.8015,0.3535 2.6823,-0.2241 0.9487,-0.6223 1.597,-2.0314 2.5098,-0.8022 0.6044,0.814 1.3082,1.1399 2.2894,1.1464 1.0937,0.0073 1.4776,0.1077 2.3263,-0.7494 1.5818,-1.597 1.5999,-0.2088 2.6293,0.4474 0.628,0.5119 2.8633,0.4295 3.5407,-0.1181 0.3562,-0.288 0.7809,-1.043 1.1007,-1.2237 0.2823,-0.1593 0.5422,0.0605 0.7445,0.2654"/>
    <path id="_188343352_6" class="fil1 str0" d="M96.9862 40.6245c0.1337,0.1896 0.7377,0.8011 0.9401,0.9893 0.9121,0.8483 2.8646,0.9367 3.7919,0.1271 1.0466,-0.9139 1.4605,-1.2007 2.0841,-0.712 0.4524,0.3546 0.5246,0.9315 1.5912,1.359 0.883,0.3537 1.8015,0.3534 2.6823,-0.2242 0.9487,-0.6223 1.597,-2.0314 2.5098,-0.8021 0.6044,0.8139 1.3082,1.1398 2.2894,1.1463 1.0937,0.0074 1.4776,0.1077 2.3263,-0.7493 1.5818,-1.5971 1.5999,-0.2089 2.6293,0.4474 0.628,0.5118 2.8633,0.4294 3.5407,-0.1182 0.3562,-0.2879 0.7809,-1.043 1.1007,-1.2237 0.2823,-0.1593 0.5422,0.0605 0.7445,0.2654"/>
    <path id="_346964440_7" class="fil1 str0" d="M123.06 41.0315c0.1337,0.1896 0.7377,0.8011 0.9401,0.9893 0.9121,0.8483 2.8646,0.9367 3.7919,0.1271 1.0466,-0.9138 1.4605,-1.2007 2.0841,-0.712 0.4524,0.3546 0.5246,0.9316 1.5913,1.359 0.883,0.3538 1.8015,0.3535 2.6823,-0.2242 0.9487,-0.6222 1.597,-2.0313 2.5098,-0.8021 0.6044,0.814 1.3082,1.1398 2.2894,1.1464 1.0937,0.0073 1.4776,0.1076 2.3263,-0.7494 1.5818,-1.597 1.5999,-0.2088 2.6293,0.4474 0.628,0.5119 2.8633,0.4295 3.5407,-0.1181 0.3562,-0.288 0.7809,-1.043 1.1007,-1.2237 0.2823,-0.1594 0.5422,0.0605 0.7445,0.2653"/>
    <path id="_188342920_8" class="fil1 str0" d="M149.134 41.4385c0.1337,0.1897 0.7377,0.8012 0.9401,0.9893 0.9121,0.8484 2.8646,0.9367 3.7919,0.1272 1.0466,-0.9139 1.4605,-1.2008 2.0841,-0.712 0.4524,0.3545 0.5246,0.9315 1.5913,1.3589 0.883,0.3538 1.8015,0.3535 2.6823,-0.2241 0.9487,-0.6223 1.597,-2.0314 2.5098,-0.8021 0.6044,0.8139 1.3082,1.1398 2.2894,1.1463 1.0937,0.0073 1.4776,0.1077 2.3263,-0.7494 1.5818,-1.597 1.5999,-0.2088 2.6293,0.4474 0.628,0.5119 2.8633,0.4295 3.5407,-0.1181 0.3562,-0.2879 0.7809,-1.043 1.1007,-1.2237 0.2823,-0.1593 0.5422,0.0605 0.7445,0.2654"/>
    <path id="_346960864_9" class="fil1 str0" d="M175.208 41.8456c0.1337,0.1896 0.7377,0.8011 0.9401,0.9893 0.9121,0.8483 2.8645,0.9367 3.7918,0.1271 1.0466,-0.9139 1.4605,-1.2007 2.0841,-0.712 0.4524,0.3546 0.5246,0.9316 1.5913,1.359 0.883,0.3537 2.2363,0.1248 3.1171,-0.4529"/>
   </g>
   <g id="_197275528">
    <path id="_188344768_10" class="fil1 str0" d="M67.2654 35.2057c0.1337,0.1897 0.7377,0.8012 0.9401,0.9893 0.9121,0.8484 2.8646,0.9367 3.7919,0.1272 1.0466,-0.9139 1.4605,-1.2008 2.0841,-0.712 0.4524,0.3545 0.5246,0.9315 1.5913,1.359 0.883,0.3537 1.8015,0.3534 2.6823,-0.2242 0.9487,-0.6223 1.597,-2.0314 2.5098,-0.8021 0.6044,0.8139 1.3082,1.1398 2.2894,1.1463 1.0937,0.0073 1.4776,0.1077 2.3263,-0.7494 1.5818,-1.597 1.5999,-0.2088 2.6293,0.4474 0.628,0.5119 2.8633,0.4295 3.5407,-0.1181 0.3562,-0.2879 0.7809,-1.043 1.1007,-1.2237 0.2823,-0.1593 0.5422,0.0605 0.7445,0.2654"/>
    <path id="_188343352_11" class="fil1 str0" d="M93.3393 35.6128c0.1337,0.1896 0.7377,0.8011 0.9401,0.9893 0.9121,0.8483 2.8646,0.9367 3.7919,0.1271 1.0466,-0.9139 1.4605,-1.2007 2.0841,-0.712 0.4524,0.3546 0.5246,0.9316 1.5912,1.359 0.883,0.3537 1.8015,0.3535 2.6823,-0.2242 0.9487,-0.6222 1.597,-2.0314 2.5098,-0.8021 0.6044,0.8139 1.3082,1.1398 2.2894,1.1463 1.0937,0.0074 1.4776,0.1077 2.3263,-0.7493 1.5818,-1.597 1.5999,-0.2088 2.6293,0.4474 0.628,0.5118 2.8633,0.4295 3.5407,-0.1182 0.3562,-0.2879 0.7809,-1.043 1.1007,-1.2236 0.2823,-0.1594 0.5422,0.0605 0.7445,0.2653"/>
    <path id="_346964440_12" class="fil1 str0" d="M119.413 36.0198c0.1337,0.1897 0.7377,0.8012 0.9401,0.9893 0.9121,0.8484 2.8646,0.9367 3.7919,0.1271 1.0466,-0.9138 1.4605,-1.2007 2.0841,-0.7119 0.4524,0.3545 0.5246,0.9315 1.5913,1.3589 0.883,0.3538 1.8015,0.3535 2.6823,-0.2242 0.9487,-0.6222 1.597,-2.0313 2.5098,-0.8021 0.6044,0.814 1.3082,1.1398 2.2894,1.1464 1.0937,0.0073 1.4776,0.1076 2.3263,-0.7494 1.5818,-1.597 1.5999,-0.2088 2.6293,0.4474 0.628,0.5119 2.8633,0.4295 3.5407,-0.1181 0.3562,-0.288 0.7809,-1.043 1.1007,-1.2237 0.2823,-0.1593 0.5422,0.0605 0.7445,0.2654"/>
    <path id="_188342920_13" class="fil1 str0" d="M145.487 36.4268c0.1337,0.1897 0.7377,0.8012 0.9401,0.9894 0.9121,0.8483 2.8646,0.9367 3.7919,0.1271 1.0466,-0.9139 1.4605,-1.2007 2.0841,-0.712 0.4524,0.3546 0.5246,0.9315 1.5913,1.359 0.883,0.3537 1.8015,0.3534 2.6823,-0.2242 0.9487,-0.6223 1.597,-2.0314 2.5098,-0.8021 0.6044,0.8139 1.3082,1.1398 2.2894,1.1463 1.0937,0.0073 1.4776,0.1077 2.3263,-0.7494 1.5818,-1.597 1.5999,-0.2088 2.6293,0.4475 0.628,0.5118 2.8633,0.4294 3.5407,-0.1182 0.3562,-0.2879 0.7809,-1.043 1.1007,-1.2237 0.2823,-0.1593 0.5422,0.0605 0.7445,0.2654"/>
    <path id="_346960864_14" class="fil1 str0" d="M171.561 36.8339c0.1337,0.1896 0.7377,0.8011 0.9401,0.9893 0.9121,0.8483 2.8645,0.9367 3.7918,0.1271 1.0466,-0.9139 1.4605,-1.2007 2.0841,-0.712 0.4524,0.3546 0.5246,0.9316 1.5913,1.359 0.883,0.3537 2.2363,0.1248 3.1171,-0.4529"/>
   </g>
   <g id="_197246488">
    <path id="_188344768_15" class="fil1 str0" d="M63.6185 30.1941c0.1337,0.1896 0.7377,0.8011 0.9401,0.9893 0.9121,0.8483 2.8646,0.9367 3.7919,0.1271 1.0466,-0.9139 1.4605,-1.2007 2.0841,-0.712 0.4524,0.3546 0.5246,0.9315 1.5913,1.359 0.883,0.3537 1.8015,0.3534 2.6823,-0.2242 0.9487,-0.6223 1.597,-2.0314 2.5098,-0.8021 0.6044,0.8139 1.3082,1.1398 2.2894,1.1463 1.0937,0.0074 1.4776,0.1077 2.3263,-0.7493 1.5818,-1.5971 1.5999,-0.2089 2.6293,0.4474 0.628,0.5118 2.8633,0.4294 3.5407,-0.1182 0.3562,-0.2879 0.7809,-1.043 1.1007,-1.2237 0.2823,-0.1593 0.5422,0.0605 0.7445,0.2654"/>
    <path id="_188343352_16" class="fil1 str0" d="M89.6924 30.6011c0.1337,0.1896 0.7377,0.8011 0.9401,0.9893 0.9121,0.8483 2.8646,0.9367 3.7919,0.1271 1.0466,-0.9138 1.4605,-1.2007 2.0841,-0.712 0.4524,0.3546 0.5246,0.9316 1.5912,1.359 0.883,0.3537 1.8015,0.3535 2.6823,-0.2242 0.9487,-0.6222 1.597,-2.0314 2.5098,-0.8021 0.6044,0.8139 1.3082,1.1398 2.2894,1.1463 1.0937,0.0074 1.4776,0.1077 2.3263,-0.7493 1.5818,-1.597 1.5999,-0.2088 2.6293,0.4474 0.628,0.5119 2.8633,0.4295 3.5407,-0.1181 0.3562,-0.288 0.7809,-1.0431 1.1007,-1.2237 0.2823,-0.1594 0.5422,0.0605 0.7445,0.2653"/>
    <path id="_346964440_17" class="fil1 str0" d="M115.766 31.0081c0.1337,0.1897 0.7377,0.8012 0.9401,0.9893 0.9121,0.8484 2.8646,0.9367 3.7919,0.1271 1.0466,-0.9138 1.4605,-1.2007 2.0841,-0.7119 0.4524,0.3545 0.5246,0.9315 1.5913,1.3589 0.883,0.3538 1.8015,0.3535 2.6823,-0.2241 0.9487,-0.6223 1.597,-2.0314 2.5098,-0.8022 0.6044,0.814 1.3082,1.1399 2.2894,1.1464 1.0937,0.0073 1.4776,0.1077 2.3263,-0.7494 1.5818,-1.597 1.5999,-0.2088 2.6293,0.4474 0.628,0.5119 2.8633,0.4295 3.5407,-0.1181 0.3562,-0.2879 0.7809,-1.043 1.1007,-1.2237 0.2823,-0.1593 0.5422,0.0605 0.7445,0.2654"/>
    <path id="_188342920_18" class="fil1 str0" d="M141.84 31.4152c0.1337,0.1896 0.7377,0.8011 0.9401,0.9893 0.9121,0.8483 2.8646,0.9367 3.7919,0.1271 1.0466,-0.9139 1.4605,-1.2007 2.0841,-0.712 0.4524,0.3546 0.5246,0.9315 1.5913,1.359 0.883,0.3537 1.8015,0.3534 2.6823,-0.2242 0.9487,-0.6223 1.597,-2.0314 2.5098,-0.8021 0.6044,0.8139 1.3082,1.1398 2.2894,1.1463 1.0937,0.0074 1.4776,0.1077 2.3263,-0.7493 1.5818,-1.5971 1.5999,-0.2089 2.6293,0.4474 0.628,0.5118 2.8633,0.4294 3.5407,-0.1182 0.3562,-0.2879 0.7809,-1.043 1.1007,-1.2237 0.2823,-0.1593 0.5422,0.0605 0.7445,0.2654"/>
    <path id="_346960864_19" class="fil1 str0" d="M167.914 31.8222c0.1337,0.1896 0.7377,0.8012 0.9401,0.9893 0.9121,0.8483 2.8645,0.9367 3.7918,0.1271 1.0466,-0.9138 1.4605,-1.2007 2.0841,-0.712 0.4524,0.3546 0.5246,0.9316 1.5913,1.359 0.883,0.3538 2.2363,0.1248 3.1171,-0.4528"/>
   </g>
   <g id="_197264848">
    <path id="_188344768_20" class="fil1 str0" d="M59.9716 25.1824c0.1337,0.1896 0.7377,0.8011 0.9401,0.9893 0.9121,0.8483 2.8646,0.9367 3.7919,0.1271 1.0466,-0.9139 1.4605,-1.2007 2.0841,-0.712 0.4524,0.3546 0.5246,0.9316 1.5913,1.359 0.883,0.3537 1.8015,0.3535 2.6823,-0.2242 0.9487,-0.6222 1.597,-2.0314 2.5098,-0.8021 0.6044,0.8139 1.3082,1.1398 2.2894,1.1463 1.0937,0.0074 1.4776,0.1077 2.3263,-0.7493 1.5818,-1.597 1.5999,-0.2089 2.6293,0.4474 0.628,0.5118 2.8633,0.4294 3.5407,-0.1182 0.3562,-0.2879 0.7809,-1.043 1.1007,-1.2237 0.2823,-0.1593 0.5422,0.0605 0.7445,0.2654"/>
    <path id="_188343352_21" class="fil1 str0" d="M86.0455 25.5894c0.1337,0.1897 0.7377,0.8012 0.9401,0.9893 0.9121,0.8483 2.8646,0.9367 3.7919,0.1271 1.0466,-0.9138 1.4605,-1.2007 2.0841,-0.7119 0.4524,0.3545 0.5246,0.9315 1.5912,1.3589 0.883,0.3538 1.8015,0.3535 2.6823,-0.2242 0.9487,-0.6222 1.597,-2.0313 2.5098,-0.8021 0.6044,0.814 1.3082,1.1398 2.2894,1.1464 1.0937,0.0073 1.4776,0.1076 2.3263,-0.7494 1.5818,-1.597 1.5999,-0.2088 2.6293,0.4474 0.628,0.5119 2.8633,0.4295 3.5407,-0.1181 0.3562,-0.288 0.7809,-1.043 1.1007,-1.2237 0.2823,-0.1594 0.5422,0.0605 0.7445,0.2654"/>
    <path id="_346964440_22" class="fil1 str0" d="M112.119 25.9964c0.1337,0.1897 0.7377,0.8012 0.9401,0.9894 0.9121,0.8483 2.8646,0.9367 3.7919,0.1271 1.0466,-0.9139 1.4605,-1.2008 2.0841,-0.712 0.4524,0.3546 0.5246,0.9315 1.5913,1.359 0.883,0.3537 1.8015,0.3534 2.6823,-0.2242 0.9487,-0.6223 1.597,-2.0314 2.5098,-0.8021 0.6044,0.8139 1.3082,1.1398 2.2894,1.1463 1.0937,0.0073 1.4776,0.1077 2.3263,-0.7494 1.5818,-1.597 1.5999,-0.2088 2.6293,0.4475 0.628,0.5118 2.8633,0.4294 3.5407,-0.1182 0.3562,-0.2879 0.7809,-1.043 1.1007,-1.2237 0.2823,-0.1593 0.5422,0.0605 0.7445,0.2654"/>
    <path id="_188342920_23" class="fil1 str0" d="M138.193 26.4035c0.1337,0.1896 0.7377,0.8011 0.9401,0.9893 0.9121,0.8483 2.8646,0.9367 3.7919,0.1271 1.0466,-0.9139 1.4605,-1.2007 2.0841,-0.712 0.4524,0.3546 0.5246,0.9316 1.5913,1.359 0.883,0.3537 1.8015,0.3535 2.6823,-0.2242 0.9487,-0.6222 1.597,-2.0314 2.5098,-0.8021 0.6044,0.8139 1.3082,1.1398 2.2894,1.1463 1.0937,0.0074 1.4776,0.1077 2.3263,-0.7493 1.5818,-1.597 1.5999,-0.2088 2.6293,0.4474 0.628,0.5118 2.8633,0.4295 3.5407,-0.1182 0.3562,-0.2879 0.7809,-1.043 1.1007,-1.2236 0.2823,-0.1594 0.5422,0.0605 0.7445,0.2653"/>
    <path id="_346960864_24" class="fil1 str0" d="M164.267 26.8105c0.1337,0.1897 0.7377,0.8012 0.9401,0.9893 0.9121,0.8484 2.8645,0.9367 3.7918,0.1271 1.0466,-0.9138 1.4605,-1.2007 2.0841,-0.7119 0.4524,0.3545 0.5246,0.9315 1.5913,1.3589 0.883,0.3538 2.2363,0.1248 3.1171,-0.4528"/>
   </g>
   <g id="_197251480">
    <path id="_188344768_25" class="fil1 str0" d="M56.6442 20.4843c0.1337,0.1897 0.7377,0.8012 0.9401,0.9893 0.9121,0.8484 2.8646,0.9367 3.7919,0.1271 1.0466,-0.9138 1.4605,-1.2007 2.0841,-0.7119 0.4524,0.3545 0.5246,0.9315 1.5913,1.3589 0.883,0.3538 1.8015,0.3535 2.6823,-0.2241 0.9487,-0.6223 1.597,-2.0314 2.5098,-0.8022 0.6044,0.814 1.3082,1.1399 2.2894,1.1464 1.0937,0.0073 1.4776,0.1077 2.3263,-0.7494 1.5818,-1.597 1.5999,-0.2088 2.6293,0.4474 0.628,0.5119 2.8633,0.4295 3.5407,-0.1181 0.3562,-0.288 0.7809,-1.043 1.1007,-1.2237 0.2823,-0.1593 0.5422,0.0605 0.7445,0.2654"/>
    <path id="_188343352_26" class="fil1 str0" d="M82.7181 20.8914c0.1337,0.1896 0.7377,0.8011 0.9401,0.9893 0.9121,0.8483 2.8646,0.9367 3.7919,0.1271 1.0466,-0.9139 1.4605,-1.2007 2.0841,-0.712 0.4524,0.3546 0.5246,0.9315 1.5912,1.359 0.883,0.3537 1.8015,0.3534 2.6823,-0.2242 0.9487,-0.6223 1.597,-2.0314 2.5098,-0.8021 0.6044,0.8139 1.3082,1.1398 2.2894,1.1463 1.0937,0.0074 1.4776,0.1077 2.3263,-0.7493 1.5818,-1.5971 1.5999,-0.2089 2.6293,0.4474 0.628,0.5118 2.8633,0.4294 3.5407,-0.1182 0.3562,-0.2879 0.7809,-1.043 1.1007,-1.2237 0.2823,-0.1593 0.5422,0.0605 0.7445,0.2654"/>
    <path id="_346964440_27" class="fil1 str0" d="M108.792 21.2984c0.1337,0.1896 0.7377,0.8011 0.9401,0.9893 0.9121,0.8483 2.8646,0.9367 3.7919,0.1271 1.0466,-0.9138 1.4605,-1.2007 2.0841,-0.712 0.4524,0.3546 0.5246,0.9316 1.5913,1.359 0.883,0.3538 1.8015,0.3535 2.6823,-0.2242 0.9487,-0.6222 1.597,-2.0314 2.5098,-0.8021 0.6044,0.814 1.3082,1.1398 2.2894,1.1464 1.0937,0.0073 1.4776,0.1076 2.3263,-0.7494 1.5818,-1.597 1.5999,-0.2088 2.6293,0.4474 0.628,0.5119 2.8633,0.4295 3.5407,-0.1181 0.3562,-0.288 0.7809,-1.043 1.1007,-1.2237 0.2823,-0.1594 0.5422,0.0605 0.7445,0.2653"/>
    <path id="_188342920_28" class="fil1 str0" d="M134.866 21.7054c0.1337,0.1897 0.7377,0.8012 0.9401,0.9893 0.9121,0.8484 2.8646,0.9367 3.7919,0.1272 1.0466,-0.9139 1.4605,-1.2008 2.0841,-0.712 0.4524,0.3545 0.5246,0.9315 1.5913,1.3589 0.883,0.3538 1.8015,0.3535 2.6823,-0.2241 0.9487,-0.6223 1.597,-2.0314 2.5098,-0.8021 0.6044,0.8139 1.3082,1.1398 2.2894,1.1463 1.0937,0.0073 1.4776,0.1077 2.3263,-0.7494 1.5818,-1.597 1.5999,-0.2088 2.6293,0.4474 0.628,0.5119 2.8633,0.4295 3.5407,-0.1181 0.3562,-0.2879 0.7809,-1.043 1.1007,-1.2237 0.2823,-0.1593 0.5422,0.0605 0.7445,0.2654"/>
    <path id="_346960864_29" class="fil1 str0" d="M160.94 22.1125c0.1337,0.1896 0.7377,0.8011 0.9401,0.9893 0.9121,0.8483 2.8645,0.9367 3.7918,0.1271 1.0466,-0.9139 1.4605,-1.2007 2.0841,-0.712 0.4524,0.3546 0.5246,0.9316 1.5913,1.359 0.883,0.3537 2.2363,0.1248 3.1171,-0.4529"/>
   </g>
   <g id="_194940408">
    <path id="_188344768_30" class="fil1 str0" d="M52.8187 15.217c0.1337,0.1897 0.7377,0.8012 0.9401,0.9894 0.9121,0.8483 2.8646,0.9367 3.7919,0.1271 1.0466,-0.9139 1.4605,-1.2007 2.0841,-0.712 0.4524,0.3546 0.5246,0.9315 1.5913,1.359 0.883,0.3537 1.8015,0.3534 2.6823,-0.2242 0.9487,-0.6223 1.597,-2.0314 2.5098,-0.8021 0.6044,0.8139 1.3082,1.1398 2.2894,1.1463 1.0937,0.0073 1.4776,0.1077 2.3263,-0.7494 1.5818,-1.597 1.5999,-0.2088 2.6293,0.4475 0.628,0.5118 2.8633,0.4294 3.5407,-0.1182 0.3562,-0.2879 0.7809,-1.043 1.1007,-1.2237 0.2823,-0.1593 0.5422,0.0605 0.7445,0.2654"/>
    <path id="_188343352_31" class="fil1 str0" d="M78.8926 15.6241c0.1337,0.1896 0.7377,0.8011 0.9401,0.9893 0.9121,0.8483 2.8646,0.9367 3.7919,0.1271 1.0466,-0.9139 1.4605,-1.2007 2.0841,-0.712 0.4524,0.3546 0.5246,0.9316 1.5912,1.359 0.883,0.3537 1.8015,0.3535 2.6823,-0.2242 0.9487,-0.6222 1.597,-2.0314 2.5098,-0.8021 0.6044,0.8139 1.3082,1.1398 2.2894,1.1463 1.0937,0.0074 1.4776,0.1077 2.3263,-0.7493 1.5818,-1.597 1.5999,-0.2088 2.6293,0.4474 0.628,0.5119 2.8633,0.4295 3.5407,-0.1181 0.3562,-0.288 0.7809,-1.0431 1.1007,-1.2237 0.2823,-0.1594 0.5422,0.0605 0.7445,0.2653"/>
    <path id="_346964440_32" class="fil1 str0" d="M104.967 16.0311c0.1337,0.1897 0.7377,0.8012 0.9401,0.9893 0.9121,0.8484 2.8646,0.9367 3.7919,0.1271 1.0466,-0.9138 1.4605,-1.2007 2.0841,-0.7119 0.4524,0.3545 0.5246,0.9315 1.5913,1.3589 0.883,0.3538 1.8015,0.3535 2.6823,-0.2241 0.9487,-0.6223 1.597,-2.0314 2.5098,-0.8022 0.6044,0.814 1.3082,1.1399 2.2894,1.1464 1.0937,0.0073 1.4776,0.1077 2.3263,-0.7494 1.5818,-1.597 1.5999,-0.2088 2.6293,0.4474 0.628,0.5119 2.8633,0.4295 3.5407,-0.1181 0.3562,-0.288 0.7809,-1.043 1.1007,-1.2237 0.2823,-0.1593 0.5422,0.0605 0.7445,0.2654"/>
    <path id="_188342920_33" class="fil1 str0" d="M131.041 16.4382c0.1337,0.1896 0.7377,0.8011 0.9401,0.9893 0.9121,0.8483 2.8646,0.9367 3.7919,0.1271 1.0466,-0.9139 1.4605,-1.2007 2.0841,-0.712 0.4524,0.3546 0.5246,0.9315 1.5913,1.359 0.883,0.3537 1.8015,0.3534 2.6823,-0.2242 0.9487,-0.6223 1.597,-2.0314 2.5098,-0.8021 0.6044,0.8139 1.3082,1.1398 2.2894,1.1463 1.0937,0.0074 1.4776,0.1077 2.3263,-0.7493 1.5818,-1.5971 1.5999,-0.2089 2.6293,0.4474 0.628,0.5118 2.8633,0.4294 3.5407,-0.1182 0.3562,-0.2879 0.7809,-1.043 1.1007,-1.2237 0.2823,-0.1593 0.5422,0.0605 0.7445,0.2654"/>
    <path id="_346960864_34" class="fil1 str0" d="M157.114 16.8452c0.1337,0.1896 0.7377,0.8011 0.9401,0.9893 0.9121,0.8483 2.8645,0.9367 3.7918,0.1271 1.0466,-0.9138 1.4605,-1.2007 2.0841,-0.712 0.4524,0.3546 0.5246,0.9316 1.5913,1.359 0.883,0.3538 2.2363,0.1248 3.1171,-0.4528"/>
   </g>
   <g id="_197256904">
    <path id="_188344768_35" class="fil1 str0" d="M49.2454 10.188c0.1337,0.1896 0.7377,0.8011 0.9401,0.9893 0.9121,0.8483 2.8646,0.9367 3.7919,0.1271 1.0466,-0.9139 1.4605,-1.2007 2.0841,-0.712 0.4524,0.3546 0.5246,0.9315 1.5913,1.359 0.883,0.3537 1.8015,0.3534 2.6823,-0.2242 0.9487,-0.6223 1.597,-2.0314 2.5098,-0.8021 0.6044,0.8139 1.3082,1.1398 2.2894,1.1463 1.0937,0.0074 1.4776,0.1077 2.3263,-0.7493 1.5818,-1.5971 1.5999,-0.2089 2.6293,0.4474 0.628,0.5118 2.8633,0.4294 3.5407,-0.1182 0.3562,-0.2879 0.7809,-1.043 1.1007,-1.2237 0.2823,-0.1593 0.5422,0.0605 0.7445,0.2654"/>
    <path id="_188343352_36" class="fil1 str0" d="M75.3193 10.595c0.1337,0.1896 0.7377,0.8012 0.9401,0.9893 0.9121,0.8483 2.8646,0.9367 3.7919,0.1271 1.0466,-0.9138 1.4605,-1.2007 2.0841,-0.712 0.4524,0.3546 0.5246,0.9316 1.5912,1.359 0.883,0.3538 1.8015,0.3535 2.6823,-0.2242 0.9487,-0.6222 1.597,-2.0313 2.5098,-0.8021 0.6044,0.814 1.3082,1.1398 2.2894,1.1464 1.0937,0.0073 1.4776,0.1076 2.3263,-0.7494 1.5818,-1.597 1.5999,-0.2088 2.6293,0.4474 0.628,0.5119 2.8633,0.4295 3.5407,-0.1181 0.3562,-0.288 0.7809,-1.043 1.1007,-1.2237 0.2823,-0.1594 0.5422,0.0605 0.7445,0.2654"/>
    <path id="_346964440_37" class="fil1 str0" d="M101.393 11.002c0.1337,0.1897 0.7377,0.8012 0.9401,0.9893 0.9121,0.8484 2.8646,0.9367 3.7919,0.1272 1.0466,-0.9139 1.4605,-1.2008 2.0841,-0.712 0.4524,0.3545 0.5246,0.9315 1.5913,1.3589 0.883,0.3538 1.8015,0.3535 2.6823,-0.2241 0.9487,-0.6223 1.597,-2.0314 2.5098,-0.8021 0.6044,0.8139 1.3082,1.1398 2.2894,1.1463 1.0937,0.0073 1.4776,0.1077 2.3263,-0.7494 1.5818,-1.597 1.5999,-0.2088 2.6293,0.4474 0.628,0.5119 2.8633,0.4295 3.5407,-0.1181 0.3562,-0.2879 0.7809,-1.043 1.1007,-1.2237 0.2823,-0.1593 0.5422,0.0605 0.7445,0.2654"/>
    <path id="_188342920_38" class="fil1 str0" d="M127.467 11.4091c0.1337,0.1896 0.7377,0.8011 0.9401,0.9893 0.9121,0.8483 2.8646,0.9367 3.7919,0.1271 1.0466,-0.9139 1.4605,-1.2007 2.0841,-0.712 0.4524,0.3546 0.5246,0.9316 1.5913,1.359 0.883,0.3537 1.8015,0.3535 2.6823,-0.2242 0.9487,-0.6222 1.597,-2.0314 2.5098,-0.8021 0.6044,0.8139 1.3082,1.1398 2.2894,1.1463 1.0937,0.0074 1.4776,0.1077 2.3263,-0.7493 1.5818,-1.597 1.5999,-0.2089 2.6293,0.4474 0.628,0.5118 2.8633,0.4295 3.5407,-0.1182 0.3562,-0.2879 0.7809,-1.043 1.1007,-1.2237 0.2823,-0.1593 0.5422,0.0605 0.7445,0.2654"/>
    <path id="_346960864_39" class="fil1 str0" d="M153.541 11.8161c0.1337,0.1897 0.7377,0.8012 0.9401,0.9893 0.9121,0.8484 2.8645,0.9367 3.7918,0.1271 1.0466,-0.9138 1.4605,-1.2007 2.0841,-0.7119 0.4524,0.3545 0.5246,0.9315 1.5913,1.3589 0.883,0.3538 2.2363,0.1248 3.1171,-0.4528"/>
   </g>
   <g id="_197251696">
    <path id="_188344768_40" class="fil1 str0" d="M45.6925 5.1987c0.1337,0.1897 0.7377,0.8012 0.9401,0.9893 0.9121,0.8484 2.8646,0.9367 3.7919,0.1271 1.0466,-0.9138 1.4605,-1.2007 2.0841,-0.7119 0.4524,0.3545 0.5246,0.9315 1.5913,1.3589 0.883,0.3538 1.8015,0.3535 2.6823,-0.2242 0.9487,-0.6222 1.597,-2.0313 2.5098,-0.8021 0.6044,0.814 1.3082,1.1398 2.2894,1.1464 1.0937,0.0073 1.4776,0.1076 2.3263,-0.7494 1.5818,-1.597 1.5999,-0.2088 2.6293,0.4474 0.628,0.5119 2.8633,0.4295 3.5407,-0.1181 0.3562,-0.288 0.7809,-1.043 1.1007,-1.2237 0.2823,-0.1593 0.5422,0.0605 0.7445,0.2654"/>
    <path id="_188343352_41" class="fil1 str0" d="M71.7664 5.6057c0.1337,0.1897 0.7377,0.8012 0.9401,0.9894 0.9121,0.8483 2.8646,0.9367 3.7919,0.1271 1.0466,-0.9139 1.4605,-1.2007 2.0841,-0.712 0.4524,0.3546 0.5246,0.9315 1.5912,1.359 0.883,0.3537 1.8015,0.3534 2.6823,-0.2242 0.9487,-0.6223 1.597,-2.0314 2.5098,-0.8021 0.6044,0.8139 1.3082,1.1398 2.2894,1.1463 1.0937,0.0073 1.4776,0.1077 2.3263,-0.7494 1.5818,-1.597 1.5999,-0.2088 2.6293,0.4475 0.628,0.5118 2.8633,0.4294 3.5407,-0.1182 0.3562,-0.2879 0.7809,-1.043 1.1007,-1.2237 0.2823,-0.1593 0.5422,0.0605 0.7445,0.2654"/>
    <path id="_346964440_42" class="fil1 str0" d="M97.8403 6.0128c0.1337,0.1896 0.7377,0.8011 0.9401,0.9893 0.9121,0.8483 2.8646,0.9367 3.7919,0.1271 1.0466,-0.9139 1.4605,-1.2007 2.0841,-0.712 0.4524,0.3546 0.5246,0.9316 1.5913,1.359 0.883,0.3537 1.8015,0.3535 2.6823,-0.2242 0.9487,-0.6222 1.597,-2.0314 2.5098,-0.8021 0.6044,0.8139 1.3082,1.1398 2.2894,1.1463 1.0937,0.0074 1.4776,0.1077 2.3263,-0.7493 1.5818,-1.597 1.5999,-0.2088 2.6293,0.4474 0.628,0.5118 2.8633,0.4295 3.5407,-0.1181 0.3562,-0.288 0.7809,-1.0431 1.1007,-1.2237 0.2823,-0.1594 0.5422,0.0605 0.7445,0.2653"/>
    <path id="_188342920_43" class="fil1 str0" d="M123.914 6.4198c0.1337,0.1897 0.7377,0.8012 0.9401,0.9893 0.9121,0.8484 2.8646,0.9367 3.7919,0.1271 1.0466,-0.9138 1.4605,-1.2007 2.0841,-0.7119 0.4524,0.3545 0.5246,0.9315 1.5913,1.3589 0.883,0.3538 1.8015,0.3535 2.6823,-0.2242 0.9487,-0.6222 1.597,-2.0313 2.5098,-0.8021 0.6044,0.814 1.3082,1.1399 2.2894,1.1464 1.0937,0.0073 1.4776,0.1076 2.3263,-0.7494 1.5818,-1.597 1.5999,-0.2088 2.6293,0.4474 0.628,0.5119 2.8633,0.4295 3.5407,-0.1181 0.3562,-0.288 0.7809,-1.043 1.1007,-1.2237 0.2823,-0.1593 0.5422,0.0605 0.7445,0.2654"/>
    <path id="_346960864_44" class="fil1 str0" d="M149.988 6.8269c0.1337,0.1896 0.7377,0.8011 0.9401,0.9893 0.9121,0.8483 2.8645,0.9367 3.7918,0.1271 1.0466,-0.9139 1.4605,-1.2007 2.0841,-0.712 0.4524,0.3546 0.5246,0.9315 1.5913,1.359 0.883,0.3537 2.2363,0.1248 3.1171,-0.4529"/>
   </g>
  </g>
 </g>
</svg>
