<?xml version="1.0" encoding="UTF-8"?>
<!DOCTYPE svg PUBLIC "-//W3C//DTD SVG 1.1//EN" "http://www.w3.org/Graphics/SVG/1.1/DTD/svg11.dtd">
<!-- Creator: CorelDRAW -->
<svg xmlns="http://www.w3.org/2000/svg" xml:space="preserve" width="210mm" height="297mm" style="shape-rendering:geometricPrecision; text-rendering:geometricPrecision; image-rendering:optimizeQuality; fill-rule:evenodd; clip-rule:evenodd"
viewBox="0 0 210 297"
 xmlns:xlink="http://www.w3.org/1999/xlink">
 <defs>
  <style type="text/css">
   <![CDATA[
    .str0 {stroke:#333333;stroke-width:0.5}
    .fil1 {fill:none}
    .fil0 {fill:#B32E37}
   ]]>
  </style>
 </defs>
 <g id="Слой_x0020_1">
  <metadata id="CorelCorpID_0Corel-Layer"/>
  <polygon class="fil0 str0" points="4.327,52.9311 42.696,8.8501 46.5858,13.5996 12.1856,53.4821 "/>
  <line class="fil1 str0" x1="17.0353" y1="47.8596" x2="16.3464" y2= "88.6145" />
  <line class="fil1 str0" x1="93.0986" y1="55.7554" x2="93.5462" y2= "89.5391" />
  <line class="fil1 str0" x1="188.775" y1="56.562" x2="188.774" y2= "89.8903" />
  <line class="fil1 str0" x1="3.4024" y1="88.6145" x2="204.954" y2= "90.0014" />
  <g id="_349016040">
   <polygon id="_362894416" class="fil0 str0" points="42.6032,8.8566 157.522,9.6229 196.412,56.6145 81.8656,55.4755 "/>
   <line id="_362897008" class="fil1 str0" x1="51.1148" y1="11.0336" x2="88.6822" y2= "55.5481" />
   <line id="_362897344" class="fil1 str0" x1="57.4444" y1="10.9538" x2="95.0118" y2= "55.4684" />
   <line id="_362897680" class="fil1 str0" x1="63.961" y1="11.0956" x2="101.528" y2= "55.6102" />
   <line id="_362898016" class="fil1 str0" x1="70.3566" y1="11.0942" x2="107.924" y2= "55.6087" />
   <line id="_362898352" class="fil1 str0" x1="76.873" y1="11.2357" x2="114.44" y2= "55.7503" />
   <line id="_362898688" class="fil1 str0" x1="83.2697" y1="11.2353" x2="120.837" y2= "55.7499" />
   <line id="_362899024" class="fil1 str0" x1="90.1066" y1="11.4914" x2="127.674" y2= "56.006" />
   <line id="_362899360" class="fil1 str0" x1="96.1049" y1="11.2845" x2="133.672" y2= "55.7991" />
   <line id="_362899696" class="fil1 str0" x1="102.955" y1="11.5776" x2="140.522" y2= "56.0922" />
   <line id="_362900032" class="fil1 str0" x1="109.128" y1="11.6295" x2="146.695" y2= "56.1441" />
   <line id="_362900368" class="fil1 str0" x1="115.895" y1="11.7253" x2="153.463" y2= "56.2398" />
   <line id="_362900704" class="fil1 str0" x1="122.358" y1="11.7333" x2="159.926" y2= "56.2479" />
   <line id="_362901040" class="fil1 str0" x1="128.466" y1="11.8112" x2="166.033" y2= "56.3258" />
   <line id="_362901376" class="fil1 str0" x1="135.345" y1="11.8637" x2="172.912" y2= "56.3783" />
   <line id="_362901712" class="fil1 str0" x1="141.496" y1="11.8377" x2="179.064" y2= "56.3522" />
   <line id="_362902048" class="fil1 str0" x1="147.934" y1="12.0981" x2="185.502" y2= "56.6126" />
   <line id="_362902384" class="fil1 str0" x1="154.834" y1="12.178" x2="192.401" y2= "56.6926" />
   <polygon id="_362902336" class="fil0 str0" points="42.7075,8.7999 45.0986,11.6472 159.667,12.2152 157.522,9.6229 "/>
   <g id="_197261320">
    <path id="_188344768" class="fil1 str0" d="M78.2061 51.0956c0.1337,0.1645 0.7377,0.695 0.9401,0.8582 0.9121,0.7359 2.8646,0.8126 3.7919,0.1103 1.0466,-0.7928 1.4605,-1.0417 2.0841,-0.6177 0.4524,0.3076 0.5246,0.8081 1.5913,1.1789 0.883,0.3069 1.8015,0.3067 2.6823,-0.1944 0.9487,-0.5398 1.597,-1.7623 2.5098,-0.6959 0.6044,0.7061 1.3082,0.9888 2.2894,0.9945 1.0937,0.0064 1.4776,0.0934 2.3263,-0.6501 1.5818,-1.3854 1.5999,-0.1812 2.6293,0.3881 0.628,0.4441 2.8633,0.3726 3.5407,-0.1024 0.3562,-0.2498 0.7809,-0.9049 1.1007,-1.0616 0.2823,-0.1382 0.5422,0.0525 0.7445,0.2302"/>
    <path id="_188343352" class="fil1 str0" d="M104.28 51.4487c0.1337,0.1645 0.7377,0.695 0.9401,0.8582 0.9121,0.7359 2.8646,0.8126 3.7919,0.1103 1.0466,-0.7928 1.4605,-1.0417 2.0841,-0.6177 0.4524,0.3076 0.5246,0.8082 1.5912,1.179 0.883,0.3068 1.8015,0.3066 2.6823,-0.1945 0.9487,-0.5398 1.597,-1.7623 2.5098,-0.6959 0.6044,0.7061 1.3082,0.9888 2.2894,0.9945 1.0937,0.0064 1.4776,0.0934 2.3263,-0.6501 1.5818,-1.3854 1.5999,-0.1811 2.6293,0.3882 0.628,0.444 2.8633,0.3725 3.5407,-0.1025 0.3562,-0.2498 0.7809,-0.9049 1.1007,-1.0616 0.2823,-0.1382 0.5422,0.0525 0.7445,0.2302"/>
    <path id="_346964440" class="fil1 str0" d="M130.354 51.8018c0.1337,0.1645 0.7377,0.695 0.9401,0.8582 0.9121,0.736 2.8646,0.8126 3.7919,0.1103 1.0466,-0.7928 1.4605,-1.0417 2.0841,-0.6177 0.4524,0.3076 0.5246,0.8082 1.5913,1.179 0.883,0.3068 1.8015,0.3066 2.6823,-0.1945 0.9487,-0.5398 1.597,-1.7623 2.5098,-0.6959 0.6044,0.7061 1.3082,0.9888 2.2894,0.9945 1.0937,0.0064 1.4776,0.0934 2.3263,-0.6501 1.5818,-1.3854 1.5999,-0.1811 2.6293,0.3882 0.628,0.444 2.8633,0.3725 3.5407,-0.1025 0.3562,-0.2498 0.7809,-0.9049 1.1007,-1.0616 0.2823,-0.1382 0.5422,0.0525 0.7445,0.2302"/>
    <path id="_188342920" class="fil1 str0" d="M156.428 52.1549c0.1337,0.1645 0.7377,0.695 0.9401,0.8582 0.9121,0.736 2.8646,0.8126 3.7919,0.1103 1.0466,-0.7928 1.4605,-1.0416 2.0841,-0.6176 0.4524,0.3075 0.5246,0.8081 1.5913,1.1789 0.883,0.3069 1.8015,0.3066 2.6823,-0.1945 0.9487,-0.5398 1.597,-1.7623 2.5098,-0.6959 0.6044,0.7062 1.3082,0.9889 2.2894,0.9945 1.0937,0.0064 1.4776,0.0934 2.3263,-0.6501 1.5818,-1.3854 1.5999,-0.1811 2.6293,0.3882 0.628,0.444 2.8633,0.3725 3.5407,-0.1025 0.3562,-0.2498 0.7809,-0.9048 1.1007,-1.0616 0.2823,-0.1382 0.5422,0.0525 0.7445,0.2302"/>
    <path id="_346960864" class="fil1 str0" d="M182.502 52.508c0.1337,0.1645 0.7377,0.695 0.9401,0.8582 0.9121,0.736 2.8645,0.8126 3.7918,0.1103 1.0466,-0.7928 1.4605,-1.0416 2.0841,-0.6176 0.4524,0.3075 0.5246,0.8081 1.5913,1.1789 0.883,0.3069 2.2363,0.1083 3.1171,-0.3929"/>
   </g>
   <g id="_197261392">
    <path id="_188344768_0" class="fil1 str0" d="M74.5592 46.7478c0.1337,0.1646 0.7377,0.6951 0.9401,0.8583 0.9121,0.7359 2.8646,0.8126 3.7919,0.1103 1.0466,-0.7928 1.4605,-1.0417 2.0841,-0.6177 0.4524,0.3076 0.5246,0.8081 1.5913,1.1789 0.883,0.3069 1.8015,0.3067 2.6823,-0.1945 0.9487,-0.5398 1.597,-1.7622 2.5098,-0.6958 0.6044,0.7061 1.3082,0.9888 2.2894,0.9945 1.0937,0.0063 1.4776,0.0934 2.3263,-0.6501 1.5818,-1.3854 1.5999,-0.1812 2.6293,0.3881 0.628,0.4441 2.8633,0.3726 3.5407,-0.1025 0.3562,-0.2498 0.7809,-0.9048 1.1007,-1.0615 0.2823,-0.1383 0.5422,0.0524 0.7445,0.2302"/>
    <path id="_188343352_1" class="fil1 str0" d="M100.633 47.1009c0.1337,0.1646 0.7377,0.6951 0.9401,0.8583 0.9121,0.7359 2.8646,0.8126 3.7919,0.1103 1.0466,-0.7928 1.4605,-1.0417 2.0841,-0.6177 0.4524,0.3076 0.5246,0.8081 1.5912,1.1789 0.883,0.3069 1.8015,0.3067 2.6823,-0.1944 0.9487,-0.5399 1.597,-1.7623 2.5098,-0.6959 0.6044,0.7061 1.3082,0.9888 2.2894,0.9945 1.0937,0.0063 1.4776,0.0934 2.3263,-0.6501 1.5818,-1.3854 1.5999,-0.1812 2.6293,0.3881 0.628,0.4441 2.8633,0.3726 3.5407,-0.1025 0.3562,-0.2498 0.7809,-0.9048 1.1007,-1.0615 0.2823,-0.1383 0.5422,0.0525 0.7445,0.2302"/>
    <path id="_346964440_2" class="fil1 str0" d="M126.707 47.4541c0.1337,0.1645 0.7377,0.695 0.9401,0.8582 0.9121,0.7359 2.8646,0.8126 3.7919,0.1103 1.0466,-0.7928 1.4605,-1.0417 2.0841,-0.6177 0.4524,0.3076 0.5246,0.8081 1.5913,1.1789 0.883,0.3069 1.8015,0.3067 2.6823,-0.1944 0.9487,-0.5398 1.597,-1.7623 2.5098,-0.6959 0.6044,0.7061 1.3082,0.9888 2.2894,0.9945 1.0937,0.0064 1.4776,0.0934 2.3263,-0.6501 1.5818,-1.3854 1.5999,-0.1811 2.6293,0.3881 0.628,0.4441 2.8633,0.3726 3.5407,-0.1024 0.3562,-0.2498 0.7809,-0.9049 1.1007,-1.0616 0.2823,-0.1382 0.5422,0.0525 0.7445,0.2302"/>
    <path id="_188342920_3" class="fil1 str0" d="M152.781 47.8072c0.1337,0.1645 0.7377,0.695 0.9401,0.8582 0.9121,0.736 2.8646,0.8126 3.7919,0.1103 1.0466,-0.7928 1.4605,-1.0417 2.0841,-0.6177 0.4524,0.3076 0.5246,0.8082 1.5913,1.179 0.883,0.3068 1.8015,0.3066 2.6823,-0.1945 0.9487,-0.5398 1.597,-1.7623 2.5098,-0.6959 0.6044,0.7061 1.3082,0.9888 2.2894,0.9945 1.0937,0.0064 1.4776,0.0934 2.3263,-0.6501 1.5818,-1.3854 1.5999,-0.1811 2.6293,0.3882 0.628,0.444 2.8633,0.3725 3.5407,-0.1025 0.3562,-0.2498 0.7809,-0.9049 1.1007,-1.0616 0.2823,-0.1382 0.5422,0.0525 0.7445,0.2302"/>
    <path id="_346960864_4" class="fil1 str0" d="M178.855 48.1603c0.1337,0.1645 0.7377,0.695 0.9401,0.8582 0.9121,0.736 2.8645,0.8126 3.7918,0.1103 1.0466,-0.7928 1.4605,-1.0416 2.0841,-0.6177 0.4524,0.3076 0.5246,0.8082 1.5913,1.179 0.883,0.3068 2.2363,0.1082 3.1171,-0.3929"/>
   </g>
   <g id="_197261512">
    <path id="_188344768_5" class="fil1 str0" d="M70.9123 42.4001c0.1337,0.1645 0.7377,0.695 0.9401,0.8583 0.9121,0.7359 2.8646,0.8126 3.7919,0.1102 1.0466,-0.7928 1.4605,-1.0416 2.0841,-0.6176 0.4524,0.3076 0.5246,0.8081 1.5913,1.1789 0.883,0.3069 1.8015,0.3067 2.6823,-0.1945 0.9487,-0.5398 1.597,-1.7622 2.5098,-0.6958 0.6044,0.7061 1.3082,0.9888 2.2894,0.9944 1.0937,0.0064 1.4776,0.0935 2.3263,-0.65 1.5818,-1.3855 1.5999,-0.1812 2.6293,0.3881 0.628,0.444 2.8633,0.3726 3.5407,-0.1025 0.3562,-0.2498 0.7809,-0.9048 1.1007,-1.0616 0.2823,-0.1382 0.5422,0.0525 0.7445,0.2303"/>
    <path id="_188343352_6" class="fil1 str0" d="M96.9862 42.7532c0.1337,0.1646 0.7377,0.695 0.9401,0.8583 0.9121,0.7359 2.8646,0.8126 3.7919,0.1102 1.0466,-0.7927 1.4605,-1.0416 2.0841,-0.6176 0.4524,0.3076 0.5246,0.8081 1.5912,1.1789 0.883,0.3069 1.8015,0.3067 2.6823,-0.1945 0.9487,-0.5398 1.597,-1.7622 2.5098,-0.6958 0.6044,0.7061 1.3082,0.9888 2.2894,0.9945 1.0937,0.0063 1.4776,0.0934 2.3263,-0.6501 1.5818,-1.3855 1.5999,-0.1812 2.6293,0.3881 0.628,0.4441 2.8633,0.3726 3.5407,-0.1025 0.3562,-0.2498 0.7809,-0.9048 1.1007,-1.0615 0.2823,-0.1383 0.5422,0.0524 0.7445,0.2302"/>
    <path id="_346964440_7" class="fil1 str0" d="M123.06 43.1063c0.1337,0.1646 0.7377,0.6951 0.9401,0.8583 0.9121,0.7359 2.8646,0.8126 3.7919,0.1103 1.0466,-0.7928 1.4605,-1.0417 2.0841,-0.6177 0.4524,0.3076 0.5246,0.8081 1.5913,1.1789 0.883,0.3069 1.8015,0.3067 2.6823,-0.1945 0.9487,-0.5398 1.597,-1.7622 2.5098,-0.6958 0.6044,0.7061 1.3082,0.9888 2.2894,0.9945 1.0937,0.0063 1.4776,0.0934 2.3263,-0.6501 1.5818,-1.3854 1.5999,-0.1812 2.6293,0.3881 0.628,0.4441 2.8633,0.3726 3.5407,-0.1025 0.3562,-0.2498 0.7809,-0.9048 1.1007,-1.0615 0.2823,-0.1383 0.5422,0.0524 0.7445,0.2302"/>
    <path id="_188342920_8" class="fil1 str0" d="M149.134 43.4594c0.1337,0.1646 0.7377,0.6951 0.9401,0.8583 0.9121,0.7359 2.8646,0.8126 3.7919,0.1103 1.0466,-0.7928 1.4605,-1.0417 2.0841,-0.6177 0.4524,0.3076 0.5246,0.8081 1.5913,1.1789 0.883,0.3069 1.8015,0.3067 2.6823,-0.1944 0.9487,-0.5399 1.597,-1.7623 2.5098,-0.6959 0.6044,0.7061 1.3082,0.9888 2.2894,0.9945 1.0937,0.0063 1.4776,0.0934 2.3263,-0.6501 1.5818,-1.3854 1.5999,-0.1812 2.6293,0.3881 0.628,0.4441 2.8633,0.3726 3.5407,-0.1025 0.3562,-0.2497 0.7809,-0.9048 1.1007,-1.0615 0.2823,-0.1382 0.5422,0.0525 0.7445,0.2302"/>
    <path id="_346960864_9" class="fil1 str0" d="M175.208 43.8126c0.1337,0.1645 0.7377,0.695 0.9401,0.8582 0.9121,0.7359 2.8645,0.8126 3.7918,0.1103 1.0466,-0.7928 1.4605,-1.0417 2.0841,-0.6177 0.4524,0.3076 0.5246,0.8081 1.5913,1.179 0.883,0.3068 2.2363,0.1082 3.1171,-0.3929"/>
   </g>
   <g id="_197275528">
    <path id="_188344768_10" class="fil1 str0" d="M67.2654 38.0524c0.1337,0.1645 0.7377,0.695 0.9401,0.8582 0.9121,0.736 2.8646,0.8126 3.7919,0.1103 1.0466,-0.7928 1.4605,-1.0416 2.0841,-0.6176 0.4524,0.3076 0.5246,0.8081 1.5913,1.1789 0.883,0.3069 1.8015,0.3066 2.6823,-0.1945 0.9487,-0.5398 1.597,-1.7622 2.5098,-0.6958 0.6044,0.7061 1.3082,0.9888 2.2894,0.9944 1.0937,0.0064 1.4776,0.0934 2.3263,-0.65 1.5818,-1.3855 1.5999,-0.1812 2.6293,0.3881 0.628,0.444 2.8633,0.3726 3.5407,-0.1025 0.3562,-0.2498 0.7809,-0.9048 1.1007,-1.0616 0.2823,-0.1382 0.5422,0.0525 0.7445,0.2302"/>
    <path id="_188343352_11" class="fil1 str0" d="M93.3393 38.4055c0.1337,0.1645 0.7377,0.695 0.9401,0.8583 0.9121,0.7359 2.8646,0.8126 3.7919,0.1102 1.0466,-0.7928 1.4605,-1.0416 2.0841,-0.6176 0.4524,0.3076 0.5246,0.8081 1.5912,1.1789 0.883,0.3069 1.8015,0.3066 2.6823,-0.1945 0.9487,-0.5398 1.597,-1.7622 2.5098,-0.6958 0.6044,0.7061 1.3082,0.9888 2.2894,0.9944 1.0937,0.0064 1.4776,0.0935 2.3263,-0.65 1.5818,-1.3855 1.5999,-0.1812 2.6293,0.3881 0.628,0.444 2.8633,0.3726 3.5407,-0.1025 0.3562,-0.2498 0.7809,-0.9048 1.1007,-1.0616 0.2823,-0.1382 0.5422,0.0525 0.7445,0.2303"/>
    <path id="_346964440_12" class="fil1 str0" d="M119.413 38.7586c0.1337,0.1645 0.7377,0.695 0.9401,0.8583 0.9121,0.7359 2.8646,0.8126 3.7919,0.1102 1.0466,-0.7927 1.4605,-1.0416 2.0841,-0.6176 0.4524,0.3076 0.5246,0.8081 1.5913,1.1789 0.883,0.3069 1.8015,0.3067 2.6823,-0.1945 0.9487,-0.5398 1.597,-1.7622 2.5098,-0.6958 0.6044,0.7061 1.3082,0.9888 2.2894,0.9945 1.0937,0.0063 1.4776,0.0934 2.3263,-0.6501 1.5818,-1.3855 1.5999,-0.1812 2.6293,0.3881 0.628,0.4441 2.8633,0.3726 3.5407,-0.1025 0.3562,-0.2498 0.7809,-0.9048 1.1007,-1.0616 0.2823,-0.1382 0.5422,0.0525 0.7445,0.2303"/>
    <path id="_188342920_13" class="fil1 str0" d="M145.487 39.1117c0.1337,0.1646 0.7377,0.695 0.9401,0.8583 0.9121,0.7359 2.8646,0.8126 3.7919,0.1102 1.0466,-0.7927 1.4605,-1.0416 2.0841,-0.6176 0.4524,0.3076 0.5246,0.8081 1.5913,1.1789 0.883,0.3069 1.8015,0.3067 2.6823,-0.1945 0.9487,-0.5398 1.597,-1.7622 2.5098,-0.6958 0.6044,0.7061 1.3082,0.9888 2.2894,0.9945 1.0937,0.0063 1.4776,0.0934 2.3263,-0.6501 1.5818,-1.3855 1.5999,-0.1812 2.6293,0.3881 0.628,0.4441 2.8633,0.3726 3.5407,-0.1025 0.3562,-0.2498 0.7809,-0.9048 1.1007,-1.0615 0.2823,-0.1383 0.5422,0.0524 0.7445,0.2302"/>
    <path id="_346960864_14" class="fil1 str0" d="M171.561 39.4648c0.1337,0.1646 0.7377,0.6951 0.9401,0.8583 0.9121,0.7359 2.8645,0.8126 3.7918,0.1103 1.0466,-0.7928 1.4605,-1.0417 2.0841,-0.6177 0.4524,0.3076 0.5246,0.8081 1.5913,1.1789 0.883,0.3069 2.2363,0.1083 3.1171,-0.3928"/>
   </g>
   <g id="_197246488">
    <path id="_188344768_15" class="fil1 str0" d="M63.6185 33.7047c0.1337,0.1645 0.7377,0.695 0.9401,0.8582 0.9121,0.736 2.8646,0.8126 3.7919,0.1103 1.0466,-0.7928 1.4605,-1.0416 2.0841,-0.6176 0.4524,0.3075 0.5246,0.8081 1.5913,1.1789 0.883,0.3069 1.8015,0.3066 2.6823,-0.1945 0.9487,-0.5398 1.597,-1.7623 2.5098,-0.6958 0.6044,0.7061 1.3082,0.9888 2.2894,0.9944 1.0937,0.0064 1.4776,0.0934 2.3263,-0.6501 1.5818,-1.3854 1.5999,-0.1811 2.6293,0.3882 0.628,0.444 2.8633,0.3725 3.5407,-0.1025 0.3562,-0.2498 0.7809,-0.9048 1.1007,-1.0616 0.2823,-0.1382 0.5422,0.0525 0.7445,0.2302"/>
    <path id="_188343352_16" class="fil1 str0" d="M89.6924 34.0578c0.1337,0.1645 0.7377,0.695 0.9401,0.8582 0.9121,0.736 2.8646,0.8126 3.7919,0.1103 1.0466,-0.7928 1.4605,-1.0416 2.0841,-0.6176 0.4524,0.3075 0.5246,0.8081 1.5912,1.1789 0.883,0.3069 1.8015,0.3066 2.6823,-0.1945 0.9487,-0.5398 1.597,-1.7622 2.5098,-0.6958 0.6044,0.7061 1.3082,0.9888 2.2894,0.9944 1.0937,0.0064 1.4776,0.0934 2.3263,-0.6501 1.5818,-1.3854 1.5999,-0.1811 2.6293,0.3882 0.628,0.444 2.8633,0.3726 3.5407,-0.1025 0.3562,-0.2498 0.7809,-0.9048 1.1007,-1.0616 0.2823,-0.1382 0.5422,0.0525 0.7445,0.2302"/>
    <path id="_346964440_17" class="fil1 str0" d="M115.766 34.4109c0.1337,0.1645 0.7377,0.695 0.9401,0.8582 0.9121,0.736 2.8646,0.8127 3.7919,0.1103 1.0466,-0.7928 1.4605,-1.0416 2.0841,-0.6176 0.4524,0.3076 0.5246,0.8081 1.5913,1.1789 0.883,0.3069 1.8015,0.3066 2.6823,-0.1945 0.9487,-0.5398 1.597,-1.7622 2.5098,-0.6958 0.6044,0.7061 1.3082,0.9888 2.2894,0.9944 1.0937,0.0064 1.4776,0.0934 2.3263,-0.65 1.5818,-1.3855 1.5999,-0.1812 2.6293,0.3881 0.628,0.444 2.8633,0.3726 3.5407,-0.1025 0.3562,-0.2498 0.7809,-0.9048 1.1007,-1.0616 0.2823,-0.1382 0.5422,0.0525 0.7445,0.2302"/>
    <path id="_188342920_18" class="fil1 str0" d="M141.84 34.764c0.1337,0.1645 0.7377,0.695 0.9401,0.8583 0.9121,0.7359 2.8646,0.8126 3.7919,0.1102 1.0466,-0.7928 1.4605,-1.0416 2.0841,-0.6176 0.4524,0.3076 0.5246,0.8081 1.5913,1.1789 0.883,0.3069 1.8015,0.3066 2.6823,-0.1945 0.9487,-0.5398 1.597,-1.7622 2.5098,-0.6958 0.6044,0.7061 1.3082,0.9888 2.2894,0.9944 1.0937,0.0064 1.4776,0.0935 2.3263,-0.65 1.5818,-1.3855 1.5999,-0.1812 2.6293,0.3881 0.628,0.444 2.8633,0.3726 3.5407,-0.1025 0.3562,-0.2498 0.7809,-0.9048 1.1007,-1.0616 0.2823,-0.1382 0.5422,0.0525 0.7445,0.2303"/>
    <path id="_346960864_19" class="fil1 str0" d="M167.914 35.1171c0.1337,0.1646 0.7377,0.695 0.9401,0.8583 0.9121,0.7359 2.8645,0.8126 3.7918,0.1102 1.0466,-0.7927 1.4605,-1.0416 2.0841,-0.6176 0.4524,0.3076 0.5246,0.8081 1.5913,1.1789 0.883,0.3069 2.2363,0.1083 3.1171,-0.3928"/>
   </g>
   <g id="_197264848">
    <path id="_188344768_20" class="fil1 str0" d="M59.9716 29.357c0.1337,0.1645 0.7377,0.695 0.9401,0.8582 0.9121,0.736 2.8646,0.8126 3.7919,0.1103 1.0466,-0.7928 1.4605,-1.0417 2.0841,-0.6177 0.4524,0.3076 0.5246,0.8082 1.5913,1.179 0.883,0.3068 1.8015,0.3066 2.6823,-0.1945 0.9487,-0.5398 1.597,-1.7623 2.5098,-0.6959 0.6044,0.7061 1.3082,0.9888 2.2894,0.9945 1.0937,0.0064 1.4776,0.0934 2.3263,-0.6501 1.5818,-1.3854 1.5999,-0.1811 2.6293,0.3882 0.628,0.444 2.8633,0.3725 3.5407,-0.1025 0.3562,-0.2498 0.7809,-0.9049 1.1007,-1.0616 0.2823,-0.1382 0.5422,0.0525 0.7445,0.2302"/>
    <path id="_188343352_21" class="fil1 str0" d="M86.0455 29.7101c0.1337,0.1645 0.7377,0.695 0.9401,0.8582 0.9121,0.736 2.8646,0.8126 3.7919,0.1103 1.0466,-0.7928 1.4605,-1.0416 2.0841,-0.6177 0.4524,0.3076 0.5246,0.8082 1.5912,1.179 0.883,0.3068 1.8015,0.3066 2.6823,-0.1945 0.9487,-0.5398 1.597,-1.7623 2.5098,-0.6959 0.6044,0.7061 1.3082,0.9888 2.2894,0.9945 1.0937,0.0064 1.4776,0.0934 2.3263,-0.6501 1.5818,-1.3854 1.5999,-0.1811 2.6293,0.3882 0.628,0.444 2.8633,0.3725 3.5407,-0.1025 0.3562,-0.2498 0.7809,-0.9049 1.1007,-1.0616 0.2823,-0.1382 0.5422,0.0525 0.7445,0.2302"/>
    <path id="_346964440_22" class="fil1 str0" d="M112.119 30.0632c0.1337,0.1645 0.7377,0.695 0.9401,0.8582 0.9121,0.736 2.8646,0.8126 3.7919,0.1103 1.0466,-0.7928 1.4605,-1.0416 2.0841,-0.6176 0.4524,0.3075 0.5246,0.8081 1.5913,1.1789 0.883,0.3069 1.8015,0.3066 2.6823,-0.1945 0.9487,-0.5398 1.597,-1.7623 2.5098,-0.6958 0.6044,0.7061 1.3082,0.9888 2.2894,0.9944 1.0937,0.0064 1.4776,0.0934 2.3263,-0.6501 1.5818,-1.3854 1.5999,-0.1811 2.6293,0.3882 0.628,0.444 2.8633,0.3725 3.5407,-0.1025 0.3562,-0.2498 0.7809,-0.9048 1.1007,-1.0616 0.2823,-0.1382 0.5422,0.0525 0.7445,0.2302"/>
    <path id="_188342920_23" class="fil1 str0" d="M138.193 30.4163c0.1337,0.1645 0.7377,0.695 0.9401,0.8582 0.9121,0.736 2.8646,0.8126 3.7919,0.1103 1.0466,-0.7928 1.4605,-1.0416 2.0841,-0.6176 0.4524,0.3076 0.5246,0.8081 1.5913,1.1789 0.883,0.3069 1.8015,0.3066 2.6823,-0.1945 0.9487,-0.5398 1.597,-1.7622 2.5098,-0.6958 0.6044,0.7061 1.3082,0.9888 2.2894,0.9944 1.0937,0.0064 1.4776,0.0934 2.3263,-0.6501 1.5818,-1.3854 1.5999,-0.1811 2.6293,0.3882 0.628,0.444 2.8633,0.3726 3.5407,-0.1025 0.3562,-0.2498 0.7809,-0.9048 1.1007,-1.0616 0.2823,-0.1382 0.5422,0.0525 0.7445,0.2302"/>
    <path id="_346960864_24" class="fil1 str0" d="M164.267 30.7694c0.1337,0.1645 0.7377,0.695 0.9401,0.8583 0.9121,0.7359 2.8645,0.8126 3.7918,0.1102 1.0466,-0.7928 1.4605,-1.0416 2.0841,-0.6176 0.4524,0.3076 0.5246,0.8081 1.5913,1.1789 0.883,0.3069 2.2363,0.1083 3.1171,-0.3929"/>
   </g>
   <g id="_197251480">
    <path id="_188344768_25" class="fil1 str0" d="M56.6442 25.2813c0.1337,0.1646 0.7377,0.6951 0.9401,0.8583 0.9121,0.7359 2.8646,0.8126 3.7919,0.1103 1.0466,-0.7928 1.4605,-1.0417 2.0841,-0.6177 0.4524,0.3076 0.5246,0.8081 1.5913,1.1789 0.883,0.3069 1.8015,0.3067 2.6823,-0.1945 0.9487,-0.5398 1.597,-1.7622 2.5098,-0.6958 0.6044,0.7061 1.3082,0.9888 2.2894,0.9945 1.0937,0.0063 1.4776,0.0934 2.3263,-0.6501 1.5818,-1.3854 1.5999,-0.1812 2.6293,0.3881 0.628,0.4441 2.8633,0.3726 3.5407,-0.1025 0.3562,-0.2498 0.7809,-0.9048 1.1007,-1.0615 0.2823,-0.1383 0.5422,0.0524 0.7445,0.2302"/>
    <path id="_188343352_26" class="fil1 str0" d="M82.7181 25.6344c0.1337,0.1646 0.7377,0.6951 0.9401,0.8583 0.9121,0.7359 2.8646,0.8126 3.7919,0.1103 1.0466,-0.7928 1.4605,-1.0417 2.0841,-0.6177 0.4524,0.3076 0.5246,0.8081 1.5912,1.1789 0.883,0.3069 1.8015,0.3067 2.6823,-0.1944 0.9487,-0.5399 1.597,-1.7623 2.5098,-0.6959 0.6044,0.7061 1.3082,0.9888 2.2894,0.9945 1.0937,0.0063 1.4776,0.0934 2.3263,-0.6501 1.5818,-1.3854 1.5999,-0.1812 2.6293,0.3881 0.628,0.4441 2.8633,0.3726 3.5407,-0.1025 0.3562,-0.2498 0.7809,-0.9048 1.1007,-1.0615 0.2823,-0.1383 0.5422,0.0525 0.7445,0.2302"/>
    <path id="_346964440_27" class="fil1 str0" d="M108.792 25.9876c0.1337,0.1645 0.7377,0.695 0.9401,0.8582 0.9121,0.7359 2.8646,0.8126 3.7919,0.1103 1.0466,-0.7928 1.4605,-1.0417 2.0841,-0.6177 0.4524,0.3076 0.5246,0.8081 1.5913,1.1789 0.883,0.3069 1.8015,0.3067 2.6823,-0.1944 0.9487,-0.5398 1.597,-1.7623 2.5098,-0.6959 0.6044,0.7061 1.3082,0.9888 2.2894,0.9945 1.0937,0.0064 1.4776,0.0934 2.3263,-0.6501 1.5818,-1.3854 1.5999,-0.1811 2.6293,0.3881 0.628,0.4441 2.8633,0.3726 3.5407,-0.1024 0.3562,-0.2498 0.7809,-0.9049 1.1007,-1.0616 0.2823,-0.1382 0.5422,0.0525 0.7445,0.2302"/>
    <path id="_188342920_28" class="fil1 str0" d="M134.866 26.3407c0.1337,0.1645 0.7377,0.695 0.9401,0.8582 0.9121,0.736 2.8646,0.8126 3.7919,0.1103 1.0466,-0.7928 1.4605,-1.0417 2.0841,-0.6177 0.4524,0.3076 0.5246,0.8082 1.5913,1.179 0.883,0.3068 1.8015,0.3066 2.6823,-0.1945 0.9487,-0.5398 1.597,-1.7623 2.5098,-0.6959 0.6044,0.7061 1.3082,0.9888 2.2894,0.9945 1.0937,0.0064 1.4776,0.0934 2.3263,-0.6501 1.5818,-1.3854 1.5999,-0.1811 2.6293,0.3882 0.628,0.444 2.8633,0.3725 3.5407,-0.1025 0.3562,-0.2498 0.7809,-0.9049 1.1007,-1.0616 0.2823,-0.1382 0.5422,0.0525 0.7445,0.2302"/>
    <path id="_346960864_29" class="fil1 str0" d="M160.94 26.6938c0.1337,0.1645 0.7377,0.695 0.9401,0.8582 0.9121,0.736 2.8645,0.8126 3.7918,0.1103 1.0466,-0.7928 1.4605,-1.0416 2.0841,-0.6177 0.4524,0.3076 0.5246,0.8082 1.5913,1.179 0.883,0.3068 2.2363,0.1082 3.1171,-0.3929"/>
   </g>
   <g id="_194940408">
    <path id="_188344768_30" class="fil1 str0" d="M52.8187 20.7119c0.1337,0.1645 0.7377,0.695 0.9401,0.8582 0.9121,0.736 2.8646,0.8126 3.7919,0.1103 1.0466,-0.7928 1.4605,-1.0416 2.0841,-0.6176 0.4524,0.3075 0.5246,0.8081 1.5913,1.1789 0.883,0.3069 1.8015,0.3066 2.6823,-0.1945 0.9487,-0.5398 1.597,-1.7622 2.5098,-0.6958 0.6044,0.7061 1.3082,0.9888 2.2894,0.9944 1.0937,0.0064 1.4776,0.0934 2.3263,-0.6501 1.5818,-1.3854 1.5999,-0.1811 2.6293,0.3882 0.628,0.444 2.8633,0.3726 3.5407,-0.1025 0.3562,-0.2498 0.7809,-0.9048 1.1007,-1.0616 0.2823,-0.1382 0.5422,0.0525 0.7445,0.2302"/>
    <path id="_188343352_31" class="fil1 str0" d="M78.8926 21.065c0.1337,0.1645 0.7377,0.695 0.9401,0.8582 0.9121,0.736 2.8646,0.8126 3.7919,0.1103 1.0466,-0.7928 1.4605,-1.0416 2.0841,-0.6176 0.4524,0.3076 0.5246,0.8081 1.5912,1.1789 0.883,0.3069 1.8015,0.3066 2.6823,-0.1945 0.9487,-0.5398 1.597,-1.7622 2.5098,-0.6958 0.6044,0.7061 1.3082,0.9888 2.2894,0.9944 1.0937,0.0064 1.4776,0.0934 2.3263,-0.65 1.5818,-1.3855 1.5999,-0.1812 2.6293,0.3881 0.628,0.444 2.8633,0.3726 3.5407,-0.1025 0.3562,-0.2498 0.7809,-0.9048 1.1007,-1.0616 0.2823,-0.1382 0.5422,0.0525 0.7445,0.2302"/>
    <path id="_346964440_32" class="fil1 str0" d="M104.967 21.4181c0.1337,0.1645 0.7377,0.695 0.9401,0.8583 0.9121,0.7359 2.8646,0.8126 3.7919,0.1102 1.0466,-0.7928 1.4605,-1.0416 2.0841,-0.6176 0.4524,0.3076 0.5246,0.8081 1.5913,1.1789 0.883,0.3069 1.8015,0.3066 2.6823,-0.1945 0.9487,-0.5398 1.597,-1.7622 2.5098,-0.6958 0.6044,0.7061 1.3082,0.9888 2.2894,0.9944 1.0937,0.0064 1.4776,0.0935 2.3263,-0.65 1.5818,-1.3855 1.5999,-0.1812 2.6293,0.3881 0.628,0.444 2.8633,0.3726 3.5407,-0.1025 0.3562,-0.2498 0.7809,-0.9048 1.1007,-1.0616 0.2823,-0.1382 0.5422,0.0525 0.7445,0.2303"/>
    <path id="_188342920_33" class="fil1 str0" d="M131.041 21.7712c0.1337,0.1645 0.7377,0.695 0.9401,0.8583 0.9121,0.7359 2.8646,0.8126 3.7919,0.1102 1.0466,-0.7927 1.4605,-1.0416 2.0841,-0.6176 0.4524,0.3076 0.5246,0.8081 1.5913,1.1789 0.883,0.3069 1.8015,0.3067 2.6823,-0.1945 0.9487,-0.5398 1.597,-1.7622 2.5098,-0.6958 0.6044,0.7061 1.3082,0.9888 2.2894,0.9945 1.0937,0.0063 1.4776,0.0934 2.3263,-0.6501 1.5818,-1.3855 1.5999,-0.1812 2.6293,0.3881 0.628,0.4441 2.8633,0.3726 3.5407,-0.1025 0.3562,-0.2498 0.7809,-0.9048 1.1007,-1.0615 0.2823,-0.1383 0.5422,0.0524 0.7445,0.2302"/>
    <path id="_346960864_34" class="fil1 str0" d="M157.114 22.1243c0.1337,0.1646 0.7377,0.6951 0.9401,0.8583 0.9121,0.7359 2.8645,0.8126 3.7918,0.1103 1.0466,-0.7928 1.4605,-1.0417 2.0841,-0.6177 0.4524,0.3076 0.5246,0.8081 1.5913,1.1789 0.883,0.3069 2.2363,0.1083 3.1171,-0.3928"/>
   </g>
   <g id="_197256904">
    <path id="_188344768_35" class="fil1 str0" d="M49.2454 16.3491c0.1337,0.1645 0.7377,0.695 0.9401,0.8582 0.9121,0.736 2.8646,0.8126 3.7919,0.1103 1.0466,-0.7928 1.4605,-1.0416 2.0841,-0.6177 0.4524,0.3076 0.5246,0.8082 1.5913,1.179 0.883,0.3068 1.8015,0.3066 2.6823,-0.1945 0.9487,-0.5398 1.597,-1.7623 2.5098,-0.6959 0.6044,0.7061 1.3082,0.9888 2.2894,0.9945 1.0937,0.0064 1.4776,0.0934 2.3263,-0.6501 1.5818,-1.3854 1.5999,-0.1811 2.6293,0.3882 0.628,0.444 2.8633,0.3725 3.5407,-0.1025 0.3562,-0.2498 0.7809,-0.9049 1.1007,-1.0616 0.2823,-0.1382 0.5422,0.0525 0.7445,0.2302"/>
    <path id="_188343352_36" class="fil1 str0" d="M75.3193 16.7022c0.1337,0.1645 0.7377,0.695 0.9401,0.8582 0.9121,0.736 2.8646,0.8126 3.7919,0.1103 1.0466,-0.7928 1.4605,-1.0416 2.0841,-0.6176 0.4524,0.3075 0.5246,0.8081 1.5912,1.1789 0.883,0.3069 1.8015,0.3066 2.6823,-0.1945 0.9487,-0.5398 1.597,-1.7623 2.5098,-0.6958 0.6044,0.7061 1.3082,0.9888 2.2894,0.9944 1.0937,0.0064 1.4776,0.0934 2.3263,-0.6501 1.5818,-1.3854 1.5999,-0.1811 2.6293,0.3882 0.628,0.444 2.8633,0.3725 3.5407,-0.1025 0.3562,-0.2498 0.7809,-0.9048 1.1007,-1.0616 0.2823,-0.1382 0.5422,0.0525 0.7445,0.2302"/>
    <path id="_346964440_37" class="fil1 str0" d="M101.393 17.0553c0.1337,0.1645 0.7377,0.695 0.9401,0.8582 0.9121,0.736 2.8646,0.8126 3.7919,0.1103 1.0466,-0.7928 1.4605,-1.0416 2.0841,-0.6176 0.4524,0.3076 0.5246,0.8081 1.5913,1.1789 0.883,0.3069 1.8015,0.3066 2.6823,-0.1945 0.9487,-0.5398 1.597,-1.7622 2.5098,-0.6958 0.6044,0.7061 1.3082,0.9888 2.2894,0.9944 1.0937,0.0064 1.4776,0.0934 2.3263,-0.65 1.5818,-1.3855 1.5999,-0.1812 2.6293,0.3881 0.628,0.444 2.8633,0.3726 3.5407,-0.1025 0.3562,-0.2498 0.7809,-0.9048 1.1007,-1.0616 0.2823,-0.1382 0.5422,0.0525 0.7445,0.2302"/>
    <path id="_188342920_38" class="fil1 str0" d="M127.467 17.4084c0.1337,0.1645 0.7377,0.695 0.9401,0.8583 0.9121,0.7359 2.8646,0.8126 3.7919,0.1102 1.0466,-0.7928 1.4605,-1.0416 2.0841,-0.6176 0.4524,0.3076 0.5246,0.8081 1.5913,1.1789 0.883,0.3069 1.8015,0.3066 2.6823,-0.1945 0.9487,-0.5398 1.597,-1.7622 2.5098,-0.6958 0.6044,0.7061 1.3082,0.9888 2.2894,0.9944 1.0937,0.0064 1.4776,0.0935 2.3263,-0.65 1.5818,-1.3855 1.5999,-0.1812 2.6293,0.3881 0.628,0.444 2.8633,0.3726 3.5407,-0.1025 0.3562,-0.2498 0.7809,-0.9048 1.1007,-1.0616 0.2823,-0.1382 0.5422,0.0525 0.7445,0.2303"/>
    <path id="_346960864_39" class="fil1 str0" d="M153.541 17.7615c0.1337,0.1645 0.7377,0.695 0.9401,0.8583 0.9121,0.7359 2.8645,0.8126 3.7918,0.1102 1.0466,-0.7927 1.4605,-1.0416 2.0841,-0.6176 0.4524,0.3076 0.5246,0.8081 1.5913,1.1789 0.883,0.3069 2.2363,0.1083 3.1171,-0.3928"/>
   </g>
   <g id="_197251696">
    <path id="_188344768_40" class="fil1 str0" d="M45.6925 12.0208c0.1337,0.1645 0.7377,0.695 0.9401,0.8583 0.9121,0.7359 2.8646,0.8126 3.7919,0.1102 1.0466,-0.7927 1.4605,-1.0416 2.0841,-0.6176 0.4524,0.3076 0.5246,0.8081 1.5913,1.1789 0.883,0.3069 1.8015,0.3067 2.6823,-0.1945 0.9487,-0.5398 1.597,-1.7622 2.5098,-0.6958 0.6044,0.7061 1.3082,0.9888 2.2894,0.9945 1.0937,0.0063 1.4776,0.0934 2.3263,-0.6501 1.5818,-1.3855 1.5999,-0.1812 2.6293,0.3881 0.628,0.4441 2.8633,0.3726 3.5407,-0.1025 0.3562,-0.2498 0.7809,-0.9048 1.1007,-1.0616 0.2823,-0.1382 0.5422,0.0525 0.7445,0.2303"/>
    <path id="_188343352_41" class="fil1 str0" d="M71.7664 12.3739c0.1337,0.1646 0.7377,0.695 0.9401,0.8583 0.9121,0.7359 2.8646,0.8126 3.7919,0.1103 1.0466,-0.7928 1.4605,-1.0417 2.0841,-0.6177 0.4524,0.3076 0.5246,0.8081 1.5912,1.1789 0.883,0.3069 1.8015,0.3067 2.6823,-0.1945 0.9487,-0.5398 1.597,-1.7622 2.5098,-0.6958 0.6044,0.7061 1.3082,0.9888 2.2894,0.9945 1.0937,0.0063 1.4776,0.0934 2.3263,-0.6501 1.5818,-1.3855 1.5999,-0.1812 2.6293,0.3881 0.628,0.4441 2.8633,0.3726 3.5407,-0.1025 0.3562,-0.2498 0.7809,-0.9048 1.1007,-1.0615 0.2823,-0.1383 0.5422,0.0524 0.7445,0.2302"/>
    <path id="_346964440_42" class="fil1 str0" d="M97.8403 12.727c0.1337,0.1646 0.7377,0.6951 0.9401,0.8583 0.9121,0.7359 2.8646,0.8126 3.7919,0.1103 1.0466,-0.7928 1.4605,-1.0417 2.0841,-0.6177 0.4524,0.3076 0.5246,0.8081 1.5913,1.1789 0.883,0.3069 1.8015,0.3067 2.6823,-0.1944 0.9487,-0.5399 1.597,-1.7623 2.5098,-0.6959 0.6044,0.7061 1.3082,0.9888 2.2894,0.9945 1.0937,0.0063 1.4776,0.0934 2.3263,-0.6501 1.5818,-1.3854 1.5999,-0.1812 2.6293,0.3881 0.628,0.4441 2.8633,0.3726 3.5407,-0.1025 0.3562,-0.2498 0.7809,-0.9048 1.1007,-1.0615 0.2823,-0.1383 0.5422,0.0525 0.7445,0.2302"/>
    <path id="_188342920_43" class="fil1 str0" d="M123.914 13.0802c0.1337,0.1645 0.7377,0.695 0.9401,0.8582 0.9121,0.7359 2.8646,0.8126 3.7919,0.1103 1.0466,-0.7928 1.4605,-1.0417 2.0841,-0.6177 0.4524,0.3076 0.5246,0.8081 1.5913,1.1789 0.883,0.3069 1.8015,0.3067 2.6823,-0.1944 0.9487,-0.5398 1.597,-1.7623 2.5098,-0.6959 0.6044,0.7061 1.3082,0.9888 2.2894,0.9945 1.0937,0.0064 1.4776,0.0934 2.3263,-0.6501 1.5818,-1.3854 1.5999,-0.1812 2.6293,0.3881 0.628,0.4441 2.8633,0.3726 3.5407,-0.1024 0.3562,-0.2498 0.7809,-0.9049 1.1007,-1.0616 0.2823,-0.1382 0.5422,0.0525 0.7445,0.2302"/>
    <path id="_346960864_44" class="fil1 str0" d="M149.988 13.4333c0.1337,0.1645 0.7377,0.695 0.9401,0.8582 0.9121,0.736 2.8645,0.8126 3.7918,0.1103 1.0466,-0.7928 1.4605,-1.0417 2.0841,-0.6177 0.4524,0.3076 0.5246,0.8082 1.5913,1.179 0.883,0.3068 2.2363,0.1082 3.1171,-0.3929"/>
   </g>
  </g>
 </g>
</svg>
