<?xml version="1.0" encoding="UTF-8"?>
<!DOCTYPE svg PUBLIC "-//W3C//DTD SVG 1.1//EN" "http://www.w3.org/Graphics/SVG/1.1/DTD/svg11.dtd">
<!-- Creator: CorelDRAW -->
<svg xmlns="http://www.w3.org/2000/svg" xml:space="preserve" width="210mm" height="297mm" style="shape-rendering:geometricPrecision; text-rendering:geometricPrecision; image-rendering:optimizeQuality; fill-rule:evenodd; clip-rule:evenodd"
viewBox="0 0 210 297"
 xmlns:xlink="http://www.w3.org/1999/xlink">
 <defs>
  <style type="text/css">
   <![CDATA[
    .str2 {stroke:#333333;stroke-width:0.25}
    .str1 {stroke:#2B2A29;stroke-width:0.5}
    .str0 {stroke:#333333;stroke-width:0.5}
    .fil1 {fill:none}
    .fil0 {fill:#9E312B}
   ]]>
  </style>
 </defs>
 <g id="Слой_x0020_1">
  <metadata id="CorelCorpID_0Corel-Layer"/>
  <polygon class="fil0 str0" points="42.6032,16.1328 158.669,16.7889 196.412,56.6264 81.8656,55.6606 "/>
  <polygon class="fil0 str1" points="4.327,53.0198 42.696,16.0377 46.5858,20.0223 12.1856,53.4821 "/>
  <line class="fil1 str1" x1="17.1032" y1="48.6998" x2="16.3464" y2= "88.6145" />
  <line class="fil1 str1" x1="93.0986" y1="55.7554" x2="93.5462" y2= "89.5391" />
  <line class="fil1 str1" x1="188.775" y1="56.562" x2="188.774" y2= "89.8903" />
  <line class="fil1 str1" x1="3.4024" y1="88.6145" x2="204.954" y2= "90.0014" />
  <g id="_197247856">
   <path id="_197247352" class="fil1 str2" d="M78.4504 51.4891c1.6761,-0.8653 2.0949,-0.9431 2.4207,-0.9762 0.1389,-0.0141 0.5696,0.0123 0.8659,0.2061 0.3984,0.2607 0.8521,1.0196 0.8521,1.0196 0.9906,-0.5126 2.4261,-1.3966 3.245,-1.1649 0.2624,0.0743 0.3476,0.1928 0.501,0.368l0.6181 0.7101c0.419,-0.2075 0.847,-0.4985 1.266,-0.706 0.3973,-0.2334 0.6997,-0.3763 1.1549,-0.422 0.2936,-0.0019 0.5294,0.0186 0.7169,0.2351 0.2094,0.2405 0.4271,0.5462 0.664,0.9215 0.2392,-0.1227 0.5334,-0.311 0.7727,-0.4338 0.3859,-0.2099 0.7606,-0.4246 1.2023,-0.5276 0.2807,-0.0556 0.5763,-0.0811 0.7669,0.0357 0.3146,0.1515 0.8038,0.6271 1.0472,0.9326"/>
   <path id="_197248648" class="fil1 str2" d="M94.43 51.6801c1.6762,-0.8653 2.0949,-0.9431 2.4207,-0.9761 0.139,-0.0142 0.5696,0.0122 0.8659,0.206 0.3984,0.2607 0.8521,1.0197 0.8521,1.0197 0.9906,-0.5127 2.4261,-1.3967 3.245,-1.165 0.2624,0.0743 0.3476,0.1928 0.501,0.368l0.6181 0.7101c0.419,-0.2075 0.847,-0.4985 1.266,-0.7059 0.3973,-0.2334 0.6997,-0.3764 1.1549,-0.4221 0.2937,-0.0019 0.5294,0.0186 0.7169,0.2351 0.2094,0.2405 0.4271,0.5462 0.664,0.9215 0.2392,-0.1226 0.5334,-0.311 0.7728,-0.4338 0.3859,-0.2099 0.7605,-0.4245 1.2022,-0.5276 0.2807,-0.0556 0.5763,-0.0811 0.7669,0.0358 0.3146,0.1514 0.8038,0.627 1.0472,0.9325"/>
   <path id="_197247448" class="fil1 str2" d="M110.318 51.9386c1.6761,-0.8653 2.0949,-0.9432 2.4207,-0.9762 0.1389,-0.0141 0.5696,0.0123 0.8658,0.2061 0.3984,0.2607 0.8522,1.0196 0.8522,1.0196 0.9906,-0.5126 2.4261,-1.3966 3.245,-1.1649 0.2624,0.0743 0.3476,0.1928 0.501,0.3679l0.6181 0.7101c0.4189,-0.2075 0.847,-0.4984 1.266,-0.7059 0.3973,-0.2334 0.6997,-0.3763 1.1549,-0.422 0.2936,-0.0019 0.5294,0.0186 0.7169,0.235 0.2093,0.2406 0.4271,0.5462 0.6639,0.9216 0.2393,-0.1227 0.5335,-0.3111 0.7728,-0.4338 0.3859,-0.21 0.7606,-0.4246 1.2023,-0.5276 0.2807,-0.0557 0.5763,-0.0812 0.7669,0.0357 0.3146,0.1514 0.8038,0.627 1.0472,0.9325"/>
   <path id="_197250208" class="fil1 str2" d="M126.205 52.197c1.6762,-0.8653 2.0949,-0.9431 2.4207,-0.9761 0.139,-0.0142 0.5696,0.0122 0.8659,0.206 0.3984,0.2607 0.8521,1.0197 0.8521,1.0197 0.9906,-0.5127 2.4261,-1.3967 3.245,-1.165 0.2624,0.0743 0.3476,0.1928 0.501,0.368l0.6181 0.7101c0.419,-0.2075 0.847,-0.4985 1.266,-0.7059 0.3973,-0.2334 0.6997,-0.3764 1.1549,-0.4221 0.2937,-0.0019 0.5294,0.0186 0.7169,0.2351 0.2094,0.2405 0.4271,0.5462 0.664,0.9215 0.2392,-0.1226 0.5334,-0.311 0.7728,-0.4338 0.3859,-0.2099 0.7605,-0.4245 1.2022,-0.5276 0.2807,-0.0556 0.5763,-0.0811 0.7669,0.0358 0.3146,0.1514 0.8038,0.627 1.0472,0.9325"/>
   <path id="_197256568" class="fil1 str2" d="M142.094 52.4555c1.6762,-0.8654 2.0949,-0.9432 2.4207,-0.9762 0.139,-0.0141 0.5696,0.0123 0.8659,0.2061 0.3984,0.2607 0.8521,1.0196 0.8521,1.0196 0.9906,-0.5126 2.4261,-1.3966 3.245,-1.1649 0.2624,0.0743 0.3476,0.1928 0.501,0.3679l0.6181 0.7101c0.419,-0.2075 0.8471,-0.4984 1.2661,-0.7059 0.3972,-0.2334 0.6996,-0.3763 1.1548,-0.422 0.2937,-0.0019 0.5294,0.0186 0.7169,0.235 0.2094,0.2406 0.4272,0.5462 0.664,0.9216 0.2392,-0.1227 0.5335,-0.3111 0.7728,-0.4338 0.3859,-0.21 0.7605,-0.4246 1.2022,-0.5276 0.2807,-0.0557 0.5763,-0.0812 0.7669,0.0357 0.3146,0.1514 0.8038,0.627 1.0472,0.9325"/>
   <path id="_197256688" class="fil1 str2" d="M157.981 52.7139c1.6761,-0.8653 2.0948,-0.9431 2.4206,-0.9761 0.139,-0.0142 0.5696,0.0122 0.8659,0.206 0.3984,0.2607 0.8521,1.0197 0.8521,1.0197 0.9907,-0.5127 2.4262,-1.3967 3.2451,-1.165 0.2623,0.0743 0.3475,0.1928 0.501,0.368l0.618 0.7101c0.419,-0.2075 0.8471,-0.4985 1.2661,-0.706 0.3972,-0.2333 0.6996,-0.3763 1.1549,-0.422 0.2936,-0.0019 0.5294,0.0186 0.7169,0.2351 0.2093,0.2405 0.4271,0.5462 0.6639,0.9215 0.2392,-0.1227 0.5335,-0.311 0.7728,-0.4338 0.3859,-0.2099 0.7605,-0.4246 1.2022,-0.5276 0.2807,-0.0556 0.5764,-0.0811 0.7669,0.0358 0.3147,0.1514 0.8038,0.627 1.0472,0.9325"/>
   <path id="_197252128" class="fil1 str2" d="M173.869 52.9724c1.6761,-0.8654 2.0948,-0.9432 2.4206,-0.9762 0.139,-0.0141 0.5696,0.0123 0.8659,0.2061 0.3984,0.2607 0.8521,1.0196 0.8521,1.0196 0.9907,-0.5126 2.4262,-1.3966 3.2451,-1.1649 0.2623,0.0743 0.3475,0.1928 0.501,0.3679l0.618 0.7101c0.419,-0.2075 0.8471,-0.4984 1.2661,-0.7059 0.3972,-0.2334 0.6996,-0.3763 1.1549,-0.422 0.2936,-0.0019 0.5294,0.0186 0.7169,0.235 0.2093,0.2406 0.4271,0.5462 0.6639,0.9216"/>
  </g>
  <g id="_197247856_0">
   <path id="_197247352_1" class="fil1 str2" d="M81.3364 54.6353c1.6761,-0.8653 2.0949,-0.9431 2.4207,-0.9762 0.1389,-0.0141 0.5696,0.0123 0.8659,0.2061 0.3984,0.2607 0.8521,1.0196 0.8521,1.0196 0.9906,-0.5126 2.4261,-1.3966 3.245,-1.1649 0.2624,0.0743 0.3476,0.1928 0.501,0.368l0.6181 0.7101c0.419,-0.2075 0.847,-0.4985 1.266,-0.706 0.3973,-0.2334 0.6997,-0.3763 1.1549,-0.422 0.2936,-0.0019 0.5294,0.0186 0.7169,0.2351 0.2094,0.2405 0.4271,0.5462 0.664,0.9215 0.2392,-0.1227 0.5334,-0.311 0.7727,-0.4338 0.3859,-0.2099 0.7606,-0.4246 1.2023,-0.5276 0.2807,-0.0556 0.5763,-0.0811 0.7669,0.0357 0.3146,0.1515 0.8038,0.6271 1.0472,0.9326"/>
   <path id="_197248648_2" class="fil1 str2" d="M97.316 54.8263c1.6762,-0.8653 2.0949,-0.9431 2.4207,-0.9761 0.139,-0.0142 0.5696,0.0122 0.8659,0.206 0.3984,0.2607 0.8521,1.0197 0.8521,1.0197 0.9906,-0.5127 2.4261,-1.3967 3.245,-1.165 0.2624,0.0743 0.3476,0.1928 0.501,0.368l0.6181 0.7101c0.419,-0.2075 0.847,-0.4985 1.266,-0.7059 0.3973,-0.2334 0.6997,-0.3764 1.1549,-0.4221 0.2937,-0.0019 0.5294,0.0186 0.7169,0.2351 0.2094,0.2405 0.4271,0.5462 0.664,0.9215 0.2392,-0.1226 0.5334,-0.311 0.7728,-0.4338 0.3859,-0.2099 0.7605,-0.4245 1.2022,-0.5276 0.2807,-0.0556 0.5763,-0.0811 0.7669,0.0358 0.3146,0.1514 0.8038,0.627 1.0472,0.9325"/>
   <path id="_197247448_3" class="fil1 str2" d="M113.204 55.0848c1.6761,-0.8653 2.0949,-0.9432 2.4207,-0.9762 0.1389,-0.0141 0.5696,0.0123 0.8658,0.2061 0.3984,0.2607 0.8522,1.0196 0.8522,1.0196 0.9906,-0.5126 2.4261,-1.3966 3.245,-1.1649 0.2624,0.0743 0.3476,0.1928 0.501,0.3679l0.6181 0.7101c0.4189,-0.2075 0.847,-0.4984 1.266,-0.7059 0.3973,-0.2334 0.6997,-0.3763 1.1549,-0.422 0.2936,-0.0019 0.5294,0.0186 0.7169,0.235 0.2093,0.2406 0.4271,0.5462 0.6639,0.9216 0.2393,-0.1227 0.5335,-0.3111 0.7728,-0.4338 0.3859,-0.21 0.7606,-0.4246 1.2023,-0.5276 0.2807,-0.0557 0.5763,-0.0812 0.7669,0.0357 0.3146,0.1514 0.8038,0.627 1.0472,0.9325"/>
   <path id="_197250208_4" class="fil1 str2" d="M129.091 55.3432c1.6762,-0.8653 2.0949,-0.9431 2.4207,-0.9761 0.139,-0.0142 0.5696,0.0122 0.8659,0.206 0.3984,0.2607 0.8521,1.0197 0.8521,1.0197 0.9906,-0.5127 2.4261,-1.3967 3.245,-1.165 0.2624,0.0743 0.3476,0.1928 0.501,0.368l0.6181 0.7101c0.419,-0.2075 0.847,-0.4985 1.266,-0.7059 0.3973,-0.2334 0.6997,-0.3764 1.1549,-0.4221 0.2937,-0.0019 0.5294,0.0186 0.7169,0.2351 0.2094,0.2405 0.4271,0.5462 0.664,0.9215 0.2392,-0.1226 0.5334,-0.311 0.7728,-0.4338 0.3859,-0.2099 0.7605,-0.4245 1.2022,-0.5276 0.2807,-0.0556 0.5763,-0.0811 0.7669,0.0358 0.3146,0.1514 0.8038,0.627 1.0472,0.9325"/>
   <path id="_197256568_5" class="fil1 str2" d="M144.98 55.6017c1.6762,-0.8654 2.0949,-0.9432 2.4207,-0.9762 0.139,-0.0141 0.5696,0.0123 0.8659,0.2061 0.3984,0.2607 0.8521,1.0196 0.8521,1.0196 0.9906,-0.5126 2.4261,-1.3966 3.245,-1.1649 0.2624,0.0743 0.3476,0.1928 0.501,0.3679l0.6181 0.7101c0.419,-0.2075 0.8471,-0.4984 1.2661,-0.7059 0.3972,-0.2334 0.6996,-0.3763 1.1548,-0.422 0.2937,-0.0019 0.5294,0.0186 0.7169,0.235 0.2094,0.2406 0.4272,0.5462 0.664,0.9216 0.2392,-0.1227 0.5335,-0.3111 0.7728,-0.4338 0.3859,-0.21 0.7605,-0.4246 1.2022,-0.5276 0.2807,-0.0557 0.5763,-0.0812 0.7669,0.0357 0.3146,0.1514 0.8038,0.627 1.0472,0.9325"/>
   <path id="_197256688_6" class="fil1 str2" d="M160.867 55.8601c1.6761,-0.8653 2.0948,-0.9431 2.4206,-0.9761 0.139,-0.0142 0.5696,0.0122 0.8659,0.206 0.3984,0.2607 0.8521,1.0197 0.8521,1.0197 0.9907,-0.5127 2.4262,-1.3967 3.2451,-1.165 0.2623,0.0743 0.3475,0.1928 0.501,0.368l0.618 0.7101c0.419,-0.2075 0.8471,-0.4985 1.2661,-0.706 0.3972,-0.2333 0.6996,-0.3763 1.1549,-0.422 0.2936,-0.0019 0.5294,0.0186 0.7169,0.2351 0.2093,0.2405 0.4271,0.5462 0.6639,0.9215 0.2392,-0.1227 0.5335,-0.311 0.7728,-0.4338 0.3859,-0.2099 0.7605,-0.4246 1.2022,-0.5276 0.2807,-0.0556 0.5764,-0.0811 0.7669,0.0358 0.3147,0.1514 0.8038,0.627 1.0472,0.9325"/>
   <path id="_197252128_7" class="fil1 str2" d="M176.755 56.1186c1.6761,-0.8654 2.0948,-0.9432 2.4206,-0.9762 0.139,-0.0141 0.5696,0.0123 0.8659,0.2061 0.3984,0.2607 0.8521,1.0196 0.8521,1.0196 0.9907,-0.5126 2.4262,-1.3966 3.2451,-1.1649 0.2623,0.0743 0.3475,0.1928 0.501,0.3679l0.618 0.7101c0.419,-0.2075 0.8471,-0.4984 1.2661,-0.7059 0.3972,-0.2334 0.6996,-0.3763 1.1549,-0.422 0.2936,-0.0019 0.5294,0.0186 0.7169,0.235 0.2093,0.2406 0.4271,0.5462 0.6639,0.9216"/>
  </g>
  <g id="_197248192">
   <path id="_197251240" class="fil1 str2" d="M74.6082 48.1676c1.6761,-0.8653 2.0949,-0.9432 2.4206,-0.9762 0.139,-0.0141 0.5697,0.0123 0.8659,0.2061 0.3984,0.2607 0.8522,1.0196 0.8522,1.0196 0.9906,-0.5126 2.4261,-1.3966 3.245,-1.1649 0.2624,0.0743 0.3476,0.1928 0.501,0.368l0.618 0.7101c0.419,-0.2075 0.8471,-0.4985 1.2661,-0.706 0.3973,-0.2334 0.6997,-0.3763 1.1549,-0.422 0.2936,-0.0019 0.5294,0.0186 0.7169,0.2351 0.2093,0.2405 0.4271,0.5461 0.6639,0.9215 0.2393,-0.1227 0.5335,-0.311 0.7728,-0.4338 0.3859,-0.21 0.7606,-0.4246 1.2023,-0.5276 0.2807,-0.0556 0.5763,-0.0811 0.7669,0.0357 0.3146,0.1515 0.8038,0.6271 1.0472,0.9325"/>
   <path id="_197248744" class="fil1 str2" d="M90.5878 48.3586c1.6761,-0.8653 2.0949,-0.9431 2.4207,-0.9762 0.1389,-0.0141 0.5696,0.0123 0.8659,0.2061 0.3984,0.2607 0.8521,1.0196 0.8521,1.0196 0.9906,-0.5126 2.4261,-1.3966 3.245,-1.1649 0.2624,0.0743 0.3476,0.1928 0.501,0.368l0.6181 0.7101c0.419,-0.2075 0.847,-0.4985 1.266,-0.706 0.3973,-0.2334 0.6997,-0.3763 1.1549,-0.422 0.2936,-0.0019 0.5294,0.0186 0.7169,0.2351 0.2094,0.2405 0.4271,0.5462 0.664,0.9215 0.2392,-0.1227 0.5334,-0.311 0.7727,-0.4338 0.3859,-0.21 0.7606,-0.4246 1.2023,-0.5276 0.2807,-0.0556 0.5763,-0.0811 0.7669,0.0357 0.3146,0.1515 0.8038,0.6271 1.0472,0.9326"/>
   <path id="_197247472" class="fil1 str2" d="M106.476 48.617c1.6761,-0.8653 2.0949,-0.9431 2.4206,-0.9761 0.139,-0.0141 0.5697,0.0123 0.8659,0.2061 0.3984,0.2606 0.8522,1.0196 0.8522,1.0196 0.9906,-0.5127 2.4261,-1.3967 3.245,-1.165 0.2624,0.0743 0.3476,0.1928 0.501,0.368l0.618 0.7101c0.419,-0.2075 0.8471,-0.4984 1.2661,-0.7059 0.3972,-0.2334 0.6997,-0.3763 1.1549,-0.4221 0.2936,-0.0018 0.5294,0.0186 0.7169,0.2351 0.2093,0.2406 0.4271,0.5462 0.6639,0.9216 0.2393,-0.1227 0.5335,-0.3111 0.7728,-0.4338 0.3859,-0.21 0.7606,-0.4246 1.2023,-0.5276 0.2806,-0.0557 0.5763,-0.0812 0.7669,0.0357 0.3146,0.1514 0.8038,0.627 1.0472,0.9325"/>
   <path id="_197249104" class="fil1 str2" d="M122.363 48.8755c1.6761,-0.8653 2.0949,-0.9432 2.4207,-0.9762 0.1389,-0.0141 0.5696,0.0123 0.8659,0.2061 0.3984,0.2607 0.8521,1.0196 0.8521,1.0196 0.9906,-0.5126 2.4261,-1.3966 3.245,-1.1649 0.2624,0.0743 0.3476,0.1928 0.501,0.368l0.6181 0.7101c0.419,-0.2075 0.847,-0.4985 1.266,-0.706 0.3973,-0.2334 0.6997,-0.3763 1.1549,-0.422 0.2936,-0.0019 0.5294,0.0186 0.7169,0.2351 0.2094,0.2405 0.4271,0.5462 0.664,0.9215 0.2392,-0.1227 0.5334,-0.311 0.7727,-0.4338 0.3859,-0.21 0.7606,-0.4246 1.2023,-0.5276 0.2807,-0.0556 0.5763,-0.0811 0.7669,0.0357 0.3146,0.1515 0.8038,0.6271 1.0472,0.9326"/>
   <path id="_194944632" class="fil1 str2" d="M138.251 49.1339c1.6762,-0.8653 2.0949,-0.9431 2.4207,-0.9761 0.139,-0.0141 0.5696,0.0123 0.8659,0.2061 0.3984,0.2606 0.8521,1.0196 0.8521,1.0196 0.9906,-0.5127 2.4261,-1.3967 3.245,-1.165 0.2624,0.0743 0.3476,0.1928 0.501,0.368l0.6181 0.7101c0.419,-0.2075 0.847,-0.4984 1.266,-0.7059 0.3973,-0.2334 0.6997,-0.3763 1.1549,-0.4221 0.2937,-0.0018 0.5294,0.0186 0.7169,0.2351 0.2094,0.2406 0.4271,0.5462 0.664,0.9216 0.2392,-0.1227 0.5334,-0.3111 0.7728,-0.4338 0.3859,-0.21 0.7605,-0.4246 1.2022,-0.5276 0.2807,-0.0557 0.5763,-0.0812 0.7669,0.0357 0.3146,0.1514 0.8038,0.627 1.0472,0.9325"/>
   <path id="_194950776" class="fil1 str2" d="M154.139 49.3924c1.6762,-0.8653 2.0949,-0.9432 2.4207,-0.9762 0.139,-0.0141 0.5696,0.0123 0.8659,0.2061 0.3984,0.2607 0.8521,1.0196 0.8521,1.0196 0.9906,-0.5126 2.4261,-1.3966 3.2451,-1.1649 0.2623,0.0743 0.3475,0.1928 0.501,0.368l0.618 0.7101c0.419,-0.2075 0.8471,-0.4985 1.2661,-0.706 0.3972,-0.2334 0.6996,-0.3763 1.1549,-0.422 0.2936,-0.0019 0.5293,0.0186 0.7168,0.2351 0.2094,0.2405 0.4272,0.5461 0.664,0.9215 0.2392,-0.1227 0.5335,-0.311 0.7728,-0.4338 0.3859,-0.21 0.7605,-0.4246 1.2022,-0.5276 0.2807,-0.0556 0.5764,-0.0811 0.7669,0.0357 0.3147,0.1515 0.8038,0.6271 1.0472,0.9326"/>
   <path id="_194951160" class="fil1 str2" d="M170.027 49.6508c1.6761,-0.8653 2.0948,-0.9431 2.4206,-0.9761 0.139,-0.0141 0.5696,0.0123 0.8659,0.2061 0.3984,0.2606 0.8521,1.0196 0.8521,1.0196 0.9907,-0.5127 2.4261,-1.3967 3.2451,-1.165 0.2623,0.0743 0.3475,0.1928 0.501,0.368l0.618 0.7101c0.419,-0.2075 0.8471,-0.4984 1.2661,-0.7059 0.3972,-0.2334 0.6996,-0.3764 1.1549,-0.4221 0.2936,-0.0018 0.5294,0.0186 0.7169,0.2351 0.2093,0.2406 0.4271,0.5462 0.6639,0.9216"/>
  </g>
  <path id="_197251240_8" class="fil1 str2" d="M158.748 26.0793c1.6761,-0.8653 2.0949,-0.9431 2.4208,-0.9761 0.139,-0.0141 0.5695,0.0123 0.8659,0.2061 0.3984,0.2606 0.852,1.0196 0.852,1.0196 0.9907,-0.5127 2.4262,-1.3966 3.245,-1.1649 0.2625,0.0743 0.3477,0.1927 0.5011,0.3679l0.618 0.7101c0.0916,-0.0454 0.1838,-0.0948 0.2761,-0.1464"/>
  <path id="_197251240_9" class="fil1 str2" d="M161.833 29.1963c1.6761,-0.8653 2.0949,-0.9431 2.4208,-0.9761 0.139,-0.0141 0.5695,0.0123 0.8659,0.2061 0.3984,0.2606 0.852,1.0196 0.852,1.0196 0.9907,-0.5127 2.4262,-1.3966 3.245,-1.1649 0.2625,0.0743 0.3477,0.1927 0.5011,0.3679l0.618 0.7101c0.0916,-0.0454 0.1838,-0.0948 0.2761,-0.1464"/>
  <path id="_197251240_10" class="fil1 str2" d="M165.121 32.5741c1.6761,-0.8653 2.0949,-0.9431 2.4208,-0.9761 0.139,-0.0141 0.5695,0.0123 0.8659,0.2061 0.3984,0.2606 0.852,1.0196 0.852,1.0196 0.9907,-0.5127 2.4262,-1.3966 3.245,-1.1649 0.2625,0.0743 0.3477,0.1927 0.5011,0.3679l0.618 0.7101c0.0916,-0.0454 0.1838,-0.0948 0.2761,-0.1464"/>
  <path id="_197251240_11" class="fil1 str2" d="M168.352 35.9321c1.6761,-0.8653 2.0949,-0.9431 2.4208,-0.9761 0.139,-0.0141 0.5695,0.0123 0.8659,0.2061 0.3984,0.2606 0.852,1.0196 0.852,1.0196 0.9907,-0.5127 2.4262,-1.3966 3.245,-1.1649 0.2625,0.0743 0.3477,0.1927 0.5011,0.3679l0.618 0.7101c0,0 0.085,-0.0404 0.1773,-0.092"/>
  <path id="_197251240_12" class="fil1 str2" d="M171.953 39.4776c1.6761,-0.8653 2.0949,-0.9431 2.4208,-0.9761 0.139,-0.0141 0.5695,0.0123 0.8659,0.2061 0.3984,0.2606 0.852,1.0196 0.852,1.0196 0.9907,-0.5127 2.001,-1.4292 2.8198,-1.1975 0.2625,0.0743 0.6012,0.2464 0.7546,0.4216"/>
  <path id="_197251240_13" class="fil1 str2" d="M175.29 42.8158c1.6761,-0.8653 2.0949,-0.9431 2.4208,-0.9761 0.139,-0.0141 0.5695,0.0123 0.8659,0.2061 0.3984,0.2606 0.852,1.0196 0.852,1.0196 0.9907,-0.5127 2.1774,-1.4336 2.9962,-1.2019"/>
  <path id="_197251240_14" class="fil1 str2" d="M178.808 46.3009c1.6761,-0.8653 2.0949,-0.9431 2.4208,-0.9761 0.139,-0.0141 0.5695,0.0123 0.8659,0.2061 0.3984,0.2606 0.852,1.0196 0.852,1.0196 0.9907,-0.5127 1.9684,-1.4261 2.7872,-1.1944"/>
  <path id="_197251240_15" class="fil1 str2" d="M182.252 49.7216c1.6761,-0.8653 2.0949,-0.9431 2.4208,-0.9761 0.139,-0.0141 0.5695,0.0123 0.8659,0.2061 0.3984,0.2606 0.852,1.0196 0.852,1.0196 0.9907,-0.5127 1.7902,-1.4001 2.609,-1.1684"/>
  <path id="_197251240_16" class="fil1 str2" d="M186.096 53.1317c1.6761,-0.8653 0.5956,-0.8549 0.9215,-0.8879 0.139,-0.0141 1.0529,-0.2596 1.3493,-0.0658 0.3984,0.2606 1.3028,1.3267 1.3028,1.3267 0.9907,-0.5127 1.5581,-1.4539 2.3769,-1.2222 0.2625,0.0743 0.7512,0.5161 0.9046,0.6913"/>
  <path id="_197251240_17" class="fil1 str2" d="M188.603 55.4713c1.6761,-0.8653 1.5974,-1.0616 1.9233,-1.0946 0.139,-0.0141 0.401,-0.0936 0.6974,0.1002 0.3984,0.2606 2.5385,1.5501 3.2598,0.4062"/>
  <path id="_197251240_18" class="fil1 str2" d="M155.358 22.751c1.6761,-0.8653 2.0949,-0.9431 2.4208,-0.9761 0.139,-0.0141 0.5695,0.0123 0.8659,0.2061 0.3984,0.2606 0.852,1.0196 0.852,1.0196 0.9907,-0.5127 2.4262,-1.3966 3.245,-1.1649 0.2625,0.0743 0.3477,0.1927 0.5011,0.3679l0.618 0.7101c0.0916,-0.0454 0.1838,-0.0948 0.2761,-0.1464"/>
  <path id="_197251240_19" class="fil1 str2" d="M152.553 19.8173c1.6761,-0.8653 2.0949,-0.9431 2.4208,-0.9761 0.139,-0.0141 0.5695,0.0123 0.8659,0.2061 0.3984,0.2606 0.852,1.0196 0.852,1.0196 0.9907,-0.5127 2.4262,-1.3966 3.245,-1.1649 0.2625,0.0743 0.3477,0.1927 0.5011,0.3679l0.618 0.7101c0.0916,-0.0454 0.1838,-0.0948 0.2761,-0.1464"/>
  <g id="_197248120">
   <path id="_197247208" class="fil1 str2" d="M71.158 44.7728c1.6761,-0.8653 2.0948,-0.9431 2.4206,-0.9762 0.139,-0.0141 0.5697,0.0123 0.8659,0.2061 0.3984,0.2607 0.8521,1.0196 0.8521,1.0196 0.9907,-0.5126 2.4262,-1.3966 3.2451,-1.1649 0.2623,0.0743 0.3475,0.1928 0.501,0.368l0.618 0.7101c0.419,-0.2075 0.8471,-0.4985 1.2661,-0.706 0.3972,-0.2334 0.6996,-0.3763 1.1549,-0.422 0.2936,-0.0019 0.5294,0.0186 0.7169,0.2351 0.2093,0.2405 0.4271,0.5462 0.6639,0.9215 0.2393,-0.1227 0.5335,-0.311 0.7728,-0.4338 0.3859,-0.21 0.7605,-0.4246 1.2022,-0.5276 0.2807,-0.0556 0.5764,-0.0811 0.767,0.0357 0.3146,0.1515 0.8037,0.6271 1.0472,0.9326"/>
   <path id="_197257168" class="fil1 str2" d="M87.1376 44.9638c1.6761,-0.8653 2.0949,-0.9431 2.4206,-0.9761 0.139,-0.0142 0.5697,0.0122 0.8659,0.206 0.3984,0.2607 0.8521,1.0197 0.8521,1.0197 0.9907,-0.5127 2.4262,-1.3967 3.2451,-1.165 0.2624,0.0743 0.3476,0.1928 0.501,0.368l0.618 0.7101c0.419,-0.2075 0.8471,-0.4985 1.2661,-0.7059 0.3972,-0.2334 0.6997,-0.3764 1.1549,-0.4221 0.2936,-0.0019 0.5294,0.0186 0.7169,0.2351 0.2093,0.2405 0.4271,0.5462 0.6639,0.9215 0.2393,-0.1226 0.5335,-0.311 0.7728,-0.4338 0.3859,-0.2099 0.7606,-0.4245 1.2023,-0.5276 0.2806,-0.0556 0.5763,-0.0811 0.7669,0.0358 0.3146,0.1514 0.8038,0.627 1.0472,0.9325"/>
   <path id="_194951352" class="fil1 str2" d="M103.026 45.2223c1.6761,-0.8654 2.0949,-0.9432 2.4207,-0.9762 0.1389,-0.0141 0.5696,0.0123 0.8659,0.2061 0.3983,0.2607 0.8521,1.0196 0.8521,1.0196 0.9906,-0.5126 2.4261,-1.3966 3.245,-1.1649 0.2624,0.0743 0.3476,0.1928 0.501,0.3679l0.6181 0.7101c0.4189,-0.2075 0.847,-0.4984 1.266,-0.7059 0.3973,-0.2334 0.6997,-0.3763 1.1549,-0.422 0.2936,-0.0019 0.5294,0.0186 0.7169,0.235 0.2093,0.2406 0.4271,0.5462 0.6639,0.9216 0.2393,-0.1227 0.5335,-0.3111 0.7728,-0.4338 0.3859,-0.21 0.7606,-0.4246 1.2023,-0.5276 0.2807,-0.0557 0.5763,-0.0812 0.7669,0.0357 0.3146,0.1514 0.8038,0.627 1.0472,0.9325"/>
   <path id="_195127048" class="fil1 str2" d="M118.913 45.4807c1.6762,-0.8653 2.0949,-0.9431 2.4207,-0.9761 0.139,-0.0142 0.5696,0.0122 0.8659,0.206 0.3984,0.2607 0.8521,1.0197 0.8521,1.0197 0.9906,-0.5127 2.4261,-1.3967 3.245,-1.165 0.2624,0.0743 0.3476,0.1928 0.501,0.368l0.6181 0.7101c0.419,-0.2075 0.847,-0.4985 1.266,-0.706 0.3973,-0.2333 0.6997,-0.3763 1.1549,-0.422 0.2937,-0.0019 0.5294,0.0186 0.7169,0.2351 0.2094,0.2405 0.4271,0.5462 0.664,0.9215 0.2392,-0.1227 0.5334,-0.311 0.7728,-0.4338 0.3859,-0.2099 0.7605,-0.4246 1.2022,-0.5276 0.2807,-0.0556 0.5763,-0.0811 0.7669,0.0358 0.3146,0.1514 0.8038,0.627 1.0472,0.9325"/>
   <path id="_195127240" class="fil1 str2" d="M134.801 45.7391c1.6762,-0.8653 2.0949,-0.9431 2.4207,-0.9761 0.139,-0.0141 0.5696,0.0123 0.8659,0.2061 0.3984,0.2607 0.8521,1.0196 0.8521,1.0196 0.9906,-0.5126 2.4261,-1.3966 3.2451,-1.1649 0.2623,0.0743 0.3475,0.1928 0.501,0.3679l0.618 0.7101c0.419,-0.2075 0.8471,-0.4984 1.2661,-0.7059 0.3972,-0.2334 0.6996,-0.3763 1.1549,-0.422 0.2936,-0.0019 0.5293,0.0186 0.7168,0.235 0.2094,0.2406 0.4272,0.5462 0.664,0.9216 0.2392,-0.1227 0.5335,-0.3111 0.7728,-0.4338 0.3859,-0.21 0.7605,-0.4246 1.2022,-0.5276 0.2807,-0.0557 0.5764,-0.0812 0.7669,0.0357 0.3147,0.1514 0.8038,0.627 1.0472,0.9325"/>
   <path id="_195127432" class="fil1 str2" d="M150.689 45.9976c1.6761,-0.8653 2.0948,-0.9431 2.4206,-0.9761 0.139,-0.0142 0.5696,0.0122 0.8659,0.206 0.3984,0.2607 0.8521,1.0196 0.8521,1.0196 0.9907,-0.5126 2.4262,-1.3966 3.2451,-1.1649 0.2623,0.0743 0.3475,0.1928 0.501,0.368l0.618 0.7101c0.419,-0.2075 0.8471,-0.4985 1.2661,-0.706 0.3972,-0.2333 0.6996,-0.3763 1.1549,-0.422 0.2936,-0.0019 0.5294,0.0186 0.7169,0.2351 0.2093,0.2405 0.4271,0.5462 0.6639,0.9215 0.2392,-0.1227 0.5335,-0.311 0.7728,-0.4338 0.3859,-0.2099 0.7605,-0.4246 1.2022,-0.5276 0.2807,-0.0556 0.5764,-0.0811 0.7669,0.0357 0.3147,0.1515 0.8038,0.6271 1.0472,0.9326"/>
   <path id="_195128008" class="fil1 str2" d="M166.576 46.256c1.6761,-0.8653 2.0949,-0.9431 2.4206,-0.9761 0.139,-0.0141 0.5697,0.0123 0.8659,0.2061 0.3984,0.2607 0.8521,1.0196 0.8521,1.0196 0.9907,-0.5127 2.4262,-1.3966 3.2451,-1.165 0.2624,0.0744 0.3476,0.1929 0.501,0.368l0.618 0.7101c0.419,-0.2075 0.8471,-0.4984 1.2661,-0.7059 0.3972,-0.2334 0.6997,-0.3763 1.1549,-0.4221 0.2936,-0.0018 0.5294,0.0187 0.7169,0.2351 0.2093,0.2406 0.4271,0.5462 0.6639,0.9216"/>
  </g>
  <g id="_197257072">
   <path id="_195130696" class="fil1 str2" d="M67.6303 41.3038c1.6761,-0.8653 2.0948,-0.9431 2.4206,-0.9762 0.139,-0.0141 0.5696,0.0123 0.8659,0.2061 0.3984,0.2607 0.8521,1.0196 0.8521,1.0196 0.9907,-0.5126 2.4262,-1.3966 3.2451,-1.1649 0.2623,0.0743 0.3475,0.1928 0.501,0.368l0.618 0.7101c0.419,-0.2075 0.8471,-0.4985 1.2661,-0.706 0.3972,-0.2334 0.6996,-0.3763 1.1549,-0.422 0.2936,-0.0019 0.5294,0.0186 0.7169,0.2351 0.2093,0.2405 0.4271,0.5462 0.6639,0.9215 0.2393,-0.1227 0.5335,-0.311 0.7728,-0.4338 0.3859,-0.21 0.7605,-0.4246 1.2022,-0.5276 0.2807,-0.0556 0.5764,-0.0811 0.767,0.0357 0.3146,0.1515 0.8037,0.6271 1.0472,0.9326"/>
   <path id="_195130888" class="fil1 str2" d="M83.6099 41.4948c1.6761,-0.8653 2.0949,-0.9431 2.4206,-0.9761 0.139,-0.0142 0.5697,0.0122 0.8659,0.206 0.3984,0.2607 0.8521,1.0197 0.8521,1.0197 0.9907,-0.5127 2.4262,-1.3967 3.2451,-1.165 0.2624,0.0743 0.3476,0.1928 0.501,0.368l0.618 0.7101c0.419,-0.2075 0.8471,-0.4985 1.2661,-0.7059 0.3972,-0.2334 0.6997,-0.3764 1.1549,-0.4221 0.2936,-0.0019 0.5294,0.0186 0.7169,0.2351 0.2093,0.2405 0.4271,0.5462 0.6639,0.9215 0.2393,-0.1226 0.5335,-0.311 0.7728,-0.4338 0.3859,-0.2099 0.7606,-0.4245 1.2023,-0.5276 0.2806,-0.0556 0.5763,-0.0811 0.7669,0.0358 0.3146,0.1514 0.8038,0.627 1.0472,0.9325"/>
   <path id="_195131080" class="fil1 str2" d="M99.4977 41.7533c1.6761,-0.8653 2.0948,-0.9432 2.4206,-0.9762 0.139,-0.0141 0.5696,0.0123 0.8659,0.2061 0.3984,0.2607 0.8521,1.0196 0.8521,1.0196 0.9907,-0.5126 2.4262,-1.3966 3.2451,-1.1649 0.2623,0.0743 0.3475,0.1928 0.501,0.3679l0.618 0.7101c0.419,-0.2075 0.8471,-0.4984 1.2661,-0.7059 0.3972,-0.2334 0.6996,-0.3763 1.1549,-0.422 0.2936,-0.0019 0.5294,0.0186 0.7169,0.235 0.2093,0.2406 0.4271,0.5462 0.6639,0.9216 0.2392,-0.1227 0.5335,-0.3111 0.7728,-0.4338 0.3859,-0.21 0.7605,-0.4246 1.2022,-0.5276 0.2807,-0.0557 0.5764,-0.0812 0.7669,0.0357 0.3147,0.1514 0.8038,0.627 1.0472,0.9325"/>
   <path id="_195131272" class="fil1 str2" d="M115.386 42.0117c1.6761,-0.8653 2.0949,-0.9431 2.4206,-0.9761 0.139,-0.0142 0.5697,0.0122 0.8659,0.206 0.3984,0.2607 0.8521,1.0197 0.8521,1.0197 0.9907,-0.5127 2.4262,-1.3967 3.2451,-1.165 0.2624,0.0743 0.3475,0.1928 0.501,0.368l0.618 0.7101c0.419,-0.2075 0.8471,-0.4985 1.2661,-0.7059 0.3972,-0.2334 0.6997,-0.3764 1.1549,-0.4221 0.2936,-0.0019 0.5294,0.0186 0.7169,0.2351 0.2093,0.2405 0.4271,0.5462 0.6639,0.9215 0.2393,-0.1226 0.5335,-0.311 0.7728,-0.4338 0.3859,-0.2099 0.7606,-0.4245 1.2023,-0.5276 0.2806,-0.0556 0.5763,-0.0811 0.7669,0.0358 0.3146,0.1514 0.8038,0.627 1.0472,0.9325"/>
   <path id="_195131464" class="fil1 str2" d="M131.273 42.2702c1.6761,-0.8654 2.0949,-0.9432 2.4206,-0.9762 0.139,-0.0141 0.5697,0.0123 0.8659,0.2061 0.3984,0.2607 0.8522,1.0196 0.8522,1.0196 0.9906,-0.5126 2.4261,-1.3966 3.245,-1.1649 0.2624,0.0743 0.3476,0.1928 0.501,0.3679l0.618 0.7101c0.419,-0.2075 0.8471,-0.4984 1.2661,-0.7059 0.3973,-0.2334 0.6997,-0.3763 1.1549,-0.422 0.2936,-0.0019 0.5294,0.0186 0.7169,0.235 0.2093,0.2406 0.4271,0.5462 0.6639,0.9216 0.2393,-0.1227 0.5335,-0.3111 0.7728,-0.4338 0.3859,-0.21 0.7606,-0.4246 1.2023,-0.5276 0.2807,-0.0557 0.5763,-0.0812 0.7669,0.0357 0.3146,0.1514 0.8038,0.627 1.0472,0.9325"/>
   <path id="_195131656" class="fil1 str2" d="M147.161 42.5286c1.6762,-0.8653 2.0949,-0.9431 2.4207,-0.9761 0.139,-0.0142 0.5696,0.0122 0.8659,0.206 0.3984,0.2607 0.8521,1.0197 0.8521,1.0197 0.9906,-0.5127 2.4261,-1.3967 3.245,-1.165 0.2624,0.0743 0.3476,0.1928 0.501,0.368l0.6181 0.7101c0.419,-0.2075 0.847,-0.4985 1.266,-0.706 0.3973,-0.2333 0.6997,-0.3763 1.1549,-0.422 0.2937,-0.0019 0.5294,0.0186 0.7169,0.2351 0.2094,0.2405 0.4271,0.5462 0.664,0.9215 0.2392,-0.1227 0.5334,-0.311 0.7728,-0.4338 0.3859,-0.2099 0.7605,-0.4246 1.2022,-0.5276 0.2807,-0.0556 0.5763,-0.0811 0.7669,0.0357 0.3146,0.1515 0.8038,0.6271 1.0472,0.9326"/>
   <path id="_195131848" class="fil1 str2" d="M163.049 42.7871c1.6762,-0.8654 2.0949,-0.9432 2.4207,-0.9762 0.139,-0.0141 0.5696,0.0123 0.8659,0.2061 0.3984,0.2607 0.8521,1.0196 0.8521,1.0196 0.9906,-0.5126 2.4261,-1.3966 3.245,-1.1649 0.2624,0.0743 0.3476,0.1928 0.501,0.3679l0.6181 0.7101c0.419,-0.2075 0.8471,-0.4984 1.266,-0.7059 0.3973,-0.2334 0.6997,-0.3763 1.1549,-0.422 0.2937,-0.0019 0.5294,0.0186 0.7169,0.235 0.2094,0.2406 0.4271,0.5462 0.664,0.9216"/>
  </g>
  <g id="_195130504">
   <path id="_195132232" class="fil1 str2" d="M64.2652 37.9512c1.6761,-0.8653 2.0948,-0.9431 2.4206,-0.9761 0.139,-0.0142 0.5696,0.0122 0.8659,0.206 0.3984,0.2607 0.8521,1.0197 0.8521,1.0197 0.9907,-0.5127 2.4262,-1.3967 3.2451,-1.165 0.2623,0.0743 0.3475,0.1928 0.501,0.368l0.618 0.7101c0.419,-0.2075 0.8471,-0.4985 1.2661,-0.7059 0.3972,-0.2334 0.6996,-0.3764 1.1549,-0.4221 0.2936,-0.0019 0.5294,0.0186 0.7169,0.2351 0.2093,0.2405 0.4271,0.5462 0.6639,0.9215 0.2393,-0.1226 0.5335,-0.311 0.7728,-0.4338 0.3859,-0.2099 0.7605,-0.4245 1.2022,-0.5276 0.2807,-0.0556 0.5764,-0.0811 0.767,0.0358 0.3146,0.1514 0.8037,0.627 1.0472,0.9325"/>
   <path id="_195132424" class="fil1 str2" d="M80.2448 38.1422c1.6761,-0.8653 2.0949,-0.9431 2.4206,-0.9761 0.139,-0.0142 0.5697,0.0123 0.8659,0.2061 0.3984,0.2606 0.8521,1.0196 0.8521,1.0196 0.9907,-0.5127 2.4262,-1.3967 3.2451,-1.165 0.2624,0.0743 0.3476,0.1928 0.501,0.368l0.618 0.7101c0.419,-0.2075 0.8471,-0.4984 1.2661,-0.7059 0.3972,-0.2334 0.6997,-0.3764 1.1549,-0.4221 0.2936,-0.0019 0.5294,0.0186 0.7169,0.2351 0.2093,0.2406 0.4271,0.5462 0.6639,0.9215 0.2393,-0.1226 0.5335,-0.311 0.7728,-0.4338 0.3859,-0.2099 0.7606,-0.4245 1.2023,-0.5276 0.2806,-0.0556 0.5763,-0.0811 0.7669,0.0358 0.3146,0.1514 0.8038,0.627 1.0472,0.9325"/>
   <path id="_195132616" class="fil1 str2" d="M96.1326 38.4007c1.6761,-0.8653 2.0948,-0.9432 2.4206,-0.9762 0.139,-0.0141 0.5696,0.0123 0.8659,0.2061 0.3984,0.2607 0.8521,1.0196 0.8521,1.0196 0.9907,-0.5126 2.4261,-1.3966 3.2451,-1.1649 0.2623,0.0743 0.3475,0.1928 0.501,0.368l0.618 0.7101c0.419,-0.2075 0.8471,-0.4985 1.2661,-0.706 0.3972,-0.2334 0.6996,-0.3763 1.1549,-0.422 0.2936,-0.0019 0.5294,0.0186 0.7169,0.235 0.2093,0.2406 0.4271,0.5462 0.6639,0.9216 0.2392,-0.1227 0.5335,-0.311 0.7728,-0.4338 0.3859,-0.21 0.7605,-0.4246 1.2022,-0.5276 0.2807,-0.0556 0.5764,-0.0812 0.7669,0.0357 0.3147,0.1515 0.8038,0.6271 1.0472,0.9325"/>
   <path id="_195132808" class="fil1 str2" d="M112.02 38.6591c1.6762,-0.8653 2.0949,-0.9431 2.4207,-0.9761 0.139,-0.0142 0.5696,0.0123 0.8659,0.2061 0.3984,0.2606 0.8521,1.0196 0.8521,1.0196 0.9906,-0.5127 2.4261,-1.3967 3.245,-1.165 0.2624,0.0743 0.3476,0.1928 0.501,0.368l0.6181 0.7101c0.419,-0.2075 0.8471,-0.4984 1.2661,-0.7059 0.3972,-0.2334 0.6996,-0.3764 1.1548,-0.4221 0.2937,-0.0019 0.5294,0.0186 0.7169,0.2351 0.2094,0.2405 0.4271,0.5462 0.664,0.9215 0.2392,-0.1226 0.5334,-0.311 0.7728,-0.4338 0.3859,-0.2099 0.7605,-0.4245 1.2022,-0.5276 0.2807,-0.0556 0.5763,-0.0811 0.7669,0.0358 0.3146,0.1514 0.8038,0.627 1.0472,0.9325"/>
   <path id="_194941176" class="fil1 str2" d="M127.908 38.9176c1.6761,-0.8653 2.0948,-0.9432 2.4206,-0.9762 0.139,-0.0141 0.5696,0.0123 0.8659,0.2061 0.3984,0.2607 0.8521,1.0196 0.8521,1.0196 0.9907,-0.5126 2.4261,-1.3966 3.2451,-1.1649 0.2623,0.0743 0.3475,0.1928 0.501,0.368l0.618 0.71c0.419,-0.2074 0.8471,-0.4984 1.2661,-0.7059 0.3972,-0.2334 0.6996,-0.3763 1.1549,-0.422 0.2936,-0.0019 0.5294,0.0186 0.7169,0.235 0.2093,0.2406 0.4271,0.5462 0.6639,0.9216 0.2392,-0.1227 0.5335,-0.311 0.7728,-0.4338 0.3859,-0.21 0.7605,-0.4246 1.2022,-0.5276 0.2807,-0.0556 0.5764,-0.0812 0.7669,0.0357 0.3147,0.1514 0.8038,0.627 1.0472,0.9325"/>
   <path id="_194941368" class="fil1 str2" d="M143.796 39.176c1.6761,-0.8653 2.0948,-0.9431 2.4206,-0.9761 0.139,-0.0142 0.5696,0.0123 0.8659,0.2061 0.3984,0.2606 0.8521,1.0196 0.8521,1.0196 0.9907,-0.5127 2.4262,-1.3967 3.2451,-1.165 0.2623,0.0743 0.3475,0.1928 0.501,0.368l0.618 0.7101c0.419,-0.2075 0.8471,-0.4984 1.2661,-0.7059 0.3972,-0.2334 0.6996,-0.3764 1.1549,-0.4221 0.2936,-0.0019 0.5294,0.0186 0.7169,0.2351 0.2093,0.2405 0.4271,0.5462 0.6639,0.9215 0.2393,-0.1226 0.5335,-0.311 0.7728,-0.4338 0.3859,-0.2099 0.7605,-0.4245 1.2022,-0.5276 0.2807,-0.0556 0.5764,-0.0811 0.767,0.0358 0.3146,0.1514 0.8037,0.627 1.0472,0.9325"/>
   <path id="_194941944" class="fil1 str2" d="M159.684 39.4345c1.6761,-0.8653 2.0949,-0.9432 2.4206,-0.9762 0.139,-0.0141 0.5697,0.0123 0.8659,0.2061 0.3984,0.2607 0.8521,1.0196 0.8521,1.0196 0.9907,-0.5126 2.4262,-1.3966 3.2451,-1.1649 0.2624,0.0743 0.3476,0.1928 0.501,0.3679l0.618 0.7101c0.419,-0.2074 0.8471,-0.4984 1.2661,-0.7059 0.3972,-0.2334 0.6997,-0.3763 1.1549,-0.422 0.2936,-0.0019 0.5294,0.0186 0.7169,0.235 0.2093,0.2406 0.4271,0.5462 0.6639,0.9216"/>
  </g>
  <g id="_195132040">
   <path id="_194942328" class="fil1 str2" d="M60.6543 34.3762c1.6762,-0.8653 2.0949,-0.9432 2.4207,-0.9762 0.139,-0.0141 0.5696,0.0123 0.8659,0.2061 0.3984,0.2607 0.8521,1.0196 0.8521,1.0196 0.9906,-0.5126 2.4261,-1.3966 3.2451,-1.1649 0.2623,0.0743 0.3475,0.1928 0.501,0.368l0.618 0.7101c0.419,-0.2075 0.8471,-0.4985 1.2661,-0.706 0.3972,-0.2334 0.6996,-0.3763 1.1549,-0.422 0.2936,-0.0019 0.5293,0.0186 0.7168,0.2351 0.2094,0.2405 0.4272,0.5462 0.664,0.9215 0.2392,-0.1227 0.5335,-0.311 0.7728,-0.4338 0.3859,-0.21 0.7605,-0.4246 1.2022,-0.5276 0.2807,-0.0556 0.5764,-0.0811 0.7669,0.0357 0.3147,0.1515 0.8038,0.6271 1.0472,0.9326"/>
   <path id="_194945784" class="fil1 str2" d="M76.634 34.5672c1.6761,-0.8653 2.0948,-0.9431 2.4206,-0.9761 0.139,-0.0142 0.5696,0.0122 0.8659,0.206 0.3984,0.2607 0.8521,1.0197 0.8521,1.0197 0.9907,-0.5127 2.4262,-1.3967 3.2451,-1.165 0.2623,0.0743 0.3475,0.1928 0.501,0.368l0.618 0.7101c0.419,-0.2075 0.8471,-0.4985 1.2661,-0.706 0.3972,-0.2333 0.6996,-0.3763 1.1549,-0.422 0.2936,-0.0019 0.5294,0.0186 0.7169,0.2351 0.2093,0.2405 0.4271,0.5462 0.6639,0.9215 0.2393,-0.1227 0.5335,-0.311 0.7728,-0.4338 0.3859,-0.2099 0.7605,-0.4246 1.2022,-0.5276 0.2807,-0.0556 0.5764,-0.0811 0.767,0.0357 0.3146,0.1515 0.8037,0.6271 1.0472,0.9326"/>
   <path id="_194945976" class="fil1 str2" d="M92.5217 34.8256c1.6762,-0.8653 2.0949,-0.9431 2.4207,-0.9761 0.139,-0.0141 0.5696,0.0123 0.8659,0.2061 0.3984,0.2607 0.8521,1.0196 0.8521,1.0196 0.9906,-0.5126 2.4261,-1.3966 3.2451,-1.1649 0.2623,0.0743 0.3475,0.1928 0.5009,0.3679l0.6181 0.7101c0.419,-0.2075 0.8471,-0.4984 1.2661,-0.7059 0.3972,-0.2334 0.6996,-0.3763 1.1549,-0.422 0.2936,-0.0019 0.5293,0.0186 0.7168,0.235 0.2094,0.2406 0.4272,0.5462 0.664,0.9216 0.2392,-0.1227 0.5335,-0.3111 0.7728,-0.4338 0.3859,-0.21 0.7605,-0.4246 1.2022,-0.5276 0.2807,-0.0557 0.5764,-0.0812 0.7669,0.0357 0.3147,0.1514 0.8038,0.627 1.0472,0.9325"/>
   <path id="_194946168" class="fil1 str2" d="M108.409 35.0841c1.6762,-0.8653 2.0949,-0.9431 2.4207,-0.9761 0.1389,-0.0142 0.5696,0.0122 0.8659,0.206 0.3984,0.2607 0.8521,1.0196 0.8521,1.0196 0.9906,-0.5126 2.4261,-1.3966 3.245,-1.1649 0.2624,0.0743 0.3476,0.1928 0.501,0.368l0.6181 0.7101c0.419,-0.2075 0.847,-0.4985 1.266,-0.706 0.3973,-0.2334 0.6997,-0.3763 1.1549,-0.422 0.2936,-0.0019 0.5294,0.0186 0.7169,0.2351 0.2094,0.2405 0.4271,0.5462 0.664,0.9215 0.2392,-0.1227 0.5334,-0.311 0.7727,-0.4338 0.3859,-0.2099 0.7606,-0.4246 1.2023,-0.5276 0.2807,-0.0556 0.5763,-0.0811 0.7669,0.0357 0.3146,0.1515 0.8038,0.6271 1.0472,0.9326"/>
   <path id="_194946360" class="fil1 str2" d="M124.297 35.3425c1.6762,-0.8653 2.0949,-0.9431 2.4207,-0.9761 0.139,-0.0141 0.5696,0.0123 0.8659,0.2061 0.3984,0.2607 0.8521,1.0196 0.8521,1.0196 0.9906,-0.5127 2.4261,-1.3966 3.2451,-1.165 0.2623,0.0743 0.3475,0.1929 0.5009,0.368l0.6181 0.7101c0.419,-0.2075 0.8471,-0.4984 1.2661,-0.7059 0.3972,-0.2334 0.6996,-0.3763 1.1549,-0.4221 0.2936,-0.0018 0.5293,0.0187 0.7168,0.2351 0.2094,0.2406 0.4272,0.5462 0.664,0.9216 0.2392,-0.1227 0.5335,-0.3111 0.7728,-0.4338 0.3859,-0.21 0.7605,-0.4246 1.2022,-0.5276 0.2807,-0.0557 0.5764,-0.0812 0.7669,0.0357 0.3147,0.1514 0.8038,0.627 1.0472,0.9325"/>
   <path id="_194946552" class="fil1 str2" d="M140.185 35.601c1.6762,-0.8653 2.0949,-0.9431 2.4207,-0.9762 0.139,-0.0141 0.5696,0.0123 0.8659,0.2061 0.3984,0.2607 0.8521,1.0196 0.8521,1.0196 0.9907,-0.5126 2.4261,-1.3966 3.2451,-1.1649 0.2623,0.0743 0.3475,0.1928 0.501,0.368l0.618 0.7101c0.419,-0.2075 0.8471,-0.4985 1.2661,-0.706 0.3972,-0.2334 0.6996,-0.3763 1.1549,-0.422 0.2936,-0.0019 0.5293,0.0186 0.7168,0.2351 0.2094,0.2405 0.4272,0.5462 0.664,0.9215 0.2392,-0.1227 0.5335,-0.311 0.7728,-0.4338 0.3859,-0.2099 0.7605,-0.4246 1.2022,-0.5276 0.2807,-0.0556 0.5764,-0.0811 0.7669,0.0357 0.3147,0.1515 0.8038,0.6271 1.0472,0.9326"/>
   <path id="_194946744" class="fil1 str2" d="M156.073 35.8594c1.6761,-0.8653 2.0949,-0.9431 2.4206,-0.9761 0.139,-0.0141 0.5697,0.0123 0.8659,0.2061 0.3984,0.2606 0.8521,1.0196 0.8521,1.0196 0.9907,-0.5127 2.4262,-1.3967 3.2451,-1.165 0.2623,0.0743 0.3475,0.1928 0.501,0.368l0.618 0.7101c0.419,-0.2075 0.8471,-0.4984 1.2661,-0.7059 0.3972,-0.2334 0.6997,-0.3763 1.1549,-0.4221 0.2936,-0.0018 0.5294,0.0187 0.7169,0.2351 0.2093,0.2406 0.4271,0.5462 0.6639,0.9216"/>
  </g>
  <g id="_194942136">
   <path id="_194947896" class="fil1 str2" d="M57.4027 31.047c1.6762,-0.8653 2.0949,-0.9431 2.4207,-0.9761 0.139,-0.0142 0.5696,0.0123 0.8659,0.2061 0.3984,0.2606 0.8521,1.0196 0.8521,1.0196 0.9906,-0.5127 2.4261,-1.3967 3.245,-1.165 0.2624,0.0743 0.3476,0.1928 0.501,0.368l0.6181 0.7101c0.419,-0.2075 0.847,-0.4984 1.266,-0.7059 0.3973,-0.2334 0.6997,-0.3764 1.1549,-0.4221 0.2937,-0.0018 0.5294,0.0186 0.7169,0.2351 0.2094,0.2406 0.4271,0.5462 0.664,0.9216 0.2392,-0.1227 0.5334,-0.3111 0.7728,-0.4338 0.3859,-0.21 0.7605,-0.4246 1.2022,-0.5276 0.2807,-0.0557 0.5763,-0.0812 0.7669,0.0357 0.3146,0.1514 0.8038,0.627 1.0472,0.9325"/>
   <path id="_194948088" class="fil1 str2" d="M73.3823 31.238c1.6762,-0.8653 2.0949,-0.9431 2.4207,-0.9761 0.139,-0.0141 0.5696,0.0123 0.8659,0.2061 0.3984,0.2607 0.8521,1.0196 0.8521,1.0196 0.9906,-0.5127 2.4261,-1.3966 3.2451,-1.165 0.2623,0.0743 0.3475,0.1929 0.501,0.368l0.618 0.7101c0.419,-0.2075 0.8471,-0.4984 1.2661,-0.7059 0.3972,-0.2334 0.6996,-0.3763 1.1549,-0.4221 0.2936,-0.0018 0.5293,0.0187 0.7168,0.2351 0.2094,0.2406 0.4272,0.5462 0.664,0.9216 0.2392,-0.1227 0.5335,-0.3111 0.7728,-0.4338 0.3859,-0.21 0.7605,-0.4246 1.2022,-0.5276 0.2807,-0.0557 0.5764,-0.0812 0.7669,0.0357 0.3147,0.1514 0.8038,0.627 1.0472,0.9325"/>
   <path id="_194948280" class="fil1 str2" d="M89.2701 31.4965c1.6762,-0.8653 2.0949,-0.9431 2.4207,-0.9762 0.139,-0.0141 0.5696,0.0123 0.8659,0.2061 0.3984,0.2607 0.8521,1.0196 0.8521,1.0196 0.9906,-0.5126 2.4261,-1.3966 3.245,-1.1649 0.2624,0.0743 0.3476,0.1928 0.501,0.368l0.6181 0.7101c0.419,-0.2075 0.847,-0.4985 1.266,-0.706 0.3973,-0.2334 0.6997,-0.3763 1.1549,-0.422 0.2937,-0.0019 0.5294,0.0186 0.7169,0.2351 0.2094,0.2405 0.4271,0.5462 0.664,0.9215 0.2392,-0.1227 0.5334,-0.311 0.7727,-0.4338 0.386,-0.21 0.7606,-0.4246 1.2023,-0.5276 0.2807,-0.0556 0.5763,-0.0811 0.7669,0.0357 0.3146,0.1515 0.8038,0.6271 1.0472,0.9326"/>
   <path id="_194948472" class="fil1 str2" d="M105.158 31.7549c1.6761,-0.8653 2.0949,-0.9431 2.4206,-0.9761 0.139,-0.0141 0.5697,0.0123 0.8659,0.2061 0.3984,0.2606 0.8522,1.0196 0.8522,1.0196 0.9906,-0.5127 2.4261,-1.3967 3.245,-1.165 0.2624,0.0743 0.3476,0.1929 0.501,0.368l0.618 0.7101c0.419,-0.2075 0.8471,-0.4984 1.2661,-0.7059 0.3972,-0.2334 0.6997,-0.3763 1.1549,-0.4221 0.2936,-0.0018 0.5294,0.0187 0.7169,0.2351 0.2093,0.2406 0.4271,0.5462 0.6639,0.9216 0.2393,-0.1227 0.5335,-0.3111 0.7728,-0.4338 0.3859,-0.21 0.7606,-0.4246 1.2023,-0.5276 0.2807,-0.0557 0.5763,-0.0812 0.7669,0.0357 0.3146,0.1514 0.8038,0.627 1.0472,0.9325"/>
   <path id="_194948664" class="fil1 str2" d="M121.045 32.0134c1.6762,-0.8653 2.0949,-0.9431 2.4207,-0.9762 0.139,-0.0141 0.5696,0.0123 0.8659,0.2061 0.3984,0.2607 0.8521,1.0196 0.8521,1.0196 0.9906,-0.5126 2.4261,-1.3966 3.245,-1.1649 0.2624,0.0743 0.3476,0.1928 0.501,0.368l0.6181 0.7101c0.419,-0.2075 0.847,-0.4985 1.266,-0.706 0.3973,-0.2334 0.6997,-0.3763 1.1549,-0.422 0.2936,-0.0019 0.5294,0.0186 0.7169,0.2351 0.2094,0.2405 0.4271,0.5462 0.664,0.9215 0.2392,-0.1227 0.5334,-0.311 0.7727,-0.4338 0.3859,-0.21 0.7606,-0.4246 1.2023,-0.5276 0.2807,-0.0556 0.5763,-0.0811 0.7669,0.0357 0.3146,0.1515 0.8038,0.6271 1.0472,0.9326"/>
   <path id="_194948856" class="fil1 str2" d="M136.934 32.2718c1.6762,-0.8653 2.0949,-0.9431 2.4207,-0.9761 0.139,-0.0141 0.5696,0.0123 0.8659,0.2061 0.3984,0.2606 0.8521,1.0196 0.8521,1.0196 0.9906,-0.5127 2.4261,-1.3967 3.245,-1.165 0.2624,0.0743 0.3476,0.1928 0.501,0.368l0.6181 0.7101c0.419,-0.2075 0.847,-0.4984 1.266,-0.7059 0.3973,-0.2334 0.6997,-0.3763 1.1549,-0.4221 0.2937,-0.0018 0.5294,0.0186 0.7169,0.2351 0.2094,0.2406 0.4271,0.5462 0.664,0.9216 0.2392,-0.1227 0.5334,-0.3111 0.7728,-0.4338 0.3859,-0.21 0.7605,-0.4246 1.2022,-0.5276 0.2807,-0.0557 0.5763,-0.0812 0.7669,0.0357 0.3146,0.1514 0.8038,0.627 1.0472,0.9325"/>
   <path id="_194949048" class="fil1 str2" d="M152.821 32.5303c1.6761,-0.8653 2.0948,-0.9432 2.4206,-0.9762 0.139,-0.0141 0.5696,0.0123 0.8659,0.2061 0.3984,0.2607 0.8521,1.0196 0.8521,1.0196 0.9907,-0.5126 2.4261,-1.3966 3.2451,-1.1649 0.2623,0.0743 0.3475,0.1928 0.501,0.368l0.618 0.7101c0.419,-0.2075 0.8471,-0.4985 1.2661,-0.706 0.3972,-0.2334 0.6996,-0.3763 1.1549,-0.422 0.2936,-0.0019 0.5294,0.0186 0.7168,0.2351 0.2094,0.2405 0.4272,0.5462 0.664,0.9215"/>
  </g>
  <g id="_194946936">
   <path id="_194949816" class="fil1 str2" d="M54.1367 27.706c1.6761,-0.8653 2.0948,-0.9431 2.4206,-0.9761 0.139,-0.0142 0.5696,0.0123 0.8659,0.2061 0.3984,0.2606 0.8521,1.0196 0.8521,1.0196 0.9907,-0.5127 2.4262,-1.3967 3.2451,-1.165 0.2623,0.0743 0.3475,0.1928 0.501,0.368l0.618 0.7101c0.419,-0.2075 0.8471,-0.4984 1.2661,-0.7059 0.3972,-0.2334 0.6996,-0.3764 1.1549,-0.4221 0.2936,-0.0018 0.5294,0.0186 0.7169,0.2351 0.2093,0.2406 0.4271,0.5462 0.6639,0.9216 0.2393,-0.1227 0.5335,-0.3111 0.7728,-0.4338 0.3859,-0.21 0.7605,-0.4246 1.2022,-0.5276 0.2807,-0.0557 0.5764,-0.0812 0.767,0.0357 0.3146,0.1514 0.8037,0.627 1.0472,0.9325"/>
   <path id="_194950008" class="fil1 str2" d="M70.1163 27.897c1.6761,-0.8653 2.0949,-0.9431 2.4206,-0.9761 0.139,-0.0141 0.5697,0.0123 0.8659,0.2061 0.3984,0.2607 0.8521,1.0196 0.8521,1.0196 0.9907,-0.5127 2.4262,-1.3966 3.2451,-1.1649 0.2624,0.0743 0.3476,0.1928 0.501,0.3679l0.618 0.7101c0.419,-0.2075 0.8471,-0.4984 1.2661,-0.7059 0.3972,-0.2334 0.6997,-0.3763 1.1549,-0.4221 0.2936,-0.0018 0.5294,0.0187 0.7169,0.2351 0.2093,0.2406 0.4271,0.5462 0.6639,0.9216 0.2393,-0.1227 0.5335,-0.3111 0.7728,-0.4338 0.3859,-0.21 0.7606,-0.4246 1.2023,-0.5276 0.2806,-0.0557 0.5763,-0.0812 0.7669,0.0357 0.3146,0.1514 0.8038,0.627 1.0472,0.9325"/>
   <path id="_194952312" class="fil1 str2" d="M86.0041 28.1555c1.6761,-0.8653 2.0948,-0.9431 2.4206,-0.9761 0.139,-0.0142 0.5696,0.0122 0.8659,0.206 0.3984,0.2607 0.8521,1.0196 0.8521,1.0196 0.9907,-0.5126 2.4262,-1.3966 3.2451,-1.1649 0.2623,0.0743 0.3475,0.1928 0.501,0.368l0.618 0.7101c0.419,-0.2075 0.8471,-0.4985 1.2661,-0.706 0.3972,-0.2334 0.6996,-0.3763 1.1549,-0.422 0.2936,-0.0019 0.5294,0.0186 0.7169,0.2351 0.2093,0.2405 0.4271,0.5462 0.6639,0.9215 0.2393,-0.1227 0.5335,-0.311 0.7728,-0.4338 0.3859,-0.2099 0.7605,-0.4246 1.2022,-0.5276 0.2807,-0.0556 0.5764,-0.0811 0.7669,0.0357 0.3147,0.1515 0.8038,0.6271 1.0472,0.9326"/>
   <path id="_194952504" class="fil1 str2" d="M101.892 28.4139c1.6762,-0.8653 2.0949,-0.9431 2.4207,-0.9761 0.139,-0.0141 0.5696,0.0123 0.8659,0.2061 0.3984,0.2607 0.8521,1.0196 0.8521,1.0196 0.9906,-0.5127 2.4261,-1.3966 3.245,-1.165 0.2624,0.0743 0.3476,0.1929 0.501,0.368l0.6181 0.7101c0.419,-0.2075 0.8471,-0.4984 1.2661,-0.7059 0.3972,-0.2334 0.6996,-0.3763 1.1548,-0.4221 0.2937,-0.0018 0.5294,0.0187 0.7169,0.2351 0.2094,0.2406 0.4272,0.5462 0.664,0.9216 0.2392,-0.1227 0.5335,-0.3111 0.7728,-0.4338 0.3859,-0.21 0.7605,-0.4246 1.2022,-0.5276 0.2807,-0.0557 0.5764,-0.0812 0.7669,0.0357 0.3146,0.1514 0.8038,0.627 1.0472,0.9325"/>
   <path id="_195126664" class="fil1 str2" d="M117.78 28.6724c1.6762,-0.8653 2.0949,-0.9431 2.4207,-0.9762 0.139,-0.0141 0.5696,0.0123 0.8659,0.2061 0.3984,0.2607 0.8521,1.0196 0.8521,1.0196 0.9906,-0.5126 2.4261,-1.3966 3.245,-1.1649 0.2624,0.0743 0.3476,0.1928 0.501,0.368l0.6181 0.7101c0.419,-0.2075 0.847,-0.4985 1.266,-0.706 0.3973,-0.2334 0.6997,-0.3763 1.1549,-0.422 0.2937,-0.0019 0.5294,0.0186 0.7169,0.2351 0.2094,0.2405 0.4271,0.5462 0.664,0.9215 0.2392,-0.1227 0.5334,-0.311 0.7728,-0.4338 0.3859,-0.21 0.7605,-0.4246 1.2022,-0.5276 0.2807,-0.0556 0.5763,-0.0811 0.7669,0.0357 0.3146,0.1515 0.8038,0.6271 1.0472,0.9326"/>
   <path id="_195128584" class="fil1 str2" d="M133.668 28.9308c1.6762,-0.8653 2.0949,-0.9431 2.4207,-0.9761 0.139,-0.0141 0.5696,0.0123 0.8659,0.2061 0.3984,0.2606 0.8521,1.0196 0.8521,1.0196 0.9906,-0.5127 2.4261,-1.3967 3.245,-1.165 0.2624,0.0743 0.3476,0.1929 0.501,0.368l0.6181 0.7101c0.419,-0.2075 0.8471,-0.4984 1.2661,-0.7059 0.3972,-0.2334 0.6996,-0.3763 1.1548,-0.4221 0.2937,-0.0018 0.5294,0.0187 0.7169,0.2351 0.2094,0.2406 0.4271,0.5462 0.664,0.9216 0.2392,-0.1227 0.5335,-0.3111 0.7728,-0.4338 0.3859,-0.21 0.7605,-0.4246 1.2022,-0.5276 0.2807,-0.0557 0.5763,-0.0812 0.7669,0.0357 0.3146,0.1514 0.8038,0.627 1.0472,0.9325"/>
   <path id="_195128776" class="fil1 str2" d="M149.555 29.1893c1.6761,-0.8653 2.0948,-0.9431 2.4206,-0.9762 0.139,-0.0141 0.5696,0.0123 0.8659,0.2061 0.3984,0.2607 0.8521,1.0196 0.8521,1.0196 0.9907,-0.5126 2.4261,-1.3966 3.2451,-1.1649 0.2623,0.0743 0.3475,0.1928 0.501,0.368l0.618 0.7101c0.419,-0.2075 0.8471,-0.4985 1.2661,-0.706 0.3972,-0.2334 0.6996,-0.3763 1.1549,-0.422 0.2936,-0.0019 0.5294,0.0186 0.7169,0.2351 0.2093,0.2405 0.4271,0.5462 0.6639,0.9215"/>
  </g>
  <g id="_194949624">
   <path id="_195129736" class="fil1 str2" d="M51.0433 24.5536c1.6761,-0.8653 2.0949,-0.9431 2.4206,-0.9761 0.139,-0.0141 0.5697,0.0123 0.8659,0.2061 0.3984,0.2606 0.8521,1.0196 0.8521,1.0196 0.9907,-0.5127 2.4262,-1.3967 3.2451,-1.165 0.2624,0.0743 0.3475,0.1928 0.501,0.368l0.618 0.7101c0.419,-0.2075 0.8471,-0.4984 1.2661,-0.7059 0.3972,-0.2334 0.6997,-0.3763 1.1549,-0.4221 0.2936,-0.0018 0.5294,0.0186 0.7169,0.2351 0.2093,0.2406 0.4271,0.5462 0.6639,0.9216 0.2393,-0.1227 0.5335,-0.3111 0.7728,-0.4338 0.3859,-0.21 0.7606,-0.4246 1.2023,-0.5276 0.2806,-0.0557 0.5763,-0.0812 0.7669,0.0357 0.3146,0.1514 0.8038,0.627 1.0472,0.9325"/>
   <path id="_195130312" class="fil1 str2" d="M67.0229 24.7447c1.6761,-0.8654 2.0949,-0.9432 2.4206,-0.9762 0.139,-0.0141 0.5697,0.0123 0.8659,0.2061 0.3984,0.2607 0.8522,1.0196 0.8522,1.0196 0.9906,-0.5126 2.4261,-1.3966 3.245,-1.1649 0.2624,0.0743 0.3476,0.1928 0.501,0.3679l0.618 0.7101c0.419,-0.2075 0.8471,-0.4984 1.2661,-0.7059 0.3972,-0.2334 0.6997,-0.3763 1.1549,-0.422 0.2936,-0.0019 0.5294,0.0186 0.7169,0.235 0.2093,0.2406 0.4271,0.5462 0.6639,0.9216 0.2393,-0.1227 0.5335,-0.3111 0.7728,-0.4338 0.3859,-0.21 0.7606,-0.4246 1.2023,-0.5276 0.2806,-0.0557 0.5763,-0.0812 0.7669,0.0357 0.3146,0.1514 0.8038,0.627 1.0472,0.9325"/>
   <path id="_194940024" class="fil1 str2" d="M82.9107 25.0031c1.6761,-0.8653 2.0949,-0.9431 2.4206,-0.9761 0.139,-0.0142 0.5697,0.0122 0.8659,0.206 0.3984,0.2607 0.8521,1.0196 0.8521,1.0196 0.9907,-0.5126 2.4262,-1.3966 3.2451,-1.1649 0.2623,0.0743 0.3475,0.1928 0.501,0.368l0.618 0.7101c0.419,-0.2075 0.8471,-0.4985 1.2661,-0.706 0.3972,-0.2333 0.6997,-0.3763 1.1549,-0.422 0.2936,-0.0019 0.5294,0.0186 0.7169,0.2351 0.2093,0.2405 0.4271,0.5462 0.6639,0.9215 0.2393,-0.1227 0.5335,-0.311 0.7728,-0.4338 0.3859,-0.2099 0.7605,-0.4246 1.2022,-0.5276 0.2807,-0.0556 0.5764,-0.0811 0.767,0.0357 0.3146,0.1515 0.8038,0.6271 1.0472,0.9326"/>
   <path id="_194940216" class="fil1 str2" d="M98.7984 25.2615c1.6762,-0.8653 2.0949,-0.9431 2.4207,-0.9761 0.139,-0.0141 0.5696,0.0123 0.8659,0.2061 0.3984,0.2607 0.8521,1.0196 0.8521,1.0196 0.9906,-0.5127 2.4261,-1.3966 3.2451,-1.1649 0.2623,0.0743 0.3475,0.1928 0.501,0.3679l0.618 0.7101c0.419,-0.2075 0.8471,-0.4984 1.2661,-0.7059 0.3972,-0.2334 0.6996,-0.3763 1.1549,-0.4221 0.2936,-0.0018 0.5293,0.0187 0.7168,0.2351 0.2094,0.2406 0.4272,0.5462 0.664,0.9216 0.2392,-0.1227 0.5335,-0.3111 0.7728,-0.4338 0.3859,-0.21 0.7605,-0.4246 1.2022,-0.5276 0.2807,-0.0557 0.5764,-0.0812 0.7669,0.0357 0.3147,0.1514 0.8038,0.627 1.0472,0.9325"/>
   <path id="_194940408" class="fil1 str2" d="M114.686 25.52c1.6761,-0.8653 2.0948,-0.9431 2.4206,-0.9761 0.139,-0.0142 0.5696,0.0122 0.8659,0.206 0.3984,0.2607 0.8521,1.0196 0.8521,1.0196 0.9907,-0.5126 2.4262,-1.3966 3.2451,-1.1649 0.2623,0.0743 0.3475,0.1928 0.501,0.368l0.618 0.7101c0.419,-0.2075 0.8471,-0.4985 1.2661,-0.706 0.3972,-0.2334 0.6996,-0.3763 1.1549,-0.422 0.2936,-0.0019 0.5294,0.0186 0.7169,0.2351 0.2093,0.2405 0.4271,0.5462 0.6639,0.9215 0.2393,-0.1227 0.5335,-0.311 0.7728,-0.4338 0.3859,-0.2099 0.7605,-0.4246 1.2022,-0.5276 0.2807,-0.0556 0.5764,-0.0811 0.7669,0.0357 0.3147,0.1515 0.8038,0.6271 1.0472,0.9326"/>
   <path id="_194940600" class="fil1 str2" d="M130.574 25.7784c1.6761,-0.8653 2.0948,-0.9431 2.4206,-0.9761 0.139,-0.0141 0.5697,0.0123 0.8659,0.2061 0.3984,0.2607 0.8521,1.0196 0.8521,1.0196 0.9907,-0.5127 2.4262,-1.3966 3.2451,-1.165 0.2623,0.0743 0.3475,0.1929 0.501,0.368l0.618 0.7101c0.419,-0.2075 0.8471,-0.4984 1.2661,-0.7059 0.3972,-0.2334 0.6996,-0.3763 1.1549,-0.4221 0.2936,-0.0018 0.5294,0.0187 0.7169,0.2351 0.2093,0.2406 0.4271,0.5462 0.6639,0.9216 0.2393,-0.1227 0.5335,-0.3111 0.7728,-0.4338 0.3859,-0.21 0.7605,-0.4246 1.2022,-0.5276 0.2807,-0.0557 0.5764,-0.0812 0.767,0.0357 0.3146,0.1514 0.8038,0.627 1.0472,0.9325"/>
   <path id="_194940792" class="fil1 str2" d="M146.462 26.0369c1.6761,-0.8653 2.0949,-0.9431 2.4206,-0.9762 0.139,-0.0141 0.5697,0.0123 0.8659,0.2061 0.3984,0.2607 0.8522,1.0196 0.8522,1.0196 0.9906,-0.5126 2.4261,-1.3966 3.245,-1.1649 0.2624,0.0743 0.3476,0.1928 0.501,0.368l0.618 0.7101c0.419,-0.2075 0.8471,-0.4985 1.2661,-0.706 0.3972,-0.2334 0.6997,-0.3763 1.1549,-0.422 0.2936,-0.0019 0.5294,0.0186 0.7169,0.2351 0.2093,0.2405 0.4271,0.5462 0.6639,0.9215"/>
  </g>
  <g id="_195128968">
   <path id="_194941752" class="fil1 str2" d="M47.4926 21.2075c1.6762,-0.8653 2.0949,-0.9431 2.4207,-0.9761 0.139,-0.0141 0.5696,0.0123 0.8659,0.2061 0.3984,0.2606 0.8521,1.0196 0.8521,1.0196 0.9906,-0.5127 2.4261,-1.3967 3.245,-1.165 0.2624,0.0743 0.3476,0.1928 0.501,0.368l0.6181 0.7101c0.419,-0.2075 0.847,-0.4984 1.266,-0.7059 0.3973,-0.2334 0.6997,-0.3763 1.1549,-0.4221 0.2937,-0.0018 0.5294,0.0186 0.7169,0.2351 0.2094,0.2406 0.4271,0.5462 0.664,0.9216 0.2392,-0.1227 0.5334,-0.3111 0.7728,-0.4338 0.3859,-0.21 0.7605,-0.4246 1.2022,-0.5276 0.2807,-0.0557 0.5763,-0.0812 0.7669,0.0357 0.3146,0.1514 0.8038,0.627 1.0472,0.9325"/>
   <path id="_194942520" class="fil1 str2" d="M63.4722 21.3986c1.6762,-0.8654 2.0949,-0.9432 2.4207,-0.9762 0.139,-0.0141 0.5696,0.0123 0.8659,0.2061 0.3984,0.2607 0.8521,1.0196 0.8521,1.0196 0.9906,-0.5126 2.4261,-1.3966 3.245,-1.1649 0.2624,0.0743 0.3476,0.1928 0.501,0.3679l0.6181 0.7101c0.419,-0.2075 0.8471,-0.4984 1.2661,-0.7059 0.3972,-0.2334 0.6996,-0.3763 1.1549,-0.422 0.2936,-0.0019 0.5293,0.0186 0.7168,0.235 0.2094,0.2406 0.4272,0.5462 0.664,0.9216 0.2392,-0.1227 0.5335,-0.3111 0.7728,-0.4338 0.3859,-0.21 0.7605,-0.4246 1.2022,-0.5276 0.2807,-0.0557 0.5764,-0.0812 0.7669,0.0357 0.3147,0.1514 0.8038,0.627 1.0472,0.9325"/>
   <path id="_194942712" class="fil1 str2" d="M79.36 21.657c1.6761,-0.8653 2.0949,-0.9431 2.4207,-0.9761 0.1389,-0.0142 0.5696,0.0122 0.8659,0.206 0.3984,0.2607 0.8521,1.0197 0.8521,1.0197 0.9906,-0.5127 2.4261,-1.3967 3.245,-1.165 0.2624,0.0743 0.3476,0.1928 0.501,0.368l0.6181 0.7101c0.419,-0.2075 0.847,-0.4985 1.266,-0.706 0.3973,-0.2333 0.6997,-0.3763 1.1549,-0.422 0.2936,-0.0019 0.5294,0.0186 0.7169,0.2351 0.2094,0.2405 0.4271,0.5462 0.664,0.9215 0.2392,-0.1227 0.5334,-0.311 0.7727,-0.4338 0.3859,-0.2099 0.7606,-0.4246 1.2023,-0.5276 0.2807,-0.0556 0.5763,-0.0811 0.7669,0.0357 0.3146,0.1515 0.8038,0.6271 1.0472,0.9326"/>
   <path id="_194942904" class="fil1 str2" d="M95.2478 21.9154c1.6761,-0.8653 2.0949,-0.9431 2.4206,-0.9761 0.139,-0.0141 0.5697,0.0123 0.8659,0.2061 0.3984,0.2607 0.8522,1.0196 0.8522,1.0196 0.9906,-0.5126 2.4261,-1.3966 3.245,-1.1649 0.2624,0.0743 0.3476,0.1928 0.501,0.3679l0.618 0.7101c0.419,-0.2075 0.8471,-0.4984 1.2661,-0.7059 0.3972,-0.2334 0.6997,-0.3763 1.1549,-0.422 0.2936,-0.0019 0.5294,0.0186 0.7169,0.235 0.2093,0.2406 0.4271,0.5462 0.6639,0.9216 0.2393,-0.1227 0.5335,-0.3111 0.7728,-0.4338 0.3859,-0.21 0.7606,-0.4246 1.2023,-0.5276 0.2806,-0.0557 0.5763,-0.0812 0.7669,0.0357 0.3146,0.1514 0.8038,0.627 1.0472,0.9325"/>
   <path id="_194943096" class="fil1 str2" d="M111.136 22.1739c1.6761,-0.8653 2.0949,-0.9431 2.4206,-0.9761 0.139,-0.0142 0.5697,0.0122 0.8659,0.206 0.3984,0.2607 0.8521,1.0196 0.8521,1.0196 0.9907,-0.5126 2.4262,-1.3966 3.2451,-1.1649 0.2623,0.0743 0.3475,0.1928 0.501,0.368l0.618 0.7101c0.419,-0.2075 0.8471,-0.4985 1.2661,-0.706 0.3972,-0.2334 0.6996,-0.3763 1.1549,-0.422 0.2936,-0.0019 0.5294,0.0186 0.7169,0.2351 0.2093,0.2405 0.4271,0.5462 0.6639,0.9215 0.2393,-0.1227 0.5335,-0.311 0.7728,-0.4338 0.3859,-0.2099 0.7605,-0.4246 1.2022,-0.5276 0.2807,-0.0556 0.5764,-0.0811 0.767,0.0357 0.3146,0.1515 0.8038,0.6271 1.0472,0.9326"/>
   <path id="_194943288" class="fil1 str2" d="M127.024 22.4323c1.6761,-0.8653 2.0949,-0.9431 2.4206,-0.9761 0.139,-0.0141 0.5697,0.0123 0.8659,0.2061 0.3984,0.2607 0.8522,1.0196 0.8522,1.0196 0.9906,-0.5127 2.4261,-1.3966 3.245,-1.1649 0.2624,0.0743 0.3476,0.1928 0.501,0.3679l0.618 0.7101c0.419,-0.2075 0.8471,-0.4984 1.2661,-0.7059 0.3973,-0.2334 0.6997,-0.3763 1.1549,-0.4221 0.2936,-0.0018 0.5294,0.0187 0.7169,0.2351 0.2093,0.2406 0.4271,0.5462 0.6639,0.9216 0.2393,-0.1227 0.5335,-0.3111 0.7728,-0.4338 0.3859,-0.21 0.7606,-0.4246 1.2023,-0.5276 0.2807,-0.0557 0.5763,-0.0812 0.7669,0.0357 0.3146,0.1514 0.8038,0.627 1.0472,0.9325"/>
   <path id="_194943480" class="fil1 str2" d="M142.911 22.6908c1.6762,-0.8653 2.0949,-0.9431 2.4207,-0.9762 0.139,-0.0141 0.5696,0.0123 0.8659,0.2061 0.3984,0.2607 0.8521,1.0196 0.8521,1.0196 0.9906,-0.5126 2.4261,-1.3966 3.245,-1.1649 0.2624,0.0743 0.3476,0.1928 0.501,0.368l0.6181 0.7101c0.419,-0.2075 0.847,-0.4985 1.266,-0.706 0.3973,-0.2334 0.6997,-0.3763 1.1549,-0.422 0.2937,-0.0019 0.5294,0.0186 0.7169,0.2351 0.2094,0.2405 0.4271,0.5462 0.664,0.9215"/>
  </g>
  <g id="_194941560">
   <path id="_194944824" class="fil1 str2" d="M44.6456 18.3307c1.6761,-0.8653 2.0949,-0.9432 2.4207,-0.9762 0.1389,-0.0141 0.5696,0.0123 0.8659,0.2061 0.3984,0.2607 0.8521,1.0196 0.8521,1.0196 0.9906,-0.5126 2.4261,-1.3966 3.245,-1.1649 0.2624,0.0743 0.3476,0.1928 0.501,0.368l0.6181 0.7101c0.419,-0.2075 0.847,-0.4985 1.266,-0.706 0.3973,-0.2334 0.6997,-0.3763 1.1549,-0.422 0.2936,-0.0019 0.5294,0.0186 0.7169,0.235 0.2094,0.2406 0.4271,0.5462 0.6639,0.9216 0.2393,-0.1227 0.5335,-0.311 0.7728,-0.4338 0.3859,-0.21 0.7606,-0.4246 1.2023,-0.5276 0.2807,-0.0556 0.5763,-0.0812 0.7669,0.0357 0.3146,0.1515 0.8038,0.6271 1.0472,0.9325"/>
   <path id="_194945016" class="fil1 str2" d="M60.6252 18.5217c1.6762,-0.8653 2.0949,-0.9432 2.4207,-0.9762 0.139,-0.0141 0.5696,0.0123 0.8659,0.2061 0.3984,0.2607 0.8521,1.0196 0.8521,1.0196 0.9906,-0.5126 2.4261,-1.3966 3.245,-1.1649 0.2624,0.0743 0.3476,0.1928 0.501,0.368l0.6181 0.7101c0.419,-0.2075 0.847,-0.4985 1.266,-0.706 0.3973,-0.2334 0.6997,-0.3763 1.1549,-0.422 0.2937,-0.0019 0.5294,0.0186 0.7169,0.2351 0.2094,0.2405 0.4271,0.5462 0.664,0.9215 0.2392,-0.1227 0.5334,-0.311 0.7728,-0.4338 0.3859,-0.21 0.7605,-0.4246 1.2022,-0.5276 0.2807,-0.0556 0.5763,-0.0811 0.7669,0.0357 0.3146,0.1515 0.8038,0.6271 1.0472,0.9326"/>
   <path id="_194945208" class="fil1 str2" d="M76.513 18.7801c1.6761,-0.8653 2.0949,-0.9431 2.4206,-0.9761 0.139,-0.0141 0.5697,0.0123 0.8659,0.2061 0.3984,0.2606 0.8522,1.0196 0.8522,1.0196 0.9906,-0.5127 2.4261,-1.3967 3.245,-1.165 0.2624,0.0743 0.3476,0.1928 0.501,0.368l0.618 0.7101c0.419,-0.2075 0.8471,-0.4984 1.2661,-0.7059 0.3973,-0.2334 0.6997,-0.3764 1.1549,-0.4221 0.2936,-0.0018 0.5294,0.0186 0.7169,0.2351 0.2093,0.2406 0.4271,0.5462 0.6639,0.9216 0.2393,-0.1227 0.5335,-0.3111 0.7728,-0.4338 0.3859,-0.21 0.7606,-0.4246 1.2023,-0.5276 0.2807,-0.0557 0.5763,-0.0812 0.7669,0.0357 0.3146,0.1514 0.8038,0.627 1.0472,0.9325"/>
   <path id="_194945400" class="fil1 str2" d="M92.4008 19.0386c1.6761,-0.8653 2.0949,-0.9432 2.4206,-0.9762 0.139,-0.0141 0.5697,0.0123 0.8659,0.2061 0.3984,0.2607 0.8521,1.0196 0.8521,1.0196 0.9907,-0.5126 2.4262,-1.3966 3.2451,-1.1649 0.2624,0.0743 0.3476,0.1928 0.501,0.368l0.618 0.7101c0.419,-0.2075 0.8471,-0.4985 1.2661,-0.706 0.3972,-0.2334 0.6997,-0.3763 1.1549,-0.422 0.2936,-0.0019 0.5294,0.0186 0.7169,0.2351 0.2093,0.2405 0.4271,0.5461 0.6639,0.9215 0.2393,-0.1227 0.5335,-0.311 0.7728,-0.4338 0.3859,-0.21 0.7606,-0.4246 1.2023,-0.5276 0.2806,-0.0556 0.5763,-0.0811 0.7669,0.0357 0.3146,0.1515 0.8038,0.6271 1.0472,0.9325"/>
   <path id="_194945592" class="fil1 str2" d="M108.289 19.297c1.6761,-0.8653 2.0948,-0.9431 2.4206,-0.9761 0.139,-0.0142 0.5696,0.0123 0.8659,0.2061 0.3984,0.2606 0.8521,1.0196 0.8521,1.0196 0.9907,-0.5127 2.4261,-1.3967 3.2451,-1.165 0.2623,0.0743 0.3475,0.1928 0.501,0.368l0.618 0.7101c0.419,-0.2075 0.8471,-0.4984 1.2661,-0.7059 0.3972,-0.2334 0.6996,-0.3764 1.1549,-0.4221 0.2936,-0.0018 0.5294,0.0186 0.7169,0.2351 0.2093,0.2406 0.4271,0.5462 0.6639,0.9216 0.2392,-0.1227 0.5335,-0.3111 0.7728,-0.4338 0.3859,-0.21 0.7605,-0.4246 1.2022,-0.5276 0.2807,-0.0557 0.5764,-0.0812 0.7669,0.0357 0.3147,0.1514 0.8038,0.627 1.0472,0.9325"/>
   <path id="_194947128" class="fil1 str2" d="M124.177 19.5555c1.6761,-0.8653 2.0949,-0.9432 2.4206,-0.9762 0.139,-0.0141 0.5697,0.0123 0.8659,0.2061 0.3984,0.2607 0.8522,1.0196 0.8522,1.0196 0.9906,-0.5126 2.4261,-1.3966 3.245,-1.1649 0.2624,0.0743 0.3476,0.1928 0.501,0.368l0.618 0.7101c0.419,-0.2075 0.8471,-0.4985 1.2661,-0.706 0.3973,-0.2334 0.6997,-0.3763 1.1549,-0.422 0.2936,-0.0019 0.5294,0.0186 0.7169,0.2351 0.2093,0.2405 0.4271,0.5461 0.6639,0.9215 0.2393,-0.1227 0.5335,-0.311 0.7728,-0.4338 0.3859,-0.21 0.7606,-0.4246 1.2023,-0.5276 0.2807,-0.0556 0.5763,-0.0811 0.7669,0.0357 0.3146,0.1515 0.8038,0.6271 1.0472,0.9325"/>
   <path id="_194947320" class="fil1 str2" d="M140.064 19.8139c1.6762,-0.8653 2.0949,-0.9431 2.4207,-0.9761 0.139,-0.0142 0.5696,0.0123 0.8659,0.2061 0.3984,0.2606 0.8521,1.0196 0.8521,1.0196 0.9906,-0.5127 2.4261,-1.3967 3.245,-1.165 0.2624,0.0743 0.3476,0.1928 0.501,0.368l0.6181 0.7101c0.419,-0.2075 0.847,-0.4984 1.266,-0.7059 0.3973,-0.2334 0.6997,-0.3764 1.1549,-0.4221 0.2937,-0.0018 0.5294,0.0186 0.7169,0.2351 0.2094,0.2406 0.4271,0.5462 0.664,0.9215"/>
  </g>
  <line class="fil1 str2" x1="85.4531" y1="54.5479" x2="46.2964" y2= "16.1399" />
  <line class="fil1 str2" x1="89.842" y1="54.5774" x2="50.6853" y2= "16.1693" />
  <line class="fil1 str2" x1="93.8341" y1="54.7242" x2="54.6774" y2= "16.3161" />
  <line class="fil1 str2" x1="97.4287" y1="54.9293" x2="58.2717" y2= "16.5212" />
  <line class="fil1 str2" x1="101.413" y1="54.8458" x2="62.2564" y2= "16.4378" />
  <line class="fil1 str2" x1="105.924" y1="54.9025" x2="66.7672" y2= "16.4944" />
  <line class="fil1 str2" x1="109.859" y1="54.8758" x2="70.7021" y2= "16.4677" />
  <line class="fil1 str2" x1="113.398" y1="54.948" x2="74.2407" y2= "16.5399" />
  <line class="fil1 str2" x1="117.178" y1="54.8575" x2="78.0214" y2= "16.4494" />
  <line class="fil1 str2" x1="121.938" y1="55.1065" x2="82.7807" y2= "16.6984" />
  <line class="fil1 str2" x1="125.852" y1="55.1198" x2="86.6957" y2= "16.7118" />
  <line class="fil1 str2" x1="129.488" y1="55.1389" x2="90.332" y2= "16.7308" />
  <line class="fil1 str2" x1="133.316" y1="55.177" x2="94.1591" y2= "16.7689" />
  <line class="fil1 str2" x1="137.312" y1="55.1752" x2="98.1558" y2= "16.7671" />
  <line class="fil1 str2" x1="141.281" y1="55.3033" x2="102.124" y2= "16.8952" />
  <line class="fil1 str2" x1="145.155" y1="55.3486" x2="105.998" y2= "16.9406" />
  <line class="fil1 str2" x1="148.909" y1="55.279" x2="109.753" y2= "16.871" />
  <line class="fil1 str2" x1="153.178" y1="55.3284" x2="114.021" y2= "16.9204" />
  <line class="fil1 str2" x1="157.31" y1="55.4157" x2="118.153" y2= "17.0077" />
  <line class="fil1 str2" x1="160.983" y1="55.4903" x2="121.826" y2= "17.0823" />
  <line class="fil1 str2" x1="164.619" y1="55.521" x2="125.463" y2= "17.1129" />
  <line class="fil1 str2" x1="169.219" y1="55.5594" x2="130.062" y2= "17.1513" />
  <line class="fil1 str2" x1="173.237" y1="55.5302" x2="134.081" y2= "17.1221" />
  <line class="fil1 str2" x1="176.541" y1="55.5199" x2="137.385" y2= "17.1118" />
  <line class="fil1 str2" x1="180.832" y1="55.728" x2="141.675" y2= "17.32" />
  <line class="fil1 str2" x1="184.976" y1="55.7938" x2="145.819" y2= "17.3857" />
  <line class="fil1 str2" x1="188.494" y1="55.2238" x2="149.337" y2= "16.8157" />
  <line class="fil1 str2" x1="192.755" y1="56.6461" x2="153.649" y2= "16.8229" />
 </g>
</svg>
