<?xml version="1.0" encoding="UTF-8"?>
<!DOCTYPE svg PUBLIC "-//W3C//DTD SVG 1.1//EN" "http://www.w3.org/Graphics/SVG/1.1/DTD/svg11.dtd">
<!-- Creator: CorelDRAW -->
<svg xmlns="http://www.w3.org/2000/svg" xml:space="preserve" width="210mm" height="297mm" style="shape-rendering:geometricPrecision; text-rendering:geometricPrecision; image-rendering:optimizeQuality; fill-rule:evenodd; clip-rule:evenodd"
viewBox="0 0 210 297"
 xmlns:xlink="http://www.w3.org/1999/xlink">
 <defs>
  <style type="text/css">
   <![CDATA[
    .str0 {stroke:#333333;stroke-width:0.5}
    .fil1 {fill:none}
    .fil0 {fill:#96272E}
   ]]>
  </style>
 </defs>
 <g id="Слой_x0020_1">
  <metadata id="CorelCorpID_0Corel-Layer"/>
  <polygon class="fil0 str0" points="4.327,52.8332 42.696,0.9247 46.5858,6.5175 12.1856,53.4821 "/>
  <line class="fil1 str0" x1="17.0334" y1="46.8639" x2="16.3464" y2= "88.6145" />
  <line class="fil1 str0" x1="188.775" y1="56.562" x2="188.774" y2= "89.8903" />
  <line class="fil1 str0" x1="3.4024" y1="88.6145" x2="204.954" y2= "90.0014" />
  <line class="fil1 str0" x1="94.1516" y1="56.0635" x2="93.5088" y2= "89.2346" />
  <g id="_356424576">
   <polygon id="_362732120" class="fil0 str0" points="42.6032,1.3066 157.522,2.1942 196.412,56.6264 81.8656,55.307 "/>
   <polygon id="_362733944" class="fil0 str0" points="42.7075,1.2409 45.0986,4.539 159.667,5.197 157.522,2.1942 "/>
   <polygon id="_362734664" class="fil0 str0" points="54.2461,17.3199 56.358,15.4521 60.786,21.2482 58.8481,23.6494 56.9664,21.0612 55.4767,19.0123 "/>
   <polygon id="_362734856" class="fil0 str0" points="46.7691,7.0363 52.83,7.8366 57.6254,12.7501 54.2461,17.3199 51.392,13.3945 48.7818,9.8045 "/>
   <polygon id="_362735048" class="fil0 str0" points="84.0871,50.7617 93.46,50.7121 98.2554,55.6256 98.1275,55.4944 83.7916,55.3293 82.307,53.5907 "/>
   <polygon id="_362735240" class="fil0 str0" points="95.3036,47.8051 104.676,47.7554 109.472,52.6688 107.655,55.6466 98.1275,55.4944 93.5235,50.634 "/>
   <polygon id="_362735432" class="fil0 str0" points="106.52,44.8484 115.893,44.7988 120.688,49.7121 118.872,52.6899 109.317,53.0374 104.74,47.6772 "/>
   <polygon id="_362735624" class="fil0 str0" points="117.737,41.8917 127.109,41.8421 131.905,46.7555 130.088,49.7333 120.534,50.0807 115.956,44.7207 "/>
   <polygon id="_362735816" class="fil0 str0" points="128.953,38.9349 138.326,38.8853 143.121,43.7988 141.305,46.7766 131.75,47.124 127.173,41.7639 "/>
   <polygon id="_362736008" class="fil0 str0" points="140.169,35.9783 149.542,35.9286 154.338,40.8421 152.521,43.8198 142.967,44.1672 138.389,38.8072 "/>
   <polygon id="_362736200" class="fil0 str0" points="151.386,33.0216 160.759,32.9719 165.554,37.8853 163.738,40.8631 154.183,41.2106 149.606,35.8505 "/>
   <polygon id="_362736392" class="fil0 str0" points="162.602,30.0649 171.975,30.0153 176.771,34.9287 174.954,37.9065 165.4,38.2539 160.822,32.8939 "/>
   <polygon id="_362736584" class="fil0 str0" points="74.4926,45.4701 79.2671,45.5371 84.0626,50.4504 82.2461,53.4281 80.8428,53.6473 76.6465,48.1289 "/>
   <polygon id="_362736776" class="fil0 str0" points="81.1107,42.6299 90.4836,42.5803 95.279,47.4938 93.4626,50.4715 83.9081,50.819 79.3306,45.4589 "/>
   <polygon id="_362736968" class="fil0 str0" points="92.3272,39.6732 101.7,39.6236 106.496,44.537 104.679,47.5148 95.1245,47.8622 90.5471,42.5022 "/>
   <polygon id="_362737160" class="fil0 str0" points="103.544,36.7166 112.917,36.6669 117.712,41.5803 115.896,44.5581 106.341,44.9055 101.763,39.5455 "/>
   <polygon id="_362737352" class="fil0 str0" points="114.76,33.7599 124.133,33.7103 128.928,38.6236 127.112,41.6014 117.557,41.9489 112.98,36.5887 "/>
   <polygon id="_362737544" class="fil0 str0" points="125.977,30.8031 135.349,30.7535 140.145,35.667 138.328,38.6448 128.774,38.9922 124.197,33.6321 "/>
   <polygon id="_362737736" class="fil0 str0" points="137.193,27.8464 146.566,27.7968 151.361,32.7103 149.545,35.688 139.99,36.0354 135.413,30.6754 "/>
   <polygon id="_362737928" class="fil0 str0" points="148.41,24.8898 157.782,24.8401 162.578,29.7535 160.761,32.7313 151.207,33.0787 146.629,27.7187 "/>
   <polygon id="_362738120" class="fil0 str0" points="159.626,21.9331 168.999,21.8834 173.794,26.7968 171.978,29.7746 162.423,30.1221 157.846,24.7619 "/>
   <polygon id="_362738312" class="fil0 str0" points="68.8709,37.4345 76.2907,37.4051 81.0862,42.3186 79.2697,45.2963 74.7157,45.4731 70.5992,39.8114 "/>
   <polygon id="_362738504" class="fil0 str0" points="78.1343,34.4981 87.5072,34.4485 92.3026,39.3618 90.4862,42.3396 80.9317,42.6872 76.3542,37.327 "/>
   <polygon id="_362738696" class="fil0 str0" points="89.3508,31.5414 98.7237,31.4918 103.519,36.4053 101.703,39.383 92.1481,39.7304 87.5707,34.3704 "/>
   <polygon id="_362738888" class="fil0 str0" points="100.567,28.5847 109.94,28.5351 114.736,33.4485 112.919,36.4263 103.365,36.7737 98.7871,31.4137 "/>
   <polygon id="_362739080" class="fil0 str0" points="111.784,25.6281 121.157,25.5783 125.952,30.4918 124.136,33.4696 114.581,33.817 110.004,28.4569 "/>
   <polygon id="_362739272" class="fil0 str0" points="123,22.6713 132.373,22.6218 137.168,27.5351 135.352,30.5128 125.798,30.8604 121.22,25.5002 "/>
   <polygon id="_362739464" class="fil0 str0" points="134.217,19.7146 143.589,19.665 148.385,24.5785 146.569,27.5562 137.014,27.9037 132.437,22.5436 "/>
   <polygon id="_362739656" class="fil0 str0" points="145.433,16.7579 154.806,16.7083 159.601,21.6217 157.785,24.5995 148.23,24.9469 143.653,19.5869 "/>
   <polygon id="_362739848" class="fil0 str0" points="156.65,13.8013 166.022,13.7516 169.806,19.3867 169.001,21.6428 159.447,21.9902 154.869,16.6302 "/>
   <polygon id="_362740040" class="fil0 str0" points="63.9415,29.3229 73.3143,29.2733 78.1098,34.1868 76.2933,37.1646 68.8709,37.4345 63.9961,30.7298 "/>
   <polygon id="_362740232" class="fil0 str0" points="75.1579,26.3663 84.5308,26.3166 89.3262,31.2301 87.5098,34.2078 77.9553,34.5552 73.3778,29.1952 "/>
   <polygon id="_362740424" class="fil0 str0" points="86.3744,23.4096 95.7473,23.36 100.543,28.2733 98.7262,31.2511 89.1717,31.5986 84.5943,26.2385 "/>
   <polygon id="_362740616" class="fil0 str0" points="97.5908,20.4529 106.964,20.4033 111.759,25.3167 109.943,28.2945 100.388,28.6419 95.8107,23.2819 "/>
   <polygon id="_362740808" class="fil0 str0" points="108.807,17.4961 118.18,17.4466 122.976,22.36 121.159,25.3378 111.605,25.6852 107.027,20.3251 "/>
   <polygon id="_362741000" class="fil0 str0" points="120.024,14.5396 129.397,14.4898 134.192,19.4033 132.376,22.381 122.821,22.7285 118.244,17.3684 "/>
   <polygon id="_362741192" class="fil0 str0" points="131.24,11.5828 140.613,11.5332 145.409,16.4465 143.592,19.4243 134.038,19.7719 129.46,14.4117 "/>
   <polygon id="_362741384" class="fil0 str0" points="142.457,8.6261 151.83,8.5765 156.625,13.49 154.809,16.4677 145.254,16.8151 140.677,11.4551 "/>
   <polygon id="_362741576" class="fil0 str0" points="153.673,5.6694 160.268,5.6345 164.416,11.8429 165.618,13.5259 156.471,13.8584 151.893,8.4984 "/>
   <polygon id="_362741768" class="fil0 str0" points="60.9651,21.1911 70.3379,21.1415 75.1334,26.055 73.3169,29.0328 63.7624,29.3802 59.185,24.0201 "/>
   <polygon id="_362741960" class="fil0 str0" points="72.1815,18.2344 81.5544,18.1848 86.3498,23.0983 84.5334,26.076 74.9789,26.4234 70.4014,21.0634 "/>
   <polygon id="_362742152" class="fil0 str0" points="83.398,15.2778 92.7709,15.2281 97.5663,20.1415 95.7498,23.1193 86.1953,23.4667 81.6179,18.1067 "/>
   <polygon id="_362742344" class="fil0 str0" points="94.6145,12.3211 103.987,12.2715 108.783,17.1848 106.966,20.1626 97.4118,20.5101 92.8343,15.1499 "/>
   <polygon id="_362742536" class="fil0 str0" points="105.831,9.3644 115.204,9.3148 119.999,14.2282 118.183,17.206 108.628,17.5534 104.051,12.1934 "/>
   <polygon id="_362742728" class="fil0 str0" points="117.047,6.4076 126.42,6.358 131.216,11.2715 129.399,14.2493 119.845,14.5967 115.267,9.2366 "/>
   <polygon id="_362742920" class="fil0 str0" points="128.724,5.0194 139.275,5.0799 142.432,8.3148 140.616,11.2925 131.061,11.6399 126.484,6.2799 "/>
   <polygon id="_362743112" class="fil0 str0" points="142.523,5.0986 148.809,5.1345 153.649,5.358 151.832,8.3358 142.278,8.6833 139.275,5.0799 "/>
   <polygon id="_362743304" class="fil0 str0" points="57.9887,13.0593 67.3615,13.0098 72.157,17.9231 70.3405,20.901 60.786,21.2484 56.2086,15.8882 "/>
   <polygon id="_362743496" class="fil0 str0" points="69.2051,10.1026 78.578,10.053 83.3734,14.9665 81.557,17.9442 72.0025,18.2916 67.425,12.9316 "/>
   <polygon id="_362743688" class="fil0 str0" points="80.4216,7.1459 89.7945,7.0963 94.5899,12.0097 92.7735,14.9875 83.2189,15.3349 78.6415,9.9749 "/>
   <polygon id="_362743880" class="fil0 str0" points="91.7018,4.8067 101.1,4.8609 105.806,9.053 103.99,12.0308 94.4354,12.3782 89.8579,7.0182 "/>
   <polygon id="_362744072" class="fil0 str0" points="105.236,4.8842 115.71,5.1084 117.023,6.0963 115.206,9.0741 105.652,9.4216 101.1,4.861 "/>
   <polygon id="_362744264" class="fil0 str0" points="117.775,4.9565 123.311,4.9882 128.724,5.0194 126.423,6.1175 116.868,6.4649 115.569,4.9438 "/>
   <polygon id="_362744456" class="fil0 str0" points="55.0123,4.9276 64.3851,4.8778 69.1806,9.7913 67.3641,12.769 57.8096,13.1165 53.2322,7.7564 "/>
   <polygon id="_362744648" class="fil0 str0" points="67.6412,4.6685 78.3429,4.73 80.397,6.8345 78.5806,9.8124 69.0261,10.1599 64.4486,4.7997 "/>
   <polygon id="_362744840" class="fil0 str0" points="80.0928,4.7401 87.6126,4.7833 91.7019,4.8067 89.7971,6.8557 80.2425,7.2031 78.3429,4.73 "/>
   <polygon id="_362745032" class="fil0 str0" points="109.506,52.7549 118.879,52.7052 122.357,55.7834 120.051,55.7469 112.171,55.6562 107.726,55.5838 "/>
   <polygon id="_362745224" class="fil0 str0" points="120.723,49.7982 130.095,49.7486 134.891,54.6619 133.983,56.151 121.868,55.7678 118.942,52.6272 "/>
   <polygon id="_362745416" class="fil0 str0" points="131.939,46.8414 141.312,46.7919 146.107,51.7053 144.291,54.6831 134.736,55.0305 130.159,49.6704 "/>
   <polygon id="_362745608" class="fil0 str0" points="143.155,43.8847 152.528,43.8351 157.324,48.7486 155.507,51.7263 145.953,52.0737 141.375,46.7137 "/>
   <polygon id="_362745800" class="fil0 str0" points="154.372,40.9281 163.745,40.8784 168.54,45.7918 166.724,48.7696 157.169,49.117 152.592,43.757 "/>
   <polygon id="_362745992" class="fil0 str0" points="165.588,37.9714 174.961,37.9218 179.757,42.8351 177.94,45.813 168.386,46.1604 163.808,40.8003 "/>
   <polygon id="_362746184" class="fil0 str0" points="176.805,35.0147 181.182,34.9914 184.862,40.4606 186.877,43.2805 179.602,43.2037 175.025,37.8437 "/>
   <polygon id="_362746376" class="fil0 str0" points="146.087,52.1882 155.46,52.1386 160.255,56.426 157.513,56.1784 149.28,56.0836 144.086,56.0238 "/>
   <polygon id="_362746568" class="fil0 str0" points="157.303,49.2315 166.676,49.1819 171.472,54.0954 169.524,56.3167 159.651,56.4328 155.523,52.0605 "/>
   <polygon id="_362746760" class="fil0 str0" points="168.52,46.2749 177.893,46.2252 182.688,51.1386 180.872,54.1164 171.317,54.4638 166.74,49.1038 "/>
   <polygon id="_362746952" class="fil0 str0" points="179.736,43.3182 187.06,43.537 191.031,49.0945 192.088,51.1597 182.534,51.5072 177.956,46.147 "/>
  </g>
 </g>
</svg>
