<?xml version="1.0" encoding="UTF-8"?>
<!DOCTYPE svg PUBLIC "-//W3C//DTD SVG 1.1//EN" "http://www.w3.org/Graphics/SVG/1.1/DTD/svg11.dtd">
<!-- Creator: CorelDRAW -->
<svg xmlns="http://www.w3.org/2000/svg" xml:space="preserve" width="210mm" height="297mm" style="shape-rendering:geometricPrecision; text-rendering:geometricPrecision; image-rendering:optimizeQuality; fill-rule:evenodd; clip-rule:evenodd"
viewBox="0 0 210 297"
 xmlns:xlink="http://www.w3.org/1999/xlink">
 <defs>
  <style type="text/css">
   <![CDATA[
    .str0 {stroke:#2B2A29;stroke-width:0.5}
    .str1 {stroke:#333333;stroke-width:0.5}
    .fil1 {fill:none}
    .fil0 {fill:#999999}
   ]]>
  </style>
 </defs>
 <g id="Слой_x0020_1">
  <metadata id="CorelCorpID_0Corel-Layer"/>
  <polygon class="fil0 str0" points="7.6286,56.2549 42.9974,9.868 47.8679,13.5328 16.208,55.4495 "/>
  <line class="fil1 str0" x1="16.995" y1="54.4075" x2="16.3464" y2= "88.6145" />
  <line class="fil1 str0" x1="93.0875" y1="54.9178" x2="93.5462" y2= "89.5391" />
  <line class="fil1 str0" x1="188.775" y1="55.2915" x2="188.775" y2= "89.0768" />
  <line class="fil1 str0" x1="3.4024" y1="88.6145" x2="204.954" y2= "90.0014" />
 </g>
 <g id="_355463808">
  <path id="_355480200" class="fil0 str1" d="M79.7493 55.5394l-37.1461 -45.8669 116.065 0.7629 36.707 43.6551c-0.613,0.0044 -2.2924,1.6745 -3.0059,1.7111 -0.8334,0.0431 -0.7202,-1.5292 -1.6929,-1.2526 -0.8341,0.2372 -2.0031,1.2136 -2.7171,1.274 -0.8334,0.0706 -0.6456,-1.3098 -1.4933,-1.198 -0.678,0.0896 -1.765,0.9601 -2.3948,0.9907 -0.7823,0.0379 -0.5153,-1.2019 -1.3271,-1.1274 -0.6485,0.0598 -2.1466,1.2744 -2.7692,1.2991 -0.9199,0.0367 -0.6817,-1.4438 -1.6166,-1.3775 -0.7713,0.0548 -2.0701,1.2689 -2.8274,1.2991 -0.727,0.0287 -0.6248,-1.2481 -1.3565,-1.2131 -0.6586,0.0312 -1.9303,1.0002 -2.5815,1.0205 -0.7489,0.0234 -0.4661,-1.1307 -1.2224,-1.1019 -0.6504,0.0246 -2.1419,1.173 -2.7881,1.1886 -0.7967,0.0192 -0.5488,-1.3508 -1.3522,-1.3253 -0.7217,0.0229 -2.5261,1.3103 -3.2437,1.3294 -0.8167,0.0219 -0.5655,-1.2295 -1.3769,-1.211 -0.5843,0.0133 -1.8834,0.9867 -2.4632,0.9961 -0.7062,0.0116 -0.3898,-1.1668 -1.0958,-1.1529 -0.7148,0.014 -2.3172,1.307 -3.0254,1.315 -0.8529,0.0097 -0.5646,-1.3985 -1.4166,-1.3862 -0.7814,0.0113 -2.3263,1.3229 -3.1016,1.3281 -0.8016,0.0056 -0.4559,-1.2276 -1.2573,-1.2215 -0.6494,0.0049 -1.9982,1.0152 -2.6448,1.017 -0.6609,0.0016 -0.3278,-1.1661 -0.989,-1.1641 -0.6164,0.002 -2.2846,1.2577 -2.8981,1.2565 -0.8211,-0.0016 -0.664,-1.2659 -1.4839,-1.2676 -0.7523,-0.0017 -2.4137,1.2746 -3.1617,1.2683 -0.6661,-0.0057 -0.5027,-1.2176 -1.1674,-1.2239 -0.627,-0.0059 -2.082,0.9631 -2.7056,0.9544 -0.6025,-0.0086 -0.4061,-1.0892 -1.0069,-1.0986 -0.7423,-0.0116 -2.3737,1.2288 -3.1105,1.2124 -0.787,-0.0176 -0.5022,-1.2683 -1.2855,-1.2881 -0.7572,-0.0191 -2.3871,1.356 -3.1384,1.3311 -0.7294,-0.0239 -0.6264,-1.1882 -1.3517,-1.2154 -0.6408,-0.0241 -1.9487,0.9765 -2.5851,0.9481 -0.6099,-0.0271 -0.4247,-1.0695 -1.0315,-1.0994 -0.6108,-0.03 -2.301,1.2836 -2.907,1.2491 -0.7484,-0.0428 -0.6572,-1.2774 -1.3995,-1.3252 -0.7401,-0.0476 -2.5508,1.3842 -3.2826,1.3286 -0.6703,-0.0508 -0.5482,-1.1595 -1.2122,-1.2159 -0.6394,-0.0541 -1.9386,1.0105 -2.5711,0.9497 -0.605,-0.0582 -0.5135,-1.0316 -1.1126,-1.0951 -0.6873,-0.0729 -2.3235,1.2824 -3.0016,1.2003 -0.6905,-0.0835 -0.4978,-1.2524 -1.1796,-1.3445 -0.6609,-0.0892 -2.7,1.4955 -3.3506,1.3959 -0.6172,-0.0944 -0.5292,-1.1194 -1.1376,-1.2224 -0.6186,-0.1048 -2.199,1.0668 -2.8073,0.9515 -0.492,-0.0933 -0.2908,-0.9819 -0.7761,-1.0817 -0.6474,-0.1333 -2.6807,1.4276 -3.3144,1.2803 -0.6184,-0.1439 -0.5542,-1.0415 -1.1598,-1.1985 -0.6842,-0.1772 -2.8435,1.6731 -3.5087,1.476 -0.558,-0.1652 -0.6109,-0.9038 -1.1556,-1.0831 -0.6621,-0.2178 -2.4953,1.3499 -3.1357,1.1086 -0.6981,-0.2631 -0.6757,-0.8357 -1.6942,-0.7695l-2.2349 1.0298 0.0004 0 0.0004 0z"/>
  <line id="_355463304" class="fil1 str1" x1="68.5489" y1="9.9323" x2="104.611" y2= "54.3291" />
  <line id="_355466736" class="fil1 str1" x1="93.344" y1="9.9057" x2="129.406" y2= "54.3026" />
  <line id="_355464360" class="fil1 str1" x1="118.139" y1="9.8792" x2="154.201" y2= "54.2761" />
  <line id="_355461456" class="fil1 str1" x1="142.934" y1="9.8527" x2="178.996" y2= "54.2496" />
  <g id="_187780872">
   <path id="_187782408" class="fil1 str1" d="M66.5711 39.3938c2.5331,-3.3735 2.8482,1.3692 4.9481,-0.9868 0.9082,-1.0187 1.4071,-0.6351 2.0889,0.0458 0.9868,0.9859 1.3722,0.7933 2.3618,-0.624 0.434,-0.6216 1.2949,-0.7569 1.9039,0.0935 0.4843,0.6761 0.8751,0.6822 1.3024,0.7638"/>
   <path id="_187782312" class="fil1 str1" d="M79.0574 38.6138c0.8358,0.4163 1.1552,-0.6718 1.4209,-0.959 1.5828,-1.7107 1.7051,2.3021 3.6346,0.2879 0.908,-0.9476 1.4071,-0.5255 2.0888,0.2087 0.9869,1.063 1.3723,0.9003 2.3619,-0.4397 0.4339,-0.5877 1.2949,-0.6558 1.9039,0.242 0.4843,0.714 0.8751,0.7505 1.3024,0.8655"/>
   <path id="_187784328" class="fil1 str1" d="M91.6532 38.7648c0.8357,0.4165 1.1552,-0.6717 1.4208,-0.9589 1.5829,-1.7107 1.7051,2.3021 3.6346,0.2879 0.908,-0.9477 1.4071,-0.5255 2.0889,0.2088 0.9868,1.0629 1.3722,0.9002 2.3618,-0.4398 0.434,-0.5877 1.2949,-0.6559 1.9039,0.242 0.4843,0.7141 0.8751,0.7505 1.3024,0.8655"/>
   <path id="_187788792" class="fil1 str1" d="M104.249 38.916c0.8357,0.4163 1.1552,-0.6718 1.4209,-0.959 1.5828,-1.7107 1.705,2.3021 3.6346,0.2879 0.9079,-0.9476 1.407,-0.5254 2.0888,0.2089 0.9868,1.0628 1.3723,0.9002 2.3619,-0.4399 0.4339,-0.5877 1.2949,-0.6558 1.9039,0.242 0.4843,0.7141 0.875,0.7505 1.3023,0.8655"/>
   <path id="_187787064" class="fil1 str1" d="M116.845 39.0671c0.8358,0.4164 1.1552,-0.6717 1.4209,-0.9589 1.5828,-1.7108 1.7051,2.302 3.6346,0.2879 0.908,-0.9477 1.4071,-0.5256 2.0888,0.2087 0.9869,1.063 1.3723,0.9002 2.3619,-0.4398 0.4339,-0.5876 1.2949,-0.6557 1.9039,0.242 0.4843,0.7141 0.8751,0.7505 1.3024,0.8656"/>
   <path id="_187786368" class="fil1 str1" d="M129.44 39.2182c0.8357,0.4165 1.1552,-0.6718 1.4208,-0.959 1.5829,-1.7106 1.7051,2.3021 3.6346,0.2879 0.908,-0.9476 1.4071,-0.5254 2.0889,0.2089 0.9868,1.0628 1.3722,0.9002 2.3618,-0.4399 0.434,-0.5877 1.2949,-0.6558 1.9039,0.2421 0.4843,0.714 0.8751,0.7504 1.3024,0.8654"/>
   <path id="_187788384" class="fil1 str1" d="M142.036 39.3693c0.8357,0.4164 1.1552,-0.6717 1.4209,-0.9589 1.5828,-1.7108 1.705,2.302 3.6346,0.2879 0.9079,-0.9477 1.407,-0.5255 2.0888,0.2088 0.9868,1.0629 1.3723,0.9002 2.3619,-0.4399 0.4339,-0.5876 1.2949,-0.6557 1.9039,0.242 0.4843,0.7141 0.875,0.7506 1.3023,0.8656"/>
   <path id="_187787088" class="fil1 str1" d="M154.632 39.5205c0.8358,0.4164 1.1552,-0.6718 1.4209,-0.959 1.5828,-1.7107 1.7051,2.3021 3.6346,0.2879 0.908,-0.9476 1.4071,-0.5255 2.0888,0.2088 0.9869,1.063 1.3723,0.9002 2.3619,-0.4398 0.4339,-0.5877 1.2949,-0.6558 1.9039,0.242 0.4843,0.714 0.8751,0.7504 1.3024,0.8655"/>
   <path id="_187783872" class="fil1 str1" d="M167.227 39.6715c0.8357,0.4164 1.1552,-0.6717 1.4208,-0.9589 1.5829,-1.7107 1.7051,2.302 3.6346,0.2879 0.908,-0.9477 1.4071,-0.5255 2.0889,0.2088 0.9868,1.0629 1.3722,0.9002 2.3618,-0.4399 0.434,-0.5876 1.2949,-0.6557 1.9039,0.2421 0.4843,0.7141 0.8751,0.7505 1.3024,0.8655"/>
   <path id="_187787760" class="fil1 str1" d="M179.823 39.8227c0.8357,0.4164 1.2954,-2.0103 1.7541,-1.9675"/>
  </g>
  <g id="_187780872_0">
   <path id="_187782408_1" class="fil1 str1" d="M52.6922 21.6749c2.5331,-3.3735 2.8482,1.3692 4.9481,-0.9868 0.9082,-1.0187 1.4071,-0.6351 2.0889,0.0458 0.9868,0.9859 1.3722,0.7933 2.3618,-0.624 0.434,-0.6216 1.2949,-0.7569 1.9039,0.0935 0.4843,0.6761 0.8751,0.6821 1.3024,0.7638"/>
   <path id="_187782312_2" class="fil1 str1" d="M65.1785 20.8949c0.8358,0.4163 1.1552,-0.6718 1.4209,-0.959 1.5828,-1.7107 1.7051,2.3021 3.6346,0.2879 0.908,-0.9476 1.4071,-0.5255 2.0888,0.2087 0.9869,1.063 1.3723,0.9002 2.3619,-0.4397 0.4339,-0.5877 1.2949,-0.6558 1.9039,0.242 0.4843,0.714 0.8751,0.7505 1.3024,0.8655"/>
   <path id="_187784328_3" class="fil1 str1" d="M77.7743 21.0459c0.8357,0.4165 1.1552,-0.6717 1.4208,-0.9589 1.5829,-1.7107 1.7051,2.3021 3.6346,0.2879 0.908,-0.9477 1.4071,-0.5255 2.0889,0.2088 0.9868,1.0629 1.3722,0.9002 2.3618,-0.4398 0.434,-0.5877 1.2949,-0.6559 1.9039,0.242 0.4843,0.7141 0.8751,0.7505 1.3024,0.8655"/>
   <path id="_187788792_4" class="fil1 str1" d="M90.3701 21.1971c0.8357,0.4163 1.1552,-0.6718 1.4209,-0.959 1.5828,-1.7107 1.705,2.3021 3.6346,0.2879 0.9079,-0.9476 1.407,-0.5254 2.0888,0.2089 0.9868,1.0628 1.3723,0.9002 2.3619,-0.4399 0.4339,-0.5877 1.2949,-0.6558 1.9039,0.242 0.4843,0.7141 0.875,0.7505 1.3023,0.8655"/>
   <path id="_187787064_5" class="fil1 str1" d="M102.966 21.3482c0.8358,0.4164 1.1552,-0.6717 1.4209,-0.9589 1.5828,-1.7108 1.7051,2.302 3.6346,0.2879 0.908,-0.9477 1.4071,-0.5256 2.0888,0.2087 0.9869,1.063 1.3723,0.9002 2.3619,-0.4398 0.4339,-0.5876 1.2949,-0.6558 1.9039,0.242 0.4843,0.7141 0.8751,0.7505 1.3024,0.8656"/>
   <path id="_187786368_6" class="fil1 str1" d="M115.561 21.4993c0.8357,0.4165 1.1552,-0.6718 1.4208,-0.959 1.5829,-1.7106 1.7051,2.3021 3.6346,0.2879 0.908,-0.9476 1.4071,-0.5254 2.0889,0.2089 0.9868,1.0628 1.3722,0.9002 2.3618,-0.4399 0.434,-0.5877 1.2949,-0.6558 1.9039,0.2421 0.4843,0.714 0.8751,0.7504 1.3024,0.8654"/>
   <path id="_187788384_7" class="fil1 str1" d="M128.157 21.6504c0.8357,0.4164 1.1552,-0.6717 1.4209,-0.9589 1.5828,-1.7108 1.705,2.302 3.6346,0.2879 0.9079,-0.9477 1.407,-0.5255 2.0888,0.2088 0.9868,1.0629 1.3723,0.9002 2.3619,-0.4399 0.4339,-0.5876 1.2949,-0.6558 1.9039,0.242 0.4843,0.7141 0.875,0.7506 1.3023,0.8656"/>
   <path id="_187787088_8" class="fil1 str1" d="M140.753 21.8016c0.8358,0.4164 1.1552,-0.6718 1.4209,-0.959 1.5828,-1.7107 1.7051,2.3021 3.6346,0.2879 0.908,-0.9476 1.4071,-0.5255 2.0888,0.2088 0.9869,1.0629 1.3723,0.9002 2.3619,-0.4398 0.4339,-0.5877 1.2949,-0.6558 1.9039,0.242 0.4843,0.714 0.8751,0.7504 1.3024,0.8655"/>
   <path id="_187783872_9" class="fil1 str1" d="M153.348 21.9526c0.8357,0.4164 1.1552,-0.6717 1.4208,-0.9589 1.5829,-1.7107 1.7051,2.302 3.6346,0.2879 0.908,-0.9477 1.4071,-0.5255 2.0889,0.2088 0.9868,1.0629 1.3722,0.9002 2.3618,-0.4399 0.434,-0.5876 1.2949,-0.6558 1.9039,0.2421 0.4843,0.7141 0.8751,0.7505 1.3024,0.8655"/>
   <path id="_187787760_10" class="fil1 str1" d="M165.944 22.1038c0.8357,0.4164 1.2954,-2.0103 1.7541,-1.9675"/>
  </g>
 </g>
</svg>
