<?xml version="1.0" encoding="UTF-8"?>
<!DOCTYPE svg PUBLIC "-//W3C//DTD SVG 1.1//EN" "http://www.w3.org/Graphics/SVG/1.1/DTD/svg11.dtd">
<!-- Creator: CorelDRAW -->
<svg xmlns="http://www.w3.org/2000/svg" xml:space="preserve" width="210mm" height="297mm" style="shape-rendering:geometricPrecision; text-rendering:geometricPrecision; image-rendering:optimizeQuality; fill-rule:evenodd; clip-rule:evenodd"
viewBox="0 0 210 297"
 xmlns:xlink="http://www.w3.org/1999/xlink">
 <defs>
  <style type="text/css">
   <![CDATA[
    .str2 {stroke:#333333;stroke-width:0.25}
    .str0 {stroke:#2B2A29;stroke-width:0.5}
    .str1 {stroke:#333333;stroke-width:0.5}
    .fil1 {fill:none}
    .fil0 {fill:#9E312B}
   ]]>
  </style>
 </defs>
 <g id="Слой_x0020_1">
  <metadata id="CorelCorpID_0Corel-Layer"/>
  <polygon class="fil0 str0" points="4.327,52.8254 42.6032,1.726 46.5858,5.9555 12.1856,53.4821 "/>
  <line class="fil1 str0" x1="17.193" y1="46.5642" x2="16.3464" y2= "88.6145" />
  <line class="fil1 str0" x1="93.0986" y1="55.7554" x2="93.5462" y2= "89.5391" />
  <line class="fil1 str0" x1="188.775" y1="56.562" x2="188.774" y2= "89.8903" />
  <line class="fil1 str0" x1="3.4024" y1="88.6145" x2="204.954" y2= "90.0014" />
  <g id="_359313336">
   <polygon id="_352798608" class="fil0 str1" points="42.6032,1.7259 158.669,2.6153 196.412,56.6194 81.8656,55.3101 "/>
   <g>
    <g id="_197247856">
     <path id="_197247352" class="fil1 str2" d="M78.4504 49.6552c1.6761,-1.173 2.0949,-1.2785 2.4207,-1.3233 0.1389,-0.0191 0.5696,0.0166 0.8659,0.2794 0.3984,0.3534 0.8521,1.3821 0.8521,1.3821 0.9906,-0.6948 2.4261,-1.8932 3.245,-1.5791 0.2624,0.1007 0.3476,0.2614 0.501,0.4989l0.6181 0.9626c0.419,-0.2813 0.847,-0.6758 1.266,-0.9571 0.3973,-0.3164 0.6997,-0.5101 1.1549,-0.572 0.2936,-0.0026 0.5294,0.0252 0.7169,0.3187 0.2094,0.326 0.4271,0.7404 0.664,1.2491 0.2392,-0.1663 0.5334,-0.4215 0.7727,-0.588 0.3859,-0.2846 0.7606,-0.5756 1.2023,-0.7152 0.2807,-0.0754 0.5763,-0.11 0.7669,0.0484 0.3146,0.2053 0.8038,0.8501 1.0472,1.2642"/>
     <path id="_197248648" class="fil1 str2" d="M94.43 49.9141c1.6762,-1.173 2.0949,-1.2784 2.4207,-1.3232 0.139,-0.0192 0.5696,0.0166 0.8659,0.2793 0.3984,0.3534 0.8521,1.3823 0.8521,1.3823 0.9906,-0.695 2.4261,-1.8934 3.245,-1.5793 0.2624,0.1007 0.3476,0.2614 0.501,0.4989l0.6181 0.9626c0.419,-0.2813 0.847,-0.6758 1.266,-0.9569 0.3973,-0.3164 0.6997,-0.5103 1.1549,-0.5722 0.2937,-0.0026 0.5294,0.0252 0.7169,0.3187 0.2094,0.326 0.4271,0.7404 0.664,1.2492 0.2392,-0.1662 0.5334,-0.4216 0.7728,-0.5881 0.3859,-0.2845 0.7605,-0.5754 1.2022,-0.7152 0.2807,-0.0754 0.5763,-0.11 0.7669,0.0485 0.3146,0.2053 0.8038,0.85 1.0472,1.2641"/>
     <path id="_197247448" class="fil1 str2" d="M110.318 50.2646c1.6761,-1.173 2.0949,-1.2786 2.4207,-1.3234 0.1389,-0.0191 0.5696,0.0167 0.8658,0.2794 0.3984,0.3534 0.8522,1.3822 0.8522,1.3822 0.9906,-0.6949 2.4261,-1.8933 3.245,-1.5792 0.2624,0.1008 0.3476,0.2614 0.501,0.4988l0.6181 0.9626c0.4189,-0.2813 0.847,-0.6756 1.266,-0.9569 0.3973,-0.3164 0.6997,-0.5102 1.1549,-0.5721 0.2936,-0.0026 0.5294,0.0252 0.7169,0.3186 0.2093,0.3261 0.4271,0.7404 0.6639,1.2493 0.2393,-0.1663 0.5335,-0.4217 0.7728,-0.5881 0.3859,-0.2846 0.7606,-0.5756 1.2023,-0.7152 0.2807,-0.0755 0.5763,-0.1101 0.7669,0.0484 0.3146,0.2052 0.8038,0.85 1.0472,1.2641"/>
     <path id="_197250208" class="fil1 str2" d="M126.205 50.6149c1.6762,-1.1731 2.0949,-1.2785 2.4207,-1.3233 0.139,-0.0192 0.5696,0.0166 0.8659,0.2793 0.3984,0.3534 0.8521,1.3823 0.8521,1.3823 0.9906,-0.695 2.4261,-1.8934 3.245,-1.5793 0.2624,0.1008 0.3476,0.2614 0.501,0.4989l0.6181 0.9626c0.419,-0.2813 0.847,-0.6758 1.266,-0.9569 0.3973,-0.3164 0.6997,-0.5103 1.1549,-0.5722 0.2937,-0.0026 0.5294,0.0252 0.7169,0.3187 0.2094,0.326 0.4271,0.7404 0.664,1.2492 0.2392,-0.1662 0.5334,-0.4216 0.7728,-0.5881 0.3859,-0.2845 0.7605,-0.5754 1.2022,-0.7152 0.2807,-0.0754 0.5763,-0.1099 0.7669,0.0485 0.3146,0.2053 0.8038,0.85 1.0472,1.2641"/>
     <path id="_197256568" class="fil1 str2" d="M142.094 50.9653c1.6762,-1.1732 2.0949,-1.2786 2.4207,-1.3234 0.139,-0.0191 0.5696,0.0167 0.8659,0.2794 0.3984,0.3534 0.8521,1.3822 0.8521,1.3822 0.9906,-0.6949 2.4261,-1.8932 3.245,-1.5791 0.2624,0.1007 0.3476,0.2613 0.501,0.4987l0.6181 0.9626c0.419,-0.2813 0.8471,-0.6756 1.2661,-0.9569 0.3972,-0.3164 0.6996,-0.5101 1.1548,-0.5721 0.2937,-0.0026 0.5294,0.0252 0.7169,0.3186 0.2094,0.3261 0.4272,0.7404 0.664,1.2493 0.2392,-0.1663 0.5335,-0.4217 0.7728,-0.5881 0.3859,-0.2846 0.7605,-0.5755 1.2022,-0.7152 0.2807,-0.0755 0.5763,-0.11 0.7669,0.0484 0.3146,0.2053 0.8038,0.85 1.0472,1.2641"/>
     <path id="_197256688" class="fil1 str2" d="M157.981 51.3156c1.6761,-1.173 2.0948,-1.2785 2.4206,-1.3232 0.139,-0.0193 0.5696,0.0165 0.8659,0.2792 0.3984,0.3534 0.8521,1.3823 0.8521,1.3823 0.9907,-0.695 2.4262,-1.8933 3.2451,-1.5793 0.2623,0.1008 0.3475,0.2614 0.501,0.4989l0.618 0.9626c0.419,-0.2813 0.8471,-0.6757 1.2661,-0.957 0.3972,-0.3163 0.6996,-0.5101 1.1549,-0.5721 0.2936,-0.0026 0.5294,0.0252 0.7169,0.3187 0.2093,0.326 0.4271,0.7404 0.6639,1.2492 0.2392,-0.1663 0.5335,-0.4216 0.7728,-0.5881 0.3859,-0.2845 0.7605,-0.5756 1.2022,-0.7152 0.2807,-0.0754 0.5764,-0.1099 0.7669,0.0485 0.3147,0.2053 0.8038,0.85 1.0472,1.2642"/>
     <path id="_197252128" class="fil1 str2" d="M173.869 51.666c1.6761,-1.1731 2.0948,-1.2786 2.4206,-1.3234 0.139,-0.0191 0.5696,0.0167 0.8659,0.2794 0.3984,0.3534 0.8521,1.3822 0.8521,1.3822 0.9907,-0.6949 2.4262,-1.8932 3.2451,-1.5791 0.2623,0.1007 0.3475,0.2613 0.501,0.4987l0.618 0.9626c0.419,-0.2813 0.8471,-0.6756 1.2661,-0.9569 0.3972,-0.3164 0.6996,-0.5101 1.1549,-0.5721 0.2936,-0.0025 0.5294,0.0252 0.7169,0.3186 0.2093,0.3262 0.4271,0.7404 0.6639,1.2493"/>
    </g>
    <g id="_197247856_0">
     <path id="_197247352_1" class="fil1 str2" d="M81.3364 53.9202c1.6761,-1.173 2.0949,-1.2784 2.4207,-1.3233 0.1389,-0.0191 0.5696,0.0167 0.8659,0.2794 0.3984,0.3534 0.8521,1.3822 0.8521,1.3822 0.9906,-0.6949 2.4261,-1.8933 3.245,-1.5792 0.2624,0.1007 0.3476,0.2614 0.501,0.4989l0.6181 0.9626c0.419,-0.2813 0.847,-0.6758 1.266,-0.9571 0.3973,-0.3164 0.6997,-0.5101 1.1549,-0.572 0.2936,-0.0026 0.5294,0.0252 0.7169,0.3187 0.2094,0.326 0.4271,0.7404 0.664,1.2492 0.2392,-0.1664 0.5334,-0.4216 0.7727,-0.5881 0.3859,-0.2845 0.7606,-0.5756 1.2023,-0.7152 0.2807,-0.0754 0.5763,-0.11 0.7669,0.0484 0.3146,0.2054 0.8038,0.8501 1.0472,1.2642"/>
     <path id="_197248648_2" class="fil1 str2" d="M97.316 54.1792c1.6762,-1.173 2.0949,-1.2785 2.4207,-1.3233 0.139,-0.0192 0.5696,0.0166 0.8659,0.2793 0.3984,0.3534 0.8521,1.3823 0.8521,1.3823 0.9906,-0.695 2.4261,-1.8934 3.245,-1.5793 0.2624,0.1008 0.3476,0.2614 0.501,0.4989l0.6181 0.9626c0.419,-0.2813 0.847,-0.6758 1.266,-0.9569 0.3973,-0.3164 0.6997,-0.5103 1.1549,-0.5722 0.2937,-0.0026 0.5294,0.0252 0.7169,0.3187 0.2094,0.326 0.4271,0.7404 0.664,1.2492 0.2392,-0.1662 0.5334,-0.4216 0.7728,-0.5881 0.3859,-0.2845 0.7605,-0.5754 1.2022,-0.7152 0.2807,-0.0754 0.5763,-0.1099 0.7669,0.0485 0.3146,0.2053 0.8038,0.85 1.0472,1.2641"/>
     <path id="_197247448_3" class="fil1 str2" d="M113.204 54.5296c1.6761,-1.173 2.0949,-1.2786 2.4207,-1.3234 0.1389,-0.0191 0.5696,0.0167 0.8658,0.2794 0.3984,0.3534 0.8522,1.3822 0.8522,1.3822 0.9906,-0.6949 2.4261,-1.8932 3.245,-1.5791 0.2624,0.1007 0.3476,0.2613 0.501,0.4987l0.6181 0.9626c0.4189,-0.2813 0.847,-0.6756 1.266,-0.9569 0.3973,-0.3164 0.6997,-0.5101 1.1549,-0.5721 0.2936,-0.0026 0.5294,0.0252 0.7169,0.3186 0.2093,0.3261 0.4271,0.7404 0.6639,1.2493 0.2393,-0.1663 0.5335,-0.4217 0.7728,-0.5881 0.3859,-0.2846 0.7606,-0.5755 1.2023,-0.7152 0.2807,-0.0755 0.5763,-0.11 0.7669,0.0484 0.3146,0.2053 0.8038,0.85 1.0472,1.2641"/>
     <path id="_197250208_4" class="fil1 str2" d="M129.091 54.8799c1.6762,-1.173 2.0949,-1.2785 2.4207,-1.3232 0.139,-0.0193 0.5696,0.0165 0.8659,0.2792 0.3984,0.3534 0.8521,1.3823 0.8521,1.3823 0.9906,-0.695 2.4261,-1.8933 3.245,-1.5793 0.2624,0.1008 0.3476,0.2614 0.501,0.4989l0.6181 0.9626c0.419,-0.2813 0.847,-0.6757 1.266,-0.9569 0.3973,-0.3164 0.6997,-0.5102 1.1549,-0.5722 0.2937,-0.0026 0.5294,0.0252 0.7169,0.3187 0.2094,0.326 0.4271,0.7404 0.664,1.2492 0.2392,-0.1662 0.5334,-0.4216 0.7728,-0.5881 0.3859,-0.2845 0.7605,-0.5754 1.2022,-0.7152 0.2807,-0.0754 0.5763,-0.1099 0.7669,0.0485 0.3146,0.2053 0.8038,0.85 1.0472,1.2642"/>
     <path id="_197256568_5" class="fil1 str2" d="M144.98 55.2303c1.6762,-1.1731 2.0949,-1.2786 2.4207,-1.3233 0.139,-0.0192 0.5696,0.0166 0.8659,0.2793 0.3984,0.3535 0.8521,1.3822 0.8521,1.3822 0.9906,-0.6949 2.4261,-1.8932 3.245,-1.5791 0.2624,0.1007 0.3476,0.2613 0.501,0.4987l0.6181 0.9626c0.419,-0.2813 0.8471,-0.6756 1.2661,-0.9569 0.3972,-0.3164 0.6996,-0.5101 1.1548,-0.5721 0.2937,-0.0025 0.5294,0.0252 0.7169,0.3186 0.2094,0.3262 0.4272,0.7404 0.664,1.2493 0.2392,-0.1663 0.5335,-0.4217 0.7728,-0.588 0.3859,-0.2847 0.7605,-0.5756 1.2022,-0.7153 0.2807,-0.0755 0.5763,-0.11 0.7669,0.0484 0.3146,0.2053 0.8038,0.85 1.0472,1.2641"/>
     <path id="_197256688_6" class="fil1 str2" d="M160.867 55.5806c1.6761,-1.173 2.0948,-1.2785 2.4206,-1.3232 0.139,-0.0193 0.5696,0.0165 0.8659,0.2792 0.3984,0.3534 0.8521,1.3823 0.8521,1.3823 0.9907,-0.695 2.4262,-1.8933 3.2451,-1.5792 0.2623,0.1007 0.3475,0.2613 0.501,0.4988l0.618 0.9626c0.419,-0.2812 0.8471,-0.6757 1.2661,-0.957 0.3972,-0.3163 0.6996,-0.5101 1.1549,-0.5721 0.2936,-0.0026 0.5294,0.0252 0.7169,0.3187 0.2093,0.326 0.4271,0.7405 0.6639,1.2492 0.2392,-0.1663 0.5335,-0.4216 0.7728,-0.588 0.3859,-0.2846 0.7605,-0.5756 1.2022,-0.7153 0.2807,-0.0753 0.5764,-0.1099 0.7669,0.0486 0.3147,0.2052 0.8038,0.8499 1.0472,1.2641"/>
     <path id="_197252128_7" class="fil1 str2" d="M176.755 55.931c1.6761,-1.1731 2.0948,-1.2786 2.4206,-1.3233 0.139,-0.0191 0.5696,0.0166 0.8659,0.2794 0.3984,0.3534 0.8521,1.3821 0.8521,1.3821 0.9907,-0.6948 2.4262,-1.8932 3.2451,-1.5791 0.2623,0.1007 0.3475,0.2613 0.501,0.4987l0.618 0.9626c0.419,-0.2813 0.8471,-0.6756 1.2661,-0.9569 0.3972,-0.3164 0.6996,-0.5101 1.1549,-0.5721 0.2936,-0.0025 0.5294,0.0253 0.7169,0.3186 0.2093,0.3262 0.4271,0.7404 0.6639,1.2493"/>
    </g>
    <g id="_197248192">
     <path id="_197251240" class="fil1 str2" d="M74.6082 45.1526c1.6761,-1.173 2.0949,-1.2786 2.4206,-1.3234 0.139,-0.0191 0.5697,0.0167 0.8659,0.2794 0.3984,0.3534 0.8522,1.3822 0.8522,1.3822 0.9906,-0.6949 2.4261,-1.8933 3.245,-1.5792 0.2624,0.1008 0.3476,0.2614 0.501,0.4989l0.618 0.9626c0.419,-0.2813 0.8471,-0.6757 1.2661,-0.957 0.3973,-0.3164 0.6997,-0.5102 1.1549,-0.5721 0.2936,-0.0026 0.5294,0.0252 0.7169,0.3187 0.2093,0.326 0.4271,0.7403 0.6639,1.2492 0.2393,-0.1663 0.5335,-0.4216 0.7728,-0.5881 0.3859,-0.2846 0.7606,-0.5756 1.2023,-0.7152 0.2807,-0.0754 0.5763,-0.1099 0.7669,0.0484 0.3146,0.2054 0.8038,0.8501 1.0472,1.2641"/>
     <path id="_197248744" class="fil1 str2" d="M90.5878 45.4115c1.6761,-1.173 2.0949,-1.2785 2.4207,-1.3234 0.1389,-0.0191 0.5696,0.0167 0.8659,0.2794 0.3984,0.3534 0.8521,1.3822 0.8521,1.3822 0.9906,-0.6949 2.4261,-1.8932 3.245,-1.5791 0.2624,0.1007 0.3476,0.2613 0.501,0.4988l0.6181 0.9626c0.419,-0.2812 0.847,-0.6757 1.266,-0.957 0.3973,-0.3164 0.6997,-0.5101 1.1549,-0.5721 0.2936,-0.0026 0.5294,0.0252 0.7169,0.3187 0.2094,0.326 0.4271,0.7405 0.664,1.2492 0.2392,-0.1663 0.5334,-0.4216 0.7727,-0.588 0.3859,-0.2847 0.7606,-0.5756 1.2023,-0.7153 0.2807,-0.0753 0.5763,-0.1099 0.7669,0.0484 0.3146,0.2054 0.8038,0.8501 1.0472,1.2643"/>
     <path id="_197247472" class="fil1 str2" d="M106.476 45.7618c1.6761,-1.173 2.0949,-1.2785 2.4206,-1.3232 0.139,-0.0191 0.5697,0.0166 0.8659,0.2794 0.3984,0.3532 0.8522,1.3821 0.8522,1.3821 0.9906,-0.695 2.4261,-1.8933 3.245,-1.5792 0.2624,0.1007 0.3476,0.2613 0.501,0.4988l0.618 0.9626c0.419,-0.2813 0.8471,-0.6756 1.2661,-0.9569 0.3972,-0.3164 0.6997,-0.5101 1.1549,-0.5722 0.2936,-0.0024 0.5294,0.0252 0.7169,0.3187 0.2093,0.3262 0.4271,0.7404 0.6639,1.2493 0.2393,-0.1663 0.5335,-0.4217 0.7728,-0.588 0.3859,-0.2847 0.7606,-0.5756 1.2023,-0.7152 0.2806,-0.0756 0.5763,-0.1101 0.7669,0.0484 0.3146,0.2052 0.8038,0.8499 1.0472,1.2641"/>
     <path id="_197249104" class="fil1 str2" d="M122.363 46.1122c1.6761,-1.173 2.0949,-1.2786 2.4207,-1.3233 0.1389,-0.0192 0.5696,0.0166 0.8659,0.2793 0.3984,0.3535 0.8521,1.3822 0.8521,1.3822 0.9906,-0.6949 2.4261,-1.8932 3.245,-1.5791 0.2624,0.1007 0.3476,0.2613 0.501,0.4988l0.6181 0.9627c0.419,-0.2813 0.847,-0.6758 1.266,-0.9571 0.3973,-0.3164 0.6997,-0.5101 1.1549,-0.5721 0.2936,-0.0025 0.5294,0.0252 0.7169,0.3187 0.2094,0.3261 0.4271,0.7405 0.664,1.2492 0.2392,-0.1663 0.5334,-0.4216 0.7727,-0.588 0.3859,-0.2847 0.7606,-0.5756 1.2023,-0.7153 0.2807,-0.0753 0.5763,-0.1099 0.7669,0.0484 0.3146,0.2054 0.8038,0.8501 1.0472,1.2643"/>
     <path id="_194944632" class="fil1 str2" d="M138.251 46.4625c1.6762,-1.173 2.0949,-1.2785 2.4207,-1.3232 0.139,-0.0191 0.5696,0.0167 0.8659,0.2794 0.3984,0.3532 0.8521,1.3822 0.8521,1.3822 0.9906,-0.6951 2.4261,-1.8934 3.245,-1.5793 0.2624,0.1007 0.3476,0.2613 0.501,0.4988l0.6181 0.9626c0.419,-0.2812 0.847,-0.6756 1.266,-0.9569 0.3973,-0.3164 0.6997,-0.5101 1.1549,-0.5722 0.2937,-0.0024 0.5294,0.0252 0.7169,0.3187 0.2094,0.3262 0.4271,0.7405 0.664,1.2494 0.2392,-0.1664 0.5334,-0.4218 0.7728,-0.5881 0.3859,-0.2847 0.7605,-0.5756 1.2022,-0.7152 0.2807,-0.0755 0.5763,-0.1101 0.7669,0.0484 0.3146,0.2052 0.8038,0.8499 1.0472,1.2641"/>
     <path id="_194950776" class="fil1 str2" d="M154.139 46.8129c1.6762,-1.173 2.0949,-1.2786 2.4207,-1.3233 0.139,-0.0191 0.5696,0.0166 0.8659,0.2794 0.3984,0.3534 0.8521,1.3821 0.8521,1.3821 0.9906,-0.6948 2.4261,-1.8932 3.2451,-1.5791 0.2623,0.1007 0.3475,0.2614 0.501,0.4989l0.618 0.9626c0.419,-0.2813 0.8471,-0.6758 1.2661,-0.9571 0.3972,-0.3164 0.6996,-0.5101 1.1549,-0.5721 0.2936,-0.0025 0.5293,0.0253 0.7168,0.3187 0.2094,0.3261 0.4272,0.7403 0.664,1.2492 0.2392,-0.1663 0.5335,-0.4216 0.7728,-0.588 0.3859,-0.2847 0.7605,-0.5756 1.2022,-0.7152 0.2807,-0.0754 0.5764,-0.11 0.7669,0.0484 0.3147,0.2053 0.8038,0.8501 1.0472,1.2642"/>
     <path id="_194951160" class="fil1 str2" d="M170.027 47.1632c1.6761,-1.173 2.0948,-1.2785 2.4206,-1.3232 0.139,-0.0191 0.5696,0.0167 0.8659,0.2794 0.3984,0.3533 0.8521,1.3822 0.8521,1.3822 0.9907,-0.6951 2.4261,-1.8934 3.2451,-1.5793 0.2623,0.1007 0.3475,0.2613 0.501,0.4988l0.618 0.9627c0.419,-0.2813 0.8471,-0.6757 1.2661,-0.957 0.3972,-0.3164 0.6996,-0.5102 1.1549,-0.5722 0.2936,-0.0024 0.5294,0.0252 0.7169,0.3187 0.2093,0.3262 0.4271,0.7405 0.6639,1.2494"/>
    </g>
    <path id="_197251240_8" class="fil1 str2" d="M158.748 15.2095c1.6761,-1.173 2.0949,-1.2785 2.4208,-1.3232 0.139,-0.0192 0.5695,0.0166 0.8659,0.2793 0.3984,0.3533 0.852,1.3822 0.852,1.3822 0.9907,-0.695 2.4262,-1.8932 3.245,-1.5791 0.2625,0.1007 0.3477,0.2612 0.5011,0.4987l0.618 0.9626c0.0916,-0.0615 0.1838,-0.1285 0.2761,-0.1984"/>
    <path id="_197251240_9" class="fil1 str2" d="M161.833 19.4349c1.6761,-1.173 2.0949,-1.2785 2.4208,-1.3232 0.139,-0.0191 0.5695,0.0167 0.8659,0.2794 0.3984,0.3533 0.852,1.3822 0.852,1.3822 0.9907,-0.6951 2.4262,-1.8933 3.245,-1.5792 0.2625,0.1007 0.3477,0.2612 0.5011,0.4987l0.618 0.9627c0.0916,-0.0616 0.1838,-0.1286 0.2761,-0.1985"/>
    <path id="_197251240_10" class="fil1 str2" d="M165.121 24.0139c1.6761,-1.173 2.0949,-1.2785 2.4208,-1.3232 0.139,-0.0191 0.5695,0.0166 0.8659,0.2794 0.3984,0.3532 0.852,1.3821 0.852,1.3821 0.9907,-0.695 2.4262,-1.8932 3.245,-1.5791 0.2625,0.1007 0.3477,0.2612 0.5011,0.4987l0.618 0.9626c0.0916,-0.0615 0.1838,-0.1285 0.2761,-0.1984"/>
    <path id="_197251240_11" class="fil1 str2" d="M168.352 28.566c1.6761,-1.173 2.0949,-1.2785 2.4208,-1.3232 0.139,-0.0191 0.5695,0.0167 0.8659,0.2794 0.3984,0.3533 0.852,1.3822 0.852,1.3822 0.9907,-0.6951 2.4262,-1.8933 3.245,-1.5792 0.2625,0.1007 0.3477,0.2612 0.5011,0.4987l0.618 0.9627c0,0 0.085,-0.0548 0.1773,-0.1247"/>
    <path id="_197251240_12" class="fil1 str2" d="M171.953 33.3723c1.6761,-1.173 2.0949,-1.2785 2.4208,-1.3232 0.139,-0.0191 0.5695,0.0167 0.8659,0.2794 0.3984,0.3533 0.852,1.3822 0.852,1.3822 0.9907,-0.695 2.001,-1.9375 2.8198,-1.6234 0.2625,0.1008 0.6012,0.3341 0.7546,0.5716"/>
    <path id="_197251240_13" class="fil1 str2" d="M175.29 37.8976c1.6761,-1.173 2.0949,-1.2785 2.4208,-1.3232 0.139,-0.0191 0.5695,0.0167 0.8659,0.2794 0.3984,0.3533 0.852,1.3822 0.852,1.3822 0.9907,-0.695 2.1774,-1.9434 2.9962,-1.6293"/>
    <path id="_197251240_14" class="fil1 str2" d="M178.808 42.622c1.6761,-1.173 2.0949,-1.2784 2.4208,-1.3232 0.139,-0.0191 0.5695,0.0167 0.8659,0.2794 0.3984,0.3533 0.852,1.3822 0.852,1.3822 0.9907,-0.695 1.9684,-1.9332 2.7872,-1.6191"/>
    <path id="_197251240_15" class="fil1 str2" d="M182.252 47.2592c1.6761,-1.173 2.0949,-1.2785 2.4208,-1.3232 0.139,-0.0191 0.5695,0.0166 0.8659,0.2794 0.3984,0.3532 0.852,1.3821 0.852,1.3821 0.9907,-0.695 1.7902,-1.8979 2.609,-1.5839"/>
    <path id="_197251240_16" class="fil1 str2" d="M186.096 51.8819c1.6761,-1.173 0.5956,-1.1589 0.9215,-1.2036 0.139,-0.0191 1.0529,-0.3519 1.3493,-0.0892 0.3984,0.3533 1.3028,1.7985 1.3028,1.7985 0.9907,-0.695 1.5581,-1.9709 2.3769,-1.6568 0.2625,0.1007 0.7512,0.6996 0.9046,0.9371"/>
    <path id="_197251240_17" class="fil1 str2" d="M188.603 55.0535c1.6761,-1.173 1.5974,-1.4391 1.9233,-1.4838 0.139,-0.0191 0.401,-0.1269 0.6974,0.1358 0.3984,0.3533 2.5385,2.1013 3.2598,0.5507"/>
    <path id="_197251240_18" class="fil1 str2" d="M155.358 10.6976c1.6761,-1.173 2.0949,-1.2785 2.4208,-1.3232 0.139,-0.0191 0.5695,0.0167 0.8659,0.2794 0.3984,0.3532 0.852,1.3822 0.852,1.3822 0.9907,-0.6951 2.4262,-1.8933 3.245,-1.5792 0.2625,0.1007 0.3477,0.2612 0.5011,0.4987l0.618 0.9626c0.0916,-0.0615 0.1838,-0.1285 0.2761,-0.1984"/>
    <path id="_197251240_19" class="fil1 str2" d="M152.553 6.7206c1.6761,-1.173 2.0949,-1.2784 2.4208,-1.3232 0.139,-0.0191 0.5695,0.0167 0.8659,0.2794 0.3984,0.3533 0.852,1.3822 0.852,1.3822 0.9907,-0.695 2.4262,-1.8932 3.245,-1.5791 0.2625,0.1007 0.3477,0.2612 0.5011,0.4987l0.618 0.9626c0.0916,-0.0615 0.1838,-0.1285 0.2761,-0.1985"/>
    <g id="_197248120">
     <path id="_197247208" class="fil1 str2" d="M71.158 40.5505c1.6761,-1.173 2.0948,-1.2784 2.4206,-1.3233 0.139,-0.0191 0.5697,0.0167 0.8659,0.2794 0.3984,0.3534 0.8521,1.3822 0.8521,1.3822 0.9907,-0.6949 2.4262,-1.8933 3.2451,-1.5792 0.2623,0.1007 0.3475,0.2614 0.501,0.4989l0.618 0.9626c0.419,-0.2813 0.8471,-0.6758 1.2661,-0.9571 0.3972,-0.3164 0.6996,-0.5101 1.1549,-0.572 0.2936,-0.0026 0.5294,0.0252 0.7169,0.3187 0.2093,0.326 0.4271,0.7404 0.6639,1.2492 0.2393,-0.1664 0.5335,-0.4216 0.7728,-0.5881 0.3859,-0.2847 0.7605,-0.5756 1.2022,-0.7152 0.2807,-0.0754 0.5764,-0.11 0.767,0.0484 0.3146,0.2054 0.8037,0.8501 1.0472,1.2642"/>
     <path id="_197257168" class="fil1 str2" d="M87.1376 40.8095c1.6761,-1.173 2.0949,-1.2785 2.4206,-1.3232 0.139,-0.0193 0.5697,0.0165 0.8659,0.2792 0.3984,0.3534 0.8521,1.3823 0.8521,1.3823 0.9907,-0.695 2.4262,-1.8934 3.2451,-1.5793 0.2624,0.1008 0.3476,0.2614 0.501,0.4989l0.618 0.9626c0.419,-0.2813 0.8471,-0.6757 1.2661,-0.9569 0.3972,-0.3164 0.6997,-0.5103 1.1549,-0.5722 0.2936,-0.0026 0.5294,0.0252 0.7169,0.3187 0.2093,0.326 0.4271,0.7404 0.6639,1.2492 0.2393,-0.1662 0.5335,-0.4216 0.7728,-0.5881 0.3859,-0.2845 0.7606,-0.5754 1.2023,-0.7152 0.2806,-0.0754 0.5763,-0.1099 0.7669,0.0485 0.3146,0.2053 0.8038,0.85 1.0472,1.2641"/>
     <path id="_194951352" class="fil1 str2" d="M103.026 41.1599c1.6761,-1.1732 2.0949,-1.2786 2.4207,-1.3234 0.1389,-0.0191 0.5696,0.0167 0.8659,0.2794 0.3983,0.3534 0.8521,1.3822 0.8521,1.3822 0.9906,-0.6949 2.4261,-1.8932 3.245,-1.5791 0.2624,0.1007 0.3476,0.2613 0.501,0.4987l0.6181 0.9626c0.4189,-0.2813 0.847,-0.6756 1.266,-0.9569 0.3973,-0.3164 0.6997,-0.5101 1.1549,-0.5721 0.2936,-0.0026 0.5294,0.0252 0.7169,0.3186 0.2093,0.3261 0.4271,0.7404 0.6639,1.2493 0.2393,-0.1663 0.5335,-0.4217 0.7728,-0.588 0.3859,-0.2847 0.7606,-0.5756 1.2023,-0.7153 0.2807,-0.0755 0.5763,-0.11 0.7669,0.0484 0.3146,0.2053 0.8038,0.85 1.0472,1.2641"/>
     <path id="_195127048" class="fil1 str2" d="M118.913 41.5102c1.6762,-1.173 2.0949,-1.2785 2.4207,-1.3232 0.139,-0.0193 0.5696,0.0165 0.8659,0.2792 0.3984,0.3534 0.8521,1.3823 0.8521,1.3823 0.9906,-0.695 2.4261,-1.8933 3.245,-1.5792 0.2624,0.1007 0.3476,0.2613 0.501,0.4988l0.6181 0.9626c0.419,-0.2813 0.847,-0.6757 1.266,-0.957 0.3973,-0.3163 0.6997,-0.5101 1.1549,-0.5721 0.2937,-0.0026 0.5294,0.0252 0.7169,0.3187 0.2094,0.326 0.4271,0.7404 0.664,1.2492 0.2392,-0.1663 0.5334,-0.4216 0.7728,-0.5881 0.3859,-0.2845 0.7605,-0.5755 1.2022,-0.7152 0.2807,-0.0753 0.5763,-0.1099 0.7669,0.0486 0.3146,0.2052 0.8038,0.8499 1.0472,1.2641"/>
     <path id="_195127240" class="fil1 str2" d="M134.801 41.8605c1.6762,-1.173 2.0949,-1.2785 2.4207,-1.3232 0.139,-0.0192 0.5696,0.0166 0.8659,0.2793 0.3984,0.3535 0.8521,1.3822 0.8521,1.3822 0.9906,-0.6949 2.4261,-1.8932 3.2451,-1.5791 0.2623,0.1007 0.3475,0.2613 0.501,0.4987l0.618 0.9626c0.419,-0.2813 0.8471,-0.6756 1.2661,-0.9569 0.3972,-0.3164 0.6996,-0.5101 1.1549,-0.5721 0.2936,-0.0025 0.5293,0.0252 0.7168,0.3186 0.2094,0.3262 0.4272,0.7404 0.664,1.2493 0.2392,-0.1663 0.5335,-0.4217 0.7728,-0.588 0.3859,-0.2847 0.7605,-0.5756 1.2022,-0.7153 0.2807,-0.0755 0.5764,-0.11 0.7669,0.0484 0.3147,0.2053 0.8038,0.85 1.0472,1.2641"/>
     <path id="_195127432" class="fil1 str2" d="M150.689 42.2109c1.6761,-1.173 2.0948,-1.2785 2.4206,-1.3232 0.139,-0.0193 0.5696,0.0165 0.8659,0.2792 0.3984,0.3534 0.8521,1.3822 0.8521,1.3822 0.9907,-0.6949 2.4262,-1.8932 3.2451,-1.5791 0.2623,0.1007 0.3475,0.2613 0.501,0.4988l0.618 0.9627c0.419,-0.2813 0.8471,-0.6758 1.2661,-0.9571 0.3972,-0.3163 0.6996,-0.5101 1.1549,-0.5721 0.2936,-0.0026 0.5294,0.0252 0.7169,0.3187 0.2093,0.3261 0.4271,0.7405 0.6639,1.2492 0.2392,-0.1663 0.5335,-0.4216 0.7728,-0.588 0.3859,-0.2846 0.7605,-0.5756 1.2022,-0.7153 0.2807,-0.0753 0.5764,-0.1099 0.7669,0.0484 0.3147,0.2054 0.8038,0.8501 1.0472,1.2643"/>
     <path id="_195128008" class="fil1 str2" d="M166.576 42.5612c1.6761,-1.173 2.0949,-1.2785 2.4206,-1.3232 0.139,-0.0191 0.5697,0.0166 0.8659,0.2794 0.3984,0.3534 0.8521,1.3821 0.8521,1.3821 0.9907,-0.695 2.4262,-1.8932 3.2451,-1.5792 0.2624,0.1008 0.3476,0.2615 0.501,0.4988l0.618 0.9626c0.419,-0.2812 0.8471,-0.6756 1.2661,-0.9569 0.3972,-0.3164 0.6997,-0.5101 1.1549,-0.5722 0.2936,-0.0024 0.5294,0.0254 0.7169,0.3187 0.2093,0.3262 0.4271,0.7405 0.6639,1.2493"/>
    </g>
    <g id="_197257072">
     <path id="_195130696" class="fil1 str2" d="M67.6303 35.8479c1.6761,-1.173 2.0948,-1.2784 2.4206,-1.3233 0.139,-0.0191 0.5696,0.0167 0.8659,0.2794 0.3984,0.3534 0.8521,1.3822 0.8521,1.3822 0.9907,-0.6949 2.4262,-1.8933 3.2451,-1.5792 0.2623,0.1007 0.3475,0.2614 0.501,0.4989l0.618 0.9626c0.419,-0.2813 0.8471,-0.6758 1.2661,-0.9571 0.3972,-0.3164 0.6996,-0.5101 1.1549,-0.572 0.2936,-0.0026 0.5294,0.0252 0.7169,0.3187 0.2093,0.326 0.4271,0.7404 0.6639,1.2492 0.2393,-0.1664 0.5335,-0.4216 0.7728,-0.5881 0.3859,-0.2847 0.7605,-0.5756 1.2022,-0.7152 0.2807,-0.0754 0.5764,-0.11 0.767,0.0484 0.3146,0.2054 0.8037,0.8501 1.0472,1.2642"/>
     <path id="_195130888" class="fil1 str2" d="M83.6099 36.1069c1.6761,-1.1731 2.0949,-1.2785 2.4206,-1.3233 0.139,-0.0192 0.5697,0.0166 0.8659,0.2793 0.3984,0.3534 0.8521,1.3823 0.8521,1.3823 0.9907,-0.695 2.4262,-1.8934 3.2451,-1.5793 0.2624,0.1008 0.3476,0.2614 0.501,0.4989l0.618 0.9626c0.419,-0.2813 0.8471,-0.6758 1.2661,-0.9569 0.3972,-0.3164 0.6997,-0.5103 1.1549,-0.5722 0.2936,-0.0026 0.5294,0.0252 0.7169,0.3187 0.2093,0.326 0.4271,0.7404 0.6639,1.2492 0.2393,-0.1662 0.5335,-0.4216 0.7728,-0.5881 0.3859,-0.2845 0.7606,-0.5754 1.2023,-0.7152 0.2806,-0.0754 0.5763,-0.1099 0.7669,0.0485 0.3146,0.2053 0.8038,0.85 1.0472,1.2641"/>
     <path id="_195131080" class="fil1 str2" d="M99.4977 36.4573c1.6761,-1.173 2.0948,-1.2786 2.4206,-1.3234 0.139,-0.0191 0.5696,0.0167 0.8659,0.2794 0.3984,0.3534 0.8521,1.3822 0.8521,1.3822 0.9907,-0.6949 2.4262,-1.8932 3.2451,-1.5791 0.2623,0.1007 0.3475,0.2613 0.501,0.4987l0.618 0.9626c0.419,-0.2813 0.8471,-0.6756 1.2661,-0.9569 0.3972,-0.3164 0.6996,-0.5101 1.1549,-0.5721 0.2936,-0.0026 0.5294,0.0252 0.7169,0.3186 0.2093,0.3261 0.4271,0.7404 0.6639,1.2493 0.2392,-0.1663 0.5335,-0.4217 0.7728,-0.5881 0.3859,-0.2846 0.7605,-0.5755 1.2022,-0.7152 0.2807,-0.0755 0.5764,-0.11 0.7669,0.0484 0.3147,0.2053 0.8038,0.85 1.0472,1.2641"/>
     <path id="_195131272" class="fil1 str2" d="M115.386 36.8076c1.6761,-1.173 2.0949,-1.2785 2.4206,-1.3232 0.139,-0.0193 0.5697,0.0165 0.8659,0.2792 0.3984,0.3534 0.8521,1.3823 0.8521,1.3823 0.9907,-0.695 2.4262,-1.8933 3.2451,-1.5793 0.2624,0.1008 0.3475,0.2614 0.501,0.4989l0.618 0.9626c0.419,-0.2813 0.8471,-0.6757 1.2661,-0.9569 0.3972,-0.3164 0.6997,-0.5102 1.1549,-0.5722 0.2936,-0.0026 0.5294,0.0252 0.7169,0.3187 0.2093,0.326 0.4271,0.7404 0.6639,1.2492 0.2393,-0.1662 0.5335,-0.4216 0.7728,-0.5881 0.3859,-0.2845 0.7606,-0.5754 1.2023,-0.7152 0.2806,-0.0754 0.5763,-0.1099 0.7669,0.0485 0.3146,0.2053 0.8038,0.85 1.0472,1.2642"/>
     <path id="_195131464" class="fil1 str2" d="M131.273 37.158c1.6761,-1.1731 2.0949,-1.2786 2.4206,-1.3233 0.139,-0.0192 0.5697,0.0166 0.8659,0.2793 0.3984,0.3534 0.8522,1.3822 0.8522,1.3822 0.9906,-0.6949 2.4261,-1.8932 3.245,-1.5791 0.2624,0.1007 0.3476,0.2613 0.501,0.4987l0.618 0.9626c0.419,-0.2813 0.8471,-0.6756 1.2661,-0.9569 0.3973,-0.3164 0.6997,-0.5101 1.1549,-0.5721 0.2936,-0.0025 0.5294,0.0252 0.7169,0.3186 0.2093,0.3262 0.4271,0.7404 0.6639,1.2493 0.2393,-0.1663 0.5335,-0.4217 0.7728,-0.588 0.3859,-0.2847 0.7606,-0.5756 1.2023,-0.7153 0.2807,-0.0755 0.5763,-0.11 0.7669,0.0484 0.3146,0.2053 0.8038,0.85 1.0472,1.2641"/>
     <path id="_195131656" class="fil1 str2" d="M147.161 37.5083c1.6762,-1.173 2.0949,-1.2785 2.4207,-1.3232 0.139,-0.0193 0.5696,0.0165 0.8659,0.2792 0.3984,0.3534 0.8521,1.3823 0.8521,1.3823 0.9906,-0.695 2.4261,-1.8933 3.245,-1.5792 0.2624,0.1007 0.3476,0.2613 0.501,0.4988l0.6181 0.9626c0.419,-0.2812 0.847,-0.6757 1.266,-0.957 0.3973,-0.3163 0.6997,-0.5101 1.1549,-0.5721 0.2937,-0.0026 0.5294,0.0252 0.7169,0.3187 0.2094,0.326 0.4271,0.7405 0.664,1.2492 0.2392,-0.1663 0.5334,-0.4216 0.7728,-0.5881 0.3859,-0.2845 0.7605,-0.5755 1.2022,-0.7152 0.2807,-0.0753 0.5763,-0.1099 0.7669,0.0484 0.3146,0.2054 0.8038,0.8501 1.0472,1.2643"/>
     <path id="_195131848" class="fil1 str2" d="M163.049 37.8587c1.6762,-1.1731 2.0949,-1.2786 2.4207,-1.3233 0.139,-0.0191 0.5696,0.0166 0.8659,0.2794 0.3984,0.3534 0.8521,1.3821 0.8521,1.3821 0.9906,-0.6949 2.4261,-1.8932 3.245,-1.5791 0.2624,0.1007 0.3476,0.2613 0.501,0.4987l0.6181 0.9626c0.419,-0.2813 0.8471,-0.6756 1.266,-0.9569 0.3973,-0.3164 0.6997,-0.5101 1.1549,-0.5721 0.2937,-0.0025 0.5294,0.0253 0.7169,0.3186 0.2094,0.3262 0.4271,0.7404 0.664,1.2493"/>
    </g>
    <g id="_195130504">
     <path id="_195132232" class="fil1 str2" d="M64.2652 31.3031c1.6761,-1.173 2.0948,-1.2785 2.4206,-1.3232 0.139,-0.0192 0.5696,0.0165 0.8659,0.2793 0.3984,0.3534 0.8521,1.3823 0.8521,1.3823 0.9907,-0.695 2.4262,-1.8934 3.2451,-1.5793 0.2623,0.1007 0.3475,0.2614 0.501,0.4989l0.618 0.9626c0.419,-0.2813 0.8471,-0.6758 1.2661,-0.9569 0.3972,-0.3164 0.6996,-0.5103 1.1549,-0.5722 0.2936,-0.0026 0.5294,0.0252 0.7169,0.3187 0.2093,0.326 0.4271,0.7404 0.6639,1.2491 0.2393,-0.1661 0.5335,-0.4215 0.7728,-0.588 0.3859,-0.2846 0.7605,-0.5755 1.2022,-0.7152 0.2807,-0.0754 0.5764,-0.11 0.767,0.0485 0.3146,0.2052 0.8037,0.85 1.0472,1.2641"/>
     <path id="_195132424" class="fil1 str2" d="M80.2448 31.562c1.6761,-1.173 2.0949,-1.2784 2.4206,-1.3232 0.139,-0.0192 0.5697,0.0167 0.8659,0.2794 0.3984,0.3533 0.8521,1.3822 0.8521,1.3822 0.9907,-0.695 2.4262,-1.8934 3.2451,-1.5793 0.2624,0.1007 0.3476,0.2614 0.501,0.4989l0.618 0.9626c0.419,-0.2813 0.8471,-0.6756 1.2661,-0.9569 0.3972,-0.3164 0.6997,-0.5103 1.1549,-0.5722 0.2936,-0.0026 0.5294,0.0252 0.7169,0.3187 0.2093,0.3261 0.4271,0.7404 0.6639,1.2492 0.2393,-0.1662 0.5335,-0.4216 0.7728,-0.5881 0.3859,-0.2845 0.7606,-0.5754 1.2023,-0.7152 0.2806,-0.0754 0.5763,-0.11 0.7669,0.0485 0.3146,0.2053 0.8038,0.85 1.0472,1.2641"/>
     <path id="_195132616" class="fil1 str2" d="M96.1326 31.9125c1.6761,-1.173 2.0948,-1.2786 2.4206,-1.3234 0.139,-0.0191 0.5696,0.0167 0.8659,0.2794 0.3984,0.3534 0.8521,1.3822 0.8521,1.3822 0.9907,-0.6949 2.4261,-1.8933 3.2451,-1.5792 0.2623,0.1008 0.3475,0.2614 0.501,0.4989l0.618 0.9626c0.419,-0.2813 0.8471,-0.6757 1.2661,-0.957 0.3972,-0.3164 0.6996,-0.5102 1.1549,-0.5721 0.2936,-0.0026 0.5294,0.0252 0.7169,0.3186 0.2093,0.3261 0.4271,0.7404 0.6639,1.2493 0.2392,-0.1663 0.5335,-0.4216 0.7728,-0.5881 0.3859,-0.2846 0.7605,-0.5756 1.2022,-0.7152 0.2807,-0.0754 0.5764,-0.1101 0.7669,0.0484 0.3147,0.2054 0.8038,0.8501 1.0472,1.2641"/>
     <path id="_195132808" class="fil1 str2" d="M112.02 32.2628c1.6762,-1.1731 2.0949,-1.2785 2.4207,-1.3233 0.139,-0.0192 0.5696,0.0167 0.8659,0.2794 0.3984,0.3533 0.8521,1.3822 0.8521,1.3822 0.9906,-0.695 2.4261,-1.8934 3.245,-1.5793 0.2624,0.1008 0.3476,0.2614 0.501,0.4989l0.6181 0.9626c0.419,-0.2813 0.8471,-0.6756 1.2661,-0.9569 0.3972,-0.3164 0.6996,-0.5103 1.1548,-0.5722 0.2937,-0.0026 0.5294,0.0252 0.7169,0.3187 0.2094,0.326 0.4271,0.7404 0.664,1.2492 0.2392,-0.1662 0.5334,-0.4216 0.7728,-0.5881 0.3859,-0.2845 0.7605,-0.5754 1.2022,-0.7152 0.2807,-0.0754 0.5763,-0.1099 0.7669,0.0485 0.3146,0.2053 0.8038,0.85 1.0472,1.2641"/>
     <path id="_194941176" class="fil1 str2" d="M127.908 32.6132c1.6761,-1.173 2.0948,-1.2786 2.4206,-1.3234 0.139,-0.0191 0.5696,0.0167 0.8659,0.2794 0.3984,0.3534 0.8521,1.3822 0.8521,1.3822 0.9907,-0.6949 2.4261,-1.8932 3.2451,-1.5791 0.2623,0.1007 0.3475,0.2613 0.501,0.4988l0.618 0.9625c0.419,-0.2812 0.8471,-0.6756 1.2661,-0.9569 0.3972,-0.3164 0.6996,-0.5101 1.1549,-0.5721 0.2936,-0.0026 0.5294,0.0252 0.7169,0.3186 0.2093,0.3261 0.4271,0.7404 0.6639,1.2493 0.2392,-0.1663 0.5335,-0.4216 0.7728,-0.5881 0.3859,-0.2846 0.7605,-0.5755 1.2022,-0.7152 0.2807,-0.0753 0.5764,-0.11 0.7669,0.0484 0.3147,0.2053 0.8038,0.85 1.0472,1.2641"/>
     <path id="_194941368" class="fil1 str2" d="M143.796 32.9635c1.6761,-1.173 2.0948,-1.2785 2.4206,-1.3232 0.139,-0.0193 0.5696,0.0166 0.8659,0.2794 0.3984,0.3532 0.8521,1.3821 0.8521,1.3821 0.9907,-0.695 2.4262,-1.8933 3.2451,-1.5793 0.2623,0.1008 0.3475,0.2614 0.501,0.4989l0.618 0.9626c0.419,-0.2813 0.8471,-0.6756 1.2661,-0.9569 0.3972,-0.3164 0.6996,-0.5102 1.1549,-0.5722 0.2936,-0.0026 0.5294,0.0252 0.7169,0.3187 0.2093,0.326 0.4271,0.7404 0.6639,1.2492 0.2393,-0.1662 0.5335,-0.4216 0.7728,-0.5881 0.3859,-0.2845 0.7605,-0.5754 1.2022,-0.7152 0.2807,-0.0754 0.5764,-0.1099 0.767,0.0485 0.3146,0.2053 0.8037,0.85 1.0472,1.2642"/>
     <path id="_194941944" class="fil1 str2" d="M159.684 33.3139c1.6761,-1.173 2.0949,-1.2786 2.4206,-1.3234 0.139,-0.0191 0.5697,0.0167 0.8659,0.2794 0.3984,0.3534 0.8521,1.3822 0.8521,1.3822 0.9907,-0.6949 2.4262,-1.8932 3.2451,-1.5791 0.2624,0.1007 0.3476,0.2613 0.501,0.4987l0.618 0.9626c0.419,-0.2811 0.8471,-0.6756 1.2661,-0.9569 0.3972,-0.3164 0.6997,-0.5101 1.1549,-0.5721 0.2936,-0.0026 0.5294,0.0252 0.7169,0.3186 0.2093,0.3262 0.4271,0.7404 0.6639,1.2493"/>
    </g>
    <g id="_195132040">
     <path id="_194942328" class="fil1 str2" d="M60.6543 26.4568c1.6762,-1.173 2.0949,-1.2786 2.4207,-1.3233 0.139,-0.0191 0.5696,0.0166 0.8659,0.2794 0.3984,0.3534 0.8521,1.3821 0.8521,1.3821 0.9906,-0.6948 2.4261,-1.8932 3.2451,-1.5791 0.2623,0.1007 0.3475,0.2614 0.501,0.4989l0.618 0.9626c0.419,-0.2813 0.8471,-0.6758 1.2661,-0.9571 0.3972,-0.3164 0.6996,-0.5101 1.1549,-0.5721 0.2936,-0.0025 0.5293,0.0253 0.7168,0.3188 0.2094,0.326 0.4272,0.7404 0.664,1.2491 0.2392,-0.1663 0.5335,-0.4215 0.7728,-0.588 0.3859,-0.2847 0.7605,-0.5756 1.2022,-0.7152 0.2807,-0.0754 0.5764,-0.11 0.7669,0.0484 0.3147,0.2053 0.8038,0.8501 1.0472,1.2642"/>
     <path id="_194945784" class="fil1 str2" d="M76.634 26.7157c1.6761,-1.173 2.0948,-1.2784 2.4206,-1.3232 0.139,-0.0192 0.5696,0.0166 0.8659,0.2793 0.3984,0.3534 0.8521,1.3823 0.8521,1.3823 0.9907,-0.695 2.4262,-1.8934 3.2451,-1.5793 0.2623,0.1007 0.3475,0.2614 0.501,0.4989l0.618 0.9626c0.419,-0.2813 0.8471,-0.6758 1.2661,-0.9571 0.3972,-0.3162 0.6996,-0.5101 1.1549,-0.572 0.2936,-0.0026 0.5294,0.0252 0.7169,0.3187 0.2093,0.326 0.4271,0.7404 0.6639,1.2492 0.2393,-0.1664 0.5335,-0.4216 0.7728,-0.5881 0.3859,-0.2845 0.7605,-0.5756 1.2022,-0.7152 0.2807,-0.0754 0.5764,-0.11 0.767,0.0484 0.3146,0.2054 0.8037,0.8501 1.0472,1.2642"/>
     <path id="_194945976" class="fil1 str2" d="M92.5217 27.066c1.6762,-1.173 2.0949,-1.2784 2.4207,-1.3232 0.139,-0.0191 0.5696,0.0167 0.8659,0.2794 0.3984,0.3534 0.8521,1.3822 0.8521,1.3822 0.9906,-0.6949 2.4261,-1.8933 3.2451,-1.5792 0.2623,0.1008 0.3475,0.2614 0.5009,0.4988l0.6181 0.9626c0.419,-0.2813 0.8471,-0.6756 1.2661,-0.9569 0.3972,-0.3164 0.6996,-0.5102 1.1549,-0.5721 0.2936,-0.0026 0.5293,0.0252 0.7168,0.3186 0.2094,0.3261 0.4272,0.7404 0.664,1.2493 0.2392,-0.1663 0.5335,-0.4217 0.7728,-0.5881 0.3859,-0.2846 0.7605,-0.5756 1.2022,-0.7152 0.2807,-0.0755 0.5764,-0.1101 0.7669,0.0484 0.3147,0.2052 0.8038,0.85 1.0472,1.2641"/>
     <path id="_194946168" class="fil1 str2" d="M108.409 27.4165c1.6762,-1.1731 2.0949,-1.2785 2.4207,-1.3233 0.1389,-0.0192 0.5696,0.0166 0.8659,0.2793 0.3984,0.3534 0.8521,1.3822 0.8521,1.3822 0.9906,-0.6949 2.4261,-1.8933 3.245,-1.5792 0.2624,0.1008 0.3476,0.2614 0.501,0.4989l0.6181 0.9626c0.419,-0.2813 0.847,-0.6758 1.266,-0.957 0.3973,-0.3164 0.6997,-0.5102 1.1549,-0.5721 0.2936,-0.0026 0.5294,0.0252 0.7169,0.3187 0.2094,0.326 0.4271,0.7404 0.664,1.2492 0.2392,-0.1664 0.5334,-0.4216 0.7727,-0.5881 0.3859,-0.2845 0.7606,-0.5756 1.2023,-0.7152 0.2807,-0.0754 0.5763,-0.1099 0.7669,0.0484 0.3146,0.2054 0.8038,0.8501 1.0472,1.2642"/>
     <path id="_194946360" class="fil1 str2" d="M124.297 27.7667c1.6762,-1.173 2.0949,-1.2784 2.4207,-1.3232 0.139,-0.0191 0.5696,0.0167 0.8659,0.2794 0.3984,0.3534 0.8521,1.3822 0.8521,1.3822 0.9906,-0.695 2.4261,-1.8932 3.2451,-1.5793 0.2623,0.1007 0.3475,0.2615 0.5009,0.4989l0.6181 0.9626c0.419,-0.2813 0.8471,-0.6756 1.2661,-0.9569 0.3972,-0.3164 0.6996,-0.5101 1.1549,-0.5722 0.2936,-0.0025 0.5293,0.0253 0.7168,0.3187 0.2094,0.3261 0.4272,0.7404 0.664,1.2493 0.2392,-0.1663 0.5335,-0.4217 0.7728,-0.5881 0.3859,-0.2846 0.7605,-0.5755 1.2022,-0.7152 0.2807,-0.0755 0.5764,-0.1101 0.7669,0.0484 0.3147,0.2053 0.8038,0.85 1.0472,1.2641"/>
     <path id="_194946552" class="fil1 str2" d="M140.185 28.1172c1.6762,-1.173 2.0949,-1.2785 2.4207,-1.3234 0.139,-0.0191 0.5696,0.0167 0.8659,0.2794 0.3984,0.3534 0.8521,1.3822 0.8521,1.3822 0.9907,-0.6949 2.4261,-1.8933 3.2451,-1.5792 0.2623,0.1008 0.3475,0.2614 0.501,0.4989l0.618 0.9626c0.419,-0.2813 0.8471,-0.6757 1.2661,-0.957 0.3972,-0.3164 0.6996,-0.5102 1.1549,-0.5721 0.2936,-0.0026 0.5293,0.0252 0.7168,0.3187 0.2094,0.326 0.4272,0.7404 0.664,1.2492 0.2392,-0.1663 0.5335,-0.4216 0.7728,-0.5881 0.3859,-0.2845 0.7605,-0.5756 1.2022,-0.7152 0.2807,-0.0754 0.5764,-0.1099 0.7669,0.0484 0.3147,0.2054 0.8038,0.8501 1.0472,1.2642"/>
     <path id="_194946744" class="fil1 str2" d="M156.073 28.4675c1.6761,-1.1731 2.0949,-1.2785 2.4206,-1.3233 0.139,-0.0191 0.5697,0.0167 0.8659,0.2794 0.3984,0.3533 0.8521,1.3822 0.8521,1.3822 0.9907,-0.695 2.4262,-1.8934 3.2451,-1.5793 0.2623,0.1008 0.3475,0.2614 0.501,0.4989l0.618 0.9626c0.419,-0.2813 0.8471,-0.6756 1.2661,-0.9569 0.3972,-0.3164 0.6997,-0.5101 1.1549,-0.5722 0.2936,-0.0025 0.5294,0.0253 0.7169,0.3187 0.2093,0.3262 0.4271,0.7404 0.6639,1.2493"/>
    </g>
    <g id="_194942136">
     <path id="_194947896" class="fil1 str2" d="M57.4027 21.9437c1.6762,-1.173 2.0949,-1.2785 2.4207,-1.3232 0.139,-0.0192 0.5696,0.0167 0.8659,0.2794 0.3984,0.3533 0.8521,1.3822 0.8521,1.3822 0.9906,-0.695 2.4261,-1.8934 3.245,-1.5793 0.2624,0.1007 0.3476,0.2614 0.501,0.4989l0.6181 0.9626c0.419,-0.2813 0.847,-0.6757 1.266,-0.9569 0.3973,-0.3164 0.6997,-0.5103 1.1549,-0.5722 0.2937,-0.0025 0.5294,0.0252 0.7169,0.3187 0.2094,0.3261 0.4271,0.7404 0.664,1.2493 0.2392,-0.1663 0.5334,-0.4217 0.7728,-0.5881 0.3859,-0.2847 0.7605,-0.5756 1.2022,-0.7152 0.2807,-0.0755 0.5763,-0.1101 0.7669,0.0484 0.3146,0.2052 0.8038,0.85 1.0472,1.2641"/>
     <path id="_194948088" class="fil1 str2" d="M73.3823 22.2026c1.6762,-1.173 2.0949,-1.2784 2.4207,-1.3232 0.139,-0.0191 0.5696,0.0167 0.8659,0.2794 0.3984,0.3534 0.8521,1.3822 0.8521,1.3822 0.9906,-0.695 2.4261,-1.8932 3.2451,-1.5793 0.2623,0.1007 0.3475,0.2615 0.501,0.4989l0.618 0.9626c0.419,-0.2813 0.8471,-0.6756 1.2661,-0.9569 0.3972,-0.3164 0.6996,-0.5101 1.1549,-0.5722 0.2936,-0.0025 0.5293,0.0253 0.7168,0.3187 0.2094,0.3261 0.4272,0.7404 0.664,1.2493 0.2392,-0.1663 0.5335,-0.4217 0.7728,-0.5881 0.3859,-0.2846 0.7605,-0.5755 1.2022,-0.7152 0.2807,-0.0755 0.5764,-0.11 0.7669,0.0484 0.3147,0.2053 0.8038,0.85 1.0472,1.2641"/>
     <path id="_194948280" class="fil1 str2" d="M89.2701 22.5531c1.6762,-1.173 2.0949,-1.2785 2.4207,-1.3234 0.139,-0.0191 0.5696,0.0167 0.8659,0.2794 0.3984,0.3534 0.8521,1.3822 0.8521,1.3822 0.9906,-0.6949 2.4261,-1.8932 3.245,-1.5792 0.2624,0.1008 0.3476,0.2614 0.501,0.4989l0.6181 0.9626c0.419,-0.2813 0.847,-0.6757 1.266,-0.957 0.3973,-0.3164 0.6997,-0.5101 1.1549,-0.5721 0.2937,-0.0026 0.5294,0.0252 0.7169,0.3187 0.2094,0.326 0.4271,0.7404 0.664,1.2492 0.2392,-0.1663 0.5334,-0.4216 0.7727,-0.5881 0.386,-0.2846 0.7606,-0.5756 1.2023,-0.7152 0.2807,-0.0754 0.5763,-0.1099 0.7669,0.0484 0.3146,0.2054 0.8038,0.8501 1.0472,1.2643"/>
     <path id="_194948472" class="fil1 str2" d="M105.158 22.9034c1.6761,-1.173 2.0949,-1.2785 2.4206,-1.3233 0.139,-0.0191 0.5697,0.0167 0.8659,0.2794 0.3984,0.3533 0.8522,1.3822 0.8522,1.3822 0.9906,-0.695 2.4261,-1.8934 3.245,-1.5793 0.2624,0.1008 0.3476,0.2615 0.501,0.4989l0.618 0.9626c0.419,-0.2813 0.8471,-0.6756 1.2661,-0.9569 0.3972,-0.3164 0.6997,-0.5101 1.1549,-0.5722 0.2936,-0.0025 0.5294,0.0253 0.7169,0.3187 0.2093,0.3262 0.4271,0.7404 0.6639,1.2493 0.2393,-0.1663 0.5335,-0.4217 0.7728,-0.588 0.3859,-0.2847 0.7606,-0.5756 1.2023,-0.7153 0.2807,-0.0755 0.5763,-0.11 0.7669,0.0484 0.3146,0.2053 0.8038,0.85 1.0472,1.2641"/>
     <path id="_194948664" class="fil1 str2" d="M121.045 23.2538c1.6762,-1.173 2.0949,-1.2785 2.4207,-1.3234 0.139,-0.0191 0.5696,0.0167 0.8659,0.2794 0.3984,0.3534 0.8521,1.3822 0.8521,1.3822 0.9906,-0.6949 2.4261,-1.8932 3.245,-1.5791 0.2624,0.1007 0.3476,0.2613 0.501,0.4988l0.6181 0.9626c0.419,-0.2812 0.847,-0.6757 1.266,-0.957 0.3973,-0.3164 0.6997,-0.5101 1.1549,-0.5721 0.2936,-0.0026 0.5294,0.0252 0.7169,0.3187 0.2094,0.326 0.4271,0.7405 0.664,1.2492 0.2392,-0.1663 0.5334,-0.4216 0.7727,-0.5881 0.3859,-0.2846 0.7606,-0.5755 1.2023,-0.7152 0.2807,-0.0753 0.5763,-0.1099 0.7669,0.0484 0.3146,0.2054 0.8038,0.8501 1.0472,1.2643"/>
     <path id="_194948856" class="fil1 str2" d="M136.934 23.6041c1.6762,-1.173 2.0949,-1.2785 2.4207,-1.3232 0.139,-0.0192 0.5696,0.0166 0.8659,0.2794 0.3984,0.3532 0.8521,1.3821 0.8521,1.3821 0.9906,-0.695 2.4261,-1.8933 3.245,-1.5793 0.2624,0.1008 0.3476,0.2614 0.501,0.4989l0.6181 0.9626c0.419,-0.2813 0.847,-0.6756 1.266,-0.9569 0.3973,-0.3164 0.6997,-0.5101 1.1549,-0.5722 0.2937,-0.0024 0.5294,0.0252 0.7169,0.3187 0.2094,0.3262 0.4271,0.7404 0.664,1.2493 0.2392,-0.1663 0.5334,-0.4217 0.7728,-0.588 0.3859,-0.2847 0.7605,-0.5756 1.2022,-0.7152 0.2807,-0.0756 0.5763,-0.1101 0.7669,0.0483 0.3146,0.2053 0.8038,0.85 1.0472,1.2642"/>
     <path id="_194949048" class="fil1 str2" d="M152.821 23.9545c1.6761,-1.173 2.0948,-1.2786 2.4206,-1.3233 0.139,-0.0192 0.5696,0.0166 0.8659,0.2793 0.3984,0.3535 0.8521,1.3822 0.8521,1.3822 0.9907,-0.6949 2.4261,-1.8932 3.2451,-1.5791 0.2623,0.1007 0.3475,0.2613 0.501,0.4988l0.618 0.9627c0.419,-0.2813 0.8471,-0.6758 1.2661,-0.9571 0.3972,-0.3164 0.6996,-0.5101 1.1549,-0.5721 0.2936,-0.0025 0.5294,0.0252 0.7168,0.3187 0.2094,0.3261 0.4272,0.7405 0.664,1.2492"/>
    </g>
    <g id="_194946936">
     <path id="_194949816" class="fil1 str2" d="M54.1367 17.4146c1.6761,-1.173 2.0948,-1.2784 2.4206,-1.3232 0.139,-0.0192 0.5696,0.0167 0.8659,0.2794 0.3984,0.3533 0.8521,1.3822 0.8521,1.3822 0.9907,-0.695 2.4262,-1.8934 3.2451,-1.5793 0.2623,0.1007 0.3475,0.2614 0.501,0.4989l0.618 0.9626c0.419,-0.2813 0.8471,-0.6756 1.2661,-0.9569 0.3972,-0.3164 0.6996,-0.5103 1.1549,-0.5722 0.2936,-0.0025 0.5294,0.0252 0.7169,0.3187 0.2093,0.3261 0.4271,0.7404 0.6639,1.2493 0.2393,-0.1663 0.5335,-0.4217 0.7728,-0.5881 0.3859,-0.2846 0.7605,-0.5756 1.2022,-0.7152 0.2807,-0.0755 0.5764,-0.1101 0.767,0.0484 0.3146,0.2052 0.8037,0.85 1.0472,1.2641"/>
     <path id="_194950008" class="fil1 str2" d="M70.1163 17.6736c1.6761,-1.1731 2.0949,-1.2785 2.4206,-1.3233 0.139,-0.0191 0.5697,0.0167 0.8659,0.2794 0.3984,0.3534 0.8521,1.3822 0.8521,1.3822 0.9907,-0.695 2.4262,-1.8932 3.2451,-1.5791 0.2624,0.1007 0.3476,0.2613 0.501,0.4987l0.618 0.9626c0.419,-0.2813 0.8471,-0.6756 1.2661,-0.9569 0.3972,-0.3164 0.6997,-0.5101 1.1549,-0.5722 0.2936,-0.0025 0.5294,0.0253 0.7169,0.3187 0.2093,0.3261 0.4271,0.7404 0.6639,1.2493 0.2393,-0.1663 0.5335,-0.4217 0.7728,-0.588 0.3859,-0.2847 0.7606,-0.5756 1.2023,-0.7153 0.2806,-0.0755 0.5763,-0.11 0.7669,0.0484 0.3146,0.2053 0.8038,0.85 1.0472,1.2641"/>
     <path id="_194952312" class="fil1 str2" d="M86.0041 18.024c1.6761,-1.173 2.0948,-1.2785 2.4206,-1.3232 0.139,-0.0193 0.5696,0.0165 0.8659,0.2792 0.3984,0.3534 0.8521,1.3822 0.8521,1.3822 0.9907,-0.6949 2.4262,-1.8932 3.2451,-1.5791 0.2623,0.1007 0.3475,0.2613 0.501,0.4988l0.618 0.9626c0.419,-0.2813 0.8471,-0.6757 1.2661,-0.957 0.3972,-0.3164 0.6996,-0.5101 1.1549,-0.5721 0.2936,-0.0026 0.5294,0.0252 0.7169,0.3187 0.2093,0.326 0.4271,0.7404 0.6639,1.2492 0.2393,-0.1663 0.5335,-0.4216 0.7728,-0.5881 0.3859,-0.2845 0.7605,-0.5755 1.2022,-0.7152 0.2807,-0.0753 0.5764,-0.1099 0.7669,0.0484 0.3147,0.2054 0.8038,0.8501 1.0472,1.2643"/>
     <path id="_194952504" class="fil1 str2" d="M101.892 18.3743c1.6762,-1.173 2.0949,-1.2785 2.4207,-1.3232 0.139,-0.0192 0.5696,0.0166 0.8659,0.2794 0.3984,0.3534 0.8521,1.3821 0.8521,1.3821 0.9906,-0.695 2.4261,-1.8932 3.245,-1.5793 0.2624,0.1008 0.3476,0.2615 0.501,0.4989l0.6181 0.9626c0.419,-0.2813 0.8471,-0.6756 1.2661,-0.9569 0.3972,-0.3164 0.6996,-0.5101 1.1548,-0.5722 0.2937,-0.0024 0.5294,0.0253 0.7169,0.3187 0.2094,0.3262 0.4272,0.7404 0.664,1.2493 0.2392,-0.1663 0.5335,-0.4217 0.7728,-0.588 0.3859,-0.2847 0.7605,-0.5756 1.2022,-0.7152 0.2807,-0.0756 0.5764,-0.1101 0.7669,0.0483 0.3146,0.2053 0.8038,0.85 1.0472,1.2642"/>
     <path id="_195126664" class="fil1 str2" d="M117.78 18.7247c1.6762,-1.173 2.0949,-1.2785 2.4207,-1.3234 0.139,-0.0191 0.5696,0.0167 0.8659,0.2794 0.3984,0.3534 0.8521,1.3822 0.8521,1.3822 0.9906,-0.6949 2.4261,-1.8932 3.245,-1.5791 0.2624,0.1007 0.3476,0.2613 0.501,0.4988l0.6181 0.9627c0.419,-0.2813 0.847,-0.6758 1.266,-0.9571 0.3973,-0.3164 0.6997,-0.5101 1.1549,-0.5721 0.2937,-0.0026 0.5294,0.0252 0.7169,0.3187 0.2094,0.3261 0.4271,0.7405 0.664,1.2492 0.2392,-0.1663 0.5334,-0.4216 0.7728,-0.588 0.3859,-0.2847 0.7605,-0.5756 1.2022,-0.7153 0.2807,-0.0753 0.5763,-0.1099 0.7669,0.0484 0.3146,0.2054 0.8038,0.8501 1.0472,1.2643"/>
     <path id="_195128584" class="fil1 str2" d="M133.668 19.075c1.6762,-1.173 2.0949,-1.2785 2.4207,-1.3232 0.139,-0.0191 0.5696,0.0166 0.8659,0.2794 0.3984,0.3532 0.8521,1.3821 0.8521,1.3821 0.9906,-0.695 2.4261,-1.8933 3.245,-1.5792 0.2624,0.1007 0.3476,0.2615 0.501,0.4988l0.6181 0.9626c0.419,-0.2812 0.8471,-0.6756 1.2661,-0.9569 0.3972,-0.3164 0.6996,-0.5101 1.1548,-0.5722 0.2937,-0.0024 0.5294,0.0254 0.7169,0.3187 0.2094,0.3262 0.4271,0.7405 0.664,1.2493 0.2392,-0.1663 0.5335,-0.4217 0.7728,-0.588 0.3859,-0.2847 0.7605,-0.5756 1.2022,-0.7152 0.2807,-0.0755 0.5763,-0.1101 0.7669,0.0484 0.3146,0.2052 0.8038,0.8499 1.0472,1.2641"/>
     <path id="_195128776" class="fil1 str2" d="M149.555 19.4254c1.6761,-1.173 2.0948,-1.2785 2.4206,-1.3233 0.139,-0.0192 0.5696,0.0166 0.8659,0.2794 0.3984,0.3534 0.8521,1.3821 0.8521,1.3821 0.9907,-0.6949 2.4261,-1.8932 3.2451,-1.5791 0.2623,0.1007 0.3475,0.2613 0.501,0.4988l0.618 0.9627c0.419,-0.2813 0.8471,-0.6758 1.2661,-0.9571 0.3972,-0.3164 0.6996,-0.5101 1.1549,-0.5721 0.2936,-0.0025 0.5294,0.0253 0.7169,0.3187 0.2093,0.3261 0.4271,0.7405 0.6639,1.2492"/>
    </g>
    <g id="_194949624">
     <path id="_195129736" class="fil1 str2" d="M51.0433 13.1412c1.6761,-1.173 2.0949,-1.2785 2.4206,-1.3232 0.139,-0.0191 0.5697,0.0167 0.8659,0.2794 0.3984,0.3533 0.8521,1.3822 0.8521,1.3822 0.9907,-0.695 2.4262,-1.8934 3.2451,-1.5793 0.2624,0.1007 0.3475,0.2613 0.501,0.4989l0.618 0.9626c0.419,-0.2813 0.8471,-0.6757 1.2661,-0.957 0.3972,-0.3164 0.6997,-0.5101 1.1549,-0.5722 0.2936,-0.0024 0.5294,0.0253 0.7169,0.3187 0.2093,0.3262 0.4271,0.7405 0.6639,1.2494 0.2393,-0.1664 0.5335,-0.4218 0.7728,-0.5881 0.3859,-0.2847 0.7606,-0.5756 1.2023,-0.7152 0.2806,-0.0755 0.5763,-0.1101 0.7669,0.0484 0.3146,0.2052 0.8038,0.85 1.0472,1.2641"/>
     <path id="_195130312" class="fil1 str2" d="M67.0229 13.4003c1.6761,-1.1732 2.0949,-1.2786 2.4206,-1.3234 0.139,-0.0191 0.5697,0.0167 0.8659,0.2794 0.3984,0.3534 0.8522,1.3822 0.8522,1.3822 0.9906,-0.6949 2.4261,-1.8933 3.245,-1.5792 0.2624,0.1008 0.3476,0.2614 0.501,0.4988l0.618 0.9626c0.419,-0.2813 0.8471,-0.6756 1.2661,-0.9569 0.3972,-0.3164 0.6997,-0.5101 1.1549,-0.5721 0.2936,-0.0026 0.5294,0.0252 0.7169,0.3186 0.2093,0.3261 0.4271,0.7404 0.6639,1.2493 0.2393,-0.1663 0.5335,-0.4217 0.7728,-0.5881 0.3859,-0.2846 0.7606,-0.5756 1.2023,-0.7152 0.2806,-0.0755 0.5763,-0.1101 0.7669,0.0484 0.3146,0.2052 0.8038,0.85 1.0472,1.2641"/>
     <path id="_194940024" class="fil1 str2" d="M82.9107 13.7506c1.6761,-1.1731 2.0949,-1.2785 2.4206,-1.3233 0.139,-0.0192 0.5697,0.0166 0.8659,0.2793 0.3984,0.3534 0.8521,1.3822 0.8521,1.3822 0.9907,-0.6949 2.4262,-1.8933 3.2451,-1.5792 0.2623,0.1008 0.3475,0.2614 0.501,0.4989l0.618 0.9626c0.419,-0.2813 0.8471,-0.6758 1.2661,-0.957 0.3972,-0.3163 0.6997,-0.5102 1.1549,-0.5721 0.2936,-0.0026 0.5294,0.0252 0.7169,0.3187 0.2093,0.326 0.4271,0.7404 0.6639,1.2492 0.2393,-0.1663 0.5335,-0.4216 0.7728,-0.5881 0.3859,-0.2845 0.7605,-0.5756 1.2022,-0.7152 0.2807,-0.0754 0.5764,-0.1099 0.767,0.0484 0.3146,0.2054 0.8038,0.8501 1.0472,1.2642"/>
     <path id="_194940216" class="fil1 str2" d="M98.7984 14.1008c1.6762,-1.173 2.0949,-1.2784 2.4207,-1.3232 0.139,-0.0191 0.5696,0.0167 0.8659,0.2794 0.3984,0.3534 0.8521,1.3822 0.8521,1.3822 0.9906,-0.695 2.4261,-1.8932 3.2451,-1.5791 0.2623,0.1007 0.3475,0.2613 0.501,0.4987l0.618 0.9626c0.419,-0.2813 0.8471,-0.6756 1.2661,-0.9569 0.3972,-0.3164 0.6996,-0.5101 1.1549,-0.5722 0.2936,-0.0025 0.5293,0.0253 0.7168,0.3187 0.2094,0.3261 0.4272,0.7404 0.664,1.2493 0.2392,-0.1663 0.5335,-0.4217 0.7728,-0.5881 0.3859,-0.2846 0.7605,-0.5755 1.2022,-0.7152 0.2807,-0.0755 0.5764,-0.11 0.7669,0.0484 0.3147,0.2053 0.8038,0.85 1.0472,1.2641"/>
     <path id="_194940408" class="fil1 str2" d="M114.686 14.4513c1.6761,-1.173 2.0948,-1.2785 2.4206,-1.3232 0.139,-0.0193 0.5696,0.0165 0.8659,0.2792 0.3984,0.3534 0.8521,1.3822 0.8521,1.3822 0.9907,-0.6949 2.4262,-1.8932 3.2451,-1.5792 0.2623,0.1008 0.3475,0.2614 0.501,0.4989l0.618 0.9626c0.419,-0.2813 0.8471,-0.6757 1.2661,-0.957 0.3972,-0.3164 0.6996,-0.5101 1.1549,-0.5721 0.2936,-0.0026 0.5294,0.0252 0.7169,0.3187 0.2093,0.326 0.4271,0.7404 0.6639,1.2492 0.2393,-0.1663 0.5335,-0.4216 0.7728,-0.5881 0.3859,-0.2845 0.7605,-0.5756 1.2022,-0.7152 0.2807,-0.0754 0.5764,-0.1099 0.7669,0.0484 0.3147,0.2054 0.8038,0.8501 1.0472,1.2643"/>
     <path id="_194940600" class="fil1 str2" d="M130.574 14.8016c1.6761,-1.173 2.0948,-1.2785 2.4206,-1.3232 0.139,-0.0192 0.5697,0.0166 0.8659,0.2793 0.3984,0.3534 0.8521,1.3822 0.8521,1.3822 0.9907,-0.695 2.4262,-1.8932 3.2451,-1.5793 0.2623,0.1008 0.3475,0.2615 0.501,0.4989l0.618 0.9626c0.419,-0.2813 0.8471,-0.6756 1.2661,-0.9569 0.3972,-0.3164 0.6996,-0.5101 1.1549,-0.5722 0.2936,-0.0024 0.5294,0.0253 0.7169,0.3187 0.2093,0.3262 0.4271,0.7404 0.6639,1.2493 0.2393,-0.1663 0.5335,-0.4217 0.7728,-0.588 0.3859,-0.2847 0.7605,-0.5756 1.2022,-0.7153 0.2807,-0.0755 0.5764,-0.11 0.767,0.0484 0.3146,0.2053 0.8038,0.85 1.0472,1.2641"/>
     <path id="_194940792" class="fil1 str2" d="M146.462 15.152c1.6761,-1.173 2.0949,-1.2785 2.4206,-1.3234 0.139,-0.0191 0.5697,0.0167 0.8659,0.2794 0.3984,0.3534 0.8522,1.3822 0.8522,1.3822 0.9906,-0.6949 2.4261,-1.8932 3.245,-1.5791 0.2624,0.1007 0.3476,0.2613 0.501,0.4988l0.618 0.9626c0.419,-0.2812 0.8471,-0.6757 1.2661,-0.957 0.3972,-0.3164 0.6997,-0.5101 1.1549,-0.5721 0.2936,-0.0026 0.5294,0.0252 0.7169,0.3187 0.2093,0.326 0.4271,0.7405 0.6639,1.2492"/>
    </g>
    <g id="_195128968">
     <path id="_194941752" class="fil1 str2" d="M47.4926 8.6052c1.6762,-1.173 2.0949,-1.2785 2.4207,-1.3232 0.139,-0.0191 0.5696,0.0167 0.8659,0.2794 0.3984,0.3533 0.8521,1.3822 0.8521,1.3822 0.9906,-0.6951 2.4261,-1.8934 3.245,-1.5793 0.2624,0.1007 0.3476,0.2613 0.501,0.4988l0.6181 0.9627c0.419,-0.2813 0.847,-0.6757 1.266,-0.957 0.3973,-0.3164 0.6997,-0.5101 1.1549,-0.5722 0.2937,-0.0024 0.5294,0.0253 0.7169,0.3187 0.2094,0.3262 0.4271,0.7405 0.664,1.2494 0.2392,-0.1664 0.5334,-0.4218 0.7728,-0.5881 0.3859,-0.2847 0.7605,-0.5756 1.2022,-0.7152 0.2807,-0.0755 0.5763,-0.1101 0.7669,0.0484 0.3146,0.2052 0.8038,0.85 1.0472,1.2641"/>
     <path id="_194942520" class="fil1 str2" d="M63.4722 8.8643c1.6762,-1.1732 2.0949,-1.2786 2.4207,-1.3234 0.139,-0.0191 0.5696,0.0167 0.8659,0.2794 0.3984,0.3534 0.8521,1.3822 0.8521,1.3822 0.9906,-0.6949 2.4261,-1.8933 3.245,-1.5792 0.2624,0.1008 0.3476,0.2614 0.501,0.4988l0.6181 0.9626c0.419,-0.2813 0.8471,-0.6756 1.2661,-0.9569 0.3972,-0.3164 0.6996,-0.5102 1.1549,-0.5721 0.2936,-0.0026 0.5293,0.0252 0.7168,0.3186 0.2094,0.3261 0.4272,0.7404 0.664,1.2493 0.2392,-0.1663 0.5335,-0.4217 0.7728,-0.5881 0.3859,-0.2846 0.7605,-0.5756 1.2022,-0.7152 0.2807,-0.0755 0.5764,-0.1101 0.7669,0.0484 0.3147,0.2052 0.8038,0.85 1.0472,1.2641"/>
     <path id="_194942712" class="fil1 str2" d="M79.36 9.2146c1.6761,-1.1731 2.0949,-1.2785 2.4207,-1.3233 0.1389,-0.0192 0.5696,0.0166 0.8659,0.2793 0.3984,0.3534 0.8521,1.3823 0.8521,1.3823 0.9906,-0.695 2.4261,-1.8934 3.245,-1.5793 0.2624,0.1008 0.3476,0.2614 0.501,0.4989l0.6181 0.9626c0.419,-0.2813 0.847,-0.6758 1.266,-0.957 0.3973,-0.3163 0.6997,-0.5102 1.1549,-0.5721 0.2936,-0.0026 0.5294,0.0252 0.7169,0.3187 0.2094,0.326 0.4271,0.7404 0.664,1.2492 0.2392,-0.1664 0.5334,-0.4216 0.7727,-0.5881 0.3859,-0.2845 0.7606,-0.5756 1.2023,-0.7152 0.2807,-0.0754 0.5763,-0.1099 0.7669,0.0484 0.3146,0.2054 0.8038,0.8501 1.0472,1.2642"/>
     <path id="_194942904" class="fil1 str2" d="M95.2478 9.5648c1.6761,-1.173 2.0949,-1.2784 2.4206,-1.3232 0.139,-0.0191 0.5697,0.0167 0.8659,0.2794 0.3984,0.3534 0.8522,1.3822 0.8522,1.3822 0.9906,-0.6949 2.4261,-1.8932 3.245,-1.5791 0.2624,0.1007 0.3476,0.2613 0.501,0.4987l0.618 0.9626c0.419,-0.2813 0.8471,-0.6756 1.2661,-0.9569 0.3972,-0.3164 0.6997,-0.5101 1.1549,-0.5721 0.2936,-0.0026 0.5294,0.0252 0.7169,0.3186 0.2093,0.3261 0.4271,0.7404 0.6639,1.2493 0.2393,-0.1663 0.5335,-0.4217 0.7728,-0.5881 0.3859,-0.2846 0.7606,-0.5755 1.2023,-0.7152 0.2806,-0.0755 0.5763,-0.1101 0.7669,0.0484 0.3146,0.2053 0.8038,0.85 1.0472,1.2641"/>
     <path id="_194943096" class="fil1 str2" d="M111.136 9.9153c1.6761,-1.173 2.0949,-1.2785 2.4206,-1.3232 0.139,-0.0193 0.5697,0.0165 0.8659,0.2792 0.3984,0.3534 0.8521,1.3822 0.8521,1.3822 0.9907,-0.6949 2.4262,-1.8933 3.2451,-1.5792 0.2623,0.1008 0.3475,0.2614 0.501,0.4989l0.618 0.9626c0.419,-0.2813 0.8471,-0.6757 1.2661,-0.957 0.3972,-0.3164 0.6996,-0.5101 1.1549,-0.5721 0.2936,-0.0026 0.5294,0.0252 0.7169,0.3187 0.2093,0.326 0.4271,0.7404 0.6639,1.2492 0.2393,-0.1663 0.5335,-0.4216 0.7728,-0.5881 0.3859,-0.2845 0.7605,-0.5756 1.2022,-0.7152 0.2807,-0.0754 0.5764,-0.1099 0.767,0.0484 0.3146,0.2054 0.8038,0.8501 1.0472,1.2643"/>
     <path id="_194943288" class="fil1 str2" d="M127.024 10.2656c1.6761,-1.1731 2.0949,-1.2785 2.4206,-1.3233 0.139,-0.0191 0.5697,0.0167 0.8659,0.2794 0.3984,0.3534 0.8522,1.3822 0.8522,1.3822 0.9906,-0.695 2.4261,-1.8932 3.245,-1.5791 0.2624,0.1007 0.3476,0.2613 0.501,0.4987l0.618 0.9626c0.419,-0.2813 0.8471,-0.6756 1.2661,-0.9569 0.3973,-0.3164 0.6997,-0.5101 1.1549,-0.5722 0.2936,-0.0025 0.5294,0.0253 0.7169,0.3187 0.2093,0.3262 0.4271,0.7404 0.6639,1.2493 0.2393,-0.1663 0.5335,-0.4217 0.7728,-0.588 0.3859,-0.2847 0.7606,-0.5756 1.2023,-0.7153 0.2807,-0.0755 0.5763,-0.11 0.7669,0.0484 0.3146,0.2053 0.8038,0.85 1.0472,1.2641"/>
     <path id="_194943480" class="fil1 str2" d="M142.911 10.616c1.6762,-1.173 2.0949,-1.2785 2.4207,-1.3234 0.139,-0.0191 0.5696,0.0167 0.8659,0.2794 0.3984,0.3534 0.8521,1.3822 0.8521,1.3822 0.9906,-0.6949 2.4261,-1.8932 3.245,-1.5791 0.2624,0.1007 0.3476,0.2613 0.501,0.4988l0.6181 0.9626c0.419,-0.2812 0.847,-0.6757 1.266,-0.957 0.3973,-0.3164 0.6997,-0.5101 1.1549,-0.5721 0.2937,-0.0026 0.5294,0.0252 0.7169,0.3187 0.2094,0.326 0.4271,0.7405 0.664,1.2492"/>
    </g>
    <g id="_194941560">
     <path id="_194944824" class="fil1 str2" d="M44.6456 4.7054c1.6761,-1.173 2.0949,-1.2786 2.4207,-1.3234 0.1389,-0.0191 0.5696,0.0167 0.8659,0.2794 0.3984,0.3534 0.8521,1.3822 0.8521,1.3822 0.9906,-0.6949 2.4261,-1.8932 3.245,-1.5791 0.2624,0.1007 0.3476,0.2613 0.501,0.4988l0.6181 0.9626c0.419,-0.2812 0.847,-0.6757 1.266,-0.957 0.3973,-0.3164 0.6997,-0.5101 1.1549,-0.5721 0.2936,-0.0026 0.5294,0.0252 0.7169,0.3186 0.2094,0.3261 0.4271,0.7404 0.6639,1.2493 0.2393,-0.1663 0.5335,-0.4216 0.7728,-0.588 0.3859,-0.2847 0.7606,-0.5756 1.2023,-0.7153 0.2807,-0.0753 0.5763,-0.11 0.7669,0.0484 0.3146,0.2054 0.8038,0.8501 1.0472,1.2641"/>
     <path id="_194945016" class="fil1 str2" d="M60.6252 4.9643c1.6762,-1.173 2.0949,-1.2786 2.4207,-1.3233 0.139,-0.0191 0.5696,0.0166 0.8659,0.2794 0.3984,0.3534 0.8521,1.3821 0.8521,1.3821 0.9906,-0.6948 2.4261,-1.8932 3.245,-1.5791 0.2624,0.1007 0.3476,0.2613 0.501,0.4989l0.6181 0.9626c0.419,-0.2813 0.847,-0.6758 1.266,-0.9571 0.3973,-0.3164 0.6997,-0.5101 1.1549,-0.5721 0.2937,-0.0025 0.5294,0.0253 0.7169,0.3187 0.2094,0.3261 0.4271,0.7405 0.664,1.2492 0.2392,-0.1663 0.5334,-0.4216 0.7728,-0.588 0.3859,-0.2847 0.7605,-0.5756 1.2022,-0.7152 0.2807,-0.0754 0.5763,-0.11 0.7669,0.0484 0.3146,0.2053 0.8038,0.8501 1.0472,1.2642"/>
     <path id="_194945208" class="fil1 str2" d="M76.513 5.3146c1.6761,-1.173 2.0949,-1.2785 2.4206,-1.3232 0.139,-0.0191 0.5697,0.0167 0.8659,0.2794 0.3984,0.3533 0.8522,1.3822 0.8522,1.3822 0.9906,-0.6951 2.4261,-1.8934 3.245,-1.5793 0.2624,0.1007 0.3476,0.2613 0.501,0.4988l0.618 0.9627c0.419,-0.2813 0.8471,-0.6757 1.2661,-0.957 0.3973,-0.3164 0.6997,-0.5102 1.1549,-0.5722 0.2936,-0.0024 0.5294,0.0252 0.7169,0.3187 0.2093,0.3262 0.4271,0.7405 0.6639,1.2494 0.2393,-0.1664 0.5335,-0.4218 0.7728,-0.5881 0.3859,-0.2847 0.7606,-0.5756 1.2023,-0.7152 0.2807,-0.0755 0.5763,-0.1101 0.7669,0.0484 0.3146,0.2052 0.8038,0.8499 1.0472,1.2641"/>
     <path id="_194945400" class="fil1 str2" d="M92.4008 5.665c1.6761,-1.173 2.0949,-1.2786 2.4206,-1.3233 0.139,-0.0191 0.5697,0.0167 0.8659,0.2794 0.3984,0.3534 0.8521,1.3822 0.8521,1.3822 0.9907,-0.6949 2.4262,-1.8933 3.2451,-1.5792 0.2624,0.1007 0.3476,0.2614 0.501,0.4989l0.618 0.9626c0.419,-0.2813 0.8471,-0.6758 1.2661,-0.9571 0.3972,-0.3164 0.6997,-0.5101 1.1549,-0.572 0.2936,-0.0026 0.5294,0.0252 0.7169,0.3187 0.2093,0.326 0.4271,0.7403 0.6639,1.2492 0.2393,-0.1664 0.5335,-0.4216 0.7728,-0.5881 0.3859,-0.2847 0.7606,-0.5756 1.2023,-0.7152 0.2806,-0.0754 0.5763,-0.11 0.7669,0.0484 0.3146,0.2053 0.8038,0.8501 1.0472,1.2641"/>
     <path id="_194945592" class="fil1 str2" d="M108.289 6.0153c1.6761,-1.173 2.0948,-1.2785 2.4206,-1.3232 0.139,-0.0192 0.5696,0.0167 0.8659,0.2794 0.3984,0.3533 0.8521,1.3822 0.8521,1.3822 0.9907,-0.695 2.4261,-1.8934 3.2451,-1.5793 0.2623,0.1007 0.3475,0.2614 0.501,0.4989l0.618 0.9626c0.419,-0.2813 0.8471,-0.6757 1.2661,-0.957 0.3972,-0.3163 0.6996,-0.5102 1.1549,-0.5722 0.2936,-0.0024 0.5294,0.0253 0.7169,0.3188 0.2093,0.3261 0.4271,0.7404 0.6639,1.2493 0.2392,-0.1664 0.5335,-0.4217 0.7728,-0.5881 0.3859,-0.2847 0.7605,-0.5756 1.2022,-0.7152 0.2807,-0.0755 0.5764,-0.1101 0.7669,0.0484 0.3147,0.2052 0.8038,0.85 1.0472,1.2641"/>
     <path id="_194947128" class="fil1 str2" d="M124.177 6.3657c1.6761,-1.173 2.0949,-1.2786 2.4206,-1.3233 0.139,-0.0191 0.5697,0.0167 0.8659,0.2794 0.3984,0.3534 0.8522,1.3822 0.8522,1.3822 0.9906,-0.6949 2.4261,-1.8933 3.245,-1.5792 0.2624,0.1007 0.3476,0.2614 0.501,0.4989l0.618 0.9626c0.419,-0.2813 0.8471,-0.6758 1.2661,-0.9571 0.3973,-0.3164 0.6997,-0.5101 1.1549,-0.572 0.2936,-0.0026 0.5294,0.0252 0.7169,0.3187 0.2093,0.326 0.4271,0.7403 0.6639,1.2492 0.2393,-0.1664 0.5335,-0.4216 0.7728,-0.5881 0.3859,-0.2847 0.7606,-0.5756 1.2023,-0.7152 0.2807,-0.0754 0.5763,-0.11 0.7669,0.0484 0.3146,0.2054 0.8038,0.8501 1.0472,1.2641"/>
     <path id="_194947320" class="fil1 str2" d="M140.064 6.716c1.6762,-1.173 2.0949,-1.2784 2.4207,-1.3232 0.139,-0.0192 0.5696,0.0167 0.8659,0.2794 0.3984,0.3533 0.8521,1.3822 0.8521,1.3822 0.9906,-0.695 2.4261,-1.8934 3.245,-1.5793 0.2624,0.1007 0.3476,0.2614 0.501,0.4989l0.6181 0.9626c0.419,-0.2813 0.847,-0.6756 1.266,-0.9569 0.3973,-0.3164 0.6997,-0.5103 1.1549,-0.5722 0.2937,-0.0025 0.5294,0.0252 0.7169,0.3187 0.2094,0.3261 0.4271,0.7404 0.664,1.2492"/>
    </g>
    <line id="_359696520" class="fil1 str2" x1="85.4531" y1="53.8018" x2="46.2964" y2= "1.7355" />
    <line id="_359696856" class="fil1 str2" x1="89.842" y1="53.8417" x2="50.6853" y2= "1.7754" />
    <line id="_359697192" class="fil1 str2" x1="93.8341" y1="54.0408" x2="54.6774" y2= "1.9744" />
    <line id="_359697528" class="fil1 str2" x1="97.4287" y1="54.3188" x2="58.2717" y2= "2.2524" />
    <line id="_359697864" class="fil1 str2" x1="101.413" y1="54.2056" x2="62.2564" y2= "2.1394" />
    <line id="_359698200" class="fil1 str2" x1="105.924" y1="54.2825" x2="66.7672" y2= "2.2161" />
    <line id="_359698536" class="fil1 str2" x1="109.859" y1="54.2463" x2="70.7021" y2= "2.1799" />
    <line id="_359698872" class="fil1 str2" x1="113.398" y1="54.3441" x2="74.2407" y2= "2.2778" />
    <line id="_359699208" class="fil1 str2" x1="117.178" y1="54.2215" x2="78.0214" y2= "2.1551" />
    <line id="_359699544" class="fil1 str2" x1="121.938" y1="54.559" x2="82.7807" y2= "2.4926" />
    <line id="_359699880" class="fil1 str2" x1="125.852" y1="54.577" x2="86.6957" y2= "2.5108" />
    <line id="_359700216" class="fil1 str2" x1="129.488" y1="54.6029" x2="90.332" y2= "2.5366" />
    <line id="_359700552" class="fil1 str2" x1="133.316" y1="54.6546" x2="94.1591" y2= "2.5882" />
    <line id="_359700888" class="fil1 str2" x1="137.312" y1="54.6521" x2="98.1558" y2= "2.5858" />
    <line id="_359701224" class="fil1 str2" x1="141.281" y1="54.8258" x2="102.124" y2= "2.7594" />
    <line id="_359701560" class="fil1 str2" x1="145.155" y1="54.8872" x2="105.998" y2= "2.821" />
    <line id="_359701896" class="fil1 str2" x1="148.909" y1="54.7928" x2="109.753" y2= "2.7266" />
    <line id="_359702232" class="fil1 str2" x1="153.178" y1="54.8598" x2="114.021" y2= "2.7936" />
    <line id="_359702568" class="fil1 str2" x1="157.31" y1="54.9782" x2="118.153" y2= "2.9119" />
    <line id="_359702904" class="fil1 str2" x1="160.983" y1="55.0793" x2="121.826" y2= "3.013" />
    <line id="_359703240" class="fil1 str2" x1="164.619" y1="55.1209" x2="125.463" y2= "3.0545" />
    <line id="_359703576" class="fil1 str2" x1="169.219" y1="55.173" x2="130.062" y2= "3.1066" />
    <line id="_359703912" class="fil1 str2" x1="173.237" y1="55.1334" x2="134.081" y2= "3.067" />
    <line id="_359704248" class="fil1 str2" x1="176.541" y1="55.1194" x2="137.385" y2= "3.053" />
    <line id="_359704584" class="fil1 str2" x1="180.832" y1="55.4015" x2="141.675" y2= "3.3353" />
    <line id="_359704920" class="fil1 str2" x1="184.976" y1="55.4907" x2="145.819" y2= "3.4243" />
    <line id="_359705256" class="fil1 str2" x1="188.494" y1="54.718" x2="149.337" y2= "2.6516" />
    <line id="_359705592" class="fil1 str2" x1="192.755" y1="56.6461" x2="153.649" y2= "2.6614" />
   </g>
  </g>
 </g>
</svg>
