<?xml version="1.0" encoding="UTF-8"?>
<!DOCTYPE svg PUBLIC "-//W3C//DTD SVG 1.1//EN" "http://www.w3.org/Graphics/SVG/1.1/DTD/svg11.dtd">
<!-- Creator: CorelDRAW -->
<svg xmlns="http://www.w3.org/2000/svg" xml:space="preserve" width="210mm" height="297mm" style="shape-rendering:geometricPrecision; text-rendering:geometricPrecision; image-rendering:optimizeQuality; fill-rule:evenodd; clip-rule:evenodd"
viewBox="0 0 210 297"
 xmlns:xlink="http://www.w3.org/1999/xlink">
 <defs>
  <style type="text/css">
   <![CDATA[
    .str2 {stroke:#333333;stroke-width:0.25}
    .str0 {stroke:#2B2A29;stroke-width:0.5}
    .str1 {stroke:#333333;stroke-width:0.5}
    .fil1 {fill:none}
    .fil0 {fill:#9E312B}
   ]]>
  </style>
 </defs>
 <g id="Слой_x0020_1">
  <metadata id="CorelCorpID_0Corel-Layer"/>
  <polygon class="fil0 str0" points="4.9774,54.1198 42.3003,25.2927 46.2136,28.2577 13.0575,54.094 "/>
  <line class="fil1 str0" x1="17.0601" y1="50.9751" x2="16.3464" y2= "88.6145" />
  <line class="fil1 str0" x1="93.0986" y1="55.7554" x2="93.5462" y2= "89.5391" />
  <line class="fil1 str0" x1="188.775" y1="56.562" x2="188.774" y2= "89.8903" />
  <line class="fil1 str0" x1="3.4024" y1="88.6145" x2="204.954" y2= "90.0014" />
  <g id="_359313336">
   <polygon id="_352798608" class="fil0 str1" points="42.6032,25.4597 158.669,25.9648 196.412,56.6309 81.8656,55.8875 "/>
   <g>
    <g id="_197247856">
     <path id="_197247352" class="fil1 str2" d="M78.4504 52.6763c1.6761,-0.6661 2.0949,-0.7259 2.4207,-0.7514 0.1389,-0.0109 0.5696,0.0094 0.8659,0.1586 0.3984,0.2007 0.8521,0.7849 0.8521,0.7849 0.9906,-0.3946 2.4261,-1.0751 3.245,-0.8967 0.2624,0.0572 0.3476,0.1484 0.501,0.2833l0.6181 0.5466c0.419,-0.1598 0.847,-0.3838 1.266,-0.5435 0.3973,-0.1797 0.6997,-0.2897 1.1549,-0.3248 0.2936,-0.0015 0.5294,0.0143 0.7169,0.1809 0.2094,0.1852 0.4271,0.4205 0.664,0.7094 0.2392,-0.0945 0.5334,-0.2394 0.7727,-0.3339 0.3859,-0.1616 0.7606,-0.3269 1.2023,-0.4062 0.2807,-0.0428 0.5763,-0.0624 0.7669,0.0275 0.3146,0.1166 0.8038,0.4827 1.0472,0.7179"/>
     <path id="_197248648" class="fil1 str2" d="M94.43 52.8234c1.6762,-0.6661 2.0949,-0.726 2.4207,-0.7514 0.139,-0.011 0.5696,0.0094 0.8659,0.1586 0.3984,0.2006 0.8521,0.7849 0.8521,0.7849 0.9906,-0.3947 2.4261,-1.0752 3.245,-0.8968 0.2624,0.0572 0.3476,0.1484 0.501,0.2833l0.6181 0.5466c0.419,-0.1597 0.847,-0.3837 1.266,-0.5434 0.3973,-0.1797 0.6997,-0.2897 1.1549,-0.3249 0.2937,-0.0015 0.5294,0.0143 0.7169,0.181 0.2094,0.1851 0.4271,0.4204 0.664,0.7093 0.2392,-0.0944 0.5334,-0.2394 0.7728,-0.3339 0.3859,-0.1616 0.7605,-0.3268 1.2022,-0.4061 0.2807,-0.0428 0.5763,-0.0625 0.7669,0.0275 0.3146,0.1166 0.8038,0.4827 1.0472,0.7178"/>
     <path id="_197247448" class="fil1 str2" d="M110.318 53.0224c1.6761,-0.6661 2.0949,-0.7261 2.4207,-0.7515 0.1389,-0.0109 0.5696,0.0095 0.8658,0.1586 0.3984,0.2007 0.8522,0.7849 0.8522,0.7849 0.9906,-0.3946 2.4261,-1.0751 3.245,-0.8967 0.2624,0.0572 0.3476,0.1484 0.501,0.2832l0.6181 0.5466c0.4189,-0.1597 0.847,-0.3836 1.266,-0.5434 0.3973,-0.1796 0.6997,-0.2896 1.1549,-0.3248 0.2936,-0.0015 0.5294,0.0143 0.7169,0.1809 0.2093,0.1852 0.4271,0.4204 0.6639,0.7094 0.2393,-0.0944 0.5335,-0.2395 0.7728,-0.3339 0.3859,-0.1617 0.7606,-0.3269 1.2023,-0.4062 0.2807,-0.0428 0.5763,-0.0625 0.7669,0.0275 0.3146,0.1166 0.8038,0.4827 1.0472,0.7178"/>
     <path id="_197250208" class="fil1 str2" d="M126.205 53.2213c1.6762,-0.6661 2.0949,-0.726 2.4207,-0.7514 0.139,-0.011 0.5696,0.0094 0.8659,0.1586 0.3984,0.2006 0.8521,0.7849 0.8521,0.7849 0.9906,-0.3947 2.4261,-1.0752 3.245,-0.8968 0.2624,0.0572 0.3476,0.1484 0.501,0.2833l0.6181 0.5466c0.419,-0.1597 0.847,-0.3837 1.266,-0.5434 0.3973,-0.1797 0.6997,-0.2897 1.1549,-0.3249 0.2937,-0.0015 0.5294,0.0143 0.7169,0.181 0.2094,0.1851 0.4271,0.4204 0.664,0.7093 0.2392,-0.0944 0.5334,-0.2394 0.7728,-0.3339 0.3859,-0.1616 0.7605,-0.3268 1.2022,-0.4061 0.2807,-0.0428 0.5763,-0.0625 0.7669,0.0275 0.3146,0.1166 0.8038,0.4827 1.0472,0.7178"/>
     <path id="_197256568" class="fil1 str2" d="M142.094 53.4203c1.6762,-0.6662 2.0949,-0.7261 2.4207,-0.7515 0.139,-0.0109 0.5696,0.0095 0.8659,0.1586 0.3984,0.2007 0.8521,0.7849 0.8521,0.7849 0.9906,-0.3946 2.4261,-1.0751 3.245,-0.8967 0.2624,0.0572 0.3476,0.1484 0.501,0.2832l0.6181 0.5466c0.419,-0.1597 0.8471,-0.3836 1.2661,-0.5434 0.3972,-0.1796 0.6996,-0.2896 1.1548,-0.3248 0.2937,-0.0015 0.5294,0.0143 0.7169,0.1809 0.2094,0.1852 0.4272,0.4204 0.664,0.7094 0.2392,-0.0944 0.5335,-0.2395 0.7728,-0.3339 0.3859,-0.1617 0.7605,-0.3269 1.2022,-0.4062 0.2807,-0.0428 0.5763,-0.0625 0.7669,0.0275 0.3146,0.1166 0.8038,0.4827 1.0472,0.7178"/>
     <path id="_197256688" class="fil1 str2" d="M157.981 53.6192c1.6761,-0.6661 2.0948,-0.726 2.4206,-0.7514 0.139,-0.011 0.5696,0.0094 0.8659,0.1586 0.3984,0.2006 0.8521,0.7849 0.8521,0.7849 0.9907,-0.3947 2.4262,-1.0752 3.2451,-0.8968 0.2623,0.0572 0.3475,0.1484 0.501,0.2833l0.618 0.5466c0.419,-0.1597 0.8471,-0.3837 1.2661,-0.5435 0.3972,-0.1796 0.6996,-0.2896 1.1549,-0.3248 0.2936,-0.0015 0.5294,0.0143 0.7169,0.181 0.2093,0.1851 0.4271,0.4204 0.6639,0.7093 0.2392,-0.0944 0.5335,-0.2394 0.7728,-0.3339 0.3859,-0.1616 0.7605,-0.3269 1.2022,-0.4061 0.2807,-0.0428 0.5764,-0.0625 0.7669,0.0275 0.3147,0.1166 0.8038,0.4827 1.0472,0.7178"/>
     <path id="_197252128" class="fil1 str2" d="M173.869 53.8182c1.6761,-0.6662 2.0948,-0.7261 2.4206,-0.7515 0.139,-0.0109 0.5696,0.0095 0.8659,0.1586 0.3984,0.2007 0.8521,0.7849 0.8521,0.7849 0.9907,-0.3946 2.4262,-1.0751 3.2451,-0.8967 0.2623,0.0572 0.3475,0.1484 0.501,0.2832l0.618 0.5466c0.419,-0.1597 0.8471,-0.3836 1.2661,-0.5434 0.3972,-0.1796 0.6996,-0.2896 1.1549,-0.3248 0.2936,-0.0015 0.5294,0.0143 0.7169,0.1809 0.2093,0.1852 0.4271,0.4204 0.6639,0.7094"/>
    </g>
    <g id="_197247856_0">
     <path id="_197247352_1" class="fil1 str2" d="M81.3364 55.0982c1.6761,-0.6661 2.0949,-0.726 2.4207,-0.7514 0.1389,-0.0109 0.5696,0.0094 0.8659,0.1586 0.3984,0.2007 0.8521,0.7849 0.8521,0.7849 0.9906,-0.3946 2.4261,-1.0751 3.245,-0.8967 0.2624,0.0572 0.3476,0.1484 0.501,0.2832l0.6181 0.5467c0.419,-0.1598 0.847,-0.3838 1.266,-0.5435 0.3973,-0.1797 0.6997,-0.2897 1.1549,-0.3248 0.2936,-0.0015 0.5294,0.0143 0.7169,0.1809 0.2094,0.1852 0.4271,0.4205 0.664,0.7094 0.2392,-0.0945 0.5334,-0.2394 0.7727,-0.334 0.3859,-0.1615 0.7606,-0.3268 1.2023,-0.4061 0.2807,-0.0428 0.5763,-0.0624 0.7669,0.0275 0.3146,0.1166 0.8038,0.4827 1.0472,0.7179"/>
     <path id="_197248648_2" class="fil1 str2" d="M97.316 55.2452c1.6762,-0.666 2.0949,-0.7259 2.4207,-0.7513 0.139,-0.011 0.5696,0.0094 0.8659,0.1585 0.3984,0.2007 0.8521,0.785 0.8521,0.785 0.9906,-0.3947 2.4261,-1.0752 3.245,-0.8968 0.2624,0.0572 0.3476,0.1484 0.501,0.2833l0.6181 0.5466c0.419,-0.1597 0.847,-0.3837 1.266,-0.5434 0.3973,-0.1797 0.6997,-0.2897 1.1549,-0.3249 0.2937,-0.0015 0.5294,0.0143 0.7169,0.181 0.2094,0.1851 0.4271,0.4204 0.664,0.7093 0.2392,-0.0944 0.5334,-0.2394 0.7728,-0.3339 0.3859,-0.1616 0.7605,-0.3268 1.2022,-0.4062 0.2807,-0.0428 0.5763,-0.0624 0.7669,0.0276 0.3146,0.1165 0.8038,0.4827 1.0472,0.7178"/>
     <path id="_197247448_3" class="fil1 str2" d="M113.204 55.4442c1.6761,-0.6661 2.0949,-0.726 2.4207,-0.7514 0.1389,-0.0109 0.5696,0.0094 0.8658,0.1586 0.3984,0.2007 0.8522,0.7849 0.8522,0.7849 0.9906,-0.3946 2.4261,-1.0751 3.245,-0.8967 0.2624,0.0572 0.3476,0.1484 0.501,0.2832l0.6181 0.5466c0.4189,-0.1597 0.847,-0.3837 1.266,-0.5434 0.3973,-0.1797 0.6997,-0.2897 1.1549,-0.3248 0.2936,-0.0015 0.5294,0.0143 0.7169,0.1809 0.2093,0.1852 0.4271,0.4204 0.6639,0.7094 0.2393,-0.0945 0.5335,-0.2395 0.7728,-0.3339 0.3859,-0.1617 0.7606,-0.3269 1.2023,-0.4062 0.2807,-0.0428 0.5763,-0.0625 0.7669,0.0275 0.3146,0.1166 0.8038,0.4827 1.0472,0.7178"/>
     <path id="_197250208_4" class="fil1 str2" d="M129.091 55.6431c1.6762,-0.666 2.0949,-0.7259 2.4207,-0.7513 0.139,-0.011 0.5696,0.0094 0.8659,0.1585 0.3984,0.2007 0.8521,0.785 0.8521,0.785 0.9906,-0.3947 2.4261,-1.0752 3.245,-0.8968 0.2624,0.0572 0.3476,0.1484 0.501,0.2833l0.6181 0.5466c0.419,-0.1597 0.847,-0.3837 1.266,-0.5434 0.3973,-0.1797 0.6997,-0.2897 1.1549,-0.3249 0.2937,-0.0015 0.5294,0.0143 0.7169,0.181 0.2094,0.1851 0.4271,0.4204 0.664,0.7093 0.2392,-0.0944 0.5334,-0.2394 0.7728,-0.3339 0.3859,-0.1616 0.7605,-0.3268 1.2022,-0.4062 0.2807,-0.0428 0.5763,-0.0624 0.7669,0.0276 0.3146,0.1165 0.8038,0.4827 1.0472,0.7178"/>
     <path id="_197256568_5" class="fil1 str2" d="M144.98 55.8421c1.6762,-0.6661 2.0949,-0.726 2.4207,-0.7514 0.139,-0.0109 0.5696,0.0094 0.8659,0.1586 0.3984,0.2007 0.8521,0.7849 0.8521,0.7849 0.9906,-0.3946 2.4261,-1.0751 3.245,-0.8967 0.2624,0.0572 0.3476,0.1484 0.501,0.2832l0.6181 0.5466c0.419,-0.1597 0.8471,-0.3837 1.2661,-0.5434 0.3972,-0.1797 0.6996,-0.2897 1.1548,-0.3248 0.2937,-0.0015 0.5294,0.0143 0.7169,0.1809 0.2094,0.1852 0.4272,0.4204 0.664,0.7094 0.2392,-0.0945 0.5335,-0.2395 0.7728,-0.3339 0.3859,-0.1617 0.7605,-0.3269 1.2022,-0.4062 0.2807,-0.0428 0.5763,-0.0625 0.7669,0.0275 0.3146,0.1166 0.8038,0.4827 1.0472,0.7178"/>
     <path id="_197256688_6" class="fil1 str2" d="M160.867 56.041c1.6761,-0.666 2.0948,-0.7259 2.4206,-0.7513 0.139,-0.011 0.5696,0.0094 0.8659,0.1585 0.3984,0.2007 0.8521,0.785 0.8521,0.785 0.9907,-0.3947 2.4262,-1.0752 3.2451,-0.8968 0.2623,0.0572 0.3475,0.1484 0.501,0.2833l0.618 0.5466c0.419,-0.1597 0.8471,-0.3837 1.2661,-0.5435 0.3972,-0.1796 0.6996,-0.2896 1.1549,-0.3248 0.2936,-0.0015 0.5294,0.0143 0.7169,0.181 0.2093,0.1851 0.4271,0.4204 0.6639,0.7093 0.2392,-0.0944 0.5335,-0.2394 0.7728,-0.3339 0.3859,-0.1616 0.7605,-0.3269 1.2022,-0.4062 0.2807,-0.0428 0.5764,-0.0624 0.7669,0.0276 0.3147,0.1165 0.8038,0.4827 1.0472,0.7178"/>
     <path id="_197252128_7" class="fil1 str2" d="M176.755 56.24c1.6761,-0.6661 2.0948,-0.726 2.4206,-0.7514 0.139,-0.0109 0.5696,0.0094 0.8659,0.1586 0.3984,0.2007 0.8521,0.7849 0.8521,0.7849 0.9907,-0.3946 2.4262,-1.0751 3.2451,-0.8967 0.2623,0.0572 0.3475,0.1484 0.501,0.2832l0.618 0.5466c0.419,-0.1597 0.8471,-0.3837 1.2661,-0.5434 0.3972,-0.1797 0.6996,-0.2897 1.1549,-0.3248 0.2936,-0.0015 0.5294,0.0143 0.7169,0.1809 0.2093,0.1852 0.4271,0.4204 0.6639,0.7094"/>
    </g>
    <g id="_197248192">
     <path id="_197251240" class="fil1 str2" d="M74.6082 50.1195c1.6761,-0.6661 2.0949,-0.7261 2.4206,-0.7515 0.139,-0.0108 0.5697,0.0095 0.8659,0.1587 0.3984,0.2007 0.8522,0.7849 0.8522,0.7849 0.9906,-0.3946 2.4261,-1.0751 3.245,-0.8968 0.2624,0.0572 0.3476,0.1485 0.501,0.2833l0.618 0.5466c0.419,-0.1597 0.8471,-0.3837 1.2661,-0.5434 0.3973,-0.1797 0.6997,-0.2897 1.1549,-0.3249 0.2936,-0.0014 0.5294,0.0144 0.7169,0.181 0.2093,0.1851 0.4271,0.4204 0.6639,0.7094 0.2393,-0.0945 0.5335,-0.2394 0.7728,-0.334 0.3859,-0.1616 0.7606,-0.3268 1.2023,-0.4061 0.2807,-0.0428 0.5763,-0.0624 0.7669,0.0275 0.3146,0.1166 0.8038,0.4827 1.0472,0.7178"/>
     <path id="_197248744" class="fil1 str2" d="M90.5878 50.2665c1.6761,-0.6661 2.0949,-0.7259 2.4207,-0.7514 0.1389,-0.0109 0.5696,0.0094 0.8659,0.1586 0.3984,0.2007 0.8521,0.7849 0.8521,0.7849 0.9906,-0.3946 2.4261,-1.0751 3.245,-0.8967 0.2624,0.0572 0.3476,0.1484 0.501,0.2833l0.6181 0.5466c0.419,-0.1598 0.847,-0.3838 1.266,-0.5435 0.3973,-0.1797 0.6997,-0.2897 1.1549,-0.3248 0.2936,-0.0015 0.5294,0.0143 0.7169,0.1809 0.2094,0.1852 0.4271,0.4205 0.664,0.7094 0.2392,-0.0945 0.5334,-0.2394 0.7727,-0.3339 0.3859,-0.1617 0.7606,-0.3269 1.2023,-0.4062 0.2807,-0.0428 0.5763,-0.0624 0.7669,0.0275 0.3146,0.1166 0.8038,0.4827 1.0472,0.7179"/>
     <path id="_197247472" class="fil1 str2" d="M106.476 50.4654c1.6761,-0.666 2.0949,-0.7259 2.4206,-0.7513 0.139,-0.0109 0.5697,0.0094 0.8659,0.1586 0.3984,0.2006 0.8522,0.7849 0.8522,0.7849 0.9906,-0.3947 2.4261,-1.0752 3.245,-0.8968 0.2624,0.0572 0.3476,0.1484 0.501,0.2833l0.618 0.5466c0.419,-0.1597 0.8471,-0.3837 1.2661,-0.5434 0.3972,-0.1797 0.6997,-0.2897 1.1549,-0.3249 0.2936,-0.0014 0.5294,0.0143 0.7169,0.1809 0.2093,0.1853 0.4271,0.4205 0.6639,0.7095 0.2393,-0.0945 0.5335,-0.2395 0.7728,-0.334 0.3859,-0.1616 0.7606,-0.3268 1.2023,-0.4061 0.2806,-0.0429 0.5763,-0.0625 0.7669,0.0275 0.3146,0.1165 0.8038,0.4826 1.0472,0.7178"/>
     <path id="_197249104" class="fil1 str2" d="M122.363 50.6644c1.6761,-0.6661 2.0949,-0.726 2.4207,-0.7514 0.1389,-0.0109 0.5696,0.0094 0.8659,0.1586 0.3984,0.2007 0.8521,0.7849 0.8521,0.7849 0.9906,-0.3946 2.4261,-1.0751 3.245,-0.8967 0.2624,0.0572 0.3476,0.1484 0.501,0.2833l0.6181 0.5466c0.419,-0.1598 0.847,-0.3838 1.266,-0.5435 0.3973,-0.1797 0.6997,-0.2897 1.1549,-0.3248 0.2936,-0.0015 0.5294,0.0143 0.7169,0.1809 0.2094,0.1852 0.4271,0.4205 0.664,0.7094 0.2392,-0.0945 0.5334,-0.2394 0.7727,-0.3339 0.3859,-0.1617 0.7606,-0.3269 1.2023,-0.4062 0.2807,-0.0428 0.5763,-0.0624 0.7669,0.0275 0.3146,0.1166 0.8038,0.4827 1.0472,0.7179"/>
     <path id="_194944632" class="fil1 str2" d="M138.251 50.8633c1.6762,-0.666 2.0949,-0.7259 2.4207,-0.7513 0.139,-0.0109 0.5696,0.0094 0.8659,0.1586 0.3984,0.2006 0.8521,0.7849 0.8521,0.7849 0.9906,-0.3947 2.4261,-1.0752 3.245,-0.8968 0.2624,0.0572 0.3476,0.1484 0.501,0.2833l0.6181 0.5466c0.419,-0.1597 0.847,-0.3837 1.266,-0.5434 0.3973,-0.1797 0.6997,-0.2897 1.1549,-0.3249 0.2937,-0.0014 0.5294,0.0143 0.7169,0.1809 0.2094,0.1853 0.4271,0.4205 0.664,0.7095 0.2392,-0.0945 0.5334,-0.2395 0.7728,-0.334 0.3859,-0.1616 0.7605,-0.3268 1.2022,-0.4061 0.2807,-0.0429 0.5763,-0.0625 0.7669,0.0275 0.3146,0.1165 0.8038,0.4826 1.0472,0.7178"/>
     <path id="_194950776" class="fil1 str2" d="M154.139 51.0623c1.6762,-0.6661 2.0949,-0.726 2.4207,-0.7514 0.139,-0.0109 0.5696,0.0094 0.8659,0.1586 0.3984,0.2007 0.8521,0.7849 0.8521,0.7849 0.9906,-0.3946 2.4261,-1.0751 3.2451,-0.8967 0.2623,0.0572 0.3475,0.1484 0.501,0.2833l0.618 0.5466c0.419,-0.1598 0.8471,-0.3838 1.2661,-0.5435 0.3972,-0.1797 0.6996,-0.2897 1.1549,-0.3248 0.2936,-0.0015 0.5293,0.0143 0.7168,0.1809 0.2094,0.1852 0.4272,0.4204 0.664,0.7094 0.2392,-0.0945 0.5335,-0.2394 0.7728,-0.3339 0.3859,-0.1617 0.7605,-0.3269 1.2022,-0.4062 0.2807,-0.0428 0.5764,-0.0624 0.7669,0.0275 0.3147,0.1166 0.8038,0.4827 1.0472,0.7179"/>
     <path id="_194951160" class="fil1 str2" d="M170.027 51.2612c1.6761,-0.666 2.0948,-0.7259 2.4206,-0.7513 0.139,-0.0109 0.5696,0.0094 0.8659,0.1586 0.3984,0.2006 0.8521,0.7849 0.8521,0.7849 0.9907,-0.3947 2.4261,-1.0752 3.2451,-0.8968 0.2623,0.0572 0.3475,0.1484 0.501,0.2833l0.618 0.5466c0.419,-0.1597 0.8471,-0.3837 1.2661,-0.5434 0.3972,-0.1797 0.6996,-0.2897 1.1549,-0.3249 0.2936,-0.0014 0.5294,0.0143 0.7169,0.1809 0.2093,0.1853 0.4271,0.4205 0.6639,0.7095"/>
    </g>
    <path id="_197251240_8" class="fil1 str2" d="M158.748 33.1163c1.6761,-0.6661 2.0949,-0.7259 2.4208,-0.7513 0.139,-0.0109 0.5695,0.0094 0.8659,0.1586 0.3984,0.2006 0.852,0.7849 0.852,0.7849 0.9907,-0.3947 2.4262,-1.0751 3.245,-0.8967 0.2625,0.0571 0.3477,0.1483 0.5011,0.2832l0.618 0.5466c0.0916,-0.035 0.1838,-0.073 0.2761,-0.1127"/>
    <path id="_197251240_9" class="fil1 str2" d="M161.833 35.5157c1.6761,-0.666 2.0949,-0.7259 2.4208,-0.7513 0.139,-0.0109 0.5695,0.0094 0.8659,0.1586 0.3984,0.2006 0.852,0.7849 0.852,0.7849 0.9907,-0.3947 2.4262,-1.0751 3.245,-0.8967 0.2625,0.0572 0.3477,0.1483 0.5011,0.2832l0.618 0.5466c0.0916,-0.035 0.1838,-0.073 0.2761,-0.1127"/>
    <path id="_197251240_10" class="fil1 str2" d="M165.121 38.1159c1.6761,-0.6661 2.0949,-0.726 2.4208,-0.7514 0.139,-0.0108 0.5695,0.0095 0.8659,0.1587 0.3984,0.2006 0.852,0.7849 0.852,0.7849 0.9907,-0.3947 2.4262,-1.0751 3.245,-0.8968 0.2625,0.0572 0.3477,0.1484 0.5011,0.2832l0.618 0.5467c0.0916,-0.035 0.1838,-0.073 0.2761,-0.1127"/>
    <path id="_197251240_11" class="fil1 str2" d="M168.352 40.7008c1.6761,-0.6661 2.0949,-0.7259 2.4208,-0.7513 0.139,-0.0109 0.5695,0.0094 0.8659,0.1586 0.3984,0.2006 0.852,0.7849 0.852,0.7849 0.9907,-0.3947 2.4262,-1.0751 3.245,-0.8967 0.2625,0.0572 0.3477,0.1483 0.5011,0.2832l0.618 0.5466c0,0 0.085,-0.0311 0.1773,-0.0708"/>
    <path id="_197251240_12" class="fil1 str2" d="M171.953 43.4301c1.6761,-0.6661 2.0949,-0.726 2.4208,-0.7514 0.139,-0.0108 0.5695,0.0095 0.8659,0.1587 0.3984,0.2006 0.852,0.7848 0.852,0.7848 0.9907,-0.3946 2.001,-1.1001 2.8198,-0.9218 0.2625,0.0572 0.6012,0.1897 0.7546,0.3246"/>
    <path id="_197251240_13" class="fil1 str2" d="M175.29 45.9998c1.6761,-0.6661 2.0949,-0.726 2.4208,-0.7514 0.139,-0.0109 0.5695,0.0095 0.8659,0.1587 0.3984,0.2006 0.852,0.7848 0.852,0.7848 0.9907,-0.3946 2.1774,-1.1035 2.9962,-0.9252"/>
    <path id="_197251240_14" class="fil1 str2" d="M178.808 48.6826c1.6761,-0.6661 2.0949,-0.726 2.4208,-0.7514 0.139,-0.0109 0.5695,0.0094 0.8659,0.1586 0.3984,0.2006 0.852,0.7849 0.852,0.7849 0.9907,-0.3947 1.9684,-1.0978 2.7872,-0.9194"/>
    <path id="_197251240_15" class="fil1 str2" d="M182.252 51.3157c1.6761,-0.666 2.0949,-0.7259 2.4208,-0.7513 0.139,-0.0109 0.5695,0.0094 0.8659,0.1586 0.3984,0.2006 0.852,0.7849 0.852,0.7849 0.9907,-0.3947 1.7902,-1.0778 2.609,-0.8994"/>
    <path id="_197251240_16" class="fil1 str2" d="M186.096 53.9408c1.6761,-0.6661 0.5956,-0.6581 0.9215,-0.6835 0.139,-0.0109 1.0529,-0.1998 1.3493,-0.0507 0.3984,0.2006 1.3028,1.0213 1.3028,1.0213 0.9907,-0.3947 1.5581,-1.1192 2.3769,-0.9408 0.2625,0.0572 0.7512,0.3973 0.9046,0.5321"/>
    <path id="_197251240_17" class="fil1 str2" d="M188.603 55.7418c1.6761,-0.6661 1.5974,-0.8172 1.9233,-0.8426 0.139,-0.0109 0.401,-0.0721 0.6974,0.0771 0.3984,0.2006 2.5385,1.1932 3.2598,0.3127"/>
    <path id="_197251240_18" class="fil1 str2" d="M155.358 30.5543c1.6761,-0.6661 2.0949,-0.726 2.4208,-0.7514 0.139,-0.0109 0.5695,0.0095 0.8659,0.1586 0.3984,0.2006 0.852,0.7849 0.852,0.7849 0.9907,-0.3947 2.4262,-1.0751 3.245,-0.8967 0.2625,0.0572 0.3477,0.1483 0.5011,0.2832l0.618 0.5466c0.0916,-0.0349 0.1838,-0.073 0.2761,-0.1127"/>
    <path id="_197251240_19" class="fil1 str2" d="M152.553 28.296c1.6761,-0.6661 2.0949,-0.726 2.4208,-0.7514 0.139,-0.0109 0.5695,0.0094 0.8659,0.1586 0.3984,0.2006 0.852,0.7849 0.852,0.7849 0.9907,-0.3947 2.4262,-1.0751 3.245,-0.8967 0.2625,0.0572 0.3477,0.1483 0.5011,0.2832l0.618 0.5466c0.0916,-0.0349 0.1838,-0.073 0.2761,-0.1127"/>
    <g id="_197248120">
     <path id="_197247208" class="fil1 str2" d="M71.158 47.5062c1.6761,-0.666 2.0948,-0.7259 2.4206,-0.7514 0.139,-0.0109 0.5697,0.0095 0.8659,0.1586 0.3984,0.2007 0.8521,0.7849 0.8521,0.7849 0.9907,-0.3946 2.4262,-1.0751 3.2451,-0.8967 0.2623,0.0572 0.3475,0.1484 0.501,0.2833l0.618 0.5466c0.419,-0.1597 0.8471,-0.3837 1.2661,-0.5435 0.3972,-0.1796 0.6996,-0.2896 1.1549,-0.3248 0.2936,-0.0015 0.5294,0.0143 0.7169,0.181 0.2093,0.1851 0.4271,0.4204 0.6639,0.7093 0.2393,-0.0944 0.5335,-0.2394 0.7728,-0.3339 0.3859,-0.1617 0.7605,-0.3269 1.2022,-0.4062 0.2807,-0.0428 0.5764,-0.0624 0.767,0.0275 0.3146,0.1166 0.8037,0.4828 1.0472,0.7179"/>
     <path id="_197257168" class="fil1 str2" d="M87.1376 47.6533c1.6761,-0.6661 2.0949,-0.726 2.4206,-0.7514 0.139,-0.0109 0.5697,0.0094 0.8659,0.1586 0.3984,0.2007 0.8521,0.7849 0.8521,0.7849 0.9907,-0.3947 2.4262,-1.0751 3.2451,-0.8968 0.2624,0.0572 0.3476,0.1484 0.501,0.2833l0.618 0.5466c0.419,-0.1597 0.8471,-0.3837 1.2661,-0.5434 0.3972,-0.1796 0.6997,-0.2897 1.1549,-0.3249 0.2936,-0.0015 0.5294,0.0143 0.7169,0.181 0.2093,0.1851 0.4271,0.4204 0.6639,0.7093 0.2393,-0.0943 0.5335,-0.2394 0.7728,-0.3339 0.3859,-0.1616 0.7606,-0.3268 1.2023,-0.4061 0.2806,-0.0428 0.5763,-0.0625 0.7669,0.0275 0.3146,0.1166 0.8038,0.4827 1.0472,0.7178"/>
     <path id="_194951352" class="fil1 str2" d="M103.026 47.8523c1.6761,-0.6662 2.0949,-0.7261 2.4207,-0.7515 0.1389,-0.0108 0.5696,0.0095 0.8659,0.1587 0.3983,0.2006 0.8521,0.7848 0.8521,0.7848 0.9906,-0.3946 2.4261,-1.0751 3.245,-0.8967 0.2624,0.0572 0.3476,0.1484 0.501,0.2832l0.6181 0.5466c0.4189,-0.1597 0.847,-0.3836 1.266,-0.5434 0.3973,-0.1796 0.6997,-0.2896 1.1549,-0.3248 0.2936,-0.0015 0.5294,0.0143 0.7169,0.1809 0.2093,0.1852 0.4271,0.4204 0.6639,0.7094 0.2393,-0.0944 0.5335,-0.2395 0.7728,-0.3339 0.3859,-0.1617 0.7606,-0.3269 1.2023,-0.4061 0.2807,-0.0429 0.5763,-0.0625 0.7669,0.0274 0.3146,0.1166 0.8038,0.4827 1.0472,0.7179"/>
     <path id="_195127048" class="fil1 str2" d="M118.913 48.0512c1.6762,-0.6661 2.0949,-0.726 2.4207,-0.7514 0.139,-0.0109 0.5696,0.0094 0.8659,0.1586 0.3984,0.2007 0.8521,0.7849 0.8521,0.7849 0.9906,-0.3947 2.4261,-1.0751 3.245,-0.8968 0.2624,0.0572 0.3476,0.1484 0.501,0.2833l0.6181 0.5466c0.419,-0.1597 0.847,-0.3837 1.266,-0.5434 0.3973,-0.1796 0.6997,-0.2897 1.1549,-0.3249 0.2937,-0.0015 0.5294,0.0143 0.7169,0.181 0.2094,0.1851 0.4271,0.4204 0.664,0.7093 0.2392,-0.0944 0.5334,-0.2394 0.7728,-0.3339 0.3859,-0.1616 0.7605,-0.3268 1.2022,-0.4061 0.2807,-0.0428 0.5763,-0.0625 0.7669,0.0275 0.3146,0.1166 0.8038,0.4827 1.0472,0.7178"/>
     <path id="_195127240" class="fil1 str2" d="M134.801 48.2501c1.6762,-0.6661 2.0949,-0.726 2.4207,-0.7514 0.139,-0.0108 0.5696,0.0095 0.8659,0.1587 0.3984,0.2006 0.8521,0.7848 0.8521,0.7848 0.9906,-0.3946 2.4261,-1.0751 3.2451,-0.8967 0.2623,0.0572 0.3475,0.1484 0.501,0.2832l0.618 0.5466c0.419,-0.1597 0.8471,-0.3836 1.2661,-0.5434 0.3972,-0.1796 0.6996,-0.2896 1.1549,-0.3248 0.2936,-0.0015 0.5293,0.0143 0.7168,0.1809 0.2094,0.1852 0.4272,0.4204 0.664,0.7094 0.2392,-0.0944 0.5335,-0.2395 0.7728,-0.3339 0.3859,-0.1617 0.7605,-0.3269 1.2022,-0.4061 0.2807,-0.0429 0.5764,-0.0625 0.7669,0.0274 0.3147,0.1166 0.8038,0.4827 1.0472,0.7179"/>
     <path id="_195127432" class="fil1 str2" d="M150.689 48.4491c1.6761,-0.6661 2.0948,-0.726 2.4206,-0.7514 0.139,-0.0109 0.5696,0.0094 0.8659,0.1586 0.3984,0.2007 0.8521,0.7848 0.8521,0.7848 0.9907,-0.3946 2.4262,-1.075 3.2451,-0.8967 0.2623,0.0572 0.3475,0.1484 0.501,0.2833l0.618 0.5466c0.419,-0.1597 0.8471,-0.3837 1.2661,-0.5434 0.3972,-0.1796 0.6996,-0.2897 1.1549,-0.3249 0.2936,-0.0015 0.5294,0.0143 0.7169,0.181 0.2093,0.1851 0.4271,0.4204 0.6639,0.7093 0.2392,-0.0944 0.5335,-0.2394 0.7728,-0.3339 0.3859,-0.1616 0.7605,-0.3268 1.2022,-0.4061 0.2807,-0.0428 0.5764,-0.0625 0.7669,0.0274 0.3147,0.1167 0.8038,0.4828 1.0472,0.7179"/>
     <path id="_195128008" class="fil1 str2" d="M166.576 48.648c1.6761,-0.6661 2.0949,-0.726 2.4206,-0.7514 0.139,-0.0108 0.5697,0.0095 0.8659,0.1587 0.3984,0.2006 0.8521,0.7848 0.8521,0.7848 0.9907,-0.3946 2.4262,-1.0751 3.2451,-0.8968 0.2624,0.0573 0.3476,0.1485 0.501,0.2833l0.618 0.5466c0.419,-0.1597 0.8471,-0.3836 1.2661,-0.5434 0.3972,-0.1796 0.6997,-0.2896 1.1549,-0.3249 0.2936,-0.0014 0.5294,0.0144 0.7169,0.181 0.2093,0.1852 0.4271,0.4204 0.6639,0.7094"/>
    </g>
    <g id="_197257072">
     <path id="_195130696" class="fil1 str2" d="M67.6303 44.8359c1.6761,-0.6661 2.0948,-0.726 2.4206,-0.7515 0.139,-0.0108 0.5696,0.0095 0.8659,0.1587 0.3984,0.2006 0.8521,0.7848 0.8521,0.7848 0.9907,-0.3946 2.4262,-1.075 3.2451,-0.8967 0.2623,0.0572 0.3475,0.1484 0.501,0.2833l0.618 0.5466c0.419,-0.1597 0.8471,-0.3837 1.2661,-0.5434 0.3972,-0.1797 0.6996,-0.2897 1.1549,-0.3249 0.2936,-0.0015 0.5294,0.0143 0.7169,0.181 0.2093,0.1851 0.4271,0.4204 0.6639,0.7093 0.2393,-0.0944 0.5335,-0.2394 0.7728,-0.3339 0.3859,-0.1617 0.7605,-0.3268 1.2022,-0.4061 0.2807,-0.0428 0.5764,-0.0625 0.767,0.0274 0.3146,0.1167 0.8037,0.4828 1.0472,0.7179"/>
     <path id="_195130888" class="fil1 str2" d="M83.6099 44.9829c1.6761,-0.6661 2.0949,-0.726 2.4206,-0.7514 0.139,-0.0109 0.5697,0.0094 0.8659,0.1586 0.3984,0.2007 0.8521,0.7849 0.8521,0.7849 0.9907,-0.3946 2.4262,-1.0751 3.2451,-0.8968 0.2624,0.0572 0.3476,0.1485 0.501,0.2833l0.618 0.5466c0.419,-0.1597 0.8471,-0.3837 1.2661,-0.5433 0.3972,-0.1797 0.6997,-0.2898 1.1549,-0.325 0.2936,-0.0014 0.5294,0.0144 0.7169,0.181 0.2093,0.1851 0.4271,0.4205 0.6639,0.7094 0.2393,-0.0944 0.5335,-0.2394 0.7728,-0.334 0.3859,-0.1615 0.7606,-0.3267 1.2023,-0.4061 0.2806,-0.0428 0.5763,-0.0624 0.7669,0.0276 0.3146,0.1165 0.8038,0.4826 1.0472,0.7178"/>
     <path id="_195131080" class="fil1 str2" d="M99.4977 45.1819c1.6761,-0.6661 2.0948,-0.7261 2.4206,-0.7515 0.139,-0.0108 0.5696,0.0095 0.8659,0.1587 0.3984,0.2007 0.8521,0.7849 0.8521,0.7849 0.9907,-0.3946 2.4262,-1.0751 3.2451,-0.8968 0.2623,0.0572 0.3475,0.1484 0.501,0.2832l0.618 0.5467c0.419,-0.1598 0.8471,-0.3837 1.2661,-0.5434 0.3972,-0.1797 0.6996,-0.2897 1.1549,-0.3249 0.2936,-0.0014 0.5294,0.0143 0.7169,0.1809 0.2093,0.1852 0.4271,0.4205 0.6639,0.7095 0.2392,-0.0945 0.5335,-0.2395 0.7728,-0.334 0.3859,-0.1616 0.7605,-0.3268 1.2022,-0.4061 0.2807,-0.0429 0.5764,-0.0625 0.7669,0.0275 0.3147,0.1165 0.8038,0.4826 1.0472,0.7178"/>
     <path id="_195131272" class="fil1 str2" d="M115.386 45.3808c1.6761,-0.6661 2.0949,-0.726 2.4206,-0.7514 0.139,-0.0109 0.5697,0.0094 0.8659,0.1586 0.3984,0.2007 0.8521,0.7849 0.8521,0.7849 0.9907,-0.3946 2.4262,-1.0751 3.2451,-0.8968 0.2624,0.0572 0.3475,0.1485 0.501,0.2833l0.618 0.5466c0.419,-0.1597 0.8471,-0.3837 1.2661,-0.5433 0.3972,-0.1797 0.6997,-0.2898 1.1549,-0.325 0.2936,-0.0014 0.5294,0.0144 0.7169,0.181 0.2093,0.1851 0.4271,0.4205 0.6639,0.7094 0.2393,-0.0944 0.5335,-0.2394 0.7728,-0.334 0.3859,-0.1615 0.7606,-0.3267 1.2023,-0.4061 0.2806,-0.0428 0.5763,-0.0624 0.7669,0.0276 0.3146,0.1165 0.8038,0.4826 1.0472,0.7178"/>
     <path id="_195131464" class="fil1 str2" d="M131.273 45.5798c1.6761,-0.6662 2.0949,-0.7261 2.4206,-0.7515 0.139,-0.0108 0.5697,0.0095 0.8659,0.1587 0.3984,0.2007 0.8522,0.7849 0.8522,0.7849 0.9906,-0.3946 2.4261,-1.0751 3.245,-0.8968 0.2624,0.0572 0.3476,0.1484 0.501,0.2832l0.618 0.5467c0.419,-0.1598 0.8471,-0.3837 1.2661,-0.5434 0.3973,-0.1797 0.6997,-0.2897 1.1549,-0.3249 0.2936,-0.0014 0.5294,0.0143 0.7169,0.1809 0.2093,0.1852 0.4271,0.4205 0.6639,0.7095 0.2393,-0.0945 0.5335,-0.2395 0.7728,-0.334 0.3859,-0.1616 0.7606,-0.3268 1.2023,-0.4061 0.2807,-0.0429 0.5763,-0.0625 0.7669,0.0275 0.3146,0.1165 0.8038,0.4826 1.0472,0.7178"/>
     <path id="_195131656" class="fil1 str2" d="M147.161 45.7787c1.6762,-0.6661 2.0949,-0.726 2.4207,-0.7514 0.139,-0.0109 0.5696,0.0094 0.8659,0.1586 0.3984,0.2007 0.8521,0.7849 0.8521,0.7849 0.9906,-0.3946 2.4261,-1.0751 3.245,-0.8968 0.2624,0.0572 0.3476,0.1485 0.501,0.2833l0.6181 0.5466c0.419,-0.1597 0.847,-0.3837 1.266,-0.5434 0.3973,-0.1796 0.6997,-0.2897 1.1549,-0.3249 0.2937,-0.0014 0.5294,0.0144 0.7169,0.181 0.2094,0.1851 0.4271,0.4205 0.664,0.7094 0.2392,-0.0945 0.5334,-0.2394 0.7728,-0.334 0.3859,-0.1615 0.7605,-0.3268 1.2022,-0.4061 0.2807,-0.0428 0.5763,-0.0624 0.7669,0.0275 0.3146,0.1166 0.8038,0.4827 1.0472,0.7179"/>
     <path id="_195131848" class="fil1 str2" d="M163.049 45.9777c1.6762,-0.6662 2.0949,-0.7261 2.4207,-0.7515 0.139,-0.0108 0.5696,0.0095 0.8659,0.1587 0.3984,0.2007 0.8521,0.7849 0.8521,0.7849 0.9906,-0.3946 2.4261,-1.0751 3.245,-0.8968 0.2624,0.0572 0.3476,0.1484 0.501,0.2832l0.6181 0.5467c0.419,-0.1598 0.8471,-0.3837 1.266,-0.5434 0.3973,-0.1797 0.6997,-0.2897 1.1549,-0.3249 0.2937,-0.0014 0.5294,0.0143 0.7169,0.1809 0.2094,0.1852 0.4271,0.4205 0.664,0.7095"/>
    </g>
    <g id="_195130504">
     <path id="_195132232" class="fil1 str2" d="M64.2652 42.2551c1.6761,-0.6661 2.0948,-0.726 2.4206,-0.7514 0.139,-0.0109 0.5696,0.0094 0.8659,0.1586 0.3984,0.2007 0.8521,0.7849 0.8521,0.7849 0.9907,-0.3946 2.4262,-1.0751 3.2451,-0.8968 0.2623,0.0572 0.3475,0.1485 0.501,0.2833l0.618 0.5466c0.419,-0.1597 0.8471,-0.3837 1.2661,-0.5433 0.3972,-0.1797 0.6996,-0.2898 1.1549,-0.325 0.2936,-0.0014 0.5294,0.0144 0.7169,0.181 0.2093,0.1851 0.4271,0.4205 0.6639,0.7094 0.2393,-0.0944 0.5335,-0.2394 0.7728,-0.334 0.3859,-0.1615 0.7605,-0.3267 1.2022,-0.4061 0.2807,-0.0428 0.5764,-0.0624 0.767,0.0276 0.3146,0.1165 0.8037,0.4826 1.0472,0.7178"/>
     <path id="_195132424" class="fil1 str2" d="M80.2448 42.4021c1.6761,-0.6661 2.0949,-0.7259 2.4206,-0.7513 0.139,-0.011 0.5697,0.0094 0.8659,0.1586 0.3984,0.2006 0.8521,0.7849 0.8521,0.7849 0.9907,-0.3947 2.4262,-1.0752 3.2451,-0.8968 0.2624,0.0572 0.3476,0.1484 0.501,0.2833l0.618 0.5466c0.419,-0.1598 0.8471,-0.3837 1.2661,-0.5434 0.3972,-0.1797 0.6997,-0.2898 1.1549,-0.3249 0.2936,-0.0015 0.5294,0.0143 0.7169,0.1809 0.2093,0.1852 0.4271,0.4205 0.6639,0.7094 0.2393,-0.0944 0.5335,-0.2394 0.7728,-0.3339 0.3859,-0.1616 0.7606,-0.3268 1.2023,-0.4062 0.2806,-0.0428 0.5763,-0.0624 0.7669,0.0276 0.3146,0.1165 0.8038,0.4826 1.0472,0.7178"/>
     <path id="_195132616" class="fil1 str2" d="M96.1326 42.6011c1.6761,-0.6661 2.0948,-0.726 2.4206,-0.7514 0.139,-0.0109 0.5696,0.0094 0.8659,0.1586 0.3984,0.2007 0.8521,0.7849 0.8521,0.7849 0.9907,-0.3946 2.4261,-1.0751 3.2451,-0.8967 0.2623,0.0572 0.3475,0.1484 0.501,0.2832l0.618 0.5467c0.419,-0.1598 0.8471,-0.3838 1.2661,-0.5435 0.3972,-0.1797 0.6996,-0.2897 1.1549,-0.3248 0.2936,-0.0015 0.5294,0.0143 0.7169,0.1809 0.2093,0.1852 0.4271,0.4204 0.6639,0.7094 0.2392,-0.0945 0.5335,-0.2394 0.7728,-0.3339 0.3859,-0.1617 0.7605,-0.3269 1.2022,-0.4062 0.2807,-0.0428 0.5764,-0.0625 0.7669,0.0275 0.3147,0.1166 0.8038,0.4827 1.0472,0.7178"/>
     <path id="_195132808" class="fil1 str2" d="M112.02 42.8c1.6762,-0.6661 2.0949,-0.7259 2.4207,-0.7513 0.139,-0.011 0.5696,0.0094 0.8659,0.1586 0.3984,0.2006 0.8521,0.7849 0.8521,0.7849 0.9906,-0.3947 2.4261,-1.0752 3.245,-0.8968 0.2624,0.0572 0.3476,0.1484 0.501,0.2833l0.6181 0.5466c0.419,-0.1598 0.8471,-0.3837 1.2661,-0.5434 0.3972,-0.1797 0.6996,-0.2898 1.1548,-0.3249 0.2937,-0.0015 0.5294,0.0143 0.7169,0.1809 0.2094,0.1852 0.4271,0.4205 0.664,0.7094 0.2392,-0.0944 0.5334,-0.2394 0.7728,-0.3339 0.3859,-0.1616 0.7605,-0.3268 1.2022,-0.4062 0.2807,-0.0428 0.5763,-0.0624 0.7669,0.0276 0.3146,0.1165 0.8038,0.4826 1.0472,0.7178"/>
     <path id="_194941176" class="fil1 str2" d="M127.908 42.999c1.6761,-0.6661 2.0948,-0.726 2.4206,-0.7514 0.139,-0.0109 0.5696,0.0094 0.8659,0.1586 0.3984,0.2007 0.8521,0.7849 0.8521,0.7849 0.9907,-0.3946 2.4261,-1.0751 3.2451,-0.8967 0.2623,0.0572 0.3475,0.1484 0.501,0.2832l0.618 0.5466c0.419,-0.1597 0.8471,-0.3837 1.2661,-0.5434 0.3972,-0.1797 0.6996,-0.2897 1.1549,-0.3248 0.2936,-0.0015 0.5294,0.0143 0.7169,0.1809 0.2093,0.1852 0.4271,0.4204 0.6639,0.7094 0.2392,-0.0945 0.5335,-0.2394 0.7728,-0.3339 0.3859,-0.1617 0.7605,-0.3269 1.2022,-0.4062 0.2807,-0.0428 0.5764,-0.0625 0.7669,0.0275 0.3147,0.1165 0.8038,0.4826 1.0472,0.7178"/>
     <path id="_194941368" class="fil1 str2" d="M143.796 43.1979c1.6761,-0.6661 2.0948,-0.7259 2.4206,-0.7513 0.139,-0.011 0.5696,0.0094 0.8659,0.1586 0.3984,0.2006 0.8521,0.7849 0.8521,0.7849 0.9907,-0.3947 2.4262,-1.0752 3.2451,-0.8968 0.2623,0.0572 0.3475,0.1484 0.501,0.2833l0.618 0.5466c0.419,-0.1598 0.8471,-0.3837 1.2661,-0.5434 0.3972,-0.1797 0.6996,-0.2898 1.1549,-0.3249 0.2936,-0.0015 0.5294,0.0143 0.7169,0.1809 0.2093,0.1852 0.4271,0.4205 0.6639,0.7094 0.2393,-0.0944 0.5335,-0.2394 0.7728,-0.3339 0.3859,-0.1616 0.7605,-0.3268 1.2022,-0.4062 0.2807,-0.0428 0.5764,-0.0624 0.767,0.0276 0.3146,0.1165 0.8037,0.4826 1.0472,0.7178"/>
     <path id="_194941944" class="fil1 str2" d="M159.684 43.3969c1.6761,-0.6661 2.0949,-0.726 2.4206,-0.7514 0.139,-0.0109 0.5697,0.0094 0.8659,0.1586 0.3984,0.2007 0.8521,0.7849 0.8521,0.7849 0.9907,-0.3946 2.4262,-1.0751 3.2451,-0.8967 0.2624,0.0572 0.3476,0.1484 0.501,0.2832l0.618 0.5466c0.419,-0.1597 0.8471,-0.3837 1.2661,-0.5434 0.3972,-0.1797 0.6997,-0.2897 1.1549,-0.3248 0.2936,-0.0015 0.5294,0.0143 0.7169,0.1809 0.2093,0.1852 0.4271,0.4204 0.6639,0.7094"/>
    </g>
    <g id="_195132040">
     <path id="_194942328" class="fil1 str2" d="M60.6543 39.5031c1.6762,-0.6661 2.0949,-0.726 2.4207,-0.7514 0.139,-0.0109 0.5696,0.0094 0.8659,0.1586 0.3984,0.2007 0.8521,0.7849 0.8521,0.7849 0.9906,-0.3946 2.4261,-1.0751 3.2451,-0.8967 0.2623,0.0572 0.3475,0.1484 0.501,0.2833l0.618 0.5466c0.419,-0.1598 0.8471,-0.3838 1.2661,-0.5435 0.3972,-0.1797 0.6996,-0.2897 1.1549,-0.3248 0.2936,-0.0015 0.5293,0.0143 0.7168,0.1809 0.2094,0.1852 0.4272,0.4205 0.664,0.7094 0.2392,-0.0945 0.5335,-0.2394 0.7728,-0.3339 0.3859,-0.1617 0.7605,-0.3269 1.2022,-0.4062 0.2807,-0.0428 0.5764,-0.0624 0.7669,0.0275 0.3147,0.1166 0.8038,0.4827 1.0472,0.7179"/>
     <path id="_194945784" class="fil1 str2" d="M76.634 39.6502c1.6761,-0.6661 2.0948,-0.726 2.4206,-0.7514 0.139,-0.011 0.5696,0.0094 0.8659,0.1586 0.3984,0.2006 0.8521,0.7849 0.8521,0.7849 0.9907,-0.3947 2.4262,-1.0752 3.2451,-0.8968 0.2623,0.0572 0.3475,0.1484 0.501,0.2833l0.618 0.5466c0.419,-0.1597 0.8471,-0.3837 1.2661,-0.5435 0.3972,-0.1795 0.6996,-0.2896 1.1549,-0.3248 0.2936,-0.0015 0.5294,0.0143 0.7169,0.181 0.2093,0.1851 0.4271,0.4204 0.6639,0.7093 0.2393,-0.0944 0.5335,-0.2394 0.7728,-0.3339 0.3859,-0.1616 0.7605,-0.3269 1.2022,-0.4061 0.2807,-0.0428 0.5764,-0.0625 0.767,0.0274 0.3146,0.1167 0.8037,0.4828 1.0472,0.7179"/>
     <path id="_194945976" class="fil1 str2" d="M92.5217 39.8491c1.6762,-0.6661 2.0949,-0.726 2.4207,-0.7514 0.139,-0.0109 0.5696,0.0095 0.8659,0.1586 0.3984,0.2007 0.8521,0.7849 0.8521,0.7849 0.9906,-0.3946 2.4261,-1.0751 3.2451,-0.8967 0.2623,0.0572 0.3475,0.1484 0.5009,0.2832l0.6181 0.5466c0.419,-0.1597 0.8471,-0.3836 1.2661,-0.5434 0.3972,-0.1796 0.6996,-0.2896 1.1549,-0.3248 0.2936,-0.0015 0.5293,0.0143 0.7168,0.1809 0.2094,0.1852 0.4272,0.4204 0.664,0.7094 0.2392,-0.0944 0.5335,-0.2395 0.7728,-0.3339 0.3859,-0.1617 0.7605,-0.3269 1.2022,-0.4062 0.2807,-0.0428 0.5764,-0.0625 0.7669,0.0275 0.3147,0.1166 0.8038,0.4827 1.0472,0.7178"/>
     <path id="_194946168" class="fil1 str2" d="M108.409 40.0481c1.6762,-0.6661 2.0949,-0.726 2.4207,-0.7514 0.1389,-0.011 0.5696,0.0094 0.8659,0.1586 0.3984,0.2006 0.8521,0.7848 0.8521,0.7848 0.9906,-0.3946 2.4261,-1.0751 3.245,-0.8967 0.2624,0.0572 0.3476,0.1484 0.501,0.2833l0.6181 0.5466c0.419,-0.1597 0.847,-0.3837 1.266,-0.5435 0.3973,-0.1796 0.6997,-0.2896 1.1549,-0.3248 0.2936,-0.0015 0.5294,0.0143 0.7169,0.181 0.2094,0.1851 0.4271,0.4204 0.664,0.7093 0.2392,-0.0944 0.5334,-0.2394 0.7727,-0.3339 0.3859,-0.1616 0.7606,-0.3269 1.2023,-0.4061 0.2807,-0.0428 0.5763,-0.0625 0.7669,0.0274 0.3146,0.1167 0.8038,0.4828 1.0472,0.7179"/>
     <path id="_194946360" class="fil1 str2" d="M124.297 40.247c1.6762,-0.6661 2.0949,-0.726 2.4207,-0.7514 0.139,-0.0109 0.5696,0.0095 0.8659,0.1586 0.3984,0.2007 0.8521,0.7849 0.8521,0.7849 0.9906,-0.3947 2.4261,-1.0751 3.2451,-0.8968 0.2623,0.0572 0.3475,0.1485 0.5009,0.2833l0.6181 0.5466c0.419,-0.1597 0.8471,-0.3836 1.2661,-0.5434 0.3972,-0.1796 0.6996,-0.2896 1.1549,-0.3249 0.2936,-0.0014 0.5293,0.0144 0.7168,0.181 0.2094,0.1852 0.4272,0.4204 0.664,0.7094 0.2392,-0.0944 0.5335,-0.2395 0.7728,-0.3339 0.3859,-0.1617 0.7605,-0.3269 1.2022,-0.4062 0.2807,-0.0428 0.5764,-0.0625 0.7669,0.0275 0.3147,0.1166 0.8038,0.4827 1.0472,0.7178"/>
     <path id="_194946552" class="fil1 str2" d="M140.185 40.446c1.6762,-0.6661 2.0949,-0.726 2.4207,-0.7515 0.139,-0.0109 0.5696,0.0095 0.8659,0.1587 0.3984,0.2006 0.8521,0.7848 0.8521,0.7848 0.9907,-0.3946 2.4261,-1.0751 3.2451,-0.8967 0.2623,0.0572 0.3475,0.1484 0.501,0.2833l0.618 0.5466c0.419,-0.1597 0.8471,-0.3837 1.2661,-0.5435 0.3972,-0.1796 0.6996,-0.2896 1.1549,-0.3248 0.2936,-0.0015 0.5293,0.0143 0.7168,0.181 0.2094,0.1851 0.4272,0.4204 0.664,0.7093 0.2392,-0.0944 0.5335,-0.2394 0.7728,-0.3339 0.3859,-0.1616 0.7605,-0.3269 1.2022,-0.4061 0.2807,-0.0428 0.5764,-0.0625 0.7669,0.0274 0.3147,0.1167 0.8038,0.4828 1.0472,0.7179"/>
     <path id="_194946744" class="fil1 str2" d="M156.073 40.6449c1.6761,-0.6661 2.0949,-0.726 2.4206,-0.7514 0.139,-0.0109 0.5697,0.0095 0.8659,0.1586 0.3984,0.2006 0.8521,0.7849 0.8521,0.7849 0.9907,-0.3947 2.4262,-1.0751 3.2451,-0.8968 0.2623,0.0572 0.3475,0.1484 0.501,0.2833l0.618 0.5466c0.419,-0.1597 0.8471,-0.3836 1.2661,-0.5434 0.3972,-0.1796 0.6997,-0.2896 1.1549,-0.3249 0.2936,-0.0014 0.5294,0.0144 0.7169,0.181 0.2093,0.1852 0.4271,0.4204 0.6639,0.7094"/>
    </g>
    <g id="_194942136">
     <path id="_194947896" class="fil1 str2" d="M57.4027 36.9404c1.6762,-0.6661 2.0949,-0.726 2.4207,-0.7514 0.139,-0.0109 0.5696,0.0095 0.8659,0.1586 0.3984,0.2007 0.8521,0.7849 0.8521,0.7849 0.9906,-0.3947 2.4261,-1.0751 3.245,-0.8968 0.2624,0.0572 0.3476,0.1484 0.501,0.2833l0.6181 0.5466c0.419,-0.1597 0.847,-0.3836 1.266,-0.5434 0.3973,-0.1796 0.6997,-0.2897 1.1549,-0.3249 0.2937,-0.0014 0.5294,0.0143 0.7169,0.181 0.2094,0.1852 0.4271,0.4204 0.664,0.7094 0.2392,-0.0944 0.5334,-0.2395 0.7728,-0.3339 0.3859,-0.1617 0.7605,-0.3269 1.2022,-0.4062 0.2807,-0.0428 0.5763,-0.0625 0.7669,0.0275 0.3146,0.1166 0.8038,0.4827 1.0472,0.7178"/>
     <path id="_194948088" class="fil1 str2" d="M73.3823 37.0874c1.6762,-0.6661 2.0949,-0.726 2.4207,-0.7514 0.139,-0.0108 0.5696,0.0095 0.8659,0.1587 0.3984,0.2007 0.8521,0.7848 0.8521,0.7848 0.9906,-0.3946 2.4261,-1.075 3.2451,-0.8968 0.2623,0.0572 0.3475,0.1485 0.501,0.2833l0.618 0.5467c0.419,-0.1598 0.8471,-0.3837 1.2661,-0.5434 0.3972,-0.1797 0.6996,-0.2897 1.1549,-0.325 0.2936,-0.0013 0.5293,0.0144 0.7168,0.181 0.2094,0.1852 0.4272,0.4205 0.664,0.7094 0.2392,-0.0944 0.5335,-0.2394 0.7728,-0.3339 0.3859,-0.1616 0.7605,-0.3268 1.2022,-0.4061 0.2807,-0.0429 0.5764,-0.0625 0.7669,0.0275 0.3147,0.1165 0.8038,0.4826 1.0472,0.7178"/>
     <path id="_194948280" class="fil1 str2" d="M89.2701 37.2864c1.6762,-0.6661 2.0949,-0.726 2.4207,-0.7515 0.139,-0.0108 0.5696,0.0095 0.8659,0.1587 0.3984,0.2007 0.8521,0.7849 0.8521,0.7849 0.9906,-0.3946 2.4261,-1.0751 3.245,-0.8968 0.2624,0.0572 0.3476,0.1485 0.501,0.2833l0.6181 0.5466c0.419,-0.1597 0.847,-0.3837 1.266,-0.5434 0.3973,-0.1797 0.6997,-0.2897 1.1549,-0.3249 0.2937,-0.0014 0.5294,0.0143 0.7169,0.181 0.2094,0.1851 0.4271,0.4205 0.664,0.7094 0.2392,-0.0945 0.5334,-0.2394 0.7727,-0.334 0.386,-0.1616 0.7606,-0.3268 1.2023,-0.4061 0.2807,-0.0428 0.5763,-0.0624 0.7669,0.0275 0.3146,0.1166 0.8038,0.4827 1.0472,0.7179"/>
     <path id="_194948472" class="fil1 str2" d="M105.158 37.4853c1.6761,-0.6661 2.0949,-0.726 2.4206,-0.7514 0.139,-0.0108 0.5697,0.0095 0.8659,0.1587 0.3984,0.2006 0.8522,0.7848 0.8522,0.7848 0.9906,-0.3946 2.4261,-1.0751 3.245,-0.8968 0.2624,0.0572 0.3476,0.1485 0.501,0.2833l0.618 0.5467c0.419,-0.1598 0.8471,-0.3837 1.2661,-0.5434 0.3972,-0.1797 0.6997,-0.2897 1.1549,-0.325 0.2936,-0.0013 0.5294,0.0144 0.7169,0.181 0.2093,0.1852 0.4271,0.4205 0.6639,0.7094 0.2393,-0.0944 0.5335,-0.2394 0.7728,-0.3339 0.3859,-0.1616 0.7606,-0.3268 1.2023,-0.4061 0.2807,-0.0429 0.5763,-0.0625 0.7669,0.0275 0.3146,0.1165 0.8038,0.4826 1.0472,0.7178"/>
     <path id="_194948664" class="fil1 str2" d="M121.045 37.6843c1.6762,-0.6661 2.0949,-0.726 2.4207,-0.7515 0.139,-0.0108 0.5696,0.0095 0.8659,0.1587 0.3984,0.2007 0.8521,0.7849 0.8521,0.7849 0.9906,-0.3946 2.4261,-1.0751 3.245,-0.8968 0.2624,0.0572 0.3476,0.1485 0.501,0.2833l0.6181 0.5466c0.419,-0.1597 0.847,-0.3837 1.266,-0.5434 0.3973,-0.1797 0.6997,-0.2897 1.1549,-0.3249 0.2936,-0.0014 0.5294,0.0143 0.7169,0.181 0.2094,0.1851 0.4271,0.4205 0.664,0.7094 0.2392,-0.0945 0.5334,-0.2394 0.7727,-0.334 0.3859,-0.1616 0.7606,-0.3268 1.2023,-0.4061 0.2807,-0.0428 0.5763,-0.0624 0.7669,0.0275 0.3146,0.1166 0.8038,0.4827 1.0472,0.7179"/>
     <path id="_194948856" class="fil1 str2" d="M136.934 37.8832c1.6762,-0.6661 2.0949,-0.726 2.4207,-0.7514 0.139,-0.0108 0.5696,0.0095 0.8659,0.1587 0.3984,0.2006 0.8521,0.7848 0.8521,0.7848 0.9906,-0.3946 2.4261,-1.0751 3.245,-0.8968 0.2624,0.0572 0.3476,0.1485 0.501,0.2833l0.6181 0.5467c0.419,-0.1598 0.847,-0.3837 1.266,-0.5434 0.3973,-0.1797 0.6997,-0.2897 1.1549,-0.325 0.2937,-0.0013 0.5294,0.0144 0.7169,0.181 0.2094,0.1852 0.4271,0.4205 0.664,0.7094 0.2392,-0.0944 0.5334,-0.2394 0.7728,-0.3339 0.3859,-0.1616 0.7605,-0.3268 1.2022,-0.4061 0.2807,-0.0429 0.5763,-0.0625 0.7669,0.0275 0.3146,0.1165 0.8038,0.4826 1.0472,0.7178"/>
     <path id="_194949048" class="fil1 str2" d="M152.821 38.0822c1.6761,-0.6661 2.0948,-0.7261 2.4206,-0.7515 0.139,-0.0108 0.5696,0.0095 0.8659,0.1587 0.3984,0.2007 0.8521,0.7849 0.8521,0.7849 0.9907,-0.3946 2.4261,-1.0751 3.2451,-0.8968 0.2623,0.0572 0.3475,0.1485 0.501,0.2833l0.618 0.5466c0.419,-0.1597 0.8471,-0.3837 1.2661,-0.5434 0.3972,-0.1797 0.6996,-0.2897 1.1549,-0.3249 0.2936,-0.0014 0.5294,0.0143 0.7168,0.181 0.2094,0.1851 0.4272,0.4205 0.664,0.7094"/>
    </g>
    <g id="_194946936">
     <path id="_194949816" class="fil1 str2" d="M54.1367 34.3685c1.6761,-0.6661 2.0948,-0.7259 2.4206,-0.7513 0.139,-0.011 0.5696,0.0094 0.8659,0.1586 0.3984,0.2006 0.8521,0.7849 0.8521,0.7849 0.9907,-0.3947 2.4262,-1.0752 3.2451,-0.8968 0.2623,0.0572 0.3475,0.1484 0.501,0.2833l0.618 0.5466c0.419,-0.1597 0.8471,-0.3837 1.2661,-0.5434 0.3972,-0.1797 0.6996,-0.2898 1.1549,-0.3249 0.2936,-0.0014 0.5294,0.0143 0.7169,0.1809 0.2093,0.1853 0.4271,0.4205 0.6639,0.7095 0.2393,-0.0945 0.5335,-0.2395 0.7728,-0.334 0.3859,-0.1616 0.7605,-0.3268 1.2022,-0.4061 0.2807,-0.0429 0.5764,-0.0625 0.767,0.0275 0.3146,0.1165 0.8037,0.4826 1.0472,0.7178"/>
     <path id="_194950008" class="fil1 str2" d="M70.1163 34.5156c1.6761,-0.6661 2.0949,-0.726 2.4206,-0.7514 0.139,-0.0109 0.5697,0.0095 0.8659,0.1586 0.3984,0.2007 0.8521,0.7849 0.8521,0.7849 0.9907,-0.3947 2.4262,-1.0751 3.2451,-0.8967 0.2624,0.0572 0.3476,0.1484 0.501,0.2832l0.618 0.5466c0.419,-0.1597 0.8471,-0.3836 1.2661,-0.5434 0.3972,-0.1796 0.6997,-0.2896 1.1549,-0.3249 0.2936,-0.0014 0.5294,0.0144 0.7169,0.181 0.2093,0.1852 0.4271,0.4204 0.6639,0.7094 0.2393,-0.0944 0.5335,-0.2395 0.7728,-0.3339 0.3859,-0.1617 0.7606,-0.3269 1.2023,-0.4062 0.2806,-0.0428 0.5763,-0.0625 0.7669,0.0275 0.3146,0.1166 0.8038,0.4827 1.0472,0.7178"/>
     <path id="_194952312" class="fil1 str2" d="M86.0041 34.7146c1.6761,-0.6661 2.0948,-0.726 2.4206,-0.7514 0.139,-0.011 0.5696,0.0094 0.8659,0.1585 0.3984,0.2007 0.8521,0.7849 0.8521,0.7849 0.9907,-0.3946 2.4262,-1.0751 3.2451,-0.8967 0.2623,0.0572 0.3475,0.1484 0.501,0.2833l0.618 0.5466c0.419,-0.1597 0.8471,-0.3837 1.2661,-0.5435 0.3972,-0.1796 0.6996,-0.2896 1.1549,-0.3248 0.2936,-0.0015 0.5294,0.0143 0.7169,0.181 0.2093,0.1851 0.4271,0.4204 0.6639,0.7093 0.2393,-0.0944 0.5335,-0.2394 0.7728,-0.3339 0.3859,-0.1616 0.7605,-0.3269 1.2022,-0.4062 0.2807,-0.0428 0.5764,-0.0624 0.7669,0.0275 0.3147,0.1166 0.8038,0.4828 1.0472,0.7179"/>
     <path id="_194952504" class="fil1 str2" d="M101.892 34.9135c1.6762,-0.6661 2.0949,-0.726 2.4207,-0.7514 0.139,-0.0109 0.5696,0.0095 0.8659,0.1586 0.3984,0.2007 0.8521,0.7849 0.8521,0.7849 0.9906,-0.3947 2.4261,-1.0751 3.245,-0.8968 0.2624,0.0572 0.3476,0.1485 0.501,0.2833l0.6181 0.5466c0.419,-0.1597 0.8471,-0.3836 1.2661,-0.5434 0.3972,-0.1796 0.6996,-0.2896 1.1548,-0.3249 0.2937,-0.0014 0.5294,0.0144 0.7169,0.181 0.2094,0.1852 0.4272,0.4204 0.664,0.7094 0.2392,-0.0944 0.5335,-0.2395 0.7728,-0.3339 0.3859,-0.1617 0.7605,-0.3269 1.2022,-0.4062 0.2807,-0.0428 0.5764,-0.0625 0.7669,0.0275 0.3146,0.1166 0.8038,0.4827 1.0472,0.7178"/>
     <path id="_195126664" class="fil1 str2" d="M117.78 35.1125c1.6762,-0.6661 2.0949,-0.726 2.4207,-0.7515 0.139,-0.0109 0.5696,0.0095 0.8659,0.1586 0.3984,0.2007 0.8521,0.7849 0.8521,0.7849 0.9906,-0.3946 2.4261,-1.0751 3.245,-0.8967 0.2624,0.0572 0.3476,0.1484 0.501,0.2833l0.6181 0.5466c0.419,-0.1597 0.847,-0.3837 1.266,-0.5435 0.3973,-0.1796 0.6997,-0.2896 1.1549,-0.3248 0.2937,-0.0015 0.5294,0.0143 0.7169,0.181 0.2094,0.1851 0.4271,0.4204 0.664,0.7093 0.2392,-0.0944 0.5334,-0.2394 0.7728,-0.3339 0.3859,-0.1617 0.7605,-0.3269 1.2022,-0.4062 0.2807,-0.0428 0.5763,-0.0624 0.7669,0.0275 0.3146,0.1166 0.8038,0.4828 1.0472,0.7179"/>
     <path id="_195128584" class="fil1 str2" d="M133.668 35.3114c1.6762,-0.6661 2.0949,-0.726 2.4207,-0.7514 0.139,-0.0109 0.5696,0.0095 0.8659,0.1586 0.3984,0.2006 0.8521,0.7849 0.8521,0.7849 0.9906,-0.3947 2.4261,-1.0751 3.245,-0.8968 0.2624,0.0572 0.3476,0.1485 0.501,0.2833l0.6181 0.5466c0.419,-0.1597 0.8471,-0.3836 1.2661,-0.5434 0.3972,-0.1796 0.6996,-0.2896 1.1548,-0.3249 0.2937,-0.0014 0.5294,0.0144 0.7169,0.181 0.2094,0.1852 0.4271,0.4204 0.664,0.7094 0.2392,-0.0944 0.5335,-0.2395 0.7728,-0.3339 0.3859,-0.1617 0.7605,-0.3269 1.2022,-0.4062 0.2807,-0.0428 0.5763,-0.0625 0.7669,0.0275 0.3146,0.1166 0.8038,0.4827 1.0472,0.7178"/>
     <path id="_195128776" class="fil1 str2" d="M149.555 35.5104c1.6761,-0.6661 2.0948,-0.726 2.4206,-0.7515 0.139,-0.0109 0.5696,0.0095 0.8659,0.1586 0.3984,0.2007 0.8521,0.7849 0.8521,0.7849 0.9907,-0.3946 2.4261,-1.0751 3.2451,-0.8967 0.2623,0.0572 0.3475,0.1484 0.501,0.2833l0.618 0.5466c0.419,-0.1597 0.8471,-0.3837 1.2661,-0.5435 0.3972,-0.1796 0.6996,-0.2896 1.1549,-0.3248 0.2936,-0.0015 0.5294,0.0143 0.7169,0.181 0.2093,0.1851 0.4271,0.4204 0.6639,0.7093"/>
    </g>
    <g id="_194949624">
     <path id="_195129736" class="fil1 str2" d="M51.0433 31.9419c1.6761,-0.6661 2.0949,-0.726 2.4206,-0.7514 0.139,-0.0109 0.5697,0.0095 0.8659,0.1586 0.3984,0.2007 0.8521,0.7849 0.8521,0.7849 0.9907,-0.3947 2.4262,-1.0751 3.2451,-0.8968 0.2624,0.0572 0.3475,0.1484 0.501,0.2833l0.618 0.5466c0.419,-0.1597 0.8471,-0.3836 1.2661,-0.5434 0.3972,-0.1796 0.6997,-0.2896 1.1549,-0.3249 0.2936,-0.0014 0.5294,0.0143 0.7169,0.181 0.2093,0.1852 0.4271,0.4204 0.6639,0.7094 0.2393,-0.0944 0.5335,-0.2395 0.7728,-0.3339 0.3859,-0.1617 0.7606,-0.3269 1.2023,-0.4062 0.2806,-0.0428 0.5763,-0.0625 0.7669,0.0275 0.3146,0.1166 0.8038,0.4827 1.0472,0.7178"/>
     <path id="_195130312" class="fil1 str2" d="M67.0229 32.089c1.6761,-0.6662 2.0949,-0.7261 2.4206,-0.7515 0.139,-0.0108 0.5697,0.0095 0.8659,0.1587 0.3984,0.2007 0.8522,0.7848 0.8522,0.7848 0.9906,-0.3945 2.4261,-1.075 3.245,-0.8967 0.2624,0.0572 0.3476,0.1484 0.501,0.2832l0.618 0.5467c0.419,-0.1598 0.8471,-0.3837 1.2661,-0.5434 0.3972,-0.1797 0.6997,-0.2897 1.1549,-0.3249 0.2936,-0.0014 0.5294,0.0143 0.7169,0.1809 0.2093,0.1852 0.4271,0.4205 0.6639,0.7094 0.2393,-0.0944 0.5335,-0.2394 0.7728,-0.3339 0.3859,-0.1616 0.7606,-0.3268 1.2023,-0.4061 0.2806,-0.0429 0.5763,-0.0625 0.7669,0.0275 0.3146,0.1165 0.8038,0.4826 1.0472,0.7178"/>
     <path id="_194940024" class="fil1 str2" d="M82.9107 32.2879c1.6761,-0.6661 2.0949,-0.726 2.4206,-0.7514 0.139,-0.0109 0.5697,0.0094 0.8659,0.1586 0.3984,0.2007 0.8521,0.7849 0.8521,0.7849 0.9907,-0.3946 2.4262,-1.0751 3.2451,-0.8968 0.2623,0.0572 0.3475,0.1485 0.501,0.2833l0.618 0.5466c0.419,-0.1597 0.8471,-0.3837 1.2661,-0.5434 0.3972,-0.1796 0.6997,-0.2897 1.1549,-0.3249 0.2936,-0.0014 0.5294,0.0143 0.7169,0.181 0.2093,0.1851 0.4271,0.4205 0.6639,0.7094 0.2393,-0.0945 0.5335,-0.2394 0.7728,-0.334 0.3859,-0.1616 0.7605,-0.3268 1.2022,-0.4061 0.2807,-0.0428 0.5764,-0.0624 0.767,0.0275 0.3146,0.1166 0.8038,0.4827 1.0472,0.7179"/>
     <path id="_194940216" class="fil1 str2" d="M98.7984 32.4868c1.6762,-0.6661 2.0949,-0.726 2.4207,-0.7514 0.139,-0.0108 0.5696,0.0095 0.8659,0.1587 0.3984,0.2007 0.8521,0.7848 0.8521,0.7848 0.9906,-0.3946 2.4261,-1.075 3.2451,-0.8967 0.2623,0.0572 0.3475,0.1484 0.501,0.2832l0.618 0.5467c0.419,-0.1598 0.8471,-0.3837 1.2661,-0.5434 0.3972,-0.1797 0.6996,-0.2897 1.1549,-0.325 0.2936,-0.0013 0.5293,0.0144 0.7168,0.181 0.2094,0.1852 0.4272,0.4205 0.664,0.7094 0.2392,-0.0944 0.5335,-0.2394 0.7728,-0.3339 0.3859,-0.1616 0.7605,-0.3268 1.2022,-0.4061 0.2807,-0.0429 0.5764,-0.0625 0.7669,0.0275 0.3147,0.1165 0.8038,0.4826 1.0472,0.7178"/>
     <path id="_194940408" class="fil1 str2" d="M114.686 32.6858c1.6761,-0.6661 2.0948,-0.726 2.4206,-0.7514 0.139,-0.0109 0.5696,0.0094 0.8659,0.1586 0.3984,0.2007 0.8521,0.7849 0.8521,0.7849 0.9907,-0.3946 2.4262,-1.0751 3.2451,-0.8968 0.2623,0.0572 0.3475,0.1485 0.501,0.2833l0.618 0.5466c0.419,-0.1597 0.8471,-0.3837 1.2661,-0.5434 0.3972,-0.1797 0.6996,-0.2897 1.1549,-0.3249 0.2936,-0.0014 0.5294,0.0143 0.7169,0.181 0.2093,0.1851 0.4271,0.4205 0.6639,0.7094 0.2393,-0.0945 0.5335,-0.2394 0.7728,-0.334 0.3859,-0.1616 0.7605,-0.3268 1.2022,-0.4061 0.2807,-0.0428 0.5764,-0.0624 0.7669,0.0275 0.3147,0.1166 0.8038,0.4827 1.0472,0.7179"/>
     <path id="_194940600" class="fil1 str2" d="M130.574 32.8847c1.6761,-0.6661 2.0948,-0.726 2.4206,-0.7514 0.139,-0.0108 0.5697,0.0095 0.8659,0.1587 0.3984,0.2007 0.8521,0.7848 0.8521,0.7848 0.9907,-0.3946 2.4262,-1.075 3.2451,-0.8968 0.2623,0.0572 0.3475,0.1485 0.501,0.2833l0.618 0.5467c0.419,-0.1598 0.8471,-0.3837 1.2661,-0.5434 0.3972,-0.1797 0.6996,-0.2897 1.1549,-0.325 0.2936,-0.0013 0.5294,0.0144 0.7169,0.181 0.2093,0.1852 0.4271,0.4205 0.6639,0.7094 0.2393,-0.0944 0.5335,-0.2394 0.7728,-0.3339 0.3859,-0.1616 0.7605,-0.3268 1.2022,-0.4061 0.2807,-0.0429 0.5764,-0.0625 0.767,0.0275 0.3146,0.1165 0.8038,0.4826 1.0472,0.7178"/>
     <path id="_194940792" class="fil1 str2" d="M146.462 33.0837c1.6761,-0.6661 2.0949,-0.726 2.4206,-0.7515 0.139,-0.0108 0.5697,0.0095 0.8659,0.1587 0.3984,0.2007 0.8522,0.7849 0.8522,0.7849 0.9906,-0.3946 2.4261,-1.0751 3.245,-0.8968 0.2624,0.0572 0.3476,0.1485 0.501,0.2833l0.618 0.5466c0.419,-0.1597 0.8471,-0.3837 1.2661,-0.5434 0.3972,-0.1797 0.6997,-0.2897 1.1549,-0.3249 0.2936,-0.0014 0.5294,0.0143 0.7169,0.181 0.2093,0.1851 0.4271,0.4205 0.6639,0.7094"/>
    </g>
    <g id="_195128968">
     <path id="_194941752" class="fil1 str2" d="M47.4926 29.3661c1.6762,-0.6661 2.0949,-0.726 2.4207,-0.7514 0.139,-0.0108 0.5696,0.0095 0.8659,0.1587 0.3984,0.2006 0.8521,0.7848 0.8521,0.7848 0.9906,-0.3946 2.4261,-1.0751 3.245,-0.8967 0.2624,0.0571 0.3476,0.1484 0.501,0.2832l0.6181 0.5467c0.419,-0.1598 0.847,-0.3837 1.266,-0.5434 0.3973,-0.1797 0.6997,-0.2897 1.1549,-0.325 0.2937,-0.0013 0.5294,0.0144 0.7169,0.181 0.2094,0.1852 0.4271,0.4205 0.664,0.7094 0.2392,-0.0944 0.5334,-0.2394 0.7728,-0.3339 0.3859,-0.1616 0.7605,-0.3268 1.2022,-0.4061 0.2807,-0.0429 0.5763,-0.0625 0.7669,0.0275 0.3146,0.1165 0.8038,0.4826 1.0472,0.7178"/>
     <path id="_194942520" class="fil1 str2" d="M63.4722 29.5132c1.6762,-0.6662 2.0949,-0.726 2.4207,-0.7514 0.139,-0.0109 0.5696,0.0094 0.8659,0.1586 0.3984,0.2007 0.8521,0.7849 0.8521,0.7849 0.9906,-0.3946 2.4261,-1.0751 3.245,-0.8967 0.2624,0.0572 0.3476,0.1484 0.501,0.2832l0.6181 0.5466c0.419,-0.1597 0.8471,-0.3837 1.2661,-0.5434 0.3972,-0.1797 0.6996,-0.2897 1.1549,-0.3249 0.2936,-0.0014 0.5293,0.0144 0.7168,0.1809 0.2094,0.1853 0.4272,0.4205 0.664,0.7095 0.2392,-0.0945 0.5335,-0.2395 0.7728,-0.334 0.3859,-0.1616 0.7605,-0.3268 1.2022,-0.4061 0.2807,-0.0429 0.5764,-0.0625 0.7669,0.0275 0.3147,0.1165 0.8038,0.4826 1.0472,0.7178"/>
     <path id="_194942712" class="fil1 str2" d="M79.36 29.7121c1.6761,-0.6661 2.0949,-0.726 2.4207,-0.7514 0.1389,-0.0109 0.5696,0.0094 0.8659,0.1586 0.3984,0.2007 0.8521,0.785 0.8521,0.785 0.9906,-0.3947 2.4261,-1.0752 3.245,-0.8968 0.2624,0.0572 0.3476,0.1484 0.501,0.2832l0.6181 0.5467c0.419,-0.1598 0.847,-0.3838 1.266,-0.5435 0.3973,-0.1796 0.6997,-0.2897 1.1549,-0.3248 0.2936,-0.0015 0.5294,0.0143 0.7169,0.1809 0.2094,0.1852 0.4271,0.4205 0.664,0.7094 0.2392,-0.0945 0.5334,-0.2394 0.7727,-0.3339 0.3859,-0.1616 0.7606,-0.3269 1.2023,-0.4062 0.2807,-0.0428 0.5763,-0.0624 0.7669,0.0275 0.3146,0.1166 0.8038,0.4827 1.0472,0.7179"/>
     <path id="_194942904" class="fil1 str2" d="M95.2478 29.911c1.6761,-0.6661 2.0949,-0.7259 2.4206,-0.7513 0.139,-0.0109 0.5697,0.0094 0.8659,0.1586 0.3984,0.2007 0.8522,0.7849 0.8522,0.7849 0.9906,-0.3946 2.4261,-1.0751 3.245,-0.8967 0.2624,0.0572 0.3476,0.1484 0.501,0.2832l0.618 0.5466c0.419,-0.1597 0.8471,-0.3837 1.2661,-0.5434 0.3972,-0.1797 0.6997,-0.2897 1.1549,-0.3249 0.2936,-0.0014 0.5294,0.0144 0.7169,0.1809 0.2093,0.1853 0.4271,0.4205 0.6639,0.7095 0.2393,-0.0945 0.5335,-0.2395 0.7728,-0.334 0.3859,-0.1616 0.7606,-0.3268 1.2023,-0.4061 0.2806,-0.0429 0.5763,-0.0625 0.7669,0.0275 0.3146,0.1165 0.8038,0.4826 1.0472,0.7178"/>
     <path id="_194943096" class="fil1 str2" d="M111.136 30.11c1.6761,-0.6661 2.0949,-0.726 2.4206,-0.7514 0.139,-0.0109 0.5697,0.0094 0.8659,0.1586 0.3984,0.2007 0.8521,0.7849 0.8521,0.7849 0.9907,-0.3946 2.4262,-1.0751 3.2451,-0.8967 0.2623,0.0572 0.3475,0.1484 0.501,0.2833l0.618 0.5466c0.419,-0.1598 0.8471,-0.3838 1.2661,-0.5435 0.3972,-0.1797 0.6996,-0.2897 1.1549,-0.3248 0.2936,-0.0015 0.5294,0.0143 0.7169,0.1809 0.2093,0.1852 0.4271,0.4205 0.6639,0.7094 0.2393,-0.0945 0.5335,-0.2394 0.7728,-0.3339 0.3859,-0.1616 0.7605,-0.3269 1.2022,-0.4062 0.2807,-0.0428 0.5764,-0.0624 0.767,0.0275 0.3146,0.1166 0.8038,0.4827 1.0472,0.7179"/>
     <path id="_194943288" class="fil1 str2" d="M127.024 30.3089c1.6761,-0.6661 2.0949,-0.7259 2.4206,-0.7513 0.139,-0.0109 0.5697,0.0094 0.8659,0.1586 0.3984,0.2007 0.8522,0.7849 0.8522,0.7849 0.9906,-0.3947 2.4261,-1.0751 3.245,-0.8967 0.2624,0.0572 0.3476,0.1484 0.501,0.2832l0.618 0.5466c0.419,-0.1597 0.8471,-0.3837 1.2661,-0.5434 0.3973,-0.1797 0.6997,-0.2897 1.1549,-0.3249 0.2936,-0.0014 0.5294,0.0144 0.7169,0.1809 0.2093,0.1853 0.4271,0.4205 0.6639,0.7095 0.2393,-0.0945 0.5335,-0.2395 0.7728,-0.334 0.3859,-0.1616 0.7606,-0.3268 1.2023,-0.4061 0.2807,-0.0429 0.5763,-0.0625 0.7669,0.0275 0.3146,0.1165 0.8038,0.4826 1.0472,0.7178"/>
     <path id="_194943480" class="fil1 str2" d="M142.911 30.5079c1.6762,-0.6661 2.0949,-0.726 2.4207,-0.7514 0.139,-0.0109 0.5696,0.0094 0.8659,0.1586 0.3984,0.2007 0.8521,0.7849 0.8521,0.7849 0.9906,-0.3946 2.4261,-1.0751 3.245,-0.8967 0.2624,0.0572 0.3476,0.1484 0.501,0.2833l0.6181 0.5466c0.419,-0.1598 0.847,-0.3838 1.266,-0.5435 0.3973,-0.1797 0.6997,-0.2897 1.1549,-0.3248 0.2937,-0.0015 0.5294,0.0143 0.7169,0.1809 0.2094,0.1852 0.4271,0.4205 0.664,0.7094"/>
    </g>
    <g id="_194941560">
     <path id="_194944824" class="fil1 str2" d="M44.6456 27.1516c1.6761,-0.6661 2.0949,-0.7261 2.4207,-0.7515 0.1389,-0.0108 0.5696,0.0095 0.8659,0.1587 0.3984,0.2007 0.8521,0.7849 0.8521,0.7849 0.9906,-0.3946 2.4261,-1.0751 3.245,-0.8968 0.2624,0.0572 0.3476,0.1485 0.501,0.2833l0.6181 0.5466c0.419,-0.1597 0.847,-0.3837 1.266,-0.5434 0.3973,-0.1797 0.6997,-0.2897 1.1549,-0.3249 0.2936,-0.0014 0.5294,0.0144 0.7169,0.1809 0.2094,0.1852 0.4271,0.4205 0.6639,0.7095 0.2393,-0.0945 0.5335,-0.2394 0.7728,-0.334 0.3859,-0.1616 0.7606,-0.3268 1.2023,-0.4061 0.2807,-0.0428 0.5763,-0.0625 0.7669,0.0275 0.3146,0.1166 0.8038,0.4827 1.0472,0.7178"/>
     <path id="_194945016" class="fil1 str2" d="M60.6252 27.2986c1.6762,-0.6661 2.0949,-0.726 2.4207,-0.7514 0.139,-0.0109 0.5696,0.0094 0.8659,0.1586 0.3984,0.2007 0.8521,0.7849 0.8521,0.7849 0.9906,-0.3946 2.4261,-1.0751 3.245,-0.8967 0.2624,0.0572 0.3476,0.1484 0.501,0.2833l0.6181 0.5466c0.419,-0.1598 0.847,-0.3838 1.266,-0.5435 0.3973,-0.1797 0.6997,-0.2897 1.1549,-0.3248 0.2937,-0.0015 0.5294,0.0143 0.7169,0.1809 0.2094,0.1852 0.4271,0.4205 0.664,0.7094 0.2392,-0.0945 0.5334,-0.2394 0.7728,-0.3339 0.3859,-0.1617 0.7605,-0.3269 1.2022,-0.4062 0.2807,-0.0428 0.5763,-0.0624 0.7669,0.0275 0.3146,0.1166 0.8038,0.4827 1.0472,0.7179"/>
     <path id="_194945208" class="fil1 str2" d="M76.513 27.4975c1.6761,-0.666 2.0949,-0.7259 2.4206,-0.7513 0.139,-0.0109 0.5697,0.0094 0.8659,0.1586 0.3984,0.2006 0.8522,0.7849 0.8522,0.7849 0.9906,-0.3947 2.4261,-1.0752 3.245,-0.8968 0.2624,0.0572 0.3476,0.1484 0.501,0.2833l0.618 0.5466c0.419,-0.1597 0.8471,-0.3837 1.2661,-0.5434 0.3973,-0.1797 0.6997,-0.2897 1.1549,-0.3249 0.2936,-0.0014 0.5294,0.0143 0.7169,0.1809 0.2093,0.1853 0.4271,0.4205 0.6639,0.7095 0.2393,-0.0945 0.5335,-0.2395 0.7728,-0.334 0.3859,-0.1616 0.7606,-0.3268 1.2023,-0.4061 0.2807,-0.0429 0.5763,-0.0625 0.7669,0.0275 0.3146,0.1165 0.8038,0.4826 1.0472,0.7178"/>
     <path id="_194945400" class="fil1 str2" d="M92.4008 27.6965c1.6761,-0.6661 2.0949,-0.726 2.4206,-0.7514 0.139,-0.0109 0.5697,0.0094 0.8659,0.1586 0.3984,0.2007 0.8521,0.7849 0.8521,0.7849 0.9907,-0.3946 2.4262,-1.0751 3.2451,-0.8967 0.2624,0.0572 0.3476,0.1484 0.501,0.2833l0.618 0.5466c0.419,-0.1598 0.8471,-0.3838 1.2661,-0.5435 0.3972,-0.1797 0.6997,-0.2897 1.1549,-0.3248 0.2936,-0.0015 0.5294,0.0143 0.7169,0.1809 0.2093,0.1852 0.4271,0.4204 0.6639,0.7094 0.2393,-0.0945 0.5335,-0.2394 0.7728,-0.3339 0.3859,-0.1617 0.7606,-0.3269 1.2023,-0.4062 0.2806,-0.0428 0.5763,-0.0624 0.7669,0.0275 0.3146,0.1166 0.8038,0.4827 1.0472,0.7178"/>
     <path id="_194945592" class="fil1 str2" d="M108.289 27.8954c1.6761,-0.666 2.0948,-0.7259 2.4206,-0.7513 0.139,-0.011 0.5696,0.0094 0.8659,0.1586 0.3984,0.2006 0.8521,0.7849 0.8521,0.7849 0.9907,-0.3947 2.4261,-1.0752 3.2451,-0.8968 0.2623,0.0572 0.3475,0.1484 0.501,0.2833l0.618 0.5466c0.419,-0.1597 0.8471,-0.3837 1.2661,-0.5434 0.3972,-0.1797 0.6996,-0.2897 1.1549,-0.3249 0.2936,-0.0014 0.5294,0.0143 0.7169,0.1809 0.2093,0.1853 0.4271,0.4205 0.6639,0.7095 0.2392,-0.0945 0.5335,-0.2395 0.7728,-0.334 0.3859,-0.1616 0.7605,-0.3268 1.2022,-0.4061 0.2807,-0.0429 0.5764,-0.0625 0.7669,0.0275 0.3147,0.1165 0.8038,0.4826 1.0472,0.7178"/>
     <path id="_194947128" class="fil1 str2" d="M124.177 28.0944c1.6761,-0.6661 2.0949,-0.726 2.4206,-0.7514 0.139,-0.0109 0.5697,0.0094 0.8659,0.1586 0.3984,0.2007 0.8522,0.7849 0.8522,0.7849 0.9906,-0.3946 2.4261,-1.0751 3.245,-0.8967 0.2624,0.0572 0.3476,0.1484 0.501,0.2833l0.618 0.5466c0.419,-0.1598 0.8471,-0.3838 1.2661,-0.5435 0.3973,-0.1797 0.6997,-0.2897 1.1549,-0.3248 0.2936,-0.0015 0.5294,0.0143 0.7169,0.1809 0.2093,0.1852 0.4271,0.4204 0.6639,0.7094 0.2393,-0.0945 0.5335,-0.2394 0.7728,-0.3339 0.3859,-0.1617 0.7606,-0.3269 1.2023,-0.4062 0.2807,-0.0428 0.5763,-0.0624 0.7669,0.0275 0.3146,0.1166 0.8038,0.4827 1.0472,0.7178"/>
     <path id="_194947320" class="fil1 str2" d="M140.064 28.2933c1.6762,-0.666 2.0949,-0.7259 2.4207,-0.7513 0.139,-0.011 0.5696,0.0094 0.8659,0.1586 0.3984,0.2006 0.8521,0.7849 0.8521,0.7849 0.9906,-0.3947 2.4261,-1.0752 3.245,-0.8968 0.2624,0.0572 0.3476,0.1484 0.501,0.2833l0.6181 0.5466c0.419,-0.1597 0.847,-0.3837 1.266,-0.5434 0.3973,-0.1797 0.6997,-0.2897 1.1549,-0.3249 0.2937,-0.0014 0.5294,0.0143 0.7169,0.1809 0.2094,0.1853 0.4271,0.4205 0.664,0.7094"/>
    </g>
    <line id="_359696520" class="fil1 str2" x1="85.4531" y1="55.0309" x2="46.2964" y2= "25.4652" />
    <line id="_359696856" class="fil1 str2" x1="89.842" y1="55.0537" x2="50.6853" y2= "25.4878" />
    <line id="_359697192" class="fil1 str2" x1="93.8341" y1="55.1667" x2="54.6774" y2= "25.6008" />
    <line id="_359697528" class="fil1 str2" x1="97.4287" y1="55.3245" x2="58.2717" y2= "25.7587" />
    <line id="_359697864" class="fil1 str2" x1="101.413" y1="55.2603" x2="62.2564" y2= "25.6945" />
    <line id="_359698200" class="fil1 str2" x1="105.924" y1="55.3039" x2="66.7672" y2= "25.7381" />
    <line id="_359698536" class="fil1 str2" x1="109.859" y1="55.2834" x2="70.7021" y2= "25.7175" />
    <line id="_359698872" class="fil1 str2" x1="113.398" y1="55.3389" x2="74.2407" y2= "25.7731" />
    <line id="_359699208" class="fil1 str2" x1="117.178" y1="55.2693" x2="78.0214" y2= "25.7034" />
    <line id="_359699544" class="fil1 str2" x1="121.938" y1="55.4609" x2="82.7807" y2= "25.8951" />
    <line id="_359699880" class="fil1 str2" x1="125.852" y1="55.4712" x2="86.6957" y2= "25.9054" />
    <line id="_359700216" class="fil1 str2" x1="129.488" y1="55.4859" x2="90.332" y2= "25.92" />
    <line id="_359700552" class="fil1 str2" x1="133.316" y1="55.5152" x2="94.1591" y2= "25.9494" />
    <line id="_359700888" class="fil1 str2" x1="137.312" y1="55.5138" x2="98.1558" y2= "25.948" />
    <line id="_359701224" class="fil1 str2" x1="141.281" y1="55.6124" x2="102.124" y2= "26.0466" />
    <line id="_359701560" class="fil1 str2" x1="145.155" y1="55.6473" x2="105.998" y2= "26.0815" />
    <line id="_359701896" class="fil1 str2" x1="148.909" y1="55.5937" x2="109.753" y2= "26.028" />
    <line id="_359702232" class="fil1 str2" x1="153.178" y1="55.6318" x2="114.021" y2= "26.066" />
    <line id="_359702568" class="fil1 str2" x1="157.31" y1="55.699" x2="118.153" y2= "26.1332" />
    <line id="_359702904" class="fil1 str2" x1="160.983" y1="55.7564" x2="121.826" y2= "26.1906" />
    <line id="_359703240" class="fil1 str2" x1="164.619" y1="55.78" x2="125.463" y2= "26.2142" />
    <line id="_359703576" class="fil1 str2" x1="169.219" y1="55.8096" x2="130.062" y2= "26.2437" />
    <line id="_359703912" class="fil1 str2" x1="173.237" y1="55.7871" x2="134.081" y2= "26.2212" />
    <line id="_359704248" class="fil1 str2" x1="176.541" y1="55.7792" x2="137.385" y2= "26.2133" />
    <line id="_359704584" class="fil1 str2" x1="180.832" y1="55.9394" x2="141.675" y2= "26.3736" />
    <line id="_359704920" class="fil1 str2" x1="184.976" y1="55.99" x2="145.819" y2= "26.4242" />
    <line id="_359705256" class="fil1 str2" x1="188.494" y1="55.5512" x2="149.337" y2= "25.9854" />
    <line id="_359705592" class="fil1 str2" x1="192.755" y1="56.6461" x2="153.649" y2= "25.9909" />
   </g>
  </g>
 </g>
</svg>
