<?xml version="1.0" encoding="UTF-8"?>
<!DOCTYPE svg PUBLIC "-//W3C//DTD SVG 1.1//EN" "http://www.w3.org/Graphics/SVG/1.1/DTD/svg11.dtd">
<!-- Creator: CorelDRAW -->
<svg xmlns="http://www.w3.org/2000/svg" xml:space="preserve" width="210mm" height="297mm" style="shape-rendering:geometricPrecision; text-rendering:geometricPrecision; image-rendering:optimizeQuality; fill-rule:evenodd; clip-rule:evenodd"
viewBox="0 0 210 297"
 xmlns:xlink="http://www.w3.org/1999/xlink">
 <defs>
  <style type="text/css">
   <![CDATA[
    .str0 {stroke:#333333;stroke-width:0.5}
    .fil1 {fill:none}
    .fil0 {fill:#96272E}
   ]]>
  </style>
 </defs>
 <g id="Слой_x0020_1">
  <metadata id="CorelCorpID_0Corel-Layer"/>
  <polygon class="fil0 str0" points="4.327,53.1664 42.696,27.912 46.5858,30.633 12.1856,53.4821 "/>
  <line class="fil1 str0" x1="17.0741" y1="50.2351" x2="16.3464" y2= "88.6145" />
  <line class="fil1 str0" x1="188.775" y1="56.562" x2="188.774" y2= "89.8903" />
  <line class="fil1 str0" x1="3.4024" y1="88.6145" x2="204.954" y2= "90.0014" />
  <line class="fil1 str0" x1="94.1516" y1="56.0635" x2="93.5088" y2= "89.2346" />
  <g id="_356424576">
   <polygon id="_362732120" class="fil0 str0" points="42.6032,27.9993 157.522,28.4586 196.412,56.6264 81.8656,55.9436 "/>
   <polygon id="_362733944" class="fil0 str0" points="42.7075,27.9653 45.0986,29.672 159.667,30.0125 157.522,28.4586 "/>
   <polygon id="_362734664" class="fil0 str0" points="54.2461,36.2859 56.358,35.3194 60.786,38.3188 58.8481,39.5613 56.9664,38.222 55.4767,37.1617 "/>
   <polygon id="_362734856" class="fil0 str0" points="46.7691,30.9643 52.83,31.3785 57.6254,33.9211 54.2461,36.2859 51.392,34.2546 48.7818,32.3968 "/>
   <polygon id="_362735048" class="fil0 str0" points="84.0871,53.5915 93.46,53.5659 98.2554,56.1085 98.1275,56.0406 83.7916,55.9551 82.307,55.0555 "/>
   <polygon id="_362735240" class="fil0 str0" points="95.3036,52.0615 104.676,52.0358 109.472,54.5784 107.655,56.1194 98.1275,56.0406 93.5235,53.5254 "/>
   <polygon id="_362735432" class="fil0 str0" points="106.52,50.5315 115.893,50.5058 120.688,53.0484 118.872,54.5893 109.317,54.7692 104.74,51.9954 "/>
   <polygon id="_362735624" class="fil0 str0" points="117.737,49.0014 127.109,48.9757 131.905,51.5184 130.088,53.0593 120.534,53.2391 115.956,50.4654 "/>
   <polygon id="_362735816" class="fil0 str0" points="128.953,47.4714 138.326,47.4457 143.121,49.9883 141.305,51.5293 131.75,51.709 127.173,48.9353 "/>
   <polygon id="_362736008" class="fil0 str0" points="140.169,45.9414 149.542,45.9156 154.338,48.4583 152.521,49.9992 142.967,50.179 138.389,47.4053 "/>
   <polygon id="_362736200" class="fil0 str0" points="151.386,44.4113 160.759,44.3856 165.554,46.9282 163.738,48.4691 154.183,48.649 149.606,45.8752 "/>
   <polygon id="_362736392" class="fil0 str0" points="162.602,42.8812 171.975,42.8556 176.771,45.3982 174.954,46.9392 165.4,47.1189 160.822,44.3452 "/>
   <polygon id="_362736584" class="fil0 str0" points="74.4926,50.8532 79.2671,50.8878 84.0626,53.4304 82.2461,54.9714 80.8428,55.0847 76.6465,52.2291 "/>
   <polygon id="_362736776" class="fil0 str0" points="81.1107,49.3834 90.4836,49.3578 95.279,51.9004 93.4626,53.4414 83.9081,53.6211 79.3306,50.8474 "/>
   <polygon id="_362736968" class="fil0 str0" points="92.3272,47.8534 101.7,47.8277 106.496,50.3704 104.679,51.9113 95.1245,52.0911 90.5471,49.3173 "/>
   <polygon id="_362737160" class="fil0 str0" points="103.544,46.3234 112.917,46.2977 117.712,48.8403 115.896,50.3812 106.341,50.561 101.763,47.7873 "/>
   <polygon id="_362737352" class="fil0 str0" points="114.76,44.7933 124.133,44.7677 128.928,47.3102 127.112,48.8512 117.557,49.031 112.98,46.2572 "/>
   <polygon id="_362737544" class="fil0 str0" points="125.977,43.2633 135.349,43.2376 140.145,45.7802 138.328,47.3212 128.774,47.501 124.197,44.7272 "/>
   <polygon id="_362737736" class="fil0 str0" points="137.193,41.7332 146.566,41.7076 151.361,44.2502 149.545,45.7911 139.99,45.9709 135.413,43.1972 "/>
   <polygon id="_362737928" class="fil0 str0" points="148.41,40.2032 157.782,40.1775 162.578,42.7201 160.761,44.2611 151.207,44.4409 146.629,41.6671 "/>
   <polygon id="_362738120" class="fil0 str0" points="159.626,38.6732 168.999,38.6474 173.794,41.1901 171.978,42.731 162.423,42.9109 157.846,40.1371 "/>
   <polygon id="_362738312" class="fil0 str0" points="68.8709,46.6949 76.2907,46.6797 81.0862,49.2223 79.2697,50.7633 74.7157,50.8548 70.5992,47.9249 "/>
   <polygon id="_362738504" class="fil0 str0" points="78.1343,45.1754 87.5072,45.1497 92.3026,47.6923 90.4862,49.2332 80.9317,49.4131 76.3542,46.6393 "/>
   <polygon id="_362738696" class="fil0 str0" points="89.3508,43.6453 98.7237,43.6197 103.519,46.1623 101.703,47.7032 92.1481,47.883 87.5707,45.1093 "/>
   <polygon id="_362738888" class="fil0 str0" points="100.567,42.1153 109.94,42.0896 114.736,44.6322 112.919,46.1732 103.365,46.353 98.7871,43.5792 "/>
   <polygon id="_362739080" class="fil0 str0" points="111.784,40.5853 121.157,40.5595 125.952,43.1022 124.136,44.6431 114.581,44.8229 110.004,42.0492 "/>
   <polygon id="_362739272" class="fil0 str0" points="123,39.0552 132.373,39.0295 137.168,41.5721 135.352,43.1131 125.798,43.2929 121.22,40.5191 "/>
   <polygon id="_362739464" class="fil0 str0" points="134.217,37.5252 143.589,37.4995 148.385,40.0421 146.569,41.5831 137.014,41.7628 132.437,38.9891 "/>
   <polygon id="_362739656" class="fil0 str0" points="145.433,35.9951 154.806,35.9694 159.601,38.5121 157.785,40.053 148.23,40.2328 143.653,37.4591 "/>
   <polygon id="_362739848" class="fil0 str0" points="156.65,34.4651 166.022,34.4394 169.806,37.3555 169.001,38.5229 159.447,38.7027 154.869,35.929 "/>
   <polygon id="_362740040" class="fil0 str0" points="63.9415,42.4973 73.3143,42.4716 78.1098,45.0143 76.2933,46.5552 68.8709,46.6949 63.9961,43.2253 "/>
   <polygon id="_362740232" class="fil0 str0" points="75.1579,40.9673 84.5308,40.9416 89.3262,43.4842 87.5098,45.0252 77.9553,45.2049 73.3778,42.4312 "/>
   <polygon id="_362740424" class="fil0 str0" points="86.3744,39.4372 95.7473,39.4116 100.543,41.9541 98.7262,43.4951 89.1717,43.6749 84.5943,40.9011 "/>
   <polygon id="_362740616" class="fil0 str0" points="97.5908,37.9072 106.964,37.8815 111.759,40.4242 109.943,41.9651 100.388,42.1449 95.8107,39.3711 "/>
   <polygon id="_362740808" class="fil0 str0" points="108.807,36.3771 118.18,36.3515 122.976,38.8941 121.159,40.435 111.605,40.6148 107.027,37.8411 "/>
   <polygon id="_362741000" class="fil0 str0" points="120.024,34.8471 129.397,34.8214 134.192,37.364 132.376,38.905 122.821,39.0848 118.244,36.311 "/>
   <polygon id="_362741192" class="fil0 str0" points="131.24,33.3171 140.613,33.2914 145.409,35.834 143.592,37.3749 134.038,37.5548 129.46,34.781 "/>
   <polygon id="_362741384" class="fil0 str0" points="142.457,31.787 151.83,31.7614 156.625,34.304 154.809,35.8449 145.254,36.0247 140.677,33.251 "/>
   <polygon id="_362741576" class="fil0 str0" points="153.673,30.257 160.268,30.2389 164.416,33.4517 165.618,34.3226 156.471,34.4947 151.893,31.7209 "/>
   <polygon id="_362741768" class="fil0 str0" points="60.9651,38.2892 70.3379,38.2636 75.1334,40.8062 73.3169,42.3471 63.7624,42.5269 59.185,39.7532 "/>
   <polygon id="_362741960" class="fil0 str0" points="72.1815,36.7592 81.5544,36.7335 86.3498,39.2761 84.5334,40.8171 74.9789,40.9969 70.4014,38.2231 "/>
   <polygon id="_362742152" class="fil0 str0" points="83.398,35.2292 92.7709,35.2034 97.5663,37.7461 95.7498,39.287 86.1953,39.4668 81.6179,36.6931 "/>
   <polygon id="_362742344" class="fil0 str0" points="94.6145,33.6991 103.987,33.6735 108.783,36.216 106.966,37.757 97.4118,37.9368 92.8343,35.163 "/>
   <polygon id="_362742536" class="fil0 str0" points="105.831,32.1691 115.204,32.1434 119.999,34.686 118.183,36.227 108.628,36.4067 104.051,33.633 "/>
   <polygon id="_362742728" class="fil0 str0" points="117.047,30.639 126.42,30.6133 131.216,33.156 129.399,34.6969 119.845,34.8767 115.267,32.103 "/>
   <polygon id="_362742920" class="fil0 str0" points="128.724,29.9206 139.275,29.9519 142.432,31.6259 140.616,33.1669 131.061,33.3466 126.484,30.5729 "/>
   <polygon id="_362743112" class="fil0 str0" points="142.523,29.9616 148.809,29.9802 153.649,30.0958 151.832,31.6368 142.278,31.8166 139.275,29.9519 "/>
   <polygon id="_362743304" class="fil0 str0" points="57.9887,34.0812 67.3615,34.0555 72.157,36.5981 70.3405,38.1391 60.786,38.3188 56.2086,35.545 "/>
   <polygon id="_362743496" class="fil0 str0" points="69.2051,32.5511 78.578,32.5254 83.3734,35.0681 81.557,36.609 72.0025,36.7888 67.425,34.0151 "/>
   <polygon id="_362743688" class="fil0 str0" points="80.4216,31.021 89.7945,30.9954 94.5899,33.538 92.7735,35.0789 83.2189,35.2587 78.6415,32.485 "/>
   <polygon id="_362743880" class="fil0 str0" points="91.7018,29.8105 101.1,29.8386 105.806,32.0079 103.99,33.5489 94.4354,33.7287 89.8579,30.9549 "/>
   <polygon id="_362744072" class="fil0 str0" points="105.236,29.8507 115.71,29.9667 117.023,30.4779 115.206,32.0188 105.652,32.1987 101.1,29.8387 "/>
   <polygon id="_362744264" class="fil0 str0" points="117.775,29.8881 123.311,29.9045 128.724,29.9206 126.423,30.4888 116.868,30.6686 115.569,29.8815 "/>
   <polygon id="_362744456" class="fil0 str0" points="55.0123,29.8731 64.3851,29.8474 69.1806,32.39 67.3641,33.9309 57.8096,34.1107 53.2322,31.337 "/>
   <polygon id="_362744648" class="fil0 str0" points="67.6412,29.739 78.3429,29.7709 80.397,30.8599 78.5806,32.4009 69.0261,32.5807 64.4486,29.8069 "/>
   <polygon id="_362744840" class="fil0 str0" points="80.0928,29.7761 87.6126,29.7984 91.7019,29.8105 89.7971,30.8709 80.2425,31.0507 78.3429,29.7709 "/>
   <polygon id="_362745032" class="fil0 str0" points="109.506,54.623 118.879,54.5972 122.357,56.1901 120.051,56.1713 112.171,56.1243 107.726,56.0869 "/>
   <polygon id="_362745224" class="fil0 str0" points="120.723,53.0929 130.095,53.0672 134.891,55.6098 133.983,56.3804 121.868,56.1821 118.942,54.5569 "/>
   <polygon id="_362745416" class="fil0 str0" points="131.939,51.5628 141.312,51.5372 146.107,54.0798 144.291,55.6208 134.736,55.8005 130.159,53.0268 "/>
   <polygon id="_362745608" class="fil0 str0" points="143.155,50.0328 152.528,50.0071 157.324,52.5498 155.507,54.0907 145.953,54.2705 141.375,51.4967 "/>
   <polygon id="_362745800" class="fil0 str0" points="154.372,48.5028 163.745,48.4771 168.54,51.0197 166.724,52.5606 157.169,52.7404 152.592,49.9667 "/>
   <polygon id="_362745992" class="fil0 str0" points="165.588,46.9727 174.961,46.9471 179.757,49.4896 177.94,51.0307 168.386,51.2104 163.808,48.4366 "/>
   <polygon id="_362746184" class="fil0 str0" points="176.805,45.4427 181.182,45.4307 184.862,48.2609 186.877,49.7201 179.602,49.6804 175.025,46.9066 "/>
   <polygon id="_362746376" class="fil0 str0" points="146.087,54.3297 155.46,54.3041 160.255,56.5227 157.513,56.3946 149.28,56.3455 144.086,56.3146 "/>
   <polygon id="_362746568" class="fil0 str0" points="157.303,52.7997 166.676,52.774 171.472,55.3166 169.524,56.4661 159.651,56.5262 155.523,54.2636 "/>
   <polygon id="_362746760" class="fil0 str0" points="168.52,51.2697 177.893,51.2439 182.688,53.7866 180.872,55.3275 171.317,55.5073 166.74,52.7336 "/>
   <polygon id="_362746952" class="fil0 str0" points="179.736,49.7396 187.06,49.8529 191.031,52.7288 192.088,53.7975 182.534,53.9773 177.956,51.2035 "/>
  </g>
 </g>
</svg>
