<?xml version="1.0" encoding="UTF-8"?>
<!DOCTYPE svg PUBLIC "-//W3C//DTD SVG 1.1//EN" "http://www.w3.org/Graphics/SVG/1.1/DTD/svg11.dtd">
<!-- Creator: CorelDRAW -->
<svg xmlns="http://www.w3.org/2000/svg" xml:space="preserve" width="210mm" height="297mm" style="shape-rendering:geometricPrecision; text-rendering:geometricPrecision; image-rendering:optimizeQuality; fill-rule:evenodd; clip-rule:evenodd"
viewBox="0 0 210 297"
 xmlns:xlink="http://www.w3.org/1999/xlink">
 <defs>
  <style type="text/css">
   <![CDATA[
    .str0 {stroke:#2B2A29;stroke-width:0.5}
    .str1 {stroke:#333333;stroke-width:0.5}
    .fil1 {fill:none}
    .fil0 {fill:#999999}
   ]]>
  </style>
 </defs>
 <g id="Слой_x0020_1">
  <metadata id="CorelCorpID_0Corel-Layer"/>
  <polygon class="fil0 str0" points="5.8711,52.9976 42.7174,28.6374 45.4558,30.8593 10.9029,53.3021 "/>
  <line class="fil1 str0" x1="17.1032" y1="48.6998" x2="16.3464" y2= "88.6145" />
  <line class="fil1 str0" x1="93.0875" y1="54.9178" x2="93.5462" y2= "89.5391" />
  <line class="fil1 str0" x1="188.775" y1="55.2915" x2="188.775" y2= "89.0768" />
  <line class="fil1 str0" x1="3.4024" y1="88.6145" x2="204.954" y2= "90.0014" />
 </g>
 <g id="_355463808">
  <path id="_355480200" class="fil0 str1" d="M79.7493 55.658l-37.1461 -26.8614 116.065 0.4468 36.707 25.5661c-0.613,0.0026 -2.2924,0.9807 -3.0059,1.0021 -0.8334,0.0252 -0.7202,-0.8956 -1.6929,-0.7336 -0.8341,0.1389 -2.0031,0.7107 -2.7171,0.7461 -0.8334,0.0414 -0.6456,-0.7671 -1.4933,-0.7016 -0.678,0.0525 -1.765,0.5623 -2.3948,0.5802 -0.7823,0.0222 -0.5153,-0.7039 -1.3271,-0.6602 -0.6485,0.035 -2.1466,0.7463 -2.7692,0.7608 -0.9199,0.0214 -0.6817,-0.8455 -1.6166,-0.8067 -0.7713,0.032 -2.0701,0.7431 -2.8274,0.7607 -0.727,0.0169 -0.6248,-0.7309 -1.3565,-0.7104 -0.6586,0.0183 -1.9303,0.5857 -2.5815,0.5977 -0.7489,0.0137 -0.4661,-0.6622 -1.2224,-0.6454 -0.6504,0.0145 -2.1419,0.687 -2.7881,0.6962 -0.7967,0.0112 -0.5488,-0.7912 -1.3522,-0.7762 -0.7217,0.0134 -2.5261,0.7674 -3.2437,0.7785 -0.8167,0.0129 -0.5655,-0.72 -1.3769,-0.7092 -0.5843,0.0078 -1.8834,0.5779 -2.4632,0.5834 -0.7062,0.0067 -0.3898,-0.6833 -1.0958,-0.6752 -0.7148,0.0082 -2.3172,0.7654 -3.0254,0.7701 -0.8529,0.0057 -0.5646,-0.819 -1.4166,-0.8118 -0.7814,0.0066 -2.3263,0.7747 -3.1016,0.7778 -0.8016,0.0033 -0.4559,-0.719 -1.2573,-0.7154 -0.6494,0.0029 -1.9982,0.5946 -2.6448,0.5956 -0.6609,0.001 -0.3278,-0.6829 -0.989,-0.6817 -0.6164,0.0012 -2.2846,0.7365 -2.8981,0.7358 -0.8211,-0.0009 -0.664,-0.7413 -1.4839,-0.7423 -0.7523,-0.001 -2.4137,0.7464 -3.1617,0.7427 -0.6661,-0.0033 -0.5027,-0.713 -1.1674,-0.7167 -0.627,-0.0035 -2.082,0.564 -2.7056,0.5589 -0.6025,-0.005 -0.4061,-0.6378 -1.0069,-0.6434 -0.7423,-0.0068 -2.3737,0.7197 -3.1105,0.7101 -0.787,-0.0103 -0.5022,-0.7428 -1.2855,-0.7544 -0.7572,-0.0112 -2.3871,0.7941 -3.1384,0.7796 -0.7294,-0.0141 -0.6264,-0.6959 -1.3517,-0.7118 -0.6408,-0.0141 -1.9487,0.5718 -2.5851,0.5552 -0.6099,-0.0159 -0.4247,-0.6263 -1.0315,-0.6438 -0.6108,-0.0176 -2.301,0.7517 -2.907,0.7315 -0.7484,-0.0251 -0.6572,-0.7481 -1.3995,-0.7761 -0.7401,-0.0279 -2.5508,0.8106 -3.2826,0.7781 -0.6703,-0.0298 -0.5482,-0.6791 -1.2122,-0.7121 -0.6394,-0.0317 -1.9386,0.5918 -2.5711,0.5562 -0.605,-0.0341 -0.5135,-0.6042 -1.1126,-0.6414 -0.6873,-0.0427 -2.3235,0.7511 -3.0016,0.703 -0.6905,-0.0489 -0.4978,-0.7335 -1.1796,-0.7874 -0.6609,-0.0522 -2.7,0.8758 -3.3506,0.8175 -0.6172,-0.0553 -0.5292,-0.6556 -1.1376,-0.7159 -0.6186,-0.0614 -2.199,0.6248 -2.8073,0.5572 -0.492,-0.0546 -0.2908,-0.575 -0.7761,-0.6335 -0.6474,-0.078 -2.6807,0.8361 -3.3144,0.7498 -0.6184,-0.0842 -0.5542,-0.6099 -1.1598,-0.7018 -0.6842,-0.1038 -2.8435,0.9798 -3.5087,0.8644 -0.558,-0.0968 -0.6109,-0.5293 -1.1556,-0.6343 -0.6621,-0.1276 -2.4953,0.7905 -3.1357,0.6492 -0.6981,-0.1541 -0.6757,-0.4894 -1.6942,-0.4507l-2.2349 0.6031 0.0004 0 0.0004 0z"/>
  <line id="_355463304" class="fil1 str1" x1="68.5489" y1="28.9487" x2="104.611" y2= "54.9492" />
  <line id="_355466736" class="fil1 str1" x1="93.344" y1="28.9332" x2="129.406" y2= "54.9337" />
  <line id="_355464360" class="fil1 str1" x1="118.139" y1="28.9177" x2="154.201" y2= "54.9182" />
  <line id="_355461456" class="fil1 str1" x1="142.934" y1="28.9021" x2="178.996" y2= "54.9027" />
  <g id="_187780872">
   <path id="_187782408" class="fil1 str1" d="M66.5711 46.2026c2.5331,-1.9757 2.8482,0.8018 4.9481,-0.578 0.9082,-0.5965 1.4071,-0.3719 2.0889,0.0269 0.9868,0.5774 1.3722,0.4645 2.3618,-0.3655 0.434,-0.364 1.2949,-0.4432 1.9039,0.0548 0.4843,0.3959 0.8751,0.3995 1.3024,0.4473"/>
   <path id="_187782312" class="fil1 str1" d="M79.0574 45.7457c0.8358,0.2439 1.1552,-0.3934 1.4209,-0.5616 1.5828,-1.0019 1.7051,1.3482 3.6346,0.1686 0.908,-0.5549 1.4071,-0.3078 2.0888,0.1223 0.9869,0.6225 1.3723,0.5272 2.3619,-0.2576 0.4339,-0.3441 1.2949,-0.384 1.9039,0.1417 0.4843,0.4182 0.8751,0.4396 1.3024,0.5069"/>
   <path id="_187784328" class="fil1 str1" d="M91.6532 45.8342c0.8357,0.2439 1.1552,-0.3934 1.4208,-0.5616 1.5829,-1.0018 1.7051,1.3482 3.6346,0.1686 0.908,-0.555 1.4071,-0.3077 2.0889,0.1223 0.9868,0.6225 1.3722,0.5272 2.3618,-0.2575 0.434,-0.3443 1.2949,-0.3842 1.9039,0.1417 0.4843,0.4181 0.8751,0.4395 1.3024,0.5068"/>
   <path id="_187788792" class="fil1 str1" d="M104.249 45.9227c0.8357,0.2439 1.1552,-0.3934 1.4209,-0.5616 1.5828,-1.0019 1.705,1.3482 3.6346,0.1686 0.9079,-0.555 1.407,-0.3077 2.0888,0.1223 0.9868,0.6225 1.3723,0.5272 2.3619,-0.2576 0.4339,-0.3441 1.2949,-0.384 1.9039,0.1417 0.4843,0.4183 0.875,0.4396 1.3023,0.5069"/>
   <path id="_187787064" class="fil1 str1" d="M116.845 46.0112c0.8358,0.2439 1.1552,-0.3934 1.4209,-0.5616 1.5828,-1.0018 1.7051,1.3482 3.6346,0.1686 0.908,-0.5549 1.4071,-0.3077 2.0888,0.1223 0.9869,0.6225 1.3723,0.5272 2.3619,-0.2576 0.4339,-0.3441 1.2949,-0.384 1.9039,0.1417 0.4843,0.4182 0.8751,0.4395 1.3024,0.5069"/>
   <path id="_187786368" class="fil1 str1" d="M129.44 46.0997c0.8357,0.2439 1.1552,-0.3934 1.4208,-0.5616 1.5829,-1.0018 1.7051,1.3482 3.6346,0.1686 0.908,-0.555 1.4071,-0.3077 2.0889,0.1223 0.9868,0.6225 1.3722,0.5272 2.3618,-0.2576 0.434,-0.3442 1.2949,-0.3841 1.9039,0.1418 0.4843,0.4181 0.8751,0.4395 1.3024,0.5068"/>
   <path id="_187788384" class="fil1 str1" d="M142.036 46.1882c0.8357,0.2439 1.1552,-0.3934 1.4209,-0.5616 1.5828,-1.0019 1.705,1.3482 3.6346,0.1686 0.9079,-0.555 1.407,-0.3077 2.0888,0.1223 0.9868,0.6225 1.3723,0.5272 2.3619,-0.2576 0.4339,-0.3441 1.2949,-0.384 1.9039,0.1417 0.4843,0.4182 0.875,0.4396 1.3023,0.5069"/>
   <path id="_187787088" class="fil1 str1" d="M154.632 46.2767c0.8358,0.2439 1.1552,-0.3934 1.4209,-0.5616 1.5828,-1.0018 1.7051,1.3482 3.6346,0.1686 0.908,-0.5549 1.4071,-0.3077 2.0888,0.1223 0.9869,0.6225 1.3723,0.5272 2.3619,-0.2576 0.4339,-0.3441 1.2949,-0.384 1.9039,0.1418 0.4843,0.4181 0.8751,0.4394 1.3024,0.5069"/>
   <path id="_187783872" class="fil1 str1" d="M167.227 46.3652c0.8357,0.2438 1.1552,-0.3934 1.4208,-0.5616 1.5829,-1.0018 1.7051,1.3482 3.6346,0.1686 0.908,-0.555 1.4071,-0.3077 2.0889,0.1223 0.9868,0.6225 1.3722,0.5272 2.3618,-0.2576 0.434,-0.3442 1.2949,-0.3841 1.9039,0.1418 0.4843,0.4181 0.8751,0.4395 1.3024,0.5068"/>
   <path id="_187787760" class="fil1 str1" d="M179.823 46.4537c0.8357,0.2439 1.2954,-1.1773 1.7541,-1.1522"/>
  </g>
  <g id="_187780872_0">
   <path id="_187782408_1" class="fil1 str1" d="M52.6922 35.8257c2.5331,-1.9757 2.8482,0.8018 4.9481,-0.5779 0.9082,-0.5966 1.4071,-0.372 2.0889,0.0268 0.9868,0.5774 1.3722,0.4645 2.3618,-0.3655 0.434,-0.364 1.2949,-0.4432 1.9039,0.0548 0.4843,0.396 0.8751,0.3995 1.3024,0.4473"/>
   <path id="_187782312_2" class="fil1 str1" d="M65.1785 35.3688c0.8358,0.2439 1.1552,-0.3933 1.4209,-0.5615 1.5828,-1.0019 1.7051,1.3481 3.6346,0.1686 0.908,-0.555 1.4071,-0.3078 2.0888,0.1222 0.9869,0.6225 1.3723,0.5272 2.3619,-0.2575 0.4339,-0.3442 1.2949,-0.3841 1.9039,0.1417 0.4843,0.4181 0.8751,0.4395 1.3024,0.5069"/>
   <path id="_187784328_3" class="fil1 str1" d="M77.7743 35.4573c0.8357,0.2439 1.1552,-0.3934 1.4208,-0.5616 1.5829,-1.0018 1.7051,1.3482 3.6346,0.1686 0.908,-0.555 1.4071,-0.3077 2.0889,0.1223 0.9868,0.6225 1.3722,0.5272 2.3618,-0.2575 0.434,-0.3442 1.2949,-0.3841 1.9039,0.1417 0.4843,0.4182 0.8751,0.4395 1.3024,0.5068"/>
   <path id="_187788792_4" class="fil1 str1" d="M90.3701 35.5458c0.8357,0.2439 1.1552,-0.3934 1.4209,-0.5616 1.5828,-1.0019 1.705,1.3482 3.6346,0.1686 0.9079,-0.5549 1.407,-0.3077 2.0888,0.1223 0.9868,0.6225 1.3723,0.5272 2.3619,-0.2576 0.4339,-0.3441 1.2949,-0.384 1.9039,0.1417 0.4843,0.4183 0.875,0.4396 1.3023,0.5069"/>
   <path id="_187787064_5" class="fil1 str1" d="M102.966 35.6343c0.8358,0.2439 1.1552,-0.3933 1.4209,-0.5615 1.5828,-1.0019 1.7051,1.3481 3.6346,0.1686 0.908,-0.555 1.4071,-0.3078 2.0888,0.1222 0.9869,0.6225 1.3723,0.5272 2.3619,-0.2575 0.4339,-0.3442 1.2949,-0.3841 1.9039,0.1417 0.4843,0.4181 0.8751,0.4395 1.3024,0.5069"/>
   <path id="_187786368_6" class="fil1 str1" d="M115.561 35.7228c0.8357,0.2439 1.1552,-0.3934 1.4208,-0.5616 1.5829,-1.0018 1.7051,1.3482 3.6346,0.1686 0.908,-0.555 1.4071,-0.3077 2.0889,0.1223 0.9868,0.6225 1.3722,0.5272 2.3618,-0.2576 0.434,-0.3441 1.2949,-0.384 1.9039,0.1418 0.4843,0.4182 0.8751,0.4395 1.3024,0.5068"/>
   <path id="_187788384_7" class="fil1 str1" d="M128.157 35.8113c0.8357,0.2439 1.1552,-0.3934 1.4209,-0.5616 1.5828,-1.0018 1.705,1.3482 3.6346,0.1686 0.9079,-0.5549 1.407,-0.3077 2.0888,0.1223 0.9868,0.6225 1.3723,0.5272 2.3619,-0.2576 0.4339,-0.3441 1.2949,-0.384 1.9039,0.1417 0.4843,0.4182 0.875,0.4396 1.3023,0.507"/>
   <path id="_187787088_8" class="fil1 str1" d="M140.753 35.8999c0.8358,0.2438 1.1552,-0.3934 1.4209,-0.5616 1.5828,-1.0019 1.7051,1.3481 3.6346,0.1686 0.908,-0.555 1.4071,-0.3078 2.0888,0.1222 0.9869,0.6225 1.3723,0.5272 2.3619,-0.2575 0.4339,-0.3442 1.2949,-0.3841 1.9039,0.1417 0.4843,0.4181 0.8751,0.4395 1.3024,0.5069"/>
   <path id="_187783872_9" class="fil1 str1" d="M153.348 35.9883c0.8357,0.2439 1.1552,-0.3934 1.4208,-0.5616 1.5829,-1.0018 1.7051,1.3482 3.6346,0.1686 0.908,-0.555 1.4071,-0.3077 2.0889,0.1223 0.9868,0.6225 1.3722,0.5272 2.3618,-0.2576 0.434,-0.3441 1.2949,-0.384 1.9039,0.1418 0.4843,0.4182 0.8751,0.4395 1.3024,0.5068"/>
   <path id="_187787760_10" class="fil1 str1" d="M165.944 36.0768c0.8357,0.2439 1.2954,-1.1773 1.7541,-1.1522"/>
  </g>
 </g>
</svg>
