<?xml version="1.0" encoding="UTF-8"?>
<!DOCTYPE svg PUBLIC "-//W3C//DTD SVG 1.1//EN" "http://www.w3.org/Graphics/SVG/1.1/DTD/svg11.dtd">
<!-- Creator: CorelDRAW -->
<svg xmlns="http://www.w3.org/2000/svg" xml:space="preserve" width="210mm" height="297mm" style="shape-rendering:geometricPrecision; text-rendering:geometricPrecision; image-rendering:optimizeQuality; fill-rule:evenodd; clip-rule:evenodd"
viewBox="0 0 210 297"
 xmlns:xlink="http://www.w3.org/1999/xlink">
 <defs>
  <style type="text/css">
   <![CDATA[
    .str0 {stroke:#333333;stroke-width:0.5}
    .fil1 {fill:none}
    .fil0 {fill:#B32E37}
   ]]>
  </style>
 </defs>
 <g id="Слой_x0020_1">
  <metadata id="CorelCorpID_0Corel-Layer"/>
  <polygon class="fil0 str0" points="4.327,53.1249 42.696,24.5485 46.5858,27.6274 12.1856,53.4821 "/>
  <line class="fil1 str0" x1="17.0824" y1="49.8019" x2="16.3464" y2= "88.6145" />
  <line class="fil1 str0" x1="93.0986" y1="55.7554" x2="93.5462" y2= "89.5391" />
  <line class="fil1 str0" x1="188.775" y1="56.562" x2="188.774" y2= "89.8903" />
  <line class="fil1 str0" x1="3.4024" y1="88.6145" x2="204.954" y2= "90.0014" />
  <g id="_349016040">
   <polygon id="_362894416" class="fil0 str0" points="42.6032,24.508 157.522,25.0235 196.412,56.6401 81.8656,55.8737 "/>
   <line id="_362897008" class="fil1 str0" x1="51.1148" y1="25.9726" x2="88.6822" y2= "55.9226" />
   <line id="_362897344" class="fil1 str0" x1="57.4444" y1="25.919" x2="95.0118" y2= "55.8689" />
   <line id="_362897680" class="fil1 str0" x1="63.961" y1="26.0144" x2="101.528" y2= "55.9643" />
   <line id="_362898016" class="fil1 str0" x1="70.3566" y1="26.0134" x2="107.924" y2= "55.9634" />
   <line id="_362898352" class="fil1 str0" x1="76.873" y1="26.1086" x2="114.44" y2= "56.0586" />
   <line id="_362898688" class="fil1 str0" x1="83.2697" y1="26.1084" x2="120.837" y2= "56.0583" />
   <line id="_362899024" class="fil1 str0" x1="90.1066" y1="26.2807" x2="127.674" y2= "56.2306" />
   <line id="_362899360" class="fil1 str0" x1="96.1049" y1="26.1415" x2="133.672" y2= "56.0914" />
   <line id="_362899696" class="fil1 str0" x1="102.955" y1="26.3387" x2="140.522" y2= "56.2886" />
   <line id="_362900032" class="fil1 str0" x1="109.128" y1="26.3736" x2="146.695" y2= "56.3235" />
   <line id="_362900368" class="fil1 str0" x1="115.895" y1="26.438" x2="153.463" y2= "56.388" />
   <line id="_362900704" class="fil1 str0" x1="122.358" y1="26.4434" x2="159.926" y2= "56.3934" />
   <line id="_362901040" class="fil1 str0" x1="128.466" y1="26.4959" x2="166.033" y2= "56.4458" />
   <line id="_362901376" class="fil1 str0" x1="135.345" y1="26.5312" x2="172.912" y2= "56.4811" />
   <line id="_362901712" class="fil1 str0" x1="141.496" y1="26.5136" x2="179.064" y2= "56.4636" />
   <line id="_362902048" class="fil1 str0" x1="147.934" y1="26.6889" x2="185.502" y2= "56.6388" />
   <line id="_362902384" class="fil1 str0" x1="154.834" y1="26.7427" x2="192.401" y2= "56.6926" />
   <polygon id="_362902336" class="fil0 str0" points="42.7075,24.4698 45.0986,26.3855 159.667,26.7676 157.522,25.0235 "/>
   <g id="_197261320">
    <path id="_188344768" class="fil1 str0" d="M78.2061 52.9268c0.1337,0.1107 0.7377,0.4677 0.9401,0.5775 0.9121,0.4951 2.8646,0.5467 3.7919,0.0742 1.0466,-0.5334 1.4605,-0.7009 2.0841,-0.4156 0.4524,0.207 0.5246,0.5437 1.5913,0.7932 0.883,0.2065 1.8015,0.2063 2.6823,-0.1309 0.9487,-0.3631 1.597,-1.1856 2.5098,-0.4681 0.6044,0.4751 1.3082,0.6653 2.2894,0.6691 1.0937,0.0043 1.4776,0.0628 2.3263,-0.4374 1.5818,-0.9322 1.5999,-0.1219 2.6293,0.2611 0.628,0.2988 2.8633,0.2507 3.5407,-0.0689 0.3562,-0.1681 0.7809,-0.6088 1.1007,-0.7143 0.2823,-0.093 0.5422,0.0353 0.7445,0.1549"/>
    <path id="_188343352" class="fil1 str0" d="M104.28 53.1644c0.1337,0.1107 0.7377,0.4676 0.9401,0.5775 0.9121,0.4951 2.8646,0.5467 3.7919,0.0741 1.0466,-0.5334 1.4605,-0.7008 2.0841,-0.4155 0.4524,0.2069 0.5246,0.5437 1.5912,0.7932 0.883,0.2064 1.8015,0.2063 2.6823,-0.1309 0.9487,-0.3632 1.597,-1.1856 2.5098,-0.4681 0.6044,0.475 1.3082,0.6652 2.2894,0.669 1.0937,0.0043 1.4776,0.0629 2.3263,-0.4373 1.5818,-0.9322 1.5999,-0.1219 2.6293,0.2611 0.628,0.2988 2.8633,0.2507 3.5407,-0.069 0.3562,-0.168 0.7809,-0.6087 1.1007,-0.7142 0.2823,-0.093 0.5422,0.0353 0.7445,0.1549"/>
    <path id="_346964440" class="fil1 str0" d="M130.354 53.402c0.1337,0.1107 0.7377,0.4676 0.9401,0.5774 0.9121,0.4952 2.8646,0.5468 3.7919,0.0742 1.0466,-0.5334 1.4605,-0.7008 2.0841,-0.4155 0.4524,0.2069 0.5246,0.5437 1.5913,0.7932 0.883,0.2064 1.8015,0.2063 2.6823,-0.1309 0.9487,-0.3632 1.597,-1.1857 2.5098,-0.4682 0.6044,0.4751 1.3082,0.6653 2.2894,0.6691 1.0937,0.0043 1.4776,0.0629 2.3263,-0.4374 1.5818,-0.9321 1.5999,-0.1218 2.6293,0.2612 0.628,0.2987 2.8633,0.2507 3.5407,-0.069 0.3562,-0.168 0.7809,-0.6088 1.1007,-0.7142 0.2823,-0.093 0.5422,0.0353 0.7445,0.1549"/>
    <path id="_188342920" class="fil1 str0" d="M156.428 53.6396c0.1337,0.1107 0.7377,0.4676 0.9401,0.5774 0.9121,0.4952 2.8646,0.5467 3.7919,0.0742 1.0466,-0.5334 1.4605,-0.7008 2.0841,-0.4156 0.4524,0.207 0.5246,0.5438 1.5913,0.7932 0.883,0.2065 1.8015,0.2063 2.6823,-0.1308 0.9487,-0.3632 1.597,-1.1857 2.5098,-0.4682 0.6044,0.4751 1.3082,0.6653 2.2894,0.6691 1.0937,0.0043 1.4776,0.0628 2.3263,-0.4374 1.5818,-0.9321 1.5999,-0.1219 2.6293,0.2612 0.628,0.2987 2.8633,0.2506 3.5407,-0.069 0.3562,-0.1681 0.7809,-0.6088 1.1007,-0.7142 0.2823,-0.093 0.5422,0.0353 0.7445,0.1549"/>
    <path id="_346960864" class="fil1 str0" d="M182.502 53.8771c0.1337,0.1107 0.7377,0.4677 0.9401,0.5775 0.9121,0.4951 2.8645,0.5467 3.7918,0.0742 1.0466,-0.5334 1.4605,-0.7009 2.0841,-0.4156 0.4524,0.207 0.5246,0.5437 1.5913,0.7932 0.883,0.2065 2.2363,0.0729 3.1171,-0.2643"/>
   </g>
   <g id="_197261392">
    <path id="_188344768_0" class="fil1 str0" d="M74.5592 50.0016c0.1337,0.1107 0.7377,0.4677 0.9401,0.5775 0.9121,0.4951 2.8646,0.5467 3.7919,0.0742 1.0466,-0.5334 1.4605,-0.7009 2.0841,-0.4156 0.4524,0.207 0.5246,0.5437 1.5913,0.7932 0.883,0.2065 1.8015,0.2063 2.6823,-0.1308 0.9487,-0.3632 1.597,-1.1857 2.5098,-0.4682 0.6044,0.4751 1.3082,0.6653 2.2894,0.6691 1.0937,0.0043 1.4776,0.0628 2.3263,-0.4374 1.5818,-0.9322 1.5999,-0.1219 2.6293,0.2611 0.628,0.2988 2.8633,0.2507 3.5407,-0.0689 0.3562,-0.1681 0.7809,-0.6088 1.1007,-0.7143 0.2823,-0.093 0.5422,0.0353 0.7445,0.1549"/>
    <path id="_188343352_1" class="fil1 str0" d="M100.633 50.2392c0.1337,0.1107 0.7377,0.4676 0.9401,0.5775 0.9121,0.4951 2.8646,0.5467 3.7919,0.0741 1.0466,-0.5334 1.4605,-0.7008 2.0841,-0.4155 0.4524,0.2069 0.5246,0.5437 1.5912,0.7932 0.883,0.2065 1.8015,0.2063 2.6823,-0.1309 0.9487,-0.3632 1.597,-1.1856 2.5098,-0.4681 0.6044,0.475 1.3082,0.6652 2.2894,0.669 1.0937,0.0043 1.4776,0.0629 2.3263,-0.4373 1.5818,-0.9322 1.5999,-0.1219 2.6293,0.2611 0.628,0.2988 2.8633,0.2507 3.5407,-0.0689 0.3562,-0.1681 0.7809,-0.6088 1.1007,-0.7143 0.2823,-0.093 0.5422,0.0353 0.7445,0.1549"/>
    <path id="_346964440_2" class="fil1 str0" d="M126.707 50.4768c0.1337,0.1107 0.7377,0.4676 0.9401,0.5774 0.9121,0.4952 2.8646,0.5468 3.7919,0.0742 1.0466,-0.5334 1.4605,-0.7008 2.0841,-0.4155 0.4524,0.2069 0.5246,0.5437 1.5913,0.7932 0.883,0.2064 1.8015,0.2063 2.6823,-0.1309 0.9487,-0.3632 1.597,-1.1857 2.5098,-0.4682 0.6044,0.4751 1.3082,0.6653 2.2894,0.6691 1.0937,0.0043 1.4776,0.0629 2.3263,-0.4374 1.5818,-0.9321 1.5999,-0.1218 2.6293,0.2612 0.628,0.2987 2.8633,0.2507 3.5407,-0.069 0.3562,-0.168 0.7809,-0.6088 1.1007,-0.7142 0.2823,-0.093 0.5422,0.0353 0.7445,0.1549"/>
    <path id="_188342920_3" class="fil1 str0" d="M152.781 50.7144c0.1337,0.1107 0.7377,0.4676 0.9401,0.5774 0.9121,0.4952 2.8646,0.5467 3.7919,0.0742 1.0466,-0.5334 1.4605,-0.7008 2.0841,-0.4156 0.4524,0.207 0.5246,0.5438 1.5913,0.7932 0.883,0.2065 1.8015,0.2063 2.6823,-0.1308 0.9487,-0.3632 1.597,-1.1857 2.5098,-0.4682 0.6044,0.4751 1.3082,0.6653 2.2894,0.6691 1.0937,0.0043 1.4776,0.0628 2.3263,-0.4374 1.5818,-0.9321 1.5999,-0.1219 2.6293,0.2612 0.628,0.2987 2.8633,0.2506 3.5407,-0.069 0.3562,-0.1681 0.7809,-0.6088 1.1007,-0.7142 0.2823,-0.093 0.5422,0.0353 0.7445,0.1549"/>
    <path id="_346960864_4" class="fil1 str0" d="M178.855 50.9519c0.1337,0.1107 0.7377,0.4677 0.9401,0.5775 0.9121,0.4951 2.8645,0.5467 3.7918,0.0742 1.0466,-0.5334 1.4605,-0.7009 2.0841,-0.4156 0.4524,0.207 0.5246,0.5437 1.5913,0.7932 0.883,0.2065 2.2363,0.0729 3.1171,-0.2643"/>
   </g>
   <g id="_197261512">
    <path id="_188344768_5" class="fil1 str0" d="M70.9123 47.0764c0.1337,0.1107 0.7377,0.4677 0.9401,0.5775 0.9121,0.4951 2.8646,0.5467 3.7919,0.0742 1.0466,-0.5334 1.4605,-0.7009 2.0841,-0.4156 0.4524,0.207 0.5246,0.5437 1.5913,0.7932 0.883,0.2065 1.8015,0.2063 2.6823,-0.1308 0.9487,-0.3632 1.597,-1.1857 2.5098,-0.4682 0.6044,0.4751 1.3082,0.6653 2.2894,0.6691 1.0937,0.0043 1.4776,0.0628 2.3263,-0.4374 1.5818,-0.9321 1.5999,-0.1219 2.6293,0.2611 0.628,0.2988 2.8633,0.2507 3.5407,-0.0689 0.3562,-0.1681 0.7809,-0.6088 1.1007,-0.7143 0.2823,-0.093 0.5422,0.0353 0.7445,0.1549"/>
    <path id="_188343352_6" class="fil1 str0" d="M96.9862 47.314c0.1337,0.1107 0.7377,0.4676 0.9401,0.5775 0.9121,0.4951 2.8646,0.5467 3.7919,0.0741 1.0466,-0.5333 1.4605,-0.7008 2.0841,-0.4155 0.4524,0.2069 0.5246,0.5437 1.5912,0.7932 0.883,0.2065 1.8015,0.2063 2.6823,-0.1309 0.9487,-0.3632 1.597,-1.1856 2.5098,-0.4681 0.6044,0.475 1.3082,0.6652 2.2894,0.669 1.0937,0.0043 1.4776,0.0629 2.3263,-0.4373 1.5818,-0.9322 1.5999,-0.1219 2.6293,0.2611 0.628,0.2988 2.8633,0.2507 3.5407,-0.0689 0.3562,-0.1681 0.7809,-0.6088 1.1007,-0.7143 0.2823,-0.093 0.5422,0.0353 0.7445,0.1549"/>
    <path id="_346964440_7" class="fil1 str0" d="M123.06 47.5516c0.1337,0.1107 0.7377,0.4676 0.9401,0.5774 0.9121,0.4952 2.8646,0.5468 3.7919,0.0742 1.0466,-0.5334 1.4605,-0.7008 2.0841,-0.4155 0.4524,0.2069 0.5246,0.5437 1.5913,0.7932 0.883,0.2064 1.8015,0.2063 2.6823,-0.1309 0.9487,-0.3632 1.597,-1.1857 2.5098,-0.4682 0.6044,0.4751 1.3082,0.6653 2.2894,0.6691 1.0937,0.0043 1.4776,0.0629 2.3263,-0.4374 1.5818,-0.9321 1.5999,-0.1218 2.6293,0.2612 0.628,0.2987 2.8633,0.2507 3.5407,-0.069 0.3562,-0.168 0.7809,-0.6088 1.1007,-0.7142 0.2823,-0.093 0.5422,0.0353 0.7445,0.1549"/>
    <path id="_188342920_8" class="fil1 str0" d="M149.134 47.7892c0.1337,0.1107 0.7377,0.4676 0.9401,0.5774 0.9121,0.4952 2.8646,0.5467 3.7919,0.0742 1.0466,-0.5334 1.4605,-0.7008 2.0841,-0.4156 0.4524,0.207 0.5246,0.5438 1.5913,0.7932 0.883,0.2065 1.8015,0.2063 2.6823,-0.1308 0.9487,-0.3632 1.597,-1.1857 2.5098,-0.4682 0.6044,0.4751 1.3082,0.6653 2.2894,0.6691 1.0937,0.0043 1.4776,0.0628 2.3263,-0.4374 1.5818,-0.9321 1.5999,-0.1219 2.6293,0.2612 0.628,0.2987 2.8633,0.2506 3.5407,-0.069 0.3562,-0.1681 0.7809,-0.6088 1.1007,-0.7142 0.2823,-0.093 0.5422,0.0353 0.7445,0.1549"/>
    <path id="_346960864_9" class="fil1 str0" d="M175.208 48.0267c0.1337,0.1107 0.7377,0.4677 0.9401,0.5775 0.9121,0.4951 2.8645,0.5467 3.7918,0.0742 1.0466,-0.5334 1.4605,-0.7008 2.0841,-0.4156 0.4524,0.207 0.5246,0.5437 1.5913,0.7932 0.883,0.2065 2.2363,0.0729 3.1171,-0.2643"/>
   </g>
   <g id="_197275528">
    <path id="_188344768_10" class="fil1 str0" d="M67.2654 44.1512c0.1337,0.1107 0.7377,0.4677 0.9401,0.5775 0.9121,0.4951 2.8646,0.5467 3.7919,0.0742 1.0466,-0.5334 1.4605,-0.7009 2.0841,-0.4156 0.4524,0.207 0.5246,0.5437 1.5913,0.7932 0.883,0.2065 1.8015,0.2063 2.6823,-0.1308 0.9487,-0.3632 1.597,-1.1857 2.5098,-0.4682 0.6044,0.4751 1.3082,0.6653 2.2894,0.6691 1.0937,0.0043 1.4776,0.0628 2.3263,-0.4374 1.5818,-0.9321 1.5999,-0.1219 2.6293,0.2611 0.628,0.2988 2.8633,0.2507 3.5407,-0.0689 0.3562,-0.1681 0.7809,-0.6088 1.1007,-0.7143 0.2823,-0.093 0.5422,0.0354 0.7445,0.1549"/>
    <path id="_188343352_11" class="fil1 str0" d="M93.3393 44.3888c0.1337,0.1107 0.7377,0.4676 0.9401,0.5775 0.9121,0.4951 2.8646,0.5467 3.7919,0.0742 1.0466,-0.5334 1.4605,-0.7009 2.0841,-0.4156 0.4524,0.2069 0.5246,0.5437 1.5912,0.7932 0.883,0.2065 1.8015,0.2063 2.6823,-0.1309 0.9487,-0.3632 1.597,-1.1856 2.5098,-0.4681 0.6044,0.475 1.3082,0.6652 2.2894,0.6691 1.0937,0.0042 1.4776,0.0628 2.3263,-0.4374 1.5818,-0.9322 1.5999,-0.1219 2.6293,0.2611 0.628,0.2988 2.8633,0.2507 3.5407,-0.0689 0.3562,-0.1681 0.7809,-0.6088 1.1007,-0.7143 0.2823,-0.093 0.5422,0.0353 0.7445,0.1549"/>
    <path id="_346964440_12" class="fil1 str0" d="M119.413 44.6264c0.1337,0.1107 0.7377,0.4676 0.9401,0.5774 0.9121,0.4952 2.8646,0.5468 3.7919,0.0742 1.0466,-0.5334 1.4605,-0.7008 2.0841,-0.4155 0.4524,0.2069 0.5246,0.5437 1.5913,0.7932 0.883,0.2064 1.8015,0.2063 2.6823,-0.1309 0.9487,-0.3632 1.597,-1.1857 2.5098,-0.4682 0.6044,0.4751 1.3082,0.6653 2.2894,0.6691 1.0937,0.0043 1.4776,0.0629 2.3263,-0.4374 1.5818,-0.9321 1.5999,-0.1218 2.6293,0.2612 0.628,0.2987 2.8633,0.2507 3.5407,-0.069 0.3562,-0.168 0.7809,-0.6087 1.1007,-0.7142 0.2823,-0.093 0.5422,0.0353 0.7445,0.1549"/>
    <path id="_188342920_13" class="fil1 str0" d="M145.487 44.864c0.1337,0.1107 0.7377,0.4676 0.9401,0.5774 0.9121,0.4952 2.8646,0.5467 3.7919,0.0742 1.0466,-0.5334 1.4605,-0.7008 2.0841,-0.4156 0.4524,0.207 0.5246,0.5438 1.5913,0.7932 0.883,0.2065 1.8015,0.2064 2.6823,-0.1308 0.9487,-0.3632 1.597,-1.1857 2.5098,-0.4682 0.6044,0.4751 1.3082,0.6653 2.2894,0.6691 1.0937,0.0043 1.4776,0.0629 2.3263,-0.4374 1.5818,-0.9321 1.5999,-0.1219 2.6293,0.2612 0.628,0.2987 2.8633,0.2506 3.5407,-0.069 0.3562,-0.1681 0.7809,-0.6088 1.1007,-0.7142 0.2823,-0.093 0.5422,0.0353 0.7445,0.1549"/>
    <path id="_346960864_14" class="fil1 str0" d="M171.561 45.1016c0.1337,0.1106 0.7377,0.4676 0.9401,0.5774 0.9121,0.4951 2.8645,0.5467 3.7918,0.0742 1.0466,-0.5334 1.4605,-0.7008 2.0841,-0.4156 0.4524,0.207 0.5246,0.5437 1.5913,0.7932 0.883,0.2065 2.2363,0.0729 3.1171,-0.2643"/>
   </g>
   <g id="_197246488">
    <path id="_188344768_15" class="fil1 str0" d="M63.6185 41.226c0.1337,0.1107 0.7377,0.4677 0.9401,0.5775 0.9121,0.4951 2.8646,0.5467 3.7919,0.0742 1.0466,-0.5334 1.4605,-0.7009 2.0841,-0.4156 0.4524,0.207 0.5246,0.5437 1.5913,0.7932 0.883,0.2065 1.8015,0.2063 2.6823,-0.1308 0.9487,-0.3632 1.597,-1.1857 2.5098,-0.4682 0.6044,0.4751 1.3082,0.6653 2.2894,0.6691 1.0937,0.0043 1.4776,0.0628 2.3263,-0.4374 1.5818,-0.9321 1.5999,-0.1219 2.6293,0.2611 0.628,0.2988 2.8633,0.2507 3.5407,-0.0689 0.3562,-0.1681 0.7809,-0.6088 1.1007,-0.7143 0.2823,-0.093 0.5422,0.0354 0.7445,0.1549"/>
    <path id="_188343352_16" class="fil1 str0" d="M89.6924 41.4636c0.1337,0.1107 0.7377,0.4676 0.9401,0.5775 0.9121,0.4951 2.8646,0.5467 3.7919,0.0742 1.0466,-0.5334 1.4605,-0.7009 2.0841,-0.4156 0.4524,0.2069 0.5246,0.5437 1.5912,0.7932 0.883,0.2065 1.8015,0.2063 2.6823,-0.1309 0.9487,-0.3632 1.597,-1.1856 2.5098,-0.4681 0.6044,0.475 1.3082,0.6652 2.2894,0.6691 1.0937,0.0042 1.4776,0.0628 2.3263,-0.4374 1.5818,-0.9322 1.5999,-0.1219 2.6293,0.2611 0.628,0.2988 2.8633,0.2507 3.5407,-0.0689 0.3562,-0.1681 0.7809,-0.6088 1.1007,-0.7143 0.2823,-0.093 0.5422,0.0353 0.7445,0.1549"/>
    <path id="_346964440_17" class="fil1 str0" d="M115.766 41.7012c0.1337,0.1107 0.7377,0.4676 0.9401,0.5774 0.9121,0.4952 2.8646,0.5468 3.7919,0.0742 1.0466,-0.5334 1.4605,-0.7008 2.0841,-0.4155 0.4524,0.2069 0.5246,0.5437 1.5913,0.7932 0.883,0.2064 1.8015,0.2063 2.6823,-0.1309 0.9487,-0.3632 1.597,-1.1857 2.5098,-0.4682 0.6044,0.4751 1.3082,0.6653 2.2894,0.6691 1.0937,0.0043 1.4776,0.0629 2.3263,-0.4374 1.5818,-0.9321 1.5999,-0.1218 2.6293,0.2612 0.628,0.2987 2.8633,0.2507 3.5407,-0.069 0.3562,-0.168 0.7809,-0.6087 1.1007,-0.7142 0.2823,-0.093 0.5422,0.0353 0.7445,0.1549"/>
    <path id="_188342920_18" class="fil1 str0" d="M141.84 41.9388c0.1337,0.1107 0.7377,0.4676 0.9401,0.5774 0.9121,0.4952 2.8646,0.5467 3.7919,0.0742 1.0466,-0.5334 1.4605,-0.7008 2.0841,-0.4156 0.4524,0.207 0.5246,0.5438 1.5913,0.7932 0.883,0.2065 1.8015,0.2064 2.6823,-0.1308 0.9487,-0.3632 1.597,-1.1857 2.5098,-0.4682 0.6044,0.4751 1.3082,0.6653 2.2894,0.6691 1.0937,0.0043 1.4776,0.0629 2.3263,-0.4374 1.5818,-0.9321 1.5999,-0.1219 2.6293,0.2612 0.628,0.2987 2.8633,0.2506 3.5407,-0.069 0.3562,-0.1681 0.7809,-0.6088 1.1007,-0.7142 0.2823,-0.093 0.5422,0.0353 0.7445,0.1549"/>
    <path id="_346960864_19" class="fil1 str0" d="M167.914 42.1764c0.1337,0.1106 0.7377,0.4676 0.9401,0.5774 0.9121,0.4951 2.8645,0.5467 3.7918,0.0742 1.0466,-0.5334 1.4605,-0.7008 2.0841,-0.4156 0.4524,0.207 0.5246,0.5437 1.5913,0.7932 0.883,0.2065 2.2363,0.0729 3.1171,-0.2643"/>
   </g>
   <g id="_197264848">
    <path id="_188344768_20" class="fil1 str0" d="M59.9716 38.3008c0.1337,0.1107 0.7377,0.4677 0.9401,0.5775 0.9121,0.4951 2.8646,0.5467 3.7919,0.0742 1.0466,-0.5334 1.4605,-0.7008 2.0841,-0.4156 0.4524,0.207 0.5246,0.5437 1.5913,0.7932 0.883,0.2065 1.8015,0.2063 2.6823,-0.1308 0.9487,-0.3632 1.597,-1.1857 2.5098,-0.4682 0.6044,0.4751 1.3082,0.6653 2.2894,0.6691 1.0937,0.0043 1.4776,0.0628 2.3263,-0.4374 1.5818,-0.9321 1.5999,-0.1219 2.6293,0.2611 0.628,0.2988 2.8633,0.2507 3.5407,-0.0689 0.3562,-0.1681 0.7809,-0.6088 1.1007,-0.7143 0.2823,-0.093 0.5422,0.0354 0.7445,0.1549"/>
    <path id="_188343352_21" class="fil1 str0" d="M86.0455 38.5384c0.1337,0.1107 0.7377,0.4676 0.9401,0.5775 0.9121,0.4951 2.8646,0.5467 3.7919,0.0742 1.0466,-0.5334 1.4605,-0.7009 2.0841,-0.4156 0.4524,0.2069 0.5246,0.5437 1.5912,0.7932 0.883,0.2065 1.8015,0.2063 2.6823,-0.1309 0.9487,-0.3632 1.597,-1.1856 2.5098,-0.4681 0.6044,0.475 1.3082,0.6652 2.2894,0.6691 1.0937,0.0042 1.4776,0.0628 2.3263,-0.4374 1.5818,-0.9322 1.5999,-0.1219 2.6293,0.2611 0.628,0.2988 2.8633,0.2507 3.5407,-0.0689 0.3562,-0.1681 0.7809,-0.6088 1.1007,-0.7143 0.2823,-0.093 0.5422,0.0353 0.7445,0.1549"/>
    <path id="_346964440_22" class="fil1 str0" d="M112.119 38.776c0.1337,0.1107 0.7377,0.4676 0.9401,0.5774 0.9121,0.4952 2.8646,0.5468 3.7919,0.0742 1.0466,-0.5334 1.4605,-0.7008 2.0841,-0.4155 0.4524,0.2069 0.5246,0.5437 1.5913,0.7932 0.883,0.2064 1.8015,0.2063 2.6823,-0.1309 0.9487,-0.3632 1.597,-1.1856 2.5098,-0.4682 0.6044,0.4751 1.3082,0.6653 2.2894,0.6691 1.0937,0.0043 1.4776,0.0629 2.3263,-0.4374 1.5818,-0.9321 1.5999,-0.1218 2.6293,0.2612 0.628,0.2988 2.8633,0.2507 3.5407,-0.069 0.3562,-0.168 0.7809,-0.6087 1.1007,-0.7142 0.2823,-0.093 0.5422,0.0353 0.7445,0.1549"/>
    <path id="_188342920_23" class="fil1 str0" d="M138.193 39.0136c0.1337,0.1107 0.7377,0.4676 0.9401,0.5774 0.9121,0.4952 2.8646,0.5467 3.7919,0.0742 1.0466,-0.5334 1.4605,-0.7008 2.0841,-0.4156 0.4524,0.207 0.5246,0.5438 1.5913,0.7932 0.883,0.2065 1.8015,0.2064 2.6823,-0.1308 0.9487,-0.3632 1.597,-1.1857 2.5098,-0.4682 0.6044,0.4751 1.3082,0.6653 2.2894,0.6691 1.0937,0.0043 1.4776,0.0629 2.3263,-0.4374 1.5818,-0.9321 1.5999,-0.1219 2.6293,0.2612 0.628,0.2987 2.8633,0.2506 3.5407,-0.069 0.3562,-0.1681 0.7809,-0.6088 1.1007,-0.7142 0.2823,-0.093 0.5422,0.0353 0.7445,0.1549"/>
    <path id="_346960864_24" class="fil1 str0" d="M164.267 39.2512c0.1337,0.1107 0.7377,0.4676 0.9401,0.5774 0.9121,0.4951 2.8645,0.5467 3.7918,0.0742 1.0466,-0.5334 1.4605,-0.7008 2.0841,-0.4156 0.4524,0.207 0.5246,0.5437 1.5913,0.7932 0.883,0.2065 2.2363,0.0729 3.1171,-0.2643"/>
   </g>
   <g id="_197251480">
    <path id="_188344768_25" class="fil1 str0" d="M56.6442 35.5587c0.1337,0.1107 0.7377,0.4676 0.9401,0.5775 0.9121,0.4951 2.8646,0.5467 3.7919,0.0741 1.0466,-0.5334 1.4605,-0.7008 2.0841,-0.4155 0.4524,0.2069 0.5246,0.5437 1.5913,0.7932 0.883,0.2064 1.8015,0.2063 2.6823,-0.1309 0.9487,-0.3632 1.597,-1.1856 2.5098,-0.4681 0.6044,0.475 1.3082,0.6652 2.2894,0.669 1.0937,0.0043 1.4776,0.0629 2.3263,-0.4373 1.5818,-0.9322 1.5999,-0.1219 2.6293,0.2611 0.628,0.2988 2.8633,0.2507 3.5407,-0.069 0.3562,-0.168 0.7809,-0.6087 1.1007,-0.7142 0.2823,-0.093 0.5422,0.0353 0.7445,0.1549"/>
    <path id="_188343352_26" class="fil1 str0" d="M82.7181 35.7963c0.1337,0.1107 0.7377,0.4676 0.9401,0.5774 0.9121,0.4952 2.8646,0.5468 3.7919,0.0742 1.0466,-0.5334 1.4605,-0.7008 2.0841,-0.4155 0.4524,0.2069 0.5246,0.5437 1.5912,0.7932 0.883,0.2064 1.8015,0.2063 2.6823,-0.1309 0.9487,-0.3632 1.597,-1.1857 2.5098,-0.4682 0.6044,0.4751 1.3082,0.6653 2.2894,0.6691 1.0937,0.0043 1.4776,0.0629 2.3263,-0.4374 1.5818,-0.9321 1.5999,-0.1218 2.6293,0.2612 0.628,0.2987 2.8633,0.2507 3.5407,-0.069 0.3562,-0.168 0.7809,-0.6088 1.1007,-0.7142 0.2823,-0.093 0.5422,0.0353 0.7445,0.1549"/>
    <path id="_346964440_27" class="fil1 str0" d="M108.792 36.0339c0.1337,0.1107 0.7377,0.4676 0.9401,0.5774 0.9121,0.4952 2.8646,0.5467 3.7919,0.0742 1.0466,-0.5334 1.4605,-0.7008 2.0841,-0.4156 0.4524,0.207 0.5246,0.5438 1.5913,0.7932 0.883,0.2065 1.8015,0.2063 2.6823,-0.1308 0.9487,-0.3632 1.597,-1.1857 2.5098,-0.4682 0.6044,0.4751 1.3082,0.6653 2.2894,0.6691 1.0937,0.0043 1.4776,0.0628 2.3263,-0.4374 1.5818,-0.9321 1.5999,-0.1219 2.6293,0.2612 0.628,0.2987 2.8633,0.2506 3.5407,-0.069 0.3562,-0.1681 0.7809,-0.6088 1.1007,-0.7142 0.2823,-0.093 0.5422,0.0353 0.7445,0.1549"/>
    <path id="_188342920_28" class="fil1 str0" d="M134.866 36.2714c0.1337,0.1107 0.7377,0.4677 0.9401,0.5775 0.9121,0.4951 2.8646,0.5467 3.7919,0.0742 1.0466,-0.5334 1.4605,-0.7009 2.0841,-0.4156 0.4524,0.207 0.5246,0.5437 1.5913,0.7932 0.883,0.2065 1.8015,0.2063 2.6823,-0.1308 0.9487,-0.3632 1.597,-1.1857 2.5098,-0.4682 0.6044,0.4751 1.3082,0.6653 2.2894,0.6691 1.0937,0.0043 1.4776,0.0628 2.3263,-0.4374 1.5818,-0.9321 1.5999,-0.1219 2.6293,0.2611 0.628,0.2988 2.8633,0.2507 3.5407,-0.0689 0.3562,-0.1681 0.7809,-0.6088 1.1007,-0.7143 0.2823,-0.093 0.5422,0.0354 0.7445,0.1549"/>
    <path id="_346960864_29" class="fil1 str0" d="M160.94 36.509c0.1337,0.1107 0.7377,0.4676 0.9401,0.5775 0.9121,0.4951 2.8645,0.5467 3.7918,0.0742 1.0466,-0.5334 1.4605,-0.7009 2.0841,-0.4156 0.4524,0.2069 0.5246,0.5437 1.5913,0.7932 0.883,0.2065 2.2363,0.0728 3.1171,-0.2643"/>
   </g>
   <g id="_194940408">
    <path id="_188344768_30" class="fil1 str0" d="M52.8187 32.4843c0.1337,0.1107 0.7377,0.4677 0.9401,0.5775 0.9121,0.4951 2.8646,0.5467 3.7919,0.0742 1.0466,-0.5334 1.4605,-0.7009 2.0841,-0.4156 0.4524,0.207 0.5246,0.5437 1.5913,0.7932 0.883,0.2065 1.8015,0.2063 2.6823,-0.1309 0.9487,-0.3631 1.597,-1.1856 2.5098,-0.4681 0.6044,0.4751 1.3082,0.6653 2.2894,0.6691 1.0937,0.0043 1.4776,0.0628 2.3263,-0.4374 1.5818,-0.9322 1.5999,-0.1219 2.6293,0.2611 0.628,0.2988 2.8633,0.2507 3.5407,-0.0689 0.3562,-0.1681 0.7809,-0.6088 1.1007,-0.7143 0.2823,-0.093 0.5422,0.0353 0.7445,0.1549"/>
    <path id="_188343352_31" class="fil1 str0" d="M78.8926 32.7219c0.1337,0.1107 0.7377,0.4676 0.9401,0.5775 0.9121,0.4951 2.8646,0.5467 3.7919,0.0741 1.0466,-0.5334 1.4605,-0.7008 2.0841,-0.4155 0.4524,0.2069 0.5246,0.5437 1.5912,0.7932 0.883,0.2064 1.8015,0.2063 2.6823,-0.1309 0.9487,-0.3632 1.597,-1.1856 2.5098,-0.4681 0.6044,0.475 1.3082,0.6652 2.2894,0.669 1.0937,0.0043 1.4776,0.0629 2.3263,-0.4373 1.5818,-0.9322 1.5999,-0.1219 2.6293,0.2611 0.628,0.2988 2.8633,0.2507 3.5407,-0.069 0.3562,-0.168 0.7809,-0.6087 1.1007,-0.7142 0.2823,-0.093 0.5422,0.0353 0.7445,0.1549"/>
    <path id="_346964440_32" class="fil1 str0" d="M104.967 32.9595c0.1337,0.1107 0.7377,0.4676 0.9401,0.5774 0.9121,0.4952 2.8646,0.5468 3.7919,0.0742 1.0466,-0.5334 1.4605,-0.7008 2.0841,-0.4155 0.4524,0.2069 0.5246,0.5437 1.5913,0.7932 0.883,0.2064 1.8015,0.2063 2.6823,-0.1309 0.9487,-0.3632 1.597,-1.1857 2.5098,-0.4682 0.6044,0.4751 1.3082,0.6653 2.2894,0.6691 1.0937,0.0043 1.4776,0.0629 2.3263,-0.4374 1.5818,-0.9321 1.5999,-0.1218 2.6293,0.2612 0.628,0.2987 2.8633,0.2507 3.5407,-0.069 0.3562,-0.168 0.7809,-0.6088 1.1007,-0.7142 0.2823,-0.093 0.5422,0.0353 0.7445,0.1549"/>
    <path id="_188342920_33" class="fil1 str0" d="M131.041 33.1971c0.1337,0.1107 0.7377,0.4676 0.9401,0.5774 0.9121,0.4952 2.8646,0.5467 3.7919,0.0742 1.0466,-0.5334 1.4605,-0.7008 2.0841,-0.4156 0.4524,0.207 0.5246,0.5438 1.5913,0.7932 0.883,0.2065 1.8015,0.2063 2.6823,-0.1308 0.9487,-0.3632 1.597,-1.1857 2.5098,-0.4682 0.6044,0.4751 1.3082,0.6653 2.2894,0.6691 1.0937,0.0043 1.4776,0.0628 2.3263,-0.4374 1.5818,-0.9321 1.5999,-0.1219 2.6293,0.2612 0.628,0.2987 2.8633,0.2506 3.5407,-0.069 0.3562,-0.1681 0.7809,-0.6088 1.1007,-0.7142 0.2823,-0.093 0.5422,0.0353 0.7445,0.1549"/>
    <path id="_346960864_34" class="fil1 str0" d="M157.114 33.4346c0.1337,0.1107 0.7377,0.4677 0.9401,0.5775 0.9121,0.4951 2.8645,0.5467 3.7918,0.0742 1.0466,-0.5334 1.4605,-0.7009 2.0841,-0.4156 0.4524,0.207 0.5246,0.5437 1.5913,0.7932 0.883,0.2065 2.2363,0.0729 3.1171,-0.2643"/>
   </g>
   <g id="_197256904">
    <path id="_188344768_35" class="fil1 str0" d="M49.2454 29.549c0.1337,0.1107 0.7377,0.4676 0.9401,0.5774 0.9121,0.4952 2.8646,0.5467 3.7919,0.0742 1.0466,-0.5334 1.4605,-0.7008 2.0841,-0.4155 0.4524,0.2069 0.5246,0.5437 1.5913,0.7931 0.883,0.2065 1.8015,0.2064 2.6823,-0.1308 0.9487,-0.3632 1.597,-1.1857 2.5098,-0.4682 0.6044,0.4751 1.3082,0.6653 2.2894,0.6691 1.0937,0.0043 1.4776,0.0629 2.3263,-0.4374 1.5818,-0.9321 1.5999,-0.1219 2.6293,0.2612 0.628,0.2987 2.8633,0.2506 3.5407,-0.069 0.3562,-0.168 0.7809,-0.6088 1.1007,-0.7142 0.2823,-0.093 0.5422,0.0353 0.7445,0.1549"/>
    <path id="_188343352_36" class="fil1 str0" d="M75.3193 29.7866c0.1337,0.1107 0.7377,0.4676 0.9401,0.5774 0.9121,0.4951 2.8646,0.5467 3.7919,0.0742 1.0466,-0.5334 1.4605,-0.7008 2.0841,-0.4156 0.4524,0.207 0.5246,0.5437 1.5912,0.7932 0.883,0.2065 1.8015,0.2063 2.6823,-0.1308 0.9487,-0.3632 1.597,-1.1857 2.5098,-0.4682 0.6044,0.4751 1.3082,0.6653 2.2894,0.6691 1.0937,0.0043 1.4776,0.0628 2.3263,-0.4374 1.5818,-0.9321 1.5999,-0.1219 2.6293,0.2612 0.628,0.2987 2.8633,0.2506 3.5407,-0.069 0.3562,-0.1681 0.7809,-0.6088 1.1007,-0.7142 0.2823,-0.093 0.5422,0.0353 0.7445,0.1548"/>
    <path id="_346964440_37" class="fil1 str0" d="M101.393 30.0241c0.1337,0.1107 0.7377,0.4677 0.9401,0.5775 0.9121,0.4951 2.8646,0.5467 3.7919,0.0742 1.0466,-0.5334 1.4605,-0.7009 2.0841,-0.4156 0.4524,0.207 0.5246,0.5437 1.5913,0.7932 0.883,0.2065 1.8015,0.2063 2.6823,-0.1309 0.9487,-0.3631 1.597,-1.1856 2.5098,-0.4681 0.6044,0.4751 1.3082,0.6653 2.2894,0.6691 1.0937,0.0043 1.4776,0.0628 2.3263,-0.4374 1.5818,-0.9322 1.5999,-0.1219 2.6293,0.2611 0.628,0.2988 2.8633,0.2507 3.5407,-0.0689 0.3562,-0.1681 0.7809,-0.6088 1.1007,-0.7143 0.2823,-0.093 0.5422,0.0353 0.7445,0.1549"/>
    <path id="_188342920_38" class="fil1 str0" d="M127.467 30.2617c0.1337,0.1107 0.7377,0.4676 0.9401,0.5775 0.9121,0.4951 2.8646,0.5467 3.7919,0.0741 1.0466,-0.5334 1.4605,-0.7008 2.0841,-0.4155 0.4524,0.2069 0.5246,0.5437 1.5913,0.7932 0.883,0.2064 1.8015,0.2063 2.6823,-0.1309 0.9487,-0.3632 1.597,-1.1856 2.5098,-0.4681 0.6044,0.475 1.3082,0.6652 2.2894,0.669 1.0937,0.0043 1.4776,0.0629 2.3263,-0.4373 1.5818,-0.9322 1.5999,-0.1219 2.6293,0.2611 0.628,0.2988 2.8633,0.2507 3.5407,-0.069 0.3562,-0.168 0.7809,-0.6087 1.1007,-0.7142 0.2823,-0.093 0.5422,0.0353 0.7445,0.1549"/>
    <path id="_346960864_39" class="fil1 str0" d="M153.541 30.4993c0.1337,0.1107 0.7377,0.4676 0.9401,0.5774 0.9121,0.4952 2.8645,0.5468 3.7918,0.0742 1.0466,-0.5334 1.4605,-0.7008 2.0841,-0.4155 0.4524,0.2069 0.5246,0.5437 1.5913,0.7932 0.883,0.2064 2.2363,0.0728 3.1171,-0.2644"/>
   </g>
   <g id="_197251696">
    <path id="_188344768_40" class="fil1 str0" d="M45.6925 26.6369c0.1337,0.1107 0.7377,0.4676 0.9401,0.5774 0.9121,0.4952 2.8646,0.5467 3.7919,0.0742 1.0466,-0.5334 1.4605,-0.7008 2.0841,-0.4156 0.4524,0.207 0.5246,0.5438 1.5913,0.7932 0.883,0.2065 1.8015,0.2064 2.6823,-0.1308 0.9487,-0.3632 1.597,-1.1857 2.5098,-0.4682 0.6044,0.4751 1.3082,0.6653 2.2894,0.6691 1.0937,0.0043 1.4776,0.0629 2.3263,-0.4374 1.5818,-0.9321 1.5999,-0.1219 2.6293,0.2612 0.628,0.2987 2.8633,0.2506 3.5407,-0.069 0.3562,-0.1681 0.7809,-0.6088 1.1007,-0.7142 0.2823,-0.093 0.5422,0.0353 0.7445,0.1549"/>
    <path id="_188343352_41" class="fil1 str0" d="M71.7664 26.8745c0.1337,0.1106 0.7377,0.4676 0.9401,0.5774 0.9121,0.4951 2.8646,0.5467 3.7919,0.0742 1.0466,-0.5334 1.4605,-0.7008 2.0841,-0.4156 0.4524,0.207 0.5246,0.5437 1.5912,0.7932 0.883,0.2065 1.8015,0.2063 2.6823,-0.1308 0.9487,-0.3632 1.597,-1.1857 2.5098,-0.4682 0.6044,0.4751 1.3082,0.6653 2.2894,0.6691 1.0937,0.0043 1.4776,0.0628 2.3263,-0.4374 1.5818,-0.9321 1.5999,-0.1219 2.6293,0.2611 0.628,0.2988 2.8633,0.2507 3.5407,-0.0689 0.3562,-0.1681 0.7809,-0.6088 1.1007,-0.7142 0.2823,-0.093 0.5422,0.0353 0.7445,0.1548"/>
    <path id="_346964440_42" class="fil1 str0" d="M97.8403 27.112c0.1337,0.1107 0.7377,0.4676 0.9401,0.5775 0.9121,0.4951 2.8646,0.5467 3.7919,0.0742 1.0466,-0.5334 1.4605,-0.7009 2.0841,-0.4156 0.4524,0.2069 0.5246,0.5437 1.5913,0.7932 0.883,0.2065 1.8015,0.2063 2.6823,-0.1309 0.9487,-0.3631 1.597,-1.1856 2.5098,-0.4681 0.6044,0.475 1.3082,0.6653 2.2894,0.6691 1.0937,0.0042 1.4776,0.0628 2.3263,-0.4374 1.5818,-0.9322 1.5999,-0.1219 2.6293,0.2611 0.628,0.2988 2.8633,0.2507 3.5407,-0.0689 0.3562,-0.1681 0.7809,-0.6088 1.1007,-0.7143 0.2823,-0.093 0.5422,0.0353 0.7445,0.1549"/>
    <path id="_188342920_43" class="fil1 str0" d="M123.914 27.3496c0.1337,0.1107 0.7377,0.4676 0.9401,0.5774 0.9121,0.4952 2.8646,0.5468 3.7919,0.0742 1.0466,-0.5334 1.4605,-0.7008 2.0841,-0.4155 0.4524,0.2069 0.5246,0.5437 1.5913,0.7932 0.883,0.2064 1.8015,0.2063 2.6823,-0.1309 0.9487,-0.3632 1.597,-1.1856 2.5098,-0.4681 0.6044,0.475 1.3082,0.6652 2.2894,0.669 1.0937,0.0043 1.4776,0.0629 2.3263,-0.4373 1.5818,-0.9322 1.5999,-0.1219 2.6293,0.2611 0.628,0.2988 2.8633,0.2507 3.5407,-0.069 0.3562,-0.168 0.7809,-0.6087 1.1007,-0.7142 0.2823,-0.093 0.5422,0.0353 0.7445,0.1549"/>
    <path id="_346960864_44" class="fil1 str0" d="M149.988 27.5872c0.1337,0.1107 0.7377,0.4676 0.9401,0.5774 0.9121,0.4952 2.8645,0.5468 3.7918,0.0742 1.0466,-0.5334 1.4605,-0.7008 2.0841,-0.4155 0.4524,0.2069 0.5246,0.5437 1.5913,0.7931 0.883,0.2065 2.2363,0.0729 3.1171,-0.2643"/>
   </g>
  </g>
 </g>
</svg>
