<?xml version="1.0" encoding="UTF-8"?>
<!DOCTYPE svg PUBLIC "-//W3C//DTD SVG 1.1//EN" "http://www.w3.org/Graphics/SVG/1.1/DTD/svg11.dtd">
<!-- Creator: CorelDRAW -->
<svg xmlns="http://www.w3.org/2000/svg" xml:space="preserve" width="210mm" height="297mm" style="shape-rendering:geometricPrecision; text-rendering:geometricPrecision; image-rendering:optimizeQuality; fill-rule:evenodd; clip-rule:evenodd"
viewBox="0 0 210 297"
 xmlns:xlink="http://www.w3.org/1999/xlink">
 <defs>
  <style type="text/css">
   <![CDATA[
    .str2 {stroke:#333333;stroke-width:0.2}
    .str1 {stroke:#2B2A29;stroke-width:0.5}
    .str0 {stroke:#333333;stroke-width:0.5}
    .fil0 {fill:none}
    .fil1 {fill:#B32E37}
   ]]>
  </style>
 </defs>
 <g id="Слой_x0020_1">
  <metadata id="CorelCorpID_0Corel-Layer"/>
  <line class="fil0 str0" x1="26.7939" y1="39.7416" x2="27.5296" y2= "100.81" />
  <line class="fil0 str0" x1="100.06" y1="75.0997" x2="99.5926" y2= "101.518" />
  <line class="fil0 str0" x1="191.181" y1="75.834" x2="191.485" y2= "102.41" />
  <line class="fil0 str0" x1="2.8634" y1="100.577" x2="201.642" y2= "102.512" />
  <g id="_422733632">
   <polygon id="_359326728" class="fil1 str0" points="9.594,37.172 85.0596,75.304 206.725,75.9502 134.359,37.5981 "/>
   <polygon id="_196235944" class="fil1 str0" points="9.594,37.172 12.4388,38.6095 137.389,39.2036 134.359,37.5981 "/>
   <g id="_346964824">
    <path id="_188344768" class="fil0 str1" d="M77.8481 71.5108c0.1337,0.1156 0.7377,0.4887 0.9401,0.6035 0.9121,0.5175 2.8646,0.5714 3.7919,0.0775 1.0466,-0.5575 1.4605,-0.7325 2.0841,-0.4343 0.4524,0.2163 0.5246,0.5683 1.5913,0.829 0.883,0.2158 1.8015,0.2157 2.6823,-0.1367 0.9487,-0.3796 1.597,-1.2393 2.5098,-0.4894 0.6044,0.4966 1.3082,0.6954 2.2894,0.6994 1.0937,0.0044 1.4776,0.0656 2.3263,-0.4572 1.5818,-0.9742 1.5999,-0.1274 2.6293,0.273 0.628,0.3122 2.8633,0.262 3.5407,-0.0721 0.3562,-0.1757 0.7809,-0.6363 1.1007,-0.7465 0.2823,-0.0972 0.5422,0.0369 0.7445,0.1619"/>
    <path id="_188343352" class="fil0 str1" d="M103.922 71.7591c0.1337,0.1157 0.7377,0.4887 0.9401,0.6035 0.9121,0.5175 2.8646,0.5714 3.7919,0.0775 1.0466,-0.5575 1.4605,-0.7325 2.0841,-0.4343 0.4524,0.2163 0.5246,0.5683 1.5913,0.829 0.883,0.2158 1.8015,0.2157 2.6823,-0.1367 0.9487,-0.3796 1.597,-1.2393 2.5098,-0.4894 0.6044,0.4966 1.3082,0.6954 2.2894,0.6994 1.0937,0.0045 1.4776,0.0657 2.3263,-0.4572 1.5818,-0.9742 1.5999,-0.1274 2.6293,0.273 0.628,0.3122 2.8633,0.262 3.5407,-0.0721 0.3562,-0.1757 0.7809,-0.6363 1.1007,-0.7465 0.2823,-0.0972 0.5422,0.0369 0.7445,0.1619"/>
    <path id="_346964440" class="fil0 str1" d="M129.996 72.0074c0.1337,0.1157 0.7377,0.4887 0.9401,0.6035 0.9121,0.5175 2.8646,0.5714 3.7919,0.0776 1.0466,-0.5575 1.4605,-0.7325 2.0841,-0.4344 0.4524,0.2163 0.5246,0.5683 1.5913,0.8291 0.883,0.2158 1.8015,0.2156 2.6823,-0.1368 0.9487,-0.3796 1.597,-1.2393 2.5098,-0.4893 0.6044,0.4965 1.3082,0.6953 2.2894,0.6993 1.0937,0.0045 1.4776,0.0657 2.3263,-0.4572 1.5818,-0.9742 1.5999,-0.1274 2.6293,0.273 0.628,0.3122 2.8633,0.262 3.5407,-0.0721 0.3562,-0.1756 0.7809,-0.6363 1.1007,-0.7465 0.2823,-0.0972 0.5422,0.0369 0.7445,0.1619"/>
    <path id="_188342920" class="fil0 str1" d="M156.07 72.2557c0.1337,0.1157 0.7377,0.4887 0.9401,0.6035 0.9121,0.5176 2.8646,0.5715 3.7919,0.0776 1.0466,-0.5575 1.4605,-0.7325 2.0841,-0.4344 0.4524,0.2163 0.5246,0.5683 1.5913,0.8291 0.883,0.2158 1.8015,0.2156 2.6823,-0.1368 0.9487,-0.3796 1.597,-1.2392 2.5098,-0.4893 0.6044,0.4965 1.3082,0.6953 2.2894,0.6993 1.0937,0.0045 1.4776,0.0657 2.3263,-0.4571 1.5818,-0.9743 1.5999,-0.1274 2.6293,0.2729 0.628,0.3123 2.8633,0.262 3.5407,-0.0721 0.3562,-0.1756 0.7809,-0.6363 1.1007,-0.7465 0.2823,-0.0972 0.5422,0.0369 0.7445,0.1619"/>
    <path id="_346960864" class="fil0 str1" d="M182.144 72.504c0.1337,0.1157 0.7377,0.4888 0.9401,0.6035 0.9121,0.5176 2.8646,0.5715 3.7919,0.0776 1.0466,-0.5575 1.4605,-0.7325 2.0841,-0.4344 0.4524,0.2163 0.5246,0.5683 1.5913,0.8291 0.883,0.2158 1.8015,0.2156 2.6823,-0.1368 0.9487,-0.3796 1.597,-1.2392 2.5098,-0.4893 0.6044,0.4965 1.3083,0.6953 2.2894,0.6993 1.0937,0.0044 1.9338,-0.3117 2.7825,-0.8346"/>
   </g>
   <g id="_188349808">
    <path id="_188344240" class="fil0 str1" d="M72.0427 68.5579c0.1337,0.1157 0.7377,0.4887 0.9401,0.6035 0.9121,0.5175 2.8646,0.5714 3.7919,0.0775 1.0466,-0.5575 1.4605,-0.7325 2.0841,-0.4343 0.4524,0.2163 0.5246,0.5683 1.5913,0.829 0.883,0.2158 1.8015,0.2157 2.6823,-0.1367 0.9487,-0.3796 1.597,-1.2393 2.5098,-0.4894 0.6044,0.4966 1.3082,0.6954 2.2894,0.6994 1.0937,0.0044 1.4776,0.0657 2.3263,-0.4572 1.5818,-0.9742 1.5999,-0.1274 2.6293,0.273 0.628,0.3122 2.8633,0.262 3.5407,-0.0721 0.3562,-0.1757 0.7809,-0.6363 1.1007,-0.7465 0.2823,-0.0972 0.5422,0.0369 0.7445,0.1619"/>
    <path id="_346961248" class="fil0 str1" d="M98.1167 68.8062c0.1337,0.1157 0.7377,0.4887 0.9401,0.6035 0.9121,0.5175 2.8646,0.5714 3.7919,0.0776 1.0466,-0.5575 1.4605,-0.7325 2.0841,-0.4344 0.4524,0.2163 0.5246,0.5683 1.5913,0.8291 0.883,0.2158 1.8015,0.2156 2.6823,-0.1368 0.9487,-0.3796 1.597,-1.2393 2.5098,-0.4893 0.6044,0.4965 1.3082,0.6953 2.2894,0.6993 1.0937,0.0045 1.4776,0.0657 2.3263,-0.4572 1.5818,-0.9742 1.5999,-0.1274 2.6293,0.273 0.628,0.3122 2.8633,0.262 3.5407,-0.0721 0.3562,-0.1757 0.7809,-0.6363 1.1007,-0.7465 0.2823,-0.0972 0.5422,0.0369 0.7445,0.1619"/>
    <path id="_346961056" class="fil0 str1" d="M124.191 69.0545c0.1337,0.1157 0.7377,0.4887 0.9401,0.6035 0.9121,0.5175 2.8646,0.5715 3.7919,0.0776 1.0466,-0.5575 1.4605,-0.7325 2.0841,-0.4344 0.4524,0.2163 0.5246,0.5683 1.5913,0.8291 0.883,0.2158 1.8015,0.2156 2.6823,-0.1368 0.9487,-0.3796 1.597,-1.2392 2.5098,-0.4893 0.6044,0.4965 1.3082,0.6953 2.2894,0.6993 1.0937,0.0045 1.4776,0.0657 2.3263,-0.4572 1.5818,-0.9742 1.5999,-0.1273 2.6293,0.273 0.628,0.3123 2.8633,0.262 3.5407,-0.0721 0.3562,-0.1756 0.7809,-0.6363 1.1007,-0.7465 0.2823,-0.0972 0.5422,0.0369 0.7445,0.1619"/>
    <path id="_346964248" class="fil0 str1" d="M150.265 69.3028c0.1337,0.1157 0.7377,0.4887 0.9401,0.6035 0.9121,0.5176 2.8646,0.5715 3.7919,0.0776 1.0466,-0.5575 1.4605,-0.7325 2.0841,-0.4344 0.4524,0.2163 0.5246,0.5683 1.5913,0.8291 0.883,0.2158 1.8015,0.2156 2.6823,-0.1368 0.9487,-0.3796 1.597,-1.2392 2.5098,-0.4893 0.6044,0.4965 1.3082,0.6953 2.2894,0.6993 1.0937,0.0045 1.4776,0.0657 2.3263,-0.4571 1.5818,-0.9743 1.5999,-0.1274 2.6293,0.2729 0.628,0.3123 2.8633,0.262 3.5407,-0.0721 0.3562,-0.1756 0.7809,-0.6363 1.1007,-0.7465 0.2823,-0.0972 0.5422,0.0369 0.7445,0.1619"/>
    <path id="_188348296" class="fil0 str1" d="M176.339 69.5511c0.1337,0.1157 0.7377,0.4888 0.9401,0.6035 0.9121,0.5176 2.8646,0.5715 3.7919,0.0776 1.0466,-0.5575 1.4605,-0.7325 2.0841,-0.4343 0.4524,0.2163 0.5246,0.5682 1.5913,0.829 0.883,0.2158 1.8015,0.2156 2.6823,-0.1368 0.9487,-0.3796 1.597,-1.2392 2.5098,-0.4893 0.6044,0.4965 1.3083,0.6953 2.2894,0.6993 1.0937,0.0044 1.9338,-0.3117 2.7825,-0.8346"/>
   </g>
   <g id="_188347072">
    <path id="_346956064" class="fil0 str1" d="M66.2373 65.605c0.1337,0.1157 0.7377,0.4887 0.9401,0.6035 0.9121,0.5175 2.8646,0.5714 3.7919,0.0775 1.0466,-0.5575 1.4605,-0.7324 2.0841,-0.4343 0.4524,0.2163 0.5246,0.5683 1.5913,0.829 0.883,0.2158 1.8015,0.2157 2.6823,-0.1367 0.9487,-0.3796 1.597,-1.2393 2.5098,-0.4893 0.6044,0.4965 1.3082,0.6953 2.2894,0.6993 1.0937,0.0045 1.4776,0.0657 2.3263,-0.4572 1.5818,-0.9742 1.5999,-0.1274 2.6293,0.273 0.628,0.3122 2.8633,0.262 3.5407,-0.0721 0.3562,-0.1757 0.7809,-0.6363 1.1007,-0.7465 0.2823,-0.0972 0.5422,0.0369 0.7445,0.1619"/>
    <path id="_188348080" class="fil0 str1" d="M92.3113 65.8533c0.1337,0.1157 0.7377,0.4887 0.9401,0.6035 0.9121,0.5175 2.8646,0.5715 3.7919,0.0776 1.0466,-0.5575 1.4605,-0.7325 2.0841,-0.4344 0.4524,0.2163 0.5246,0.5683 1.5913,0.8291 0.883,0.2158 1.8015,0.2156 2.6823,-0.1368 0.9487,-0.3796 1.597,-1.2392 2.5098,-0.4893 0.6044,0.4965 1.3082,0.6953 2.2894,0.6993 1.0937,0.0045 1.4776,0.0657 2.3263,-0.4572 1.5818,-0.9742 1.5999,-0.1273 2.6293,0.273 0.628,0.3122 2.8633,0.262 3.5407,-0.0721 0.3562,-0.1756 0.7809,-0.6363 1.1007,-0.7465 0.2823,-0.0972 0.5422,0.0369 0.7445,0.1619"/>
    <path id="_188345560" class="fil0 str1" d="M118.385 66.1016c0.1337,0.1157 0.7377,0.4887 0.9401,0.6035 0.9121,0.5176 2.8646,0.5715 3.7919,0.0776 1.0466,-0.5575 1.4605,-0.7325 2.0841,-0.4344 0.4524,0.2163 0.5246,0.5683 1.5913,0.8291 0.883,0.2158 1.8015,0.2156 2.6823,-0.1368 0.9487,-0.3796 1.597,-1.2392 2.5098,-0.4893 0.6044,0.4965 1.3082,0.6953 2.2894,0.6993 1.0937,0.0045 1.4776,0.0657 2.3263,-0.4571 1.5818,-0.9743 1.5999,-0.1274 2.6293,0.2729 0.628,0.3123 2.8633,0.262 3.5407,-0.0721 0.3562,-0.1756 0.7809,-0.6363 1.1007,-0.7465 0.2823,-0.0972 0.5422,0.0369 0.7445,0.1619"/>
    <path id="_346961632" class="fil0 str1" d="M144.459 66.3499c0.1337,0.1157 0.7377,0.4888 0.9401,0.6035 0.9121,0.5176 2.8646,0.5715 3.7919,0.0776 1.0466,-0.5575 1.4605,-0.7325 2.0841,-0.4344 0.4524,0.2163 0.5246,0.5683 1.5913,0.8291 0.883,0.2158 1.8015,0.2156 2.6823,-0.1368 0.9487,-0.3796 1.597,-1.2392 2.5098,-0.4893 0.6044,0.4965 1.3082,0.6953 2.2894,0.6993 1.0937,0.0045 1.4776,0.0657 2.3263,-0.4571 1.5818,-0.9743 1.5999,-0.1274 2.6293,0.2729 0.628,0.3123 2.8633,0.262 3.5407,-0.0721 0.3562,-0.1756 0.7809,-0.6362 1.1007,-0.7465 0.2823,-0.0972 0.5422,0.0369 0.7445,0.1619"/>
    <path id="_346961824" class="fil0 str1" d="M170.533 66.5982c0.1337,0.1157 0.7377,0.4888 0.9401,0.6036 0.9121,0.5175 2.8646,0.5714 3.7919,0.0775 1.0466,-0.5575 1.4605,-0.7325 2.0841,-0.4343 0.4524,0.2163 0.5246,0.5682 1.5913,0.829 0.883,0.2158 1.8015,0.2156 2.6823,-0.1368 0.9487,-0.3796 1.597,-1.2392 2.5098,-0.4893 0.6044,0.4966 1.3083,0.6954 2.2894,0.6993 1.0937,0.0044 1.9338,-0.3117 2.7825,-0.8346"/>
   </g>
   <g id="_188780680">
    <path id="_346962208" class="fil0 str1" d="M60.4319 62.6521c0.1337,0.1157 0.7377,0.4887 0.9401,0.6035 0.9121,0.5175 2.8646,0.5714 3.7919,0.0776 1.0466,-0.5575 1.4605,-0.7325 2.0841,-0.4344 0.4524,0.2163 0.5246,0.5683 1.5913,0.8291 0.883,0.2158 1.8015,0.2156 2.6823,-0.1368 0.9487,-0.3796 1.597,-1.2393 2.5098,-0.4893 0.6044,0.4965 1.3082,0.6953 2.2894,0.6993 1.0937,0.0045 1.4776,0.0657 2.3263,-0.4572 1.5818,-0.9742 1.5999,-0.1273 2.6293,0.273 0.628,0.3122 2.8633,0.262 3.5407,-0.0721 0.3562,-0.1756 0.7809,-0.6363 1.1007,-0.7465 0.2823,-0.0972 0.5422,0.0369 0.7445,0.1619"/>
    <path id="_346962280" class="fil0 str1" d="M86.5059 62.9004c0.1337,0.1157 0.7377,0.4887 0.9401,0.6035 0.9121,0.5176 2.8646,0.5715 3.7919,0.0776 1.0466,-0.5575 1.4605,-0.7325 2.0841,-0.4344 0.4524,0.2163 0.5246,0.5683 1.5913,0.8291 0.883,0.2158 1.8015,0.2156 2.6823,-0.1368 0.9487,-0.3796 1.597,-1.2392 2.5098,-0.4893 0.6044,0.4965 1.3082,0.6953 2.2894,0.6993 1.0937,0.0045 1.4776,0.0657 2.3263,-0.4571 1.5818,-0.9743 1.5999,-0.1274 2.6293,0.2729 0.628,0.3123 2.8633,0.262 3.5407,-0.0721 0.3562,-0.1756 0.7809,-0.6363 1.1007,-0.7465 0.2823,-0.0972 0.5422,0.0369 0.7445,0.1619"/>
    <path id="_188348416" class="fil0 str1" d="M112.58 63.1487c0.1337,0.1157 0.7377,0.4888 0.9401,0.6035 0.9121,0.5176 2.8646,0.5715 3.7919,0.0776 1.0466,-0.5575 1.4605,-0.7325 2.0841,-0.4344 0.4524,0.2163 0.5246,0.5683 1.5913,0.8291 0.883,0.2158 1.8015,0.2156 2.6823,-0.1368 0.9487,-0.3796 1.597,-1.2392 2.5098,-0.4893 0.6044,0.4965 1.3082,0.6953 2.2894,0.6993 1.0937,0.0045 1.4776,0.0657 2.3263,-0.4571 1.5818,-0.9743 1.5999,-0.1274 2.6293,0.2729 0.628,0.3123 2.8633,0.262 3.5407,-0.0721 0.3562,-0.1756 0.7809,-0.6363 1.1007,-0.7465 0.2823,-0.0972 0.5422,0.0369 0.7445,0.1619"/>
    <path id="_188348320" class="fil0 str1" d="M138.654 63.397c0.1337,0.1157 0.7377,0.4888 0.9401,0.6036 0.9121,0.5175 2.8646,0.5714 3.7919,0.0775 1.0466,-0.5575 1.4605,-0.7325 2.0841,-0.4343 0.4524,0.2163 0.5246,0.5682 1.5913,0.829 0.883,0.2158 1.8015,0.2156 2.6823,-0.1368 0.9487,-0.3796 1.597,-1.2392 2.5098,-0.4893 0.6044,0.4965 1.3082,0.6954 2.2894,0.6993 1.0937,0.0045 1.4776,0.0657 2.3263,-0.4571 1.5818,-0.9743 1.5999,-0.1274 2.6293,0.2729 0.628,0.3123 2.8633,0.262 3.5407,-0.072 0.3562,-0.1757 0.7809,-0.6363 1.1007,-0.7466 0.2823,-0.0972 0.5422,0.0369 0.7445,0.1619"/>
    <path id="_188349472" class="fil0 str1" d="M164.728 63.6453c0.1337,0.1157 0.7377,0.4888 0.9401,0.6036 0.9121,0.5175 2.8646,0.5714 3.7919,0.0775 1.0466,-0.5575 1.4605,-0.7325 2.0841,-0.4343 0.4524,0.2163 0.5246,0.5683 1.5913,0.829 0.883,0.2158 1.8015,0.2156 2.6823,-0.1368 0.9487,-0.3796 1.597,-1.2392 2.5098,-0.4893 0.6044,0.4966 1.3083,0.6954 2.2894,0.6993 1.0937,0.0044 1.9338,-0.3117 2.7825,-0.8346"/>
   </g>
   <g id="_346962016">
    <path id="_188345752" class="fil0 str1" d="M54.6265 59.6992c0.1337,0.1157 0.7377,0.4887 0.9401,0.6035 0.9121,0.5176 2.8646,0.5715 3.7919,0.0776 1.0466,-0.5575 1.4605,-0.7325 2.0841,-0.4344 0.4524,0.2163 0.5246,0.5683 1.5913,0.8291 0.883,0.2158 1.8015,0.2156 2.6823,-0.1368 0.9487,-0.3796 1.597,-1.2392 2.5098,-0.4893 0.6044,0.4965 1.3082,0.6953 2.2894,0.6993 1.0937,0.0045 1.4776,0.0657 2.3263,-0.4571 1.5818,-0.9743 1.5999,-0.1274 2.6293,0.2729 0.628,0.3123 2.8633,0.262 3.5407,-0.0721 0.3562,-0.1756 0.7809,-0.6363 1.1007,-0.7465 0.2823,-0.0972 0.5422,0.0369 0.7445,0.1619"/>
    <path id="_188342488" class="fil0 str1" d="M80.7005 59.9475c0.1337,0.1157 0.7377,0.4888 0.9401,0.6035 0.9121,0.5176 2.8646,0.5715 3.7919,0.0776 1.0466,-0.5575 1.4605,-0.7325 2.0841,-0.4344 0.4524,0.2163 0.5246,0.5683 1.5913,0.8291 0.883,0.2158 1.8015,0.2156 2.6823,-0.1368 0.9487,-0.3796 1.597,-1.2392 2.5098,-0.4893 0.6044,0.4965 1.3082,0.6953 2.2894,0.6993 1.0937,0.0045 1.4776,0.0657 2.3263,-0.4571 1.5818,-0.9743 1.5999,-0.1274 2.6293,0.2729 0.628,0.3123 2.8633,0.262 3.5407,-0.0721 0.3562,-0.1756 0.7809,-0.6363 1.1007,-0.7465 0.2823,-0.0972 0.5422,0.0369 0.7445,0.1619"/>
    <path id="_188343688" class="fil0 str1" d="M106.775 60.1958c0.1337,0.1157 0.7377,0.4888 0.9401,0.6036 0.9121,0.5175 2.8646,0.5714 3.7919,0.0775 1.0466,-0.5575 1.4605,-0.7325 2.0841,-0.4343 0.4524,0.2163 0.5246,0.5682 1.5913,0.829 0.883,0.2158 1.8015,0.2156 2.6823,-0.1368 0.9487,-0.3796 1.597,-1.2392 2.5098,-0.4893 0.6044,0.4965 1.3082,0.6953 2.2894,0.6993 1.0937,0.0045 1.4776,0.0657 2.3263,-0.4571 1.5818,-0.9743 1.5999,-0.1274 2.6293,0.2729 0.628,0.3123 2.8633,0.262 3.5407,-0.072 0.3562,-0.1757 0.7809,-0.6363 1.1007,-0.7466 0.2823,-0.0972 0.5422,0.0369 0.7445,0.1619"/>
    <path id="_188343136" class="fil0 str1" d="M132.849 60.4441c0.1337,0.1157 0.7377,0.4888 0.9401,0.6036 0.9121,0.5175 2.8646,0.5714 3.7919,0.0775 1.0466,-0.5575 1.4605,-0.7325 2.0841,-0.4343 0.4524,0.2163 0.5246,0.5683 1.5913,0.829 0.883,0.2158 1.8015,0.2156 2.6823,-0.1368 0.9487,-0.3796 1.597,-1.2392 2.5098,-0.4893 0.6044,0.4966 1.3082,0.6954 2.2894,0.6993 1.0937,0.0045 1.4776,0.0657 2.3263,-0.4571 1.5818,-0.9743 1.5999,-0.1274 2.6293,0.2729 0.628,0.3123 2.8633,0.262 3.5407,-0.072 0.3562,-0.1757 0.7809,-0.6363 1.1007,-0.7466 0.2823,-0.0972 0.5422,0.037 0.7445,0.1619"/>
    <path id="_188349088" class="fil0 str1" d="M158.923 60.6924c0.1337,0.1157 0.7377,0.4888 0.9401,0.6036 0.9121,0.5175 2.8646,0.5714 3.7919,0.0775 1.0466,-0.5575 1.4605,-0.7325 2.0841,-0.4343 0.4524,0.2163 0.5246,0.5683 1.5913,0.829 0.883,0.2158 1.8015,0.2157 2.6823,-0.1367 0.9487,-0.3796 1.597,-1.2393 2.5098,-0.4894 0.6044,0.4966 1.3083,0.6954 2.2894,0.6994 1.0937,0.0044 1.9338,-0.3118 2.7825,-0.8346"/>
   </g>
   <g id="_188345176">
    <path id="_186197776" class="fil0 str1" d="M48.8211 56.7463c0.1337,0.1157 0.7377,0.4887 0.9401,0.6035 0.9121,0.5176 2.8646,0.5715 3.7919,0.0776 1.0466,-0.5575 1.4605,-0.7325 2.0841,-0.4344 0.4524,0.2163 0.5246,0.5683 1.5913,0.8291 0.883,0.2158 1.8015,0.2156 2.6823,-0.1368 0.9487,-0.3796 1.597,-1.2392 2.5098,-0.4893 0.6044,0.4965 1.3082,0.6953 2.2894,0.6993 1.0937,0.0045 1.4776,0.0657 2.3263,-0.4571 1.5818,-0.9743 1.5999,-0.1274 2.6293,0.2729 0.628,0.3123 2.8633,0.262 3.5407,-0.0721 0.3562,-0.1756 0.7809,-0.6363 1.1007,-0.7465 0.2823,-0.0972 0.5422,0.0369 0.7445,0.1619"/>
    <path id="_346945048" class="fil0 str1" d="M74.8951 56.9946c0.1337,0.1157 0.7377,0.4888 0.9401,0.6035 0.9121,0.5176 2.8646,0.5715 3.7919,0.0776 1.0466,-0.5575 1.4605,-0.7325 2.0841,-0.4343 0.4524,0.2163 0.5246,0.5682 1.5913,0.829 0.883,0.2158 1.8015,0.2156 2.6823,-0.1368 0.9487,-0.3796 1.597,-1.2392 2.5098,-0.4893 0.6044,0.4965 1.3082,0.6953 2.2894,0.6993 1.0937,0.0045 1.4776,0.0657 2.3263,-0.4571 1.5818,-0.9743 1.5999,-0.1274 2.6293,0.2729 0.628,0.3123 2.8633,0.262 3.5407,-0.0721 0.3562,-0.1756 0.7809,-0.6362 1.1007,-0.7465 0.2823,-0.0972 0.5422,0.0369 0.7445,0.1619"/>
    <path id="_346945720" class="fil0 str1" d="M100.969 57.2429c0.1337,0.1157 0.7377,0.4888 0.9401,0.6036 0.9121,0.5175 2.8646,0.5714 3.7919,0.0775 1.0466,-0.5575 1.4605,-0.7325 2.0841,-0.4343 0.4524,0.2163 0.5246,0.5682 1.5913,0.829 0.883,0.2158 1.8015,0.2156 2.6823,-0.1368 0.9487,-0.3796 1.597,-1.2392 2.5098,-0.4893 0.6044,0.4966 1.3082,0.6954 2.2894,0.6993 1.0937,0.0045 1.4776,0.0657 2.3263,-0.4571 1.5818,-0.9743 1.5999,-0.1274 2.6293,0.2729 0.628,0.3123 2.8633,0.262 3.5407,-0.072 0.3562,-0.1757 0.7809,-0.6363 1.1007,-0.7466 0.2823,-0.0972 0.5422,0.037 0.7445,0.1619"/>
    <path id="_346941880" class="fil0 str1" d="M127.043 57.4912c0.1337,0.1157 0.7377,0.4888 0.9401,0.6036 0.9121,0.5175 2.8646,0.5714 3.7919,0.0775 1.0466,-0.5575 1.4605,-0.7325 2.0841,-0.4343 0.4524,0.2163 0.5246,0.5683 1.5913,0.829 0.883,0.2158 1.8015,0.2157 2.6823,-0.1367 0.9487,-0.3796 1.597,-1.2393 2.5098,-0.4894 0.6044,0.4966 1.3082,0.6954 2.2894,0.6994 1.0937,0.0044 1.4776,0.0656 2.3263,-0.4572 1.5818,-0.9743 1.5999,-0.1274 2.6293,0.2729 0.628,0.3123 2.8633,0.262 3.5407,-0.072 0.3562,-0.1757 0.7809,-0.6363 1.1007,-0.7465 0.2823,-0.0972 0.5422,0.0369 0.7445,0.1619"/>
    <path id="_346944472" class="fil0 str1" d="M153.117 57.7396c0.1337,0.1157 0.7377,0.4887 0.9401,0.6035 0.9121,0.5175 2.8646,0.5714 3.7919,0.0775 1.0466,-0.5575 1.4605,-0.7325 2.0841,-0.4343 0.4524,0.2163 0.5246,0.5683 1.5913,0.829 0.883,0.2158 1.8015,0.2157 2.6823,-0.1367 0.9487,-0.3796 1.597,-1.2393 2.5098,-0.4894 0.6044,0.4966 1.3083,0.6954 2.2894,0.6994 1.0937,0.0044 1.9338,-0.3118 2.7825,-0.8346"/>
   </g>
   <g id="_186203248">
    <path id="_346951096" class="fil0 str1" d="M43.0157 53.7934c0.1337,0.1157 0.7377,0.4888 0.9401,0.6035 0.9121,0.5176 2.8646,0.5715 3.7919,0.0776 1.0466,-0.5575 1.4605,-0.7325 2.0841,-0.4344 0.4524,0.2163 0.5246,0.5683 1.5913,0.8291 0.883,0.2158 1.8015,0.2156 2.6823,-0.1368 0.9487,-0.3796 1.597,-1.2392 2.5098,-0.4893 0.6044,0.4965 1.3082,0.6953 2.2894,0.6993 1.0937,0.0045 1.4776,0.0657 2.3263,-0.4571 1.5818,-0.9743 1.5999,-0.1274 2.6293,0.2729 0.628,0.3123 2.8633,0.262 3.5407,-0.0721 0.3562,-0.1756 0.7809,-0.6362 1.1007,-0.7465 0.2823,-0.0972 0.5422,0.0369 0.7445,0.1619"/>
    <path id="_346944352" class="fil0 str1" d="M69.0897 54.0417c0.1337,0.1157 0.7377,0.4888 0.9401,0.6036 0.9121,0.5175 2.8646,0.5714 3.7919,0.0775 1.0466,-0.5575 1.4605,-0.7325 2.0841,-0.4343 0.4524,0.2163 0.5246,0.5682 1.5913,0.829 0.883,0.2158 1.8015,0.2156 2.6823,-0.1368 0.9487,-0.3796 1.597,-1.2392 2.5098,-0.4893 0.6044,0.4966 1.3082,0.6954 2.2894,0.6993 1.0937,0.0045 1.4776,0.0657 2.3263,-0.4571 1.5818,-0.9743 1.5999,-0.1274 2.6293,0.2729 0.628,0.3123 2.8633,0.262 3.5407,-0.072 0.3562,-0.1757 0.7809,-0.6363 1.1007,-0.7466 0.2823,-0.0972 0.5422,0.0369 0.7445,0.1619"/>
    <path id="_346946296" class="fil0 str1" d="M95.1637 54.29c0.1337,0.1157 0.7377,0.4888 0.9401,0.6036 0.9121,0.5175 2.8646,0.5714 3.7919,0.0775 1.0466,-0.5575 1.4605,-0.7325 2.0841,-0.4343 0.4524,0.2163 0.5246,0.5683 1.5913,0.829 0.883,0.2158 1.8015,0.2157 2.6823,-0.1367 0.9487,-0.3797 1.597,-1.2393 2.5098,-0.4894 0.6044,0.4966 1.3082,0.6954 2.2894,0.6993 1.0937,0.0045 1.4776,0.0657 2.3263,-0.4571 1.5818,-0.9743 1.5999,-0.1274 2.6293,0.2729 0.628,0.3123 2.8633,0.262 3.5407,-0.072 0.3562,-0.1757 0.7809,-0.6363 1.1007,-0.7465 0.2823,-0.0972 0.5422,0.0369 0.7445,0.1618"/>
    <path id="_346944280" class="fil0 str1" d="M121.238 54.5384c0.1337,0.1156 0.7377,0.4887 0.9401,0.6035 0.9121,0.5175 2.8646,0.5714 3.7919,0.0775 1.0466,-0.5575 1.4605,-0.7325 2.0841,-0.4343 0.4524,0.2163 0.5246,0.5683 1.5913,0.829 0.883,0.2158 1.8015,0.2157 2.6823,-0.1367 0.9487,-0.3796 1.597,-1.2393 2.5098,-0.4894 0.6044,0.4966 1.3082,0.6954 2.2894,0.6994 1.0937,0.0044 1.4776,0.0656 2.3263,-0.4572 1.5818,-0.9742 1.5999,-0.1274 2.6293,0.273 0.628,0.3122 2.8633,0.262 3.5407,-0.0721 0.3562,-0.1757 0.7809,-0.6363 1.1007,-0.7465 0.2823,-0.0972 0.5422,0.0369 0.7445,0.1619"/>
    <path id="_346945456" class="fil0 str1" d="M147.312 54.7867c0.1337,0.1157 0.7377,0.4887 0.9401,0.6035 0.9121,0.5175 2.8646,0.5714 3.7919,0.0775 1.0466,-0.5575 1.4605,-0.7325 2.0841,-0.4343 0.4524,0.2163 0.5246,0.5683 1.5913,0.829 0.883,0.2158 1.8015,0.2157 2.6823,-0.1367 0.9487,-0.3796 1.597,-1.2393 2.5098,-0.4894 0.6044,0.4966 1.3083,0.6954 2.2894,0.6994 1.0937,0.0044 1.9338,-0.3118 2.7825,-0.8346"/>
   </g>
   <g id="_346944952">
    <path id="_346948552" class="fil0 str1" d="M37.2103 50.8405c0.1337,0.1157 0.7377,0.4888 0.9401,0.6036 0.9121,0.5175 2.8646,0.5714 3.7919,0.0775 1.0466,-0.5575 1.4605,-0.7325 2.0841,-0.4343 0.4524,0.2163 0.5246,0.5682 1.5913,0.829 0.883,0.2158 1.8015,0.2156 2.6823,-0.1368 0.9487,-0.3796 1.597,-1.2392 2.5098,-0.4893 0.6044,0.4965 1.3082,0.6953 2.2894,0.6993 1.0937,0.0045 1.4776,0.0657 2.3263,-0.4571 1.5818,-0.9743 1.5999,-0.1274 2.6293,0.2729 0.628,0.3123 2.8633,0.262 3.5407,-0.072 0.3562,-0.1757 0.7809,-0.6363 1.1007,-0.7466 0.2823,-0.0972 0.5422,0.0369 0.7445,0.1619"/>
    <path id="_346949032" class="fil0 str1" d="M63.2843 51.0888c0.1337,0.1157 0.7377,0.4888 0.9401,0.6036 0.9121,0.5175 2.8646,0.5714 3.7919,0.0775 1.0466,-0.5575 1.4605,-0.7325 2.0841,-0.4343 0.4524,0.2163 0.5246,0.5683 1.5913,0.829 0.883,0.2158 1.8015,0.2156 2.6823,-0.1368 0.9487,-0.3796 1.597,-1.2392 2.5098,-0.4893 0.6044,0.4966 1.3082,0.6954 2.2894,0.6993 1.0937,0.0045 1.4776,0.0657 2.3263,-0.4571 1.5818,-0.9743 1.5999,-0.1274 2.6293,0.2729 0.628,0.3123 2.8633,0.262 3.5407,-0.072 0.3562,-0.1757 0.7809,-0.6363 1.1007,-0.7465 0.2823,-0.0973 0.5422,0.0369 0.7445,0.1618"/>
    <path id="_346942768" class="fil0 str1" d="M89.3583 51.3371c0.1337,0.1157 0.7377,0.4888 0.9401,0.6036 0.9121,0.5175 2.8646,0.5714 3.7919,0.0775 1.0466,-0.5575 1.4605,-0.7325 2.0841,-0.4343 0.4524,0.2163 0.5246,0.5683 1.5913,0.829 0.883,0.2158 1.8015,0.2157 2.6823,-0.1367 0.9487,-0.3796 1.597,-1.2393 2.5098,-0.4894 0.6044,0.4966 1.3082,0.6954 2.2894,0.6994 1.0937,0.0044 1.4776,0.0656 2.3263,-0.4572 1.5818,-0.9743 1.5999,-0.1274 2.6293,0.273 0.628,0.3122 2.8633,0.262 3.5407,-0.0721 0.3562,-0.1757 0.7809,-0.6363 1.1007,-0.7465 0.2823,-0.0972 0.5422,0.0369 0.7445,0.1619"/>
    <path id="_346942960" class="fil0 str1" d="M115.432 51.5855c0.1337,0.1157 0.7377,0.4887 0.9401,0.6035 0.9121,0.5175 2.8646,0.5714 3.7919,0.0775 1.0466,-0.5575 1.4605,-0.7325 2.0841,-0.4343 0.4524,0.2163 0.5246,0.5683 1.5913,0.829 0.883,0.2158 1.8015,0.2157 2.6823,-0.1367 0.9487,-0.3796 1.597,-1.2393 2.5098,-0.4894 0.6044,0.4966 1.3082,0.6954 2.2894,0.6994 1.0937,0.0044 1.4776,0.0657 2.3263,-0.4572 1.5818,-0.9742 1.5999,-0.1274 2.6293,0.273 0.628,0.3122 2.8633,0.262 3.5407,-0.0721 0.3562,-0.1757 0.7809,-0.6363 1.1007,-0.7465 0.2823,-0.0972 0.5422,0.0369 0.7445,0.1619"/>
    <path id="_346946824" class="fil0 str1" d="M141.506 51.8338c0.1337,0.1157 0.7377,0.4887 0.9401,0.6035 0.9121,0.5175 2.8646,0.5714 3.7919,0.0776 1.0466,-0.5575 1.4605,-0.7325 2.0841,-0.4344 0.4524,0.2163 0.5246,0.5683 1.5913,0.8291 0.883,0.2158 1.8015,0.2156 2.6823,-0.1368 0.9487,-0.3796 1.597,-1.2393 2.5098,-0.4893 0.6044,0.4965 1.3083,0.6953 2.2894,0.6993 1.0937,0.0044 1.9338,-0.3118 2.7825,-0.8346"/>
   </g>
   <g id="_188347048">
    <path id="_346964344" class="fil0 str1" d="M31.4049 47.8876c0.1337,0.1157 0.7377,0.4888 0.9401,0.6036 0.9121,0.5175 2.8646,0.5714 3.7919,0.0775 1.0466,-0.5575 1.4605,-0.7325 2.0841,-0.4343 0.4524,0.2163 0.5246,0.5683 1.5913,0.829 0.883,0.2158 1.8015,0.2156 2.6823,-0.1368 0.9487,-0.3796 1.597,-1.2392 2.5098,-0.4893 0.6044,0.4966 1.3082,0.6954 2.2894,0.6993 1.0937,0.0045 1.4776,0.0657 2.3263,-0.4571 1.5818,-0.9743 1.5999,-0.1274 2.6293,0.2729 0.628,0.3123 2.8633,0.262 3.5407,-0.072 0.3562,-0.1757 0.7809,-0.6363 1.1007,-0.7466 0.2823,-0.0972 0.5422,0.037 0.7445,0.1619"/>
    <path id="_346945552" class="fil0 str1" d="M57.4789 48.1359c0.1337,0.1157 0.7377,0.4888 0.9401,0.6036 0.9121,0.5175 2.8646,0.5714 3.7919,0.0775 1.0466,-0.5575 1.4605,-0.7325 2.0841,-0.4343 0.4524,0.2163 0.5246,0.5683 1.5913,0.829 0.883,0.2158 1.8015,0.2157 2.6823,-0.1367 0.9487,-0.3796 1.597,-1.2393 2.5098,-0.4894 0.6044,0.4966 1.3082,0.6954 2.2894,0.6994 1.0937,0.0044 1.4776,0.0656 2.3263,-0.4572 1.5818,-0.9743 1.5999,-0.1274 2.6293,0.273 0.628,0.3122 2.8633,0.2619 3.5407,-0.0721 0.3562,-0.1757 0.7809,-0.6363 1.1007,-0.7465 0.2823,-0.0972 0.5422,0.0369 0.7445,0.1619"/>
    <path id="_346945432" class="fil0 str1" d="M83.5529 48.3843c0.1337,0.1157 0.7377,0.4887 0.9401,0.6035 0.9121,0.5175 2.8646,0.5714 3.7919,0.0775 1.0466,-0.5575 1.4605,-0.7325 2.0841,-0.4343 0.4524,0.2163 0.5246,0.5683 1.5913,0.829 0.883,0.2158 1.8015,0.2157 2.6823,-0.1367 0.9487,-0.3796 1.597,-1.2393 2.5098,-0.4894 0.6044,0.4966 1.3082,0.6954 2.2894,0.6994 1.0937,0.0044 1.4776,0.0657 2.3263,-0.4572 1.5818,-0.9742 1.5999,-0.1274 2.6293,0.273 0.628,0.3122 2.8633,0.262 3.5407,-0.0721 0.3562,-0.1757 0.7809,-0.6363 1.1007,-0.7465 0.2823,-0.0972 0.5422,0.0369 0.7445,0.1619"/>
    <path id="_346944328" class="fil0 str1" d="M109.627 48.6326c0.1337,0.1157 0.7377,0.4887 0.9401,0.6035 0.9121,0.5175 2.8646,0.5714 3.7919,0.0775 1.0466,-0.5575 1.4605,-0.7325 2.0841,-0.4343 0.4524,0.2163 0.5246,0.5683 1.5913,0.829 0.883,0.2158 1.8015,0.2157 2.6823,-0.1367 0.9487,-0.3796 1.597,-1.2393 2.5098,-0.4893 0.6044,0.4965 1.3082,0.6953 2.2894,0.6993 1.0937,0.0045 1.4776,0.0657 2.3263,-0.4572 1.5818,-0.9742 1.5999,-0.1274 2.6293,0.273 0.628,0.3122 2.8633,0.262 3.5407,-0.0721 0.3562,-0.1757 0.7809,-0.6363 1.1007,-0.7465 0.2823,-0.0972 0.5422,0.0369 0.7445,0.1619"/>
    <path id="_346946152" class="fil0 str1" d="M135.701 48.8809c0.1337,0.1157 0.7377,0.4887 0.9401,0.6035 0.9121,0.5175 2.8646,0.5715 3.7919,0.0776 1.0466,-0.5575 1.4605,-0.7325 2.0841,-0.4344 0.4524,0.2163 0.5246,0.5683 1.5913,0.8291 0.883,0.2158 1.8015,0.2156 2.6823,-0.1368 0.9487,-0.3796 1.597,-1.2392 2.5098,-0.4893 0.6044,0.4965 1.3083,0.6953 2.2894,0.6993 1.0937,0.0044 1.9338,-0.3118 2.7825,-0.8346"/>
   </g>
   <g id="_346958416">
    <path id="_346960936" class="fil0 str1" d="M25.5995 44.9347c0.1337,0.1157 0.7377,0.4888 0.9401,0.6036 0.9121,0.5175 2.8646,0.5714 3.7919,0.0775 1.0466,-0.5575 1.4605,-0.7325 2.0841,-0.4343 0.4524,0.2163 0.5246,0.5683 1.5913,0.829 0.883,0.2158 1.8015,0.2157 2.6823,-0.1367 0.9487,-0.3796 1.597,-1.2393 2.5098,-0.4894 0.6044,0.4966 1.3082,0.6954 2.2894,0.6994 1.0937,0.0044 1.4776,0.0656 2.3263,-0.4572 1.5818,-0.9743 1.5999,-0.1274 2.6293,0.2729 0.628,0.3123 2.8633,0.262 3.5407,-0.072 0.3562,-0.1757 0.7809,-0.6363 1.1007,-0.7465 0.2823,-0.0972 0.5422,0.0369 0.7445,0.1619"/>
    <path id="_346960768" class="fil0 str1" d="M51.6735 45.1831c0.1337,0.1157 0.7377,0.4887 0.9401,0.6035 0.9121,0.5175 2.8646,0.5714 3.7919,0.0775 1.0466,-0.5575 1.4605,-0.7325 2.0841,-0.4343 0.4524,0.2163 0.5246,0.5683 1.5913,0.829 0.883,0.2158 1.8015,0.2157 2.6823,-0.1367 0.9487,-0.3796 1.597,-1.2393 2.5098,-0.4894 0.6044,0.4966 1.3082,0.6954 2.2894,0.6994 1.0937,0.0044 1.4776,0.0656 2.3263,-0.4572 1.5818,-0.9742 1.5999,-0.1274 2.6293,0.273 0.628,0.3122 2.8633,0.262 3.5407,-0.0721 0.3562,-0.1757 0.7809,-0.6363 1.1007,-0.7465 0.2823,-0.0972 0.5422,0.0369 0.7445,0.1619"/>
    <path id="_346942408" class="fil0 str1" d="M77.7475 45.4314c0.1337,0.1157 0.7377,0.4887 0.9401,0.6035 0.9121,0.5175 2.8646,0.5714 3.7919,0.0775 1.0466,-0.5575 1.4605,-0.7325 2.0841,-0.4343 0.4524,0.2163 0.5246,0.5683 1.5913,0.829 0.883,0.2158 1.8015,0.2157 2.6823,-0.1367 0.9487,-0.3796 1.597,-1.2393 2.5098,-0.4893 0.6044,0.4965 1.3082,0.6953 2.2894,0.6993 1.0937,0.0045 1.4776,0.0657 2.3263,-0.4572 1.5818,-0.9742 1.5999,-0.1274 2.6293,0.273 0.628,0.3122 2.8633,0.262 3.5407,-0.0721 0.3562,-0.1757 0.7809,-0.6363 1.1007,-0.7465 0.2823,-0.0972 0.5422,0.0369 0.7445,0.1619"/>
    <path id="_346948048" class="fil0 str1" d="M103.822 45.6797c0.1337,0.1157 0.7377,0.4887 0.9401,0.6035 0.9121,0.5175 2.8646,0.5714 3.7919,0.0776 1.0466,-0.5575 1.4605,-0.7325 2.0841,-0.4344 0.4524,0.2163 0.5246,0.5683 1.5913,0.8291 0.883,0.2158 1.8015,0.2156 2.6823,-0.1368 0.9487,-0.3796 1.597,-1.2393 2.5098,-0.4893 0.6044,0.4965 1.3082,0.6953 2.2894,0.6993 1.0937,0.0045 1.4776,0.0657 2.3263,-0.4572 1.5818,-0.9742 1.5999,-0.1273 2.6293,0.273 0.628,0.3122 2.8633,0.262 3.5407,-0.0721 0.3562,-0.1756 0.7809,-0.6363 1.1007,-0.7465 0.2823,-0.0972 0.5422,0.0369 0.7445,0.1619"/>
    <path id="_346945240" class="fil0 str1" d="M129.896 45.928c0.1337,0.1157 0.7377,0.4887 0.9401,0.6035 0.9121,0.5176 2.8646,0.5715 3.7919,0.0776 1.0466,-0.5575 1.4605,-0.7325 2.0841,-0.4344 0.4524,0.2163 0.5246,0.5683 1.5913,0.8291 0.883,0.2158 1.8015,0.2156 2.6823,-0.1368 0.9487,-0.3796 1.597,-1.2392 2.5098,-0.4893 0.6044,0.4965 1.3083,0.6953 2.2894,0.6993 1.0937,0.0044 1.9338,-0.3118 2.7825,-0.8346"/>
   </g>
   <g id="_188344312">
    <path id="_346958800" class="fil0 str1" d="M19.7941 41.9819c0.1337,0.1156 0.7377,0.4887 0.9401,0.6035 0.9121,0.5175 2.8646,0.5714 3.7919,0.0775 1.0466,-0.5575 1.4605,-0.7325 2.0841,-0.4343 0.4524,0.2163 0.5246,0.5683 1.5913,0.829 0.883,0.2158 1.8015,0.2157 2.6823,-0.1367 0.9487,-0.3796 1.597,-1.2393 2.5098,-0.4894 0.6044,0.4966 1.3082,0.6954 2.2894,0.6994 1.0937,0.0044 1.4776,0.0656 2.3263,-0.4572 1.5818,-0.9743 1.5999,-0.1274 2.6293,0.273 0.628,0.3122 2.8633,0.262 3.5407,-0.0721 0.3562,-0.1757 0.7809,-0.6363 1.1007,-0.7465 0.2823,-0.0972 0.5422,0.0369 0.7445,0.1619"/>
    <path id="_346946536" class="fil0 str1" d="M45.8681 42.2302c0.1337,0.1157 0.7377,0.4887 0.9401,0.6035 0.9121,0.5175 2.8646,0.5714 3.7919,0.0775 1.0466,-0.5575 1.4605,-0.7325 2.0841,-0.4343 0.4524,0.2163 0.5246,0.5683 1.5913,0.829 0.883,0.2158 1.8015,0.2157 2.6823,-0.1367 0.9487,-0.3796 1.597,-1.2393 2.5098,-0.4894 0.6044,0.4966 1.3082,0.6954 2.2894,0.6994 1.0937,0.0045 1.4776,0.0657 2.3263,-0.4572 1.5818,-0.9742 1.5999,-0.1274 2.6293,0.273 0.628,0.3122 2.8633,0.262 3.5407,-0.0721 0.3562,-0.1757 0.7809,-0.6363 1.1007,-0.7465 0.2823,-0.0972 0.5422,0.0369 0.7445,0.1619"/>
    <path id="_346947256" class="fil0 str1" d="M71.9421 42.4785c0.1337,0.1157 0.7377,0.4887 0.9401,0.6035 0.9121,0.5175 2.8646,0.5714 3.7919,0.0776 1.0466,-0.5575 1.4605,-0.7325 2.0841,-0.4344 0.4524,0.2163 0.5246,0.5683 1.5913,0.8291 0.883,0.2158 1.8015,0.2156 2.6823,-0.1368 0.9487,-0.3796 1.597,-1.2393 2.5098,-0.4893 0.6044,0.4965 1.3082,0.6953 2.2894,0.6993 1.0937,0.0045 1.4776,0.0657 2.3263,-0.4572 1.5818,-0.9742 1.5999,-0.1274 2.6293,0.273 0.628,0.3122 2.8633,0.262 3.5407,-0.0721 0.3562,-0.1756 0.7809,-0.6363 1.1007,-0.7465 0.2823,-0.0972 0.5422,0.0369 0.7445,0.1619"/>
    <path id="_346950976" class="fil0 str1" d="M98.0161 42.7268c0.1337,0.1157 0.7377,0.4887 0.9401,0.6035 0.9121,0.5176 2.8646,0.5715 3.7919,0.0776 1.0466,-0.5575 1.4605,-0.7325 2.0841,-0.4344 0.4524,0.2163 0.5246,0.5683 1.5913,0.8291 0.883,0.2158 1.8015,0.2156 2.6823,-0.1368 0.9487,-0.3796 1.597,-1.2392 2.5098,-0.4893 0.6044,0.4965 1.3082,0.6953 2.2894,0.6993 1.0937,0.0045 1.4776,0.0657 2.3263,-0.4571 1.5818,-0.9743 1.5999,-0.1274 2.6293,0.2729 0.628,0.3123 2.8633,0.262 3.5407,-0.0721 0.3562,-0.1756 0.7809,-0.6363 1.1007,-0.7465 0.2823,-0.0972 0.5422,0.0369 0.7445,0.1619"/>
    <path id="_346942432" class="fil0 str1" d="M124.09 42.9751c0.1337,0.1157 0.7377,0.4888 0.9401,0.6035 0.9121,0.5176 2.8646,0.5715 3.7919,0.0776 1.0466,-0.5575 1.4605,-0.7325 2.0841,-0.4344 0.4524,0.2163 0.5246,0.5683 1.5913,0.8291 0.883,0.2158 1.8015,0.2156 2.6823,-0.1368 0.9487,-0.3796 1.597,-1.2392 2.5098,-0.4893 0.6044,0.4965 1.3083,0.6953 2.2894,0.6993 1.0937,0.0044 1.9338,-0.3117 2.7825,-0.8346"/>
   </g>
   <g id="_346958752">
    <path id="_346962112" class="fil0 str1" d="M13.9887 39.029c0.1337,0.1157 0.7377,0.4887 0.9401,0.6035 0.9121,0.5175 2.8646,0.5714 3.7919,0.0775 1.0466,-0.5575 1.4605,-0.7325 2.0841,-0.4343 0.4524,0.2163 0.5246,0.5683 1.5913,0.829 0.883,0.2158 1.8015,0.2157 2.6823,-0.1367 0.9487,-0.3796 1.597,-1.2393 2.5098,-0.4894 0.6044,0.4966 1.3082,0.6954 2.2894,0.6994 1.0937,0.0044 1.4776,0.0657 2.3263,-0.4572 1.5818,-0.9742 1.5999,-0.1274 2.6293,0.273 0.628,0.3122 2.8633,0.262 3.5407,-0.0721 0.3562,-0.1757 0.7809,-0.6363 1.1007,-0.7465 0.2823,-0.0972 0.5422,0.0369 0.7445,0.1619"/>
    <path id="_346951336" class="fil0 str1" d="M40.0627 39.2773c0.1337,0.1157 0.7377,0.4887 0.9401,0.6035 0.9121,0.5175 2.8646,0.5714 3.7919,0.0776 1.0466,-0.5576 1.4605,-0.7325 2.0841,-0.4344 0.4524,0.2163 0.5246,0.5683 1.5913,0.829 0.883,0.2159 1.8015,0.2157 2.6823,-0.1367 0.9487,-0.3796 1.597,-1.2393 2.5098,-0.4893 0.6044,0.4965 1.3082,0.6953 2.2894,0.6993 1.0937,0.0045 1.4776,0.0657 2.3263,-0.4572 1.5818,-0.9742 1.5999,-0.1274 2.6293,0.273 0.628,0.3122 2.8633,0.262 3.5407,-0.0721 0.3562,-0.1757 0.7809,-0.6363 1.1007,-0.7465 0.2823,-0.0972 0.5422,0.0369 0.7445,0.1619"/>
    <path id="_346951456" class="fil0 str1" d="M66.1367 39.5256c0.1337,0.1157 0.7377,0.4887 0.9401,0.6035 0.9121,0.5175 2.8646,0.5715 3.7919,0.0776 1.0466,-0.5575 1.4605,-0.7325 2.0841,-0.4344 0.4524,0.2163 0.5246,0.5683 1.5913,0.8291 0.883,0.2158 1.8015,0.2156 2.6823,-0.1368 0.9487,-0.3796 1.597,-1.2392 2.5098,-0.4893 0.6044,0.4965 1.3082,0.6953 2.2894,0.6993 1.0937,0.0045 1.4776,0.0657 2.3263,-0.4572 1.5818,-0.9742 1.5999,-0.1273 2.6293,0.273 0.628,0.3123 2.8633,0.262 3.5407,-0.0721 0.3562,-0.1756 0.7809,-0.6363 1.1007,-0.7465 0.2823,-0.0972 0.5422,0.0369 0.7445,0.1619"/>
    <path id="_346950232" class="fil0 str1" d="M92.2107 39.7739c0.1337,0.1157 0.7377,0.4887 0.9401,0.6035 0.9121,0.5176 2.8646,0.5715 3.7919,0.0776 1.0466,-0.5575 1.4605,-0.7325 2.0841,-0.4344 0.4524,0.2163 0.5246,0.5683 1.5913,0.8291 0.883,0.2158 1.8015,0.2156 2.6823,-0.1368 0.9487,-0.3796 1.597,-1.2392 2.5098,-0.4893 0.6044,0.4965 1.3082,0.6953 2.2894,0.6993 1.0937,0.0045 1.4776,0.0657 2.3263,-0.4571 1.5818,-0.9743 1.5999,-0.1274 2.6293,0.2729 0.628,0.3123 2.8633,0.262 3.5407,-0.0721 0.3562,-0.1756 0.7809,-0.6363 1.1007,-0.7465 0.2823,-0.0972 0.5422,0.0369 0.7445,0.1619"/>
    <path id="_346949416" class="fil0 str1" d="M118.285 40.0222c0.1337,0.1157 0.7377,0.4888 0.9401,0.6035 0.9121,0.5176 2.8646,0.5715 3.7919,0.0776 1.0466,-0.5575 1.4605,-0.7325 2.0841,-0.4343 0.4524,0.2163 0.5246,0.5682 1.5913,0.829 0.883,0.2158 1.8015,0.2156 2.6823,-0.1368 0.9487,-0.3796 1.597,-1.2392 2.5098,-0.4893 0.6044,0.4965 1.3083,0.6953 2.2894,0.6993 1.0937,0.0044 1.9338,-0.3117 2.7825,-0.8346"/>
   </g>
   <line id="_424302192" class="fil0 str2" x1="20.8048" y1="39.2757" x2="91.8991" y2= "75.3404" />
   <line id="_424302552" class="fil0 str2" x1="27.108" y1="39.3066" x2="98.2023" y2= "75.3712" />
   <line id="_424302888" class="fil0 str2" x1="33.7879" y1="39.3232" x2="104.882" y2= "75.3879" />
   <line id="_424303224" class="fil0 str2" x1="40.4678" y1="39.3399" x2="111.562" y2= "75.4046" />
   <line id="_424303560" class="fil0 str2" x1="46.576" y1="39.4411" x2="117.67" y2= "75.5057" />
   <line id="_424303896" class="fil0 str2" x1="53.4343" y1="39.5512" x2="124.529" y2= "75.6159" />
   <line id="_424304232" class="fil0 str2" x1="59.8424" y1="39.674" x2="130.937" y2= "75.7387" />
   <line id="_424304568" class="fil0 str2" x1="66.3989" y1="39.692" x2="137.493" y2= "75.7567" />
   <line id="_424304904" class="fil0 str2" x1="72.7278" y1="39.7062" x2="143.822" y2= "75.7709" />
   <line id="_424305240" class="fil0 str2" x1="79.1596" y1="39.6507" x2="150.254" y2= "75.7153" />
   <line id="_424305576" class="fil0 str2" x1="85.817" y1="39.7112" x2="156.911" y2= "75.7759" />
   <line id="_424305912" class="fil0 str2" x1="92.1607" y1="39.7652" x2="163.255" y2= "75.8299" />
   <line id="_424306248" class="fil0 str2" x1="98.7261" y1="39.7711" x2="169.82" y2= "75.8358" />
   <line id="_424306584" class="fil0 str2" x1="105.075" y1="39.9151" x2="176.169" y2= "75.9798" />
   <line id="_424306920" class="fil0 str2" x1="111.695" y1="39.9158" x2="182.789" y2= "75.9805" />
   <line id="_424307256" class="fil0 str2" x1="117.563" y1="39.7738" x2="188.658" y2= "75.8385" />
   <line id="_424307592" class="fil0 str2" x1="123.771" y1="39.8154" x2="194.865" y2= "75.88" />
   <line id="_424307928" class="fil0 str2" x1="131.181" y1="39.9667" x2="202.275" y2= "76.0314" />
  </g>
 </g>
</svg>
