<?xml version="1.0" encoding="UTF-8"?>
<!DOCTYPE svg PUBLIC "-//W3C//DTD SVG 1.1//EN" "http://www.w3.org/Graphics/SVG/1.1/DTD/svg11.dtd">
<!-- Creator: CorelDRAW -->
<svg xmlns="http://www.w3.org/2000/svg" xml:space="preserve" width="210mm" height="297mm" style="shape-rendering:geometricPrecision; text-rendering:geometricPrecision; image-rendering:optimizeQuality; fill-rule:evenodd; clip-rule:evenodd"
viewBox="0 0 210 297"
 xmlns:xlink="http://www.w3.org/1999/xlink">
 <defs>
  <style type="text/css">
   <![CDATA[
    .str0 {stroke:#333333;stroke-width:0.5}
    .fil0 {fill:none}
    .fil1 {fill:#999999}
   ]]>
  </style>
 </defs>
 <g id="Слой_x0020_1">
  <metadata id="CorelCorpID_0Corel-Layer"/>
  <line class="fil0 str0" x1="29.9912" y1="19.6267" x2="30.7269" y2= "99.2354" />
  <line class="fil0 str0" x1="103.262" y1="71.5664" x2="102.79" y2= "99.9428" />
  <line class="fil0 str0" x1="194.4" y1="72.6573" x2="194.683" y2= "100.835" />
  <line class="fil0 str0" x1="6.0607" y1="99.0023" x2="204.84" y2= "100.937" />
  <g id="_362735240">
   <path id="_356441352" class="fil1 str0" d="M88.2574 73.5792l-75.4661 -69.2983 121.879 1.4581 70.2544 64.0145c-0.6212,0.0154 -0.9638,2.581 -1.661,2.6469 -0.8142,0.077 -1.9879,-2.3178 -2.7525,-1.8831 -0.6557,0.3727 -1.0467,1.8754 -1.7249,1.9774 -0.7917,0.1191 -1.732,-1.9848 -2.5043,-1.8026 -0.6177,0.1457 -1.0119,1.4861 -1.6288,1.5414 -0.7663,0.0688 -1.5107,-1.8224 -2.2769,-1.6974 -0.6121,0.0999 -1.1432,1.9699 -1.7575,2.0164 -0.9077,0.0686 -1.8786,-2.1884 -2.7772,-2.0743 -0.7412,0.0942 -1.0696,1.9606 -1.8169,2.017 -0.7174,0.054 -1.6601,-1.8911 -2.3772,-1.8277 -0.6456,0.057 -1.1475,1.5496 -1.7946,1.5897 -0.7441,0.0461 -1.402,-1.7145 -2.1493,-1.6602 -0.6428,0.0466 -1.2215,1.8156 -1.8674,1.8485 -0.7963,0.0404 -1.6669,-2.0487 -2.4648,-1.9985 -0.7168,0.0451 -1.5005,2.03 -2.2163,2.0691 -0.8145,0.0447 -1.5844,-1.8636 -2.3963,-1.8242 -0.5847,0.0284 -1.1107,1.5285 -1.6939,1.551 -0.7105,0.0273 -1.3541,-1.7709 -2.0623,-1.7398 -0.7171,0.0313 -1.2902,2.0221 -2.0056,2.0441 -0.8614,0.0267 -1.7221,-2.121 -2.5804,-2.0902 -0.7871,0.0281 -1.2866,2.0462 -2.0724,2.0652 -0.8126,0.0196 -1.4712,-1.8624 -2.2831,-1.8419 -0.6579,0.0166 -1.2043,1.5734 -1.862,1.585 -0.6723,0.0118 -1.2901,-1.7702 -1.9624,-1.7578 -0.6266,0.0116 -1.2976,1.9462 -1.9239,1.953 -0.8382,0.0091 -1.7145,-1.9175 -2.5517,-1.9087 -0.7681,0.0081 -1.4153,1.974 -2.1828,1.9749 -0.6836,0.0008 -1.5107,-1.8464 -2.1934,-1.8467 -0.6439,-0.0001 -1.3324,1.4954 -1.9753,1.4907 -0.6211,-0.0045 -1.3069,-1.6522 -1.9269,-1.6581 -0.7661,-0.0073 -1.412,1.9038 -2.1765,1.8891 -0.8165,-0.0156 -1.5517,-1.9236 -2.3663,-1.9428 -0.7875,-0.0184 -1.3214,2.0976 -2.1076,2.0704 -0.7631,-0.0264 -1.6126,-1.8 -2.3742,-1.8313 -0.6729,-0.0276 -1.1857,1.5137 -1.8576,1.4795 -0.6439,-0.0327 -1.3098,-1.6221 -1.9527,-1.659 -0.6472,-0.0371 -1.293,1.986 -1.9391,1.9419 -0.7979,-0.0546 -1.7171,-1.9352 -2.5129,-1.9976 -0.7934,-0.0621 -1.4651,2.1429 -2.2565,2.0686 -0.7249,-0.068 -1.5095,-1.7575 -2.2325,-1.8339 -0.6961,-0.0735 -1.1475,1.5653 -1.8421,1.4815 -0.6643,-0.0801 -1.3691,-1.563 -2.0319,-1.6513 -0.7602,-0.1013 -1.3168,1.9847 -2.0753,1.8692 -0.7723,-0.1175 -1.5342,-1.8995 -2.3046,-2.0301 -0.7468,-0.1264 -1.526,2.3142 -2.2708,2.1718 -0.7065,-0.135 -1.4571,-1.6965 -2.1617,-1.8449 -0.7165,-0.1508 -1.3668,1.6548 -2.0814,1.4877 -0.5779,-0.1351 -1.1013,-1.4904 -1.6779,-1.6357 -0.7691,-0.1938 -1.5619,2.2107 -2.3286,1.9953 -0.7483,-0.2102 -1.4187,-1.5775 -2.1647,-1.8079 -0.8426,-0.2602 -1.5266,2.5866 -2.3663,2.2958 -0.7042,-0.2437 -1.3636,-1.3672 -2.0658,-1.6325 -0.8534,-0.3222 -1.4368,2.0897 -2.2873,1.7314 -0.9273,-0.3907 -1.3738,-1.2625 -2.3578,-1.1476l-1.4336 1.599 0.0004 0z"/>
   <line id="_356422704" class="fil0 str0" x1="46.6099" y1="4.6858" x2="122.943" y2= "72.1641" />
   <line id="_356422344" class="fil0 str0" x1="76.3679" y1="5.0416" x2="150.122" y2= "70.655" />
   <line id="_356422008" class="fil0 str0" x1="106.146" y1="5.3976" x2="180.095" y2= "70.6615" />
   <g id="_187781112">
    <path id="_187782000" class="fil0 str0" d="M38.5949 28.4051c2.5697,-4.4132 2.8893,1.7296 5.0196,-1.3579 0.9213,-1.3349 1.4274,-0.8457 2.119,0.0261 1.0011,1.2623 1.3921,1.0064 2.396,-0.8466 0.4402,-0.8125 1.3136,-1.0016 1.9314,0.0909 0.4913,0.8688 0.8877,0.8704 1.3212,0.9694"/>
    <path id="_186183744" class="fil0 str0" d="M51.2616 27.1951c0.8478,0.5265 1.1719,-0.8891 1.4414,-1.2656 1.6057,-2.2428 1.7297,2.9569 3.6871,0.3153 0.9211,-1.2429 1.4274,-0.7036 2.119,0.2374 1.0011,1.3621 1.3921,1.145 2.396,-0.6077 0.4402,-0.7687 1.3136,-0.8708 1.9314,0.2833 0.4913,0.9179 0.8877,0.9589 1.3212,1.1012"/>
    <path id="_187781088" class="fil0 str0" d="M64.0393 27.1904c0.8478,0.5265 1.1719,-0.8891 1.4414,-1.2656 1.6057,-2.2428 1.7297,2.9569 3.6871,0.3153 0.9211,-1.2429 1.4274,-0.7036 2.119,0.2374 1.0011,1.3621 1.3921,1.1451 2.396,-0.6077 0.4402,-0.7687 1.3136,-0.8707 1.9314,0.2833 0.4913,0.918 0.8877,0.959 1.3212,1.1012"/>
    <path id="_187786392" class="fil0 str0" d="M76.817 27.1858c0.8478,0.5264 1.1719,-0.8892 1.4414,-1.2657 1.6057,-2.2427 1.7297,2.9569 3.6871,0.3153 0.9211,-1.2428 1.4274,-0.7035 2.119,0.2374 1.0011,1.3621 1.3921,1.1451 2.396,-0.6077 0.4402,-0.7687 1.3136,-0.8707 1.9314,0.2834 0.4913,0.9179 0.8877,0.9589 1.3212,1.1012"/>
    <path id="_187784232" class="fil0 str0" d="M89.5947 27.1811c0.8478,0.5265 1.1719,-0.8891 1.4414,-1.2656 1.6057,-2.2428 1.7297,2.9569 3.6871,0.3153 0.9211,-1.2429 1.4274,-0.7036 2.119,0.2374 1.0011,1.362 1.3921,1.145 2.396,-0.6078 0.4402,-0.7686 1.3136,-0.8707 1.9314,0.2834 0.4913,0.9179 0.8877,0.9589 1.3212,1.1012"/>
    <path id="_187783224" class="fil0 str0" d="M102.372 27.1764c0.8478,0.5265 1.1719,-0.8891 1.4414,-1.2656 1.6057,-2.2428 1.7297,2.9569 3.6871,0.3153 0.9211,-1.2429 1.4274,-0.7036 2.119,0.2374 1.0011,1.3621 1.3921,1.145 2.396,-0.6077 0.4402,-0.7687 1.3136,-0.8708 1.9314,0.2833 0.4913,0.9179 0.8877,0.9589 1.3212,1.1012"/>
    <path id="_187780992" class="fil0 str0" d="M115.15 27.1717c0.8478,0.5265 1.1719,-0.8891 1.4414,-1.2656 1.6057,-2.2428 1.7297,2.9569 3.6871,0.3153 0.9211,-1.2428 1.4274,-0.7036 2.119,0.2374 1.0011,1.3621 1.3921,1.1451 2.396,-0.6077 0.4402,-0.7687 1.3136,-0.8707 1.9314,0.2834 0.4913,0.9179 0.8877,0.9589 1.3212,1.1011"/>
    <path id="_187783080" class="fil0 str0" d="M127.928 27.1671c0.8478,0.5264 1.1719,-0.8892 1.4414,-1.2657 1.6057,-2.2427 1.7297,2.9569 3.6871,0.3154 0.9211,-1.2429 1.4274,-0.7036 2.119,0.2373 1.0011,1.3621 1.3921,1.1451 2.396,-0.6077 0.4402,-0.7687 1.3136,-0.8707 1.9314,0.2834 0.4913,0.9179 0.8877,0.9589 1.3212,1.1012"/>
    <path id="_187784112" class="fil0 str0" d="M140.706 27.1624c0.8478,0.5265 1.1719,-0.8891 1.4414,-1.2656 1.6057,-2.2428 1.7297,2.9569 3.6871,0.3153 0.9211,-1.2429 1.4274,-0.7036 2.119,0.2374 1.0011,1.3621 1.3921,1.145 2.396,-0.6077 0.4402,-0.7687 1.3136,-0.8708 1.9314,0.2833 0.4913,0.9179 0.8877,0.9589 1.3212,1.1012"/>
    <path id="_186185952" class="fil0 str0" d="M153.483 27.1577c0.8478,0.5265 1.3141,-2.6265 1.7794,-2.5783"/>
   </g>
   <g id="_187780872">
    <path id="_187782408" class="fil0 str0" d="M63.2248 51.171c2.5697,-4.4132 2.8893,1.7295 5.0196,-1.3579 0.9213,-1.3349 1.4274,-0.8457 2.119,0.0261 1.0011,1.2623 1.3921,1.0064 2.396,-0.8466 0.4402,-0.8126 1.3136,-1.0016 1.9314,0.0909 0.4913,0.8687 0.8877,0.8704 1.3212,0.9694"/>
    <path id="_187782312" class="fil0 str0" d="M75.8915 49.961c0.8478,0.5265 1.1719,-0.8891 1.4414,-1.2656 1.6057,-2.2428 1.7297,2.9568 3.6871,0.3153 0.9211,-1.2429 1.4274,-0.7036 2.119,0.2374 1.0011,1.362 1.3921,1.145 2.396,-0.6078 0.4402,-0.7686 1.3136,-0.8707 1.9314,0.2834 0.4913,0.9179 0.8877,0.9589 1.3212,1.1012"/>
    <path id="_187784328" class="fil0 str0" d="M88.6692 49.9563c0.8478,0.5265 1.1719,-0.8891 1.4414,-1.2656 1.6057,-2.2428 1.7297,2.9569 3.6871,0.3153 0.9211,-1.2429 1.4274,-0.7036 2.119,0.2374 1.0011,1.3621 1.3921,1.145 2.396,-0.6077 0.4402,-0.7687 1.3136,-0.8708 1.9314,0.2833 0.4913,0.9179 0.8877,0.9589 1.3212,1.1012"/>
    <path id="_187788792" class="fil0 str0" d="M101.447 49.9516c0.8478,0.5265 1.1719,-0.8891 1.4414,-1.2656 1.6057,-2.2428 1.7297,2.9569 3.6871,0.3153 0.9211,-1.2428 1.4274,-0.7036 2.119,0.2374 1.0011,1.3621 1.3921,1.1451 2.396,-0.6077 0.4402,-0.7687 1.3136,-0.8707 1.9314,0.2834 0.4913,0.9179 0.8877,0.9589 1.3212,1.1011"/>
    <path id="_187787064" class="fil0 str0" d="M114.225 49.947c0.8478,0.5264 1.1719,-0.8892 1.4414,-1.2657 1.6057,-2.2427 1.7297,2.9569 3.6871,0.3154 0.9211,-1.2429 1.4274,-0.7036 2.119,0.2373 1.0011,1.3621 1.3921,1.1451 2.396,-0.6077 0.4402,-0.7687 1.3136,-0.8707 1.9314,0.2834 0.4913,0.9179 0.8877,0.9589 1.3212,1.1012"/>
    <path id="_187786368" class="fil0 str0" d="M127.002 49.9423c0.8478,0.5265 1.1719,-0.8891 1.4414,-1.2656 1.6057,-2.2428 1.7297,2.9569 3.6871,0.3153 0.9211,-1.2429 1.4274,-0.7036 2.119,0.2374 1.0011,1.3621 1.3921,1.145 2.396,-0.6077 0.4402,-0.7687 1.3136,-0.8708 1.9314,0.2833 0.4913,0.9179 0.8877,0.9589 1.3212,1.1012"/>
    <path id="_187788384" class="fil0 str0" d="M139.78 49.9376c0.8478,0.5265 1.1719,-0.8891 1.4414,-1.2656 1.6057,-2.2428 1.7297,2.9569 3.6871,0.3153 0.9211,-1.2429 1.4274,-0.7036 2.119,0.2374 1.0011,1.3621 1.3921,1.145 2.396,-0.6077 0.4402,-0.7687 1.3136,-0.8708 1.9314,0.2833 0.4913,0.9179 0.8877,0.9589 1.3212,1.1012"/>
    <path id="_187787088" class="fil0 str0" d="M152.558 49.9329c0.8478,0.5265 1.1719,-0.8891 1.4414,-1.2656 1.6057,-2.2427 1.7297,2.9569 3.6871,0.3153 0.9211,-1.2428 1.4274,-0.7035 2.119,0.2374 1.0011,1.3621 1.3921,1.1451 2.396,-0.6077 0.4402,-0.7687 1.3136,-0.8707 1.9314,0.2834 0.4913,0.9179 0.8877,0.9589 1.3212,1.1012"/>
    <path id="_187783872" class="fil0 str0" d="M165.335 49.9283c0.8478,0.5264 1.1719,-0.8891 1.4414,-1.2657 1.6057,-2.2427 1.7297,2.9569 3.6871,0.3154 0.9211,-1.2429 1.4274,-0.7036 2.119,0.2374 1.0011,1.362 1.3921,1.145 2.396,-0.6078 0.4402,-0.7687 1.3136,-0.8707 1.9314,0.2834 0.4913,0.9179 0.8877,0.9589 1.3212,1.1012"/>
    <path id="_187787760" class="fil0 str0" d="M178.113 49.9236c0.8478,0.5265 1.3141,-2.6265 1.7794,-2.5783"/>
   </g>
  </g>
 </g>
</svg>
