<?xml version="1.0" encoding="UTF-8"?>
<!DOCTYPE svg PUBLIC "-//W3C//DTD SVG 1.1//EN" "http://www.w3.org/Graphics/SVG/1.1/DTD/svg11.dtd">
<!-- Creator: CorelDRAW -->
<svg xmlns="http://www.w3.org/2000/svg" xml:space="preserve" width="210mm" height="297mm" style="shape-rendering:geometricPrecision; text-rendering:geometricPrecision; image-rendering:optimizeQuality; fill-rule:evenodd; clip-rule:evenodd"
viewBox="0 0 210 297"
 xmlns:xlink="http://www.w3.org/1999/xlink">
 <defs>
  <style type="text/css">
   <![CDATA[
    .str2 {stroke:#333333;stroke-width:0.2}
    .str1 {stroke:#2B2A29;stroke-width:0.5}
    .str0 {stroke:#333333;stroke-width:0.5}
    .fil0 {fill:none}
    .fil1 {fill:#B32E37}
   ]]>
  </style>
 </defs>
 <g id="Слой_x0020_1">
  <metadata id="CorelCorpID_0Corel-Layer"/>
  <line class="fil0 str0" x1="26.7939" y1="27.8542" x2="27.5296" y2= "100.81" />
  <line class="fil0 str0" x1="100.06" y1="75.0997" x2="99.5926" y2= "101.518" />
  <line class="fil0 str0" x1="191.181" y1="75.834" x2="191.485" y2= "102.41" />
  <line class="fil0 str0" x1="2.8634" y1="100.577" x2="201.642" y2= "102.512" />
  <g id="_424308792">
   <polygon id="_422748368" class="fil1 str0" points="9.594,13.562 85.0596,74.862 206.725,75.9009 134.359,14.247 "/>
   <polygon id="_196247200" class="fil1 str0" points="9.594,13.562 12.4388,15.8728 137.389,16.828 134.359,14.247 "/>
   <g id="_346964824">
    <path id="_188344768" class="fil0 str1" d="M77.8481 68.7641c0.1337,0.186 0.7377,0.7857 0.9401,0.9702 0.9121,0.832 2.8646,0.9187 3.7919,0.1247 1.0466,-0.8962 1.4605,-1.1775 2.0841,-0.6982 0.4524,0.3477 0.5246,0.9135 1.5913,1.3327 0.883,0.3469 1.8015,0.3467 2.6823,-0.2198 0.9487,-0.6103 1.597,-1.9922 2.5098,-0.7867 0.6044,0.7983 1.3082,1.1178 2.2894,1.1242 1.0937,0.0072 1.4776,0.1056 2.3263,-0.7349 1.5818,-1.5662 1.5999,-0.2048 2.6293,0.4388 0.628,0.502 2.8633,0.4212 3.5407,-0.1158 0.3562,-0.2824 0.7809,-1.0229 1.1007,-1.2001 0.2823,-0.1563 0.5422,0.0593 0.7445,0.2602"/>
    <path id="_188343352" class="fil0 str1" d="M103.922 69.1633c0.1337,0.186 0.7377,0.7857 0.9401,0.9702 0.9121,0.832 2.8646,0.9187 3.7919,0.1247 1.0466,-0.8962 1.4605,-1.1776 2.0841,-0.6983 0.4524,0.3478 0.5246,0.9136 1.5913,1.3328 0.883,0.3469 1.8015,0.3466 2.6823,-0.2199 0.9487,-0.6102 1.597,-1.9921 2.5098,-0.7866 0.6044,0.7982 1.3082,1.1178 2.2894,1.1242 1.0937,0.0072 1.4776,0.1056 2.3263,-0.7349 1.5818,-1.5662 1.5999,-0.2048 2.6293,0.4388 0.628,0.502 2.8633,0.4212 3.5407,-0.1159 0.3562,-0.2823 0.7809,-1.0229 1.1007,-1.2 0.2823,-0.1563 0.5422,0.0593 0.7445,0.2602"/>
    <path id="_346964440" class="fil0 str1" d="M129.996 69.5625c0.1337,0.186 0.7377,0.7857 0.9401,0.9702 0.9121,0.832 2.8646,0.9186 3.7919,0.1247 1.0466,-0.8963 1.4605,-1.1776 2.0841,-0.6983 0.4524,0.3478 0.5246,0.9136 1.5913,1.3328 0.883,0.3469 1.8015,0.3466 2.6823,-0.2199 0.9487,-0.6102 1.597,-1.9922 2.5098,-0.7866 0.6044,0.7982 1.3082,1.1178 2.2894,1.1242 1.0937,0.0072 1.4776,0.1056 2.3263,-0.7349 1.5818,-1.5662 1.5999,-0.2048 2.6293,0.4388 0.628,0.502 2.8633,0.4212 3.5407,-0.1159 0.3562,-0.2824 0.7809,-1.0229 1.1007,-1.2001 0.2823,-0.1562 0.5422,0.0594 0.7445,0.2603"/>
    <path id="_188342920" class="fil0 str1" d="M156.07 69.9617c0.1337,0.186 0.7377,0.7857 0.9401,0.9702 0.9121,0.832 2.8646,0.9186 3.7919,0.1247 1.0466,-0.8963 1.4605,-1.1776 2.0841,-0.6983 0.4524,0.3477 0.5246,0.9136 1.5913,1.3328 0.883,0.3469 1.8015,0.3466 2.6823,-0.2199 0.9487,-0.6102 1.597,-1.9922 2.5098,-0.7866 0.6044,0.7982 1.3082,1.1178 2.2894,1.1242 1.0937,0.0072 1.4776,0.1056 2.3263,-0.7349 1.5818,-1.5662 1.5999,-0.2048 2.6293,0.4388 0.628,0.5019 2.8633,0.4211 3.5407,-0.1159 0.3562,-0.2824 0.7809,-1.0229 1.1007,-1.2001 0.2823,-0.1562 0.5422,0.0594 0.7445,0.2603"/>
    <path id="_346960864" class="fil0 str1" d="M182.144 70.3608c0.1337,0.186 0.7377,0.7857 0.9401,0.9703 0.9121,0.8319 2.8646,0.9186 3.7919,0.1246 1.0466,-0.8962 1.4605,-1.1775 2.0841,-0.6982 0.4524,0.3477 0.5246,0.9136 1.5913,1.3327 0.883,0.347 1.8015,0.3467 2.6823,-0.2198 0.9487,-0.6103 1.597,-1.9922 2.5098,-0.7867 0.6044,0.7983 1.3083,1.1179 2.2894,1.1243 1.0937,0.007 1.9338,-0.5012 2.7825,-1.3417"/>
   </g>
   <g id="_188349808">
    <path id="_188344240" class="fil0 str1" d="M72.0427 64.0171c0.1337,0.186 0.7377,0.7857 0.9401,0.9703 0.9121,0.8319 2.8646,0.9186 3.7919,0.1246 1.0466,-0.8962 1.4605,-1.1775 2.0841,-0.6982 0.4524,0.3477 0.5246,0.9135 1.5913,1.3327 0.883,0.3469 1.8015,0.3467 2.6823,-0.2198 0.9487,-0.6103 1.597,-1.9922 2.5098,-0.7867 0.6044,0.7983 1.3082,1.1178 2.2894,1.1242 1.0937,0.0072 1.4776,0.1056 2.3263,-0.7349 1.5818,-1.5662 1.5999,-0.2047 2.6293,0.4388 0.628,0.502 2.8633,0.4212 3.5407,-0.1158 0.3562,-0.2824 0.7809,-1.0229 1.1007,-1.2001 0.2823,-0.1563 0.5422,0.0593 0.7445,0.2602"/>
    <path id="_346961248" class="fil0 str1" d="M98.1167 64.4163c0.1337,0.186 0.7377,0.7857 0.9401,0.9702 0.9121,0.832 2.8646,0.9187 3.7919,0.1247 1.0466,-0.8962 1.4605,-1.1776 2.0841,-0.6982 0.4524,0.3477 0.5246,0.9135 1.5913,1.3327 0.883,0.3469 1.8015,0.3467 2.6823,-0.2199 0.9487,-0.6102 1.597,-1.9921 2.5098,-0.7866 0.6044,0.7982 1.3082,1.1178 2.2894,1.1242 1.0937,0.0072 1.4776,0.1056 2.3263,-0.7349 1.5818,-1.5662 1.5999,-0.2048 2.6293,0.4388 0.628,0.502 2.8633,0.4212 3.5407,-0.1159 0.3562,-0.2823 0.7809,-1.0228 1.1007,-1.2 0.2823,-0.1563 0.5422,0.0593 0.7445,0.2602"/>
    <path id="_346961056" class="fil0 str1" d="M124.191 64.8155c0.1337,0.186 0.7377,0.7857 0.9401,0.9702 0.9121,0.832 2.8646,0.9186 3.7919,0.1247 1.0466,-0.8963 1.4605,-1.1776 2.0841,-0.6983 0.4524,0.3478 0.5246,0.9136 1.5913,1.3328 0.883,0.3469 1.8015,0.3466 2.6823,-0.2199 0.9487,-0.6102 1.597,-1.9922 2.5098,-0.7866 0.6044,0.7982 1.3082,1.1178 2.2894,1.1242 1.0937,0.0072 1.4776,0.1056 2.3263,-0.7349 1.5818,-1.5662 1.5999,-0.2048 2.6293,0.4388 0.628,0.502 2.8633,0.4212 3.5407,-0.1159 0.3562,-0.2824 0.7809,-1.0229 1.1007,-1.2001 0.2823,-0.1562 0.5422,0.0594 0.7445,0.2603"/>
    <path id="_346964248" class="fil0 str1" d="M150.265 65.2147c0.1337,0.186 0.7377,0.7857 0.9401,0.9702 0.9121,0.832 2.8646,0.9186 3.7919,0.1247 1.0466,-0.8963 1.4605,-1.1776 2.0841,-0.6983 0.4524,0.3477 0.5246,0.9136 1.5913,1.3328 0.883,0.3469 1.8015,0.3466 2.6823,-0.2199 0.9487,-0.6102 1.597,-1.9922 2.5098,-0.7866 0.6044,0.7982 1.3082,1.1178 2.2894,1.1242 1.0937,0.0072 1.4776,0.1056 2.3263,-0.7349 1.5818,-1.5662 1.5999,-0.2048 2.6293,0.4388 0.628,0.502 2.8633,0.4212 3.5407,-0.1159 0.3562,-0.2824 0.7809,-1.0229 1.1007,-1.2001 0.2823,-0.1562 0.5422,0.0594 0.7445,0.2603"/>
    <path id="_188348296" class="fil0 str1" d="M176.339 65.6139c0.1337,0.1859 0.7377,0.7857 0.9401,0.9702 0.9121,0.8319 2.8646,0.9186 3.7919,0.1246 1.0466,-0.8962 1.4605,-1.1775 2.0841,-0.6982 0.4524,0.3477 0.5246,0.9136 1.5913,1.3327 0.883,0.347 1.8015,0.3467 2.6823,-0.2198 0.9487,-0.6102 1.597,-1.9922 2.5098,-0.7866 0.6044,0.7982 1.3083,1.1178 2.2894,1.1242 1.0937,0.007 1.9338,-0.5012 2.7825,-1.3417"/>
   </g>
   <g id="_188347072">
    <path id="_346956064" class="fil0 str1" d="M66.2373 59.2701c0.1337,0.186 0.7377,0.7857 0.9401,0.9703 0.9121,0.8319 2.8646,0.9186 3.7919,0.1246 1.0466,-0.8962 1.4605,-1.1775 2.0841,-0.6982 0.4524,0.3477 0.5246,0.9135 1.5913,1.3327 0.883,0.3469 1.8015,0.3467 2.6823,-0.2198 0.9487,-0.6103 1.597,-1.9922 2.5098,-0.7867 0.6044,0.7983 1.3082,1.1179 2.2894,1.1243 1.0937,0.0072 1.4776,0.1055 2.3263,-0.7349 1.5818,-1.5662 1.5999,-0.2048 2.6293,0.4387 0.628,0.502 2.8633,0.4212 3.5407,-0.1158 0.3562,-0.2824 0.7809,-1.0229 1.1007,-1.2001 0.2823,-0.1563 0.5422,0.0593 0.7445,0.2602"/>
    <path id="_188348080" class="fil0 str1" d="M92.3113 59.6693c0.1337,0.186 0.7377,0.7857 0.9401,0.9702 0.9121,0.832 2.8646,0.9187 3.7919,0.1247 1.0466,-0.8962 1.4605,-1.1775 2.0841,-0.6982 0.4524,0.3477 0.5246,0.9135 1.5913,1.3327 0.883,0.3469 1.8015,0.3467 2.6823,-0.2198 0.9487,-0.6103 1.597,-1.9922 2.5098,-0.7867 0.6044,0.7982 1.3082,1.1178 2.2894,1.1242 1.0937,0.0072 1.4776,0.1056 2.3263,-0.7349 1.5818,-1.5662 1.5999,-0.2048 2.6293,0.4388 0.628,0.502 2.8633,0.4212 3.5407,-0.1158 0.3562,-0.2824 0.7809,-1.0229 1.1007,-1.2001 0.2823,-0.1563 0.5422,0.0593 0.7445,0.2602"/>
    <path id="_188345560" class="fil0 str1" d="M118.385 60.0685c0.1337,0.186 0.7377,0.7857 0.9401,0.9702 0.9121,0.832 2.8646,0.9186 3.7919,0.1247 1.0466,-0.8962 1.4605,-1.1776 2.0841,-0.6983 0.4524,0.3478 0.5246,0.9136 1.5913,1.3328 0.883,0.3469 1.8015,0.3466 2.6823,-0.2199 0.9487,-0.6102 1.597,-1.9921 2.5098,-0.7866 0.6044,0.7982 1.3082,1.1178 2.2894,1.1242 1.0937,0.0072 1.4776,0.1056 2.3263,-0.7349 1.5818,-1.5662 1.5999,-0.2048 2.6293,0.4388 0.628,0.502 2.8633,0.4212 3.5407,-0.1159 0.3562,-0.2824 0.7809,-1.0229 1.1007,-1.2 0.2823,-0.1563 0.5422,0.0593 0.7445,0.2602"/>
    <path id="_346961632" class="fil0 str1" d="M144.459 60.4677c0.1337,0.186 0.7377,0.7857 0.9401,0.9702 0.9121,0.832 2.8646,0.9186 3.7919,0.1247 1.0466,-0.8963 1.4605,-1.1776 2.0841,-0.6983 0.4524,0.3477 0.5246,0.9136 1.5913,1.3328 0.883,0.3469 1.8015,0.3466 2.6823,-0.2199 0.9487,-0.6102 1.597,-1.9922 2.5098,-0.7866 0.6044,0.7982 1.3082,1.1178 2.2894,1.1242 1.0937,0.0072 1.4776,0.1056 2.3263,-0.7349 1.5818,-1.5662 1.5999,-0.2048 2.6293,0.4388 0.628,0.502 2.8633,0.4212 3.5407,-0.1159 0.3562,-0.2824 0.7809,-1.0229 1.1007,-1.2001 0.2823,-0.1562 0.5422,0.0594 0.7445,0.2603"/>
    <path id="_346961824" class="fil0 str1" d="M170.533 60.8669c0.1337,0.186 0.7377,0.7857 0.9401,0.9702 0.9121,0.832 2.8646,0.9186 3.7919,0.1246 1.0466,-0.8962 1.4605,-1.1775 2.0841,-0.6982 0.4524,0.3477 0.5246,0.9136 1.5913,1.3328 0.883,0.3469 1.8015,0.3466 2.6823,-0.2199 0.9487,-0.6102 1.597,-1.9922 2.5098,-0.7866 0.6044,0.7982 1.3083,1.1178 2.2894,1.1242 1.0937,0.007 1.9338,-0.5012 2.7825,-1.3417"/>
   </g>
   <g id="_188780680">
    <path id="_346962208" class="fil0 str1" d="M60.4319 54.5231c0.1337,0.186 0.7377,0.7857 0.9401,0.9703 0.9121,0.8319 2.8646,0.9186 3.7919,0.1246 1.0466,-0.8962 1.4605,-1.1775 2.0841,-0.6982 0.4524,0.3477 0.5246,0.9136 1.5913,1.3327 0.883,0.347 1.8015,0.3467 2.6823,-0.2198 0.9487,-0.6103 1.597,-1.9922 2.5098,-0.7867 0.6044,0.7983 1.3082,1.1179 2.2894,1.1243 1.0937,0.0072 1.4776,0.1056 2.3263,-0.7349 1.5818,-1.5662 1.5999,-0.2048 2.6293,0.4387 0.628,0.502 2.8633,0.4212 3.5407,-0.1158 0.3562,-0.2824 0.7809,-1.0229 1.1007,-1.2001 0.2823,-0.1563 0.5422,0.0593 0.7445,0.2603"/>
    <path id="_346962280" class="fil0 str1" d="M86.5059 54.9223c0.1337,0.186 0.7377,0.7857 0.9401,0.9702 0.9121,0.832 2.8646,0.9187 3.7919,0.1247 1.0466,-0.8962 1.4605,-1.1775 2.0841,-0.6982 0.4524,0.3477 0.5246,0.9135 1.5913,1.3327 0.883,0.3469 1.8015,0.3467 2.6823,-0.2198 0.9487,-0.6103 1.597,-1.9922 2.5098,-0.7867 0.6044,0.7983 1.3082,1.1178 2.2894,1.1242 1.0937,0.0072 1.4776,0.1056 2.3263,-0.7349 1.5818,-1.5662 1.5999,-0.2047 2.6293,0.4388 0.628,0.502 2.8633,0.4212 3.5407,-0.1158 0.3562,-0.2824 0.7809,-1.0229 1.1007,-1.2001 0.2823,-0.1563 0.5422,0.0593 0.7445,0.2602"/>
    <path id="_188348416" class="fil0 str1" d="M112.58 55.3215c0.1337,0.186 0.7377,0.7857 0.9401,0.9702 0.9121,0.832 2.8646,0.9187 3.7919,0.1247 1.0466,-0.8962 1.4605,-1.1776 2.0841,-0.6982 0.4524,0.3477 0.5246,0.9135 1.5913,1.3327 0.883,0.3469 1.8015,0.3466 2.6823,-0.2199 0.9487,-0.6102 1.597,-1.9921 2.5098,-0.7866 0.6044,0.7982 1.3082,1.1178 2.2894,1.1242 1.0937,0.0072 1.4776,0.1056 2.3263,-0.7349 1.5818,-1.5662 1.5999,-0.2048 2.6293,0.4388 0.628,0.502 2.8633,0.4212 3.5407,-0.1159 0.3562,-0.2823 0.7809,-1.0228 1.1007,-1.2 0.2823,-0.1563 0.5422,0.0593 0.7445,0.2602"/>
    <path id="_188348320" class="fil0 str1" d="M138.654 55.7207c0.1337,0.186 0.7377,0.7857 0.9401,0.9702 0.9121,0.832 2.8646,0.9186 3.7919,0.1247 1.0466,-0.8963 1.4605,-1.1776 2.0841,-0.6983 0.4524,0.3478 0.5246,0.9136 1.5913,1.3328 0.883,0.3469 1.8015,0.3466 2.6823,-0.2199 0.9487,-0.6102 1.597,-1.9922 2.5098,-0.7866 0.6044,0.7982 1.3082,1.1178 2.2894,1.1242 1.0937,0.0072 1.4776,0.1056 2.3263,-0.7349 1.5818,-1.5662 1.5999,-0.2048 2.6293,0.4388 0.628,0.502 2.8633,0.4212 3.5407,-0.1159 0.3562,-0.2824 0.7809,-1.0229 1.1007,-1.2001 0.2823,-0.1562 0.5422,0.0594 0.7445,0.2603"/>
    <path id="_188349472" class="fil0 str1" d="M164.728 56.1199c0.1337,0.186 0.7377,0.7857 0.9401,0.9702 0.9121,0.832 2.8646,0.9186 3.7919,0.1247 1.0466,-0.8963 1.4605,-1.1776 2.0841,-0.6983 0.4524,0.3477 0.5246,0.9136 1.5913,1.3328 0.883,0.3469 1.8015,0.3466 2.6823,-0.2199 0.9487,-0.6102 1.597,-1.9922 2.5098,-0.7866 0.6044,0.7982 1.3083,1.1178 2.2894,1.1242 1.0937,0.0071 1.9338,-0.5012 2.7825,-1.3417"/>
   </g>
   <g id="_346962016">
    <path id="_188345752" class="fil0 str1" d="M54.6265 49.7761c0.1337,0.186 0.7377,0.7857 0.9401,0.9703 0.9121,0.8319 2.8646,0.9186 3.7919,0.1246 1.0466,-0.8962 1.4605,-1.1775 2.0841,-0.6982 0.4524,0.3477 0.5246,0.9136 1.5913,1.3327 0.883,0.347 1.8015,0.3467 2.6823,-0.2198 0.9487,-0.6103 1.597,-1.9922 2.5098,-0.7866 0.6044,0.7982 1.3082,1.1178 2.2894,1.1242 1.0937,0.0072 1.4776,0.1056 2.3263,-0.7349 1.5818,-1.5662 1.5999,-0.2048 2.6293,0.4387 0.628,0.502 2.8633,0.4212 3.5407,-0.1158 0.3562,-0.2824 0.7809,-1.0229 1.1007,-1.2001 0.2823,-0.1563 0.5422,0.0593 0.7445,0.2603"/>
    <path id="_188342488" class="fil0 str1" d="M80.7005 50.1753c0.1337,0.186 0.7377,0.7857 0.9401,0.9703 0.9121,0.8319 2.8646,0.9186 3.7919,0.1246 1.0466,-0.8962 1.4605,-1.1775 2.0841,-0.6982 0.4524,0.3477 0.5246,0.9135 1.5913,1.3327 0.883,0.3469 1.8015,0.3467 2.6823,-0.2198 0.9487,-0.6103 1.597,-1.9922 2.5098,-0.7867 0.6044,0.7983 1.3082,1.1179 2.2894,1.1243 1.0937,0.0072 1.4776,0.1055 2.3263,-0.735 1.5818,-1.5661 1.5999,-0.2047 2.6293,0.4388 0.628,0.502 2.8633,0.4212 3.5407,-0.1158 0.3562,-0.2824 0.7809,-1.0229 1.1007,-1.2001 0.2823,-0.1563 0.5422,0.0593 0.7445,0.2602"/>
    <path id="_188343688" class="fil0 str1" d="M106.775 50.5745c0.1337,0.186 0.7377,0.7857 0.9401,0.9702 0.9121,0.832 2.8646,0.9187 3.7919,0.1247 1.0466,-0.8962 1.4605,-1.1775 2.0841,-0.6982 0.4524,0.3477 0.5246,0.9135 1.5913,1.3327 0.883,0.3469 1.8015,0.3467 2.6823,-0.2199 0.9487,-0.6102 1.597,-1.9921 2.5098,-0.7866 0.6044,0.7982 1.3082,1.1178 2.2894,1.1242 1.0937,0.0072 1.4776,0.1056 2.3263,-0.7349 1.5818,-1.5662 1.5999,-0.2048 2.6293,0.4388 0.628,0.502 2.8633,0.4212 3.5407,-0.1158 0.3562,-0.2824 0.7809,-1.0229 1.1007,-1.2001 0.2823,-0.1563 0.5422,0.0593 0.7445,0.2602"/>
    <path id="_188343136" class="fil0 str1" d="M132.849 50.9737c0.1337,0.186 0.7377,0.7857 0.9401,0.9702 0.9121,0.832 2.8646,0.9186 3.7919,0.1247 1.0466,-0.8962 1.4605,-1.1776 2.0841,-0.6983 0.4524,0.3478 0.5246,0.9136 1.5913,1.3328 0.883,0.3469 1.8015,0.3466 2.6823,-0.2199 0.9487,-0.6102 1.597,-1.9921 2.5098,-0.7866 0.6044,0.7982 1.3082,1.1178 2.2894,1.1242 1.0937,0.0072 1.4776,0.1056 2.3263,-0.7349 1.5818,-1.5662 1.5999,-0.2048 2.6293,0.4388 0.628,0.502 2.8633,0.4212 3.5407,-0.1159 0.3562,-0.2824 0.7809,-1.0229 1.1007,-1.2 0.2823,-0.1563 0.5422,0.0593 0.7445,0.2602"/>
    <path id="_188349088" class="fil0 str1" d="M158.923 51.3729c0.1337,0.186 0.7377,0.7857 0.9401,0.9702 0.9121,0.832 2.8646,0.9186 3.7919,0.1247 1.0466,-0.8963 1.4605,-1.1776 2.0841,-0.6983 0.4524,0.3477 0.5246,0.9136 1.5913,1.3328 0.883,0.3469 1.8015,0.3466 2.6823,-0.2199 0.9487,-0.6102 1.597,-1.9922 2.5098,-0.7866 0.6044,0.7982 1.3083,1.1178 2.2894,1.1242 1.0937,0.0071 1.9338,-0.5012 2.7825,-1.3417"/>
   </g>
   <g id="_188345176">
    <path id="_186197776" class="fil0 str1" d="M48.8211 45.0292c0.1337,0.1859 0.7377,0.7857 0.9401,0.9702 0.9121,0.8319 2.8646,0.9186 3.7919,0.1246 1.0466,-0.8962 1.4605,-1.1775 2.0841,-0.6982 0.4524,0.3477 0.5246,0.9136 1.5913,1.3327 0.883,0.347 1.8015,0.3467 2.6823,-0.2198 0.9487,-0.6102 1.597,-1.9922 2.5098,-0.7866 0.6044,0.7982 1.3082,1.1178 2.2894,1.1242 1.0937,0.0072 1.4776,0.1056 2.3263,-0.7349 1.5818,-1.5662 1.5999,-0.2048 2.6293,0.4388 0.628,0.5019 2.8633,0.4211 3.5407,-0.1159 0.3562,-0.2824 0.7809,-1.0229 1.1007,-1.2001 0.2823,-0.1562 0.5422,0.0593 0.7445,0.2603"/>
    <path id="_346945048" class="fil0 str1" d="M74.8951 45.4283c0.1337,0.186 0.7377,0.7857 0.9401,0.9703 0.9121,0.8319 2.8646,0.9186 3.7919,0.1246 1.0466,-0.8962 1.4605,-1.1775 2.0841,-0.6982 0.4524,0.3477 0.5246,0.9135 1.5913,1.3327 0.883,0.3469 1.8015,0.3467 2.6823,-0.2198 0.9487,-0.6103 1.597,-1.9922 2.5098,-0.7867 0.6044,0.7983 1.3082,1.1179 2.2894,1.1243 1.0937,0.0072 1.4776,0.1056 2.3263,-0.7349 1.5818,-1.5662 1.5999,-0.2048 2.6293,0.4387 0.628,0.502 2.8633,0.4212 3.5407,-0.1158 0.3562,-0.2824 0.7809,-1.0229 1.1007,-1.2001 0.2823,-0.1563 0.5422,0.0593 0.7445,0.2603"/>
    <path id="_346945720" class="fil0 str1" d="M100.969 45.8275c0.1337,0.186 0.7377,0.7857 0.9401,0.9702 0.9121,0.832 2.8646,0.9187 3.7919,0.1247 1.0466,-0.8962 1.4605,-1.1775 2.0841,-0.6982 0.4524,0.3477 0.5246,0.9135 1.5913,1.3327 0.883,0.3469 1.8015,0.3467 2.6823,-0.2198 0.9487,-0.6103 1.597,-1.9922 2.5098,-0.7867 0.6044,0.7983 1.3082,1.1178 2.2894,1.1242 1.0937,0.0072 1.4776,0.1056 2.3263,-0.7349 1.5818,-1.5662 1.5999,-0.2048 2.6293,0.4388 0.628,0.502 2.8633,0.4212 3.5407,-0.1158 0.3562,-0.2824 0.7809,-1.0229 1.1007,-1.2001 0.2823,-0.1563 0.5422,0.0593 0.7445,0.2602"/>
    <path id="_346941880" class="fil0 str1" d="M127.043 46.2267c0.1337,0.186 0.7377,0.7857 0.9401,0.9702 0.9121,0.832 2.8646,0.9187 3.7919,0.1247 1.0466,-0.8962 1.4605,-1.1776 2.0841,-0.6982 0.4524,0.3477 0.5246,0.9135 1.5913,1.3327 0.883,0.3469 1.8015,0.3466 2.6823,-0.2199 0.9487,-0.6102 1.597,-1.9921 2.5098,-0.7866 0.6044,0.7982 1.3082,1.1178 2.2894,1.1242 1.0937,0.0072 1.4776,0.1056 2.3263,-0.7349 1.5818,-1.5662 1.5999,-0.2048 2.6293,0.4388 0.628,0.502 2.8633,0.4212 3.5407,-0.1159 0.3562,-0.2823 0.7809,-1.0228 1.1007,-1.2 0.2823,-0.1563 0.5422,0.0593 0.7445,0.2602"/>
    <path id="_346944472" class="fil0 str1" d="M153.117 46.6259c0.1337,0.186 0.7377,0.7857 0.9401,0.9702 0.9121,0.832 2.8646,0.9186 3.7919,0.1247 1.0466,-0.8963 1.4605,-1.1776 2.0841,-0.6983 0.4524,0.3478 0.5246,0.9136 1.5913,1.3328 0.883,0.3469 1.8015,0.3466 2.6823,-0.2199 0.9487,-0.6102 1.597,-1.9922 2.5098,-0.7866 0.6044,0.7982 1.3083,1.1178 2.2894,1.1242 1.0937,0.0071 1.9338,-0.5012 2.7825,-1.3417"/>
   </g>
   <g id="_186203248">
    <path id="_346951096" class="fil0 str1" d="M43.0157 40.2822c0.1337,0.186 0.7377,0.7857 0.9401,0.9702 0.9121,0.832 2.8646,0.9186 3.7919,0.1247 1.0466,-0.8963 1.4605,-1.1776 2.0841,-0.6983 0.4524,0.3477 0.5246,0.9136 1.5913,1.3328 0.883,0.3469 1.8015,0.3466 2.6823,-0.2199 0.9487,-0.6102 1.597,-1.9922 2.5098,-0.7866 0.6044,0.7982 1.3082,1.1178 2.2894,1.1242 1.0937,0.0072 1.4776,0.1056 2.3263,-0.7349 1.5818,-1.5662 1.5999,-0.2048 2.6293,0.4388 0.628,0.5019 2.8633,0.4211 3.5407,-0.1159 0.3562,-0.2824 0.7809,-1.0229 1.1007,-1.2001 0.2823,-0.1562 0.5422,0.0594 0.7445,0.2603"/>
    <path id="_346944352" class="fil0 str1" d="M69.0897 40.6813c0.1337,0.186 0.7377,0.7857 0.9401,0.9703 0.9121,0.8319 2.8646,0.9186 3.7919,0.1246 1.0466,-0.8962 1.4605,-1.1775 2.0841,-0.6982 0.4524,0.3477 0.5246,0.9136 1.5913,1.3327 0.883,0.347 1.8015,0.3467 2.6823,-0.2198 0.9487,-0.6103 1.597,-1.9922 2.5098,-0.7867 0.6044,0.7983 1.3082,1.1179 2.2894,1.1243 1.0937,0.0072 1.4776,0.1056 2.3263,-0.7349 1.5818,-1.5662 1.5999,-0.2048 2.6293,0.4387 0.628,0.502 2.8633,0.4212 3.5407,-0.1158 0.3562,-0.2824 0.7809,-1.0229 1.1007,-1.2001 0.2823,-0.1563 0.5422,0.0593 0.7445,0.2603"/>
    <path id="_346946296" class="fil0 str1" d="M95.1637 41.0805c0.1337,0.186 0.7377,0.7857 0.9401,0.9703 0.9121,0.8319 2.8646,0.9186 3.7919,0.1246 1.0466,-0.8962 1.4605,-1.1775 2.0841,-0.6982 0.4524,0.3477 0.5246,0.9135 1.5913,1.3327 0.883,0.3469 1.8015,0.3467 2.6823,-0.2198 0.9487,-0.6103 1.597,-1.9922 2.5098,-0.7867 0.6044,0.7983 1.3082,1.1178 2.2894,1.1242 1.0937,0.0072 1.4776,0.1056 2.3263,-0.7349 1.5818,-1.5661 1.5999,-0.2047 2.6293,0.4388 0.628,0.502 2.8633,0.4212 3.5407,-0.1158 0.3562,-0.2824 0.7809,-1.0229 1.1007,-1.2001 0.2823,-0.1563 0.5422,0.0593 0.7445,0.2602"/>
    <path id="_346944280" class="fil0 str1" d="M121.238 41.4797c0.1337,0.186 0.7377,0.7857 0.9401,0.9702 0.9121,0.832 2.8646,0.9187 3.7919,0.1247 1.0466,-0.8962 1.4605,-1.1776 2.0841,-0.6982 0.4524,0.3477 0.5246,0.9135 1.5913,1.3327 0.883,0.3469 1.8015,0.3467 2.6823,-0.2199 0.9487,-0.6102 1.597,-1.9921 2.5098,-0.7866 0.6044,0.7982 1.3082,1.1178 2.2894,1.1242 1.0937,0.0072 1.4776,0.1056 2.3263,-0.7349 1.5818,-1.5662 1.5999,-0.2048 2.6293,0.4388 0.628,0.502 2.8633,0.4212 3.5407,-0.1159 0.3562,-0.2823 0.7809,-1.0228 1.1007,-1.2 0.2823,-0.1563 0.5422,0.0593 0.7445,0.2602"/>
    <path id="_346945456" class="fil0 str1" d="M147.312 41.8789c0.1337,0.186 0.7377,0.7857 0.9401,0.9702 0.9121,0.832 2.8646,0.9186 3.7919,0.1247 1.0466,-0.8962 1.4605,-1.1776 2.0841,-0.6983 0.4524,0.3478 0.5246,0.9136 1.5913,1.3328 0.883,0.3469 1.8015,0.3466 2.6823,-0.2199 0.9487,-0.6102 1.597,-1.9922 2.5098,-0.7866 0.6044,0.7982 1.3083,1.1178 2.2894,1.1242 1.0937,0.0071 1.9338,-0.5012 2.7825,-1.3417"/>
   </g>
   <g id="_346944952">
    <path id="_346948552" class="fil0 str1" d="M37.2103 35.5352c0.1337,0.186 0.7377,0.7857 0.9401,0.9702 0.9121,0.832 2.8646,0.9186 3.7919,0.1247 1.0466,-0.8963 1.4605,-1.1776 2.0841,-0.6983 0.4524,0.3477 0.5246,0.9136 1.5913,1.3328 0.883,0.3469 1.8015,0.3466 2.6823,-0.2199 0.9487,-0.6102 1.597,-1.9922 2.5098,-0.7866 0.6044,0.7982 1.3082,1.1178 2.2894,1.1242 1.0937,0.0072 1.4776,0.1056 2.3263,-0.7349 1.5818,-1.5662 1.5999,-0.2048 2.6293,0.4388 0.628,0.5019 2.8633,0.4212 3.5407,-0.1159 0.3562,-0.2824 0.7809,-1.0229 1.1007,-1.2001 0.2823,-0.1562 0.5422,0.0594 0.7445,0.2603"/>
    <path id="_346949032" class="fil0 str1" d="M63.2843 35.9344c0.1337,0.1859 0.7377,0.7857 0.9401,0.9702 0.9121,0.8319 2.8646,0.9186 3.7919,0.1246 1.0466,-0.8962 1.4605,-1.1775 2.0841,-0.6982 0.4524,0.3477 0.5246,0.9136 1.5913,1.3327 0.883,0.347 1.8015,0.3467 2.6823,-0.2198 0.9487,-0.6103 1.597,-1.9922 2.5098,-0.7866 0.6044,0.7982 1.3082,1.1178 2.2894,1.1242 1.0937,0.0072 1.4776,0.1056 2.3263,-0.7349 1.5818,-1.5662 1.5999,-0.2048 2.6293,0.4388 0.628,0.5019 2.8633,0.4211 3.5407,-0.1159 0.3562,-0.2824 0.7809,-1.0229 1.1007,-1.2001 0.2823,-0.1562 0.5422,0.0593 0.7445,0.2603"/>
    <path id="_346942768" class="fil0 str1" d="M89.3583 36.3335c0.1337,0.186 0.7377,0.7857 0.9401,0.9703 0.9121,0.8319 2.8646,0.9186 3.7919,0.1246 1.0466,-0.8962 1.4605,-1.1775 2.0841,-0.6982 0.4524,0.3477 0.5246,0.9135 1.5913,1.3327 0.883,0.3469 1.8015,0.3467 2.6823,-0.2198 0.9487,-0.6103 1.597,-1.9922 2.5098,-0.7867 0.6044,0.7983 1.3082,1.1179 2.2894,1.1243 1.0937,0.0072 1.4776,0.1056 2.3263,-0.7349 1.5818,-1.5662 1.5999,-0.2048 2.6293,0.4387 0.628,0.502 2.8633,0.4212 3.5407,-0.1158 0.3562,-0.2824 0.7809,-1.0229 1.1007,-1.2001 0.2823,-0.1563 0.5422,0.0593 0.7445,0.2602"/>
    <path id="_346942960" class="fil0 str1" d="M115.432 36.7327c0.1337,0.186 0.7377,0.7857 0.9401,0.9702 0.9121,0.832 2.8646,0.9187 3.7919,0.1247 1.0466,-0.8962 1.4605,-1.1775 2.0841,-0.6982 0.4524,0.3477 0.5246,0.9135 1.5913,1.3327 0.883,0.3469 1.8015,0.3467 2.6823,-0.2198 0.9487,-0.6103 1.597,-1.9922 2.5098,-0.7867 0.6044,0.7983 1.3082,1.1178 2.2894,1.1242 1.0937,0.0072 1.4776,0.1056 2.3263,-0.7349 1.5818,-1.5662 1.5999,-0.2048 2.6293,0.4388 0.628,0.502 2.8633,0.4212 3.5407,-0.1158 0.3562,-0.2824 0.7809,-1.0229 1.1007,-1.2001 0.2823,-0.1563 0.5422,0.0593 0.7445,0.2602"/>
    <path id="_346946824" class="fil0 str1" d="M141.506 37.1319c0.1337,0.186 0.7377,0.7857 0.9401,0.9702 0.9121,0.832 2.8646,0.9187 3.7919,0.1247 1.0466,-0.8962 1.4605,-1.1776 2.0841,-0.6982 0.4524,0.3477 0.5246,0.9135 1.5913,1.3327 0.883,0.3469 1.8015,0.3466 2.6823,-0.2199 0.9487,-0.6102 1.597,-1.9921 2.5098,-0.7866 0.6044,0.7982 1.3083,1.1178 2.2894,1.1242 1.0937,0.0071 1.9338,-0.5012 2.7825,-1.3417"/>
   </g>
   <g id="_188347048">
    <path id="_346964344" class="fil0 str1" d="M31.4049 30.7882c0.1337,0.186 0.7377,0.7857 0.9401,0.9702 0.9121,0.832 2.8646,0.9186 3.7919,0.1247 1.0466,-0.8963 1.4605,-1.1776 2.0841,-0.6983 0.4524,0.3477 0.5246,0.9136 1.5913,1.3328 0.883,0.3469 1.8015,0.3466 2.6823,-0.2199 0.9487,-0.6102 1.597,-1.9922 2.5098,-0.7866 0.6044,0.7982 1.3082,1.1178 2.2894,1.1242 1.0937,0.0072 1.4776,0.1056 2.3263,-0.7349 1.5818,-1.5662 1.5999,-0.2048 2.6293,0.4388 0.628,0.502 2.8633,0.4212 3.5407,-0.1159 0.3562,-0.2824 0.7809,-1.0229 1.1007,-1.2001 0.2823,-0.1562 0.5422,0.0594 0.7445,0.2603"/>
    <path id="_346945552" class="fil0 str1" d="M57.4789 31.1874c0.1337,0.186 0.7377,0.7857 0.9401,0.9702 0.9121,0.832 2.8646,0.9186 3.7919,0.1246 1.0466,-0.8962 1.4605,-1.1775 2.0841,-0.6982 0.4524,0.3477 0.5246,0.9136 1.5913,1.3328 0.883,0.3469 1.8015,0.3466 2.6823,-0.2199 0.9487,-0.6102 1.597,-1.9922 2.5098,-0.7866 0.6044,0.7982 1.3082,1.1178 2.2894,1.1242 1.0937,0.0072 1.4776,0.1056 2.3263,-0.7349 1.5818,-1.5662 1.5999,-0.2048 2.6293,0.4388 0.628,0.5019 2.8633,0.4211 3.5407,-0.1159 0.3562,-0.2824 0.7809,-1.0229 1.1007,-1.2001 0.2823,-0.1562 0.5422,0.0594 0.7445,0.2603"/>
    <path id="_346945432" class="fil0 str1" d="M83.5529 31.5865c0.1337,0.186 0.7377,0.7857 0.9401,0.9703 0.9121,0.8319 2.8646,0.9186 3.7919,0.1246 1.0466,-0.8962 1.4605,-1.1775 2.0841,-0.6982 0.4524,0.3477 0.5246,0.9136 1.5913,1.3327 0.883,0.347 1.8015,0.3467 2.6823,-0.2198 0.9487,-0.6103 1.597,-1.9922 2.5098,-0.7867 0.6044,0.7983 1.3082,1.1179 2.2894,1.1243 1.0937,0.0072 1.4776,0.1056 2.3263,-0.7349 1.5818,-1.5662 1.5999,-0.2048 2.6293,0.4387 0.628,0.502 2.8633,0.4212 3.5407,-0.1158 0.3562,-0.2824 0.7809,-1.0229 1.1007,-1.2001 0.2823,-0.1563 0.5422,0.0593 0.7445,0.2603"/>
    <path id="_346944328" class="fil0 str1" d="M109.627 31.9857c0.1337,0.186 0.7377,0.7857 0.9401,0.9703 0.9121,0.8319 2.8646,0.9186 3.7919,0.1246 1.0466,-0.8962 1.4605,-1.1775 2.0841,-0.6982 0.4524,0.3477 0.5246,0.9135 1.5913,1.3327 0.883,0.3469 1.8015,0.3467 2.6823,-0.2198 0.9487,-0.6103 1.597,-1.9922 2.5098,-0.7867 0.6044,0.7983 1.3082,1.1178 2.2894,1.1242 1.0937,0.0072 1.4776,0.1056 2.3263,-0.7349 1.5818,-1.5662 1.5999,-0.2047 2.6293,0.4388 0.628,0.502 2.8633,0.4212 3.5407,-0.1158 0.3562,-0.2824 0.7809,-1.0229 1.1007,-1.2001 0.2823,-0.1563 0.5422,0.0593 0.7445,0.2602"/>
    <path id="_346946152" class="fil0 str1" d="M135.701 32.3849c0.1337,0.186 0.7377,0.7857 0.9401,0.9702 0.9121,0.832 2.8646,0.9187 3.7919,0.1247 1.0466,-0.8962 1.4605,-1.1776 2.0841,-0.6982 0.4524,0.3477 0.5246,0.9135 1.5913,1.3327 0.883,0.3469 1.8015,0.3467 2.6823,-0.2199 0.9487,-0.6102 1.597,-1.9921 2.5098,-0.7866 0.6044,0.7982 1.3083,1.1178 2.2894,1.1242 1.0937,0.0071 1.9338,-0.5011 2.7825,-1.3416"/>
   </g>
   <g id="_346958416">
    <path id="_346960936" class="fil0 str1" d="M25.5995 26.0412c0.1337,0.186 0.7377,0.7857 0.9401,0.9702 0.9121,0.832 2.8646,0.9186 3.7919,0.1247 1.0466,-0.8963 1.4605,-1.1776 2.0841,-0.6983 0.4524,0.3478 0.5246,0.9136 1.5913,1.3328 0.883,0.3469 1.8015,0.3466 2.6823,-0.2199 0.9487,-0.6102 1.597,-1.9922 2.5098,-0.7866 0.6044,0.7982 1.3082,1.1178 2.2894,1.1242 1.0937,0.0072 1.4776,0.1056 2.3263,-0.7349 1.5818,-1.5662 1.5999,-0.2048 2.6293,0.4388 0.628,0.502 2.8633,0.4212 3.5407,-0.1159 0.3562,-0.2824 0.7809,-1.0229 1.1007,-1.2001 0.2823,-0.1562 0.5422,0.0594 0.7445,0.2603"/>
    <path id="_346960768" class="fil0 str1" d="M51.6735 26.4404c0.1337,0.186 0.7377,0.7857 0.9401,0.9702 0.9121,0.832 2.8646,0.9186 3.7919,0.1247 1.0466,-0.8963 1.4605,-1.1776 2.0841,-0.6983 0.4524,0.3477 0.5246,0.9136 1.5913,1.3328 0.883,0.3469 1.8015,0.3466 2.6823,-0.2199 0.9487,-0.6102 1.597,-1.9922 2.5098,-0.7866 0.6044,0.7982 1.3082,1.1178 2.2894,1.1242 1.0937,0.0072 1.4776,0.1056 2.3263,-0.7349 1.5818,-1.5662 1.5999,-0.2048 2.6293,0.4388 0.628,0.5019 2.8633,0.4212 3.5407,-0.1159 0.3562,-0.2824 0.7809,-1.0229 1.1007,-1.2001 0.2823,-0.1562 0.5422,0.0594 0.7445,0.2603"/>
    <path id="_346942408" class="fil0 str1" d="M77.7475 26.8396c0.1337,0.1859 0.7377,0.7857 0.9401,0.9702 0.9121,0.8319 2.8646,0.9186 3.7919,0.1246 1.0466,-0.8962 1.4605,-1.1775 2.0841,-0.6982 0.4524,0.3477 0.5246,0.9136 1.5913,1.3327 0.883,0.347 1.8015,0.3467 2.6823,-0.2198 0.9487,-0.6103 1.597,-1.9922 2.5098,-0.7866 0.6044,0.7982 1.3082,1.1178 2.2894,1.1242 1.0937,0.0072 1.4776,0.1056 2.3263,-0.7349 1.5818,-1.5662 1.5999,-0.2048 2.6293,0.4388 0.628,0.5019 2.8633,0.4211 3.5407,-0.1159 0.3562,-0.2824 0.7809,-1.0229 1.1007,-1.2001 0.2823,-0.1562 0.5422,0.0593 0.7445,0.2603"/>
    <path id="_346948048" class="fil0 str1" d="M103.822 27.2387c0.1337,0.186 0.7377,0.7857 0.9401,0.9703 0.9121,0.8319 2.8646,0.9186 3.7919,0.1246 1.0466,-0.8962 1.4605,-1.1775 2.0841,-0.6982 0.4524,0.3477 0.5246,0.9135 1.5913,1.3327 0.883,0.3469 1.8015,0.3467 2.6823,-0.2198 0.9487,-0.6103 1.597,-1.9922 2.5098,-0.7867 0.6044,0.7983 1.3082,1.1179 2.2894,1.1243 1.0937,0.0072 1.4776,0.1056 2.3263,-0.7349 1.5818,-1.5662 1.5999,-0.2048 2.6293,0.4387 0.628,0.502 2.8633,0.4212 3.5407,-0.1158 0.3562,-0.2824 0.7809,-1.0229 1.1007,-1.2001 0.2823,-0.1563 0.5422,0.0593 0.7445,0.2602"/>
    <path id="_346945240" class="fil0 str1" d="M129.896 27.6379c0.1337,0.186 0.7377,0.7857 0.9401,0.9702 0.9121,0.832 2.8646,0.9187 3.7919,0.1247 1.0466,-0.8962 1.4605,-1.1775 2.0841,-0.6982 0.4524,0.3477 0.5246,0.9135 1.5913,1.3327 0.883,0.3469 1.8015,0.3467 2.6823,-0.2198 0.9487,-0.6103 1.597,-1.9922 2.5098,-0.7867 0.6044,0.7983 1.3083,1.1178 2.2894,1.1242 1.0937,0.0071 1.9338,-0.5011 2.7825,-1.3416"/>
   </g>
   <g id="_188344312">
    <path id="_346958800" class="fil0 str1" d="M19.7941 21.2942c0.1337,0.186 0.7377,0.7857 0.9401,0.9702 0.9121,0.832 2.8646,0.9186 3.7919,0.1247 1.0466,-0.8962 1.4605,-1.1776 2.0841,-0.6983 0.4524,0.3478 0.5246,0.9136 1.5913,1.3328 0.883,0.3469 1.8015,0.3466 2.6823,-0.2199 0.9487,-0.6102 1.597,-1.9921 2.5098,-0.7866 0.6044,0.7982 1.3082,1.1178 2.2894,1.1242 1.0937,0.0072 1.4776,0.1056 2.3263,-0.7349 1.5818,-1.5662 1.5999,-0.2048 2.6293,0.4388 0.628,0.502 2.8633,0.4212 3.5407,-0.1159 0.3562,-0.2824 0.7809,-1.0229 1.1007,-1.2 0.2823,-0.1563 0.5422,0.0593 0.7445,0.2602"/>
    <path id="_346946536" class="fil0 str1" d="M45.8681 21.6934c0.1337,0.186 0.7377,0.7857 0.9401,0.9702 0.9121,0.832 2.8646,0.9186 3.7919,0.1247 1.0466,-0.8963 1.4605,-1.1776 2.0841,-0.6983 0.4524,0.3477 0.5246,0.9136 1.5913,1.3328 0.883,0.3469 1.8015,0.3466 2.6823,-0.2199 0.9487,-0.6102 1.597,-1.9922 2.5098,-0.7866 0.6044,0.7982 1.3082,1.1178 2.2894,1.1242 1.0937,0.0072 1.4776,0.1056 2.3263,-0.7349 1.5818,-1.5662 1.5999,-0.2048 2.6293,0.4388 0.628,0.502 2.8633,0.4212 3.5407,-0.1159 0.3562,-0.2824 0.7809,-1.0229 1.1007,-1.2001 0.2823,-0.1562 0.5422,0.0594 0.7445,0.2603"/>
    <path id="_346947256" class="fil0 str1" d="M71.9421 22.0926c0.1337,0.186 0.7377,0.7857 0.9401,0.9702 0.9121,0.8319 2.8646,0.9186 3.7919,0.1246 1.0466,-0.8962 1.4605,-1.1775 2.0841,-0.6982 0.4524,0.3477 0.5246,0.9136 1.5913,1.3328 0.883,0.3469 1.8015,0.3466 2.6823,-0.2199 0.9487,-0.6102 1.597,-1.9922 2.5098,-0.7866 0.6044,0.7982 1.3082,1.1178 2.2894,1.1242 1.0937,0.0072 1.4776,0.1056 2.3263,-0.7349 1.5818,-1.5662 1.5999,-0.2048 2.6293,0.4388 0.628,0.5019 2.8633,0.4211 3.5407,-0.1159 0.3562,-0.2824 0.7809,-1.0229 1.1007,-1.2001 0.2823,-0.1562 0.5422,0.0593 0.7445,0.2603"/>
    <path id="_346950976" class="fil0 str1" d="M98.0161 22.4917c0.1337,0.186 0.7377,0.7857 0.9401,0.9703 0.9121,0.8319 2.8646,0.9186 3.7919,0.1246 1.0466,-0.8962 1.4605,-1.1775 2.0841,-0.6982 0.4524,0.3477 0.5246,0.9136 1.5913,1.3327 0.883,0.347 1.8015,0.3467 2.6823,-0.2198 0.9487,-0.6103 1.597,-1.9922 2.5098,-0.7867 0.6044,0.7983 1.3082,1.1179 2.2894,1.1243 1.0937,0.0072 1.4776,0.1056 2.3263,-0.7349 1.5818,-1.5662 1.5999,-0.2048 2.6293,0.4387 0.628,0.502 2.8633,0.4212 3.5407,-0.1158 0.3562,-0.2824 0.7809,-1.0229 1.1007,-1.2001 0.2823,-0.1563 0.5422,0.0593 0.7445,0.2603"/>
    <path id="_346942432" class="fil0 str1" d="M124.09 22.8909c0.1337,0.186 0.7377,0.7857 0.9401,0.9703 0.9121,0.8319 2.8646,0.9186 3.7919,0.1246 1.0466,-0.8962 1.4605,-1.1775 2.0841,-0.6982 0.4524,0.3477 0.5246,0.9135 1.5913,1.3327 0.883,0.3469 1.8015,0.3467 2.6823,-0.2198 0.9487,-0.6103 1.597,-1.9922 2.5098,-0.7867 0.6044,0.7983 1.3083,1.1178 2.2894,1.1242 1.0937,0.0071 1.9338,-0.5011 2.7825,-1.3416"/>
   </g>
   <g id="_346958752">
    <path id="_346962112" class="fil0 str1" d="M13.9887 16.5472c0.1337,0.186 0.7377,0.7857 0.9401,0.9702 0.9121,0.832 2.8646,0.9187 3.7919,0.1247 1.0466,-0.8962 1.4605,-1.1776 2.0841,-0.6982 0.4524,0.3477 0.5246,0.9135 1.5913,1.3327 0.883,0.3469 1.8015,0.3466 2.6823,-0.2199 0.9487,-0.6102 1.597,-1.9921 2.5098,-0.7866 0.6044,0.7982 1.3082,1.1178 2.2894,1.1242 1.0937,0.0072 1.4776,0.1056 2.3263,-0.7349 1.5818,-1.5662 1.5999,-0.2048 2.6293,0.4388 0.628,0.502 2.8633,0.4212 3.5407,-0.1159 0.3562,-0.2823 0.7809,-1.0228 1.1007,-1.2 0.2823,-0.1563 0.5422,0.0593 0.7445,0.2602"/>
    <path id="_346951336" class="fil0 str1" d="M40.0627 16.9464c0.1337,0.186 0.7377,0.7857 0.9401,0.9702 0.9121,0.832 2.8646,0.9186 3.7919,0.1247 1.0466,-0.8963 1.4605,-1.1776 2.0841,-0.6983 0.4524,0.3478 0.5246,0.9136 1.5913,1.3328 0.883,0.3469 1.8015,0.3466 2.6823,-0.2199 0.9487,-0.6102 1.597,-1.9922 2.5098,-0.7866 0.6044,0.7982 1.3082,1.1178 2.2894,1.1242 1.0937,0.0072 1.4776,0.1056 2.3263,-0.7349 1.5818,-1.5662 1.5999,-0.2048 2.6293,0.4388 0.628,0.502 2.8633,0.4212 3.5407,-0.1159 0.3562,-0.2824 0.7809,-1.0229 1.1007,-1.2001 0.2823,-0.1562 0.5422,0.0594 0.7445,0.2603"/>
    <path id="_346951456" class="fil0 str1" d="M66.1367 17.3456c0.1337,0.186 0.7377,0.7857 0.9401,0.9702 0.9121,0.832 2.8646,0.9186 3.7919,0.1247 1.0466,-0.8963 1.4605,-1.1776 2.0841,-0.6983 0.4524,0.3477 0.5246,0.9136 1.5913,1.3328 0.883,0.3469 1.8015,0.3466 2.6823,-0.2199 0.9487,-0.6102 1.597,-1.9922 2.5098,-0.7866 0.6044,0.7982 1.3082,1.1178 2.2894,1.1242 1.0937,0.0072 1.4776,0.1056 2.3263,-0.7349 1.5818,-1.5662 1.5999,-0.2048 2.6293,0.4388 0.628,0.5019 2.8633,0.4211 3.5407,-0.1159 0.3562,-0.2824 0.7809,-1.0229 1.1007,-1.2001 0.2823,-0.1562 0.5422,0.0594 0.7445,0.2603"/>
    <path id="_346950232" class="fil0 str1" d="M92.2107 17.7448c0.1337,0.1859 0.7377,0.7857 0.9401,0.9702 0.9121,0.8319 2.8646,0.9186 3.7919,0.1246 1.0466,-0.8962 1.4605,-1.1775 2.0841,-0.6982 0.4524,0.3477 0.5246,0.9136 1.5913,1.3327 0.883,0.347 1.8015,0.3467 2.6823,-0.2198 0.9487,-0.6103 1.597,-1.9922 2.5098,-0.7866 0.6044,0.7982 1.3082,1.1178 2.2894,1.1242 1.0937,0.0072 1.4776,0.1056 2.3263,-0.7349 1.5818,-1.5662 1.5999,-0.2048 2.6293,0.4388 0.628,0.5019 2.8633,0.4211 3.5407,-0.1159 0.3562,-0.2824 0.7809,-1.0229 1.1007,-1.2001 0.2823,-0.1563 0.5422,0.0593 0.7445,0.2603"/>
    <path id="_346949416" class="fil0 str1" d="M118.285 18.1439c0.1337,0.186 0.7377,0.7857 0.9401,0.9703 0.9121,0.8319 2.8646,0.9186 3.7919,0.1246 1.0466,-0.8962 1.4605,-1.1775 2.0841,-0.6982 0.4524,0.3477 0.5246,0.9135 1.5913,1.3327 0.883,0.3469 1.8015,0.3467 2.6823,-0.2198 0.9487,-0.6103 1.597,-1.9922 2.5098,-0.7867 0.6044,0.7983 1.3083,1.1179 2.2894,1.1243 1.0937,0.007 1.9338,-0.5012 2.7825,-1.3417"/>
   </g>
   <line id="_365057936" class="fil0 str2" x1="20.8048" y1="16.9439" x2="91.8991" y2= "74.9205" />
   <line id="_365058296" class="fil0 str2" x1="27.108" y1="16.9935" x2="98.2023" y2= "74.9701" />
   <line id="_365058632" class="fil0 str2" x1="33.7879" y1="17.0203" x2="104.882" y2= "74.9969" />
   <line id="_365058968" class="fil0 str2" x1="40.4678" y1="17.047" x2="111.562" y2= "75.0237" />
   <line id="_365059304" class="fil0 str2" x1="46.576" y1="17.2097" x2="117.67" y2= "75.1864" />
   <line id="_365059640" class="fil0 str2" x1="53.4343" y1="17.3868" x2="124.529" y2= "75.3634" />
   <line id="_365059976" class="fil0 str2" x1="59.8424" y1="17.5842" x2="130.937" y2= "75.5609" />
   <line id="_365060312" class="fil0 str2" x1="66.3989" y1="17.6132" x2="137.493" y2= "75.5898" />
   <line id="_365060648" class="fil0 str2" x1="72.7278" y1="17.636" x2="143.822" y2= "75.6126" />
   <line id="_365060984" class="fil0 str2" x1="79.1596" y1="17.5466" x2="150.254" y2= "75.5233" />
   <line id="_365061320" class="fil0 str2" x1="85.817" y1="17.644" x2="156.911" y2= "75.6206" />
   <line id="_365061656" class="fil0 str2" x1="92.1607" y1="17.7308" x2="163.255" y2= "75.7074" />
   <line id="_365061992" class="fil0 str2" x1="98.7261" y1="17.7402" x2="169.82" y2= "75.7169" />
   <line id="_365062328" class="fil0 str2" x1="105.075" y1="17.9718" x2="176.169" y2= "75.9485" />
   <line id="_365062664" class="fil0 str2" x1="111.695" y1="17.9729" x2="182.789" y2= "75.9495" />
   <line id="_365063000" class="fil0 str2" x1="117.563" y1="17.7446" x2="188.658" y2= "75.7213" />
   <line id="_365063336" class="fil0 str2" x1="123.771" y1="17.8114" x2="194.865" y2= "75.7881" />
   <line id="_365063672" class="fil0 str2" x1="131.181" y1="18.0547" x2="202.275" y2= "76.0314" />
  </g>
 </g>
</svg>
