<?xml version="1.0" encoding="UTF-8"?>
<!DOCTYPE svg PUBLIC "-//W3C//DTD SVG 1.1//EN" "http://www.w3.org/Graphics/SVG/1.1/DTD/svg11.dtd">
<!-- Creator: CorelDRAW -->
<svg xmlns="http://www.w3.org/2000/svg" xml:space="preserve" width="210mm" height="297mm" style="shape-rendering:geometricPrecision; text-rendering:geometricPrecision; image-rendering:optimizeQuality; fill-rule:evenodd; clip-rule:evenodd"
viewBox="0 0 210 297"
 xmlns:xlink="http://www.w3.org/1999/xlink">
 <defs>
  <style type="text/css">
   <![CDATA[
    .str0 {stroke:#333333;stroke-width:0.5}
    .fil0 {fill:none}
    .fil1 {fill:#999999}
   ]]>
  </style>
 </defs>
 <g id="Слой_x0020_1">
  <metadata id="CorelCorpID_0Corel-Layer"/>
  <line class="fil0 str0" x1="29.9912" y1="30.1734" x2="30.7269" y2= "99.2354" />
  <line class="fil0 str0" x1="103.262" y1="71.5664" x2="102.79" y2= "99.9428" />
  <line class="fil0 str0" x1="194.4" y1="72.6573" x2="194.683" y2= "100.835" />
  <line class="fil0 str0" x1="6.0607" y1="99.0023" x2="204.84" y2= "100.937" />
  <g id="_362735240">
   <path id="_356441352" class="fil1 str0" d="M88.2574 73.5792l-75.4661 -56.4143 121.879 1.187 70.2544 52.1129c-0.6212,0.0125 -0.9638,2.1011 -1.661,2.1548 -0.8142,0.0627 -1.9879,-1.8869 -2.7525,-1.5331 -0.6557,0.3035 -1.0467,1.5268 -1.7249,1.6099 -0.7917,0.0969 -1.732,-1.6159 -2.5043,-1.4675 -0.6177,0.1186 -1.0119,1.2098 -1.6288,1.2548 -0.7663,0.056 -1.5107,-1.4835 -2.2769,-1.3818 -0.6121,0.0813 -1.1432,1.6037 -1.7575,1.6415 -0.9077,0.0558 -1.8786,-1.7815 -2.7772,-1.6886 -0.7412,0.0766 -1.0696,1.596 -1.8169,1.6419 -0.7174,0.044 -1.6601,-1.5395 -2.3772,-1.4878 -0.6456,0.0463 -1.1475,1.2615 -1.7946,1.2941 -0.7441,0.0375 -1.402,-1.3957 -2.1493,-1.3516 -0.6428,0.038 -1.2215,1.4781 -1.8674,1.5048 -0.7963,0.0329 -1.6669,-1.6677 -2.4648,-1.6268 -0.7168,0.0366 -1.5005,1.6525 -2.2163,1.6844 -0.8145,0.0363 -1.5844,-1.5172 -2.3963,-1.4851 -0.5847,0.0231 -1.1107,1.2444 -1.6939,1.2626 -0.7105,0.0222 -1.3541,-1.4416 -2.0623,-1.4163 -0.7171,0.0255 -1.2902,1.6462 -2.0056,1.6641 -0.8614,0.0217 -1.7221,-1.7267 -2.5804,-1.7016 -0.7871,0.0229 -1.2866,1.6657 -2.0724,1.6812 -0.8126,0.0159 -1.4712,-1.5161 -2.2831,-1.4994 -0.6579,0.0135 -1.2043,1.2809 -1.862,1.2903 -0.6723,0.0096 -1.2901,-1.4411 -1.9624,-1.431 -0.6266,0.0094 -1.2976,1.5844 -1.9239,1.5899 -0.8382,0.0074 -1.7145,-1.561 -2.5517,-1.5539 -0.7681,0.0067 -1.4153,1.607 -2.1828,1.6078 -0.6836,0.0006 -1.5107,-1.5031 -2.1934,-1.5034 -0.6439,-0.0001 -1.3324,1.2174 -1.9753,1.2136 -0.6211,-0.0037 -1.3069,-1.3451 -1.9269,-1.3499 -0.7661,-0.0059 -1.412,1.5499 -2.1765,1.538 -0.8165,-0.0128 -1.5517,-1.5661 -2.3663,-1.5817 -0.7875,-0.0149 -1.3214,1.7077 -2.1076,1.6855 -0.7631,-0.0215 -1.6126,-1.4653 -2.3742,-1.4908 -0.6729,-0.0225 -1.1857,1.2322 -1.8576,1.2044 -0.6439,-0.0266 -1.3098,-1.3205 -1.9527,-1.3506 -0.6472,-0.0302 -1.293,1.6168 -1.9391,1.5809 -0.7979,-0.0444 -1.7171,-1.5754 -2.5129,-1.6262 -0.7934,-0.0505 -1.4651,1.7445 -2.2565,1.684 -0.7249,-0.0554 -1.5095,-1.4307 -2.2325,-1.4929 -0.6961,-0.0599 -1.1475,1.2742 -1.8421,1.206 -0.6643,-0.0651 -1.3691,-1.2724 -2.0319,-1.3443 -0.7602,-0.0825 -1.3168,1.6157 -2.0753,1.5217 -0.7723,-0.0957 -1.5342,-1.5464 -2.3046,-1.6526 -0.7468,-0.103 -1.526,1.8839 -2.2708,1.768 -0.7065,-0.11 -1.4571,-1.3811 -2.1617,-1.5019 -0.7165,-0.1228 -1.3668,1.3471 -2.0814,1.2111 -0.5779,-0.11 -1.1013,-1.2133 -1.6779,-1.3316 -0.7691,-0.1578 -1.5619,1.7997 -2.3286,1.6243 -0.7483,-0.1711 -1.4187,-1.2842 -2.1647,-1.4718 -0.8426,-0.2117 -1.5266,2.1057 -2.3663,1.869 -0.7042,-0.1984 -1.3636,-1.113 -2.0658,-1.329 -0.8534,-0.2623 -1.4368,1.7012 -2.2873,1.4095 -0.9273,-0.318 -1.3738,-1.0277 -2.3578,-0.9342l-1.4336 1.3017 0.0004 0z"/>
   <line id="_356422704" class="fil0 str0" x1="46.6099" y1="17.4945" x2="122.943" y2= "72.4272" />
   <line id="_356422344" class="fil0 str0" x1="76.3679" y1="17.7842" x2="150.122" y2= "71.1987" />
   <line id="_356422008" class="fil0 str0" x1="106.146" y1="18.074" x2="180.095" y2= "71.204" />
   <g id="_187781112">
    <path id="_187782000" class="fil0 str0" d="M38.5949 36.8039c2.5697,-3.5927 2.8893,1.408 5.0196,-1.1054 0.9213,-1.0868 1.4274,-0.6885 2.119,0.0212 1.0011,1.0276 1.3921,0.8193 2.396,-0.6892 0.4402,-0.6615 1.3136,-0.8153 1.9314,0.074 0.4913,0.7073 0.8877,0.7086 1.3212,0.7892"/>
    <path id="_186183744" class="fil0 str0" d="M51.2616 35.8189c0.8478,0.4286 1.1719,-0.7238 1.4414,-1.0303 1.6057,-1.8258 1.7297,2.4071 3.6871,0.2566 0.9211,-1.0118 1.4274,-0.5727 2.119,0.1933 1.0011,1.1088 1.3921,0.9322 2.396,-0.4947 0.4402,-0.6258 1.3136,-0.7089 1.9314,0.2306 0.4913,0.7473 0.8877,0.7807 1.3212,0.8965"/>
    <path id="_187781088" class="fil0 str0" d="M64.0393 35.8151c0.8478,0.4286 1.1719,-0.7238 1.4414,-1.0304 1.6057,-1.8257 1.7297,2.4072 3.6871,0.2567 0.9211,-1.0118 1.4274,-0.5727 2.119,0.1933 1.0011,1.1088 1.3921,0.9321 2.396,-0.4947 0.4402,-0.6258 1.3136,-0.7089 1.9314,0.2306 0.4913,0.7473 0.8877,0.7807 1.3212,0.8965"/>
    <path id="_187786392" class="fil0 str0" d="M76.817 35.8113c0.8478,0.4286 1.1719,-0.7238 1.4414,-1.0304 1.6057,-1.8257 1.7297,2.4072 3.6871,0.2567 0.9211,-1.0118 1.4274,-0.5727 2.119,0.1933 1.0011,1.1088 1.3921,0.9321 2.396,-0.4947 0.4402,-0.6258 1.3136,-0.7089 1.9314,0.2306 0.4913,0.7473 0.8877,0.7807 1.3212,0.8965"/>
    <path id="_187784232" class="fil0 str0" d="M89.5947 35.8075c0.8478,0.4286 1.1719,-0.7239 1.4414,-1.0304 1.6057,-1.8257 1.7297,2.4072 3.6871,0.2567 0.9211,-1.0118 1.4274,-0.5727 2.119,0.1933 1.0011,1.1088 1.3921,0.9321 2.396,-0.4947 0.4402,-0.6258 1.3136,-0.7089 1.9314,0.2306 0.4913,0.7473 0.8877,0.7807 1.3212,0.8965"/>
    <path id="_187783224" class="fil0 str0" d="M102.372 35.8037c0.8478,0.4285 1.1719,-0.7239 1.4414,-1.0304 1.6057,-1.8258 1.7297,2.4072 3.6871,0.2567 0.9211,-1.0118 1.4274,-0.5727 2.119,0.1933 1.0011,1.1088 1.3921,0.9321 2.396,-0.4947 0.4402,-0.6258 1.3136,-0.7089 1.9314,0.2306 0.4913,0.7473 0.8877,0.7807 1.3212,0.8965"/>
    <path id="_187780992" class="fil0 str0" d="M115.15 35.7999c0.8478,0.4285 1.1719,-0.7239 1.4414,-1.0304 1.6057,-1.8258 1.7297,2.4072 3.6871,0.2567 0.9211,-1.0118 1.4274,-0.5727 2.119,0.1933 1.0011,1.1088 1.3921,0.9321 2.396,-0.4948 0.4402,-0.6257 1.3136,-0.7088 1.9314,0.2307 0.4913,0.7473 0.8877,0.7806 1.3212,0.8965"/>
    <path id="_187783080" class="fil0 str0" d="M127.928 35.796c0.8478,0.4286 1.1719,-0.7238 1.4414,-1.0303 1.6057,-1.8258 1.7297,2.4072 3.6871,0.2567 0.9211,-1.0118 1.4274,-0.5727 2.119,0.1933 1.0011,1.1088 1.3921,0.9321 2.396,-0.4948 0.4402,-0.6257 1.3136,-0.7088 1.9314,0.2307 0.4913,0.7473 0.8877,0.7806 1.3212,0.8965"/>
    <path id="_187784112" class="fil0 str0" d="M140.706 35.7922c0.8478,0.4286 1.1719,-0.7238 1.4414,-1.0303 1.6057,-1.8258 1.7297,2.4072 3.6871,0.2567 0.9211,-1.0118 1.4274,-0.5728 2.119,0.1933 1.0011,1.1088 1.3921,0.9321 2.396,-0.4948 0.4402,-0.6257 1.3136,-0.7088 1.9314,0.2307 0.4913,0.7473 0.8877,0.7806 1.3212,0.8965"/>
    <path id="_186185952" class="fil0 str0" d="M153.483 35.7884c0.8478,0.4286 1.3141,-2.1381 1.7794,-2.0989"/>
   </g>
   <g id="_187780872">
    <path id="_187782408" class="fil0 str0" d="M63.2248 55.3371c2.5697,-3.5926 2.8893,1.408 5.0196,-1.1054 0.9213,-1.0867 1.4274,-0.6884 2.119,0.0213 1.0011,1.0276 1.3921,0.8192 2.396,-0.6893 0.4402,-0.6614 1.3136,-0.8153 1.9314,0.074 0.4913,0.7073 0.8877,0.7086 1.3212,0.7892"/>
    <path id="_187782312" class="fil0 str0" d="M75.8915 54.3521c0.8478,0.4286 1.1719,-0.7238 1.4414,-1.0303 1.6057,-1.8258 1.7297,2.4071 3.6871,0.2567 0.9211,-1.0118 1.4274,-0.5728 2.119,0.1932 1.0011,1.1089 1.3921,0.9322 2.396,-0.4947 0.4402,-0.6258 1.3136,-0.7088 1.9314,0.2307 0.4913,0.7472 0.8877,0.7806 1.3212,0.8964"/>
    <path id="_187784328" class="fil0 str0" d="M88.6692 54.3483c0.8478,0.4286 1.1719,-0.7238 1.4414,-1.0303 1.6057,-1.8258 1.7297,2.4071 3.6871,0.2567 0.9211,-1.0118 1.4274,-0.5728 2.119,0.1932 1.0011,1.1089 1.3921,0.9322 2.396,-0.4947 0.4402,-0.6258 1.3136,-0.7089 1.9314,0.2307 0.4913,0.7472 0.8877,0.7806 1.3212,0.8964"/>
    <path id="_187788792" class="fil0 str0" d="M101.447 54.3445c0.8478,0.4286 1.1719,-0.7238 1.4414,-1.0303 1.6057,-1.8258 1.7297,2.4071 3.6871,0.2567 0.9211,-1.0118 1.4274,-0.5728 2.119,0.1932 1.0011,1.1089 1.3921,0.9322 2.396,-0.4947 0.4402,-0.6258 1.3136,-0.7089 1.9314,0.2307 0.4913,0.7472 0.8877,0.7806 1.3212,0.8964"/>
    <path id="_187787064" class="fil0 str0" d="M114.225 54.3407c0.8478,0.4286 1.1719,-0.7238 1.4414,-1.0303 1.6057,-1.8258 1.7297,2.4071 3.6871,0.2567 0.9211,-1.0118 1.4274,-0.5728 2.119,0.1932 1.0011,1.1089 1.3921,0.9322 2.396,-0.4947 0.4402,-0.6258 1.3136,-0.7089 1.9314,0.2307 0.4913,0.7472 0.8877,0.7806 1.3212,0.8964"/>
    <path id="_187786368" class="fil0 str0" d="M127.002 54.3369c0.8478,0.4286 1.1719,-0.7238 1.4414,-1.0303 1.6057,-1.8258 1.7297,2.4071 3.6871,0.2567 0.9211,-1.0118 1.4274,-0.5728 2.119,0.1932 1.0011,1.1089 1.3921,0.9322 2.396,-0.4947 0.4402,-0.6258 1.3136,-0.7089 1.9314,0.2307 0.4913,0.7472 0.8877,0.7806 1.3212,0.8964"/>
    <path id="_187788384" class="fil0 str0" d="M139.78 54.3331c0.8478,0.4286 1.1719,-0.7238 1.4414,-1.0303 1.6057,-1.8258 1.7297,2.4071 3.6871,0.2567 0.9211,-1.0118 1.4274,-0.5728 2.119,0.1932 1.0011,1.1089 1.3921,0.9322 2.396,-0.4947 0.4402,-0.6258 1.3136,-0.7089 1.9314,0.2307 0.4913,0.7472 0.8877,0.7806 1.3212,0.8964"/>
    <path id="_187787088" class="fil0 str0" d="M152.558 54.3293c0.8478,0.4286 1.1719,-0.7238 1.4414,-1.0303 1.6057,-1.8258 1.7297,2.4071 3.6871,0.2566 0.9211,-1.0117 1.4274,-0.5727 2.119,0.1933 1.0011,1.1088 1.3921,0.9322 2.396,-0.4947 0.4402,-0.6258 1.3136,-0.7089 1.9314,0.2306 0.4913,0.7473 0.8877,0.7807 1.3212,0.8965"/>
    <path id="_187783872" class="fil0 str0" d="M165.335 54.3255c0.8478,0.4286 1.1719,-0.7238 1.4414,-1.0303 1.6057,-1.8258 1.7297,2.4071 3.6871,0.2566 0.9211,-1.0117 1.4274,-0.5727 2.119,0.1933 1.0011,1.1088 1.3921,0.9322 2.396,-0.4947 0.4402,-0.6258 1.3136,-0.7089 1.9314,0.2306 0.4913,0.7473 0.8877,0.7807 1.3212,0.8965"/>
    <path id="_187787760" class="fil0 str0" d="M178.113 54.3217c0.8478,0.4286 1.3141,-2.1382 1.7794,-2.099"/>
   </g>
  </g>
 </g>
</svg>
