<?xml version="1.0" encoding="UTF-8"?>
<!DOCTYPE svg PUBLIC "-//W3C//DTD SVG 1.1//EN" "http://www.w3.org/Graphics/SVG/1.1/DTD/svg11.dtd">
<!-- Creator: CorelDRAW -->
<svg xmlns="http://www.w3.org/2000/svg" xml:space="preserve" width="210mm" height="297mm" style="shape-rendering:geometricPrecision; text-rendering:geometricPrecision; image-rendering:optimizeQuality; fill-rule:evenodd; clip-rule:evenodd"
viewBox="0 0 210 297"
 xmlns:xlink="http://www.w3.org/1999/xlink">
 <defs>
  <style type="text/css">
   <![CDATA[
    .str2 {stroke:#333333;stroke-width:0.2}
    .str1 {stroke:#2B2A29;stroke-width:0.5}
    .str0 {stroke:#333333;stroke-width:0.5}
    .fil1 {fill:none}
    .fil0 {fill:#B32E37}
   ]]>
  </style>
 </defs>
 <g id="Слой_x0020_1">
  <metadata id="CorelCorpID_0Corel-Layer"/>
  <polygon class="fil0 str0" points="9.594,29.1773 85.0596,75.1543 206.725,75.9335 134.359,29.6911 "/>
  <line class="fil1 str0" x1="26.7939" y1="39.7416" x2="27.5296" y2= "100.81" />
  <line class="fil1 str0" x1="100.06" y1="75.0997" x2="99.5926" y2= "101.518" />
  <line class="fil1 str0" x1="191.181" y1="75.834" x2="191.485" y2= "102.41" />
  <line class="fil1 str0" x1="2.8634" y1="100.577" x2="201.642" y2= "102.512" />
  <polygon class="fil0 str0" points="9.594,29.1773 12.4388,30.9105 137.389,31.6269 134.359,29.6911 "/>
  <g id="_346964824">
   <path id="_188344768" class="fil1 str1" d="M77.8481 70.5807c0.1337,0.1395 0.7377,0.5893 0.9401,0.7277 0.9121,0.624 2.8646,0.689 3.7919,0.0935 1.0466,-0.6722 1.4605,-0.8832 2.0841,-0.5237 0.4524,0.2608 0.5246,0.6852 1.5913,0.9996 0.883,0.2602 1.8015,0.26 2.6823,-0.1649 0.9487,-0.4577 1.597,-1.4942 2.5098,-0.59 0.6044,0.5987 1.3082,0.8384 2.2894,0.8432 1.0937,0.0054 1.4776,0.0792 2.3263,-0.5512 1.5818,-1.1747 1.5999,-0.1536 2.6293,0.3291 0.628,0.3765 2.8633,0.3159 3.5407,-0.0869 0.3562,-0.2118 0.7809,-0.7672 1.1007,-0.9001 0.2823,-0.1172 0.5422,0.0445 0.7445,0.1952"/>
   <path id="_188343352" class="fil1 str1" d="M103.922 70.8801c0.1337,0.1395 0.7377,0.5893 0.9401,0.7277 0.9121,0.624 2.8646,0.689 3.7919,0.0935 1.0466,-0.6722 1.4605,-0.8832 2.0841,-0.5237 0.4524,0.2608 0.5246,0.6852 1.5913,0.9996 0.883,0.2602 1.8015,0.26 2.6823,-0.1649 0.9487,-0.4577 1.597,-1.4942 2.5098,-0.59 0.6044,0.5987 1.3082,0.8384 2.2894,0.8432 1.0937,0.0054 1.4776,0.0792 2.3263,-0.5512 1.5818,-1.1747 1.5999,-0.1536 2.6293,0.3291 0.628,0.3765 2.8633,0.3159 3.5407,-0.0869 0.3562,-0.2118 0.7809,-0.7672 1.1007,-0.9001 0.2823,-0.1172 0.5422,0.0445 0.7445,0.1952"/>
   <path id="_346964440" class="fil1 str1" d="M129.996 71.1795c0.1337,0.1395 0.7377,0.5893 0.9401,0.7277 0.9121,0.624 2.8646,0.689 3.7919,0.0935 1.0466,-0.6722 1.4605,-0.8832 2.0841,-0.5237 0.4524,0.2608 0.5246,0.6852 1.5913,0.9996 0.883,0.2602 1.8015,0.26 2.6823,-0.1649 0.9487,-0.4577 1.597,-1.4942 2.5098,-0.59 0.6044,0.5987 1.3082,0.8384 2.2894,0.8432 1.0937,0.0054 1.4776,0.0792 2.3263,-0.5512 1.5818,-1.1747 1.5999,-0.1536 2.6293,0.3291 0.628,0.3765 2.8633,0.3159 3.5407,-0.0869 0.3562,-0.2118 0.7809,-0.7672 1.1007,-0.9001 0.2823,-0.1172 0.5422,0.0445 0.7445,0.1952"/>
   <path id="_188342920" class="fil1 str1" d="M156.07 71.4789c0.1337,0.1395 0.7377,0.5893 0.9401,0.7277 0.9121,0.624 2.8646,0.689 3.7919,0.0935 1.0466,-0.6722 1.4605,-0.8832 2.0841,-0.5237 0.4524,0.2608 0.5246,0.6852 1.5913,0.9996 0.883,0.2602 1.8015,0.26 2.6823,-0.1649 0.9487,-0.4577 1.597,-1.4942 2.5098,-0.59 0.6044,0.5987 1.3082,0.8384 2.2894,0.8432 1.0937,0.0054 1.4776,0.0792 2.3263,-0.5512 1.5818,-1.1747 1.5999,-0.1536 2.6293,0.3291 0.628,0.3765 2.8633,0.3159 3.5407,-0.0869 0.3562,-0.2118 0.7809,-0.7672 1.1007,-0.9001 0.2823,-0.1172 0.5422,0.0445 0.7445,0.1952"/>
   <path id="_346960864" class="fil1 str1" d="M182.144 71.7783c0.1337,0.1395 0.7377,0.5893 0.9401,0.7277 0.9121,0.624 2.8646,0.689 3.7919,0.0935 1.0466,-0.6722 1.4605,-0.8832 2.0841,-0.5237 0.4524,0.2608 0.5246,0.6852 1.5913,0.9996 0.883,0.2602 1.8015,0.26 2.6823,-0.1649 0.9487,-0.4577 1.597,-1.4942 2.5098,-0.59 0.6044,0.5987 1.3083,0.8384 2.2894,0.8432 1.0937,0.0053 1.9338,-0.3759 2.7825,-1.0063"/>
  </g>
  <g id="_188349808">
   <path id="_188344240" class="fil1 str1" d="M72.0427 67.0203c0.1337,0.1395 0.7377,0.5893 0.9401,0.7277 0.9121,0.624 2.8646,0.689 3.7919,0.0935 1.0466,-0.6722 1.4605,-0.8832 2.0841,-0.5237 0.4524,0.2608 0.5246,0.6852 1.5913,0.9996 0.883,0.2602 1.8015,0.26 2.6823,-0.1649 0.9487,-0.4577 1.597,-1.4942 2.5098,-0.59 0.6044,0.5987 1.3082,0.8384 2.2894,0.8432 1.0937,0.0054 1.4776,0.0792 2.3263,-0.5512 1.5818,-1.1747 1.5999,-0.1536 2.6293,0.3291 0.628,0.3765 2.8633,0.3159 3.5407,-0.0869 0.3562,-0.2118 0.7809,-0.7672 1.1007,-0.9001 0.2823,-0.1172 0.5422,0.0445 0.7445,0.1952"/>
   <path id="_346961248" class="fil1 str1" d="M98.1167 67.3197c0.1337,0.1395 0.7377,0.5893 0.9401,0.7277 0.9121,0.624 2.8646,0.689 3.7919,0.0935 1.0466,-0.6722 1.4605,-0.8832 2.0841,-0.5237 0.4524,0.2608 0.5246,0.6852 1.5913,0.9996 0.883,0.2602 1.8015,0.26 2.6823,-0.1649 0.9487,-0.4577 1.597,-1.4942 2.5098,-0.59 0.6044,0.5987 1.3082,0.8384 2.2894,0.8432 1.0937,0.0054 1.4776,0.0792 2.3263,-0.5512 1.5818,-1.1747 1.5999,-0.1536 2.6293,0.3291 0.628,0.3765 2.8633,0.3159 3.5407,-0.0869 0.3562,-0.2118 0.7809,-0.7672 1.1007,-0.9001 0.2823,-0.1172 0.5422,0.0445 0.7445,0.1952"/>
   <path id="_346961056" class="fil1 str1" d="M124.191 67.6191c0.1337,0.1395 0.7377,0.5893 0.9401,0.7277 0.9121,0.624 2.8646,0.689 3.7919,0.0935 1.0466,-0.6722 1.4605,-0.8832 2.0841,-0.5237 0.4524,0.2608 0.5246,0.6852 1.5913,0.9996 0.883,0.2602 1.8015,0.26 2.6823,-0.1649 0.9487,-0.4577 1.597,-1.4942 2.5098,-0.59 0.6044,0.5987 1.3082,0.8384 2.2894,0.8432 1.0937,0.0054 1.4776,0.0792 2.3263,-0.5512 1.5818,-1.1747 1.5999,-0.1536 2.6293,0.3291 0.628,0.3765 2.8633,0.3159 3.5407,-0.0869 0.3562,-0.2118 0.7809,-0.7672 1.1007,-0.9001 0.2823,-0.1172 0.5422,0.0445 0.7445,0.1952"/>
   <path id="_346964248" class="fil1 str1" d="M150.265 67.9185c0.1337,0.1395 0.7377,0.5893 0.9401,0.7277 0.9121,0.624 2.8646,0.689 3.7919,0.0935 1.0466,-0.6722 1.4605,-0.8832 2.0841,-0.5237 0.4524,0.2608 0.5246,0.6852 1.5913,0.9996 0.883,0.2602 1.8015,0.26 2.6823,-0.1649 0.9487,-0.4577 1.597,-1.4942 2.5098,-0.59 0.6044,0.5987 1.3082,0.8384 2.2894,0.8432 1.0937,0.0054 1.4776,0.0792 2.3263,-0.5512 1.5818,-1.1747 1.5999,-0.1536 2.6293,0.3291 0.628,0.3765 2.8633,0.3159 3.5407,-0.0869 0.3562,-0.2118 0.7809,-0.7672 1.1007,-0.9001 0.2823,-0.1172 0.5422,0.0445 0.7445,0.1952"/>
   <path id="_188348296" class="fil1 str1" d="M176.339 68.2179c0.1337,0.1395 0.7377,0.5893 0.9401,0.7277 0.9121,0.624 2.8646,0.689 3.7919,0.0935 1.0466,-0.6722 1.4605,-0.8832 2.0841,-0.5237 0.4524,0.2608 0.5246,0.6852 1.5913,0.9996 0.883,0.2602 1.8015,0.26 2.6823,-0.1649 0.9487,-0.4577 1.597,-1.4942 2.5098,-0.59 0.6044,0.5987 1.3083,0.8384 2.2894,0.8432 1.0937,0.0053 1.9338,-0.3759 2.7825,-1.0063"/>
  </g>
  <g id="_188347072">
   <path id="_346956064" class="fil1 str1" d="M66.2373 63.4599c0.1337,0.1395 0.7377,0.5893 0.9401,0.7277 0.9121,0.624 2.8646,0.689 3.7919,0.0935 1.0466,-0.6722 1.4605,-0.8832 2.0841,-0.5237 0.4524,0.2608 0.5246,0.6852 1.5913,0.9996 0.883,0.2602 1.8015,0.26 2.6823,-0.1649 0.9487,-0.4577 1.597,-1.4942 2.5098,-0.59 0.6044,0.5987 1.3082,0.8384 2.2894,0.8432 1.0937,0.0054 1.4776,0.0792 2.3263,-0.5512 1.5818,-1.1747 1.5999,-0.1536 2.6293,0.3291 0.628,0.3765 2.8633,0.3159 3.5407,-0.0869 0.3562,-0.2118 0.7809,-0.7672 1.1007,-0.9001 0.2823,-0.1172 0.5422,0.0445 0.7445,0.1952"/>
   <path id="_188348080" class="fil1 str1" d="M92.3113 63.7593c0.1337,0.1395 0.7377,0.5893 0.9401,0.7277 0.9121,0.624 2.8646,0.689 3.7919,0.0935 1.0466,-0.6722 1.4605,-0.8832 2.0841,-0.5237 0.4524,0.2608 0.5246,0.6852 1.5913,0.9996 0.883,0.2602 1.8015,0.26 2.6823,-0.1649 0.9487,-0.4577 1.597,-1.4942 2.5098,-0.59 0.6044,0.5987 1.3082,0.8384 2.2894,0.8432 1.0937,0.0054 1.4776,0.0792 2.3263,-0.5512 1.5818,-1.1747 1.5999,-0.1536 2.6293,0.3291 0.628,0.3765 2.8633,0.3159 3.5407,-0.0869 0.3562,-0.2118 0.7809,-0.7672 1.1007,-0.9001 0.2823,-0.1172 0.5422,0.0445 0.7445,0.1952"/>
   <path id="_188345560" class="fil1 str1" d="M118.385 64.0587c0.1337,0.1395 0.7377,0.5893 0.9401,0.7277 0.9121,0.624 2.8646,0.689 3.7919,0.0935 1.0466,-0.6722 1.4605,-0.8832 2.0841,-0.5237 0.4524,0.2608 0.5246,0.6852 1.5913,0.9996 0.883,0.2602 1.8015,0.26 2.6823,-0.1649 0.9487,-0.4577 1.597,-1.4942 2.5098,-0.59 0.6044,0.5987 1.3082,0.8384 2.2894,0.8432 1.0937,0.0054 1.4776,0.0792 2.3263,-0.5512 1.5818,-1.1747 1.5999,-0.1536 2.6293,0.3291 0.628,0.3765 2.8633,0.3159 3.5407,-0.0869 0.3562,-0.2118 0.7809,-0.7672 1.1007,-0.9001 0.2823,-0.1172 0.5422,0.0445 0.7445,0.1952"/>
   <path id="_346961632" class="fil1 str1" d="M144.459 64.3581c0.1337,0.1395 0.7377,0.5893 0.9401,0.7277 0.9121,0.624 2.8646,0.689 3.7919,0.0935 1.0466,-0.6722 1.4605,-0.8832 2.0841,-0.5237 0.4524,0.2608 0.5246,0.6852 1.5913,0.9996 0.883,0.2602 1.8015,0.26 2.6823,-0.1649 0.9487,-0.4577 1.597,-1.4942 2.5098,-0.59 0.6044,0.5987 1.3082,0.8384 2.2894,0.8432 1.0937,0.0054 1.4776,0.0792 2.3263,-0.5512 1.5818,-1.1747 1.5999,-0.1536 2.6293,0.3291 0.628,0.3765 2.8633,0.3159 3.5407,-0.0869 0.3562,-0.2118 0.7809,-0.7672 1.1007,-0.9001 0.2823,-0.1172 0.5422,0.0445 0.7445,0.1952"/>
   <path id="_346961824" class="fil1 str1" d="M170.533 64.6575c0.1337,0.1395 0.7377,0.5893 0.9401,0.7277 0.9121,0.624 2.8646,0.689 3.7919,0.0935 1.0466,-0.6722 1.4605,-0.8832 2.0841,-0.5237 0.4524,0.2608 0.5246,0.6852 1.5913,0.9996 0.883,0.2602 1.8015,0.26 2.6823,-0.1649 0.9487,-0.4577 1.597,-1.4942 2.5098,-0.59 0.6044,0.5987 1.3083,0.8384 2.2894,0.8432 1.0937,0.0053 1.9338,-0.3759 2.7825,-1.0063"/>
  </g>
  <g id="_188780680">
   <path id="_346962208" class="fil1 str1" d="M60.4319 59.8995c0.1337,0.1395 0.7377,0.5893 0.9401,0.7277 0.9121,0.624 2.8646,0.689 3.7919,0.0935 1.0466,-0.6722 1.4605,-0.8832 2.0841,-0.5237 0.4524,0.2608 0.5246,0.6852 1.5913,0.9996 0.883,0.2602 1.8015,0.26 2.6823,-0.1649 0.9487,-0.4577 1.597,-1.4942 2.5098,-0.59 0.6044,0.5987 1.3082,0.8384 2.2894,0.8432 1.0937,0.0054 1.4776,0.0792 2.3263,-0.5512 1.5818,-1.1747 1.5999,-0.1536 2.6293,0.3291 0.628,0.3765 2.8633,0.3159 3.5407,-0.0869 0.3562,-0.2118 0.7809,-0.7672 1.1007,-0.9001 0.2823,-0.1172 0.5422,0.0445 0.7445,0.1952"/>
   <path id="_346962280" class="fil1 str1" d="M86.5059 60.1989c0.1337,0.1395 0.7377,0.5893 0.9401,0.7277 0.9121,0.624 2.8646,0.689 3.7919,0.0935 1.0466,-0.6722 1.4605,-0.8832 2.0841,-0.5237 0.4524,0.2608 0.5246,0.6852 1.5913,0.9996 0.883,0.2602 1.8015,0.26 2.6823,-0.1649 0.9487,-0.4577 1.597,-1.4942 2.5098,-0.59 0.6044,0.5987 1.3082,0.8384 2.2894,0.8432 1.0937,0.0054 1.4776,0.0792 2.3263,-0.5512 1.5818,-1.1747 1.5999,-0.1536 2.6293,0.3291 0.628,0.3765 2.8633,0.3159 3.5407,-0.0869 0.3562,-0.2118 0.7809,-0.7672 1.1007,-0.9001 0.2823,-0.1172 0.5422,0.0445 0.7445,0.1952"/>
   <path id="_188348416" class="fil1 str1" d="M112.58 60.4983c0.1337,0.1395 0.7377,0.5893 0.9401,0.7277 0.9121,0.624 2.8646,0.689 3.7919,0.0935 1.0466,-0.6722 1.4605,-0.8832 2.0841,-0.5237 0.4524,0.2608 0.5246,0.6852 1.5913,0.9996 0.883,0.2602 1.8015,0.26 2.6823,-0.1649 0.9487,-0.4577 1.597,-1.4942 2.5098,-0.59 0.6044,0.5987 1.3082,0.8384 2.2894,0.8432 1.0937,0.0054 1.4776,0.0792 2.3263,-0.5512 1.5818,-1.1747 1.5999,-0.1536 2.6293,0.3291 0.628,0.3765 2.8633,0.3159 3.5407,-0.0869 0.3562,-0.2118 0.7809,-0.7672 1.1007,-0.9001 0.2823,-0.1172 0.5422,0.0445 0.7445,0.1952"/>
   <path id="_188348320" class="fil1 str1" d="M138.654 60.7977c0.1337,0.1395 0.7377,0.5893 0.9401,0.7277 0.9121,0.624 2.8646,0.689 3.7919,0.0935 1.0466,-0.6722 1.4605,-0.8832 2.0841,-0.5237 0.4524,0.2608 0.5246,0.6852 1.5913,0.9996 0.883,0.2602 1.8015,0.26 2.6823,-0.1649 0.9487,-0.4577 1.597,-1.4942 2.5098,-0.59 0.6044,0.5987 1.3082,0.8384 2.2894,0.8432 1.0937,0.0054 1.4776,0.0792 2.3263,-0.5512 1.5818,-1.1747 1.5999,-0.1536 2.6293,0.3291 0.628,0.3765 2.8633,0.3159 3.5407,-0.0869 0.3562,-0.2118 0.7809,-0.7672 1.1007,-0.9001 0.2823,-0.1172 0.5422,0.0445 0.7445,0.1952"/>
   <path id="_188349472" class="fil1 str1" d="M164.728 61.0971c0.1337,0.1395 0.7377,0.5893 0.9401,0.7277 0.9121,0.624 2.8646,0.689 3.7919,0.0935 1.0466,-0.6722 1.4605,-0.8832 2.0841,-0.5237 0.4524,0.2608 0.5246,0.6852 1.5913,0.9996 0.883,0.2602 1.8015,0.26 2.6823,-0.1649 0.9487,-0.4577 1.597,-1.4942 2.5098,-0.59 0.6044,0.5987 1.3083,0.8384 2.2894,0.8432 1.0937,0.0053 1.9338,-0.3759 2.7825,-1.0063"/>
  </g>
  <g id="_346962016">
   <path id="_188345752" class="fil1 str1" d="M54.6265 56.3391c0.1337,0.1395 0.7377,0.5893 0.9401,0.7277 0.9121,0.624 2.8646,0.689 3.7919,0.0935 1.0466,-0.6722 1.4605,-0.8832 2.0841,-0.5237 0.4524,0.2608 0.5246,0.6852 1.5913,0.9996 0.883,0.2602 1.8015,0.26 2.6823,-0.1649 0.9487,-0.4577 1.597,-1.4942 2.5098,-0.59 0.6044,0.5987 1.3082,0.8384 2.2894,0.8432 1.0937,0.0054 1.4776,0.0792 2.3263,-0.5512 1.5818,-1.1747 1.5999,-0.1536 2.6293,0.3291 0.628,0.3765 2.8633,0.3159 3.5407,-0.0869 0.3562,-0.2118 0.7809,-0.7672 1.1007,-0.9001 0.2823,-0.1172 0.5422,0.0445 0.7445,0.1952"/>
   <path id="_188342488" class="fil1 str1" d="M80.7005 56.6385c0.1337,0.1395 0.7377,0.5893 0.9401,0.7277 0.9121,0.624 2.8646,0.689 3.7919,0.0935 1.0466,-0.6722 1.4605,-0.8832 2.0841,-0.5237 0.4524,0.2608 0.5246,0.6852 1.5913,0.9996 0.883,0.2602 1.8015,0.26 2.6823,-0.1649 0.9487,-0.4577 1.597,-1.4942 2.5098,-0.59 0.6044,0.5987 1.3082,0.8384 2.2894,0.8432 1.0937,0.0054 1.4776,0.0792 2.3263,-0.5512 1.5818,-1.1747 1.5999,-0.1536 2.6293,0.3291 0.628,0.3765 2.8633,0.3159 3.5407,-0.0869 0.3562,-0.2118 0.7809,-0.7672 1.1007,-0.9001 0.2823,-0.1172 0.5422,0.0445 0.7445,0.1952"/>
   <path id="_188343688" class="fil1 str1" d="M106.775 56.9379c0.1337,0.1395 0.7377,0.5893 0.9401,0.7277 0.9121,0.624 2.8646,0.689 3.7919,0.0935 1.0466,-0.6722 1.4605,-0.8832 2.0841,-0.5237 0.4524,0.2608 0.5246,0.6852 1.5913,0.9996 0.883,0.2602 1.8015,0.26 2.6823,-0.1649 0.9487,-0.4577 1.597,-1.4942 2.5098,-0.59 0.6044,0.5987 1.3082,0.8384 2.2894,0.8432 1.0937,0.0054 1.4776,0.0792 2.3263,-0.5512 1.5818,-1.1747 1.5999,-0.1536 2.6293,0.3291 0.628,0.3765 2.8633,0.3159 3.5407,-0.0869 0.3562,-0.2118 0.7809,-0.7672 1.1007,-0.9001 0.2823,-0.1172 0.5422,0.0445 0.7445,0.1952"/>
   <path id="_188343136" class="fil1 str1" d="M132.849 57.2373c0.1337,0.1395 0.7377,0.5893 0.9401,0.7277 0.9121,0.624 2.8646,0.689 3.7919,0.0935 1.0466,-0.6722 1.4605,-0.8832 2.0841,-0.5237 0.4524,0.2608 0.5246,0.6852 1.5913,0.9996 0.883,0.2602 1.8015,0.26 2.6823,-0.1649 0.9487,-0.4577 1.597,-1.4942 2.5098,-0.59 0.6044,0.5987 1.3082,0.8384 2.2894,0.8432 1.0937,0.0054 1.4776,0.0792 2.3263,-0.5512 1.5818,-1.1747 1.5999,-0.1536 2.6293,0.3291 0.628,0.3765 2.8633,0.3159 3.5407,-0.0869 0.3562,-0.2118 0.7809,-0.7672 1.1007,-0.9001 0.2823,-0.1172 0.5422,0.0445 0.7445,0.1952"/>
   <path id="_188349088" class="fil1 str1" d="M158.923 57.5367c0.1337,0.1395 0.7377,0.5893 0.9401,0.7277 0.9121,0.624 2.8646,0.689 3.7919,0.0935 1.0466,-0.6722 1.4605,-0.8832 2.0841,-0.5237 0.4524,0.2608 0.5246,0.6852 1.5913,0.9996 0.883,0.2602 1.8015,0.26 2.6823,-0.1649 0.9487,-0.4577 1.597,-1.4942 2.5098,-0.59 0.6044,0.5987 1.3083,0.8384 2.2894,0.8432 1.0937,0.0053 1.9338,-0.3759 2.7825,-1.0063"/>
  </g>
  <g id="_188345176">
   <path id="_186197776" class="fil1 str1" d="M48.8211 52.7787c0.1337,0.1395 0.7377,0.5893 0.9401,0.7277 0.9121,0.624 2.8646,0.689 3.7919,0.0935 1.0466,-0.6722 1.4605,-0.8832 2.0841,-0.5237 0.4524,0.2608 0.5246,0.6852 1.5913,0.9996 0.883,0.2602 1.8015,0.26 2.6823,-0.1649 0.9487,-0.4577 1.597,-1.4942 2.5098,-0.59 0.6044,0.5987 1.3082,0.8384 2.2894,0.8432 1.0937,0.0054 1.4776,0.0792 2.3263,-0.5512 1.5818,-1.1747 1.5999,-0.1536 2.6293,0.3291 0.628,0.3765 2.8633,0.3159 3.5407,-0.0869 0.3562,-0.2118 0.7809,-0.7672 1.1007,-0.9001 0.2823,-0.1172 0.5422,0.0445 0.7445,0.1952"/>
   <path id="_346945048" class="fil1 str1" d="M74.8951 53.0781c0.1337,0.1395 0.7377,0.5893 0.9401,0.7277 0.9121,0.624 2.8646,0.689 3.7919,0.0935 1.0466,-0.6722 1.4605,-0.8832 2.0841,-0.5237 0.4524,0.2608 0.5246,0.6852 1.5913,0.9996 0.883,0.2602 1.8015,0.26 2.6823,-0.1649 0.9487,-0.4577 1.597,-1.4942 2.5098,-0.59 0.6044,0.5987 1.3082,0.8384 2.2894,0.8432 1.0937,0.0054 1.4776,0.0792 2.3263,-0.5512 1.5818,-1.1747 1.5999,-0.1536 2.6293,0.3291 0.628,0.3765 2.8633,0.3159 3.5407,-0.0869 0.3562,-0.2118 0.7809,-0.7672 1.1007,-0.9001 0.2823,-0.1172 0.5422,0.0445 0.7445,0.1952"/>
   <path id="_346945720" class="fil1 str1" d="M100.969 53.3775c0.1337,0.1395 0.7377,0.5893 0.9401,0.7277 0.9121,0.624 2.8646,0.689 3.7919,0.0935 1.0466,-0.6722 1.4605,-0.8832 2.0841,-0.5237 0.4524,0.2608 0.5246,0.6852 1.5913,0.9996 0.883,0.2602 1.8015,0.26 2.6823,-0.1649 0.9487,-0.4577 1.597,-1.4942 2.5098,-0.59 0.6044,0.5987 1.3082,0.8384 2.2894,0.8432 1.0937,0.0054 1.4776,0.0792 2.3263,-0.5512 1.5818,-1.1747 1.5999,-0.1536 2.6293,0.3291 0.628,0.3765 2.8633,0.3159 3.5407,-0.0869 0.3562,-0.2118 0.7809,-0.7672 1.1007,-0.9001 0.2823,-0.1172 0.5422,0.0445 0.7445,0.1952"/>
   <path id="_346941880" class="fil1 str1" d="M127.043 53.6769c0.1337,0.1395 0.7377,0.5893 0.9401,0.7277 0.9121,0.624 2.8646,0.689 3.7919,0.0935 1.0466,-0.6722 1.4605,-0.8832 2.0841,-0.5237 0.4524,0.2608 0.5246,0.6852 1.5913,0.9996 0.883,0.2602 1.8015,0.26 2.6823,-0.1649 0.9487,-0.4577 1.597,-1.4942 2.5098,-0.59 0.6044,0.5987 1.3082,0.8384 2.2894,0.8432 1.0937,0.0054 1.4776,0.0792 2.3263,-0.5512 1.5818,-1.1747 1.5999,-0.1536 2.6293,0.3291 0.628,0.3765 2.8633,0.3159 3.5407,-0.0869 0.3562,-0.2118 0.7809,-0.7672 1.1007,-0.9001 0.2823,-0.1172 0.5422,0.0445 0.7445,0.1952"/>
   <path id="_346944472" class="fil1 str1" d="M153.117 53.9763c0.1337,0.1395 0.7377,0.5893 0.9401,0.7277 0.9121,0.624 2.8646,0.689 3.7919,0.0935 1.0466,-0.6722 1.4605,-0.8832 2.0841,-0.5237 0.4524,0.2608 0.5246,0.6852 1.5913,0.9996 0.883,0.2602 1.8015,0.26 2.6823,-0.1649 0.9487,-0.4577 1.597,-1.4942 2.5098,-0.59 0.6044,0.5987 1.3083,0.8384 2.2894,0.8432 1.0937,0.0053 1.9338,-0.3759 2.7825,-1.0063"/>
  </g>
  <g id="_186203248">
   <path id="_346951096" class="fil1 str1" d="M43.0157 49.2183c0.1337,0.1395 0.7377,0.5893 0.9401,0.7277 0.9121,0.624 2.8646,0.689 3.7919,0.0935 1.0466,-0.6722 1.4605,-0.8832 2.0841,-0.5237 0.4524,0.2608 0.5246,0.6852 1.5913,0.9996 0.883,0.2602 1.8015,0.26 2.6823,-0.1649 0.9487,-0.4577 1.597,-1.4942 2.5098,-0.59 0.6044,0.5987 1.3082,0.8384 2.2894,0.8432 1.0937,0.0054 1.4776,0.0792 2.3263,-0.5512 1.5818,-1.1747 1.5999,-0.1536 2.6293,0.3291 0.628,0.3765 2.8633,0.3159 3.5407,-0.0869 0.3562,-0.2118 0.7809,-0.7672 1.1007,-0.9001 0.2823,-0.1172 0.5422,0.0445 0.7445,0.1952"/>
   <path id="_346944352" class="fil1 str1" d="M69.0897 49.5177c0.1337,0.1395 0.7377,0.5893 0.9401,0.7277 0.9121,0.624 2.8646,0.689 3.7919,0.0935 1.0466,-0.6722 1.4605,-0.8832 2.0841,-0.5237 0.4524,0.2608 0.5246,0.6852 1.5913,0.9996 0.883,0.2602 1.8015,0.26 2.6823,-0.1649 0.9487,-0.4577 1.597,-1.4942 2.5098,-0.59 0.6044,0.5987 1.3082,0.8384 2.2894,0.8432 1.0937,0.0054 1.4776,0.0792 2.3263,-0.5512 1.5818,-1.1747 1.5999,-0.1536 2.6293,0.3291 0.628,0.3765 2.8633,0.3159 3.5407,-0.0869 0.3562,-0.2118 0.7809,-0.7672 1.1007,-0.9001 0.2823,-0.1172 0.5422,0.0445 0.7445,0.1952"/>
   <path id="_346946296" class="fil1 str1" d="M95.1637 49.8171c0.1337,0.1395 0.7377,0.5893 0.9401,0.7277 0.9121,0.624 2.8646,0.689 3.7919,0.0935 1.0466,-0.6722 1.4605,-0.8832 2.0841,-0.5237 0.4524,0.2608 0.5246,0.6852 1.5913,0.9996 0.883,0.2602 1.8015,0.26 2.6823,-0.1649 0.9487,-0.4577 1.597,-1.4942 2.5098,-0.59 0.6044,0.5987 1.3082,0.8384 2.2894,0.8432 1.0937,0.0054 1.4776,0.0792 2.3263,-0.5512 1.5818,-1.1747 1.5999,-0.1536 2.6293,0.3291 0.628,0.3765 2.8633,0.3159 3.5407,-0.0869 0.3562,-0.2118 0.7809,-0.7672 1.1007,-0.9001 0.2823,-0.1172 0.5422,0.0445 0.7445,0.1952"/>
   <path id="_346944280" class="fil1 str1" d="M121.238 50.1165c0.1337,0.1395 0.7377,0.5893 0.9401,0.7277 0.9121,0.624 2.8646,0.689 3.7919,0.0935 1.0466,-0.6722 1.4605,-0.8832 2.0841,-0.5237 0.4524,0.2608 0.5246,0.6852 1.5913,0.9996 0.883,0.2602 1.8015,0.26 2.6823,-0.1649 0.9487,-0.4577 1.597,-1.4942 2.5098,-0.59 0.6044,0.5987 1.3082,0.8384 2.2894,0.8432 1.0937,0.0054 1.4776,0.0792 2.3263,-0.5512 1.5818,-1.1747 1.5999,-0.1536 2.6293,0.3291 0.628,0.3765 2.8633,0.3159 3.5407,-0.0869 0.3562,-0.2118 0.7809,-0.7672 1.1007,-0.9001 0.2823,-0.1172 0.5422,0.0445 0.7445,0.1952"/>
   <path id="_346945456" class="fil1 str1" d="M147.312 50.4159c0.1337,0.1395 0.7377,0.5893 0.9401,0.7277 0.9121,0.624 2.8646,0.689 3.7919,0.0935 1.0466,-0.6722 1.4605,-0.8832 2.0841,-0.5237 0.4524,0.2608 0.5246,0.6852 1.5913,0.9996 0.883,0.2602 1.8015,0.26 2.6823,-0.1649 0.9487,-0.4577 1.597,-1.4942 2.5098,-0.59 0.6044,0.5987 1.3083,0.8384 2.2894,0.8432 1.0937,0.0053 1.9338,-0.3759 2.7825,-1.0063"/>
  </g>
  <g id="_346944952">
   <path id="_346948552" class="fil1 str1" d="M37.2103 45.6579c0.1337,0.1395 0.7377,0.5893 0.9401,0.7277 0.9121,0.624 2.8646,0.689 3.7919,0.0935 1.0466,-0.6722 1.4605,-0.8832 2.0841,-0.5237 0.4524,0.2608 0.5246,0.6852 1.5913,0.9996 0.883,0.2602 1.8015,0.26 2.6823,-0.1649 0.9487,-0.4577 1.597,-1.4942 2.5098,-0.59 0.6044,0.5987 1.3082,0.8384 2.2894,0.8432 1.0937,0.0054 1.4776,0.0792 2.3263,-0.5512 1.5818,-1.1747 1.5999,-0.1536 2.6293,0.3291 0.628,0.3765 2.8633,0.3159 3.5407,-0.0869 0.3562,-0.2118 0.7809,-0.7672 1.1007,-0.9001 0.2823,-0.1172 0.5422,0.0445 0.7445,0.1952"/>
   <path id="_346949032" class="fil1 str1" d="M63.2843 45.9573c0.1337,0.1395 0.7377,0.5893 0.9401,0.7277 0.9121,0.624 2.8646,0.689 3.7919,0.0935 1.0466,-0.6722 1.4605,-0.8832 2.0841,-0.5237 0.4524,0.2608 0.5246,0.6852 1.5913,0.9996 0.883,0.2602 1.8015,0.26 2.6823,-0.1649 0.9487,-0.4577 1.597,-1.4942 2.5098,-0.59 0.6044,0.5987 1.3082,0.8384 2.2894,0.8432 1.0937,0.0054 1.4776,0.0792 2.3263,-0.5512 1.5818,-1.1747 1.5999,-0.1536 2.6293,0.3291 0.628,0.3765 2.8633,0.3159 3.5407,-0.0869 0.3562,-0.2118 0.7809,-0.7672 1.1007,-0.9001 0.2823,-0.1172 0.5422,0.0445 0.7445,0.1952"/>
   <path id="_346942768" class="fil1 str1" d="M89.3583 46.2567c0.1337,0.1395 0.7377,0.5893 0.9401,0.7277 0.9121,0.624 2.8646,0.689 3.7919,0.0935 1.0466,-0.6722 1.4605,-0.8832 2.0841,-0.5237 0.4524,0.2608 0.5246,0.6852 1.5913,0.9996 0.883,0.2602 1.8015,0.26 2.6823,-0.1649 0.9487,-0.4577 1.597,-1.4942 2.5098,-0.59 0.6044,0.5987 1.3082,0.8384 2.2894,0.8432 1.0937,0.0054 1.4776,0.0792 2.3263,-0.5512 1.5818,-1.1747 1.5999,-0.1536 2.6293,0.3291 0.628,0.3765 2.8633,0.3159 3.5407,-0.0869 0.3562,-0.2118 0.7809,-0.7672 1.1007,-0.9001 0.2823,-0.1172 0.5422,0.0445 0.7445,0.1952"/>
   <path id="_346942960" class="fil1 str1" d="M115.432 46.5561c0.1337,0.1395 0.7377,0.5893 0.9401,0.7277 0.9121,0.624 2.8646,0.689 3.7919,0.0935 1.0466,-0.6722 1.4605,-0.8832 2.0841,-0.5237 0.4524,0.2608 0.5246,0.6852 1.5913,0.9996 0.883,0.2602 1.8015,0.26 2.6823,-0.1649 0.9487,-0.4577 1.597,-1.4942 2.5098,-0.59 0.6044,0.5987 1.3082,0.8384 2.2894,0.8432 1.0937,0.0054 1.4776,0.0792 2.3263,-0.5512 1.5818,-1.1747 1.5999,-0.1536 2.6293,0.3291 0.628,0.3765 2.8633,0.3159 3.5407,-0.0869 0.3562,-0.2118 0.7809,-0.7672 1.1007,-0.9001 0.2823,-0.1172 0.5422,0.0445 0.7445,0.1952"/>
   <path id="_346946824" class="fil1 str1" d="M141.506 46.8555c0.1337,0.1395 0.7377,0.5893 0.9401,0.7277 0.9121,0.624 2.8646,0.689 3.7919,0.0935 1.0466,-0.6722 1.4605,-0.8832 2.0841,-0.5237 0.4524,0.2608 0.5246,0.6852 1.5913,0.9996 0.883,0.2602 1.8015,0.26 2.6823,-0.1649 0.9487,-0.4577 1.597,-1.4942 2.5098,-0.59 0.6044,0.5987 1.3083,0.8384 2.2894,0.8432 1.0937,0.0053 1.9338,-0.3759 2.7825,-1.0063"/>
  </g>
  <g id="_188347048">
   <path id="_346964344" class="fil1 str1" d="M31.4049 42.0975c0.1337,0.1395 0.7377,0.5893 0.9401,0.7277 0.9121,0.624 2.8646,0.689 3.7919,0.0935 1.0466,-0.6722 1.4605,-0.8832 2.0841,-0.5237 0.4524,0.2608 0.5246,0.6852 1.5913,0.9996 0.883,0.2602 1.8015,0.26 2.6823,-0.1649 0.9487,-0.4577 1.597,-1.4942 2.5098,-0.59 0.6044,0.5987 1.3082,0.8384 2.2894,0.8432 1.0937,0.0054 1.4776,0.0792 2.3263,-0.5512 1.5818,-1.1747 1.5999,-0.1536 2.6293,0.3291 0.628,0.3765 2.8633,0.3159 3.5407,-0.0869 0.3562,-0.2118 0.7809,-0.7672 1.1007,-0.9001 0.2823,-0.1172 0.5422,0.0445 0.7445,0.1952"/>
   <path id="_346945552" class="fil1 str1" d="M57.4789 42.3969c0.1337,0.1395 0.7377,0.5893 0.9401,0.7277 0.9121,0.624 2.8646,0.689 3.7919,0.0935 1.0466,-0.6722 1.4605,-0.8832 2.0841,-0.5237 0.4524,0.2608 0.5246,0.6852 1.5913,0.9996 0.883,0.2602 1.8015,0.26 2.6823,-0.1649 0.9487,-0.4577 1.597,-1.4942 2.5098,-0.59 0.6044,0.5987 1.3082,0.8384 2.2894,0.8432 1.0937,0.0054 1.4776,0.0792 2.3263,-0.5512 1.5818,-1.1747 1.5999,-0.1536 2.6293,0.3291 0.628,0.3765 2.8633,0.3159 3.5407,-0.0869 0.3562,-0.2118 0.7809,-0.7672 1.1007,-0.9001 0.2823,-0.1172 0.5422,0.0445 0.7445,0.1952"/>
   <path id="_346945432" class="fil1 str1" d="M83.5529 42.6963c0.1337,0.1395 0.7377,0.5893 0.9401,0.7277 0.9121,0.624 2.8646,0.689 3.7919,0.0935 1.0466,-0.6722 1.4605,-0.8832 2.0841,-0.5237 0.4524,0.2608 0.5246,0.6852 1.5913,0.9996 0.883,0.2602 1.8015,0.26 2.6823,-0.1649 0.9487,-0.4577 1.597,-1.4942 2.5098,-0.59 0.6044,0.5987 1.3082,0.8384 2.2894,0.8432 1.0937,0.0054 1.4776,0.0792 2.3263,-0.5512 1.5818,-1.1747 1.5999,-0.1536 2.6293,0.3291 0.628,0.3765 2.8633,0.3159 3.5407,-0.0869 0.3562,-0.2118 0.7809,-0.7672 1.1007,-0.9001 0.2823,-0.1172 0.5422,0.0445 0.7445,0.1952"/>
   <path id="_346944328" class="fil1 str1" d="M109.627 42.9957c0.1337,0.1395 0.7377,0.5893 0.9401,0.7277 0.9121,0.624 2.8646,0.689 3.7919,0.0935 1.0466,-0.6722 1.4605,-0.8832 2.0841,-0.5237 0.4524,0.2608 0.5246,0.6852 1.5913,0.9996 0.883,0.2602 1.8015,0.26 2.6823,-0.1649 0.9487,-0.4577 1.597,-1.4942 2.5098,-0.59 0.6044,0.5987 1.3082,0.8384 2.2894,0.8432 1.0937,0.0054 1.4776,0.0792 2.3263,-0.5512 1.5818,-1.1747 1.5999,-0.1536 2.6293,0.3291 0.628,0.3765 2.8633,0.3159 3.5407,-0.0869 0.3562,-0.2118 0.7809,-0.7672 1.1007,-0.9001 0.2823,-0.1172 0.5422,0.0445 0.7445,0.1952"/>
   <path id="_346946152" class="fil1 str1" d="M135.701 43.2951c0.1337,0.1395 0.7377,0.5893 0.9401,0.7277 0.9121,0.624 2.8646,0.689 3.7919,0.0935 1.0466,-0.6722 1.4605,-0.8832 2.0841,-0.5237 0.4524,0.2608 0.5246,0.6852 1.5913,0.9996 0.883,0.2602 1.8015,0.26 2.6823,-0.1649 0.9487,-0.4577 1.597,-1.4942 2.5098,-0.59 0.6044,0.5987 1.3083,0.8384 2.2894,0.8432 1.0937,0.0053 1.9338,-0.3759 2.7825,-1.0063"/>
  </g>
  <g id="_346958416">
   <path id="_346960936" class="fil1 str1" d="M25.5995 38.5371c0.1337,0.1395 0.7377,0.5893 0.9401,0.7277 0.9121,0.624 2.8646,0.689 3.7919,0.0935 1.0466,-0.6722 1.4605,-0.8832 2.0841,-0.5237 0.4524,0.2608 0.5246,0.6852 1.5913,0.9996 0.883,0.2602 1.8015,0.26 2.6823,-0.1649 0.9487,-0.4577 1.597,-1.4942 2.5098,-0.59 0.6044,0.5987 1.3082,0.8384 2.2894,0.8432 1.0937,0.0054 1.4776,0.0792 2.3263,-0.5512 1.5818,-1.1747 1.5999,-0.1536 2.6293,0.3291 0.628,0.3765 2.8633,0.3159 3.5407,-0.0869 0.3562,-0.2118 0.7809,-0.7672 1.1007,-0.9001 0.2823,-0.1172 0.5422,0.0445 0.7445,0.1952"/>
   <path id="_346960768" class="fil1 str1" d="M51.6735 38.8365c0.1337,0.1395 0.7377,0.5893 0.9401,0.7277 0.9121,0.624 2.8646,0.689 3.7919,0.0935 1.0466,-0.6722 1.4605,-0.8832 2.0841,-0.5237 0.4524,0.2608 0.5246,0.6852 1.5913,0.9996 0.883,0.2602 1.8015,0.26 2.6823,-0.1649 0.9487,-0.4577 1.597,-1.4942 2.5098,-0.59 0.6044,0.5987 1.3082,0.8384 2.2894,0.8432 1.0937,0.0054 1.4776,0.0792 2.3263,-0.5512 1.5818,-1.1747 1.5999,-0.1536 2.6293,0.3291 0.628,0.3765 2.8633,0.3159 3.5407,-0.0869 0.3562,-0.2118 0.7809,-0.7672 1.1007,-0.9001 0.2823,-0.1172 0.5422,0.0445 0.7445,0.1952"/>
   <path id="_346942408" class="fil1 str1" d="M77.7475 39.1359c0.1337,0.1395 0.7377,0.5893 0.9401,0.7277 0.9121,0.624 2.8646,0.689 3.7919,0.0935 1.0466,-0.6722 1.4605,-0.8832 2.0841,-0.5237 0.4524,0.2608 0.5246,0.6852 1.5913,0.9996 0.883,0.2602 1.8015,0.26 2.6823,-0.1649 0.9487,-0.4577 1.597,-1.4942 2.5098,-0.59 0.6044,0.5987 1.3082,0.8384 2.2894,0.8432 1.0937,0.0054 1.4776,0.0792 2.3263,-0.5512 1.5818,-1.1747 1.5999,-0.1536 2.6293,0.3291 0.628,0.3765 2.8633,0.3159 3.5407,-0.0869 0.3562,-0.2118 0.7809,-0.7672 1.1007,-0.9001 0.2823,-0.1172 0.5422,0.0445 0.7445,0.1952"/>
   <path id="_346948048" class="fil1 str1" d="M103.822 39.4353c0.1337,0.1395 0.7377,0.5893 0.9401,0.7277 0.9121,0.624 2.8646,0.689 3.7919,0.0935 1.0466,-0.6722 1.4605,-0.8832 2.0841,-0.5237 0.4524,0.2608 0.5246,0.6852 1.5913,0.9996 0.883,0.2602 1.8015,0.26 2.6823,-0.1649 0.9487,-0.4577 1.597,-1.4942 2.5098,-0.59 0.6044,0.5987 1.3082,0.8384 2.2894,0.8432 1.0937,0.0054 1.4776,0.0792 2.3263,-0.5512 1.5818,-1.1747 1.5999,-0.1536 2.6293,0.3291 0.628,0.3765 2.8633,0.3159 3.5407,-0.0869 0.3562,-0.2118 0.7809,-0.7672 1.1007,-0.9001 0.2823,-0.1172 0.5422,0.0445 0.7445,0.1952"/>
   <path id="_346945240" class="fil1 str1" d="M129.896 39.7347c0.1337,0.1395 0.7377,0.5893 0.9401,0.7277 0.9121,0.624 2.8646,0.689 3.7919,0.0935 1.0466,-0.6722 1.4605,-0.8832 2.0841,-0.5237 0.4524,0.2608 0.5246,0.6852 1.5913,0.9996 0.883,0.2602 1.8015,0.26 2.6823,-0.1649 0.9487,-0.4577 1.597,-1.4942 2.5098,-0.59 0.6044,0.5987 1.3083,0.8384 2.2894,0.8432 1.0937,0.0053 1.9338,-0.3759 2.7825,-1.0063"/>
  </g>
  <g id="_188344312">
   <path id="_346958800" class="fil1 str1" d="M19.7941 34.9767c0.1337,0.1395 0.7377,0.5893 0.9401,0.7277 0.9121,0.624 2.8646,0.689 3.7919,0.0935 1.0466,-0.6722 1.4605,-0.8832 2.0841,-0.5237 0.4524,0.2608 0.5246,0.6852 1.5913,0.9996 0.883,0.2602 1.8015,0.26 2.6823,-0.1649 0.9487,-0.4577 1.597,-1.4942 2.5098,-0.59 0.6044,0.5987 1.3082,0.8384 2.2894,0.8432 1.0937,0.0054 1.4776,0.0792 2.3263,-0.5512 1.5818,-1.1747 1.5999,-0.1536 2.6293,0.3291 0.628,0.3765 2.8633,0.3159 3.5407,-0.0869 0.3562,-0.2118 0.7809,-0.7672 1.1007,-0.9001 0.2823,-0.1172 0.5422,0.0445 0.7445,0.1952"/>
   <path id="_346946536" class="fil1 str1" d="M45.8681 35.2761c0.1337,0.1395 0.7377,0.5893 0.9401,0.7277 0.9121,0.624 2.8646,0.689 3.7919,0.0935 1.0466,-0.6722 1.4605,-0.8832 2.0841,-0.5237 0.4524,0.2608 0.5246,0.6852 1.5913,0.9996 0.883,0.2602 1.8015,0.26 2.6823,-0.1649 0.9487,-0.4577 1.597,-1.4942 2.5098,-0.59 0.6044,0.5987 1.3082,0.8384 2.2894,0.8432 1.0937,0.0054 1.4776,0.0792 2.3263,-0.5512 1.5818,-1.1747 1.5999,-0.1536 2.6293,0.3291 0.628,0.3765 2.8633,0.3159 3.5407,-0.0869 0.3562,-0.2118 0.7809,-0.7672 1.1007,-0.9001 0.2823,-0.1172 0.5422,0.0445 0.7445,0.1952"/>
   <path id="_346947256" class="fil1 str1" d="M71.9421 35.5755c0.1337,0.1395 0.7377,0.5893 0.9401,0.7277 0.9121,0.624 2.8646,0.689 3.7919,0.0935 1.0466,-0.6722 1.4605,-0.8832 2.0841,-0.5237 0.4524,0.2608 0.5246,0.6852 1.5913,0.9996 0.883,0.2602 1.8015,0.26 2.6823,-0.1649 0.9487,-0.4577 1.597,-1.4942 2.5098,-0.59 0.6044,0.5987 1.3082,0.8384 2.2894,0.8432 1.0937,0.0054 1.4776,0.0792 2.3263,-0.5512 1.5818,-1.1747 1.5999,-0.1536 2.6293,0.3291 0.628,0.3765 2.8633,0.3159 3.5407,-0.0869 0.3562,-0.2118 0.7809,-0.7672 1.1007,-0.9001 0.2823,-0.1172 0.5422,0.0445 0.7445,0.1952"/>
   <path id="_346950976" class="fil1 str1" d="M98.0161 35.8749c0.1337,0.1395 0.7377,0.5893 0.9401,0.7277 0.9121,0.624 2.8646,0.689 3.7919,0.0935 1.0466,-0.6722 1.4605,-0.8832 2.0841,-0.5237 0.4524,0.2608 0.5246,0.6852 1.5913,0.9996 0.883,0.2602 1.8015,0.26 2.6823,-0.1649 0.9487,-0.4577 1.597,-1.4942 2.5098,-0.59 0.6044,0.5987 1.3082,0.8384 2.2894,0.8432 1.0937,0.0054 1.4776,0.0792 2.3263,-0.5512 1.5818,-1.1747 1.5999,-0.1536 2.6293,0.3291 0.628,0.3765 2.8633,0.3159 3.5407,-0.0869 0.3562,-0.2118 0.7809,-0.7672 1.1007,-0.9001 0.2823,-0.1172 0.5422,0.0445 0.7445,0.1952"/>
   <path id="_346942432" class="fil1 str1" d="M124.09 36.1743c0.1337,0.1395 0.7377,0.5893 0.9401,0.7277 0.9121,0.624 2.8646,0.689 3.7919,0.0935 1.0466,-0.6722 1.4605,-0.8832 2.0841,-0.5237 0.4524,0.2608 0.5246,0.6852 1.5913,0.9996 0.883,0.2602 1.8015,0.26 2.6823,-0.1649 0.9487,-0.4577 1.597,-1.4942 2.5098,-0.59 0.6044,0.5987 1.3083,0.8384 2.2894,0.8432 1.0937,0.0053 1.9338,-0.3759 2.7825,-1.0063"/>
  </g>
  <g id="_346958752">
   <path id="_346962112" class="fil1 str1" d="M13.9887 31.4163c0.1337,0.1395 0.7377,0.5893 0.9401,0.7277 0.9121,0.624 2.8646,0.689 3.7919,0.0935 1.0466,-0.6722 1.4605,-0.8832 2.0841,-0.5237 0.4524,0.2608 0.5246,0.6852 1.5913,0.9996 0.883,0.2602 1.8015,0.26 2.6823,-0.1649 0.9487,-0.4577 1.597,-1.4942 2.5098,-0.59 0.6044,0.5987 1.3082,0.8384 2.2894,0.8432 1.0937,0.0054 1.4776,0.0792 2.3263,-0.5512 1.5818,-1.1747 1.5999,-0.1536 2.6293,0.3291 0.628,0.3765 2.8633,0.3159 3.5407,-0.0869 0.3562,-0.2118 0.7809,-0.7672 1.1007,-0.9001 0.2823,-0.1172 0.5422,0.0445 0.7445,0.1952"/>
   <path id="_346951336" class="fil1 str1" d="M40.0627 31.7157c0.1337,0.1395 0.7377,0.5893 0.9401,0.7277 0.9121,0.624 2.8646,0.689 3.7919,0.0935 1.0466,-0.6722 1.4605,-0.8832 2.0841,-0.5237 0.4524,0.2608 0.5246,0.6852 1.5913,0.9996 0.883,0.2602 1.8015,0.26 2.6823,-0.1649 0.9487,-0.4577 1.597,-1.4942 2.5098,-0.59 0.6044,0.5987 1.3082,0.8384 2.2894,0.8432 1.0937,0.0054 1.4776,0.0792 2.3263,-0.5512 1.5818,-1.1747 1.5999,-0.1536 2.6293,0.3291 0.628,0.3765 2.8633,0.3159 3.5407,-0.0869 0.3562,-0.2118 0.7809,-0.7672 1.1007,-0.9001 0.2823,-0.1172 0.5422,0.0445 0.7445,0.1952"/>
   <path id="_346951456" class="fil1 str1" d="M66.1367 32.0151c0.1337,0.1395 0.7377,0.5893 0.9401,0.7277 0.9121,0.624 2.8646,0.689 3.7919,0.0935 1.0466,-0.6722 1.4605,-0.8832 2.0841,-0.5237 0.4524,0.2608 0.5246,0.6852 1.5913,0.9996 0.883,0.2602 1.8015,0.26 2.6823,-0.1649 0.9487,-0.4577 1.597,-1.4942 2.5098,-0.59 0.6044,0.5987 1.3082,0.8384 2.2894,0.8432 1.0937,0.0054 1.4776,0.0792 2.3263,-0.5512 1.5818,-1.1747 1.5999,-0.1536 2.6293,0.3291 0.628,0.3765 2.8633,0.3159 3.5407,-0.0869 0.3562,-0.2118 0.7809,-0.7672 1.1007,-0.9001 0.2823,-0.1172 0.5422,0.0445 0.7445,0.1952"/>
   <path id="_346950232" class="fil1 str1" d="M92.2107 32.3145c0.1337,0.1395 0.7377,0.5893 0.9401,0.7277 0.9121,0.624 2.8646,0.689 3.7919,0.0935 1.0466,-0.6722 1.4605,-0.8832 2.0841,-0.5237 0.4524,0.2608 0.5246,0.6852 1.5913,0.9996 0.883,0.2602 1.8015,0.26 2.6823,-0.1649 0.9487,-0.4577 1.597,-1.4942 2.5098,-0.59 0.6044,0.5987 1.3082,0.8384 2.2894,0.8432 1.0937,0.0054 1.4776,0.0792 2.3263,-0.5512 1.5818,-1.1747 1.5999,-0.1536 2.6293,0.3291 0.628,0.3765 2.8633,0.3159 3.5407,-0.0869 0.3562,-0.2118 0.7809,-0.7672 1.1007,-0.9001 0.2823,-0.1172 0.5422,0.0445 0.7445,0.1952"/>
   <path id="_346949416" class="fil1 str1" d="M118.285 32.6139c0.1337,0.1395 0.7377,0.5893 0.9401,0.7277 0.9121,0.624 2.8646,0.689 3.7919,0.0935 1.0466,-0.6722 1.4605,-0.8832 2.0841,-0.5237 0.4524,0.2608 0.5246,0.6852 1.5913,0.9996 0.883,0.2602 1.8015,0.26 2.6823,-0.1649 0.9487,-0.4577 1.597,-1.4942 2.5098,-0.59 0.6044,0.5987 1.3083,0.8384 2.2894,0.8432 1.0937,0.0053 1.9338,-0.3759 2.7825,-1.0063"/>
  </g>
  <line class="fil1 str2" x1="20.8048" y1="31.7138" x2="91.8991" y2= "75.1982" />
  <line class="fil1 str2" x1="27.108" y1="31.751" x2="98.2023" y2= "75.2354" />
  <line class="fil1 str2" x1="33.7879" y1="31.7711" x2="104.882" y2= "75.2555" />
  <line class="fil1 str2" x1="40.4678" y1="31.7912" x2="111.562" y2= "75.2756" />
  <line class="fil1 str2" x1="46.576" y1="31.9132" x2="117.67" y2= "75.3976" />
  <line class="fil1 str2" x1="53.4343" y1="32.046" x2="124.529" y2= "75.5304" />
  <line class="fil1 str2" x1="59.8424" y1="32.1941" x2="130.937" y2= "75.6785" />
  <line class="fil1 str2" x1="66.3989" y1="32.2158" x2="137.493" y2= "75.7002" />
  <line class="fil1 str2" x1="72.7278" y1="32.2329" x2="143.822" y2= "75.7173" />
  <line class="fil1 str2" x1="79.1596" y1="32.1659" x2="150.254" y2= "75.6503" />
  <line class="fil1 str2" x1="85.817" y1="32.2389" x2="156.911" y2= "75.7233" />
  <line class="fil1 str2" x1="92.1607" y1="32.304" x2="163.255" y2= "75.7884" />
  <line class="fil1 str2" x1="98.7261" y1="32.3111" x2="169.82" y2= "75.7955" />
  <line class="fil1 str2" x1="105.075" y1="32.4848" x2="176.169" y2= "75.9692" />
  <line class="fil1 str2" x1="111.695" y1="32.4856" x2="182.789" y2= "75.97" />
  <line class="fil1 str2" x1="117.563" y1="32.3144" x2="188.658" y2= "75.7988" />
  <line class="fil1 str2" x1="123.771" y1="32.3645" x2="194.865" y2= "75.8489" />
  <line class="fil1 str2" x1="131.181" y1="32.547" x2="202.275" y2= "76.0314" />
 </g>
</svg>
