<?xml version="1.0" encoding="UTF-8"?>
<!DOCTYPE svg PUBLIC "-//W3C//DTD SVG 1.1//EN" "http://www.w3.org/Graphics/SVG/1.1/DTD/svg11.dtd">
<!-- Creator: CorelDRAW -->
<svg xmlns="http://www.w3.org/2000/svg" xml:space="preserve" width="210mm" height="297mm" style="shape-rendering:geometricPrecision; text-rendering:geometricPrecision; image-rendering:optimizeQuality; fill-rule:evenodd; clip-rule:evenodd"
viewBox="0 0 210 297"
 xmlns:xlink="http://www.w3.org/1999/xlink">
 <defs>
  <style type="text/css">
   <![CDATA[
    .str1 {stroke:#333333;stroke-width:0.25}
    .str0 {stroke:#333333;stroke-width:0.5}
    .fil0 {fill:none}
    .fil1 {fill:#9E312B}
    .fil2 {fill:#B83932}
   ]]>
  </style>
 </defs>
 <g id="Слой_x0020_1">
  <metadata id="CorelCorpID_0Corel-Layer"/>
  <line class="fil0 str0" x1="26.7939" y1="17.4161" x2="27.5296" y2= "100.81" />
  <line class="fil0 str0" x1="100.06" y1="75.0997" x2="99.5926" y2= "101.518" />
  <line class="fil0 str0" x1="191.181" y1="75.834" x2="191.485" y2= "102.41" />
  <line class="fil0 str0" x1="2.8634" y1="100.577" x2="201.642" y2= "102.512" />
  <g id="_365274448">
   <polygon id="_362758280" class="fil1 str1" points="9.594,1.4417 85.0596,74.6467 206.725,75.8873 134.359,2.2597 "/>
   <polygon id="_362748056" class="fil2 str1" points="9.3377,1.2834 12.1825,4.043 137.133,5.1837 134.103,2.1015 "/>
   <g id="_197247856">
    <path id="_197247352" class="fil0 str1" d="M79.7756 68.9266c1.2215,-1.6036 1.6326,-1.7499 1.9735,-1.8132 0.1454,-0.027 0.6497,0.0182 1.1311,0.3721 0.6474,0.4761 1.7385,1.8677 1.7385,1.8677 0.721,-0.9501 1.6577,-2.5862 2.7556,-2.1667 0.3518,0.1346 0.5383,0.3517 0.8449,0.6726l1.2384 1.3005c0.3121,-0.3847 0.5705,-0.9229 0.8826,-1.3075 0.2678,-0.4322 0.4983,-0.6973 0.975,-0.7848 0.3286,-0.0058 0.6093,0.0301 0.9858,0.4265 0.4195,0.4406 0.8983,1.0007 1.4519,1.6889 0.175,-0.2274 0.3615,-0.5759 0.5365,-0.8035 0.273,-0.3889 0.5298,-0.7863 0.9474,-0.9792 0.2729,-0.1044 0.5857,-0.1536 0.8894,0.0597 0.4696,0.276 1.3836,1.1464 1.8911,1.7061"/>
    <path id="_197248648" class="fil0 str1" d="M97.8836 69.1535c1.2215,-1.6036 1.6326,-1.75 1.9735,-1.8132 0.1454,-0.027 0.6497,0.0182 1.1311,0.3721 0.6474,0.4761 1.7385,1.8677 1.7385,1.8677 0.721,-0.9501 1.6577,-2.5862 2.7556,-2.1667 0.3518,0.1346 0.5383,0.3517 0.8449,0.6726l1.2384 1.3005c0.3121,-0.3847 0.5705,-0.9229 0.8826,-1.3075 0.2678,-0.4322 0.4983,-0.6973 0.975,-0.7848 0.3286,-0.0058 0.6093,0.03 0.9858,0.4265 0.4195,0.4406 0.8983,1.0007 1.4519,1.6889 0.175,-0.2274 0.3615,-0.5759 0.5365,-0.8035 0.273,-0.3889 0.5298,-0.7864 0.9474,-0.9792 0.2729,-0.1044 0.5857,-0.1536 0.8894,0.0597 0.4696,0.276 1.3836,1.1464 1.8911,1.7061"/>
    <path id="_197247448" class="fil0 str1" d="M115.94 69.5051c1.2215,-1.6037 1.6326,-1.75 1.9735,-1.8132 0.1454,-0.0271 0.6497,0.0181 1.1311,0.3721 0.6474,0.4761 1.7385,1.8677 1.7385,1.8677 0.721,-0.9501 1.6577,-2.5863 2.7556,-2.1667 0.3518,0.1345 0.5383,0.3517 0.8449,0.6725l1.2384 1.3005c0.3121,-0.3846 0.5705,-0.9228 0.8826,-1.3075 0.2678,-0.4321 0.4983,-0.6972 0.975,-0.7848 0.3286,-0.0057 0.6093,0.0301 0.9858,0.4266 0.4195,0.4405 0.8983,1.0007 1.4519,1.6888 0.175,-0.2273 0.3615,-0.5759 0.5365,-0.8034 0.273,-0.389 0.5298,-0.7864 0.9474,-0.9792 0.2729,-0.1045 0.5857,-0.1537 0.8894,0.0597 0.4696,0.2759 1.3836,1.1464 1.8911,1.706"/>
    <path id="_197250208" class="fil0 str1" d="M133.996 69.8567c1.2215,-1.6037 1.6326,-1.75 1.9735,-1.8133 0.1454,-0.027 0.6497,0.0182 1.1311,0.3721 0.6474,0.4761 1.7385,1.8677 1.7385,1.8677 0.721,-0.9501 1.6577,-2.5862 2.7556,-2.1667 0.3518,0.1346 0.5383,0.3518 0.8449,0.6726l1.2384 1.3005c0.3121,-0.3847 0.5705,-0.9228 0.8826,-1.3075 0.2678,-0.4322 0.4983,-0.6973 0.975,-0.7848 0.3286,-0.0058 0.6093,0.0301 0.9858,0.4265 0.4195,0.4406 0.8983,1.0007 1.4519,1.6889 0.175,-0.2274 0.3615,-0.5759 0.5365,-0.8034 0.273,-0.389 0.5298,-0.7864 0.9474,-0.9793 0.2729,-0.1044 0.5857,-0.1536 0.8894,0.0598 0.4696,0.2759 1.3836,1.1463 1.8911,1.706"/>
    <path id="_197256568" class="fil0 str1" d="M152.053 70.2082c1.2215,-1.6037 1.6326,-1.75 1.9735,-1.8132 0.1454,-0.0271 0.6497,0.0182 1.1311,0.3721 0.6474,0.4761 1.7385,1.8677 1.7385,1.8677 0.721,-0.9501 1.6577,-2.5863 2.7556,-2.1667 0.3518,0.1345 0.5383,0.3517 0.8449,0.6725l1.2384 1.3006c0.3121,-0.3847 0.5705,-0.9229 0.8826,-1.3076 0.2678,-0.4321 0.4983,-0.6972 0.975,-0.7848 0.3286,-0.0057 0.6093,0.0301 0.9858,0.4266 0.4195,0.4406 0.8983,1.0007 1.4519,1.6888 0.175,-0.2273 0.3615,-0.5759 0.5365,-0.8034 0.273,-0.389 0.5298,-0.7864 0.9474,-0.9792 0.2729,-0.1044 0.5857,-0.1536 0.8894,0.0597 0.4696,0.2759 1.3836,1.1464 1.8911,1.7061"/>
    <path id="_197256688" class="fil0 str1" d="M170.109 70.5598c1.2215,-1.6037 1.6326,-1.75 1.9735,-1.8132 0.1454,-0.0271 0.6497,0.0181 1.1311,0.3721 0.6474,0.476 1.7385,1.8676 1.7385,1.8676 0.721,-0.95 1.6577,-2.5862 2.7556,-2.1666 0.3518,0.1345 0.5383,0.3517 0.8449,0.6725l1.2384 1.3005c0.3121,-0.3847 0.5705,-0.9228 0.8826,-1.3075 0.2678,-0.4321 0.4983,-0.6972 0.975,-0.7848 0.3286,-0.0057 0.6093,0.0301 0.9858,0.4265 0.4195,0.4406 0.8983,1.0008 1.4519,1.6889 0.175,-0.2274 0.3615,-0.5759 0.5365,-0.8034 0.273,-0.389 0.5298,-0.7864 0.9474,-0.9792 0.2729,-0.1045 0.5857,-0.1537 0.8894,0.0597 0.4696,0.2759 1.3836,1.1464 1.8911,1.706"/>
    <path id="_197252128" class="fil0 str1" d="M188.166 70.9113c1.2215,-1.6036 1.6326,-1.75 1.9735,-1.8132 0.1454,-0.027 0.6497,0.0182 1.1311,0.3721 0.6474,0.4761 1.7385,1.8677 1.7385,1.8677 0.721,-0.9501 1.6577,-2.5862 2.7556,-2.1667 0.3518,0.1346 0.5383,0.3517 0.8449,0.6726l1.2384 1.3005c0.3121,-0.3847 0.5705,-0.9229 0.8826,-1.3075 0.2678,-0.4322 0.4983,-0.6973 0.975,-0.7848 0.3286,-0.0058 0.6093,0.03 0.9858,0.4265 0.4195,0.4406 0.8983,1.0007 1.4519,1.6889"/>
   </g>
   <g id="_197248192">
    <path id="_197251240" class="fil0 str1" d="M72.9136 62.8508c1.2215,-1.6037 1.6326,-1.75 1.9735,-1.8132 0.1454,-0.0271 0.6497,0.0181 1.1311,0.3721 0.6474,0.476 1.7385,1.8676 1.7385,1.8676 0.721,-0.95 1.6577,-2.5862 2.7556,-2.1666 0.3518,0.1345 0.5383,0.3517 0.8449,0.6725l1.2384 1.3005c0.3121,-0.3847 0.5705,-0.9228 0.8826,-1.3075 0.2678,-0.4321 0.4983,-0.6972 0.975,-0.7848 0.3286,-0.0057 0.6093,0.0301 0.9858,0.4265 0.4195,0.4406 0.8983,1.0008 1.4519,1.6889 0.175,-0.2274 0.3615,-0.5759 0.5365,-0.8034 0.273,-0.389 0.5298,-0.7864 0.9474,-0.9792 0.2729,-0.1045 0.5857,-0.1537 0.8894,0.0597 0.4696,0.2759 1.3836,1.1464 1.8911,1.706"/>
    <path id="_197248744" class="fil0 str1" d="M91.0216 63.0777c1.2215,-1.6037 1.6326,-1.75 1.9735,-1.8132 0.1454,-0.0271 0.6497,0.0181 1.1311,0.3721 0.6474,0.476 1.7385,1.8676 1.7385,1.8676 0.721,-0.9501 1.6577,-2.5862 2.7556,-2.1667 0.3518,0.1346 0.5383,0.3518 0.8449,0.6726l1.2384 1.3005c0.3121,-0.3847 0.5705,-0.9228 0.8826,-1.3075 0.2678,-0.4321 0.4983,-0.6972 0.975,-0.7848 0.3286,-0.0057 0.6093,0.0301 0.9858,0.4265 0.4195,0.4406 0.8983,1.0007 1.4519,1.6889 0.175,-0.2274 0.3615,-0.5759 0.5365,-0.8034 0.273,-0.389 0.5298,-0.7864 0.9474,-0.9792 0.2729,-0.1045 0.5857,-0.1537 0.8894,0.0597 0.4696,0.2759 1.3836,1.1464 1.8911,1.706"/>
    <path id="_197247472" class="fil0 str1" d="M109.078 63.4292c1.2215,-1.6036 1.6326,-1.75 1.9735,-1.8132 0.1454,-0.027 0.6497,0.0182 1.1311,0.3721 0.6474,0.4761 1.7385,1.8677 1.7385,1.8677 0.721,-0.9501 1.6577,-2.5862 2.7556,-2.1667 0.3518,0.1345 0.5383,0.3517 0.8449,0.6726l1.2384 1.3005c0.3121,-0.3847 0.5705,-0.9229 0.8826,-1.3076 0.2678,-0.4321 0.4983,-0.6972 0.975,-0.7848 0.3286,-0.0057 0.6093,0.0301 0.9858,0.4266 0.4195,0.4406 0.8983,1.0007 1.4519,1.6889 0.175,-0.2274 0.3615,-0.5759 0.5365,-0.8035 0.273,-0.389 0.5298,-0.7864 0.9474,-0.9792 0.2729,-0.1044 0.5857,-0.1536 0.8894,0.0597 0.4696,0.276 1.3836,1.1464 1.8911,1.7061"/>
    <path id="_197249104" class="fil0 str1" d="M127.134 63.7808c1.2215,-1.6037 1.6326,-1.75 1.9735,-1.8132 0.1454,-0.0271 0.6497,0.0181 1.1311,0.3721 0.6474,0.476 1.7385,1.8676 1.7385,1.8676 0.721,-0.95 1.6577,-2.5862 2.7556,-2.1666 0.3518,0.1345 0.5383,0.3517 0.8449,0.6725l1.2384 1.3005c0.3121,-0.3846 0.5705,-0.9228 0.8826,-1.3075 0.2678,-0.4321 0.4983,-0.6972 0.975,-0.7848 0.3286,-0.0057 0.6093,0.0301 0.9858,0.4266 0.4195,0.4405 0.8983,1.0007 1.4519,1.6888 0.175,-0.2274 0.3615,-0.5759 0.5365,-0.8034 0.273,-0.389 0.5298,-0.7864 0.9474,-0.9792 0.2729,-0.1045 0.5857,-0.1537 0.8894,0.0597 0.4696,0.2759 1.3836,1.1464 1.8911,1.706"/>
    <path id="_194944632" class="fil0 str1" d="M145.191 64.1323c1.2215,-1.6036 1.6326,-1.7499 1.9735,-1.8132 0.1454,-0.027 0.6497,0.0182 1.1311,0.3721 0.6474,0.4761 1.7385,1.8677 1.7385,1.8677 0.721,-0.9501 1.6577,-2.5862 2.7556,-2.1667 0.3518,0.1346 0.5383,0.3517 0.8449,0.6726l1.2384 1.3005c0.3121,-0.3847 0.5705,-0.9229 0.8826,-1.3075 0.2678,-0.4322 0.4983,-0.6973 0.975,-0.7848 0.3286,-0.0058 0.6093,0.0301 0.9858,0.4265 0.4195,0.4406 0.8983,1.0007 1.4519,1.6889 0.175,-0.2274 0.3615,-0.5759 0.5365,-0.8035 0.273,-0.3889 0.5298,-0.7863 0.9474,-0.9792 0.2729,-0.1044 0.5857,-0.1536 0.8894,0.0597 0.4696,0.276 1.3836,1.1464 1.8911,1.7061"/>
    <path id="_194950776" class="fil0 str1" d="M163.247 64.4839c1.2215,-1.6037 1.6326,-1.75 1.9735,-1.8132 0.1454,-0.0271 0.6497,0.0182 1.1311,0.3721 0.6474,0.4761 1.7385,1.8677 1.7385,1.8677 0.721,-0.9501 1.6577,-2.5863 2.7556,-2.1667 0.3518,0.1345 0.5383,0.3517 0.8449,0.6725l1.2384 1.3005c0.3121,-0.3846 0.5705,-0.9228 0.8826,-1.3075 0.2678,-0.4321 0.4983,-0.6972 0.975,-0.7848 0.3286,-0.0057 0.6093,0.0301 0.9858,0.4266 0.4195,0.4405 0.8983,1.0007 1.4519,1.6888 0.175,-0.2273 0.3615,-0.5759 0.5365,-0.8034 0.273,-0.389 0.5298,-0.7864 0.9474,-0.9792 0.2729,-0.1045 0.5857,-0.1537 0.8894,0.0597 0.4696,0.2759 1.3836,1.1464 1.8911,1.7061"/>
    <path id="_194951160" class="fil0 str1" d="M181.304 64.8355c1.2215,-1.6037 1.6326,-1.75 1.9735,-1.8132 0.1454,-0.0271 0.6497,0.0181 1.1311,0.3721 0.6474,0.476 1.7385,1.8676 1.7385,1.8676 0.721,-0.9501 1.6577,-2.5862 2.7556,-2.1667 0.3518,0.1346 0.5383,0.3518 0.8449,0.6726l1.2384 1.3005c0.3121,-0.3847 0.5705,-0.9228 0.8826,-1.3075 0.2678,-0.4321 0.4983,-0.6972 0.975,-0.7848 0.3286,-0.0057 0.6093,0.0301 0.9858,0.4265 0.4195,0.4406 0.8983,1.0007 1.4519,1.6889"/>
   </g>
   <g id="_197248120">
    <path id="_197247208" class="fil0 str1" d="M66.4361 56.6372c1.2215,-1.6037 1.6326,-1.75 1.9735,-1.8132 0.1454,-0.0271 0.6497,0.0181 1.1311,0.3721 0.6474,0.476 1.7385,1.8676 1.7385,1.8676 0.721,-0.95 1.6577,-2.5862 2.7556,-2.1666 0.3518,0.1345 0.5383,0.3517 0.8449,0.6725l1.2384 1.3005c0.3121,-0.3847 0.5705,-0.9228 0.8826,-1.3075 0.2678,-0.4321 0.4983,-0.6972 0.975,-0.7848 0.3286,-0.0057 0.6093,0.0301 0.9858,0.4266 0.4195,0.4405 0.8983,1.0007 1.4519,1.6888 0.175,-0.2274 0.3615,-0.5759 0.5365,-0.8034 0.273,-0.389 0.5298,-0.7864 0.9474,-0.9792 0.2729,-0.1045 0.5857,-0.1537 0.8894,0.0597 0.4696,0.2759 1.3836,1.1464 1.8911,1.706"/>
    <path id="_197257168" class="fil0 str1" d="M84.5441 56.8641c1.2215,-1.6037 1.6326,-1.75 1.9735,-1.8132 0.1454,-0.0271 0.6497,0.0181 1.1311,0.3721 0.6474,0.476 1.7385,1.8676 1.7385,1.8676 0.721,-0.95 1.6577,-2.5862 2.7556,-2.1667 0.3518,0.1346 0.5383,0.3518 0.8449,0.6726l1.2384 1.3005c0.3121,-0.3847 0.5705,-0.9228 0.8826,-1.3075 0.2678,-0.4321 0.4983,-0.6972 0.975,-0.7848 0.3286,-0.0057 0.6093,0.0301 0.9858,0.4265 0.4195,0.4406 0.8983,1.0007 1.4519,1.6889 0.175,-0.2274 0.3615,-0.5759 0.5365,-0.8034 0.273,-0.389 0.5298,-0.7864 0.9474,-0.9792 0.2729,-0.1045 0.5857,-0.1537 0.8894,0.0597 0.4696,0.2759 1.3836,1.1464 1.8911,1.706"/>
    <path id="_194951352" class="fil0 str1" d="M102.601 57.2156c1.2215,-1.6036 1.6326,-1.75 1.9735,-1.8132 0.1454,-0.027 0.6497,0.0182 1.1311,0.3721 0.6474,0.4761 1.7385,1.8677 1.7385,1.8677 0.721,-0.9501 1.6577,-2.5862 2.7556,-2.1667 0.3518,0.1345 0.5383,0.3517 0.8449,0.6726l1.2384 1.3005c0.3121,-0.3847 0.5705,-0.9229 0.8826,-1.3075 0.2678,-0.4322 0.4983,-0.6973 0.975,-0.7848 0.3286,-0.0058 0.6093,0.03 0.9858,0.4265 0.4195,0.4406 0.8983,1.0007 1.4519,1.6889 0.175,-0.2274 0.3615,-0.5759 0.5365,-0.8035 0.273,-0.3889 0.5298,-0.7864 0.9474,-0.9792 0.2729,-0.1044 0.5857,-0.1536 0.8894,0.0597 0.4696,0.276 1.3836,1.1464 1.8911,1.7061"/>
    <path id="_195127048" class="fil0 str1" d="M120.657 57.5672c1.2215,-1.6037 1.6326,-1.75 1.9735,-1.8132 0.1454,-0.0271 0.6497,0.0181 1.1311,0.3721 0.6474,0.4761 1.7385,1.8676 1.7385,1.8676 0.721,-0.95 1.6577,-2.5862 2.7556,-2.1666 0.3518,0.1345 0.5383,0.3517 0.8449,0.6725l1.2384 1.3005c0.3121,-0.3846 0.5705,-0.9228 0.8826,-1.3075 0.2678,-0.4321 0.4983,-0.6972 0.975,-0.7848 0.3286,-0.0057 0.6093,0.0301 0.9858,0.4266 0.4195,0.4405 0.8983,1.0007 1.4519,1.6888 0.175,-0.2273 0.3615,-0.5759 0.5365,-0.8034 0.273,-0.389 0.5298,-0.7864 0.9474,-0.9792 0.2729,-0.1045 0.5857,-0.1537 0.8894,0.0597 0.4696,0.2759 1.3836,1.1464 1.8911,1.706"/>
    <path id="_195127240" class="fil0 str1" d="M138.713 57.9188c1.2215,-1.6037 1.6326,-1.75 1.9735,-1.8133 0.1454,-0.027 0.6497,0.0182 1.1311,0.3721 0.6474,0.4761 1.7385,1.8677 1.7385,1.8677 0.721,-0.9501 1.6577,-2.5862 2.7556,-2.1667 0.3518,0.1346 0.5383,0.3517 0.8449,0.6726l1.2384 1.3005c0.3121,-0.3847 0.5705,-0.9229 0.8826,-1.3075 0.2678,-0.4322 0.4983,-0.6973 0.975,-0.7848 0.3286,-0.0058 0.6093,0.0301 0.9858,0.4265 0.4195,0.4406 0.8983,1.0007 1.4519,1.6889 0.175,-0.2274 0.3615,-0.5759 0.5365,-0.8034 0.273,-0.389 0.5298,-0.7864 0.9474,-0.9793 0.2729,-0.1044 0.5857,-0.1536 0.8894,0.0597 0.4696,0.276 1.3836,1.1464 1.8911,1.7061"/>
    <path id="_195127432" class="fil0 str1" d="M156.77 58.2703c1.2215,-1.6037 1.6326,-1.75 1.9735,-1.8132 0.1454,-0.0271 0.6497,0.0182 1.1311,0.3721 0.6474,0.4761 1.7385,1.8677 1.7385,1.8677 0.721,-0.9501 1.6577,-2.5863 2.7556,-2.1667 0.3518,0.1345 0.5383,0.3517 0.8449,0.6725l1.2384 1.3006c0.3121,-0.3847 0.5705,-0.9229 0.8826,-1.3076 0.2678,-0.4321 0.4983,-0.6972 0.975,-0.7848 0.3286,-0.0057 0.6093,0.0301 0.9858,0.4266 0.4195,0.4405 0.8983,1.0007 1.4519,1.6888 0.175,-0.2273 0.3615,-0.5759 0.5365,-0.8034 0.273,-0.389 0.5298,-0.7864 0.9474,-0.9792 0.2729,-0.1044 0.5857,-0.1536 0.8894,0.0597 0.4696,0.2759 1.3836,1.1464 1.8911,1.7061"/>
    <path id="_195128008" class="fil0 str1" d="M174.826 58.6219c1.2215,-1.6037 1.6326,-1.75 1.9735,-1.8132 0.1454,-0.0271 0.6497,0.0181 1.1311,0.3721 0.6474,0.476 1.7385,1.8676 1.7385,1.8676 0.721,-0.95 1.6577,-2.5862 2.7556,-2.1667 0.3518,0.1346 0.5383,0.3518 0.8449,0.6726l1.2384 1.3005c0.3121,-0.3847 0.5705,-0.9228 0.8826,-1.3075 0.2678,-0.4321 0.4983,-0.6972 0.975,-0.7848 0.3286,-0.0057 0.6093,0.0301 0.9858,0.4265 0.4195,0.4406 0.8983,1.0007 1.4519,1.6889"/>
   </g>
   <g id="_197257072">
    <path id="_195130696" class="fil0 str1" d="M59.8147 50.2878c1.2215,-1.6037 1.6326,-1.75 1.9735,-1.8132 0.1454,-0.0271 0.6497,0.0181 1.1311,0.3721 0.6474,0.476 1.7385,1.8676 1.7385,1.8676 0.721,-0.95 1.6577,-2.5862 2.7556,-2.1667 0.3518,0.1346 0.5383,0.3518 0.8449,0.6726l1.2384 1.3005c0.3121,-0.3847 0.5705,-0.9228 0.8826,-1.3075 0.2678,-0.4321 0.4983,-0.6972 0.975,-0.7848 0.3286,-0.0057 0.6093,0.0301 0.9858,0.4265 0.4195,0.4406 0.8983,1.0007 1.4519,1.6889 0.175,-0.2274 0.3615,-0.5759 0.5365,-0.8034 0.273,-0.389 0.5298,-0.7864 0.9474,-0.9792 0.2729,-0.1045 0.5857,-0.1537 0.8894,0.0597 0.4696,0.2759 1.3836,1.1464 1.8911,1.706"/>
    <path id="_195130888" class="fil0 str1" d="M77.9227 50.5147c1.2215,-1.6037 1.6326,-1.75 1.9735,-1.8132 0.1454,-0.0271 0.6497,0.0181 1.1311,0.3721 0.6474,0.476 1.7385,1.8676 1.7385,1.8676 0.721,-0.9501 1.6577,-2.5862 2.7556,-2.1667 0.3518,0.1346 0.5383,0.3518 0.8449,0.6726l1.2384 1.3005c0.3121,-0.3847 0.5705,-0.9228 0.8826,-1.3075 0.2678,-0.4321 0.4983,-0.6972 0.975,-0.7848 0.3286,-0.0058 0.6093,0.0301 0.9858,0.4265 0.4195,0.4406 0.8983,1.0007 1.4519,1.6889 0.175,-0.2274 0.3615,-0.5759 0.5365,-0.8034 0.273,-0.389 0.5298,-0.7864 0.9474,-0.9792 0.2729,-0.1045 0.5857,-0.1537 0.8894,0.0597 0.4696,0.2759 1.3836,1.1463 1.8911,1.706"/>
    <path id="_195131080" class="fil0 str1" d="M95.9791 50.8662c1.2215,-1.6037 1.6326,-1.75 1.9735,-1.8132 0.1454,-0.0271 0.6497,0.0182 1.1311,0.3721 0.6474,0.4761 1.7385,1.8677 1.7385,1.8677 0.721,-0.9501 1.6577,-2.5863 2.7556,-2.1667 0.3518,0.1345 0.5383,0.3517 0.8449,0.6725l1.2384 1.3006c0.3121,-0.3847 0.5705,-0.9229 0.8826,-1.3076 0.2678,-0.4321 0.4983,-0.6972 0.975,-0.7848 0.3286,-0.0057 0.6093,0.0301 0.9858,0.4266 0.4195,0.4406 0.8983,1.0007 1.4519,1.6888 0.175,-0.2273 0.3615,-0.5759 0.5365,-0.8034 0.273,-0.389 0.5298,-0.7864 0.9474,-0.9792 0.2729,-0.1044 0.5857,-0.1536 0.8894,0.0597 0.4696,0.2759 1.3836,1.1464 1.8911,1.7061"/>
    <path id="_195131272" class="fil0 str1" d="M114.036 51.2178c1.2215,-1.6037 1.6326,-1.75 1.9735,-1.8132 0.1454,-0.0271 0.6497,0.0181 1.1311,0.3721 0.6474,0.476 1.7385,1.8676 1.7385,1.8676 0.721,-0.95 1.6577,-2.5862 2.7556,-2.1666 0.3518,0.1345 0.5383,0.3517 0.8449,0.6725l1.2384 1.3005c0.3121,-0.3847 0.5705,-0.9228 0.8826,-1.3075 0.2678,-0.4321 0.4983,-0.6972 0.975,-0.7848 0.3286,-0.0057 0.6093,0.0301 0.9858,0.4266 0.4195,0.4405 0.8983,1.0007 1.4519,1.6888 0.175,-0.2274 0.3615,-0.5759 0.5365,-0.8034 0.273,-0.389 0.5298,-0.7864 0.9474,-0.9792 0.2729,-0.1045 0.5857,-0.1537 0.8894,0.0597 0.4696,0.2759 1.3836,1.1464 1.8911,1.706"/>
    <path id="_195131464" class="fil0 str1" d="M132.092 51.5693c1.2215,-1.6036 1.6326,-1.75 1.9735,-1.8132 0.1454,-0.027 0.6497,0.0182 1.1311,0.3721 0.6474,0.4761 1.7385,1.8677 1.7385,1.8677 0.721,-0.9501 1.6577,-2.5862 2.7556,-2.1667 0.3518,0.1346 0.5383,0.3517 0.8449,0.6726l1.2384 1.3005c0.3121,-0.3847 0.5705,-0.9229 0.8826,-1.3075 0.2678,-0.4322 0.4983,-0.6973 0.975,-0.7848 0.3286,-0.0058 0.6093,0.0301 0.9858,0.4265 0.4195,0.4406 0.8983,1.0007 1.4519,1.6889 0.175,-0.2274 0.3615,-0.5759 0.5365,-0.8035 0.273,-0.3889 0.5298,-0.7864 0.9474,-0.9792 0.2729,-0.1044 0.5857,-0.1536 0.8894,0.0597 0.4696,0.276 1.3836,1.1464 1.8911,1.7061"/>
    <path id="_195131656" class="fil0 str1" d="M150.148 51.9209c1.2215,-1.6037 1.6326,-1.75 1.9735,-1.8132 0.1454,-0.0271 0.6497,0.0181 1.1311,0.3721 0.6474,0.4761 1.7385,1.8677 1.7385,1.8677 0.721,-0.9501 1.6577,-2.5863 2.7556,-2.1667 0.3518,0.1345 0.5383,0.3517 0.8449,0.6725l1.2384 1.3005c0.3121,-0.3846 0.5705,-0.9228 0.8826,-1.3075 0.2678,-0.4321 0.4983,-0.6972 0.975,-0.7848 0.3286,-0.0057 0.6093,0.0301 0.9858,0.4266 0.4195,0.4405 0.8983,1.0007 1.4519,1.6888 0.175,-0.2273 0.3615,-0.5759 0.5365,-0.8034 0.273,-0.389 0.5298,-0.7864 0.9474,-0.9792 0.2729,-0.1045 0.5857,-0.1537 0.8894,0.0597 0.4696,0.2759 1.3836,1.1464 1.8911,1.7061"/>
    <path id="_195131848" class="fil0 str1" d="M168.205 52.2725c1.2215,-1.6037 1.6326,-1.75 1.9735,-1.8132 0.1454,-0.0271 0.6497,0.0181 1.1311,0.3721 0.6474,0.476 1.7385,1.8676 1.7385,1.8676 0.721,-0.9501 1.6577,-2.5862 2.7556,-2.1667 0.3518,0.1346 0.5383,0.3518 0.8449,0.6726l1.2384 1.3005c0.3121,-0.3847 0.5705,-0.9228 0.8826,-1.3075 0.2678,-0.4321 0.4983,-0.6972 0.975,-0.7848 0.3286,-0.0058 0.6093,0.0301 0.9858,0.4265 0.4195,0.4406 0.8983,1.0007 1.4519,1.6889"/>
   </g>
   <g id="_195130504">
    <path id="_195132232" class="fil0 str1" d="M53.4652 44.1511c1.2215,-1.6037 1.6326,-1.75 1.9735,-1.8132 0.1454,-0.0271 0.6497,0.0181 1.1311,0.3721 0.6474,0.476 1.7385,1.8676 1.7385,1.8676 0.721,-0.95 1.6577,-2.5862 2.7556,-2.1666 0.3518,0.1345 0.5383,0.3517 0.8449,0.6725l1.2384 1.3005c0.3121,-0.3847 0.5705,-0.9228 0.8826,-1.3075 0.2678,-0.4321 0.4983,-0.6972 0.975,-0.7848 0.3286,-0.0057 0.6093,0.0301 0.9858,0.4266 0.4195,0.4405 0.8983,1.0007 1.4519,1.6888 0.175,-0.2274 0.3615,-0.5759 0.5365,-0.8034 0.273,-0.389 0.5298,-0.7864 0.9474,-0.9792 0.2729,-0.1045 0.5857,-0.1537 0.8894,0.0597 0.4696,0.2759 1.3836,1.1464 1.8911,1.706"/>
    <path id="_195132424" class="fil0 str1" d="M71.5732 44.378c1.2215,-1.6037 1.6326,-1.75 1.9735,-1.8132 0.1454,-0.0271 0.6497,0.0181 1.1311,0.3721 0.6474,0.476 1.7385,1.8676 1.7385,1.8676 0.721,-0.95 1.6577,-2.5862 2.7556,-2.1667 0.3518,0.1346 0.5383,0.3518 0.8449,0.6726l1.2384 1.3005c0.3121,-0.3847 0.5705,-0.9228 0.8826,-1.3075 0.2678,-0.4321 0.4983,-0.6972 0.975,-0.7848 0.3286,-0.0057 0.6093,0.0301 0.9858,0.4265 0.4195,0.4406 0.8983,1.0007 1.4519,1.6889 0.175,-0.2274 0.3615,-0.5759 0.5365,-0.8034 0.273,-0.389 0.5298,-0.7864 0.9474,-0.9792 0.2729,-0.1045 0.5857,-0.1537 0.8894,0.0597 0.4696,0.2759 1.3836,1.1464 1.8911,1.706"/>
    <path id="_195132616" class="fil0 str1" d="M89.6296 44.7295c1.2215,-1.6036 1.6326,-1.75 1.9735,-1.8132 0.1454,-0.027 0.6497,0.0182 1.1311,0.3721 0.6474,0.4761 1.7385,1.8677 1.7385,1.8677 0.721,-0.9501 1.6577,-2.5862 2.7556,-2.1667 0.3518,0.1345 0.5383,0.3517 0.8449,0.6726l1.2384 1.3005c0.3121,-0.3847 0.5705,-0.9229 0.8826,-1.3076 0.2678,-0.4321 0.4983,-0.6972 0.975,-0.7848 0.3286,-0.0057 0.6093,0.0301 0.9858,0.4266 0.4195,0.4406 0.8983,1.0007 1.4519,1.6889 0.175,-0.2274 0.3615,-0.5759 0.5365,-0.8035 0.273,-0.3889 0.5298,-0.7864 0.9474,-0.9792 0.2729,-0.1044 0.5857,-0.1536 0.8894,0.0597 0.4696,0.276 1.3836,1.1464 1.8911,1.7061"/>
    <path id="_195132808" class="fil0 str1" d="M107.686 45.0811c1.2215,-1.6037 1.6326,-1.75 1.9735,-1.8132 0.1454,-0.0271 0.6497,0.0181 1.1311,0.3721 0.6474,0.4761 1.7385,1.8676 1.7385,1.8676 0.721,-0.95 1.6577,-2.5862 2.7556,-2.1666 0.3518,0.1345 0.5383,0.3517 0.8449,0.6725l1.2384 1.3005c0.3121,-0.3846 0.5705,-0.9228 0.8826,-1.3075 0.2678,-0.4321 0.4983,-0.6972 0.975,-0.7848 0.3286,-0.0057 0.6093,0.0301 0.9858,0.4266 0.4195,0.4405 0.8983,1.0007 1.4519,1.6888 0.175,-0.2274 0.3615,-0.5759 0.5365,-0.8034 0.273,-0.389 0.5298,-0.7864 0.9474,-0.9792 0.2729,-0.1045 0.5857,-0.1537 0.8894,0.0597 0.4696,0.2759 1.3836,1.1464 1.8911,1.706"/>
    <path id="_194941176" class="fil0 str1" d="M125.742 45.4326c1.2215,-1.6036 1.6326,-1.7499 1.9735,-1.8132 0.1454,-0.027 0.6497,0.0182 1.1311,0.3721 0.6474,0.4761 1.7385,1.8677 1.7385,1.8677 0.721,-0.9501 1.6577,-2.5862 2.7556,-2.1667 0.3518,0.1346 0.5383,0.3517 0.8449,0.6726l1.2384 1.3005c0.3121,-0.3847 0.5705,-0.9229 0.8826,-1.3075 0.2678,-0.4322 0.4983,-0.6973 0.975,-0.7848 0.3286,-0.0058 0.6093,0.0301 0.9858,0.4265 0.4195,0.4406 0.8983,1.0007 1.4519,1.6889 0.175,-0.2274 0.3615,-0.5759 0.5365,-0.8035 0.273,-0.3889 0.5298,-0.7863 0.9474,-0.9792 0.2729,-0.1044 0.5857,-0.1536 0.8894,0.0597 0.4696,0.276 1.3836,1.1464 1.8911,1.7061"/>
    <path id="_194941368" class="fil0 str1" d="M143.799 45.7842c1.2215,-1.6037 1.6326,-1.75 1.9735,-1.8132 0.1454,-0.0271 0.6497,0.0182 1.1311,0.3721 0.6474,0.4761 1.7385,1.8677 1.7385,1.8677 0.721,-0.9501 1.6577,-2.5863 2.7556,-2.1667 0.3518,0.1345 0.5383,0.3517 0.8449,0.6725l1.2384 1.3005c0.3121,-0.3846 0.5705,-0.9228 0.8826,-1.3075 0.2678,-0.4321 0.4983,-0.6972 0.975,-0.7848 0.3286,-0.0057 0.6093,0.0301 0.9858,0.4266 0.4195,0.4405 0.8983,1.0007 1.4519,1.6888 0.175,-0.2273 0.3615,-0.5759 0.5365,-0.8034 0.273,-0.389 0.5298,-0.7864 0.9474,-0.9792 0.2729,-0.1045 0.5857,-0.1536 0.8894,0.0597 0.4696,0.2759 1.3836,1.1464 1.8911,1.7061"/>
    <path id="_194941944" class="fil0 str1" d="M161.855 46.1358c1.2215,-1.6037 1.6326,-1.75 1.9735,-1.8132 0.1454,-0.0271 0.6497,0.0181 1.1311,0.3721 0.6474,0.476 1.7385,1.8676 1.7385,1.8676 0.721,-0.95 1.6577,-2.5862 2.7556,-2.1667 0.3518,0.1346 0.5383,0.3518 0.8449,0.6726l1.2384 1.3005c0.3121,-0.3847 0.5705,-0.9228 0.8826,-1.3075 0.2678,-0.4321 0.4983,-0.6972 0.975,-0.7848 0.3286,-0.0057 0.6093,0.0301 0.9858,0.4265 0.4195,0.4406 0.8983,1.0007 1.4519,1.6889"/>
   </g>
   <g id="_195132040">
    <path id="_194942328" class="fil0 str1" d="M46.6692 37.6074c1.2215,-1.6037 1.6326,-1.75 1.9735,-1.8132 0.1454,-0.0271 0.6497,0.0182 1.1311,0.3721 0.6474,0.4761 1.7385,1.8677 1.7385,1.8677 0.721,-0.9501 1.6577,-2.5863 2.7556,-2.1667 0.3518,0.1345 0.5383,0.3517 0.8449,0.6725l1.2384 1.3006c0.3121,-0.3847 0.5705,-0.9229 0.8826,-1.3076 0.2678,-0.4321 0.4983,-0.6972 0.975,-0.7848 0.3286,-0.0057 0.6093,0.0301 0.9858,0.4266 0.4195,0.4406 0.8983,1.0007 1.4519,1.6888 0.175,-0.2273 0.3615,-0.5759 0.5365,-0.8034 0.273,-0.389 0.5298,-0.7864 0.9474,-0.9792 0.2729,-0.1044 0.5857,-0.1536 0.8894,0.0597 0.4696,0.2759 1.3836,1.1464 1.8911,1.7061"/>
    <path id="_194945784" class="fil0 str1" d="M64.7772 37.8343c1.2215,-1.6037 1.6326,-1.75 1.9735,-1.8132 0.1454,-0.0271 0.6497,0.0182 1.1311,0.3721 0.6474,0.4761 1.7385,1.8677 1.7385,1.8677 0.721,-0.9501 1.6577,-2.5863 2.7556,-2.1667 0.3518,0.1345 0.5383,0.3517 0.8449,0.6725l1.2384 1.3005c0.3121,-0.3846 0.5705,-0.9228 0.8826,-1.3075 0.2678,-0.4321 0.4983,-0.6972 0.975,-0.7848 0.3286,-0.0057 0.6093,0.0301 0.9858,0.4266 0.4195,0.4405 0.8983,1.0007 1.4519,1.6888 0.175,-0.2273 0.3615,-0.5759 0.5365,-0.8034 0.273,-0.389 0.5298,-0.7864 0.9474,-0.9792 0.2729,-0.1044 0.5857,-0.1536 0.8894,0.0597 0.4696,0.2759 1.3836,1.1464 1.8911,1.7061"/>
    <path id="_194945976" class="fil0 str1" d="M82.8336 38.1859c1.2215,-1.6037 1.6326,-1.75 1.9735,-1.8132 0.1454,-0.0271 0.6497,0.0181 1.1311,0.3721 0.6474,0.476 1.7385,1.8676 1.7385,1.8676 0.721,-0.95 1.6577,-2.5862 2.7556,-2.1667 0.3518,0.1346 0.5383,0.3518 0.8449,0.6726l1.2384 1.3005c0.3121,-0.3847 0.5705,-0.9228 0.8826,-1.3075 0.2678,-0.4321 0.4983,-0.6972 0.975,-0.7848 0.3286,-0.0057 0.6093,0.0301 0.9858,0.4265 0.4195,0.4406 0.8983,1.0007 1.4519,1.6889 0.175,-0.2274 0.3615,-0.5759 0.5365,-0.8034 0.273,-0.389 0.5298,-0.7864 0.9474,-0.9792 0.2729,-0.1045 0.5857,-0.1537 0.8894,0.0597 0.4696,0.2759 1.3836,1.1464 1.8911,1.706"/>
    <path id="_194946168" class="fil0 str1" d="M100.89 38.5374c1.2215,-1.6036 1.6326,-1.75 1.9735,-1.8132 0.1454,-0.027 0.6497,0.0182 1.1311,0.3721 0.6474,0.4761 1.7385,1.8677 1.7385,1.8677 0.721,-0.9501 1.6577,-2.5862 2.7556,-2.1667 0.3518,0.1345 0.5383,0.3517 0.8449,0.6726l1.2384 1.3005c0.3121,-0.3847 0.5705,-0.9229 0.8826,-1.3076 0.2678,-0.4321 0.4983,-0.6972 0.975,-0.7848 0.3286,-0.0057 0.6093,0.0301 0.9858,0.4266 0.4195,0.4406 0.8983,1.0007 1.4519,1.6889 0.175,-0.2274 0.3615,-0.5759 0.5365,-0.8035 0.273,-0.3889 0.5298,-0.7864 0.9474,-0.9792 0.2729,-0.1044 0.5857,-0.1536 0.8894,0.0597 0.4696,0.276 1.3836,1.1464 1.8911,1.7061"/>
    <path id="_194946360" class="fil0 str1" d="M118.946 38.889c1.2215,-1.6037 1.6326,-1.75 1.9735,-1.8132 0.1454,-0.0271 0.6497,0.0181 1.1311,0.3721 0.6474,0.4761 1.7385,1.8676 1.7385,1.8676 0.721,-0.95 1.6577,-2.5862 2.7556,-2.1666 0.3518,0.1345 0.5383,0.3517 0.8449,0.6725l1.2384 1.3005c0.3121,-0.3846 0.5705,-0.9228 0.8826,-1.3075 0.2678,-0.4321 0.4983,-0.6972 0.975,-0.7848 0.3286,-0.0057 0.6093,0.0301 0.9858,0.4266 0.4195,0.4405 0.8983,1.0007 1.4519,1.6888 0.175,-0.2274 0.3615,-0.5759 0.5365,-0.8034 0.273,-0.389 0.5298,-0.7864 0.9474,-0.9792 0.2729,-0.1045 0.5857,-0.1537 0.8894,0.0597 0.4696,0.2759 1.3836,1.1464 1.8911,1.706"/>
    <path id="_194946552" class="fil0 str1" d="M137.003 39.2405c1.2215,-1.6036 1.6326,-1.7499 1.9735,-1.8132 0.1454,-0.027 0.6497,0.0182 1.1311,0.3721 0.6474,0.4761 1.7385,1.8677 1.7385,1.8677 0.721,-0.9501 1.6577,-2.5862 2.7556,-2.1667 0.3518,0.1346 0.5383,0.3517 0.8449,0.6726l1.2384 1.3005c0.3121,-0.3847 0.5705,-0.9229 0.8826,-1.3075 0.2678,-0.4322 0.4983,-0.6973 0.975,-0.7848 0.3286,-0.0058 0.6093,0.0301 0.9858,0.4265 0.4195,0.4406 0.8983,1.0007 1.4519,1.6889 0.175,-0.2274 0.3615,-0.5759 0.5365,-0.8035 0.273,-0.3889 0.5298,-0.7863 0.9474,-0.9792 0.2729,-0.1044 0.5857,-0.1536 0.8894,0.0597 0.4696,0.276 1.3836,1.1464 1.8911,1.7061"/>
    <path id="_194946744" class="fil0 str1" d="M155.059 39.5921c1.2215,-1.6037 1.6326,-1.75 1.9735,-1.8132 0.1454,-0.0271 0.6497,0.0182 1.1311,0.3721 0.6474,0.4761 1.7385,1.8677 1.7385,1.8677 0.721,-0.9501 1.6577,-2.5863 2.7556,-2.1667 0.3518,0.1345 0.5383,0.3517 0.8449,0.6725l1.2384 1.3005c0.3121,-0.3846 0.5705,-0.9228 0.8826,-1.3075 0.2678,-0.4321 0.4983,-0.6972 0.975,-0.7848 0.3286,-0.0057 0.6093,0.0301 0.9858,0.4266 0.4195,0.4405 0.8983,1.0007 1.4519,1.6888"/>
   </g>
   <g id="_194942136">
    <path id="_194947896" class="fil0 str1" d="M40.4652 31.5129c1.2215,-1.6037 1.6326,-1.75 1.9735,-1.8132 0.1454,-0.0271 0.6497,0.0182 1.1311,0.3721 0.6474,0.4761 1.7385,1.8677 1.7385,1.8677 0.721,-0.9501 1.6577,-2.5863 2.7556,-2.1667 0.3518,0.1345 0.5383,0.3517 0.8449,0.6725l1.2384 1.3006c0.3121,-0.3847 0.5705,-0.9229 0.8826,-1.3076 0.2678,-0.4321 0.4983,-0.6972 0.975,-0.7848 0.3286,-0.0057 0.6093,0.0301 0.9858,0.4266 0.4195,0.4406 0.8983,1.0007 1.4519,1.6888 0.175,-0.2273 0.3615,-0.5759 0.5365,-0.8034 0.273,-0.389 0.5298,-0.7864 0.9474,-0.9792 0.2729,-0.1044 0.5857,-0.1536 0.8894,0.0597 0.4696,0.2759 1.3836,1.1464 1.8911,1.7061"/>
    <path id="_194948088" class="fil0 str1" d="M58.5732 31.7398c1.2215,-1.6037 1.6326,-1.75 1.9735,-1.8132 0.1454,-0.0271 0.6497,0.0182 1.1311,0.3721 0.6474,0.4761 1.7385,1.8677 1.7385,1.8677 0.721,-0.9501 1.6577,-2.5863 2.7556,-2.1667 0.3518,0.1345 0.5383,0.3517 0.8449,0.6725l1.2384 1.3006c0.3121,-0.3847 0.5705,-0.9229 0.8826,-1.3076 0.2678,-0.4321 0.4983,-0.6972 0.975,-0.7848 0.3286,-0.0057 0.6093,0.0301 0.9858,0.4266 0.4195,0.4405 0.8983,1.0007 1.4519,1.6888 0.175,-0.2273 0.3615,-0.5759 0.5365,-0.8034 0.273,-0.389 0.5298,-0.7864 0.9474,-0.9792 0.2729,-0.1044 0.5857,-0.1536 0.8894,0.0597 0.4696,0.2759 1.3836,1.1464 1.8911,1.7061"/>
    <path id="_194948280" class="fil0 str1" d="M76.6296 32.0914c1.2215,-1.6037 1.6326,-1.75 1.9735,-1.8132 0.1454,-0.0271 0.6497,0.0181 1.1311,0.3721 0.6474,0.476 1.7385,1.8676 1.7385,1.8676 0.721,-0.95 1.6577,-2.5862 2.7556,-2.1667 0.3518,0.1346 0.5383,0.3518 0.8449,0.6726l1.2384 1.3005c0.3121,-0.3847 0.5705,-0.9228 0.8826,-1.3075 0.2678,-0.4321 0.4983,-0.6972 0.975,-0.7848 0.3286,-0.0057 0.6093,0.0301 0.9858,0.4265 0.4195,0.4406 0.8983,1.0007 1.4519,1.6889 0.175,-0.2274 0.3615,-0.5759 0.5365,-0.8034 0.273,-0.389 0.5298,-0.7864 0.9474,-0.9792 0.2729,-0.1045 0.5857,-0.1537 0.8894,0.0597 0.4696,0.2759 1.3836,1.1464 1.8911,1.706"/>
    <path id="_194948472" class="fil0 str1" d="M94.686 32.4429c1.2215,-1.6036 1.6326,-1.75 1.9735,-1.8132 0.1454,-0.027 0.6497,0.0182 1.1311,0.3721 0.6474,0.4761 1.7385,1.8677 1.7385,1.8677 0.721,-0.9501 1.6577,-2.5862 2.7556,-2.1667 0.3518,0.1345 0.5383,0.3517 0.8449,0.6726l1.2384 1.3005c0.3121,-0.3847 0.5705,-0.9229 0.8826,-1.3076 0.2678,-0.4321 0.4983,-0.6972 0.975,-0.7848 0.3286,-0.0057 0.6093,0.0301 0.9858,0.4266 0.4195,0.4406 0.8983,1.0007 1.4519,1.6889 0.175,-0.2274 0.3615,-0.5759 0.5365,-0.8035 0.273,-0.3889 0.5298,-0.7864 0.9474,-0.9792 0.2729,-0.1044 0.5857,-0.1536 0.8894,0.0597 0.4696,0.276 1.3836,1.1464 1.8911,1.7061"/>
    <path id="_194948664" class="fil0 str1" d="M112.742 32.7945c1.2215,-1.6037 1.6326,-1.75 1.9735,-1.8132 0.1454,-0.0271 0.6497,0.0181 1.1311,0.3721 0.6474,0.4761 1.7385,1.8676 1.7385,1.8676 0.721,-0.95 1.6577,-2.5862 2.7556,-2.1666 0.3518,0.1345 0.5383,0.3517 0.8449,0.6725l1.2384 1.3005c0.3121,-0.3846 0.5705,-0.9228 0.8826,-1.3075 0.2678,-0.4321 0.4983,-0.6972 0.975,-0.7848 0.3286,-0.0057 0.6093,0.0301 0.9858,0.4266 0.4195,0.4405 0.8983,1.0007 1.4519,1.6888 0.175,-0.2274 0.3615,-0.5759 0.5365,-0.8034 0.273,-0.389 0.5298,-0.7864 0.9474,-0.9792 0.2729,-0.1045 0.5857,-0.1537 0.8894,0.0597 0.4696,0.2759 1.3836,1.1464 1.8911,1.706"/>
    <path id="_194948856" class="fil0 str1" d="M130.799 33.146c1.2215,-1.6036 1.6326,-1.7499 1.9735,-1.8132 0.1454,-0.027 0.6497,0.0182 1.1311,0.3721 0.6474,0.4761 1.7385,1.8677 1.7385,1.8677 0.721,-0.9501 1.6577,-2.5862 2.7556,-2.1667 0.3518,0.1346 0.5383,0.3517 0.8449,0.6726l1.2384 1.3005c0.3121,-0.3847 0.5705,-0.9229 0.8826,-1.3075 0.2678,-0.4322 0.4983,-0.6973 0.975,-0.7848 0.3286,-0.0058 0.6093,0.0301 0.9858,0.4265 0.4195,0.4406 0.8983,1.0007 1.4519,1.6889 0.175,-0.2274 0.3615,-0.5759 0.5365,-0.8035 0.273,-0.3889 0.5298,-0.7863 0.9474,-0.9792 0.2729,-0.1044 0.5857,-0.1536 0.8894,0.0597 0.4696,0.276 1.3836,1.1464 1.8911,1.7061"/>
    <path id="_194949048" class="fil0 str1" d="M148.855 33.4976c1.2215,-1.6037 1.6326,-1.75 1.9735,-1.8132 0.1454,-0.0271 0.6497,0.0182 1.1311,0.3721 0.6474,0.4761 1.7385,1.8677 1.7385,1.8677 0.721,-0.9501 1.6577,-2.5863 2.7556,-2.1667 0.3518,0.1345 0.5383,0.3517 0.8449,0.6725l1.2384 1.3005c0.3121,-0.3846 0.5705,-0.9228 0.8826,-1.3075 0.2678,-0.4321 0.4983,-0.6972 0.975,-0.7848 0.3286,-0.0057 0.6093,0.0301 0.9858,0.4266 0.4195,0.4405 0.8983,1.0007 1.4519,1.6888"/>
   </g>
   <g id="_194946936">
    <path id="_194949816" class="fil0 str1" d="M34.2359 25.3968c1.2215,-1.6037 1.6326,-1.75 1.9735,-1.8132 0.1454,-0.0271 0.6497,0.0181 1.1311,0.3721 0.6474,0.476 1.7385,1.8676 1.7385,1.8676 0.721,-0.95 1.6577,-2.5862 2.7556,-2.1667 0.3518,0.1346 0.5383,0.3518 0.8449,0.6726l1.2384 1.3005c0.3121,-0.3847 0.5705,-0.9228 0.8826,-1.3075 0.2678,-0.4321 0.4983,-0.6972 0.975,-0.7848 0.3286,-0.0057 0.6093,0.0301 0.9858,0.4265 0.4195,0.4406 0.8983,1.0007 1.4519,1.6889 0.175,-0.2274 0.3615,-0.5759 0.5365,-0.8034 0.273,-0.389 0.5298,-0.7864 0.9474,-0.9792 0.2729,-0.1045 0.5857,-0.1537 0.8894,0.0597 0.4696,0.2759 1.3836,1.1464 1.8911,1.706"/>
    <path id="_194950008" class="fil0 str1" d="M52.3439 25.6237c1.2215,-1.6037 1.6326,-1.75 1.9735,-1.8132 0.1454,-0.0271 0.6497,0.0181 1.1311,0.3721 0.6474,0.476 1.7385,1.8676 1.7385,1.8676 0.721,-0.9501 1.6577,-2.5862 2.7556,-2.1667 0.3518,0.1346 0.5383,0.3518 0.8449,0.6726l1.2384 1.3005c0.3121,-0.3847 0.5705,-0.9228 0.8826,-1.3075 0.2678,-0.4321 0.4983,-0.6973 0.975,-0.7848 0.3286,-0.0058 0.6093,0.0301 0.9858,0.4265 0.4195,0.4406 0.8983,1.0007 1.4519,1.6889 0.175,-0.2274 0.3615,-0.5759 0.5365,-0.8034 0.273,-0.389 0.5298,-0.7864 0.9474,-0.9793 0.2729,-0.1044 0.5857,-0.1536 0.8894,0.0598 0.4696,0.2759 1.3836,1.1463 1.8911,1.706"/>
    <path id="_194952312" class="fil0 str1" d="M70.4003 25.9752c1.2215,-1.6037 1.6326,-1.75 1.9735,-1.8132 0.1454,-0.0271 0.6497,0.0182 1.1311,0.3721 0.6474,0.4761 1.7385,1.8677 1.7385,1.8677 0.721,-0.9501 1.6577,-2.5863 2.7556,-2.1667 0.3518,0.1345 0.5383,0.3517 0.8449,0.6725l1.2384 1.3006c0.3121,-0.3847 0.5705,-0.9229 0.8826,-1.3076 0.2678,-0.4321 0.4983,-0.6972 0.975,-0.7848 0.3286,-0.0057 0.6093,0.0301 0.9858,0.4266 0.4195,0.4406 0.8983,1.0007 1.4519,1.6888 0.175,-0.2273 0.3615,-0.5759 0.5365,-0.8034 0.273,-0.389 0.5298,-0.7864 0.9474,-0.9792 0.2729,-0.1044 0.5857,-0.1536 0.8894,0.0597 0.4696,0.2759 1.3836,1.1464 1.8911,1.7061"/>
    <path id="_194952504" class="fil0 str1" d="M88.4567 26.3268c1.2215,-1.6037 1.6326,-1.75 1.9735,-1.8132 0.1454,-0.0271 0.6497,0.0181 1.1311,0.3721 0.6474,0.476 1.7385,1.8676 1.7385,1.8676 0.721,-0.95 1.6577,-2.5862 2.7556,-2.1666 0.3518,0.1345 0.5383,0.3517 0.8449,0.6725l1.2384 1.3005c0.3121,-0.3847 0.5705,-0.9228 0.8826,-1.3075 0.2678,-0.4321 0.4983,-0.6972 0.975,-0.7848 0.3286,-0.0057 0.6093,0.0301 0.9858,0.4265 0.4195,0.4406 0.8983,1.0008 1.4519,1.6889 0.175,-0.2274 0.3615,-0.5759 0.5365,-0.8034 0.273,-0.389 0.5298,-0.7864 0.9474,-0.9792 0.2729,-0.1045 0.5857,-0.1537 0.8894,0.0597 0.4696,0.2759 1.3836,1.1464 1.8911,1.706"/>
    <path id="_195126664" class="fil0 str1" d="M106.513 26.6783c1.2215,-1.6036 1.6326,-1.75 1.9735,-1.8132 0.1454,-0.027 0.6497,0.0182 1.1311,0.3721 0.6474,0.4761 1.7385,1.8677 1.7385,1.8677 0.721,-0.9501 1.6577,-2.5862 2.7556,-2.1667 0.3518,0.1346 0.5383,0.3517 0.8449,0.6726l1.2384 1.3005c0.3121,-0.3847 0.5705,-0.9229 0.8826,-1.3075 0.2678,-0.4322 0.4983,-0.6973 0.975,-0.7848 0.3286,-0.0058 0.6093,0.03 0.9858,0.4265 0.4195,0.4406 0.8983,1.0007 1.4519,1.6889 0.175,-0.2274 0.3615,-0.5759 0.5365,-0.8035 0.273,-0.3889 0.5298,-0.7864 0.9474,-0.9792 0.2729,-0.1044 0.5857,-0.1536 0.8894,0.0597 0.4696,0.276 1.3836,1.1464 1.8911,1.7061"/>
    <path id="_195128584" class="fil0 str1" d="M124.57 27.0299c1.2215,-1.6037 1.6326,-1.75 1.9735,-1.8132 0.1454,-0.0271 0.6497,0.0181 1.1311,0.3721 0.6474,0.4761 1.7385,1.8677 1.7385,1.8677 0.721,-0.9501 1.6577,-2.5863 2.7556,-2.1667 0.3518,0.1345 0.5383,0.3517 0.8449,0.6725l1.2384 1.3005c0.3121,-0.3846 0.5705,-0.9228 0.8826,-1.3075 0.2678,-0.4321 0.4983,-0.6972 0.975,-0.7848 0.3286,-0.0057 0.6093,0.0301 0.9858,0.4266 0.4195,0.4405 0.8983,1.0007 1.4519,1.6888 0.175,-0.2273 0.3615,-0.5759 0.5365,-0.8034 0.273,-0.389 0.5298,-0.7864 0.9474,-0.9792 0.2729,-0.1045 0.5857,-0.1537 0.8894,0.0597 0.4696,0.2759 1.3836,1.1464 1.8911,1.706"/>
    <path id="_195128776" class="fil0 str1" d="M142.626 27.3815c1.2215,-1.6037 1.6326,-1.75 1.9735,-1.8133 0.1454,-0.027 0.6497,0.0182 1.1311,0.3721 0.6474,0.4761 1.7385,1.8677 1.7385,1.8677 0.721,-0.9501 1.6577,-2.5862 2.7556,-2.1667 0.3518,0.1346 0.5383,0.3518 0.8449,0.6726l1.2384 1.3005c0.3121,-0.3847 0.5705,-0.9228 0.8826,-1.3075 0.2678,-0.4321 0.4983,-0.6973 0.975,-0.7848 0.3286,-0.0058 0.6093,0.0301 0.9858,0.4265 0.4195,0.4406 0.8983,1.0007 1.4519,1.6889"/>
   </g>
   <g id="_194949624">
    <path id="_195129736" class="fil0 str1" d="M28.3451 19.626c1.2215,-1.6037 1.6326,-1.75 1.9735,-1.8132 0.1454,-0.0271 0.6497,0.0181 1.1311,0.3721 0.6474,0.476 1.7385,1.8676 1.7385,1.8676 0.721,-0.9501 1.6577,-2.5862 2.7556,-2.1667 0.3518,0.1346 0.5383,0.3518 0.8449,0.6726l1.2384 1.3005c0.3121,-0.3847 0.5705,-0.9228 0.8826,-1.3075 0.2678,-0.4321 0.4983,-0.6972 0.975,-0.7848 0.3286,-0.0057 0.6093,0.0301 0.9858,0.4265 0.4195,0.4406 0.8983,1.0007 1.4519,1.6889 0.175,-0.2274 0.3615,-0.5759 0.5365,-0.8034 0.273,-0.389 0.5298,-0.7864 0.9474,-0.9792 0.2729,-0.1045 0.5857,-0.1537 0.8894,0.0597 0.4696,0.2759 1.3836,1.1464 1.8911,1.706"/>
    <path id="_195130312" class="fil0 str1" d="M46.4531 19.8529c1.2215,-1.6037 1.6326,-1.75 1.9735,-1.8133 0.1454,-0.027 0.6497,0.0182 1.1311,0.3721 0.6474,0.4761 1.7385,1.8677 1.7385,1.8677 0.721,-0.9501 1.6577,-2.5862 2.7556,-2.1667 0.3518,0.1346 0.5383,0.3518 0.8449,0.6726l1.2384 1.3005c0.3121,-0.3847 0.5705,-0.9228 0.8826,-1.3075 0.2678,-0.4322 0.4983,-0.6973 0.975,-0.7848 0.3286,-0.0058 0.6093,0.0301 0.9858,0.4265 0.4195,0.4406 0.8983,1.0007 1.4519,1.6889 0.175,-0.2274 0.3615,-0.5759 0.5365,-0.8034 0.273,-0.389 0.5298,-0.7864 0.9474,-0.9793 0.2729,-0.1044 0.5857,-0.1536 0.8894,0.0598 0.4696,0.2759 1.3836,1.1463 1.8911,1.706"/>
    <path id="_194940024" class="fil0 str1" d="M64.5095 20.2044c1.2215,-1.6037 1.6326,-1.75 1.9735,-1.8132 0.1454,-0.0271 0.6497,0.0182 1.1311,0.3721 0.6474,0.4761 1.7385,1.8677 1.7385,1.8677 0.721,-0.9501 1.6577,-2.5863 2.7556,-2.1667 0.3518,0.1345 0.5383,0.3517 0.8449,0.6725l1.2384 1.3006c0.3121,-0.3847 0.5705,-0.9229 0.8826,-1.3076 0.2678,-0.4321 0.4983,-0.6972 0.975,-0.7848 0.3286,-0.0057 0.6093,0.0301 0.9858,0.4266 0.4195,0.4406 0.8983,1.0007 1.4519,1.6888 0.175,-0.2273 0.3615,-0.5759 0.5365,-0.8034 0.273,-0.389 0.5298,-0.7864 0.9474,-0.9792 0.2729,-0.1044 0.5857,-0.1536 0.8894,0.0597 0.4696,0.2759 1.3836,1.1464 1.8911,1.7061"/>
    <path id="_194940216" class="fil0 str1" d="M82.5659 20.556c1.2215,-1.6037 1.6326,-1.75 1.9735,-1.8132 0.1454,-0.0271 0.6497,0.0181 1.1311,0.3721 0.6474,0.476 1.7385,1.8676 1.7385,1.8676 0.721,-0.95 1.6577,-2.5862 2.7556,-2.1666 0.3518,0.1345 0.5383,0.3517 0.8449,0.6725l1.2384 1.3005c0.3121,-0.3847 0.5705,-0.9228 0.8826,-1.3075 0.2678,-0.4321 0.4983,-0.6972 0.975,-0.7848 0.3286,-0.0057 0.6093,0.0301 0.9858,0.4265 0.4195,0.4406 0.8983,1.0008 1.4519,1.6889 0.175,-0.2274 0.3615,-0.5759 0.5365,-0.8034 0.273,-0.389 0.5298,-0.7864 0.9474,-0.9792 0.2729,-0.1045 0.5857,-0.1537 0.8894,0.0597 0.4696,0.2759 1.3836,1.1464 1.8911,1.706"/>
    <path id="_194940408" class="fil0 str1" d="M100.622 20.9075c1.2215,-1.6036 1.6326,-1.75 1.9735,-1.8132 0.1454,-0.027 0.6497,0.0182 1.1311,0.3721 0.6474,0.4761 1.7385,1.8677 1.7385,1.8677 0.721,-0.9501 1.6577,-2.5862 2.7556,-2.1667 0.3518,0.1346 0.5383,0.3517 0.8449,0.6726l1.2384 1.3005c0.3121,-0.3847 0.5705,-0.9229 0.8826,-1.3075 0.2678,-0.4322 0.4983,-0.6973 0.975,-0.7848 0.3286,-0.0058 0.6093,0.03 0.9858,0.4265 0.4195,0.4406 0.8983,1.0007 1.4519,1.6889 0.175,-0.2274 0.3615,-0.5759 0.5365,-0.8035 0.273,-0.3889 0.5298,-0.7864 0.9474,-0.9792 0.2729,-0.1044 0.5857,-0.1536 0.8894,0.0597 0.4696,0.276 1.3836,1.1464 1.8911,1.7061"/>
    <path id="_194940600" class="fil0 str1" d="M118.679 21.2591c1.2215,-1.6037 1.6326,-1.75 1.9735,-1.8132 0.1454,-0.0271 0.6497,0.0181 1.1311,0.3721 0.6474,0.4761 1.7385,1.8676 1.7385,1.8676 0.721,-0.95 1.6577,-2.5862 2.7556,-2.1666 0.3518,0.1345 0.5383,0.3517 0.8449,0.6725l1.2384 1.3005c0.3121,-0.3846 0.5705,-0.9228 0.8826,-1.3075 0.2678,-0.4321 0.4983,-0.6972 0.975,-0.7848 0.3286,-0.0057 0.6093,0.0301 0.9858,0.4266 0.4195,0.4405 0.8983,1.0007 1.4519,1.6888 0.175,-0.2273 0.3615,-0.5759 0.5365,-0.8034 0.273,-0.389 0.5298,-0.7864 0.9474,-0.9792 0.2729,-0.1045 0.5857,-0.1537 0.8894,0.0597 0.4696,0.2759 1.3836,1.1464 1.8911,1.706"/>
    <path id="_194940792" class="fil0 str1" d="M136.735 21.6107c1.2215,-1.6037 1.6326,-1.75 1.9735,-1.8133 0.1454,-0.027 0.6497,0.0182 1.1311,0.3721 0.6474,0.4761 1.7385,1.8677 1.7385,1.8677 0.721,-0.9501 1.6577,-2.5862 2.7556,-2.1667 0.3518,0.1346 0.5383,0.3517 0.8449,0.6726l1.2384 1.3005c0.3121,-0.3847 0.5705,-0.9228 0.8826,-1.3075 0.2678,-0.4322 0.4983,-0.6973 0.975,-0.7848 0.3286,-0.0058 0.6093,0.0301 0.9858,0.4265 0.4195,0.4406 0.8983,1.0007 1.4519,1.6889"/>
   </g>
   <g id="_195128968">
    <path id="_194941752" class="fil0 str1" d="M21.792 13.5026c1.2215,-1.6036 1.6326,-1.7499 1.9735,-1.8132 0.1454,-0.027 0.6497,0.0182 1.1311,0.3721 0.6474,0.4761 1.7385,1.8677 1.7385,1.8677 0.721,-0.9501 1.6577,-2.5862 2.7556,-2.1667 0.3518,0.1346 0.5383,0.3517 0.8449,0.6726l1.2384 1.3005c0.3121,-0.3847 0.5705,-0.9229 0.8826,-1.3075 0.2678,-0.4322 0.4983,-0.6973 0.975,-0.7848 0.3286,-0.0058 0.6093,0.0301 0.9858,0.4265 0.4195,0.4406 0.8983,1.0007 1.4519,1.6889 0.175,-0.2274 0.3615,-0.5759 0.5365,-0.8035 0.273,-0.3889 0.5298,-0.7863 0.9474,-0.9792 0.2729,-0.1044 0.5857,-0.1536 0.8894,0.0597 0.4696,0.276 1.3836,1.1464 1.8911,1.7061"/>
    <path id="_194942520" class="fil0 str1" d="M39.9 13.7295c1.2215,-1.6036 1.6326,-1.75 1.9735,-1.8132 0.1454,-0.027 0.6497,0.0182 1.1311,0.3721 0.6474,0.4761 1.7385,1.8677 1.7385,1.8677 0.721,-0.9501 1.6577,-2.5862 2.7556,-2.1667 0.3518,0.1346 0.5383,0.3517 0.8449,0.6726l1.2384 1.3005c0.3121,-0.3847 0.5705,-0.9229 0.8826,-1.3075 0.2678,-0.4322 0.4983,-0.6973 0.975,-0.7848 0.3286,-0.0058 0.6093,0.0301 0.9858,0.4265 0.4195,0.4406 0.8983,1.0007 1.4519,1.6889 0.175,-0.2274 0.3615,-0.5759 0.5365,-0.8035 0.273,-0.3889 0.5298,-0.7864 0.9474,-0.9792 0.2729,-0.1044 0.5857,-0.1536 0.8894,0.0597 0.4696,0.276 1.3836,1.1464 1.8911,1.7061"/>
    <path id="_194942712" class="fil0 str1" d="M57.9564 14.0811c1.2215,-1.6037 1.6326,-1.75 1.9735,-1.8132 0.1454,-0.0271 0.6497,0.0181 1.1311,0.3721 0.6474,0.4761 1.7385,1.8677 1.7385,1.8677 0.721,-0.9501 1.6577,-2.5863 2.7556,-2.1667 0.3518,0.1345 0.5383,0.3517 0.8449,0.6725l1.2384 1.3005c0.3121,-0.3846 0.5705,-0.9228 0.8826,-1.3075 0.2678,-0.4321 0.4983,-0.6972 0.975,-0.7848 0.3286,-0.0057 0.6093,0.0301 0.9858,0.4266 0.4195,0.4405 0.8983,1.0007 1.4519,1.6888 0.175,-0.2273 0.3615,-0.5759 0.5365,-0.8034 0.273,-0.389 0.5298,-0.7864 0.9474,-0.9792 0.2729,-0.1045 0.5857,-0.1537 0.8894,0.0597 0.4696,0.2759 1.3836,1.1464 1.8911,1.706"/>
    <path id="_194942904" class="fil0 str1" d="M76.0128 14.4327c1.2215,-1.6037 1.6326,-1.75 1.9735,-1.8132 0.1454,-0.0271 0.6497,0.0181 1.1311,0.3721 0.6474,0.476 1.7385,1.8676 1.7385,1.8676 0.721,-0.9501 1.6577,-2.5862 2.7556,-2.1667 0.3518,0.1346 0.5383,0.3518 0.8449,0.6726l1.2384 1.3005c0.3121,-0.3847 0.5705,-0.9228 0.8826,-1.3075 0.2678,-0.4321 0.4983,-0.6973 0.975,-0.7848 0.3286,-0.0058 0.6093,0.0301 0.9858,0.4265 0.4195,0.4406 0.8983,1.0007 1.4519,1.6889 0.175,-0.2274 0.3615,-0.5759 0.5365,-0.8034 0.273,-0.389 0.5298,-0.7864 0.9474,-0.9793 0.2729,-0.1044 0.5857,-0.1536 0.8894,0.0598 0.4696,0.2759 1.3836,1.1463 1.8911,1.706"/>
    <path id="_194943096" class="fil0 str1" d="M94.0692 14.7842c1.2215,-1.6037 1.6326,-1.75 1.9735,-1.8132 0.1454,-0.0271 0.6497,0.0182 1.1311,0.3721 0.6474,0.4761 1.7385,1.8677 1.7385,1.8677 0.721,-0.9501 1.6577,-2.5863 2.7556,-2.1667 0.3518,0.1345 0.5383,0.3517 0.8449,0.6725l1.2384 1.3006c0.3121,-0.3847 0.5705,-0.9229 0.8826,-1.3076 0.2678,-0.4321 0.4983,-0.6972 0.975,-0.7848 0.3286,-0.0057 0.6093,0.0301 0.9858,0.4266 0.4195,0.4406 0.8983,1.0007 1.4519,1.6888 0.175,-0.2273 0.3615,-0.5759 0.5365,-0.8034 0.273,-0.389 0.5298,-0.7864 0.9474,-0.9792 0.2729,-0.1044 0.5857,-0.1536 0.8894,0.0597 0.4696,0.2759 1.3836,1.1464 1.8911,1.7061"/>
    <path id="_194943288" class="fil0 str1" d="M112.126 15.1358c1.2215,-1.6037 1.6326,-1.75 1.9735,-1.8132 0.1454,-0.0271 0.6497,0.0181 1.1311,0.3721 0.6474,0.476 1.7385,1.8676 1.7385,1.8676 0.721,-0.95 1.6577,-2.5862 2.7556,-2.1666 0.3518,0.1345 0.5383,0.3517 0.8449,0.6725l1.2384 1.3005c0.3121,-0.3847 0.5705,-0.9228 0.8826,-1.3075 0.2678,-0.4321 0.4983,-0.6972 0.975,-0.7848 0.3286,-0.0057 0.6093,0.0301 0.9858,0.4265 0.4195,0.4406 0.8983,1.0008 1.4519,1.6889 0.175,-0.2274 0.3615,-0.5759 0.5365,-0.8034 0.273,-0.389 0.5298,-0.7864 0.9474,-0.9792 0.2729,-0.1045 0.5857,-0.1537 0.8894,0.0597 0.4696,0.2759 1.3836,1.1464 1.8911,1.706"/>
    <path id="_194943480" class="fil0 str1" d="M130.182 15.4873c1.2215,-1.6036 1.6326,-1.75 1.9735,-1.8132 0.1454,-0.027 0.6497,0.0182 1.1311,0.3721 0.6474,0.4761 1.7385,1.8677 1.7385,1.8677 0.721,-0.9501 1.6577,-2.5862 2.7556,-2.1667 0.3518,0.1346 0.5383,0.3517 0.8449,0.6726l1.2384 1.3005c0.3121,-0.3847 0.5705,-0.9229 0.8826,-1.3075 0.2678,-0.4322 0.4983,-0.6973 0.975,-0.7848 0.3286,-0.0058 0.6093,0.03 0.9858,0.4265 0.4195,0.4406 0.8983,1.0007 1.4519,1.6889"/>
   </g>
   <g id="_194941560">
    <path id="_194944824" class="fil0 str1" d="M16.3891 8.2364c1.2215,-1.6037 1.6326,-1.75 1.9735,-1.8132 0.1454,-0.0271 0.6497,0.0182 1.1311,0.3721 0.6474,0.4761 1.7385,1.8677 1.7385,1.8677 0.721,-0.9501 1.6577,-2.5863 2.7556,-2.1667 0.3518,0.1345 0.5383,0.3517 0.8449,0.6725l1.2384 1.3006c0.3121,-0.3847 0.5705,-0.9229 0.8826,-1.3076 0.2678,-0.4321 0.4983,-0.6972 0.975,-0.7848 0.3286,-0.0057 0.6093,0.0301 0.9858,0.4266 0.4195,0.4406 0.8983,1.0007 1.4519,1.6888 0.175,-0.2273 0.3615,-0.5759 0.5365,-0.8034 0.273,-0.389 0.5298,-0.7864 0.9474,-0.9792 0.2729,-0.1044 0.5857,-0.1536 0.8894,0.0597 0.4696,0.2759 1.3836,1.1464 1.8911,1.7061"/>
    <path id="_194945016" class="fil0 str1" d="M34.4971 8.4633c1.2215,-1.6037 1.6326,-1.75 1.9735,-1.8132 0.1454,-0.0271 0.6497,0.0182 1.1311,0.3721 0.6474,0.4761 1.7385,1.8677 1.7385,1.8677 0.721,-0.9501 1.6577,-2.5863 2.7556,-2.1667 0.3518,0.1345 0.5383,0.3517 0.8449,0.6725l1.2384 1.3005c0.3121,-0.3846 0.5705,-0.9228 0.8826,-1.3075 0.2678,-0.4321 0.4983,-0.6972 0.975,-0.7848 0.3286,-0.0057 0.6093,0.0301 0.9858,0.4266 0.4195,0.4405 0.8983,1.0007 1.4519,1.6888 0.175,-0.2273 0.3615,-0.5759 0.5365,-0.8034 0.273,-0.389 0.5298,-0.7864 0.9474,-0.9792 0.2729,-0.1045 0.5857,-0.1537 0.8894,0.0597 0.4696,0.2759 1.3836,1.1464 1.8911,1.7061"/>
    <path id="_194945208" class="fil0 str1" d="M52.5535 8.8149c1.2215,-1.6037 1.6326,-1.75 1.9735,-1.8132 0.1454,-0.0271 0.6497,0.0181 1.1311,0.3721 0.6474,0.476 1.7385,1.8676 1.7385,1.8676 0.721,-0.9501 1.6577,-2.5862 2.7556,-2.1667 0.3518,0.1346 0.5383,0.3518 0.8449,0.6726l1.2384 1.3005c0.3121,-0.3847 0.5705,-0.9228 0.8826,-1.3075 0.2678,-0.4321 0.4983,-0.6972 0.975,-0.7848 0.3286,-0.0057 0.6093,0.0301 0.9858,0.4265 0.4195,0.4406 0.8983,1.0007 1.4519,1.6889 0.175,-0.2274 0.3615,-0.5759 0.5365,-0.8034 0.273,-0.389 0.5298,-0.7864 0.9474,-0.9792 0.2729,-0.1045 0.5857,-0.1537 0.8894,0.0597 0.4696,0.2759 1.3836,1.1464 1.8911,1.706"/>
    <path id="_194945400" class="fil0 str1" d="M70.6099 9.1664c1.2215,-1.6036 1.6326,-1.75 1.9735,-1.8132 0.1454,-0.027 0.6497,0.0182 1.1311,0.3721 0.6474,0.4761 1.7385,1.8677 1.7385,1.8677 0.721,-0.9501 1.6577,-2.5862 2.7556,-2.1667 0.3518,0.1345 0.5383,0.3517 0.8449,0.6726l1.2384 1.3005c0.3121,-0.3847 0.5705,-0.9229 0.8826,-1.3076 0.2678,-0.4321 0.4983,-0.6972 0.975,-0.7848 0.3286,-0.0057 0.6093,0.0301 0.9858,0.4266 0.4195,0.4406 0.8983,1.0007 1.4519,1.6889 0.175,-0.2274 0.3615,-0.5759 0.5365,-0.8035 0.273,-0.389 0.5298,-0.7864 0.9474,-0.9792 0.2729,-0.1044 0.5857,-0.1536 0.8894,0.0597 0.4696,0.276 1.3836,1.1464 1.8911,1.7061"/>
    <path id="_194945592" class="fil0 str1" d="M88.6663 9.518c1.2215,-1.6037 1.6326,-1.75 1.9735,-1.8132 0.1454,-0.0271 0.6497,0.0181 1.1311,0.3721 0.6474,0.476 1.7385,1.8676 1.7385,1.8676 0.721,-0.95 1.6577,-2.5862 2.7556,-2.1666 0.3518,0.1345 0.5383,0.3517 0.8449,0.6725l1.2384 1.3005c0.3121,-0.3847 0.5705,-0.9228 0.8826,-1.3075 0.2678,-0.4321 0.4983,-0.6972 0.975,-0.7848 0.3286,-0.0057 0.6093,0.0301 0.9858,0.4266 0.4195,0.4405 0.8983,1.0007 1.4519,1.6888 0.175,-0.2274 0.3615,-0.5759 0.5365,-0.8034 0.273,-0.389 0.5298,-0.7864 0.9474,-0.9792 0.2729,-0.1045 0.5857,-0.1537 0.8894,0.0597 0.4696,0.2759 1.3836,1.1464 1.8911,1.706"/>
    <path id="_194947128" class="fil0 str1" d="M106.723 9.8695c1.2215,-1.6036 1.6326,-1.7499 1.9735,-1.8132 0.1454,-0.027 0.6497,0.0182 1.1311,0.3721 0.6474,0.4761 1.7385,1.8677 1.7385,1.8677 0.721,-0.9501 1.6577,-2.5862 2.7556,-2.1667 0.3518,0.1346 0.5383,0.3517 0.8449,0.6726l1.2384 1.3005c0.3121,-0.3847 0.5705,-0.9229 0.8826,-1.3075 0.2678,-0.4322 0.4983,-0.6973 0.975,-0.7848 0.3286,-0.0058 0.6093,0.0301 0.9858,0.4265 0.4195,0.4406 0.8983,1.0007 1.4519,1.6889 0.175,-0.2274 0.3615,-0.5759 0.5365,-0.8035 0.273,-0.3889 0.5298,-0.7863 0.9474,-0.9792 0.2729,-0.1044 0.5857,-0.1536 0.8894,0.0597 0.4696,0.276 1.3836,1.1464 1.8911,1.7061"/>
    <path id="_194947320" class="fil0 str1" d="M124.779 10.2211c1.2215,-1.6037 1.6326,-1.75 1.9735,-1.8132 0.1454,-0.0271 0.6497,0.0182 1.1311,0.3721 0.6474,0.4761 1.7385,1.8677 1.7385,1.8677 0.721,-0.9501 1.6577,-2.5863 2.7556,-2.1667 0.3518,0.1345 0.5383,0.3517 0.8449,0.6725l1.2384 1.3005c0.3121,-0.3846 0.5705,-0.9228 0.8826,-1.3075 0.2678,-0.4321 0.4983,-0.6972 0.975,-0.7848 0.3286,-0.0057 0.6093,0.0301 0.9858,0.4266 0.4195,0.4405 0.8983,1.0007 1.4519,1.6888"/>
   </g>
   <line id="_366411240" class="fil0 str1" x1="89.989" y1="74.4951" x2="16.5672" y2= "4.1963" />
   <line id="_366411576" class="fil0 str1" x1="94.9449" y1="74.5151" x2="21.5231" y2= "4.2164" />
   <line id="_366411912" class="fil0 str1" x1="99.5446" y1="74.754" x2="26.1228" y2= "4.4552" />
   <line id="_366412248" class="fil0 str1" x1="103.742" y1="75.103" x2="30.3199" y2= "4.8043" />
   <line id="_366412584" class="fil0 str1" x1="108.157" y1="74.9186" x2="34.735" y2= "4.6199" />
   <line id="_366412920" class="fil0 str1" x1="113.271" y1="74.9877" x2="39.8487" y2= "4.689" />
   <line id="_366413256" class="fil0 str1" x1="117.673" y1="74.9079" x2="44.2512" y2= "4.6092" />
   <line id="_366413592" class="fil0 str1" x1="121.706" y1="75.0132" x2="48.2841" y2= "4.7145" />
   <line id="_366413928" class="fil0 str1" x1="125.886" y1="74.8175" x2="52.4644" y2= "4.5188" />
   <line id="_366414264" class="fil0 str1" x1="131.427" y1="75.2382" x2="58.0047" y2= "4.9394" />
   <line id="_366414600" class="fil0 str1" x1="135.837" y1="75.2323" x2="62.4156" y2= "4.9335" />
   <line id="_366414936" class="fil0 str1" x1="139.939" y1="75.239" x2="66.5175" y2= "4.9402" />
   <line id="_366415272" class="fil0 str1" x1="144.27" y1="75.2792" x2="70.8485" y2= "4.9805" />
   <line id="_366415608" class="fil0 str1" x1="148.761" y1="75.2449" x2="75.3396" y2= "4.9461" />
   <line id="_366415944" class="fil0 str1" x1="153.32" y1="75.4496" x2="79.8977" y2= "5.1509" />
   <line id="_366416280" class="fil0 str1" x1="157.709" y1="75.5028" x2="84.2876" y2= "5.2041" />
   <line id="_366416616" class="fil0 str1" x1="161.876" y1="75.3456" x2="88.4543" y2= "5.0469" />
   <line id="_366416952" class="fil0 str1" x1="166.712" y1="75.4033" x2="93.2899" y2= "5.1045" />
   <line id="_366417288" class="fil0 str1" x1="171.423" y1="75.5316" x2="98.0016" y2= "5.2329" />
   <line id="_366417624" class="fil0 str1" x1="175.609" y1="75.6402" x2="102.187" y2= "5.3415" />
   <line id="_366417960" class="fil0 str1" x1="179.72" y1="75.6682" x2="106.299" y2= "5.3695" />
   <line id="_366418296" class="fil0 str1" x1="184.92" y1="75.7031" x2="111.498" y2= "5.4044" />
   <line id="_366418632" class="fil0 str1" x1="189.414" y1="75.6182" x2="115.993" y2= "5.3195" />
   <line id="_366418968" class="fil0 str1" x1="193.12" y1="75.5735" x2="119.699" y2= "5.2748" />
   <line id="_366419304" class="fil0 str1" x1="198.102" y1="75.9228" x2="124.68" y2= "5.6241" />
   <line id="_366419640" class="fil0 str1" x1="202.811" y1="76.0115" x2="129.389" y2= "5.7128" />
   <line id="_366419976" class="fil0 str1" x1="206.329" y1="74.9363" x2="132.907" y2= "4.6375" />
  </g>
 </g>
</svg>
