<?xml version="1.0" encoding="UTF-8"?>
<!DOCTYPE svg PUBLIC "-//W3C//DTD SVG 1.1//EN" "http://www.w3.org/Graphics/SVG/1.1/DTD/svg11.dtd">
<!-- Creator: CorelDRAW -->
<svg xmlns="http://www.w3.org/2000/svg" xml:space="preserve" width="210mm" height="297mm" style="shape-rendering:geometricPrecision; text-rendering:geometricPrecision; image-rendering:optimizeQuality; fill-rule:evenodd; clip-rule:evenodd"
viewBox="0 0 210 297"
 xmlns:xlink="http://www.w3.org/1999/xlink">
 <defs>
  <style type="text/css">
   <![CDATA[
    .str1 {stroke:#333333;stroke-width:0.25}
    .str0 {stroke:#333333;stroke-width:0.5}
    .fil0 {fill:none}
    .fil1 {fill:#9E312B}
    .fil2 {fill:#B83932}
   ]]>
  </style>
 </defs>
 <g id="Слой_x0020_1">
  <metadata id="CorelCorpID_0Corel-Layer"/>
  <line class="fil0 str0" x1="26.7939" y1="30.0718" x2="27.5296" y2= "100.81" />
  <line class="fil0 str0" x1="100.06" y1="75.0997" x2="99.5926" y2= "101.518" />
  <line class="fil0 str0" x1="191.181" y1="75.834" x2="191.485" y2= "102.41" />
  <line class="fil0 str0" x1="2.8634" y1="100.577" x2="201.642" y2= "102.512" />
  <g id="_365274448">
   <polygon id="_362758280" class="fil1 str1" points="9.594,16.4907 85.0596,74.9221 206.725,75.9124 134.359,17.1437 "/>
   <polygon id="_362748056" class="fil2 str1" points="9.3377,16.3644 12.1825,18.5671 137.133,19.4776 134.103,17.0174 "/>
   <g id="_197247856">
    <path id="_197247352" class="fil0 str1" d="M79.7756 70.3565c1.2215,-1.2801 1.6326,-1.3969 1.9735,-1.4473 0.1454,-0.0216 0.6497,0.0145 1.1311,0.297 0.6474,0.38 1.7385,1.4907 1.7385,1.4907 0.721,-0.7583 1.6577,-2.0643 2.7556,-1.7294 0.3518,0.1074 0.5383,0.2807 0.8449,0.5368l1.2384 1.0381c0.3121,-0.3071 0.5705,-0.7366 0.8826,-1.0437 0.2678,-0.3449 0.4983,-0.5565 0.975,-0.6264 0.3286,-0.0046 0.6093,0.024 0.9858,0.3405 0.4195,0.3516 0.8983,0.7987 1.4519,1.348 0.175,-0.1815 0.3615,-0.4597 0.5365,-0.6413 0.273,-0.3105 0.5298,-0.6277 0.9474,-0.7816 0.2729,-0.0833 0.5857,-0.1226 0.8894,0.0477 0.4696,0.2202 1.3836,0.915 1.8911,1.3617"/>
    <path id="_197248648" class="fil0 str1" d="M97.8836 70.5376c1.2215,-1.2801 1.6326,-1.3969 1.9735,-1.4473 0.1454,-0.0216 0.6497,0.0145 1.1311,0.297 0.6474,0.38 1.7385,1.4907 1.7385,1.4907 0.721,-0.7583 1.6577,-2.0643 2.7556,-1.7294 0.3518,0.1074 0.5383,0.2807 0.8449,0.5368l1.2384 1.0381c0.3121,-0.3071 0.5705,-0.7366 0.8826,-1.0437 0.2678,-0.3449 0.4983,-0.5565 0.975,-0.6264 0.3286,-0.0046 0.6093,0.024 0.9858,0.3405 0.4195,0.3516 0.8983,0.7987 1.4519,1.348 0.175,-0.1815 0.3615,-0.4597 0.5365,-0.6413 0.273,-0.3105 0.5298,-0.6277 0.9474,-0.7816 0.2729,-0.0833 0.5857,-0.1226 0.8894,0.0477 0.4696,0.2202 1.3836,0.915 1.8911,1.3617"/>
    <path id="_197247448" class="fil0 str1" d="M115.94 70.8182c1.2215,-1.2801 1.6326,-1.3969 1.9735,-1.4473 0.1454,-0.0216 0.6497,0.0145 1.1311,0.297 0.6474,0.38 1.7385,1.4907 1.7385,1.4907 0.721,-0.7583 1.6577,-2.0643 2.7556,-1.7294 0.3518,0.1074 0.5383,0.2808 0.8449,0.5368l1.2384 1.0381c0.3121,-0.3071 0.5705,-0.7366 0.8826,-1.0437 0.2678,-0.3449 0.4983,-0.5565 0.975,-0.6264 0.3286,-0.0045 0.6093,0.024 0.9858,0.3405 0.4195,0.3517 0.8983,0.7987 1.4519,1.348 0.175,-0.1815 0.3615,-0.4597 0.5365,-0.6413 0.273,-0.3104 0.5298,-0.6277 0.9474,-0.7816 0.2729,-0.0833 0.5857,-0.1226 0.8894,0.0477 0.4696,0.2202 1.3836,0.915 1.8911,1.3618"/>
    <path id="_197250208" class="fil0 str1" d="M133.996 71.0988c1.2215,-1.2801 1.6326,-1.3969 1.9735,-1.4473 0.1454,-0.0216 0.6497,0.0145 1.1311,0.297 0.6474,0.38 1.7385,1.4907 1.7385,1.4907 0.721,-0.7583 1.6577,-2.0642 2.7556,-1.7294 0.3518,0.1074 0.5383,0.2808 0.8449,0.5368l1.2384 1.0381c0.3121,-0.307 0.5705,-0.7366 0.8826,-1.0436 0.2678,-0.345 0.4983,-0.5566 0.975,-0.6265 0.3286,-0.0045 0.6093,0.0241 0.9858,0.3405 0.4195,0.3517 0.8983,0.7988 1.4519,1.348 0.175,-0.1814 0.3615,-0.4596 0.5365,-0.6413 0.273,-0.3104 0.5298,-0.6276 0.9474,-0.7815 0.2729,-0.0834 0.5857,-0.1227 0.8894,0.0476 0.4696,0.2203 1.3836,0.915 1.8911,1.3618"/>
    <path id="_197256568" class="fil0 str1" d="M152.053 71.3794c1.2215,-1.28 1.6326,-1.3968 1.9735,-1.4473 0.1454,-0.0216 0.6497,0.0145 1.1311,0.297 0.6474,0.38 1.7385,1.4908 1.7385,1.4908 0.721,-0.7584 1.6577,-2.0643 2.7556,-1.7295 0.3518,0.1074 0.5383,0.2808 0.8449,0.5369l1.2384 1.038c0.3121,-0.307 0.5705,-0.7366 0.8826,-1.0436 0.2678,-0.3449 0.4983,-0.5566 0.975,-0.6265 0.3286,-0.0045 0.6093,0.0241 0.9858,0.3405 0.4195,0.3517 0.8983,0.7988 1.4519,1.348 0.175,-0.1814 0.3615,-0.4596 0.5365,-0.6412 0.273,-0.3105 0.5298,-0.6277 0.9474,-0.7816 0.2729,-0.0834 0.5857,-0.1227 0.8894,0.0476 0.4696,0.2203 1.3836,0.9151 1.8911,1.3618"/>
    <path id="_197256688" class="fil0 str1" d="M170.109 71.66c1.2215,-1.28 1.6326,-1.3968 1.9735,-1.4473 0.1454,-0.0216 0.6497,0.0145 1.1311,0.297 0.6474,0.38 1.7385,1.4908 1.7385,1.4908 0.721,-0.7584 1.6577,-2.0643 2.7556,-1.7295 0.3518,0.1074 0.5383,0.2808 0.8449,0.5369l1.2384 1.038c0.3121,-0.307 0.5705,-0.7366 0.8826,-1.0436 0.2678,-0.3449 0.4983,-0.5565 0.975,-0.6264 0.3286,-0.0046 0.6093,0.024 0.9858,0.3404 0.4195,0.3517 0.8983,0.7988 1.4519,1.3481 0.175,-0.1815 0.3615,-0.4597 0.5365,-0.6413 0.273,-0.3105 0.5298,-0.6277 0.9474,-0.7816 0.2729,-0.0834 0.5857,-0.1227 0.8894,0.0476 0.4696,0.2203 1.3836,0.9151 1.8911,1.3618"/>
    <path id="_197252128" class="fil0 str1" d="M188.166 71.9406c1.2215,-1.28 1.6326,-1.3968 1.9735,-1.4473 0.1454,-0.0216 0.6497,0.0145 1.1311,0.297 0.6474,0.38 1.7385,1.4908 1.7385,1.4908 0.721,-0.7584 1.6577,-2.0643 2.7556,-1.7294 0.3518,0.1074 0.5383,0.2807 0.8449,0.5368l1.2384 1.038c0.3121,-0.307 0.5705,-0.7366 0.8826,-1.0436 0.2678,-0.3449 0.4983,-0.5565 0.975,-0.6264 0.3286,-0.0046 0.6093,0.024 0.9858,0.3404 0.4195,0.3517 0.8983,0.7988 1.4519,1.3481"/>
   </g>
   <g id="_197248192">
    <path id="_197251240" class="fil0 str1" d="M72.9136 65.5068c1.2215,-1.2801 1.6326,-1.3969 1.9735,-1.4473 0.1454,-0.0216 0.6497,0.0145 1.1311,0.297 0.6474,0.38 1.7385,1.4907 1.7385,1.4907 0.721,-0.7583 1.6577,-2.0643 2.7556,-1.7294 0.3518,0.1074 0.5383,0.2808 0.8449,0.5368l1.2384 1.0381c0.3121,-0.3071 0.5705,-0.7366 0.8826,-1.0437 0.2678,-0.3449 0.4983,-0.5565 0.975,-0.6264 0.3286,-0.0045 0.6093,0.024 0.9858,0.3405 0.4195,0.3517 0.8983,0.7987 1.4519,1.348 0.175,-0.1815 0.3615,-0.4597 0.5365,-0.6413 0.273,-0.3104 0.5298,-0.6277 0.9474,-0.7816 0.2729,-0.0833 0.5857,-0.1226 0.8894,0.0477 0.4696,0.2202 1.3836,0.915 1.8911,1.3618"/>
    <path id="_197248744" class="fil0 str1" d="M91.0216 65.6879c1.2215,-1.2801 1.6326,-1.3969 1.9735,-1.4473 0.1454,-0.0216 0.6497,0.0145 1.1311,0.297 0.6474,0.38 1.7385,1.4907 1.7385,1.4907 0.721,-0.7583 1.6577,-2.0643 2.7556,-1.7294 0.3518,0.1074 0.5383,0.2808 0.8449,0.5368l1.2384 1.0381c0.3121,-0.307 0.5705,-0.7366 0.8826,-1.0437 0.2678,-0.3449 0.4983,-0.5565 0.975,-0.6264 0.3286,-0.0045 0.6093,0.024 0.9858,0.3405 0.4195,0.3517 0.8983,0.7987 1.4519,1.348 0.175,-0.1815 0.3615,-0.4597 0.5365,-0.6413 0.273,-0.3104 0.5298,-0.6277 0.9474,-0.7816 0.2729,-0.0833 0.5857,-0.1226 0.8894,0.0477 0.4696,0.2202 1.3836,0.915 1.8911,1.3618"/>
    <path id="_197247472" class="fil0 str1" d="M109.078 65.9685c1.2215,-1.2801 1.6326,-1.3969 1.9735,-1.4473 0.1454,-0.0216 0.6497,0.0145 1.1311,0.297 0.6474,0.38 1.7385,1.4907 1.7385,1.4907 0.721,-0.7583 1.6577,-2.0642 2.7556,-1.7294 0.3518,0.1074 0.5383,0.2808 0.8449,0.5368l1.2384 1.0381c0.3121,-0.307 0.5705,-0.7366 0.8826,-1.0436 0.2678,-0.345 0.4983,-0.5566 0.975,-0.6265 0.3286,-0.0045 0.6093,0.0241 0.9858,0.3405 0.4195,0.3517 0.8983,0.7988 1.4519,1.348 0.175,-0.1814 0.3615,-0.4596 0.5365,-0.6413 0.273,-0.3104 0.5298,-0.6276 0.9474,-0.7815 0.2729,-0.0834 0.5857,-0.1227 0.8894,0.0476 0.4696,0.2203 1.3836,0.915 1.8911,1.3618"/>
    <path id="_197249104" class="fil0 str1" d="M127.134 66.2491c1.2215,-1.28 1.6326,-1.3968 1.9735,-1.4473 0.1454,-0.0216 0.6497,0.0145 1.1311,0.297 0.6474,0.38 1.7385,1.4908 1.7385,1.4908 0.721,-0.7584 1.6577,-2.0643 2.7556,-1.7295 0.3518,0.1074 0.5383,0.2808 0.8449,0.5369l1.2384 1.038c0.3121,-0.307 0.5705,-0.7366 0.8826,-1.0436 0.2678,-0.3449 0.4983,-0.5566 0.975,-0.6264 0.3286,-0.0046 0.6093,0.024 0.9858,0.3404 0.4195,0.3517 0.8983,0.7988 1.4519,1.348 0.175,-0.1814 0.3615,-0.4596 0.5365,-0.6412 0.273,-0.3105 0.5298,-0.6277 0.9474,-0.7816 0.2729,-0.0834 0.5857,-0.1227 0.8894,0.0476 0.4696,0.2203 1.3836,0.9151 1.8911,1.3618"/>
    <path id="_194944632" class="fil0 str1" d="M145.191 66.5297c1.2215,-1.28 1.6326,-1.3968 1.9735,-1.4473 0.1454,-0.0216 0.6497,0.0145 1.1311,0.297 0.6474,0.38 1.7385,1.4908 1.7385,1.4908 0.721,-0.7584 1.6577,-2.0643 2.7556,-1.7294 0.3518,0.1073 0.5383,0.2807 0.8449,0.5368l1.2384 1.038c0.3121,-0.307 0.5705,-0.7366 0.8826,-1.0436 0.2678,-0.3449 0.4983,-0.5565 0.975,-0.6264 0.3286,-0.0046 0.6093,0.024 0.9858,0.3404 0.4195,0.3517 0.8983,0.7988 1.4519,1.3481 0.175,-0.1815 0.3615,-0.4597 0.5365,-0.6413 0.273,-0.3105 0.5298,-0.6277 0.9474,-0.7816 0.2729,-0.0834 0.5857,-0.1227 0.8894,0.0476 0.4696,0.2203 1.3836,0.9151 1.8911,1.3618"/>
    <path id="_194950776" class="fil0 str1" d="M163.247 66.8103c1.2215,-1.28 1.6326,-1.3968 1.9735,-1.4473 0.1454,-0.0216 0.6497,0.0145 1.1311,0.297 0.6474,0.38 1.7385,1.4908 1.7385,1.4908 0.721,-0.7584 1.6577,-2.0643 2.7556,-1.7294 0.3518,0.1074 0.5383,0.2807 0.8449,0.5368l1.2384 1.038c0.3121,-0.307 0.5705,-0.7366 0.8826,-1.0436 0.2678,-0.3449 0.4983,-0.5565 0.975,-0.6264 0.3286,-0.0046 0.6093,0.024 0.9858,0.3404 0.4195,0.3517 0.8983,0.7988 1.4519,1.3481 0.175,-0.1815 0.3615,-0.4597 0.5365,-0.6413 0.273,-0.3105 0.5298,-0.6277 0.9474,-0.7816 0.2729,-0.0834 0.5857,-0.1227 0.8894,0.0476 0.4696,0.2203 1.3836,0.9151 1.8911,1.3618"/>
    <path id="_194951160" class="fil0 str1" d="M181.304 67.0909c1.2215,-1.28 1.6326,-1.3968 1.9735,-1.4473 0.1454,-0.0216 0.6497,0.0145 1.1311,0.297 0.6474,0.38 1.7385,1.4908 1.7385,1.4908 0.721,-0.7583 1.6577,-2.0643 2.7556,-1.7294 0.3518,0.1074 0.5383,0.2807 0.8449,0.5368l1.2384 1.0381c0.3121,-0.3071 0.5705,-0.7367 0.8826,-1.0437 0.2678,-0.3449 0.4983,-0.5565 0.975,-0.6264 0.3286,-0.0046 0.6093,0.024 0.9858,0.3405 0.4195,0.3516 0.8983,0.7987 1.4519,1.348"/>
   </g>
   <g id="_197248120">
    <path id="_197247208" class="fil0 str1" d="M66.4361 60.5471c1.2215,-1.28 1.6326,-1.3968 1.9735,-1.4472 0.1454,-0.0216 0.6497,0.0145 1.1311,0.297 0.6474,0.38 1.7385,1.4907 1.7385,1.4907 0.721,-0.7583 1.6577,-2.0643 2.7556,-1.7294 0.3518,0.1074 0.5383,0.2807 0.8449,0.5368l1.2384 1.0381c0.3121,-0.3071 0.5705,-0.7366 0.8826,-1.0437 0.2678,-0.3449 0.4983,-0.5565 0.975,-0.6264 0.3286,-0.0046 0.6093,0.024 0.9858,0.3405 0.4195,0.3516 0.8983,0.7987 1.4519,1.348 0.175,-0.1815 0.3615,-0.4597 0.5365,-0.6413 0.273,-0.3105 0.5298,-0.6277 0.9474,-0.7816 0.2729,-0.0833 0.5857,-0.1226 0.8894,0.0477 0.4696,0.2202 1.3836,0.915 1.8911,1.3617"/>
    <path id="_197257168" class="fil0 str1" d="M84.5441 60.7282c1.2215,-1.28 1.6326,-1.3968 1.9735,-1.4472 0.1454,-0.0216 0.6497,0.0145 1.1311,0.297 0.6474,0.38 1.7385,1.4907 1.7385,1.4907 0.721,-0.7583 1.6577,-2.0643 2.7556,-1.7294 0.3518,0.1074 0.5383,0.2807 0.8449,0.5368l1.2384 1.0381c0.3121,-0.3071 0.5705,-0.7366 0.8826,-1.0437 0.2678,-0.3449 0.4983,-0.5565 0.975,-0.6264 0.3286,-0.0046 0.6093,0.024 0.9858,0.3405 0.4195,0.3516 0.8983,0.7987 1.4519,1.348 0.175,-0.1815 0.3615,-0.4597 0.5365,-0.6413 0.273,-0.3105 0.5298,-0.6277 0.9474,-0.7816 0.2729,-0.0833 0.5857,-0.1226 0.8894,0.0477 0.4696,0.2202 1.3836,0.915 1.8911,1.3617"/>
    <path id="_194951352" class="fil0 str1" d="M102.601 61.0089c1.2215,-1.2801 1.6326,-1.3969 1.9735,-1.4473 0.1454,-0.0216 0.6497,0.0145 1.1311,0.297 0.6474,0.38 1.7385,1.4907 1.7385,1.4907 0.721,-0.7583 1.6577,-2.0643 2.7556,-1.7294 0.3518,0.1074 0.5383,0.2807 0.8449,0.5368l1.2384 1.0381c0.3121,-0.3071 0.5705,-0.7366 0.8826,-1.0437 0.2678,-0.3449 0.4983,-0.5565 0.975,-0.6264 0.3286,-0.0046 0.6093,0.024 0.9858,0.3405 0.4195,0.3516 0.8983,0.7987 1.4519,1.348 0.175,-0.1815 0.3615,-0.4597 0.5365,-0.6413 0.273,-0.3104 0.5298,-0.6277 0.9474,-0.7816 0.2729,-0.0833 0.5857,-0.1226 0.8894,0.0477 0.4696,0.2202 1.3836,0.915 1.8911,1.3617"/>
    <path id="_195127048" class="fil0 str1" d="M120.657 61.2895c1.2215,-1.2801 1.6326,-1.3969 1.9735,-1.4473 0.1454,-0.0216 0.6497,0.0145 1.1311,0.297 0.6474,0.38 1.7385,1.4907 1.7385,1.4907 0.721,-0.7583 1.6577,-2.0643 2.7556,-1.7294 0.3518,0.1074 0.5383,0.2808 0.8449,0.5368l1.2384 1.0381c0.3121,-0.307 0.5705,-0.7366 0.8826,-1.0437 0.2678,-0.3449 0.4983,-0.5565 0.975,-0.6264 0.3286,-0.0045 0.6093,0.0241 0.9858,0.3405 0.4195,0.3517 0.8983,0.7987 1.4519,1.348 0.175,-0.1815 0.3615,-0.4597 0.5365,-0.6413 0.273,-0.3104 0.5298,-0.6277 0.9474,-0.7816 0.2729,-0.0833 0.5857,-0.1226 0.8894,0.0477 0.4696,0.2202 1.3836,0.915 1.8911,1.3618"/>
    <path id="_195127240" class="fil0 str1" d="M138.713 61.5701c1.2215,-1.2801 1.6326,-1.3968 1.9735,-1.4473 0.1454,-0.0216 0.6497,0.0145 1.1311,0.297 0.6474,0.38 1.7385,1.4907 1.7385,1.4907 0.721,-0.7583 1.6577,-2.0642 2.7556,-1.7294 0.3518,0.1074 0.5383,0.2808 0.8449,0.5369l1.2384 1.038c0.3121,-0.307 0.5705,-0.7366 0.8826,-1.0436 0.2678,-0.345 0.4983,-0.5566 0.975,-0.6265 0.3286,-0.0045 0.6093,0.0241 0.9858,0.3405 0.4195,0.3517 0.8983,0.7988 1.4519,1.348 0.175,-0.1814 0.3615,-0.4596 0.5365,-0.6413 0.273,-0.3104 0.5298,-0.6276 0.9474,-0.7815 0.2729,-0.0834 0.5857,-0.1227 0.8894,0.0476 0.4696,0.2203 1.3836,0.915 1.8911,1.3618"/>
    <path id="_195127432" class="fil0 str1" d="M156.77 61.8507c1.2215,-1.28 1.6326,-1.3968 1.9735,-1.4473 0.1454,-0.0216 0.6497,0.0145 1.1311,0.297 0.6474,0.38 1.7385,1.4908 1.7385,1.4908 0.721,-0.7584 1.6577,-2.0643 2.7556,-1.7295 0.3518,0.1074 0.5383,0.2808 0.8449,0.5369l1.2384 1.038c0.3121,-0.307 0.5705,-0.7366 0.8826,-1.0436 0.2678,-0.3449 0.4983,-0.5565 0.975,-0.6264 0.3286,-0.0046 0.6093,0.024 0.9858,0.3404 0.4195,0.3517 0.8983,0.7988 1.4519,1.348 0.175,-0.1814 0.3615,-0.4596 0.5365,-0.6412 0.273,-0.3105 0.5298,-0.6277 0.9474,-0.7816 0.2729,-0.0834 0.5857,-0.1227 0.8894,0.0476 0.4696,0.2203 1.3836,0.9151 1.8911,1.3618"/>
    <path id="_195128008" class="fil0 str1" d="M174.826 62.1313c1.2215,-1.28 1.6326,-1.3968 1.9735,-1.4473 0.1454,-0.0216 0.6497,0.0145 1.1311,0.297 0.6474,0.38 1.7385,1.4908 1.7385,1.4908 0.721,-0.7584 1.6577,-2.0643 2.7556,-1.7294 0.3518,0.1073 0.5383,0.2807 0.8449,0.5368l1.2384 1.038c0.3121,-0.307 0.5705,-0.7366 0.8826,-1.0436 0.2678,-0.3449 0.4983,-0.5565 0.975,-0.6264 0.3286,-0.0046 0.6093,0.024 0.9858,0.3404 0.4195,0.3517 0.8983,0.7988 1.4519,1.3481"/>
   </g>
   <g id="_197257072">
    <path id="_195130696" class="fil0 str1" d="M59.8147 55.4791c1.2215,-1.28 1.6326,-1.3968 1.9735,-1.4473 0.1454,-0.0216 0.6497,0.0145 1.1311,0.297 0.6474,0.38 1.7385,1.4908 1.7385,1.4908 0.721,-0.7583 1.6577,-2.0643 2.7556,-1.7294 0.3518,0.1074 0.5383,0.2807 0.8449,0.5368l1.2384 1.038c0.3121,-0.307 0.5705,-0.7366 0.8826,-1.0436 0.2678,-0.3449 0.4983,-0.5565 0.975,-0.6264 0.3286,-0.0046 0.6093,0.024 0.9858,0.3405 0.4195,0.3516 0.8983,0.7987 1.4519,1.348 0.175,-0.1815 0.3615,-0.4597 0.5365,-0.6413 0.273,-0.3105 0.5298,-0.6277 0.9474,-0.7816 0.2729,-0.0834 0.5857,-0.1226 0.8894,0.0477 0.4696,0.2202 1.3836,0.915 1.8911,1.3617"/>
    <path id="_195130888" class="fil0 str1" d="M77.9227 55.6602c1.2215,-1.28 1.6326,-1.3968 1.9735,-1.4473 0.1454,-0.0216 0.6497,0.0145 1.1311,0.297 0.6474,0.38 1.7385,1.4908 1.7385,1.4908 0.721,-0.7583 1.6577,-2.0643 2.7556,-1.7294 0.3518,0.1074 0.5383,0.2807 0.8449,0.5368l1.2384 1.038c0.3121,-0.307 0.5705,-0.7366 0.8826,-1.0436 0.2678,-0.3449 0.4983,-0.5565 0.975,-0.6264 0.3286,-0.0046 0.6093,0.024 0.9858,0.3405 0.4195,0.3516 0.8983,0.7987 1.4519,1.348 0.175,-0.1815 0.3615,-0.4597 0.5365,-0.6413 0.273,-0.3105 0.5298,-0.6277 0.9474,-0.7816 0.2729,-0.0834 0.5857,-0.1226 0.8894,0.0477 0.4696,0.2202 1.3836,0.915 1.8911,1.3617"/>
    <path id="_195131080" class="fil0 str1" d="M95.9791 55.9408c1.2215,-1.28 1.6326,-1.3968 1.9735,-1.4473 0.1454,-0.0216 0.6497,0.0145 1.1311,0.2971 0.6474,0.3799 1.7385,1.4907 1.7385,1.4907 0.721,-0.7583 1.6577,-2.0643 2.7556,-1.7294 0.3518,0.1074 0.5383,0.2807 0.8449,0.5368l1.2384 1.0381c0.3121,-0.3071 0.5705,-0.7366 0.8826,-1.0437 0.2678,-0.3449 0.4983,-0.5565 0.975,-0.6264 0.3286,-0.0046 0.6093,0.024 0.9858,0.3405 0.4195,0.3516 0.8983,0.7987 1.4519,1.348 0.175,-0.1815 0.3615,-0.4597 0.5365,-0.6413 0.273,-0.3105 0.5298,-0.6277 0.9474,-0.7816 0.2729,-0.0834 0.5857,-0.1226 0.8894,0.0477 0.4696,0.2202 1.3836,0.915 1.8911,1.3617"/>
    <path id="_195131272" class="fil0 str1" d="M114.036 56.2214c1.2215,-1.28 1.6326,-1.3968 1.9735,-1.4472 0.1454,-0.0216 0.6497,0.0144 1.1311,0.297 0.6474,0.38 1.7385,1.4907 1.7385,1.4907 0.721,-0.7583 1.6577,-2.0643 2.7556,-1.7294 0.3518,0.1074 0.5383,0.2807 0.8449,0.5368l1.2384 1.0381c0.3121,-0.3071 0.5705,-0.7366 0.8826,-1.0437 0.2678,-0.3449 0.4983,-0.5565 0.975,-0.6264 0.3286,-0.0046 0.6093,0.024 0.9858,0.3405 0.4195,0.3516 0.8983,0.7987 1.4519,1.348 0.175,-0.1815 0.3615,-0.4597 0.5365,-0.6413 0.273,-0.3105 0.5298,-0.6277 0.9474,-0.7816 0.2729,-0.0834 0.5857,-0.1226 0.8894,0.0477 0.4696,0.2202 1.3836,0.915 1.8911,1.3617"/>
    <path id="_195131464" class="fil0 str1" d="M132.092 56.5021c1.2215,-1.2801 1.6326,-1.3969 1.9735,-1.4473 0.1454,-0.0216 0.6497,0.0145 1.1311,0.297 0.6474,0.38 1.7385,1.4907 1.7385,1.4907 0.721,-0.7583 1.6577,-2.0643 2.7556,-1.7294 0.3518,0.1074 0.5383,0.2807 0.8449,0.5368l1.2384 1.0381c0.3121,-0.3071 0.5705,-0.7366 0.8826,-1.0437 0.2678,-0.3449 0.4983,-0.5565 0.975,-0.6264 0.3286,-0.0046 0.6093,0.024 0.9858,0.3405 0.4195,0.3516 0.8983,0.7987 1.4519,1.348 0.175,-0.1815 0.3615,-0.4597 0.5365,-0.6413 0.273,-0.3105 0.5298,-0.6277 0.9474,-0.7816 0.2729,-0.0833 0.5857,-0.1226 0.8894,0.0477 0.4696,0.2202 1.3836,0.915 1.8911,1.3617"/>
    <path id="_195131656" class="fil0 str1" d="M150.148 56.7827c1.2215,-1.2801 1.6326,-1.3969 1.9735,-1.4473 0.1454,-0.0216 0.6497,0.0145 1.1311,0.297 0.6474,0.38 1.7385,1.4907 1.7385,1.4907 0.721,-0.7583 1.6577,-2.0643 2.7556,-1.7294 0.3518,0.1074 0.5383,0.2808 0.8449,0.5368l1.2384 1.0381c0.3121,-0.3071 0.5705,-0.7366 0.8826,-1.0437 0.2678,-0.3449 0.4983,-0.5565 0.975,-0.6264 0.3286,-0.0045 0.6093,0.024 0.9858,0.3405 0.4195,0.3516 0.8983,0.7987 1.4519,1.348 0.175,-0.1815 0.3615,-0.4597 0.5365,-0.6413 0.273,-0.3104 0.5298,-0.6277 0.9474,-0.7816 0.2729,-0.0833 0.5857,-0.1226 0.8894,0.0477 0.4696,0.2202 1.3836,0.915 1.8911,1.3617"/>
    <path id="_195131848" class="fil0 str1" d="M168.205 57.0633c1.2215,-1.2801 1.6326,-1.3969 1.9735,-1.4473 0.1454,-0.0216 0.6497,0.0145 1.1311,0.297 0.6474,0.38 1.7385,1.4907 1.7385,1.4907 0.721,-0.7583 1.6577,-2.0643 2.7556,-1.7294 0.3518,0.1074 0.5383,0.2808 0.8449,0.5368l1.2384 1.0381c0.3121,-0.307 0.5705,-0.7366 0.8826,-1.0436 0.2678,-0.345 0.4983,-0.5566 0.975,-0.6265 0.3286,-0.0045 0.6093,0.0241 0.9858,0.3405 0.4195,0.3517 0.8983,0.7988 1.4519,1.348"/>
   </g>
   <g id="_195130504">
    <path id="_195132232" class="fil0 str1" d="M53.4652 50.5809c1.2215,-1.2801 1.6326,-1.3968 1.9735,-1.4473 0.1454,-0.0216 0.6497,0.0145 1.1311,0.297 0.6474,0.38 1.7385,1.4908 1.7385,1.4908 0.721,-0.7584 1.6577,-2.0643 2.7556,-1.7295 0.3518,0.1074 0.5383,0.2808 0.8449,0.5369l1.2384 1.038c0.3121,-0.307 0.5705,-0.7366 0.8826,-1.0436 0.2678,-0.345 0.4983,-0.5566 0.975,-0.6265 0.3286,-0.0045 0.6093,0.0241 0.9858,0.3405 0.4195,0.3517 0.8983,0.7988 1.4519,1.348 0.175,-0.1814 0.3615,-0.4596 0.5365,-0.6412 0.273,-0.3105 0.5298,-0.6277 0.9474,-0.7816 0.2729,-0.0834 0.5857,-0.1227 0.8894,0.0476 0.4696,0.2203 1.3836,0.9151 1.8911,1.3618"/>
    <path id="_195132424" class="fil0 str1" d="M71.5732 50.762c1.2215,-1.28 1.6326,-1.3968 1.9735,-1.4473 0.1454,-0.0216 0.6497,0.0145 1.1311,0.297 0.6474,0.38 1.7385,1.4908 1.7385,1.4908 0.721,-0.7584 1.6577,-2.0643 2.7556,-1.7295 0.3518,0.1074 0.5383,0.2808 0.8449,0.5369l1.2384 1.038c0.3121,-0.307 0.5705,-0.7366 0.8826,-1.0436 0.2678,-0.345 0.4983,-0.5566 0.975,-0.6265 0.3286,-0.0045 0.6093,0.0241 0.9858,0.3405 0.4195,0.3517 0.8983,0.7988 1.4519,1.348 0.175,-0.1814 0.3615,-0.4596 0.5365,-0.6412 0.273,-0.3105 0.5298,-0.6277 0.9474,-0.7816 0.2729,-0.0834 0.5857,-0.1227 0.8894,0.0476 0.4696,0.2203 1.3836,0.9151 1.8911,1.3618"/>
    <path id="_195132616" class="fil0 str1" d="M89.6296 51.0426c1.2215,-1.28 1.6326,-1.3968 1.9735,-1.4473 0.1454,-0.0216 0.6497,0.0145 1.1311,0.297 0.6474,0.38 1.7385,1.4908 1.7385,1.4908 0.721,-0.7584 1.6577,-2.0643 2.7556,-1.7295 0.3518,0.1074 0.5383,0.2808 0.8449,0.5369l1.2384 1.038c0.3121,-0.307 0.5705,-0.7366 0.8826,-1.0436 0.2678,-0.3449 0.4983,-0.5565 0.975,-0.6264 0.3286,-0.0046 0.6093,0.024 0.9858,0.3404 0.4195,0.3517 0.8983,0.7988 1.4519,1.3481 0.175,-0.1815 0.3615,-0.4597 0.5365,-0.6413 0.273,-0.3105 0.5298,-0.6277 0.9474,-0.7816 0.2729,-0.0834 0.5857,-0.1227 0.8894,0.0476 0.4696,0.2203 1.3836,0.9151 1.8911,1.3618"/>
    <path id="_195132808" class="fil0 str1" d="M107.686 51.3232c1.2215,-1.28 1.6326,-1.3968 1.9735,-1.4473 0.1454,-0.0216 0.6497,0.0145 1.1311,0.297 0.6474,0.38 1.7385,1.4908 1.7385,1.4908 0.721,-0.7584 1.6577,-2.0643 2.7556,-1.7294 0.3518,0.1073 0.5383,0.2807 0.8449,0.5368l1.2384 1.038c0.3121,-0.307 0.5705,-0.7366 0.8826,-1.0436 0.2678,-0.3449 0.4983,-0.5565 0.975,-0.6264 0.3286,-0.0046 0.6093,0.024 0.9858,0.3404 0.4195,0.3517 0.8983,0.7988 1.4519,1.3481 0.175,-0.1815 0.3615,-0.4597 0.5365,-0.6413 0.273,-0.3105 0.5298,-0.6277 0.9474,-0.7816 0.2729,-0.0834 0.5857,-0.1227 0.8894,0.0476 0.4696,0.2203 1.3836,0.9151 1.8911,1.3618"/>
    <path id="_194941176" class="fil0 str1" d="M125.742 51.6038c1.2215,-1.28 1.6326,-1.3968 1.9735,-1.4473 0.1454,-0.0216 0.6497,0.0145 1.1311,0.297 0.6474,0.38 1.7385,1.4908 1.7385,1.4908 0.721,-0.7584 1.6577,-2.0643 2.7556,-1.7294 0.3518,0.1074 0.5383,0.2807 0.8449,0.5368l1.2384 1.038c0.3121,-0.307 0.5705,-0.7366 0.8826,-1.0436 0.2678,-0.3449 0.4983,-0.5565 0.975,-0.6264 0.3286,-0.0046 0.6093,0.024 0.9858,0.3404 0.4195,0.3517 0.8983,0.7988 1.4519,1.3481 0.175,-0.1815 0.3615,-0.4597 0.5365,-0.6413 0.273,-0.3105 0.5298,-0.6277 0.9474,-0.7816 0.2729,-0.0834 0.5857,-0.1226 0.8894,0.0477 0.4696,0.2202 1.3836,0.915 1.8911,1.3617"/>
    <path id="_194941368" class="fil0 str1" d="M143.799 51.8844c1.2215,-1.28 1.6326,-1.3968 1.9735,-1.4473 0.1454,-0.0216 0.6497,0.0145 1.1311,0.2971 0.6474,0.3799 1.7385,1.4907 1.7385,1.4907 0.721,-0.7583 1.6577,-2.0643 2.7556,-1.7294 0.3518,0.1074 0.5383,0.2807 0.8449,0.5368l1.2384 1.0381c0.3121,-0.3071 0.5705,-0.7366 0.8826,-1.0437 0.2678,-0.3449 0.4983,-0.5565 0.975,-0.6264 0.3286,-0.0046 0.6093,0.024 0.9858,0.3405 0.4195,0.3516 0.8983,0.7987 1.4519,1.348 0.175,-0.1815 0.3615,-0.4597 0.5365,-0.6413 0.273,-0.3105 0.5298,-0.6277 0.9474,-0.7816 0.2729,-0.0834 0.5857,-0.1226 0.8894,0.0477 0.4696,0.2202 1.3836,0.915 1.8911,1.3617"/>
    <path id="_194941944" class="fil0 str1" d="M161.855 52.165c1.2215,-1.28 1.6326,-1.3968 1.9735,-1.4472 0.1454,-0.0216 0.6497,0.0144 1.1311,0.297 0.6474,0.38 1.7385,1.4907 1.7385,1.4907 0.721,-0.7583 1.6577,-2.0643 2.7556,-1.7294 0.3518,0.1074 0.5383,0.2807 0.8449,0.5368l1.2384 1.0381c0.3121,-0.3071 0.5705,-0.7366 0.8826,-1.0437 0.2678,-0.3449 0.4983,-0.5565 0.975,-0.6264 0.3286,-0.0046 0.6093,0.024 0.9858,0.3405 0.4195,0.3516 0.8983,0.7987 1.4519,1.348"/>
   </g>
   <g id="_195132040">
    <path id="_194942328" class="fil0 str1" d="M46.6692 45.3578c1.2215,-1.28 1.6326,-1.3968 1.9735,-1.4473 0.1454,-0.0216 0.6497,0.0145 1.1311,0.297 0.6474,0.38 1.7385,1.4908 1.7385,1.4908 0.721,-0.7584 1.6577,-2.0643 2.7556,-1.7294 0.3518,0.1074 0.5383,0.2807 0.8449,0.5368l1.2384 1.038c0.3121,-0.307 0.5705,-0.7366 0.8826,-1.0436 0.2678,-0.3449 0.4983,-0.5565 0.975,-0.6264 0.3286,-0.0046 0.6093,0.024 0.9858,0.3404 0.4195,0.3517 0.8983,0.7988 1.4519,1.3481 0.175,-0.1815 0.3615,-0.4597 0.5365,-0.6413 0.273,-0.3105 0.5298,-0.6277 0.9474,-0.7816 0.2729,-0.0834 0.5857,-0.1227 0.8894,0.0476 0.4696,0.2203 1.3836,0.9151 1.8911,1.3618"/>
    <path id="_194945784" class="fil0 str1" d="M64.7772 45.5389c1.2215,-1.28 1.6326,-1.3968 1.9735,-1.4473 0.1454,-0.0216 0.6497,0.0145 1.1311,0.297 0.6474,0.38 1.7385,1.4908 1.7385,1.4908 0.721,-0.7584 1.6577,-2.0643 2.7556,-1.7294 0.3518,0.1074 0.5383,0.2807 0.8449,0.5368l1.2384 1.038c0.3121,-0.307 0.5705,-0.7366 0.8826,-1.0436 0.2678,-0.3449 0.4983,-0.5565 0.975,-0.6264 0.3286,-0.0046 0.6093,0.024 0.9858,0.3404 0.4195,0.3517 0.8983,0.7988 1.4519,1.3481 0.175,-0.1815 0.3615,-0.4597 0.5365,-0.6413 0.273,-0.3105 0.5298,-0.6277 0.9474,-0.7816 0.2729,-0.0834 0.5857,-0.1227 0.8894,0.0476 0.4696,0.2203 1.3836,0.9151 1.8911,1.3618"/>
    <path id="_194945976" class="fil0 str1" d="M82.8336 45.8195c1.2215,-1.28 1.6326,-1.3968 1.9735,-1.4473 0.1454,-0.0216 0.6497,0.0145 1.1311,0.297 0.6474,0.38 1.7385,1.4908 1.7385,1.4908 0.721,-0.7583 1.6577,-2.0643 2.7556,-1.7294 0.3518,0.1074 0.5383,0.2807 0.8449,0.5368l1.2384 1.0381c0.3121,-0.3071 0.5705,-0.7367 0.8826,-1.0437 0.2678,-0.3449 0.4983,-0.5565 0.975,-0.6264 0.3286,-0.0046 0.6093,0.024 0.9858,0.3405 0.4195,0.3516 0.8983,0.7987 1.4519,1.348 0.175,-0.1815 0.3615,-0.4597 0.5365,-0.6413 0.273,-0.3105 0.5298,-0.6277 0.9474,-0.7816 0.2729,-0.0834 0.5857,-0.1226 0.8894,0.0477 0.4696,0.2202 1.3836,0.915 1.8911,1.3617"/>
    <path id="_194946168" class="fil0 str1" d="M100.89 46.1001c1.2215,-1.28 1.6326,-1.3968 1.9735,-1.4472 0.1454,-0.0217 0.6497,0.0144 1.1311,0.297 0.6474,0.3799 1.7385,1.4907 1.7385,1.4907 0.721,-0.7583 1.6577,-2.0643 2.7556,-1.7294 0.3518,0.1074 0.5383,0.2807 0.8449,0.5368l1.2384 1.0381c0.3121,-0.3071 0.5705,-0.7366 0.8826,-1.0437 0.2678,-0.3449 0.4983,-0.5565 0.975,-0.6264 0.3286,-0.0046 0.6093,0.024 0.9858,0.3405 0.4195,0.3516 0.8983,0.7987 1.4519,1.348 0.175,-0.1815 0.3615,-0.4597 0.5365,-0.6413 0.273,-0.3105 0.5298,-0.6277 0.9474,-0.7816 0.2729,-0.0834 0.5857,-0.1226 0.8894,0.0477 0.4696,0.2202 1.3836,0.915 1.8911,1.3617"/>
    <path id="_194946360" class="fil0 str1" d="M118.946 46.3807c1.2215,-1.28 1.6326,-1.3968 1.9735,-1.4472 0.1454,-0.0216 0.6497,0.0144 1.1311,0.297 0.6474,0.38 1.7385,1.4907 1.7385,1.4907 0.721,-0.7583 1.6577,-2.0643 2.7556,-1.7294 0.3518,0.1074 0.5383,0.2807 0.8449,0.5368l1.2384 1.0381c0.3121,-0.3071 0.5705,-0.7366 0.8826,-1.0437 0.2678,-0.3449 0.4983,-0.5565 0.975,-0.6264 0.3286,-0.0046 0.6093,0.024 0.9858,0.3405 0.4195,0.3516 0.8983,0.7987 1.4519,1.348 0.175,-0.1815 0.3615,-0.4597 0.5365,-0.6413 0.273,-0.3105 0.5298,-0.6277 0.9474,-0.7816 0.2729,-0.0834 0.5857,-0.1226 0.8894,0.0477 0.4696,0.2202 1.3836,0.915 1.8911,1.3617"/>
    <path id="_194946552" class="fil0 str1" d="M137.003 46.6614c1.2215,-1.2801 1.6326,-1.3969 1.9735,-1.4473 0.1454,-0.0216 0.6497,0.0145 1.1311,0.297 0.6474,0.38 1.7385,1.4907 1.7385,1.4907 0.721,-0.7583 1.6577,-2.0643 2.7556,-1.7294 0.3518,0.1074 0.5383,0.2807 0.8449,0.5368l1.2384 1.0381c0.3121,-0.3071 0.5705,-0.7366 0.8826,-1.0437 0.2678,-0.3449 0.4983,-0.5565 0.975,-0.6264 0.3286,-0.0046 0.6093,0.024 0.9858,0.3405 0.4195,0.3516 0.8983,0.7987 1.4519,1.348 0.175,-0.1815 0.3615,-0.4597 0.5365,-0.6413 0.273,-0.3105 0.5298,-0.6277 0.9474,-0.7816 0.2729,-0.0833 0.5857,-0.1226 0.8894,0.0477 0.4696,0.2202 1.3836,0.915 1.8911,1.3617"/>
    <path id="_194946744" class="fil0 str1" d="M155.059 46.942c1.2215,-1.2801 1.6326,-1.3969 1.9735,-1.4473 0.1454,-0.0216 0.6497,0.0145 1.1311,0.297 0.6474,0.38 1.7385,1.4907 1.7385,1.4907 0.721,-0.7583 1.6577,-2.0643 2.7556,-1.7294 0.3518,0.1074 0.5383,0.2808 0.8449,0.5368l1.2384 1.0381c0.3121,-0.3071 0.5705,-0.7366 0.8826,-1.0437 0.2678,-0.3449 0.4983,-0.5565 0.975,-0.6264 0.3286,-0.0045 0.6093,0.024 0.9858,0.3405 0.4195,0.3516 0.8983,0.7987 1.4519,1.348"/>
   </g>
   <g id="_194942136">
    <path id="_194947896" class="fil0 str1" d="M40.4652 40.4933c1.2215,-1.2801 1.6326,-1.3969 1.9735,-1.4473 0.1454,-0.0216 0.6497,0.0145 1.1311,0.297 0.6474,0.38 1.7385,1.4907 1.7385,1.4907 0.721,-0.7583 1.6577,-2.0643 2.7556,-1.7294 0.3518,0.1074 0.5383,0.2807 0.8449,0.5368l1.2384 1.0381c0.3121,-0.3071 0.5705,-0.7366 0.8826,-1.0437 0.2678,-0.3449 0.4983,-0.5565 0.975,-0.6264 0.3286,-0.0046 0.6093,0.024 0.9858,0.3405 0.4195,0.3516 0.8983,0.7987 1.4519,1.348 0.175,-0.1815 0.3615,-0.4597 0.5365,-0.6413 0.273,-0.3105 0.5298,-0.6277 0.9474,-0.7816 0.2729,-0.0833 0.5857,-0.1226 0.8894,0.0477 0.4696,0.2202 1.3836,0.915 1.8911,1.3617"/>
    <path id="_194948088" class="fil0 str1" d="M58.5732 40.6744c1.2215,-1.2801 1.6326,-1.3969 1.9735,-1.4473 0.1454,-0.0216 0.6497,0.0145 1.1311,0.297 0.6474,0.38 1.7385,1.4907 1.7385,1.4907 0.721,-0.7583 1.6577,-2.0643 2.7556,-1.7294 0.3518,0.1074 0.5383,0.2807 0.8449,0.5368l1.2384 1.0381c0.3121,-0.3071 0.5705,-0.7366 0.8826,-1.0437 0.2678,-0.3449 0.4983,-0.5565 0.975,-0.6264 0.3286,-0.0046 0.6093,0.024 0.9858,0.3405 0.4195,0.3516 0.8983,0.7987 1.4519,1.348 0.175,-0.1815 0.3615,-0.4597 0.5365,-0.6413 0.273,-0.3105 0.5298,-0.6277 0.9474,-0.7816 0.2729,-0.0833 0.5857,-0.1226 0.8894,0.0477 0.4696,0.2202 1.3836,0.915 1.8911,1.3617"/>
    <path id="_194948280" class="fil0 str1" d="M76.6296 40.955c1.2215,-1.2801 1.6326,-1.3969 1.9735,-1.4473 0.1454,-0.0216 0.6497,0.0145 1.1311,0.297 0.6474,0.38 1.7385,1.4907 1.7385,1.4907 0.721,-0.7583 1.6577,-2.0643 2.7556,-1.7294 0.3518,0.1074 0.5383,0.2808 0.8449,0.5368l1.2384 1.0381c0.3121,-0.3071 0.5705,-0.7366 0.8826,-1.0437 0.2678,-0.3449 0.4983,-0.5565 0.975,-0.6264 0.3286,-0.0045 0.6093,0.024 0.9858,0.3405 0.4195,0.3516 0.8983,0.7987 1.4519,1.348 0.175,-0.1815 0.3615,-0.4597 0.5365,-0.6413 0.273,-0.3104 0.5298,-0.6277 0.9474,-0.7816 0.2729,-0.0833 0.5857,-0.1226 0.8894,0.0477 0.4696,0.2202 1.3836,0.915 1.8911,1.3617"/>
    <path id="_194948472" class="fil0 str1" d="M94.686 41.2356c1.2215,-1.2801 1.6326,-1.3969 1.9735,-1.4473 0.1454,-0.0216 0.6497,0.0145 1.1311,0.297 0.6474,0.38 1.7385,1.4907 1.7385,1.4907 0.721,-0.7583 1.6577,-2.0643 2.7556,-1.7294 0.3518,0.1074 0.5383,0.2808 0.8449,0.5368l1.2384 1.0381c0.3121,-0.307 0.5705,-0.7366 0.8826,-1.0436 0.2678,-0.345 0.4983,-0.5566 0.975,-0.6265 0.3286,-0.0045 0.6093,0.0241 0.9858,0.3405 0.4195,0.3517 0.8983,0.7988 1.4519,1.348 0.175,-0.1815 0.3615,-0.4596 0.5365,-0.6413 0.273,-0.3104 0.5298,-0.6276 0.9474,-0.7815 0.2729,-0.0834 0.5857,-0.1227 0.8894,0.0476 0.4696,0.2203 1.3836,0.915 1.8911,1.3618"/>
    <path id="_194948664" class="fil0 str1" d="M112.742 41.5162c1.2215,-1.28 1.6326,-1.3968 1.9735,-1.4473 0.1454,-0.0216 0.6497,0.0145 1.1311,0.297 0.6474,0.38 1.7385,1.4908 1.7385,1.4908 0.721,-0.7584 1.6577,-2.0643 2.7556,-1.7295 0.3518,0.1074 0.5383,0.2808 0.8449,0.5369l1.2384 1.038c0.3121,-0.307 0.5705,-0.7366 0.8826,-1.0436 0.2678,-0.345 0.4983,-0.5566 0.975,-0.6265 0.3286,-0.0045 0.6093,0.0241 0.9858,0.3405 0.4195,0.3517 0.8983,0.7988 1.4519,1.348 0.175,-0.1814 0.3615,-0.4596 0.5365,-0.6412 0.273,-0.3105 0.5298,-0.6277 0.9474,-0.7816 0.2729,-0.0834 0.5857,-0.1227 0.8894,0.0476 0.4696,0.2203 1.3836,0.9151 1.8911,1.3618"/>
    <path id="_194948856" class="fil0 str1" d="M130.799 41.7968c1.2215,-1.28 1.6326,-1.3968 1.9735,-1.4473 0.1454,-0.0216 0.6497,0.0145 1.1311,0.297 0.6474,0.38 1.7385,1.4908 1.7385,1.4908 0.721,-0.7584 1.6577,-2.0643 2.7556,-1.7295 0.3518,0.1074 0.5383,0.2808 0.8449,0.5369l1.2384 1.038c0.3121,-0.307 0.5705,-0.7366 0.8826,-1.0436 0.2678,-0.3449 0.4983,-0.5565 0.975,-0.6264 0.3286,-0.0046 0.6093,0.024 0.9858,0.3404 0.4195,0.3517 0.8983,0.7988 1.4519,1.3481 0.175,-0.1815 0.3615,-0.4597 0.5365,-0.6413 0.273,-0.3105 0.5298,-0.6277 0.9474,-0.7816 0.2729,-0.0834 0.5857,-0.1227 0.8894,0.0476 0.4696,0.2203 1.3836,0.9151 1.8911,1.3618"/>
    <path id="_194949048" class="fil0 str1" d="M148.855 42.0774c1.2215,-1.28 1.6326,-1.3968 1.9735,-1.4473 0.1454,-0.0216 0.6497,0.0145 1.1311,0.297 0.6474,0.38 1.7385,1.4908 1.7385,1.4908 0.721,-0.7584 1.6577,-2.0643 2.7556,-1.7294 0.3518,0.1073 0.5383,0.2807 0.8449,0.5368l1.2384 1.038c0.3121,-0.307 0.5705,-0.7366 0.8826,-1.0436 0.2678,-0.3449 0.4983,-0.5565 0.975,-0.6264 0.3286,-0.0046 0.6093,0.024 0.9858,0.3404 0.4195,0.3517 0.8983,0.7988 1.4519,1.3481"/>
   </g>
   <g id="_194946936">
    <path id="_194949816" class="fil0 str1" d="M34.2359 35.6114c1.2215,-1.28 1.6326,-1.3968 1.9735,-1.4473 0.1454,-0.0216 0.6497,0.0145 1.1311,0.297 0.6474,0.38 1.7385,1.4908 1.7385,1.4908 0.721,-0.7584 1.6577,-2.0643 2.7556,-1.7294 0.3518,0.1074 0.5383,0.2807 0.8449,0.5368l1.2384 1.038c0.3121,-0.307 0.5705,-0.7366 0.8826,-1.0436 0.2678,-0.3449 0.4983,-0.5565 0.975,-0.6264 0.3286,-0.0046 0.6093,0.024 0.9858,0.3404 0.4195,0.3517 0.8983,0.7988 1.4519,1.3481 0.175,-0.1815 0.3615,-0.4597 0.5365,-0.6413 0.273,-0.3105 0.5298,-0.6277 0.9474,-0.7816 0.2729,-0.0834 0.5857,-0.1227 0.8894,0.0476 0.4696,0.2203 1.3836,0.9151 1.8911,1.3618"/>
    <path id="_194950008" class="fil0 str1" d="M52.3439 35.7925c1.2215,-1.28 1.6326,-1.3968 1.9735,-1.4473 0.1454,-0.0216 0.6497,0.0145 1.1311,0.297 0.6474,0.38 1.7385,1.4908 1.7385,1.4908 0.721,-0.7584 1.6577,-2.0643 2.7556,-1.7294 0.3518,0.1074 0.5383,0.2807 0.8449,0.5368l1.2384 1.038c0.3121,-0.307 0.5705,-0.7366 0.8826,-1.0436 0.2678,-0.3449 0.4983,-0.5565 0.975,-0.6264 0.3286,-0.0046 0.6093,0.024 0.9858,0.3404 0.4195,0.3517 0.8983,0.7988 1.4519,1.3481 0.175,-0.1815 0.3615,-0.4597 0.5365,-0.6413 0.273,-0.3105 0.5298,-0.6277 0.9474,-0.7816 0.2729,-0.0834 0.5857,-0.1227 0.8894,0.0476 0.4696,0.2203 1.3836,0.9151 1.8911,1.3618"/>
    <path id="_194952312" class="fil0 str1" d="M70.4003 36.0731c1.2215,-1.28 1.6326,-1.3968 1.9735,-1.4473 0.1454,-0.0216 0.6497,0.0145 1.1311,0.297 0.6474,0.38 1.7385,1.4908 1.7385,1.4908 0.721,-0.7583 1.6577,-2.0643 2.7556,-1.7294 0.3518,0.1074 0.5383,0.2807 0.8449,0.5368l1.2384 1.0381c0.3121,-0.3071 0.5705,-0.7367 0.8826,-1.0437 0.2678,-0.3449 0.4983,-0.5565 0.975,-0.6264 0.3286,-0.0046 0.6093,0.024 0.9858,0.3405 0.4195,0.3516 0.8983,0.7987 1.4519,1.348 0.175,-0.1815 0.3615,-0.4597 0.5365,-0.6413 0.273,-0.3105 0.5298,-0.6277 0.9474,-0.7816 0.2729,-0.0834 0.5857,-0.1226 0.8894,0.0477 0.4696,0.2202 1.3836,0.915 1.8911,1.3617"/>
    <path id="_194952504" class="fil0 str1" d="M88.4567 36.3537c1.2215,-1.28 1.6326,-1.3968 1.9735,-1.4472 0.1454,-0.0217 0.6497,0.0144 1.1311,0.297 0.6474,0.3799 1.7385,1.4907 1.7385,1.4907 0.721,-0.7583 1.6577,-2.0643 2.7556,-1.7294 0.3518,0.1074 0.5383,0.2807 0.8449,0.5368l1.2384 1.0381c0.3121,-0.3071 0.5705,-0.7366 0.8826,-1.0437 0.2678,-0.3449 0.4983,-0.5565 0.975,-0.6264 0.3286,-0.0046 0.6093,0.024 0.9858,0.3405 0.4195,0.3516 0.8983,0.7987 1.4519,1.348 0.175,-0.1815 0.3615,-0.4597 0.5365,-0.6413 0.273,-0.3105 0.5298,-0.6277 0.9474,-0.7816 0.2729,-0.0834 0.5857,-0.1226 0.8894,0.0477 0.4696,0.2202 1.3836,0.915 1.8911,1.3617"/>
    <path id="_195126664" class="fil0 str1" d="M106.513 36.6343c1.2215,-1.28 1.6326,-1.3968 1.9735,-1.4472 0.1454,-0.0216 0.6497,0.0144 1.1311,0.297 0.6474,0.38 1.7385,1.4907 1.7385,1.4907 0.721,-0.7583 1.6577,-2.0643 2.7556,-1.7294 0.3518,0.1074 0.5383,0.2807 0.8449,0.5368l1.2384 1.0381c0.3121,-0.3071 0.5705,-0.7366 0.8826,-1.0437 0.2678,-0.3449 0.4983,-0.5565 0.975,-0.6264 0.3286,-0.0046 0.6093,0.024 0.9858,0.3405 0.4195,0.3516 0.8983,0.7987 1.4519,1.348 0.175,-0.1815 0.3615,-0.4597 0.5365,-0.6413 0.273,-0.3105 0.5298,-0.6277 0.9474,-0.7816 0.2729,-0.0833 0.5857,-0.1226 0.8894,0.0477 0.4696,0.2202 1.3836,0.915 1.8911,1.3617"/>
    <path id="_195128584" class="fil0 str1" d="M124.57 36.915c1.2215,-1.2801 1.6326,-1.3969 1.9735,-1.4473 0.1454,-0.0216 0.6497,0.0145 1.1311,0.297 0.6474,0.38 1.7385,1.4907 1.7385,1.4907 0.721,-0.7583 1.6577,-2.0643 2.7556,-1.7294 0.3518,0.1074 0.5383,0.2807 0.8449,0.5368l1.2384 1.0381c0.3121,-0.3071 0.5705,-0.7366 0.8826,-1.0437 0.2678,-0.3449 0.4983,-0.5565 0.975,-0.6264 0.3286,-0.0046 0.6093,0.024 0.9858,0.3405 0.4195,0.3516 0.8983,0.7987 1.4519,1.348 0.175,-0.1815 0.3615,-0.4597 0.5365,-0.6413 0.273,-0.3105 0.5298,-0.6277 0.9474,-0.7816 0.2729,-0.0833 0.5857,-0.1226 0.8894,0.0477 0.4696,0.2202 1.3836,0.915 1.8911,1.3617"/>
    <path id="_195128776" class="fil0 str1" d="M142.626 37.1956c1.2215,-1.2801 1.6326,-1.3969 1.9735,-1.4473 0.1454,-0.0216 0.6497,0.0145 1.1311,0.297 0.6474,0.38 1.7385,1.4907 1.7385,1.4907 0.721,-0.7583 1.6577,-2.0643 2.7556,-1.7294 0.3518,0.1074 0.5383,0.2808 0.8449,0.5368l1.2384 1.0381c0.3121,-0.3071 0.5705,-0.7366 0.8826,-1.0437 0.2678,-0.3449 0.4983,-0.5565 0.975,-0.6264 0.3286,-0.0045 0.6093,0.024 0.9858,0.3405 0.4195,0.3517 0.8983,0.7987 1.4519,1.348"/>
   </g>
   <g id="_194949624">
    <path id="_195129736" class="fil0 str1" d="M28.3451 31.0052c1.2215,-1.28 1.6326,-1.3968 1.9735,-1.4473 0.1454,-0.0216 0.6497,0.0145 1.1311,0.297 0.6474,0.38 1.7385,1.4908 1.7385,1.4908 0.721,-0.7583 1.6577,-2.0643 2.7556,-1.7294 0.3518,0.1074 0.5383,0.2807 0.8449,0.5368l1.2384 1.0381c0.3121,-0.3071 0.5705,-0.7367 0.8826,-1.0437 0.2678,-0.3449 0.4983,-0.5565 0.975,-0.6264 0.3286,-0.0046 0.6093,0.024 0.9858,0.3405 0.4195,0.3516 0.8983,0.7987 1.4519,1.348 0.175,-0.1815 0.3615,-0.4597 0.5365,-0.6413 0.273,-0.3105 0.5298,-0.6277 0.9474,-0.7816 0.2729,-0.0834 0.5857,-0.1226 0.8894,0.0477 0.4696,0.2202 1.3836,0.915 1.8911,1.3617"/>
    <path id="_195130312" class="fil0 str1" d="M46.4531 31.1863c1.2215,-1.28 1.6326,-1.3968 1.9735,-1.4473 0.1454,-0.0216 0.6497,0.0145 1.1311,0.297 0.6474,0.38 1.7385,1.4908 1.7385,1.4908 0.721,-0.7583 1.6577,-2.0643 2.7556,-1.7294 0.3518,0.1074 0.5383,0.2807 0.8449,0.5368l1.2384 1.0381c0.3121,-0.3071 0.5705,-0.7367 0.8826,-1.0437 0.2678,-0.3449 0.4983,-0.5565 0.975,-0.6264 0.3286,-0.0046 0.6093,0.024 0.9858,0.3405 0.4195,0.3516 0.8983,0.7987 1.4519,1.348 0.175,-0.1815 0.3615,-0.4597 0.5365,-0.6413 0.273,-0.3105 0.5298,-0.6277 0.9474,-0.7816 0.2729,-0.0834 0.5857,-0.1226 0.8894,0.0477 0.4696,0.2202 1.3836,0.915 1.8911,1.3617"/>
    <path id="_194940024" class="fil0 str1" d="M64.5095 31.4669c1.2215,-1.28 1.6326,-1.3968 1.9735,-1.4472 0.1454,-0.0217 0.6497,0.0144 1.1311,0.297 0.6474,0.38 1.7385,1.4907 1.7385,1.4907 0.721,-0.7583 1.6577,-2.0643 2.7556,-1.7294 0.3518,0.1074 0.5383,0.2807 0.8449,0.5368l1.2384 1.0381c0.3121,-0.3071 0.5705,-0.7366 0.8826,-1.0437 0.2678,-0.3449 0.4983,-0.5565 0.975,-0.6264 0.3286,-0.0046 0.6093,0.024 0.9858,0.3405 0.4195,0.3516 0.8983,0.7987 1.4519,1.348 0.175,-0.1815 0.3615,-0.4597 0.5365,-0.6413 0.273,-0.3105 0.5298,-0.6277 0.9474,-0.7816 0.2729,-0.0834 0.5857,-0.1226 0.8894,0.0477 0.4696,0.2202 1.3836,0.915 1.8911,1.3617"/>
    <path id="_194940216" class="fil0 str1" d="M82.5659 31.7475c1.2215,-1.28 1.6326,-1.3968 1.9735,-1.4472 0.1454,-0.0216 0.6497,0.0145 1.1311,0.297 0.6474,0.38 1.7385,1.4907 1.7385,1.4907 0.721,-0.7583 1.6577,-2.0643 2.7556,-1.7294 0.3518,0.1074 0.5383,0.2807 0.8449,0.5368l1.2384 1.0381c0.3121,-0.3071 0.5705,-0.7366 0.8826,-1.0437 0.2678,-0.3449 0.4983,-0.5565 0.975,-0.6264 0.3286,-0.0046 0.6093,0.024 0.9858,0.3405 0.4195,0.3516 0.8983,0.7987 1.4519,1.348 0.175,-0.1815 0.3615,-0.4597 0.5365,-0.6413 0.273,-0.3105 0.5298,-0.6277 0.9474,-0.7816 0.2729,-0.0833 0.5857,-0.1226 0.8894,0.0477 0.4696,0.2202 1.3836,0.915 1.8911,1.3617"/>
    <path id="_194940408" class="fil0 str1" d="M100.622 32.0282c1.2215,-1.2801 1.6326,-1.3969 1.9735,-1.4473 0.1454,-0.0216 0.6497,0.0145 1.1311,0.297 0.6474,0.38 1.7385,1.4907 1.7385,1.4907 0.721,-0.7583 1.6577,-2.0643 2.7556,-1.7294 0.3518,0.1074 0.5383,0.2807 0.8449,0.5368l1.2384 1.0381c0.3121,-0.3071 0.5705,-0.7366 0.8826,-1.0437 0.2678,-0.3449 0.4983,-0.5565 0.975,-0.6264 0.3286,-0.0046 0.6093,0.024 0.9858,0.3405 0.4195,0.3516 0.8983,0.7987 1.4519,1.348 0.175,-0.1815 0.3615,-0.4597 0.5365,-0.6413 0.273,-0.3105 0.5298,-0.6277 0.9474,-0.7816 0.2729,-0.0833 0.5857,-0.1226 0.8894,0.0477 0.4696,0.2202 1.3836,0.915 1.8911,1.3617"/>
    <path id="_194940600" class="fil0 str1" d="M118.679 32.3088c1.2215,-1.2801 1.6326,-1.3969 1.9735,-1.4473 0.1454,-0.0216 0.6497,0.0145 1.1311,0.297 0.6474,0.38 1.7385,1.4907 1.7385,1.4907 0.721,-0.7583 1.6577,-2.0643 2.7556,-1.7294 0.3518,0.1074 0.5383,0.2808 0.8449,0.5368l1.2384 1.0381c0.3121,-0.307 0.5705,-0.7366 0.8826,-1.0437 0.2678,-0.3449 0.4983,-0.5565 0.975,-0.6264 0.3286,-0.0045 0.6093,0.024 0.9858,0.3405 0.4195,0.3517 0.8983,0.7987 1.4519,1.348 0.175,-0.1815 0.3615,-0.4597 0.5365,-0.6413 0.273,-0.3104 0.5298,-0.6277 0.9474,-0.7816 0.2729,-0.0833 0.5857,-0.1226 0.8894,0.0477 0.4696,0.2202 1.3836,0.915 1.8911,1.3618"/>
    <path id="_194940792" class="fil0 str1" d="M136.735 32.5894c1.2215,-1.2801 1.6326,-1.3969 1.9735,-1.4473 0.1454,-0.0216 0.6497,0.0145 1.1311,0.297 0.6474,0.38 1.7385,1.4907 1.7385,1.4907 0.721,-0.7583 1.6577,-2.0642 2.7556,-1.7294 0.3518,0.1074 0.5383,0.2808 0.8449,0.5369l1.2384 1.038c0.3121,-0.307 0.5705,-0.7366 0.8826,-1.0436 0.2678,-0.345 0.4983,-0.5566 0.975,-0.6265 0.3286,-0.0045 0.6093,0.0241 0.9858,0.3405 0.4195,0.3517 0.8983,0.7988 1.4519,1.348"/>
   </g>
   <g id="_195128968">
    <path id="_194941752" class="fil0 str1" d="M21.792 26.1177c1.2215,-1.2801 1.6326,-1.3969 1.9735,-1.4473 0.1454,-0.0216 0.6497,0.0145 1.1311,0.297 0.6474,0.38 1.7385,1.4907 1.7385,1.4907 0.721,-0.7583 1.6577,-2.0643 2.7556,-1.7294 0.3518,0.1074 0.5383,0.2808 0.8449,0.5368l1.2384 1.0381c0.3121,-0.3071 0.5705,-0.7366 0.8826,-1.0437 0.2678,-0.3449 0.4983,-0.5565 0.975,-0.6264 0.3286,-0.0046 0.6093,0.024 0.9858,0.3405 0.4195,0.3516 0.8983,0.7987 1.4519,1.348 0.175,-0.1815 0.3615,-0.4597 0.5365,-0.6413 0.273,-0.3104 0.5298,-0.6277 0.9474,-0.7816 0.2729,-0.0833 0.5857,-0.1226 0.8894,0.0477 0.4696,0.2202 1.3836,0.915 1.8911,1.3617"/>
    <path id="_194942520" class="fil0 str1" d="M39.9 26.2988c1.2215,-1.2801 1.6326,-1.3969 1.9735,-1.4473 0.1454,-0.0216 0.6497,0.0145 1.1311,0.297 0.6474,0.38 1.7385,1.4907 1.7385,1.4907 0.721,-0.7583 1.6577,-2.0643 2.7556,-1.7294 0.3518,0.1074 0.5383,0.2808 0.8449,0.5368l1.2384 1.0381c0.3121,-0.3071 0.5705,-0.7366 0.8826,-1.0437 0.2678,-0.3449 0.4983,-0.5565 0.975,-0.6264 0.3286,-0.0046 0.6093,0.024 0.9858,0.3405 0.4195,0.3516 0.8983,0.7987 1.4519,1.348 0.175,-0.1815 0.3615,-0.4597 0.5365,-0.6413 0.273,-0.3104 0.5298,-0.6277 0.9474,-0.7816 0.2729,-0.0833 0.5857,-0.1226 0.8894,0.0477 0.4696,0.2202 1.3836,0.915 1.8911,1.3617"/>
    <path id="_194942712" class="fil0 str1" d="M57.9564 26.5794c1.2215,-1.2801 1.6326,-1.3969 1.9735,-1.4473 0.1454,-0.0216 0.6497,0.0145 1.1311,0.297 0.6474,0.38 1.7385,1.4907 1.7385,1.4907 0.721,-0.7583 1.6577,-2.0643 2.7556,-1.7294 0.3518,0.1074 0.5383,0.2808 0.8449,0.5368l1.2384 1.0381c0.3121,-0.307 0.5705,-0.7366 0.8826,-1.0436 0.2678,-0.345 0.4983,-0.5566 0.975,-0.6265 0.3286,-0.0045 0.6093,0.0241 0.9858,0.3405 0.4195,0.3517 0.8983,0.7988 1.4519,1.348 0.175,-0.1815 0.3615,-0.4596 0.5365,-0.6413 0.273,-0.3104 0.5298,-0.6276 0.9474,-0.7815 0.2729,-0.0834 0.5857,-0.1227 0.8894,0.0476 0.4696,0.2203 1.3836,0.915 1.8911,1.3618"/>
    <path id="_194942904" class="fil0 str1" d="M76.0128 26.86c1.2215,-1.28 1.6326,-1.3968 1.9735,-1.4473 0.1454,-0.0216 0.6497,0.0145 1.1311,0.297 0.6474,0.38 1.7385,1.4908 1.7385,1.4908 0.721,-0.7584 1.6577,-2.0643 2.7556,-1.7295 0.3518,0.1074 0.5383,0.2808 0.8449,0.5369l1.2384 1.038c0.3121,-0.307 0.5705,-0.7366 0.8826,-1.0436 0.2678,-0.345 0.4983,-0.5566 0.975,-0.6265 0.3286,-0.0045 0.6093,0.0241 0.9858,0.3405 0.4195,0.3517 0.8983,0.7988 1.4519,1.348 0.175,-0.1814 0.3615,-0.4596 0.5365,-0.6412 0.273,-0.3105 0.5298,-0.6277 0.9474,-0.7816 0.2729,-0.0834 0.5857,-0.1227 0.8894,0.0476 0.4696,0.2203 1.3836,0.9151 1.8911,1.3618"/>
    <path id="_194943096" class="fil0 str1" d="M94.0692 27.1406c1.2215,-1.28 1.6326,-1.3968 1.9735,-1.4473 0.1454,-0.0216 0.6497,0.0145 1.1311,0.297 0.6474,0.38 1.7385,1.4908 1.7385,1.4908 0.721,-0.7584 1.6577,-2.0643 2.7556,-1.7295 0.3518,0.1074 0.5383,0.2808 0.8449,0.5369l1.2384 1.038c0.3121,-0.307 0.5705,-0.7366 0.8826,-1.0436 0.2678,-0.3449 0.4983,-0.5565 0.975,-0.6264 0.3286,-0.0046 0.6093,0.024 0.9858,0.3404 0.4195,0.3517 0.8983,0.7988 1.4519,1.3481 0.175,-0.1815 0.3615,-0.4597 0.5365,-0.6413 0.273,-0.3105 0.5298,-0.6277 0.9474,-0.7816 0.2729,-0.0834 0.5857,-0.1227 0.8894,0.0476 0.4696,0.2203 1.3836,0.9151 1.8911,1.3618"/>
    <path id="_194943288" class="fil0 str1" d="M112.126 27.4212c1.2215,-1.28 1.6326,-1.3968 1.9735,-1.4473 0.1454,-0.0216 0.6497,0.0145 1.1311,0.297 0.6474,0.38 1.7385,1.4908 1.7385,1.4908 0.721,-0.7584 1.6577,-2.0643 2.7556,-1.7294 0.3518,0.1073 0.5383,0.2807 0.8449,0.5368l1.2384 1.038c0.3121,-0.307 0.5705,-0.7366 0.8826,-1.0436 0.2678,-0.3449 0.4983,-0.5565 0.975,-0.6264 0.3286,-0.0046 0.6093,0.024 0.9858,0.3404 0.4195,0.3517 0.8983,0.7988 1.4519,1.3481 0.175,-0.1815 0.3615,-0.4597 0.5365,-0.6413 0.273,-0.3105 0.5298,-0.6277 0.9474,-0.7816 0.2729,-0.0834 0.5857,-0.1227 0.8894,0.0476 0.4696,0.2203 1.3836,0.9151 1.8911,1.3618"/>
    <path id="_194943480" class="fil0 str1" d="M130.182 27.7018c1.2215,-1.28 1.6326,-1.3968 1.9735,-1.4473 0.1454,-0.0216 0.6497,0.0145 1.1311,0.297 0.6474,0.38 1.7385,1.4908 1.7385,1.4908 0.721,-0.7583 1.6577,-2.0643 2.7556,-1.7294 0.3518,0.1074 0.5383,0.2807 0.8449,0.5368l1.2384 1.038c0.3121,-0.307 0.5705,-0.7366 0.8826,-1.0436 0.2678,-0.3449 0.4983,-0.5565 0.975,-0.6264 0.3286,-0.0046 0.6093,0.024 0.9858,0.3404 0.4195,0.3517 0.8983,0.7988 1.4519,1.3481"/>
   </g>
   <g id="_194941560">
    <path id="_194944824" class="fil0 str1" d="M16.3891 21.9142c1.2215,-1.28 1.6326,-1.3968 1.9735,-1.4473 0.1454,-0.0216 0.6497,0.0145 1.1311,0.297 0.6474,0.38 1.7385,1.4908 1.7385,1.4908 0.721,-0.7583 1.6577,-2.0643 2.7556,-1.7294 0.3518,0.1074 0.5383,0.2807 0.8449,0.5368l1.2384 1.038c0.3121,-0.307 0.5705,-0.7366 0.8826,-1.0436 0.2678,-0.3449 0.4983,-0.5565 0.975,-0.6264 0.3286,-0.0046 0.6093,0.024 0.9858,0.3404 0.4195,0.3517 0.8983,0.7988 1.4519,1.3481 0.175,-0.1815 0.3615,-0.4597 0.5365,-0.6413 0.273,-0.3105 0.5298,-0.6277 0.9474,-0.7816 0.2729,-0.0834 0.5857,-0.1226 0.8894,0.0477 0.4696,0.2202 1.3836,0.915 1.8911,1.3617"/>
    <path id="_194945016" class="fil0 str1" d="M34.4971 22.0953c1.2215,-1.28 1.6326,-1.3968 1.9735,-1.4473 0.1454,-0.0216 0.6497,0.0145 1.1311,0.297 0.6474,0.38 1.7385,1.4908 1.7385,1.4908 0.721,-0.7583 1.6577,-2.0643 2.7556,-1.7294 0.3518,0.1074 0.5383,0.2807 0.8449,0.5368l1.2384 1.038c0.3121,-0.307 0.5705,-0.7366 0.8826,-1.0436 0.2678,-0.3449 0.4983,-0.5565 0.975,-0.6264 0.3286,-0.0046 0.6093,0.024 0.9858,0.3404 0.4195,0.3517 0.8983,0.7988 1.4519,1.3481 0.175,-0.1815 0.3615,-0.4597 0.5365,-0.6413 0.273,-0.3105 0.5298,-0.6277 0.9474,-0.7816 0.2729,-0.0834 0.5857,-0.1226 0.8894,0.0477 0.4696,0.2202 1.3836,0.915 1.8911,1.3617"/>
    <path id="_194945208" class="fil0 str1" d="M52.5535 22.3759c1.2215,-1.28 1.6326,-1.3968 1.9735,-1.4473 0.1454,-0.0216 0.6497,0.0145 1.1311,0.2971 0.6474,0.3799 1.7385,1.4907 1.7385,1.4907 0.721,-0.7583 1.6577,-2.0643 2.7556,-1.7294 0.3518,0.1074 0.5383,0.2807 0.8449,0.5368l1.2384 1.0381c0.3121,-0.3071 0.5705,-0.7366 0.8826,-1.0437 0.2678,-0.3449 0.4983,-0.5565 0.975,-0.6264 0.3286,-0.0046 0.6093,0.024 0.9858,0.3405 0.4195,0.3516 0.8983,0.7987 1.4519,1.348 0.175,-0.1815 0.3615,-0.4597 0.5365,-0.6413 0.273,-0.3105 0.5298,-0.6277 0.9474,-0.7816 0.2729,-0.0834 0.5857,-0.1226 0.8894,0.0477 0.4696,0.2202 1.3836,0.915 1.8911,1.3617"/>
    <path id="_194945400" class="fil0 str1" d="M70.6099 22.6565c1.2215,-1.28 1.6326,-1.3968 1.9735,-1.4472 0.1454,-0.0216 0.6497,0.0144 1.1311,0.297 0.6474,0.38 1.7385,1.4907 1.7385,1.4907 0.721,-0.7583 1.6577,-2.0643 2.7556,-1.7294 0.3518,0.1074 0.5383,0.2807 0.8449,0.5368l1.2384 1.0381c0.3121,-0.3071 0.5705,-0.7366 0.8826,-1.0437 0.2678,-0.3449 0.4983,-0.5565 0.975,-0.6264 0.3286,-0.0046 0.6093,0.024 0.9858,0.3405 0.4195,0.3516 0.8983,0.7987 1.4519,1.348 0.175,-0.1815 0.3615,-0.4597 0.5365,-0.6413 0.273,-0.3105 0.5298,-0.6277 0.9474,-0.7816 0.2729,-0.0834 0.5857,-0.1226 0.8894,0.0477 0.4696,0.2202 1.3836,0.915 1.8911,1.3617"/>
    <path id="_194945592" class="fil0 str1" d="M88.6663 22.9371c1.2215,-1.28 1.6326,-1.3968 1.9735,-1.4472 0.1454,-0.0216 0.6497,0.0145 1.1311,0.297 0.6474,0.38 1.7385,1.4907 1.7385,1.4907 0.721,-0.7583 1.6577,-2.0643 2.7556,-1.7294 0.3518,0.1074 0.5383,0.2807 0.8449,0.5368l1.2384 1.0381c0.3121,-0.3071 0.5705,-0.7366 0.8826,-1.0437 0.2678,-0.3449 0.4983,-0.5565 0.975,-0.6264 0.3286,-0.0046 0.6093,0.024 0.9858,0.3405 0.4195,0.3516 0.8983,0.7987 1.4519,1.348 0.175,-0.1815 0.3615,-0.4597 0.5365,-0.6413 0.273,-0.3105 0.5298,-0.6277 0.9474,-0.7816 0.2729,-0.0833 0.5857,-0.1226 0.8894,0.0477 0.4696,0.2202 1.3836,0.915 1.8911,1.3617"/>
    <path id="_194947128" class="fil0 str1" d="M106.723 23.2178c1.2215,-1.2801 1.6326,-1.3969 1.9735,-1.4473 0.1454,-0.0216 0.6497,0.0145 1.1311,0.297 0.6474,0.38 1.7385,1.4907 1.7385,1.4907 0.721,-0.7583 1.6577,-2.0643 2.7556,-1.7294 0.3518,0.1074 0.5383,0.2808 0.8449,0.5368l1.2384 1.0381c0.3121,-0.3071 0.5705,-0.7366 0.8826,-1.0437 0.2678,-0.3449 0.4983,-0.5565 0.975,-0.6264 0.3286,-0.0046 0.6093,0.024 0.9858,0.3405 0.4195,0.3516 0.8983,0.7987 1.4519,1.348 0.175,-0.1815 0.3615,-0.4597 0.5365,-0.6413 0.273,-0.3104 0.5298,-0.6277 0.9474,-0.7816 0.2729,-0.0833 0.5857,-0.1226 0.8894,0.0477 0.4696,0.2202 1.3836,0.915 1.8911,1.3617"/>
    <path id="_194947320" class="fil0 str1" d="M124.779 23.4984c1.2215,-1.2801 1.6326,-1.3969 1.9735,-1.4473 0.1454,-0.0216 0.6497,0.0145 1.1311,0.297 0.6474,0.38 1.7385,1.4907 1.7385,1.4907 0.721,-0.7583 1.6577,-2.0643 2.7556,-1.7294 0.3518,0.1074 0.5383,0.2808 0.8449,0.5368l1.2384 1.0381c0.3121,-0.307 0.5705,-0.7366 0.8826,-1.0436 0.2678,-0.345 0.4983,-0.5566 0.975,-0.6265 0.3286,-0.0045 0.6093,0.0241 0.9858,0.3405 0.4195,0.3517 0.8983,0.7988 1.4519,1.348"/>
   </g>
   <line id="_366411240" class="fil0 str1" x1="89.989" y1="74.8011" x2="16.5672" y2= "18.6895" />
   <line id="_366411576" class="fil0 str1" x1="94.9449" y1="74.8171" x2="21.5231" y2= "18.7055" />
   <line id="_366411912" class="fil0 str1" x1="99.5446" y1="75.0078" x2="26.1228" y2= "18.8961" />
   <line id="_366412248" class="fil0 str1" x1="103.742" y1="75.2863" x2="30.3199" y2= "19.1747" />
   <line id="_366412584" class="fil0 str1" x1="108.157" y1="75.1392" x2="34.735" y2= "19.0275" />
   <line id="_366412920" class="fil0 str1" x1="113.271" y1="75.1943" x2="39.8487" y2= "19.0827" />
   <line id="_366413256" class="fil0 str1" x1="117.673" y1="75.1307" x2="44.2512" y2= "19.019" />
   <line id="_366413592" class="fil0 str1" x1="121.706" y1="75.2147" x2="48.2841" y2= "19.103" />
   <line id="_366413928" class="fil0 str1" x1="125.886" y1="75.0585" x2="52.4644" y2= "18.9468" />
   <line id="_366414264" class="fil0 str1" x1="131.427" y1="75.3942" x2="58.0047" y2= "19.2826" />
   <line id="_366414600" class="fil0 str1" x1="135.837" y1="75.3895" x2="62.4156" y2= "19.2779" />
   <line id="_366414936" class="fil0 str1" x1="139.939" y1="75.3949" x2="66.5175" y2= "19.2832" />
   <line id="_366415272" class="fil0 str1" x1="144.27" y1="75.427" x2="70.8485" y2= "19.3154" />
   <line id="_366415608" class="fil0 str1" x1="148.761" y1="75.3996" x2="75.3396" y2= "19.2879" />
   <line id="_366415944" class="fil0 str1" x1="153.32" y1="75.563" x2="79.8977" y2= "19.4514" />
   <line id="_366416280" class="fil0 str1" x1="157.709" y1="75.6055" x2="84.2876" y2= "19.4938" />
   <line id="_366416616" class="fil0 str1" x1="161.876" y1="75.48" x2="88.4543" y2= "19.3684" />
   <line id="_366416952" class="fil0 str1" x1="166.712" y1="75.526" x2="93.2899" y2= "19.4144" />
   <line id="_366417288" class="fil0 str1" x1="171.423" y1="75.6285" x2="98.0016" y2= "19.5168" />
   <line id="_366417624" class="fil0 str1" x1="175.609" y1="75.7151" x2="102.187" y2= "19.6035" />
   <line id="_366417960" class="fil0 str1" x1="179.72" y1="75.7375" x2="106.299" y2= "19.6259" />
   <line id="_366418296" class="fil0 str1" x1="184.92" y1="75.7653" x2="111.498" y2= "19.6537" />
   <line id="_366418632" class="fil0 str1" x1="189.414" y1="75.6976" x2="115.993" y2= "19.586" />
   <line id="_366418968" class="fil0 str1" x1="193.12" y1="75.6619" x2="119.699" y2= "19.5502" />
   <line id="_366419304" class="fil0 str1" x1="198.102" y1="75.9407" x2="124.68" y2= "19.8291" />
   <line id="_366419640" class="fil0 str1" x1="202.811" y1="76.0115" x2="129.389" y2= "19.8999" />
   <line id="_366419976" class="fil0 str1" x1="206.329" y1="75.1533" x2="132.907" y2= "19.0416" />
  </g>
 </g>
</svg>
