<?xml version="1.0" encoding="UTF-8"?>
<!DOCTYPE svg PUBLIC "-//W3C//DTD SVG 1.1//EN" "http://www.w3.org/Graphics/SVG/1.1/DTD/svg11.dtd">
<!-- Creator: CorelDRAW -->
<svg xmlns="http://www.w3.org/2000/svg" xml:space="preserve" width="210mm" height="297mm" style="shape-rendering:geometricPrecision; text-rendering:geometricPrecision; image-rendering:optimizeQuality; fill-rule:evenodd; clip-rule:evenodd"
viewBox="0 0 210 297"
 xmlns:xlink="http://www.w3.org/1999/xlink">
 <defs>
  <style type="text/css">
   <![CDATA[
    .str1 {stroke:#333333;stroke-width:0.2}
    .str0 {stroke:#333333;stroke-width:0.5}
    .fil1 {fill:none}
    .fil0 {fill:#96272E}
    .fil2 {fill:#B32E37}
   ]]>
  </style>
 </defs>
 <g id="Слой_x0020_1">
  <metadata id="CorelCorpID_0Corel-Layer"/>
  <polygon class="fil0 str0" points="9.594,29.1773 85.0596,75.1543 206.725,75.9335 134.359,29.6911 "/>
  <line class="fil1 str0" x1="26.7939" y1="39.7416" x2="27.5296" y2= "100.81" />
  <line class="fil1 str0" x1="100.06" y1="75.0997" x2="99.5926" y2= "101.518" />
  <line class="fil1 str0" x1="191.181" y1="75.834" x2="191.485" y2= "102.41" />
  <line class="fil1 str0" x1="2.8634" y1="100.577" x2="201.642" y2= "102.512" />
  <polygon class="fil2 str0" points="9.594,29.1773 12.4388,30.9105 137.389,31.6269 134.359,29.6911 "/>
  <polygon class="fil1 str1" points="78.7044,67.1115 80.2985,65.4075 87.5543,65.1327 91.1822,67.936 89.5881,69.695 82.1124,70.1348 "/>
  <polygon class="fil1 str1" points="69.4765,48.3178 71.3918,46.1751 78.6476,45.9003 82.2755,48.7036 80.6814,50.4626 72.926,50.9271 "/>
  <polygon class="fil1 str1" points="56.1116,41.0423 58.0027,38.7992 65.2585,38.5244 68.8864,41.3277 67.2923,43.0867 59.8166,43.5265 "/>
  <polygon class="fil1 str1" points="42.6029,33.6667 44.2063,31.2507 51.8694,31.1485 55.4973,33.9518 53.9032,35.7108 46.4275,36.1506 "/>
  <polygon class="fil1 str1" points="82.8012,55.7619 85.0046,53.626 92.2604,53.3512 95.8883,56.1545 94.2942,57.9135 86.4145,58.6202 "/>
  <polygon class="fil1 str1" points="112.375,54.1615 114.352,51.3779 121.583,51.3168 125.462,54.5541 123.868,56.3131 115.988,57.0198 "/>
  <polygon class="fil1 str1" points="75.1491,36.5326 75.6402,34.1103 83.5344,34.1115 87.2952,35.9957 85.1279,38.6367 77.9123,38.7325 "/>
  <polygon class="fil1 str1" points="96.383,63.2454 98.5313,61.1199 105.787,60.8451 109.59,63.9309 108.091,65.5512 99.8122,66.122 "/>
  <polygon class="fil1 str1" points="125.907,61.4579 128.055,59.3324 135.311,59.0576 139.114,62.1434 137.615,63.7637 129.336,64.3345 "/>
  <polygon class="fil1 str1" points="146.468,61.8358 147.763,59.962 155.366,59.8789 160.272,62.9525 158.773,64.5728 150.822,64.5502 "/>
  <polygon class="fil1 str1" points="137.615,63.7637 139.114,62.1434 146.468,61.8358 150.822,64.5502 148.81,66.6627 141.286,66.8922 "/>
  <polygon class="fil1 str1" points="158.773,64.5728 160.272,62.9525 167.626,62.6449 171.98,65.3593 169.968,67.4718 162.445,67.7013 "/>
  <polygon class="fil1 str1" points="87.4378,43.9253 89.8093,40.9689 97.0651,40.6941 101.259,44.0945 99.7602,45.7148 91.8437,46.0931 "/>
  <polygon class="fil1 str1" points="116.962,42.1378 119.333,39.1814 126.589,38.9066 130.576,41.6757 129.284,43.9273 121.368,44.3056 "/>
  <polygon class="fil1 str1" points="129.284,43.9273 130.666,41.5186 137.922,41.2438 142.116,44.6442 139.603,46.3968 132.701,46.6428 "/>
  <polygon class="fil1 str1" points="148.721,44.4766 149.344,42.1987 153.764,42.091 157.702,44.6072 159.245,45.5495 152.517,45.9975 "/>
  <polygon class="fil1 str1" points="139.76,46.5838 142.116,44.6442 148.721,44.4766 152.517,45.9975 150.428,48.8754 143.216,49.0386 "/>
  <polygon class="fil1 str1" points="99.7602,45.7147 101.354,44.0107 108.61,43.7359 112.538,46.6505 110.944,48.3547 103.168,48.738 "/>
  <polygon class="fil1 str1" points="87.5543,65.1327 89.3683,63.6485 96.1293,63.2088 99.8122,66.1221 98.2731,67.7711 91.1822,67.936 "/>
  <polygon class="fil1 str1" points="117.128,63.5323 118.728,61.7475 125.735,61.3382 129.386,64.5217 127.847,66.1707 120.756,66.3356 "/>
  <polygon class="fil1 str1" points="89.5881,69.695 91.1822,67.936 98.2731,67.7711 101.867,70.5962 100.349,73.0325 93.6008,72.9931 "/>
  <polygon class="fil1 str1" points="100.349,73.0325 101.867,70.5962 109.677,70.6663 112.335,74.2939 109.964,75.586 102.529,75.481 "/>
  <polygon class="fil1 str1" points="119.545,68.8832 121.108,66.3275 127.847,66.1707 131.44,68.9958 129.923,71.4321 123.174,71.3927 "/>
  <polygon class="fil1 str1" points="80.2435,72.1136 82.1124,70.1348 89.5881,69.695 93.6008,72.9931 91.6769,75.0269 85.0596,75.1543 "/>
  <polygon class="fil1 str1" points="71.3368,52.8812 73.2057,50.9024 80.6814,50.4626 84.6941,53.7607 82.7702,55.7945 75.9706,56.1467 "/>
  <polygon class="fil1 str1" points="58.135,45.3071 59.8166,43.5265 67.2923,43.0867 71.305,46.3848 69.3811,48.4186 62.7638,48.546 "/>
  <polygon class="fil1 str1" points="44.6823,37.7639 46.4275,36.1506 53.9032,35.7108 57.9159,39.0089 55.992,41.0427 49.3747,41.1701 "/>
  <polygon class="fil1 str1" points="31.1695,30.7535 33.6558,31.0322 41.8378,31.0791 44.2063,31.2507 42.6029,33.6668 35.9856,33.7942 "/>
  <polygon class="fil1 str1" points="21.7234,32.2254 23.592,30.9745 31.1695,30.7535 35.7627,33.6535 33.9635,35.1254 26.5395,35.2661 "/>
  <polygon class="fil1 str1" points="84.9496,60.3321 86.4923,58.8038 94.2942,57.9135 98.5313,61.1199 96.383,63.2454 89.3683,63.6485 "/>
  <polygon class="fil1 str1" points="114.523,58.7317 115.801,57.0599 123.868,56.3131 128.105,59.5195 125.735,61.3382 118.721,61.7413 "/>
  <polygon class="fil1 str1" points="75.9687,41.0369 78.2449,38.7129 85.1279,38.6367 89.7139,41.0527 87.4378,43.9254 80.4616,44.4161 "/>
  <polygon class="fil1 str1" points="106.025,38.9434 107.819,37.1125 114.702,37.0363 119.288,39.4523 117.012,42.325 110.244,42.4115 "/>
  <polygon class="fil1 str1" points="98.4763,67.826 99.8123,66.122 107.821,65.4074 111.834,68.7055 109.91,70.7393 101.867,70.5962 "/>
  <polygon class="fil1 str1" points="128,66.0385 129.336,64.3345 137.345,63.6199 141.358,66.918 139.434,68.9518 131.39,68.8087 "/>
  <polygon class="fil1 str1" points="148.81,66.6627 150.822,64.5502 158.503,64.429 162.516,67.7271 160.592,69.7609 152.823,69.9608 "/>
  <polygon class="fil1 str1" points="141.32,74.1389 142.856,71.8515 150.942,71.9487 154.288,75.6721 150.284,75.6851 143.283,75.743 "/>
  <polygon class="fil1 str1" points="160.624,69.8904 162.516,67.7271 169.968,67.4718 173.981,70.7699 172.057,72.8037 164.014,72.6606 "/>
  <polygon class="fil1 str1" points="169.968,67.4718 171.855,65.3737 179.418,65.4271 183.567,68.5921 181.643,70.6259 173.981,70.7699 "/>
  <polygon class="fil1 str1" points="150.899,71.9946 152.823,69.9608 160.624,69.8904 164.014,72.6606 162.331,75.8152 154.288,75.6721 "/>
  <polygon class="fil1 str1" points="129.808,71.438 131.44,68.9958 139.152,69.0194 142.856,71.8515 141.241,74.3513 133.198,74.2082 "/>
  <polygon class="fil1 str1" points="119.939,74.4787 123.174,71.3927 130.005,71.5996 133.198,74.2082 131.116,75.6717 123.47,75.6609 "/>
  <polygon class="fil1 str1" points="108.091,65.5512 109.59,63.9309 117.456,63.5513 121.017,66.4776 119.545,68.8832 111.796,68.7454 "/>
  <polygon class="fil1 str1" points="109.91,70.7393 111.796,68.7454 119.545,68.8832 123.174,71.3927 119.939,74.4787 112.335,74.2939 "/>
  <polygon class="fil1 str1" points="124.34,34.2199 126.232,32.0566 133.684,31.8013 137.697,35.0994 135.374,37.3742 128.403,37.4224 "/>
  <polygon class="fil1 str1" points="135.374,37.3742 137.697,35.0994 142.726,34.8642 147.455,38.0595 145.817,39.5459 138.722,39.8919 "/>
  <polygon class="fil1 str1" points="167.755,62.7255 169.083,60.8603 176.26,60.7952 181.088,63.1452 179.165,65.179 171.98,65.3593 "/>
  <polygon class="fil1 str1" points="164.947,57.7815 165.648,55.8238 173.327,55.7563 176.986,58.5252 176.26,60.7952 168.922,60.7711 "/>
  <polygon class="fil1 str1" points="179.165,65.179 181.088,63.1452 186.948,63.2958 192.241,66.6785 191.187,68.5563 183.567,68.5921 "/>
  <polygon class="fil1 str1" points="181.585,70.8652 183.567,68.5921 191.187,68.5563 195.376,71.4355 193.143,74.3512 185.413,74.1515 "/>
  <polygon class="fil1 str1" points="172.128,72.7283 173.981,70.7699 181.485,70.7832 185.498,74.0813 183.288,75.8946 175.531,75.7338 "/>
  <polygon class="fil1 str1" points="193.143,74.3512 195.376,71.4355 199.458,71.2902 206.413,75.7345 204.426,75.9188 196.074,75.8653 "/>
  <polygon class="fil1 str1" points="89.5815,48.4878 91.8437,46.0931 99.7602,45.7148 103.112,48.5545 100.965,51.4193 94.0744,51.867 "/>
  <polygon class="fil1 str1" points="119.105,46.7003 121.368,44.3056 129.284,43.9273 132.636,46.767 130.488,49.6318 123.598,50.0795 "/>
  <polygon class="fil1 str1" points="130.488,49.6318 132.594,46.7318 139.603,46.3968 143.216,49.0386 140.807,52.1013 133.917,52.549 "/>
  <polygon class="fil1 str1" points="150.412,48.8975 152.517,45.9975 159.526,45.6625 162.878,48.5022 161.921,51.2348 153.838,51.5337 "/>
  <polygon class="fil1 str1" points="140.807,52.1013 143.216,49.0386 150.225,48.7036 153.577,51.5433 153.122,54.5353 144.54,54.8558 "/>
  <polygon class="fil1 str1" points="100.965,51.4193 103.168,48.738 110.644,48.2982 114.352,51.3779 112.118,54.1466 104.647,54.3326 "/>
  <polygon class="fil1 str1" points="92.3693,31.3688 95.411,31.3863 101.96,31.4238 105.797,31.4458 103.787,34.3102 95.9253,34.1817 "/>
  <polygon class="fil1 str1" points="103.868,34.2125 105.797,31.4458 113.345,31.4891 116.819,34.2082 114.652,36.8492 107.47,37.2235 "/>
  <polygon class="fil1 str1" points="65.3067,59.6097 66.9008,57.9057 74.1566,57.6309 77.7845,60.4342 76.1904,62.1932 68.7147,62.633 "/>
  <polygon class="fil1 str1" points="74.1566,57.6309 75.9706,56.1467 82.7316,55.707 86.4145,58.6203 84.8754,60.2693 77.7845,60.4342 "/>
  <polygon class="fil1 str1" points="65.2499,38.3985 67.0639,36.9143 74.9315,36.4314 78.0909,38.8703 75.9687,41.0369 68.8778,41.2018 "/>
  <polygon class="fil1 str1" points="51.8608,31.0226 54.6016,31.1523 60.5673,31.1865 64.1634,31.2071 62.5796,33.661 55.4887,33.8259 "/>
  <polygon class="fil1 str1" points="78.8627,45.8494 80.6767,44.3652 87.4377,43.9255 91.8436,46.0932 89.5815,48.4878 82.4906,48.6527 "/>
  <polygon class="fil1 str1" points="108.848,43.9124 110.244,42.4115 117.011,42.3251 121.417,44.4928 119.155,46.8874 112.538,46.6505 "/>
  <polygon class="fil1 str1" points="92.3894,53.3433 94.2034,51.8591 100.964,51.4194 104.647,54.3327 103.108,55.9817 96.0173,56.1466 "/>
  <polygon class="fil1 str1" points="121.583,51.3169 123.727,50.0716 130.488,49.6319 134.171,52.5452 132.632,54.1942 125.541,54.3591 "/>
  <polygon class="fil1 str1" points="132.632,54.1942 134.046,52.5411 140.807,52.1014 144.49,55.0147 143.789,56.9724 136.698,57.1372 "/>
  <polygon class="fil1 str1" points="153.122,54.5353 153.577,51.5433 161.921,51.2348 165.648,55.8238 164.947,57.7815 156.831,57.6874 "/>
  <polygon class="fil1 str1" points="83.5344,34.1115 85.8202,31.3313 92.2424,31.2684 95.9253,34.1817 94.3862,35.8307 87.2953,35.9956 "/>
  <polygon class="fil1 str1" points="103.108,55.9816 104.647,54.3326 112.118,54.1466 115.801,57.0599 114.262,58.7089 107.171,58.8738 "/>
  <polygon class="fil1 str1" points="94.3862,35.8307 95.9253,34.1817 103.787,34.3102 107.47,37.2235 105.931,38.8725 98.8403,39.0374 "/>
  <polygon class="fil1 str1" points="161.988,51.2898 162.995,48.1841 169.669,52.2545 173.496,54.5282 173.327,55.7563 165.648,55.8238 "/>
  <polygon class="fil1 str1" points="76.1904,62.1932 77.7845,60.4342 84.8754,60.2693 89.3683,63.6485 87.7887,65.0516 80.2031,65.4913 "/>
  <polygon class="fil1 str1" points="67.2837,42.9608 68.8778,41.2018 75.9687,41.0369 80.4616,44.4161 78.882,45.8192 71.2964,46.2589 "/>
  <polygon class="fil1 str1" points="53.8946,35.5849 55.4887,33.8259 62.5796,33.661 67.0725,37.0402 65.4929,38.4433 57.9073,38.883 "/>
  <polygon class="fil1 str1" points="16.0593,33.1163 14.09,31.9165 21.7234,32.2254 26.7077,35.4003 25.2244,37.1234 21.0749,36.172 "/>
  <polygon class="fil1 str1" points="80.8965,50.4117 82.4906,48.6527 89.5815,48.4878 94.0744,51.867 92.4948,53.2701 84.9092,53.7098 "/>
  <polygon class="fil1 str1" points="110.81,48.4363 112.538,46.6505 119.155,46.8874 123.433,50.105 121.583,51.3169 114.352,51.3779 "/>
  <polygon class="fil1 str1" points="71.6273,31.2499 74.3679,31.2656 80.4882,31.3007 85.8203,31.3313 83.5344,34.1115 75.6402,34.1103 "/>
  <polygon class="fil1 str1" points="94.4232,57.9056 96.0173,56.1466 103.108,55.9817 107.083,58.9713 105.787,60.8451 98.5313,61.1199 "/>
  <polygon class="fil1 str1" points="123.947,56.1181 125.541,54.3591 132.632,54.1942 136.607,57.1838 135.311,59.0576 128.055,59.3324 "/>
  <polygon class="fil1 str1" points="143.789,56.9724 144.54,54.8558 153.122,54.5353 156.831,57.6874 155.678,59.8754 147.764,59.962 "/>
  <polygon class="fil1 str1" points="135.311,59.0576 136.698,57.1373 143.789,56.9724 147.763,59.962 146.468,61.8358 139.212,62.1106 "/>
  <polygon class="fil1 str1" points="155.678,59.8755 156.831,57.6874 164.947,57.7815 168.922,60.7711 167.626,62.6449 160.37,62.9197 "/>
  <polygon class="fil1 str1" points="85.1279,38.6367 87.2952,35.9957 94.3862,35.8307 98.8791,39.2099 97.2995,40.613 89.7139,41.0527 "/>
  <polygon class="fil1 str1" points="114.652,36.8492 116.819,34.2082 123.91,34.0432 128.403,37.4224 126.823,38.8255 119.238,39.2652 "/>
  <polygon class="fil1 str1" points="126.823,38.8255 128.403,37.4224 135.194,37.2391 138.722,39.8919 137.922,41.2438 130.576,41.6757 "/>
  <polygon class="fil1 str1" points="137.922,41.2438 139.025,39.7292 145.817,39.5459 149.344,42.1987 148.721,44.4766 142.116,44.6442 "/>
  <polygon class="fil1 str1" points="105.805,60.8198 107.171,58.8738 114.262,58.7089 118.728,61.7475 117.176,63.4912 109.59,63.9309 "/>
  <polygon class="fil1 str1" points="97.2462,40.7964 98.8403,39.0374 105.931,38.8725 110.424,42.2517 108.845,43.6548 101.259,44.0945 "/>
  <polygon class="fil1 str1" points="176.26,60.7952 176.986,58.5252 179.868,58.5844 183.913,61.3568 186.827,63.2183 181.088,63.1452 "/>
  <polygon class="fil1 str1" points="67.1781,64.2601 68.7147,62.633 76.1904,62.1932 80.2031,65.4913 78.2792,67.5251 72.6096,67.7277 "/>
  <polygon class="fil1 str1" points="51.909,52.1079 53.5031,50.4039 60.7589,50.1291 64.3868,52.9324 62.7927,54.6914 55.317,55.1312 "/>
  <polygon class="fil1 str1" points="60.7589,50.1291 62.5729,48.6449 69.381,48.4187 73.0168,51.1185 71.4777,52.7675 64.3868,52.9324 "/>
  <polygon class="fil1 str1" points="62.7927,54.6914 64.3868,52.9324 71.4777,52.7675 75.9706,56.1467 74.391,57.5498 66.8054,57.9895 "/>
  <polygon class="fil1 str1" points="54.3114,56.4211 55.317,55.1312 62.7927,54.6914 66.8054,57.9895 64.8815,60.0233 60.1544,59.981 "/>
  <polygon class="fil1 str1" points="38.5113,44.6061 40.1054,42.9021 47.3612,42.6273 50.9891,45.4306 49.395,47.1896 41.9193,47.6294 "/>
  <polygon class="fil1 str1" points="47.3612,42.6273 49.1752,41.1432 56.1116,41.0424 59.6191,43.6167 58.08,45.2657 50.9891,45.4306 "/>
  <polygon class="fil1 str1" points="49.395,47.1896 50.9891,45.4306 58.08,45.2657 62.5729,48.6449 60.9933,50.048 53.4077,50.4877 "/>
  <polygon class="fil1 str1" points="41.1748,48.4178 41.9193,47.6294 49.395,47.1896 53.4077,50.4877 51.4838,52.5215 47.3268,52.1658 "/>
  <polygon class="fil1 str1" points="25.1136,37.1043 26.7077,35.4003 33.9635,35.1255 37.5914,37.9288 35.9973,39.6878 28.5216,40.1276 "/>
  <polygon class="fil1 str1" points="33.9635,35.1255 35.7775,33.6413 42.6028,33.6669 46.2214,36.1149 44.6823,37.7639 37.5914,37.9288 "/>
  <polygon class="fil1 str1" points="35.9973,39.6878 37.5914,37.9288 44.6823,37.7639 49.1752,41.1432 47.5956,42.5462 40.01,42.9859 "/>
  <polygon class="fil1 str1" points="28.7496,40.8478 28.5216,40.1276 35.9973,39.6878 40.01,42.9859 38.0861,45.0197 34.9925,44.6512 "/>
 </g>
</svg>
