<?xml version="1.0" encoding="UTF-8"?>
<!DOCTYPE svg PUBLIC "-//W3C//DTD SVG 1.1//EN" "http://www.w3.org/Graphics/SVG/1.1/DTD/svg11.dtd">
<!-- Creator: CorelDRAW -->
<svg xmlns="http://www.w3.org/2000/svg" xml:space="preserve" width="210mm" height="297mm" style="shape-rendering:geometricPrecision; text-rendering:geometricPrecision; image-rendering:optimizeQuality; fill-rule:evenodd; clip-rule:evenodd"
viewBox="0 0 210 297"
 xmlns:xlink="http://www.w3.org/1999/xlink">
 <defs>
  <style type="text/css">
   <![CDATA[
    .str0 {stroke:#333333;stroke-width:0.5}
    .fil0 {fill:none}
    .fil1 {fill:#339966}
   ]]>
  </style>
 </defs>
 <g id="Слой_x0020_1">
  <metadata id="CorelCorpID_0Corel-Layer"/>
  <line class="fil0 str0" x1="26.7939" y1="30.4125" x2="27.5296" y2= "100.81" />
  <line class="fil0 str0" x1="100.06" y1="75.0997" x2="99.5926" y2= "101.518" />
  <line class="fil0 str0" x1="191.181" y1="75.834" x2="191.485" y2= "102.41" />
  <line class="fil0 str0" x1="2.8634" y1="100.577" x2="201.642" y2= "102.512" />
  <g id="_196245760">
   <polygon id="_422728040" class="fil1 str0" points="9.594,17.0952 85.0596,74.9529 206.725,75.9335 134.359,17.7418 "/>
   <line id="_422730392" class="fil0 str0" x1="45.6833" y1="19.5162" x2="121.796" y2= "75.2491" />
   <line id="_422730728" class="fil0 str0" x1="61.2648" y1="19.6286" x2="136.826" y2= "75.3702" />
   <line id="_422731064" class="fil0 str0" x1="29.7129" y1="19.401" x2="105.384" y2= "75.1168" />
   <line id="_422731400" class="fil0 str0" x1="92.2354" y1="19.8521" x2="165.597" y2= "75.602" />
   <line id="_422731736" class="fil0 str0" x1="107.607" y1="19.963" x2="181.252" y2= "75.7283" />
   <line id="_422732072" class="fil0 str0" x1="123.452" y1="20.0772" x2="194.829" y2= "75.8377" />
   <line id="_422732408" class="fil0 str0" x1="75.7521" y1="19.7332" x2="151.024" y2= "75.4846" />
   <polygon id="_422732360" class="fil1 str0" points="9.594,17.0952 12.4388,19.2763 137.389,20.1778 134.359,17.7418 "/>
  </g>
 </g>
</svg>
