<?xml version="1.0" encoding="UTF-8"?>
<!DOCTYPE svg PUBLIC "-//W3C//DTD SVG 1.1//EN" "http://www.w3.org/Graphics/SVG/1.1/DTD/svg11.dtd">
<!-- Creator: CorelDRAW -->
<svg xmlns="http://www.w3.org/2000/svg" xml:space="preserve" width="210mm" height="297mm" style="shape-rendering:geometricPrecision; text-rendering:geometricPrecision; image-rendering:optimizeQuality; fill-rule:evenodd; clip-rule:evenodd"
viewBox="0 0 210 297"
 xmlns:xlink="http://www.w3.org/1999/xlink">
 <defs>
  <style type="text/css">
   <![CDATA[
    .str2 {stroke:#333333;stroke-width:0.2}
    .str1 {stroke:#2B2A29;stroke-width:0.5}
    .str0 {stroke:#333333;stroke-width:0.5}
    .fil0 {fill:none}
    .fil1 {fill:#B32E37}
   ]]>
  </style>
 </defs>
 <g id="Слой_x0020_1">
  <metadata id="CorelCorpID_0Corel-Layer"/>
  <line class="fil0 str0" x1="26.7939" y1="19.98" x2="27.5296" y2= "100.81" />
  <line class="fil0 str0" x1="100.06" y1="75.0997" x2="99.5926" y2= "101.518" />
  <line class="fil0 str0" x1="191.181" y1="75.834" x2="191.485" y2= "102.41" />
  <line class="fil0 str0" x1="2.8634" y1="100.577" x2="201.642" y2= "102.512" />
  <g id="_424308792">
   <polygon id="_422748368" class="fil1 str0" points="9.594,3.3504 85.0596,74.6708 206.725,75.8795 134.359,4.1474 "/>
   <polygon id="_196247200" class="fil1 str0" points="9.594,3.3504 12.4388,6.039 137.389,7.1503 134.359,4.1474 "/>
   <g id="_346964824">
    <path id="_188344768" class="fil0 str1" d="M77.8481 67.5762c0.1337,0.2164 0.7377,0.9141 0.9401,1.1288 0.9121,0.968 2.8646,1.0688 3.7919,0.145 1.0466,-1.0427 1.4605,-1.37 2.0841,-0.8123 0.4524,0.4045 0.5246,1.0629 1.5913,1.5506 0.883,0.4036 1.8015,0.4033 2.6823,-0.2558 0.9487,-0.71 1.597,-2.3179 2.5098,-0.9153 0.6044,0.9288 1.3082,1.3006 2.2894,1.308 1.0937,0.0084 1.4776,0.1229 2.3263,-0.855 1.5818,-1.8222 1.5999,-0.2383 2.6293,0.5105 0.628,0.584 2.8633,0.49 3.5407,-0.1348 0.3562,-0.3285 0.7809,-1.1901 1.1007,-1.3963 0.2823,-0.1818 0.5422,0.0691 0.7445,0.3028"/>
    <path id="_188343352" class="fil0 str1" d="M103.922 68.0406c0.1337,0.2164 0.7377,0.9141 0.9401,1.1288 0.9121,0.968 2.8646,1.0688 3.7919,0.1451 1.0466,-1.0428 1.4605,-1.3701 2.0841,-0.8124 0.4524,0.4045 0.5246,1.0629 1.5913,1.5506 0.883,0.4036 1.8015,0.4033 2.6823,-0.2558 0.9487,-0.71 1.597,-2.3178 2.5098,-0.9152 0.6044,0.9287 1.3082,1.3005 2.2894,1.308 1.0937,0.0083 1.4776,0.1228 2.3263,-0.8551 1.5818,-1.8222 1.5999,-0.2382 2.6293,0.5105 0.628,0.5841 2.8633,0.4901 3.5407,-0.1348 0.3562,-0.3285 0.7809,-1.1901 1.1007,-1.3962 0.2823,-0.1818 0.5422,0.069 0.7445,0.3028"/>
    <path id="_346964440" class="fil0 str1" d="M129.996 68.505c0.1337,0.2164 0.7377,0.9142 0.9401,1.1289 0.9121,0.9679 2.8646,1.0688 3.7919,0.145 1.0466,-1.0427 1.4605,-1.37 2.0841,-0.8124 0.4524,0.4046 0.5246,1.0629 1.5913,1.5506 0.883,0.4037 1.8015,0.4033 2.6823,-0.2558 0.9487,-0.71 1.597,-2.3178 2.5098,-0.9152 0.6044,0.9287 1.3082,1.3006 2.2894,1.308 1.0937,0.0084 1.4776,0.1229 2.3263,-0.855 1.5818,-1.8223 1.5999,-0.2383 2.6293,0.5105 0.628,0.584 2.8633,0.49 3.5407,-0.1348 0.3562,-0.3286 0.7809,-1.1901 1.1007,-1.3963 0.2823,-0.1818 0.5422,0.069 0.7445,0.3028"/>
    <path id="_188342920" class="fil0 str1" d="M156.07 68.9695c0.1337,0.2164 0.7377,0.9141 0.9401,1.1288 0.9121,0.968 2.8646,1.0688 3.7919,0.145 1.0466,-1.0427 1.4605,-1.37 2.0841,-0.8123 0.4524,0.4045 0.5246,1.0629 1.5913,1.5506 0.883,0.4036 1.8015,0.4033 2.6823,-0.2558 0.9487,-0.71 1.597,-2.3179 2.5098,-0.9153 0.6044,0.9288 1.3082,1.3006 2.2894,1.308 1.0937,0.0084 1.4776,0.1229 2.3263,-0.855 1.5818,-1.8222 1.5999,-0.2383 2.6293,0.5105 0.628,0.584 2.8633,0.49 3.5407,-0.1348 0.3562,-0.3285 0.7809,-1.1901 1.1007,-1.3962 0.2823,-0.1818 0.5422,0.069 0.7445,0.3028"/>
    <path id="_346960864" class="fil0 str1" d="M182.144 69.4339c0.1337,0.2164 0.7377,0.9141 0.9401,1.1288 0.9121,0.968 2.8646,1.0688 3.7919,0.1451 1.0466,-1.0428 1.4605,-1.3701 2.0841,-0.8124 0.4524,0.4046 0.5246,1.0629 1.5913,1.5506 0.883,0.4036 1.8015,0.4033 2.6823,-0.2558 0.9487,-0.71 1.597,-2.3178 2.5098,-0.9152 0.6044,0.9287 1.3083,1.3005 2.2894,1.308 1.0937,0.0082 1.9338,-0.5831 2.7825,-1.561"/>
   </g>
   <g id="_188349808">
    <path id="_188344240" class="fil0 str1" d="M72.0427 62.0532c0.1337,0.2164 0.7377,0.9141 0.9401,1.1288 0.9121,0.968 2.8646,1.0688 3.7919,0.1451 1.0466,-1.0428 1.4605,-1.3701 2.0841,-0.8124 0.4524,0.4046 0.5246,1.0629 1.5913,1.5506 0.883,0.4036 1.8015,0.4033 2.6823,-0.2558 0.9487,-0.71 1.597,-2.3178 2.5098,-0.9152 0.6044,0.9287 1.3082,1.3005 2.2894,1.308 1.0937,0.0083 1.4776,0.1228 2.3263,-0.8551 1.5818,-1.8222 1.5999,-0.2382 2.6293,0.5105 0.628,0.5841 2.8633,0.4901 3.5407,-0.1348 0.3562,-0.3285 0.7809,-1.1901 1.1007,-1.3962 0.2823,-0.1818 0.5422,0.069 0.7445,0.3028"/>
    <path id="_346961248" class="fil0 str1" d="M98.1167 62.5176c0.1337,0.2164 0.7377,0.9142 0.9401,1.1289 0.9121,0.9679 2.8646,1.0688 3.7919,0.145 1.0466,-1.0427 1.4605,-1.37 2.0841,-0.8124 0.4524,0.4046 0.5246,1.0629 1.5913,1.5506 0.883,0.4037 1.8015,0.4033 2.6823,-0.2558 0.9487,-0.71 1.597,-2.3178 2.5098,-0.9152 0.6044,0.9287 1.3082,1.3006 2.2894,1.308 1.0937,0.0084 1.4776,0.1229 2.3263,-0.855 1.5818,-1.8222 1.5999,-0.2383 2.6293,0.5105 0.628,0.584 2.8633,0.49 3.5407,-0.1348 0.3562,-0.3286 0.7809,-1.1901 1.1007,-1.3963 0.2823,-0.1818 0.5422,0.0691 0.7445,0.3028"/>
    <path id="_346961056" class="fil0 str1" d="M124.191 62.9821c0.1337,0.2164 0.7377,0.9141 0.9401,1.1288 0.9121,0.968 2.8646,1.0688 3.7919,0.145 1.0466,-1.0427 1.4605,-1.37 2.0841,-0.8123 0.4524,0.4045 0.5246,1.0629 1.5913,1.5506 0.883,0.4036 1.8015,0.4033 2.6823,-0.2558 0.9487,-0.71 1.597,-2.3179 2.5098,-0.9153 0.6044,0.9288 1.3082,1.3006 2.2894,1.308 1.0937,0.0084 1.4776,0.1229 2.3263,-0.855 1.5818,-1.8222 1.5999,-0.2383 2.6293,0.5105 0.628,0.584 2.8633,0.49 3.5407,-0.1348 0.3562,-0.3285 0.7809,-1.1901 1.1007,-1.3962 0.2823,-0.1818 0.5422,0.069 0.7445,0.3028"/>
    <path id="_346964248" class="fil0 str1" d="M150.265 63.4465c0.1337,0.2164 0.7377,0.9141 0.9401,1.1288 0.9121,0.968 2.8646,1.0688 3.7919,0.1451 1.0466,-1.0428 1.4605,-1.3701 2.0841,-0.8124 0.4524,0.4046 0.5246,1.0629 1.5913,1.5506 0.883,0.4036 1.8015,0.4033 2.6823,-0.2558 0.9487,-0.71 1.597,-2.3178 2.5098,-0.9152 0.6044,0.9287 1.3082,1.3005 2.2894,1.308 1.0937,0.0083 1.4776,0.1228 2.3263,-0.8551 1.5818,-1.8222 1.5999,-0.2382 2.6293,0.5105 0.628,0.5841 2.8633,0.4901 3.5407,-0.1348 0.3562,-0.3285 0.7809,-1.1901 1.1007,-1.3962 0.2823,-0.1818 0.5422,0.069 0.7445,0.3028"/>
    <path id="_188348296" class="fil0 str1" d="M176.339 63.9109c0.1337,0.2164 0.7377,0.9142 0.9401,1.1289 0.9121,0.9679 2.8646,1.0688 3.7919,0.145 1.0466,-1.0427 1.4605,-1.37 2.0841,-0.8124 0.4524,0.4046 0.5246,1.0629 1.5913,1.5506 0.883,0.4037 1.8015,0.4034 2.6823,-0.2558 0.9487,-0.71 1.597,-2.3178 2.5098,-0.9152 0.6044,0.9287 1.3083,1.3006 2.2894,1.308 1.0937,0.0082 1.9338,-0.5831 2.7825,-1.561"/>
   </g>
   <g id="_188347072">
    <path id="_346956064" class="fil0 str1" d="M66.2373 56.5302c0.1337,0.2164 0.7377,0.9142 0.9401,1.1289 0.9121,0.9679 2.8646,1.0688 3.7919,0.145 1.0466,-1.0427 1.4605,-1.37 2.0841,-0.8124 0.4524,0.4046 0.5246,1.0629 1.5913,1.5506 0.883,0.4037 1.8015,0.4033 2.6823,-0.2558 0.9487,-0.71 1.597,-2.3178 2.5098,-0.9152 0.6044,0.9287 1.3082,1.3006 2.2894,1.308 1.0937,0.0084 1.4776,0.1229 2.3263,-0.855 1.5818,-1.8222 1.5999,-0.2383 2.6293,0.5105 0.628,0.584 2.8633,0.49 3.5407,-0.1348 0.3562,-0.3286 0.7809,-1.1901 1.1007,-1.3963 0.2823,-0.1818 0.5422,0.0691 0.7445,0.3028"/>
    <path id="_188348080" class="fil0 str1" d="M92.3113 56.9947c0.1337,0.2164 0.7377,0.9141 0.9401,1.1288 0.9121,0.968 2.8646,1.0688 3.7919,0.145 1.0466,-1.0427 1.4605,-1.37 2.0841,-0.8123 0.4524,0.4045 0.5246,1.0629 1.5913,1.5506 0.883,0.4036 1.8015,0.4033 2.6823,-0.2558 0.9487,-0.71 1.597,-2.3179 2.5098,-0.9152 0.6044,0.9287 1.3082,1.3005 2.2894,1.3079 1.0937,0.0084 1.4776,0.1229 2.3263,-0.855 1.5818,-1.8222 1.5999,-0.2383 2.6293,0.5105 0.628,0.584 2.8633,0.49 3.5407,-0.1348 0.3562,-0.3285 0.7809,-1.1901 1.1007,-1.3962 0.2823,-0.1818 0.5422,0.069 0.7445,0.3028"/>
    <path id="_188345560" class="fil0 str1" d="M118.385 57.4591c0.1337,0.2164 0.7377,0.9141 0.9401,1.1288 0.9121,0.968 2.8646,1.0688 3.7919,0.1451 1.0466,-1.0428 1.4605,-1.3701 2.0841,-0.8124 0.4524,0.4046 0.5246,1.0629 1.5913,1.5506 0.883,0.4036 1.8015,0.4033 2.6823,-0.2558 0.9487,-0.71 1.597,-2.3178 2.5098,-0.9152 0.6044,0.9287 1.3082,1.3005 2.2894,1.308 1.0937,0.0084 1.4776,0.1228 2.3263,-0.8551 1.5818,-1.8222 1.5999,-0.2382 2.6293,0.5105 0.628,0.5841 2.8633,0.4901 3.5407,-0.1348 0.3562,-0.3285 0.7809,-1.19 1.1007,-1.3962 0.2823,-0.1818 0.5422,0.069 0.7445,0.3028"/>
    <path id="_346961632" class="fil0 str1" d="M144.459 57.9235c0.1337,0.2164 0.7377,0.9142 0.9401,1.1289 0.9121,0.9679 2.8646,1.0688 3.7919,0.145 1.0466,-1.0427 1.4605,-1.37 2.0841,-0.8124 0.4524,0.4046 0.5246,1.0629 1.5913,1.5506 0.883,0.4037 1.8015,0.4034 2.6823,-0.2558 0.9487,-0.71 1.597,-2.3178 2.5098,-0.9152 0.6044,0.9287 1.3082,1.3006 2.2894,1.308 1.0937,0.0084 1.4776,0.1229 2.3263,-0.855 1.5818,-1.8222 1.5999,-0.2383 2.6293,0.5105 0.628,0.584 2.8633,0.49 3.5407,-0.1348 0.3562,-0.3286 0.7809,-1.1901 1.1007,-1.3963 0.2823,-0.1818 0.5422,0.0691 0.7445,0.3028"/>
    <path id="_346961824" class="fil0 str1" d="M170.533 58.388c0.1337,0.2164 0.7377,0.9141 0.9401,1.1288 0.9121,0.968 2.8646,1.0688 3.7919,0.145 1.0466,-1.0427 1.4605,-1.37 2.0841,-0.8123 0.4524,0.4045 0.5246,1.0629 1.5913,1.5506 0.883,0.4036 1.8015,0.4033 2.6823,-0.2558 0.9487,-0.71 1.597,-2.3179 2.5098,-0.9152 0.6044,0.9287 1.3083,1.3005 2.2894,1.3079 1.0937,0.0083 1.9338,-0.5831 2.7825,-1.5609"/>
   </g>
   <g id="_188780680">
    <path id="_346962208" class="fil0 str1" d="M60.4319 51.0073c0.1337,0.2164 0.7377,0.9141 0.9401,1.1288 0.9121,0.968 2.8646,1.0688 3.7919,0.145 1.0466,-1.0427 1.4605,-1.37 2.0841,-0.8123 0.4524,0.4045 0.5246,1.0629 1.5913,1.5506 0.883,0.4036 1.8015,0.4033 2.6823,-0.2558 0.9487,-0.71 1.597,-2.3179 2.5098,-0.9152 0.6044,0.9287 1.3082,1.3005 2.2894,1.3079 1.0937,0.0084 1.4776,0.1229 2.3263,-0.855 1.5818,-1.8222 1.5999,-0.2383 2.6293,0.5105 0.628,0.584 2.8633,0.49 3.5407,-0.1348 0.3562,-0.3285 0.7809,-1.1901 1.1007,-1.3962 0.2823,-0.1818 0.5422,0.069 0.7445,0.3028"/>
    <path id="_346962280" class="fil0 str1" d="M86.5059 51.4717c0.1337,0.2164 0.7377,0.9142 0.9401,1.1288 0.9121,0.968 2.8646,1.0688 3.7919,0.1451 1.0466,-1.0428 1.4605,-1.3701 2.0841,-0.8124 0.4524,0.4046 0.5246,1.0629 1.5913,1.5506 0.883,0.4036 1.8015,0.4033 2.6823,-0.2558 0.9487,-0.71 1.597,-2.3178 2.5098,-0.9152 0.6044,0.9287 1.3082,1.3005 2.2894,1.308 1.0937,0.0084 1.4776,0.1228 2.3263,-0.8551 1.5818,-1.8222 1.5999,-0.2382 2.6293,0.5106 0.628,0.584 2.8633,0.49 3.5407,-0.1349 0.3562,-0.3285 0.7809,-1.19 1.1007,-1.3962 0.2823,-0.1818 0.5422,0.069 0.7445,0.3028"/>
    <path id="_188348416" class="fil0 str1" d="M112.58 51.9362c0.1337,0.2163 0.7377,0.9141 0.9401,1.1288 0.9121,0.9679 2.8646,1.0688 3.7919,0.145 1.0466,-1.0427 1.4605,-1.37 2.0841,-0.8124 0.4524,0.4046 0.5246,1.0629 1.5913,1.5506 0.883,0.4037 1.8015,0.4034 2.6823,-0.2558 0.9487,-0.71 1.597,-2.3178 2.5098,-0.9152 0.6044,0.9287 1.3082,1.3006 2.2894,1.308 1.0937,0.0084 1.4776,0.1229 2.3263,-0.855 1.5818,-1.8222 1.5999,-0.2383 2.6293,0.5105 0.628,0.584 2.8633,0.49 3.5407,-0.1348 0.3562,-0.3286 0.7809,-1.1901 1.1007,-1.3963 0.2823,-0.1818 0.5422,0.0691 0.7445,0.3028"/>
    <path id="_188348320" class="fil0 str1" d="M138.654 52.4006c0.1337,0.2164 0.7377,0.9141 0.9401,1.1288 0.9121,0.968 2.8646,1.0688 3.7919,0.145 1.0466,-1.0427 1.4605,-1.37 2.0841,-0.8123 0.4524,0.4045 0.5246,1.0629 1.5913,1.5506 0.883,0.4036 1.8015,0.4033 2.6823,-0.2558 0.9487,-0.71 1.597,-2.3179 2.5098,-0.9152 0.6044,0.9287 1.3082,1.3005 2.2894,1.3079 1.0937,0.0084 1.4776,0.1229 2.3263,-0.855 1.5818,-1.8222 1.5999,-0.2383 2.6293,0.5105 0.628,0.5841 2.8633,0.4901 3.5407,-0.1348 0.3562,-0.3285 0.7809,-1.1901 1.1007,-1.3962 0.2823,-0.1818 0.5422,0.069 0.7445,0.3028"/>
    <path id="_188349472" class="fil0 str1" d="M164.728 52.865c0.1337,0.2164 0.7377,0.9142 0.9401,1.1288 0.9121,0.968 2.8646,1.0688 3.7919,0.1451 1.0466,-1.0427 1.4605,-1.3701 2.0841,-0.8124 0.4524,0.4046 0.5246,1.0629 1.5913,1.5506 0.883,0.4036 1.8015,0.4033 2.6823,-0.2558 0.9487,-0.71 1.597,-2.3178 2.5098,-0.9152 0.6044,0.9287 1.3083,1.3005 2.2894,1.308 1.0937,0.0082 1.9338,-0.5831 2.7825,-1.561"/>
   </g>
   <g id="_346962016">
    <path id="_188345752" class="fil0 str1" d="M54.6265 45.4843c0.1337,0.2164 0.7377,0.9142 0.9401,1.1288 0.9121,0.968 2.8646,1.0688 3.7919,0.1451 1.0466,-1.0427 1.4605,-1.3701 2.0841,-0.8124 0.4524,0.4046 0.5246,1.0629 1.5913,1.5506 0.883,0.4036 1.8015,0.4033 2.6823,-0.2558 0.9487,-0.71 1.597,-2.3178 2.5098,-0.9152 0.6044,0.9287 1.3082,1.3005 2.2894,1.308 1.0937,0.0084 1.4776,0.1228 2.3263,-0.8551 1.5818,-1.8222 1.5999,-0.2382 2.6293,0.5106 0.628,0.584 2.8633,0.49 3.5407,-0.1348 0.3562,-0.3286 0.7809,-1.1901 1.1007,-1.3963 0.2823,-0.1818 0.5422,0.069 0.7445,0.3028"/>
    <path id="_188342488" class="fil0 str1" d="M80.7005 45.9488c0.1337,0.2163 0.7377,0.9141 0.9401,1.1288 0.9121,0.9679 2.8646,1.0688 3.7919,0.145 1.0466,-1.0427 1.4605,-1.37 2.0841,-0.8124 0.4524,0.4046 0.5246,1.0629 1.5913,1.5506 0.883,0.4037 1.8015,0.4034 2.6823,-0.2558 0.9487,-0.7099 1.597,-2.3178 2.5098,-0.9152 0.6044,0.9287 1.3082,1.3006 2.2894,1.308 1.0937,0.0084 1.4776,0.1229 2.3263,-0.855 1.5818,-1.8222 1.5999,-0.2383 2.6293,0.5105 0.628,0.584 2.8633,0.49 3.5407,-0.1348 0.3562,-0.3286 0.7809,-1.1901 1.1007,-1.3963 0.2823,-0.1818 0.5422,0.0691 0.7445,0.3028"/>
    <path id="_188343688" class="fil0 str1" d="M106.775 46.4132c0.1337,0.2164 0.7377,0.9141 0.9401,1.1288 0.9121,0.968 2.8646,1.0688 3.7919,0.1451 1.0466,-1.0428 1.4605,-1.3701 2.0841,-0.8124 0.4524,0.4045 0.5246,1.0629 1.5913,1.5506 0.883,0.4036 1.8015,0.4033 2.6823,-0.2558 0.9487,-0.71 1.597,-2.3179 2.5098,-0.9152 0.6044,0.9287 1.3082,1.3005 2.2894,1.3079 1.0937,0.0084 1.4776,0.1229 2.3263,-0.855 1.5818,-1.8222 1.5999,-0.2383 2.6293,0.5105 0.628,0.5841 2.8633,0.4901 3.5407,-0.1348 0.3562,-0.3285 0.7809,-1.1901 1.1007,-1.3962 0.2823,-0.1818 0.5422,0.069 0.7445,0.3028"/>
    <path id="_188343136" class="fil0 str1" d="M132.849 46.8776c0.1337,0.2164 0.7377,0.9142 0.9401,1.1288 0.9121,0.968 2.8646,1.0688 3.7919,0.1451 1.0466,-1.0427 1.4605,-1.3701 2.0841,-0.8124 0.4524,0.4046 0.5246,1.0629 1.5913,1.5506 0.883,0.4036 1.8015,0.4033 2.6823,-0.2558 0.9487,-0.71 1.597,-2.3178 2.5098,-0.9152 0.6044,0.9287 1.3082,1.3005 2.2894,1.308 1.0937,0.0084 1.4776,0.1228 2.3263,-0.855 1.5818,-1.8223 1.5999,-0.2383 2.6293,0.5105 0.628,0.584 2.8633,0.49 3.5407,-0.1348 0.3562,-0.3286 0.7809,-1.1901 1.1007,-1.3963 0.2823,-0.1818 0.5422,0.069 0.7445,0.3028"/>
    <path id="_188349088" class="fil0 str1" d="M158.923 47.3421c0.1337,0.2164 0.7377,0.9141 0.9401,1.1288 0.9121,0.9679 2.8646,1.0688 3.7919,0.145 1.0466,-1.0427 1.4605,-1.37 2.0841,-0.8124 0.4524,0.4046 0.5246,1.0629 1.5913,1.5506 0.883,0.4037 1.8015,0.4034 2.6823,-0.2557 0.9487,-0.71 1.597,-2.3179 2.5098,-0.9153 0.6044,0.9287 1.3083,1.3006 2.2894,1.308 1.0937,0.0082 1.9338,-0.5831 2.7825,-1.561"/>
   </g>
   <g id="_188345176">
    <path id="_186197776" class="fil0 str1" d="M48.8211 39.9614c0.1337,0.2164 0.7377,0.9141 0.9401,1.1288 0.9121,0.9679 2.8646,1.0688 3.7919,0.145 1.0466,-1.0427 1.4605,-1.37 2.0841,-0.8124 0.4524,0.4046 0.5246,1.0629 1.5913,1.5506 0.883,0.4037 1.8015,0.4034 2.6823,-0.2558 0.9487,-0.7099 1.597,-2.3178 2.5098,-0.9152 0.6044,0.9287 1.3082,1.3006 2.2894,1.308 1.0937,0.0084 1.4776,0.1229 2.3263,-0.855 1.5818,-1.8222 1.5999,-0.2383 2.6293,0.5105 0.628,0.584 2.8633,0.49 3.5407,-0.1348 0.3562,-0.3286 0.7809,-1.1901 1.1007,-1.3963 0.2823,-0.1818 0.5422,0.0691 0.7445,0.3028"/>
    <path id="_346945048" class="fil0 str1" d="M74.8951 40.4258c0.1337,0.2164 0.7377,0.9141 0.9401,1.1288 0.9121,0.968 2.8646,1.0688 3.7919,0.1451 1.0466,-1.0428 1.4605,-1.3701 2.0841,-0.8124 0.4524,0.4045 0.5246,1.0629 1.5913,1.5506 0.883,0.4036 1.8015,0.4033 2.6823,-0.2558 0.9487,-0.71 1.597,-2.3178 2.5098,-0.9152 0.6044,0.9287 1.3082,1.3005 2.2894,1.308 1.0937,0.0083 1.4776,0.1228 2.3263,-0.8551 1.5818,-1.8222 1.5999,-0.2382 2.6293,0.5105 0.628,0.5841 2.8633,0.4901 3.5407,-0.1348 0.3562,-0.3285 0.7809,-1.1901 1.1007,-1.3962 0.2823,-0.1818 0.5422,0.069 0.7445,0.3028"/>
    <path id="_346945720" class="fil0 str1" d="M100.969 40.8902c0.1337,0.2164 0.7377,0.9142 0.9401,1.1289 0.9121,0.9679 2.8646,1.0687 3.7919,0.145 1.0466,-1.0427 1.4605,-1.37 2.0841,-0.8124 0.4524,0.4046 0.5246,1.0629 1.5913,1.5506 0.883,0.4036 1.8015,0.4033 2.6823,-0.2558 0.9487,-0.71 1.597,-2.3178 2.5098,-0.9152 0.6044,0.9287 1.3082,1.3005 2.2894,1.308 1.0937,0.0084 1.4776,0.1228 2.3263,-0.855 1.5818,-1.8223 1.5999,-0.2383 2.6293,0.5105 0.628,0.584 2.8633,0.49 3.5407,-0.1348 0.3562,-0.3286 0.7809,-1.1901 1.1007,-1.3963 0.2823,-0.1818 0.5422,0.069 0.7445,0.3028"/>
    <path id="_346941880" class="fil0 str1" d="M127.043 41.3547c0.1337,0.2164 0.7377,0.9141 0.9401,1.1288 0.9121,0.9679 2.8646,1.0688 3.7919,0.145 1.0466,-1.0427 1.4605,-1.37 2.0841,-0.8123 0.4524,0.4045 0.5246,1.0628 1.5913,1.5505 0.883,0.4037 1.8015,0.4034 2.6823,-0.2557 0.9487,-0.71 1.597,-2.3179 2.5098,-0.9153 0.6044,0.9287 1.3082,1.3006 2.2894,1.308 1.0937,0.0084 1.4776,0.1229 2.3263,-0.855 1.5818,-1.8222 1.5999,-0.2383 2.6293,0.5105 0.628,0.584 2.8633,0.49 3.5407,-0.1348 0.3562,-0.3286 0.7809,-1.1901 1.1007,-1.3963 0.2823,-0.1818 0.5422,0.0691 0.7445,0.3028"/>
    <path id="_346944472" class="fil0 str1" d="M153.117 41.8191c0.1337,0.2164 0.7377,0.9141 0.9401,1.1288 0.9121,0.968 2.8646,1.0688 3.7919,0.1451 1.0466,-1.0428 1.4605,-1.3701 2.0841,-0.8124 0.4524,0.4045 0.5246,1.0629 1.5913,1.5506 0.883,0.4036 1.8015,0.4033 2.6823,-0.2558 0.9487,-0.71 1.597,-2.3178 2.5098,-0.9152 0.6044,0.9287 1.3083,1.3005 2.2894,1.308 1.0937,0.0082 1.9338,-0.5831 2.7825,-1.561"/>
   </g>
   <g id="_186203248">
    <path id="_346951096" class="fil0 str1" d="M43.0157 34.4384c0.1337,0.2164 0.7377,0.9141 0.9401,1.1288 0.9121,0.968 2.8646,1.0688 3.7919,0.1451 1.0466,-1.0428 1.4605,-1.3701 2.0841,-0.8124 0.4524,0.4045 0.5246,1.0629 1.5913,1.5506 0.883,0.4036 1.8015,0.4033 2.6823,-0.2558 0.9487,-0.71 1.597,-2.3178 2.5098,-0.9152 0.6044,0.9287 1.3082,1.3005 2.2894,1.308 1.0937,0.0083 1.4776,0.1228 2.3263,-0.8551 1.5818,-1.8222 1.5999,-0.2382 2.6293,0.5105 0.628,0.5841 2.8633,0.4901 3.5407,-0.1348 0.3562,-0.3285 0.7809,-1.1901 1.1007,-1.3962 0.2823,-0.1818 0.5422,0.069 0.7445,0.3028"/>
    <path id="_346944352" class="fil0 str1" d="M69.0897 34.9028c0.1337,0.2164 0.7377,0.9142 0.9401,1.1289 0.9121,0.9679 2.8646,1.0687 3.7919,0.145 1.0466,-1.0427 1.4605,-1.37 2.0841,-0.8124 0.4524,0.4046 0.5246,1.0629 1.5913,1.5506 0.883,0.4036 1.8015,0.4033 2.6823,-0.2558 0.9487,-0.71 1.597,-2.3178 2.5098,-0.9152 0.6044,0.9287 1.3082,1.3005 2.2894,1.308 1.0937,0.0084 1.4776,0.1228 2.3263,-0.855 1.5818,-1.8223 1.5999,-0.2383 2.6293,0.5105 0.628,0.584 2.8633,0.49 3.5407,-0.1348 0.3562,-0.3286 0.7809,-1.1901 1.1007,-1.3963 0.2823,-0.1818 0.5422,0.069 0.7445,0.3028"/>
    <path id="_346946296" class="fil0 str1" d="M95.1637 35.3673c0.1337,0.2164 0.7377,0.9141 0.9401,1.1288 0.9121,0.9679 2.8646,1.0688 3.7919,0.145 1.0466,-1.0427 1.4605,-1.37 2.0841,-0.8123 0.4524,0.4045 0.5246,1.0628 1.5913,1.5506 0.883,0.4036 1.8015,0.4033 2.6823,-0.2558 0.9487,-0.71 1.597,-2.3179 2.5098,-0.9153 0.6044,0.9288 1.3082,1.3006 2.2894,1.308 1.0937,0.0084 1.4776,0.1229 2.3263,-0.855 1.5818,-1.8222 1.5999,-0.2383 2.6293,0.5105 0.628,0.584 2.8633,0.49 3.5407,-0.1348 0.3562,-0.3285 0.7809,-1.1901 1.1007,-1.3963 0.2823,-0.1818 0.5422,0.0691 0.7445,0.3028"/>
    <path id="_346944280" class="fil0 str1" d="M121.238 35.8317c0.1337,0.2164 0.7377,0.9141 0.9401,1.1288 0.9121,0.968 2.8646,1.0688 3.7919,0.1451 1.0466,-1.0428 1.4605,-1.3701 2.0841,-0.8124 0.4524,0.4045 0.5246,1.0629 1.5913,1.5506 0.883,0.4036 1.8015,0.4033 2.6823,-0.2558 0.9487,-0.71 1.597,-2.3178 2.5098,-0.9152 0.6044,0.9287 1.3082,1.3005 2.2894,1.308 1.0937,0.0083 1.4776,0.1228 2.3263,-0.8551 1.5818,-1.8222 1.5999,-0.2382 2.6293,0.5105 0.628,0.5841 2.8633,0.4901 3.5407,-0.1348 0.3562,-0.3285 0.7809,-1.1901 1.1007,-1.3962 0.2823,-0.1818 0.5422,0.069 0.7445,0.3028"/>
    <path id="_346945456" class="fil0 str1" d="M147.312 36.2961c0.1337,0.2164 0.7377,0.9142 0.9401,1.1289 0.9121,0.9679 2.8646,1.0687 3.7919,0.145 1.0466,-1.0427 1.4605,-1.37 2.0841,-0.8124 0.4524,0.4046 0.5246,1.0629 1.5913,1.5506 0.883,0.4037 1.8015,0.4033 2.6823,-0.2558 0.9487,-0.71 1.597,-2.3178 2.5098,-0.9152 0.6044,0.9287 1.3083,1.3005 2.2894,1.308 1.0937,0.0082 1.9338,-0.5831 2.7825,-1.561"/>
   </g>
   <g id="_346944952">
    <path id="_346948552" class="fil0 str1" d="M37.2103 28.9154c0.1337,0.2164 0.7377,0.9142 0.9401,1.1289 0.9121,0.9679 2.8646,1.0687 3.7919,0.145 1.0466,-1.0427 1.4605,-1.37 2.0841,-0.8124 0.4524,0.4046 0.5246,1.0629 1.5913,1.5506 0.883,0.4036 1.8015,0.4033 2.6823,-0.2558 0.9487,-0.71 1.597,-2.3178 2.5098,-0.9152 0.6044,0.9287 1.3082,1.3005 2.2894,1.308 1.0937,0.0084 1.4776,0.1228 2.3263,-0.855 1.5818,-1.8223 1.5999,-0.2383 2.6293,0.5105 0.628,0.584 2.8633,0.49 3.5407,-0.1348 0.3562,-0.3286 0.7809,-1.1901 1.1007,-1.3963 0.2823,-0.1818 0.5422,0.069 0.7445,0.3028"/>
    <path id="_346949032" class="fil0 str1" d="M63.2843 29.3799c0.1337,0.2164 0.7377,0.9141 0.9401,1.1288 0.9121,0.968 2.8646,1.0688 3.7919,0.145 1.0466,-1.0427 1.4605,-1.37 2.0841,-0.8123 0.4524,0.4045 0.5246,1.0629 1.5913,1.5506 0.883,0.4036 1.8015,0.4033 2.6823,-0.2558 0.9487,-0.71 1.597,-2.3179 2.5098,-0.9153 0.6044,0.9288 1.3082,1.3006 2.2894,1.308 1.0937,0.0084 1.4776,0.1229 2.3263,-0.855 1.5818,-1.8222 1.5999,-0.2383 2.6293,0.5105 0.628,0.584 2.8633,0.49 3.5407,-0.1348 0.3562,-0.3285 0.7809,-1.1901 1.1007,-1.3963 0.2823,-0.1818 0.5422,0.0691 0.7445,0.3028"/>
    <path id="_346942768" class="fil0 str1" d="M89.3583 29.8443c0.1337,0.2164 0.7377,0.9141 0.9401,1.1288 0.9121,0.968 2.8646,1.0688 3.7919,0.1451 1.0466,-1.0428 1.4605,-1.3701 2.0841,-0.8124 0.4524,0.4045 0.5246,1.0629 1.5913,1.5506 0.883,0.4036 1.8015,0.4033 2.6823,-0.2558 0.9487,-0.71 1.597,-2.3178 2.5098,-0.9152 0.6044,0.9287 1.3082,1.3005 2.2894,1.308 1.0937,0.0083 1.4776,0.1228 2.3263,-0.8551 1.5818,-1.8222 1.5999,-0.2382 2.6293,0.5105 0.628,0.5841 2.8633,0.4901 3.5407,-0.1348 0.3562,-0.3285 0.7809,-1.1901 1.1007,-1.3962 0.2823,-0.1818 0.5422,0.069 0.7445,0.3028"/>
    <path id="_346942960" class="fil0 str1" d="M115.432 30.3087c0.1337,0.2164 0.7377,0.9142 0.9401,1.1289 0.9121,0.9679 2.8646,1.0688 3.7919,0.145 1.0466,-1.0427 1.4605,-1.37 2.0841,-0.8124 0.4524,0.4046 0.5246,1.0629 1.5913,1.5506 0.883,0.4037 1.8015,0.4033 2.6823,-0.2558 0.9487,-0.71 1.597,-2.3178 2.5098,-0.9152 0.6044,0.9287 1.3082,1.3006 2.2894,1.308 1.0937,0.0084 1.4776,0.1229 2.3263,-0.855 1.5818,-1.8223 1.5999,-0.2383 2.6293,0.5105 0.628,0.584 2.8633,0.49 3.5407,-0.1348 0.3562,-0.3286 0.7809,-1.1901 1.1007,-1.3963 0.2823,-0.1818 0.5422,0.069 0.7445,0.3028"/>
    <path id="_346946824" class="fil0 str1" d="M141.506 30.7732c0.1337,0.2164 0.7377,0.9141 0.9401,1.1288 0.9121,0.968 2.8646,1.0688 3.7919,0.145 1.0466,-1.0427 1.4605,-1.37 2.0841,-0.8123 0.4524,0.4045 0.5246,1.0629 1.5913,1.5506 0.883,0.4036 1.8015,0.4033 2.6823,-0.2558 0.9487,-0.71 1.597,-2.3179 2.5098,-0.9153 0.6044,0.9288 1.3083,1.3006 2.2894,1.308 1.0937,0.0083 1.9338,-0.5831 2.7825,-1.561"/>
   </g>
   <g id="_188347048">
    <path id="_346964344" class="fil0 str1" d="M31.4049 23.3925c0.1337,0.2164 0.7377,0.9141 0.9401,1.1288 0.9121,0.968 2.8646,1.0688 3.7919,0.145 1.0466,-1.0427 1.4605,-1.37 2.0841,-0.8123 0.4524,0.4045 0.5246,1.0629 1.5913,1.5506 0.883,0.4036 1.8015,0.4033 2.6823,-0.2558 0.9487,-0.71 1.597,-2.3179 2.5098,-0.9153 0.6044,0.9288 1.3082,1.3006 2.2894,1.308 1.0937,0.0084 1.4776,0.1229 2.3263,-0.855 1.5818,-1.8222 1.5999,-0.2383 2.6293,0.5105 0.628,0.584 2.8633,0.49 3.5407,-0.1348 0.3562,-0.3285 0.7809,-1.1901 1.1007,-1.3962 0.2823,-0.1819 0.5422,0.069 0.7445,0.3027"/>
    <path id="_346945552" class="fil0 str1" d="M57.4789 23.8569c0.1337,0.2164 0.7377,0.9141 0.9401,1.1288 0.9121,0.968 2.8646,1.0688 3.7919,0.1451 1.0466,-1.0428 1.4605,-1.3701 2.0841,-0.8124 0.4524,0.4046 0.5246,1.0629 1.5913,1.5506 0.883,0.4036 1.8015,0.4033 2.6823,-0.2558 0.9487,-0.71 1.597,-2.3178 2.5098,-0.9152 0.6044,0.9287 1.3082,1.3005 2.2894,1.308 1.0937,0.0083 1.4776,0.1228 2.3263,-0.8551 1.5818,-1.8222 1.5999,-0.2382 2.6293,0.5105 0.628,0.5841 2.8633,0.4901 3.5407,-0.1348 0.3562,-0.3285 0.7809,-1.1901 1.1007,-1.3962 0.2823,-0.1818 0.5422,0.069 0.7445,0.3028"/>
    <path id="_346945432" class="fil0 str1" d="M83.5529 24.3213c0.1337,0.2164 0.7377,0.9142 0.9401,1.1289 0.9121,0.9679 2.8646,1.0688 3.7919,0.145 1.0466,-1.0427 1.4605,-1.37 2.0841,-0.8124 0.4524,0.4046 0.5246,1.0629 1.5913,1.5506 0.883,0.4037 1.8015,0.4033 2.6823,-0.2558 0.9487,-0.71 1.597,-2.3178 2.5098,-0.9152 0.6044,0.9287 1.3082,1.3006 2.2894,1.308 1.0937,0.0084 1.4776,0.1229 2.3263,-0.855 1.5818,-1.8222 1.5999,-0.2383 2.6293,0.5105 0.628,0.584 2.8633,0.49 3.5407,-0.1348 0.3562,-0.3286 0.7809,-1.1901 1.1007,-1.3963 0.2823,-0.1818 0.5422,0.0691 0.7445,0.3028"/>
    <path id="_346944328" class="fil0 str1" d="M109.627 24.7858c0.1337,0.2164 0.7377,0.9141 0.9401,1.1288 0.9121,0.968 2.8646,1.0688 3.7919,0.145 1.0466,-1.0427 1.4605,-1.37 2.0841,-0.8123 0.4524,0.4045 0.5246,1.0629 1.5913,1.5506 0.883,0.4036 1.8015,0.4033 2.6823,-0.2558 0.9487,-0.71 1.597,-2.3179 2.5098,-0.9153 0.6044,0.9288 1.3082,1.3006 2.2894,1.308 1.0937,0.0084 1.4776,0.1229 2.3263,-0.855 1.5818,-1.8222 1.5999,-0.2383 2.6293,0.5105 0.628,0.584 2.8633,0.49 3.5407,-0.1348 0.3562,-0.3285 0.7809,-1.1901 1.1007,-1.3962 0.2823,-0.1818 0.5422,0.069 0.7445,0.3028"/>
    <path id="_346946152" class="fil0 str1" d="M135.701 25.2502c0.1337,0.2164 0.7377,0.9141 0.9401,1.1288 0.9121,0.968 2.8646,1.0688 3.7919,0.1451 1.0466,-1.0428 1.4605,-1.3701 2.0841,-0.8124 0.4524,0.4046 0.5246,1.0629 1.5913,1.5506 0.883,0.4036 1.8015,0.4033 2.6823,-0.2558 0.9487,-0.71 1.597,-2.3178 2.5098,-0.9152 0.6044,0.9287 1.3083,1.3005 2.2894,1.308 1.0937,0.0082 1.9338,-0.5831 2.7825,-1.561"/>
   </g>
   <g id="_346958416">
    <path id="_346960936" class="fil0 str1" d="M25.5995 17.8695c0.1337,0.2164 0.7377,0.9141 0.9401,1.1288 0.9121,0.968 2.8646,1.0688 3.7919,0.1451 1.0466,-1.0428 1.4605,-1.3701 2.0841,-0.8124 0.4524,0.4046 0.5246,1.0629 1.5913,1.5506 0.883,0.4036 1.8015,0.4033 2.6823,-0.2558 0.9487,-0.71 1.597,-2.3178 2.5098,-0.9152 0.6044,0.9287 1.3082,1.3005 2.2894,1.308 1.0937,0.0083 1.4776,0.1228 2.3263,-0.8551 1.5818,-1.8222 1.5999,-0.2382 2.6293,0.5105 0.628,0.5841 2.8633,0.4901 3.5407,-0.1348 0.3562,-0.3285 0.7809,-1.1901 1.1007,-1.3962 0.2823,-0.1818 0.5422,0.069 0.7445,0.3028"/>
    <path id="_346960768" class="fil0 str1" d="M51.6735 18.3339c0.1337,0.2164 0.7377,0.9142 0.9401,1.1289 0.9121,0.9679 2.8646,1.0688 3.7919,0.145 1.0466,-1.0427 1.4605,-1.37 2.0841,-0.8124 0.4524,0.4046 0.5246,1.0629 1.5913,1.5506 0.883,0.4037 1.8015,0.4033 2.6823,-0.2558 0.9487,-0.71 1.597,-2.3178 2.5098,-0.9152 0.6044,0.9287 1.3082,1.3006 2.2894,1.308 1.0937,0.0084 1.4776,0.1229 2.3263,-0.855 1.5818,-1.8222 1.5999,-0.2383 2.6293,0.5105 0.628,0.584 2.8633,0.49 3.5407,-0.1348 0.3562,-0.3286 0.7809,-1.1901 1.1007,-1.3963 0.2823,-0.1818 0.5422,0.0691 0.7445,0.3028"/>
    <path id="_346942408" class="fil0 str1" d="M77.7475 18.7984c0.1337,0.2164 0.7377,0.9141 0.9401,1.1288 0.9121,0.968 2.8646,1.0688 3.7919,0.145 1.0466,-1.0427 1.4605,-1.37 2.0841,-0.8123 0.4524,0.4045 0.5246,1.0629 1.5913,1.5506 0.883,0.4036 1.8015,0.4033 2.6823,-0.2558 0.9487,-0.71 1.597,-2.3179 2.5098,-0.9152 0.6044,0.9287 1.3082,1.3005 2.2894,1.3079 1.0937,0.0084 1.4776,0.1229 2.3263,-0.855 1.5818,-1.8222 1.5999,-0.2383 2.6293,0.5105 0.628,0.584 2.8633,0.49 3.5407,-0.1348 0.3562,-0.3285 0.7809,-1.1901 1.1007,-1.3962 0.2823,-0.1818 0.5422,0.069 0.7445,0.3028"/>
    <path id="_346948048" class="fil0 str1" d="M103.822 19.2628c0.1337,0.2164 0.7377,0.9141 0.9401,1.1288 0.9121,0.968 2.8646,1.0688 3.7919,0.1451 1.0466,-1.0428 1.4605,-1.3701 2.0841,-0.8124 0.4524,0.4046 0.5246,1.0629 1.5913,1.5506 0.883,0.4036 1.8015,0.4033 2.6823,-0.2558 0.9487,-0.71 1.597,-2.3178 2.5098,-0.9152 0.6044,0.9287 1.3082,1.3005 2.2894,1.308 1.0937,0.0084 1.4776,0.1228 2.3263,-0.8551 1.5818,-1.8222 1.5999,-0.2382 2.6293,0.5105 0.628,0.5841 2.8633,0.4901 3.5407,-0.1348 0.3562,-0.3285 0.7809,-1.19 1.1007,-1.3962 0.2823,-0.1818 0.5422,0.069 0.7445,0.3028"/>
    <path id="_346945240" class="fil0 str1" d="M129.896 19.7273c0.1337,0.2163 0.7377,0.9141 0.9401,1.1288 0.9121,0.9679 2.8646,1.0688 3.7919,0.145 1.0466,-1.0427 1.4605,-1.37 2.0841,-0.8124 0.4524,0.4046 0.5246,1.0629 1.5913,1.5506 0.883,0.4037 1.8015,0.4034 2.6823,-0.2558 0.9487,-0.71 1.597,-2.3178 2.5098,-0.9152 0.6044,0.9287 1.3083,1.3006 2.2894,1.308 1.0937,0.0082 1.9338,-0.5831 2.7825,-1.561"/>
   </g>
   <g id="_188344312">
    <path id="_346958800" class="fil0 str1" d="M19.7941 12.3465c0.1337,0.2164 0.7377,0.9142 0.9401,1.1289 0.9121,0.9679 2.8646,1.0688 3.7919,0.145 1.0466,-1.0427 1.4605,-1.37 2.0841,-0.8124 0.4524,0.4046 0.5246,1.0629 1.5913,1.5506 0.883,0.4037 1.8015,0.4034 2.6823,-0.2558 0.9487,-0.71 1.597,-2.3178 2.5098,-0.9152 0.6044,0.9287 1.3082,1.3006 2.2894,1.308 1.0937,0.0084 1.4776,0.1229 2.3263,-0.855 1.5818,-1.8222 1.5999,-0.2383 2.6293,0.5105 0.628,0.584 2.8633,0.49 3.5407,-0.1348 0.3562,-0.3286 0.7809,-1.1901 1.1007,-1.3963 0.2823,-0.1818 0.5422,0.0691 0.7445,0.3028"/>
    <path id="_346946536" class="fil0 str1" d="M45.8681 12.811c0.1337,0.2164 0.7377,0.9141 0.9401,1.1288 0.9121,0.968 2.8646,1.0688 3.7919,0.145 1.0466,-1.0427 1.4605,-1.37 2.0841,-0.8123 0.4524,0.4045 0.5246,1.0629 1.5913,1.5506 0.883,0.4036 1.8015,0.4033 2.6823,-0.2558 0.9487,-0.71 1.597,-2.3179 2.5098,-0.9152 0.6044,0.9287 1.3082,1.3005 2.2894,1.3079 1.0937,0.0084 1.4776,0.1229 2.3263,-0.855 1.5818,-1.8222 1.5999,-0.2383 2.6293,0.5105 0.628,0.5841 2.8633,0.49 3.5407,-0.1348 0.3562,-0.3285 0.7809,-1.1901 1.1007,-1.3962 0.2823,-0.1818 0.5422,0.069 0.7445,0.3028"/>
    <path id="_346947256" class="fil0 str1" d="M71.9421 13.2754c0.1337,0.2164 0.7377,0.9142 0.9401,1.1288 0.9121,0.968 2.8646,1.0688 3.7919,0.1451 1.0466,-1.0428 1.4605,-1.3701 2.0841,-0.8124 0.4524,0.4046 0.5246,1.0629 1.5913,1.5506 0.883,0.4036 1.8015,0.4033 2.6823,-0.2558 0.9487,-0.71 1.597,-2.3178 2.5098,-0.9152 0.6044,0.9287 1.3082,1.3005 2.2894,1.308 1.0937,0.0084 1.4776,0.1228 2.3263,-0.8551 1.5818,-1.8222 1.5999,-0.2382 2.6293,0.5106 0.628,0.584 2.8633,0.49 3.5407,-0.1348 0.3562,-0.3286 0.7809,-1.1901 1.1007,-1.3963 0.2823,-0.1818 0.5422,0.069 0.7445,0.3028"/>
    <path id="_346950976" class="fil0 str1" d="M98.0161 13.7399c0.1337,0.2163 0.7377,0.9141 0.9401,1.1288 0.9121,0.9679 2.8646,1.0688 3.7919,0.145 1.0466,-1.0427 1.4605,-1.37 2.0841,-0.8124 0.4524,0.4046 0.5246,1.0629 1.5913,1.5506 0.883,0.4037 1.8015,0.4034 2.6823,-0.2558 0.9487,-0.7099 1.597,-2.3178 2.5098,-0.9152 0.6044,0.9287 1.3082,1.3006 2.2894,1.308 1.0937,0.0084 1.4776,0.1229 2.3263,-0.855 1.5818,-1.8222 1.5999,-0.2383 2.6293,0.5105 0.628,0.584 2.8633,0.49 3.5407,-0.1348 0.3562,-0.3286 0.7809,-1.1901 1.1007,-1.3963 0.2823,-0.1818 0.5422,0.0691 0.7445,0.3028"/>
    <path id="_346942432" class="fil0 str1" d="M124.09 14.2043c0.1337,0.2164 0.7377,0.9141 0.9401,1.1288 0.9121,0.968 2.8646,1.0688 3.7919,0.145 1.0466,-1.0427 1.4605,-1.37 2.0841,-0.8123 0.4524,0.4045 0.5246,1.0629 1.5913,1.5506 0.883,0.4036 1.8015,0.4033 2.6823,-0.2558 0.9487,-0.71 1.597,-2.3179 2.5098,-0.9152 0.6044,0.9287 1.3083,1.3005 2.2894,1.3079 1.0937,0.0083 1.9338,-0.5831 2.7825,-1.5609"/>
   </g>
   <g id="_346958752">
    <path id="_346962112" class="fil0 str1" d="M13.9887 6.8236c0.1337,0.2164 0.7377,0.9141 0.9401,1.1288 0.9121,0.968 2.8646,1.0688 3.7919,0.145 1.0466,-1.0427 1.4605,-1.37 2.0841,-0.8123 0.4524,0.4045 0.5246,1.0629 1.5913,1.5506 0.883,0.4036 1.8015,0.4033 2.6823,-0.2558 0.9487,-0.71 1.597,-2.3179 2.5098,-0.9152 0.6044,0.9287 1.3082,1.3005 2.2894,1.3079 1.0937,0.0084 1.4776,0.1229 2.3263,-0.855 1.5818,-1.8222 1.5999,-0.2383 2.6293,0.5105 0.628,0.5841 2.8633,0.49 3.5407,-0.1348 0.3562,-0.3285 0.7809,-1.1901 1.1007,-1.3962 0.2823,-0.1818 0.5422,0.069 0.7445,0.3028"/>
    <path id="_346951336" class="fil0 str1" d="M40.0627 7.288c0.1337,0.2164 0.7377,0.9142 0.9401,1.1288 0.9121,0.968 2.8646,1.0688 3.7919,0.1451 1.0466,-1.0427 1.4605,-1.3701 2.0841,-0.8124 0.4524,0.4046 0.5246,1.0629 1.5913,1.5506 0.883,0.4036 1.8015,0.4033 2.6823,-0.2558 0.9487,-0.71 1.597,-2.3178 2.5098,-0.9152 0.6044,0.9287 1.3082,1.3005 2.2894,1.308 1.0937,0.0084 1.4776,0.1228 2.3263,-0.8551 1.5818,-1.8222 1.5999,-0.2382 2.6293,0.5106 0.628,0.584 2.8633,0.49 3.5407,-0.1348 0.3562,-0.3286 0.7809,-1.1901 1.1007,-1.3963 0.2823,-0.1818 0.5422,0.069 0.7445,0.3028"/>
    <path id="_346951456" class="fil0 str1" d="M66.1367 7.7525c0.1337,0.2164 0.7377,0.9141 0.9401,1.1288 0.9121,0.9679 2.8646,1.0688 3.7919,0.145 1.0466,-1.0427 1.4605,-1.37 2.0841,-0.8124 0.4524,0.4046 0.5246,1.0629 1.5913,1.5506 0.883,0.4037 1.8015,0.4034 2.6823,-0.2558 0.9487,-0.7099 1.597,-2.3178 2.5098,-0.9152 0.6044,0.9287 1.3082,1.3006 2.2894,1.308 1.0937,0.0084 1.4776,0.1229 2.3263,-0.855 1.5818,-1.8222 1.5999,-0.2383 2.6293,0.5105 0.628,0.584 2.8633,0.49 3.5407,-0.1348 0.3562,-0.3286 0.7809,-1.1901 1.1007,-1.3963 0.2823,-0.1818 0.5422,0.0691 0.7445,0.3028"/>
    <path id="_346950232" class="fil0 str1" d="M92.2107 8.2169c0.1337,0.2164 0.7377,0.9141 0.9401,1.1288 0.9121,0.968 2.8646,1.0688 3.7919,0.1451 1.0466,-1.0428 1.4605,-1.3701 2.0841,-0.8124 0.4524,0.4045 0.5246,1.0629 1.5913,1.5506 0.883,0.4036 1.8015,0.4033 2.6823,-0.2558 0.9487,-0.71 1.597,-2.3179 2.5098,-0.9152 0.6044,0.9287 1.3082,1.3005 2.2894,1.308 1.0937,0.0083 1.4776,0.1228 2.3263,-0.8551 1.5818,-1.8222 1.5999,-0.2382 2.6293,0.5105 0.628,0.5841 2.8633,0.4901 3.5407,-0.1348 0.3562,-0.3285 0.7809,-1.1901 1.1007,-1.3962 0.2823,-0.1818 0.5422,0.069 0.7445,0.3028"/>
    <path id="_346949416" class="fil0 str1" d="M118.285 8.6813c0.1337,0.2164 0.7377,0.9142 0.9401,1.1288 0.9121,0.968 2.8646,1.0688 3.7919,0.1451 1.0466,-1.0427 1.4605,-1.37 2.0841,-0.8124 0.4524,0.4046 0.5246,1.0629 1.5913,1.5506 0.883,0.4036 1.8015,0.4033 2.6823,-0.2558 0.9487,-0.71 1.597,-2.3178 2.5098,-0.9152 0.6044,0.9287 1.3083,1.3005 2.2894,1.308 1.0937,0.0082 1.9338,-0.5831 2.7825,-1.561"/>
   </g>
   <line id="_365057936" class="fil0 str2" x1="20.8048" y1="7.2851" x2="91.8991" y2= "74.7389" />
   <line id="_365058296" class="fil0 str2" x1="27.108" y1="7.3428" x2="98.2023" y2= "74.7966" />
   <line id="_365058632" class="fil0 str2" x1="33.7879" y1="7.374" x2="104.882" y2= "74.8278" />
   <line id="_365058968" class="fil0 str2" x1="40.4678" y1="7.4051" x2="111.562" y2= "74.859" />
   <line id="_365059304" class="fil0 str2" x1="46.576" y1="7.5944" x2="117.67" y2= "75.0482" />
   <line id="_365059640" class="fil0 str2" x1="53.4343" y1="7.8004" x2="124.529" y2= "75.2542" />
   <line id="_365059976" class="fil0 str2" x1="59.8424" y1="8.0301" x2="130.937" y2= "75.484" />
   <line id="_365060312" class="fil0 str2" x1="66.3989" y1="8.0638" x2="137.493" y2= "75.5176" />
   <line id="_365060648" class="fil0 str2" x1="72.7278" y1="8.0903" x2="143.822" y2= "75.5442" />
   <line id="_365060984" class="fil0 str2" x1="79.1596" y1="7.9864" x2="150.254" y2= "75.4402" />
   <line id="_365061320" class="fil0 str2" x1="85.817" y1="8.0996" x2="156.911" y2= "75.5535" />
   <line id="_365061656" class="fil0 str2" x1="92.1607" y1="8.2006" x2="163.255" y2= "75.6545" />
   <line id="_365061992" class="fil0 str2" x1="98.7261" y1="8.2116" x2="169.82" y2= "75.6655" />
   <line id="_365062328" class="fil0 str2" x1="105.075" y1="8.4811" x2="176.169" y2= "75.9349" />
   <line id="_365062664" class="fil0 str2" x1="111.695" y1="8.4823" x2="182.789" y2= "75.9362" />
   <line id="_365063000" class="fil0 str2" x1="117.563" y1="8.2167" x2="188.658" y2= "75.6706" />
   <line id="_365063336" class="fil0 str2" x1="123.771" y1="8.2945" x2="194.865" y2= "75.7483" />
   <line id="_365063672" class="fil0 str2" x1="131.181" y1="8.5775" x2="202.275" y2= "76.0314" />
  </g>
 </g>
</svg>
