<?xml version="1.0" encoding="UTF-8"?>
<!DOCTYPE svg PUBLIC "-//W3C//DTD SVG 1.1//EN" "http://www.w3.org/Graphics/SVG/1.1/DTD/svg11.dtd">
<!-- Creator: CorelDRAW -->
<svg xmlns="http://www.w3.org/2000/svg" xml:space="preserve" width="210mm" height="297mm" style="shape-rendering:geometricPrecision; text-rendering:geometricPrecision; image-rendering:optimizeQuality; fill-rule:evenodd; clip-rule:evenodd"
viewBox="0 0 210 297"
 xmlns:xlink="http://www.w3.org/1999/xlink">
 <defs>
  <style type="text/css">
   <![CDATA[
    .str0 {stroke:#333333;stroke-width:0.25}
    .str1 {stroke:#333333;stroke-width:0.5}
    .fil1 {fill:none}
    .fil0 {fill:#9E312B}
    .fil2 {fill:#B83932}
   ]]>
  </style>
 </defs>
 <g id="Слой_x0020_1">
  <metadata id="CorelCorpID_0Corel-Layer"/>
  <polygon class="fil0 str0" points="9.594,29.1773 85.0596,75.1543 206.725,75.9335 134.359,29.6911 "/>
  <line class="fil1 str1" x1="26.7939" y1="39.7416" x2="27.5296" y2= "100.81" />
  <line class="fil1 str1" x1="100.06" y1="75.0997" x2="99.5926" y2= "101.518" />
  <line class="fil1 str1" x1="191.181" y1="75.834" x2="191.485" y2= "102.41" />
  <line class="fil1 str1" x1="2.8634" y1="100.577" x2="201.642" y2= "102.512" />
  <polygon class="fil2 str0" points="9.3377,29.0779 12.1825,30.8111 137.133,31.5275 134.103,29.5917 "/>
  <g id="_197247856">
   <path id="_197247352" class="fil1 str0" d="M79.7756 71.5618c1.2215,-1.0072 1.6326,-1.0991 1.9735,-1.1388 0.1454,-0.017 0.6497,0.0114 1.1311,0.2337 0.6474,0.299 1.7385,1.173 1.7385,1.173 0.721,-0.5967 1.6577,-1.6243 2.7556,-1.3608 0.3518,0.0845 0.5383,0.2209 0.8449,0.4224l1.2384 0.8168c0.3121,-0.2416 0.5705,-0.5796 0.8826,-0.8212 0.2678,-0.2714 0.4983,-0.4379 0.975,-0.4929 0.3286,-0.0036 0.6093,0.0189 0.9858,0.2679 0.4195,0.2767 0.8983,0.6285 1.4519,1.0607 0.175,-0.1428 0.3615,-0.3617 0.5365,-0.5046 0.273,-0.2443 0.5298,-0.4939 0.9474,-0.615 0.2729,-0.0656 0.5857,-0.0965 0.8894,0.0375 0.4696,0.1733 1.3836,0.72 1.8911,1.0715"/>
   <path id="_197248648" class="fil1 str0" d="M97.8836 71.7043c1.2215,-1.0072 1.6326,-1.0991 1.9735,-1.1388 0.1454,-0.017 0.6497,0.0114 1.1311,0.2337 0.6474,0.299 1.7385,1.173 1.7385,1.173 0.721,-0.5967 1.6577,-1.6243 2.7556,-1.3608 0.3518,0.0845 0.5383,0.2209 0.8449,0.4224l1.2384 0.8168c0.3121,-0.2416 0.5705,-0.5796 0.8826,-0.8212 0.2678,-0.2714 0.4983,-0.4379 0.975,-0.4929 0.3286,-0.0036 0.6093,0.0189 0.9858,0.2679 0.4195,0.2767 0.8983,0.6285 1.4519,1.0607 0.175,-0.1428 0.3615,-0.3617 0.5365,-0.5046 0.273,-0.2443 0.5298,-0.4939 0.9474,-0.615 0.2729,-0.0656 0.5857,-0.0965 0.8894,0.0375 0.4696,0.1733 1.3836,0.72 1.8911,1.0715"/>
   <path id="_197247448" class="fil1 str0" d="M115.94 71.9251c1.2215,-1.0072 1.6326,-1.0991 1.9735,-1.1388 0.1454,-0.017 0.6497,0.0114 1.1311,0.2337 0.6474,0.299 1.7385,1.173 1.7385,1.173 0.721,-0.5967 1.6577,-1.6243 2.7556,-1.3608 0.3518,0.0845 0.5383,0.2209 0.8449,0.4224l1.2384 0.8168c0.3121,-0.2416 0.5705,-0.5796 0.8826,-0.8212 0.2678,-0.2714 0.4983,-0.4379 0.975,-0.4929 0.3286,-0.0036 0.6093,0.0189 0.9858,0.2679 0.4195,0.2767 0.8983,0.6285 1.4519,1.0607 0.175,-0.1428 0.3615,-0.3617 0.5365,-0.5046 0.273,-0.2443 0.5298,-0.4939 0.9474,-0.615 0.2729,-0.0656 0.5857,-0.0965 0.8894,0.0375 0.4696,0.1733 1.3836,0.72 1.8911,1.0715"/>
   <path id="_197250208" class="fil1 str0" d="M133.996 72.1459c1.2215,-1.0072 1.6326,-1.0991 1.9735,-1.1388 0.1454,-0.017 0.6497,0.0114 1.1311,0.2337 0.6474,0.299 1.7385,1.173 1.7385,1.173 0.721,-0.5967 1.6577,-1.6243 2.7556,-1.3608 0.3518,0.0845 0.5383,0.2209 0.8449,0.4224l1.2384 0.8168c0.3121,-0.2416 0.5705,-0.5796 0.8826,-0.8212 0.2678,-0.2714 0.4983,-0.4379 0.975,-0.4929 0.3286,-0.0036 0.6093,0.0189 0.9858,0.2679 0.4195,0.2767 0.8983,0.6285 1.4519,1.0607 0.175,-0.1428 0.3615,-0.3617 0.5365,-0.5046 0.273,-0.2443 0.5298,-0.4939 0.9474,-0.615 0.2729,-0.0656 0.5857,-0.0965 0.8894,0.0375 0.4696,0.1733 1.3836,0.72 1.8911,1.0715"/>
   <path id="_197256568" class="fil1 str0" d="M152.053 72.3667c1.2215,-1.0072 1.6326,-1.0991 1.9735,-1.1388 0.1454,-0.017 0.6497,0.0114 1.1311,0.2337 0.6474,0.299 1.7385,1.173 1.7385,1.173 0.721,-0.5967 1.6577,-1.6243 2.7556,-1.3608 0.3518,0.0845 0.5383,0.2209 0.8449,0.4224l1.2384 0.8168c0.3121,-0.2416 0.5705,-0.5796 0.8826,-0.8212 0.2678,-0.2714 0.4983,-0.4379 0.975,-0.4929 0.3286,-0.0036 0.6093,0.0189 0.9858,0.2679 0.4195,0.2767 0.8983,0.6285 1.4519,1.0607 0.175,-0.1428 0.3615,-0.3617 0.5365,-0.5046 0.273,-0.2443 0.5298,-0.4939 0.9474,-0.615 0.2729,-0.0656 0.5857,-0.0965 0.8894,0.0375 0.4696,0.1733 1.3836,0.72 1.8911,1.0715"/>
   <path id="_197256688" class="fil1 str0" d="M170.109 72.5875c1.2215,-1.0072 1.6326,-1.0991 1.9735,-1.1388 0.1454,-0.017 0.6497,0.0114 1.1311,0.2337 0.6474,0.299 1.7385,1.173 1.7385,1.173 0.721,-0.5967 1.6577,-1.6243 2.7556,-1.3608 0.3518,0.0845 0.5383,0.2209 0.8449,0.4224l1.2384 0.8168c0.3121,-0.2416 0.5705,-0.5796 0.8826,-0.8212 0.2678,-0.2714 0.4983,-0.4379 0.975,-0.4929 0.3286,-0.0036 0.6093,0.0189 0.9858,0.2679 0.4195,0.2767 0.8983,0.6285 1.4519,1.0607 0.175,-0.1428 0.3615,-0.3617 0.5365,-0.5046 0.273,-0.2443 0.5298,-0.4939 0.9474,-0.615 0.2729,-0.0656 0.5857,-0.0965 0.8894,0.0375 0.4696,0.1733 1.3836,0.72 1.8911,1.0715"/>
   <path id="_197252128" class="fil1 str0" d="M188.166 72.8083c1.2215,-1.0072 1.6326,-1.0991 1.9735,-1.1388 0.1454,-0.017 0.6497,0.0114 1.1311,0.2337 0.6474,0.299 1.7385,1.173 1.7385,1.173 0.721,-0.5967 1.6577,-1.6243 2.7556,-1.3608 0.3518,0.0845 0.5383,0.2209 0.8449,0.4224l1.2384 0.8168c0.3121,-0.2416 0.5705,-0.5796 0.8826,-0.8212 0.2678,-0.2714 0.4983,-0.4379 0.975,-0.4929 0.3286,-0.0036 0.6093,0.0189 0.9858,0.2679 0.4195,0.2767 0.8983,0.6285 1.4519,1.0607"/>
  </g>
  <g id="_197248192">
   <path id="_197251240" class="fil1 str0" d="M72.9136 67.7458c1.2215,-1.0072 1.6326,-1.0991 1.9735,-1.1388 0.1454,-0.017 0.6497,0.0114 1.1311,0.2337 0.6474,0.299 1.7385,1.173 1.7385,1.173 0.721,-0.5967 1.6577,-1.6243 2.7556,-1.3608 0.3518,0.0845 0.5383,0.2209 0.8449,0.4224l1.2384 0.8168c0.3121,-0.2416 0.5705,-0.5796 0.8826,-0.8212 0.2678,-0.2714 0.4983,-0.4379 0.975,-0.4929 0.3286,-0.0036 0.6093,0.0189 0.9858,0.2679 0.4195,0.2767 0.8983,0.6285 1.4519,1.0607 0.175,-0.1428 0.3615,-0.3617 0.5365,-0.5046 0.273,-0.2443 0.5298,-0.4939 0.9474,-0.615 0.2729,-0.0656 0.5857,-0.0965 0.8894,0.0375 0.4696,0.1733 1.3836,0.72 1.8911,1.0715"/>
   <path id="_197248744" class="fil1 str0" d="M91.0216 67.8883c1.2215,-1.0072 1.6326,-1.0991 1.9735,-1.1388 0.1454,-0.017 0.6497,0.0114 1.1311,0.2337 0.6474,0.299 1.7385,1.173 1.7385,1.173 0.721,-0.5967 1.6577,-1.6243 2.7556,-1.3608 0.3518,0.0845 0.5383,0.2209 0.8449,0.4224l1.2384 0.8168c0.3121,-0.2416 0.5705,-0.5796 0.8826,-0.8212 0.2678,-0.2714 0.4983,-0.4379 0.975,-0.4929 0.3286,-0.0036 0.6093,0.0189 0.9858,0.2679 0.4195,0.2767 0.8983,0.6285 1.4519,1.0607 0.175,-0.1428 0.3615,-0.3617 0.5365,-0.5046 0.273,-0.2443 0.5298,-0.4939 0.9474,-0.615 0.2729,-0.0656 0.5857,-0.0965 0.8894,0.0375 0.4696,0.1733 1.3836,0.72 1.8911,1.0715"/>
   <path id="_197247472" class="fil1 str0" d="M109.078 68.1091c1.2215,-1.0072 1.6326,-1.0991 1.9735,-1.1388 0.1454,-0.017 0.6497,0.0114 1.1311,0.2337 0.6474,0.299 1.7385,1.173 1.7385,1.173 0.721,-0.5967 1.6577,-1.6243 2.7556,-1.3608 0.3518,0.0845 0.5383,0.2209 0.8449,0.4224l1.2384 0.8168c0.3121,-0.2416 0.5705,-0.5796 0.8826,-0.8212 0.2678,-0.2714 0.4983,-0.4379 0.975,-0.4929 0.3286,-0.0036 0.6093,0.0189 0.9858,0.2679 0.4195,0.2767 0.8983,0.6285 1.4519,1.0607 0.175,-0.1428 0.3615,-0.3617 0.5365,-0.5046 0.273,-0.2443 0.5298,-0.4939 0.9474,-0.615 0.2729,-0.0656 0.5857,-0.0965 0.8894,0.0375 0.4696,0.1733 1.3836,0.72 1.8911,1.0715"/>
   <path id="_197249104" class="fil1 str0" d="M127.134 68.3299c1.2215,-1.0072 1.6326,-1.0991 1.9735,-1.1388 0.1454,-0.017 0.6497,0.0114 1.1311,0.2337 0.6474,0.299 1.7385,1.173 1.7385,1.173 0.721,-0.5967 1.6577,-1.6243 2.7556,-1.3608 0.3518,0.0845 0.5383,0.2209 0.8449,0.4224l1.2384 0.8168c0.3121,-0.2416 0.5705,-0.5796 0.8826,-0.8212 0.2678,-0.2714 0.4983,-0.4379 0.975,-0.4929 0.3286,-0.0036 0.6093,0.0189 0.9858,0.2679 0.4195,0.2767 0.8983,0.6285 1.4519,1.0607 0.175,-0.1428 0.3615,-0.3617 0.5365,-0.5046 0.273,-0.2443 0.5298,-0.4939 0.9474,-0.615 0.2729,-0.0656 0.5857,-0.0965 0.8894,0.0375 0.4696,0.1733 1.3836,0.72 1.8911,1.0715"/>
   <path id="_194944632" class="fil1 str0" d="M145.191 68.5507c1.2215,-1.0072 1.6326,-1.0991 1.9735,-1.1388 0.1454,-0.017 0.6497,0.0114 1.1311,0.2337 0.6474,0.299 1.7385,1.173 1.7385,1.173 0.721,-0.5967 1.6577,-1.6243 2.7556,-1.3608 0.3518,0.0845 0.5383,0.2209 0.8449,0.4224l1.2384 0.8168c0.3121,-0.2416 0.5705,-0.5796 0.8826,-0.8212 0.2678,-0.2714 0.4983,-0.4379 0.975,-0.4929 0.3286,-0.0036 0.6093,0.0189 0.9858,0.2679 0.4195,0.2767 0.8983,0.6285 1.4519,1.0607 0.175,-0.1428 0.3615,-0.3617 0.5365,-0.5046 0.273,-0.2443 0.5298,-0.4939 0.9474,-0.615 0.2729,-0.0656 0.5857,-0.0965 0.8894,0.0375 0.4696,0.1733 1.3836,0.72 1.8911,1.0715"/>
   <path id="_194950776" class="fil1 str0" d="M163.247 68.7715c1.2215,-1.0072 1.6326,-1.0991 1.9735,-1.1388 0.1454,-0.017 0.6497,0.0114 1.1311,0.2337 0.6474,0.299 1.7385,1.173 1.7385,1.173 0.721,-0.5967 1.6577,-1.6243 2.7556,-1.3608 0.3518,0.0845 0.5383,0.2209 0.8449,0.4224l1.2384 0.8168c0.3121,-0.2416 0.5705,-0.5796 0.8826,-0.8212 0.2678,-0.2714 0.4983,-0.4379 0.975,-0.4929 0.3286,-0.0036 0.6093,0.0189 0.9858,0.2679 0.4195,0.2767 0.8983,0.6285 1.4519,1.0607 0.175,-0.1428 0.3615,-0.3617 0.5365,-0.5046 0.273,-0.2443 0.5298,-0.4939 0.9474,-0.615 0.2729,-0.0656 0.5857,-0.0965 0.8894,0.0375 0.4696,0.1733 1.3836,0.72 1.8911,1.0715"/>
   <path id="_194951160" class="fil1 str0" d="M181.304 68.9923c1.2215,-1.0072 1.6326,-1.0991 1.9735,-1.1388 0.1454,-0.017 0.6497,0.0114 1.1311,0.2337 0.6474,0.299 1.7385,1.173 1.7385,1.173 0.721,-0.5967 1.6577,-1.6243 2.7556,-1.3608 0.3518,0.0845 0.5383,0.2209 0.8449,0.4224l1.2384 0.8168c0.3121,-0.2416 0.5705,-0.5796 0.8826,-0.8212 0.2678,-0.2714 0.4983,-0.4379 0.975,-0.4929 0.3286,-0.0036 0.6093,0.0189 0.9858,0.2679 0.4195,0.2767 0.8983,0.6285 1.4519,1.0607"/>
  </g>
  <g id="_197248120">
   <path id="_197247208" class="fil1 str0" d="M66.4361 63.8433c1.2215,-1.0072 1.6326,-1.0991 1.9735,-1.1388 0.1454,-0.017 0.6497,0.0114 1.1311,0.2337 0.6474,0.299 1.7385,1.173 1.7385,1.173 0.721,-0.5967 1.6577,-1.6243 2.7556,-1.3608 0.3518,0.0845 0.5383,0.2209 0.8449,0.4224l1.2384 0.8168c0.3121,-0.2416 0.5705,-0.5796 0.8826,-0.8212 0.2678,-0.2714 0.4983,-0.4379 0.975,-0.4929 0.3286,-0.0036 0.6093,0.0189 0.9858,0.2679 0.4195,0.2767 0.8983,0.6285 1.4519,1.0607 0.175,-0.1428 0.3615,-0.3617 0.5365,-0.5046 0.273,-0.2443 0.5298,-0.4939 0.9474,-0.615 0.2729,-0.0656 0.5857,-0.0965 0.8894,0.0375 0.4696,0.1733 1.3836,0.72 1.8911,1.0715"/>
   <path id="_197257168" class="fil1 str0" d="M84.5441 63.9858c1.2215,-1.0072 1.6326,-1.0991 1.9735,-1.1388 0.1454,-0.017 0.6497,0.0114 1.1311,0.2337 0.6474,0.299 1.7385,1.173 1.7385,1.173 0.721,-0.5967 1.6577,-1.6243 2.7556,-1.3608 0.3518,0.0845 0.5383,0.2209 0.8449,0.4224l1.2384 0.8168c0.3121,-0.2416 0.5705,-0.5796 0.8826,-0.8212 0.2678,-0.2714 0.4983,-0.4379 0.975,-0.4929 0.3286,-0.0036 0.6093,0.0189 0.9858,0.2679 0.4195,0.2767 0.8983,0.6285 1.4519,1.0607 0.175,-0.1428 0.3615,-0.3617 0.5365,-0.5046 0.273,-0.2443 0.5298,-0.4939 0.9474,-0.615 0.2729,-0.0656 0.5857,-0.0965 0.8894,0.0375 0.4696,0.1733 1.3836,0.72 1.8911,1.0715"/>
   <path id="_194951352" class="fil1 str0" d="M102.601 64.2066c1.2215,-1.0072 1.6326,-1.0991 1.9735,-1.1388 0.1454,-0.017 0.6497,0.0114 1.1311,0.2337 0.6474,0.299 1.7385,1.173 1.7385,1.173 0.721,-0.5967 1.6577,-1.6243 2.7556,-1.3608 0.3518,0.0845 0.5383,0.2209 0.8449,0.4224l1.2384 0.8168c0.3121,-0.2416 0.5705,-0.5796 0.8826,-0.8212 0.2678,-0.2714 0.4983,-0.4379 0.975,-0.4929 0.3286,-0.0036 0.6093,0.0189 0.9858,0.2679 0.4195,0.2767 0.8983,0.6285 1.4519,1.0607 0.175,-0.1428 0.3615,-0.3617 0.5365,-0.5046 0.273,-0.2443 0.5298,-0.4939 0.9474,-0.615 0.2729,-0.0656 0.5857,-0.0965 0.8894,0.0375 0.4696,0.1733 1.3836,0.72 1.8911,1.0715"/>
   <path id="_195127048" class="fil1 str0" d="M120.657 64.4274c1.2215,-1.0072 1.6326,-1.0991 1.9735,-1.1388 0.1454,-0.017 0.6497,0.0114 1.1311,0.2337 0.6474,0.299 1.7385,1.173 1.7385,1.173 0.721,-0.5967 1.6577,-1.6243 2.7556,-1.3608 0.3518,0.0845 0.5383,0.2209 0.8449,0.4224l1.2384 0.8168c0.3121,-0.2416 0.5705,-0.5796 0.8826,-0.8212 0.2678,-0.2714 0.4983,-0.4379 0.975,-0.4929 0.3286,-0.0036 0.6093,0.0189 0.9858,0.2679 0.4195,0.2767 0.8983,0.6285 1.4519,1.0607 0.175,-0.1428 0.3615,-0.3617 0.5365,-0.5046 0.273,-0.2443 0.5298,-0.4939 0.9474,-0.615 0.2729,-0.0656 0.5857,-0.0965 0.8894,0.0375 0.4696,0.1733 1.3836,0.72 1.8911,1.0715"/>
   <path id="_195127240" class="fil1 str0" d="M138.713 64.6482c1.2215,-1.0072 1.6326,-1.0991 1.9735,-1.1388 0.1454,-0.017 0.6497,0.0114 1.1311,0.2337 0.6474,0.299 1.7385,1.173 1.7385,1.173 0.721,-0.5967 1.6577,-1.6243 2.7556,-1.3608 0.3518,0.0845 0.5383,0.2209 0.8449,0.4224l1.2384 0.8168c0.3121,-0.2416 0.5705,-0.5796 0.8826,-0.8212 0.2678,-0.2714 0.4983,-0.4379 0.975,-0.4929 0.3286,-0.0036 0.6093,0.0189 0.9858,0.2679 0.4195,0.2767 0.8983,0.6285 1.4519,1.0607 0.175,-0.1428 0.3615,-0.3617 0.5365,-0.5046 0.273,-0.2443 0.5298,-0.4939 0.9474,-0.615 0.2729,-0.0656 0.5857,-0.0965 0.8894,0.0375 0.4696,0.1733 1.3836,0.72 1.8911,1.0715"/>
   <path id="_195127432" class="fil1 str0" d="M156.77 64.869c1.2215,-1.0072 1.6326,-1.0991 1.9735,-1.1388 0.1454,-0.017 0.6497,0.0114 1.1311,0.2337 0.6474,0.299 1.7385,1.173 1.7385,1.173 0.721,-0.5967 1.6577,-1.6243 2.7556,-1.3608 0.3518,0.0845 0.5383,0.2209 0.8449,0.4224l1.2384 0.8168c0.3121,-0.2416 0.5705,-0.5796 0.8826,-0.8212 0.2678,-0.2714 0.4983,-0.4379 0.975,-0.4929 0.3286,-0.0036 0.6093,0.0189 0.9858,0.2679 0.4195,0.2767 0.8983,0.6285 1.4519,1.0607 0.175,-0.1428 0.3615,-0.3617 0.5365,-0.5046 0.273,-0.2443 0.5298,-0.4939 0.9474,-0.615 0.2729,-0.0656 0.5857,-0.0965 0.8894,0.0375 0.4696,0.1733 1.3836,0.72 1.8911,1.0715"/>
   <path id="_195128008" class="fil1 str0" d="M174.826 65.0898c1.2215,-1.0072 1.6326,-1.0991 1.9735,-1.1388 0.1454,-0.017 0.6497,0.0114 1.1311,0.2337 0.6474,0.299 1.7385,1.173 1.7385,1.173 0.721,-0.5967 1.6577,-1.6243 2.7556,-1.3608 0.3518,0.0845 0.5383,0.2209 0.8449,0.4224l1.2384 0.8168c0.3121,-0.2416 0.5705,-0.5796 0.8826,-0.8212 0.2678,-0.2714 0.4983,-0.4379 0.975,-0.4929 0.3286,-0.0036 0.6093,0.0189 0.9858,0.2679 0.4195,0.2767 0.8983,0.6285 1.4519,1.0607"/>
  </g>
  <g id="_197257072">
   <path id="_195130696" class="fil1 str0" d="M59.8147 59.8555c1.2215,-1.0072 1.6326,-1.0991 1.9735,-1.1388 0.1454,-0.017 0.6497,0.0114 1.1311,0.2337 0.6474,0.299 1.7385,1.173 1.7385,1.173 0.721,-0.5967 1.6577,-1.6243 2.7556,-1.3608 0.3518,0.0845 0.5383,0.2209 0.8449,0.4224l1.2384 0.8168c0.3121,-0.2416 0.5705,-0.5796 0.8826,-0.8212 0.2678,-0.2714 0.4983,-0.4379 0.975,-0.4929 0.3286,-0.0036 0.6093,0.0189 0.9858,0.2679 0.4195,0.2767 0.8983,0.6285 1.4519,1.0607 0.175,-0.1428 0.3615,-0.3617 0.5365,-0.5046 0.273,-0.2443 0.5298,-0.4939 0.9474,-0.615 0.2729,-0.0656 0.5857,-0.0965 0.8894,0.0375 0.4696,0.1733 1.3836,0.72 1.8911,1.0715"/>
   <path id="_195130888" class="fil1 str0" d="M77.9227 59.998c1.2215,-1.0072 1.6326,-1.0991 1.9735,-1.1388 0.1454,-0.017 0.6497,0.0114 1.1311,0.2337 0.6474,0.299 1.7385,1.173 1.7385,1.173 0.721,-0.5967 1.6577,-1.6243 2.7556,-1.3608 0.3518,0.0845 0.5383,0.2209 0.8449,0.4224l1.2384 0.8168c0.3121,-0.2416 0.5705,-0.5796 0.8826,-0.8212 0.2678,-0.2714 0.4983,-0.4379 0.975,-0.4929 0.3286,-0.0036 0.6093,0.0189 0.9858,0.2679 0.4195,0.2767 0.8983,0.6285 1.4519,1.0607 0.175,-0.1428 0.3615,-0.3617 0.5365,-0.5046 0.273,-0.2443 0.5298,-0.4939 0.9474,-0.615 0.2729,-0.0656 0.5857,-0.0965 0.8894,0.0375 0.4696,0.1733 1.3836,0.72 1.8911,1.0715"/>
   <path id="_195131080" class="fil1 str0" d="M95.9791 60.2188c1.2215,-1.0072 1.6326,-1.0991 1.9735,-1.1388 0.1454,-0.017 0.6497,0.0114 1.1311,0.2337 0.6474,0.299 1.7385,1.173 1.7385,1.173 0.721,-0.5967 1.6577,-1.6243 2.7556,-1.3608 0.3518,0.0845 0.5383,0.2209 0.8449,0.4224l1.2384 0.8168c0.3121,-0.2416 0.5705,-0.5796 0.8826,-0.8212 0.2678,-0.2714 0.4983,-0.4379 0.975,-0.4929 0.3286,-0.0036 0.6093,0.0189 0.9858,0.2679 0.4195,0.2767 0.8983,0.6285 1.4519,1.0607 0.175,-0.1428 0.3615,-0.3617 0.5365,-0.5046 0.273,-0.2443 0.5298,-0.4939 0.9474,-0.615 0.2729,-0.0656 0.5857,-0.0965 0.8894,0.0375 0.4696,0.1733 1.3836,0.72 1.8911,1.0715"/>
   <path id="_195131272" class="fil1 str0" d="M114.036 60.4396c1.2215,-1.0072 1.6326,-1.0991 1.9735,-1.1388 0.1454,-0.017 0.6497,0.0114 1.1311,0.2337 0.6474,0.299 1.7385,1.173 1.7385,1.173 0.721,-0.5967 1.6577,-1.6243 2.7556,-1.3608 0.3518,0.0845 0.5383,0.2209 0.8449,0.4224l1.2384 0.8168c0.3121,-0.2416 0.5705,-0.5796 0.8826,-0.8212 0.2678,-0.2714 0.4983,-0.4379 0.975,-0.4929 0.3286,-0.0036 0.6093,0.0189 0.9858,0.2679 0.4195,0.2767 0.8983,0.6285 1.4519,1.0607 0.175,-0.1428 0.3615,-0.3617 0.5365,-0.5046 0.273,-0.2443 0.5298,-0.4939 0.9474,-0.615 0.2729,-0.0656 0.5857,-0.0965 0.8894,0.0375 0.4696,0.1733 1.3836,0.72 1.8911,1.0715"/>
   <path id="_195131464" class="fil1 str0" d="M132.092 60.6604c1.2215,-1.0072 1.6326,-1.0991 1.9735,-1.1388 0.1454,-0.017 0.6497,0.0114 1.1311,0.2337 0.6474,0.299 1.7385,1.173 1.7385,1.173 0.721,-0.5967 1.6577,-1.6243 2.7556,-1.3608 0.3518,0.0845 0.5383,0.2209 0.8449,0.4224l1.2384 0.8168c0.3121,-0.2416 0.5705,-0.5796 0.8826,-0.8212 0.2678,-0.2714 0.4983,-0.4379 0.975,-0.4929 0.3286,-0.0036 0.6093,0.0189 0.9858,0.2679 0.4195,0.2767 0.8983,0.6285 1.4519,1.0607 0.175,-0.1428 0.3615,-0.3617 0.5365,-0.5046 0.273,-0.2443 0.5298,-0.4939 0.9474,-0.615 0.2729,-0.0656 0.5857,-0.0965 0.8894,0.0375 0.4696,0.1733 1.3836,0.72 1.8911,1.0715"/>
   <path id="_195131656" class="fil1 str0" d="M150.148 60.8812c1.2215,-1.0072 1.6326,-1.0991 1.9735,-1.1388 0.1454,-0.017 0.6497,0.0114 1.1311,0.2337 0.6474,0.299 1.7385,1.173 1.7385,1.173 0.721,-0.5967 1.6577,-1.6243 2.7556,-1.3608 0.3518,0.0845 0.5383,0.2209 0.8449,0.4224l1.2384 0.8168c0.3121,-0.2416 0.5705,-0.5796 0.8826,-0.8212 0.2678,-0.2714 0.4983,-0.4379 0.975,-0.4929 0.3286,-0.0036 0.6093,0.0189 0.9858,0.2679 0.4195,0.2767 0.8983,0.6285 1.4519,1.0607 0.175,-0.1428 0.3615,-0.3617 0.5365,-0.5046 0.273,-0.2443 0.5298,-0.4939 0.9474,-0.615 0.2729,-0.0656 0.5857,-0.0965 0.8894,0.0375 0.4696,0.1733 1.3836,0.72 1.8911,1.0715"/>
   <path id="_195131848" class="fil1 str0" d="M168.205 61.102c1.2215,-1.0072 1.6326,-1.0991 1.9735,-1.1388 0.1454,-0.017 0.6497,0.0114 1.1311,0.2337 0.6474,0.299 1.7385,1.173 1.7385,1.173 0.721,-0.5967 1.6577,-1.6243 2.7556,-1.3608 0.3518,0.0845 0.5383,0.2209 0.8449,0.4224l1.2384 0.8168c0.3121,-0.2416 0.5705,-0.5796 0.8826,-0.8212 0.2678,-0.2714 0.4983,-0.4379 0.975,-0.4929 0.3286,-0.0036 0.6093,0.0189 0.9858,0.2679 0.4195,0.2767 0.8983,0.6285 1.4519,1.0607"/>
  </g>
  <g id="_195130504">
   <path id="_195132232" class="fil1 str0" d="M53.4652 56.0013c1.2215,-1.0072 1.6326,-1.0991 1.9735,-1.1388 0.1454,-0.017 0.6497,0.0114 1.1311,0.2337 0.6474,0.299 1.7385,1.173 1.7385,1.173 0.721,-0.5967 1.6577,-1.6243 2.7556,-1.3608 0.3518,0.0845 0.5383,0.2209 0.8449,0.4224l1.2384 0.8168c0.3121,-0.2416 0.5705,-0.5796 0.8826,-0.8212 0.2678,-0.2714 0.4983,-0.4379 0.975,-0.4929 0.3286,-0.0036 0.6093,0.0189 0.9858,0.2679 0.4195,0.2767 0.8983,0.6285 1.4519,1.0607 0.175,-0.1428 0.3615,-0.3617 0.5365,-0.5046 0.273,-0.2443 0.5298,-0.4939 0.9474,-0.615 0.2729,-0.0656 0.5857,-0.0965 0.8894,0.0375 0.4696,0.1733 1.3836,0.72 1.8911,1.0715"/>
   <path id="_195132424" class="fil1 str0" d="M71.5732 56.1438c1.2215,-1.0072 1.6326,-1.0991 1.9735,-1.1388 0.1454,-0.017 0.6497,0.0114 1.1311,0.2337 0.6474,0.299 1.7385,1.173 1.7385,1.173 0.721,-0.5967 1.6577,-1.6243 2.7556,-1.3608 0.3518,0.0845 0.5383,0.2209 0.8449,0.4224l1.2384 0.8168c0.3121,-0.2416 0.5705,-0.5796 0.8826,-0.8212 0.2678,-0.2714 0.4983,-0.4379 0.975,-0.4929 0.3286,-0.0036 0.6093,0.0189 0.9858,0.2679 0.4195,0.2767 0.8983,0.6285 1.4519,1.0607 0.175,-0.1428 0.3615,-0.3617 0.5365,-0.5046 0.273,-0.2443 0.5298,-0.4939 0.9474,-0.615 0.2729,-0.0656 0.5857,-0.0965 0.8894,0.0375 0.4696,0.1733 1.3836,0.72 1.8911,1.0715"/>
   <path id="_195132616" class="fil1 str0" d="M89.6296 56.3646c1.2215,-1.0072 1.6326,-1.0991 1.9735,-1.1388 0.1454,-0.017 0.6497,0.0114 1.1311,0.2337 0.6474,0.299 1.7385,1.173 1.7385,1.173 0.721,-0.5967 1.6577,-1.6243 2.7556,-1.3608 0.3518,0.0845 0.5383,0.2209 0.8449,0.4224l1.2384 0.8168c0.3121,-0.2416 0.5705,-0.5796 0.8826,-0.8212 0.2678,-0.2714 0.4983,-0.4379 0.975,-0.4929 0.3286,-0.0036 0.6093,0.0189 0.9858,0.2679 0.4195,0.2767 0.8983,0.6285 1.4519,1.0607 0.175,-0.1428 0.3615,-0.3617 0.5365,-0.5046 0.273,-0.2443 0.5298,-0.4939 0.9474,-0.615 0.2729,-0.0656 0.5857,-0.0965 0.8894,0.0375 0.4696,0.1733 1.3836,0.72 1.8911,1.0715"/>
   <path id="_195132808" class="fil1 str0" d="M107.686 56.5854c1.2215,-1.0072 1.6326,-1.0991 1.9735,-1.1388 0.1454,-0.017 0.6497,0.0114 1.1311,0.2337 0.6474,0.299 1.7385,1.173 1.7385,1.173 0.721,-0.5967 1.6577,-1.6243 2.7556,-1.3608 0.3518,0.0845 0.5383,0.2209 0.8449,0.4224l1.2384 0.8168c0.3121,-0.2416 0.5705,-0.5796 0.8826,-0.8212 0.2678,-0.2714 0.4983,-0.4379 0.975,-0.4929 0.3286,-0.0036 0.6093,0.0189 0.9858,0.2679 0.4195,0.2767 0.8983,0.6285 1.4519,1.0607 0.175,-0.1428 0.3615,-0.3617 0.5365,-0.5046 0.273,-0.2443 0.5298,-0.4939 0.9474,-0.615 0.2729,-0.0656 0.5857,-0.0965 0.8894,0.0375 0.4696,0.1733 1.3836,0.72 1.8911,1.0715"/>
   <path id="_194941176" class="fil1 str0" d="M125.742 56.8062c1.2215,-1.0072 1.6326,-1.0991 1.9735,-1.1388 0.1454,-0.017 0.6497,0.0114 1.1311,0.2337 0.6474,0.299 1.7385,1.173 1.7385,1.173 0.721,-0.5967 1.6577,-1.6243 2.7556,-1.3608 0.3518,0.0845 0.5383,0.2209 0.8449,0.4224l1.2384 0.8168c0.3121,-0.2416 0.5705,-0.5796 0.8826,-0.8212 0.2678,-0.2714 0.4983,-0.4379 0.975,-0.4929 0.3286,-0.0036 0.6093,0.0189 0.9858,0.2679 0.4195,0.2767 0.8983,0.6285 1.4519,1.0607 0.175,-0.1428 0.3615,-0.3617 0.5365,-0.5046 0.273,-0.2443 0.5298,-0.4939 0.9474,-0.615 0.2729,-0.0656 0.5857,-0.0965 0.8894,0.0375 0.4696,0.1733 1.3836,0.72 1.8911,1.0715"/>
   <path id="_194941368" class="fil1 str0" d="M143.799 57.027c1.2215,-1.0072 1.6326,-1.0991 1.9735,-1.1388 0.1454,-0.017 0.6497,0.0114 1.1311,0.2337 0.6474,0.299 1.7385,1.173 1.7385,1.173 0.721,-0.5967 1.6577,-1.6243 2.7556,-1.3608 0.3518,0.0845 0.5383,0.2209 0.8449,0.4224l1.2384 0.8168c0.3121,-0.2416 0.5705,-0.5796 0.8826,-0.8212 0.2678,-0.2714 0.4983,-0.4379 0.975,-0.4929 0.3286,-0.0036 0.6093,0.0189 0.9858,0.2679 0.4195,0.2767 0.8983,0.6285 1.4519,1.0607 0.175,-0.1428 0.3615,-0.3617 0.5365,-0.5046 0.273,-0.2443 0.5298,-0.4939 0.9474,-0.615 0.2729,-0.0656 0.5857,-0.0965 0.8894,0.0375 0.4696,0.1733 1.3836,0.72 1.8911,1.0715"/>
   <path id="_194941944" class="fil1 str0" d="M161.855 57.2478c1.2215,-1.0072 1.6326,-1.0991 1.9735,-1.1388 0.1454,-0.017 0.6497,0.0114 1.1311,0.2337 0.6474,0.299 1.7385,1.173 1.7385,1.173 0.721,-0.5967 1.6577,-1.6243 2.7556,-1.3608 0.3518,0.0845 0.5383,0.2209 0.8449,0.4224l1.2384 0.8168c0.3121,-0.2416 0.5705,-0.5796 0.8826,-0.8212 0.2678,-0.2714 0.4983,-0.4379 0.975,-0.4929 0.3286,-0.0036 0.6093,0.0189 0.9858,0.2679 0.4195,0.2767 0.8983,0.6285 1.4519,1.0607"/>
  </g>
  <g id="_195132040">
   <path id="_194942328" class="fil1 str0" d="M46.6692 51.8915c1.2215,-1.0072 1.6326,-1.0991 1.9735,-1.1388 0.1454,-0.017 0.6497,0.0114 1.1311,0.2337 0.6474,0.299 1.7385,1.173 1.7385,1.173 0.721,-0.5967 1.6577,-1.6243 2.7556,-1.3608 0.3518,0.0845 0.5383,0.2209 0.8449,0.4224l1.2384 0.8168c0.3121,-0.2416 0.5705,-0.5796 0.8826,-0.8212 0.2678,-0.2714 0.4983,-0.4379 0.975,-0.4929 0.3286,-0.0036 0.6093,0.0189 0.9858,0.2679 0.4195,0.2767 0.8983,0.6285 1.4519,1.0607 0.175,-0.1428 0.3615,-0.3617 0.5365,-0.5046 0.273,-0.2443 0.5298,-0.4939 0.9474,-0.615 0.2729,-0.0656 0.5857,-0.0965 0.8894,0.0375 0.4696,0.1733 1.3836,0.72 1.8911,1.0715"/>
   <path id="_194945784" class="fil1 str0" d="M64.7772 52.034c1.2215,-1.0072 1.6326,-1.0991 1.9735,-1.1388 0.1454,-0.017 0.6497,0.0114 1.1311,0.2337 0.6474,0.299 1.7385,1.173 1.7385,1.173 0.721,-0.5967 1.6577,-1.6243 2.7556,-1.3608 0.3518,0.0845 0.5383,0.2209 0.8449,0.4224l1.2384 0.8168c0.3121,-0.2416 0.5705,-0.5796 0.8826,-0.8212 0.2678,-0.2714 0.4983,-0.4379 0.975,-0.4929 0.3286,-0.0036 0.6093,0.0189 0.9858,0.2679 0.4195,0.2767 0.8983,0.6285 1.4519,1.0607 0.175,-0.1428 0.3615,-0.3617 0.5365,-0.5046 0.273,-0.2443 0.5298,-0.4939 0.9474,-0.615 0.2729,-0.0656 0.5857,-0.0965 0.8894,0.0375 0.4696,0.1733 1.3836,0.72 1.8911,1.0715"/>
   <path id="_194945976" class="fil1 str0" d="M82.8336 52.2548c1.2215,-1.0072 1.6326,-1.0991 1.9735,-1.1388 0.1454,-0.017 0.6497,0.0114 1.1311,0.2337 0.6474,0.299 1.7385,1.173 1.7385,1.173 0.721,-0.5967 1.6577,-1.6243 2.7556,-1.3608 0.3518,0.0845 0.5383,0.2209 0.8449,0.4224l1.2384 0.8168c0.3121,-0.2416 0.5705,-0.5796 0.8826,-0.8212 0.2678,-0.2714 0.4983,-0.4379 0.975,-0.4929 0.3286,-0.0036 0.6093,0.0189 0.9858,0.2679 0.4195,0.2767 0.8983,0.6285 1.4519,1.0607 0.175,-0.1428 0.3615,-0.3617 0.5365,-0.5046 0.273,-0.2443 0.5298,-0.4939 0.9474,-0.615 0.2729,-0.0656 0.5857,-0.0965 0.8894,0.0375 0.4696,0.1733 1.3836,0.72 1.8911,1.0715"/>
   <path id="_194946168" class="fil1 str0" d="M100.89 52.4756c1.2215,-1.0072 1.6326,-1.0991 1.9735,-1.1388 0.1454,-0.017 0.6497,0.0114 1.1311,0.2337 0.6474,0.299 1.7385,1.173 1.7385,1.173 0.721,-0.5967 1.6577,-1.6243 2.7556,-1.3608 0.3518,0.0845 0.5383,0.2209 0.8449,0.4224l1.2384 0.8168c0.3121,-0.2416 0.5705,-0.5796 0.8826,-0.8212 0.2678,-0.2714 0.4983,-0.4379 0.975,-0.4929 0.3286,-0.0036 0.6093,0.0189 0.9858,0.2679 0.4195,0.2767 0.8983,0.6285 1.4519,1.0607 0.175,-0.1428 0.3615,-0.3617 0.5365,-0.5046 0.273,-0.2443 0.5298,-0.4939 0.9474,-0.615 0.2729,-0.0656 0.5857,-0.0965 0.8894,0.0375 0.4696,0.1733 1.3836,0.72 1.8911,1.0715"/>
   <path id="_194946360" class="fil1 str0" d="M118.946 52.6964c1.2215,-1.0072 1.6326,-1.0991 1.9735,-1.1388 0.1454,-0.017 0.6497,0.0114 1.1311,0.2337 0.6474,0.299 1.7385,1.173 1.7385,1.173 0.721,-0.5967 1.6577,-1.6243 2.7556,-1.3608 0.3518,0.0845 0.5383,0.2209 0.8449,0.4224l1.2384 0.8168c0.3121,-0.2416 0.5705,-0.5796 0.8826,-0.8212 0.2678,-0.2714 0.4983,-0.4379 0.975,-0.4929 0.3286,-0.0036 0.6093,0.0189 0.9858,0.2679 0.4195,0.2767 0.8983,0.6285 1.4519,1.0607 0.175,-0.1428 0.3615,-0.3617 0.5365,-0.5046 0.273,-0.2443 0.5298,-0.4939 0.9474,-0.615 0.2729,-0.0656 0.5857,-0.0965 0.8894,0.0375 0.4696,0.1733 1.3836,0.72 1.8911,1.0715"/>
   <path id="_194946552" class="fil1 str0" d="M137.003 52.9172c1.2215,-1.0072 1.6326,-1.0991 1.9735,-1.1388 0.1454,-0.017 0.6497,0.0114 1.1311,0.2337 0.6474,0.299 1.7385,1.173 1.7385,1.173 0.721,-0.5967 1.6577,-1.6243 2.7556,-1.3608 0.3518,0.0845 0.5383,0.2209 0.8449,0.4224l1.2384 0.8168c0.3121,-0.2416 0.5705,-0.5796 0.8826,-0.8212 0.2678,-0.2714 0.4983,-0.4379 0.975,-0.4929 0.3286,-0.0036 0.6093,0.0189 0.9858,0.2679 0.4195,0.2767 0.8983,0.6285 1.4519,1.0607 0.175,-0.1428 0.3615,-0.3617 0.5365,-0.5046 0.273,-0.2443 0.5298,-0.4939 0.9474,-0.615 0.2729,-0.0656 0.5857,-0.0965 0.8894,0.0375 0.4696,0.1733 1.3836,0.72 1.8911,1.0715"/>
   <path id="_194946744" class="fil1 str0" d="M155.059 53.138c1.2215,-1.0072 1.6326,-1.0991 1.9735,-1.1388 0.1454,-0.017 0.6497,0.0114 1.1311,0.2337 0.6474,0.299 1.7385,1.173 1.7385,1.173 0.721,-0.5967 1.6577,-1.6243 2.7556,-1.3608 0.3518,0.0845 0.5383,0.2209 0.8449,0.4224l1.2384 0.8168c0.3121,-0.2416 0.5705,-0.5796 0.8826,-0.8212 0.2678,-0.2714 0.4983,-0.4379 0.975,-0.4929 0.3286,-0.0036 0.6093,0.0189 0.9858,0.2679 0.4195,0.2767 0.8983,0.6285 1.4519,1.0607"/>
  </g>
  <g id="_194942136">
   <path id="_194947896" class="fil1 str0" d="M40.4652 48.0638c1.2215,-1.0072 1.6326,-1.0991 1.9735,-1.1388 0.1454,-0.017 0.6497,0.0114 1.1311,0.2337 0.6474,0.299 1.7385,1.173 1.7385,1.173 0.721,-0.5967 1.6577,-1.6243 2.7556,-1.3608 0.3518,0.0845 0.5383,0.2209 0.8449,0.4224l1.2384 0.8168c0.3121,-0.2416 0.5705,-0.5796 0.8826,-0.8212 0.2678,-0.2714 0.4983,-0.4379 0.975,-0.4929 0.3286,-0.0036 0.6093,0.0189 0.9858,0.2679 0.4195,0.2767 0.8983,0.6285 1.4519,1.0607 0.175,-0.1428 0.3615,-0.3617 0.5365,-0.5046 0.273,-0.2443 0.5298,-0.4939 0.9474,-0.615 0.2729,-0.0656 0.5857,-0.0965 0.8894,0.0375 0.4696,0.1733 1.3836,0.72 1.8911,1.0715"/>
   <path id="_194948088" class="fil1 str0" d="M58.5732 48.2063c1.2215,-1.0072 1.6326,-1.0991 1.9735,-1.1388 0.1454,-0.017 0.6497,0.0114 1.1311,0.2337 0.6474,0.299 1.7385,1.173 1.7385,1.173 0.721,-0.5967 1.6577,-1.6243 2.7556,-1.3608 0.3518,0.0845 0.5383,0.2209 0.8449,0.4224l1.2384 0.8168c0.3121,-0.2416 0.5705,-0.5796 0.8826,-0.8212 0.2678,-0.2714 0.4983,-0.4379 0.975,-0.4929 0.3286,-0.0036 0.6093,0.0189 0.9858,0.2679 0.4195,0.2767 0.8983,0.6285 1.4519,1.0607 0.175,-0.1428 0.3615,-0.3617 0.5365,-0.5046 0.273,-0.2443 0.5298,-0.4939 0.9474,-0.615 0.2729,-0.0656 0.5857,-0.0965 0.8894,0.0375 0.4696,0.1733 1.3836,0.72 1.8911,1.0715"/>
   <path id="_194948280" class="fil1 str0" d="M76.6296 48.4271c1.2215,-1.0072 1.6326,-1.0991 1.9735,-1.1388 0.1454,-0.017 0.6497,0.0114 1.1311,0.2337 0.6474,0.299 1.7385,1.173 1.7385,1.173 0.721,-0.5967 1.6577,-1.6243 2.7556,-1.3608 0.3518,0.0845 0.5383,0.2209 0.8449,0.4224l1.2384 0.8168c0.3121,-0.2416 0.5705,-0.5796 0.8826,-0.8212 0.2678,-0.2714 0.4983,-0.4379 0.975,-0.4929 0.3286,-0.0036 0.6093,0.0189 0.9858,0.2679 0.4195,0.2767 0.8983,0.6285 1.4519,1.0607 0.175,-0.1428 0.3615,-0.3617 0.5365,-0.5046 0.273,-0.2443 0.5298,-0.4939 0.9474,-0.615 0.2729,-0.0656 0.5857,-0.0965 0.8894,0.0375 0.4696,0.1733 1.3836,0.72 1.8911,1.0715"/>
   <path id="_194948472" class="fil1 str0" d="M94.686 48.6479c1.2215,-1.0072 1.6326,-1.0991 1.9735,-1.1388 0.1454,-0.017 0.6497,0.0114 1.1311,0.2337 0.6474,0.299 1.7385,1.173 1.7385,1.173 0.721,-0.5967 1.6577,-1.6243 2.7556,-1.3608 0.3518,0.0845 0.5383,0.2209 0.8449,0.4224l1.2384 0.8168c0.3121,-0.2416 0.5705,-0.5796 0.8826,-0.8212 0.2678,-0.2714 0.4983,-0.4379 0.975,-0.4929 0.3286,-0.0036 0.6093,0.0189 0.9858,0.2679 0.4195,0.2767 0.8983,0.6285 1.4519,1.0607 0.175,-0.1428 0.3615,-0.3617 0.5365,-0.5046 0.273,-0.2443 0.5298,-0.4939 0.9474,-0.615 0.2729,-0.0656 0.5857,-0.0965 0.8894,0.0375 0.4696,0.1733 1.3836,0.72 1.8911,1.0715"/>
   <path id="_194948664" class="fil1 str0" d="M112.742 48.8687c1.2215,-1.0072 1.6326,-1.0991 1.9735,-1.1388 0.1454,-0.017 0.6497,0.0114 1.1311,0.2337 0.6474,0.299 1.7385,1.173 1.7385,1.173 0.721,-0.5967 1.6577,-1.6243 2.7556,-1.3608 0.3518,0.0845 0.5383,0.2209 0.8449,0.4224l1.2384 0.8168c0.3121,-0.2416 0.5705,-0.5796 0.8826,-0.8212 0.2678,-0.2714 0.4983,-0.4379 0.975,-0.4929 0.3286,-0.0036 0.6093,0.0189 0.9858,0.2679 0.4195,0.2767 0.8983,0.6285 1.4519,1.0607 0.175,-0.1428 0.3615,-0.3617 0.5365,-0.5046 0.273,-0.2443 0.5298,-0.4939 0.9474,-0.615 0.2729,-0.0656 0.5857,-0.0965 0.8894,0.0375 0.4696,0.1733 1.3836,0.72 1.8911,1.0715"/>
   <path id="_194948856" class="fil1 str0" d="M130.799 49.0895c1.2215,-1.0072 1.6326,-1.0991 1.9735,-1.1388 0.1454,-0.017 0.6497,0.0114 1.1311,0.2337 0.6474,0.299 1.7385,1.173 1.7385,1.173 0.721,-0.5967 1.6577,-1.6243 2.7556,-1.3608 0.3518,0.0845 0.5383,0.2209 0.8449,0.4224l1.2384 0.8168c0.3121,-0.2416 0.5705,-0.5796 0.8826,-0.8212 0.2678,-0.2714 0.4983,-0.4379 0.975,-0.4929 0.3286,-0.0036 0.6093,0.0189 0.9858,0.2679 0.4195,0.2767 0.8983,0.6285 1.4519,1.0607 0.175,-0.1428 0.3615,-0.3617 0.5365,-0.5046 0.273,-0.2443 0.5298,-0.4939 0.9474,-0.615 0.2729,-0.0656 0.5857,-0.0965 0.8894,0.0375 0.4696,0.1733 1.3836,0.72 1.8911,1.0715"/>
   <path id="_194949048" class="fil1 str0" d="M148.855 49.3103c1.2215,-1.0072 1.6326,-1.0991 1.9735,-1.1388 0.1454,-0.017 0.6497,0.0114 1.1311,0.2337 0.6474,0.299 1.7385,1.173 1.7385,1.173 0.721,-0.5967 1.6577,-1.6243 2.7556,-1.3608 0.3518,0.0845 0.5383,0.2209 0.8449,0.4224l1.2384 0.8168c0.3121,-0.2416 0.5705,-0.5796 0.8826,-0.8212 0.2678,-0.2714 0.4983,-0.4379 0.975,-0.4929 0.3286,-0.0036 0.6093,0.0189 0.9858,0.2679 0.4195,0.2767 0.8983,0.6285 1.4519,1.0607"/>
  </g>
  <g id="_194946936">
   <path id="_194949816" class="fil1 str0" d="M34.2359 44.2225c1.2215,-1.0072 1.6326,-1.0991 1.9735,-1.1388 0.1454,-0.017 0.6497,0.0114 1.1311,0.2337 0.6474,0.299 1.7385,1.173 1.7385,1.173 0.721,-0.5967 1.6577,-1.6243 2.7556,-1.3608 0.3518,0.0845 0.5383,0.2209 0.8449,0.4224l1.2384 0.8168c0.3121,-0.2416 0.5705,-0.5796 0.8826,-0.8212 0.2678,-0.2714 0.4983,-0.4379 0.975,-0.4929 0.3286,-0.0036 0.6093,0.0189 0.9858,0.2679 0.4195,0.2767 0.8983,0.6285 1.4519,1.0607 0.175,-0.1428 0.3615,-0.3617 0.5365,-0.5046 0.273,-0.2443 0.5298,-0.4939 0.9474,-0.615 0.2729,-0.0656 0.5857,-0.0965 0.8894,0.0375 0.4696,0.1733 1.3836,0.72 1.8911,1.0715"/>
   <path id="_194950008" class="fil1 str0" d="M52.3439 44.365c1.2215,-1.0072 1.6326,-1.0991 1.9735,-1.1388 0.1454,-0.017 0.6497,0.0114 1.1311,0.2337 0.6474,0.299 1.7385,1.173 1.7385,1.173 0.721,-0.5967 1.6577,-1.6243 2.7556,-1.3608 0.3518,0.0845 0.5383,0.2209 0.8449,0.4224l1.2384 0.8168c0.3121,-0.2416 0.5705,-0.5796 0.8826,-0.8212 0.2678,-0.2714 0.4983,-0.4379 0.975,-0.4929 0.3286,-0.0036 0.6093,0.0189 0.9858,0.2679 0.4195,0.2767 0.8983,0.6285 1.4519,1.0607 0.175,-0.1428 0.3615,-0.3617 0.5365,-0.5046 0.273,-0.2443 0.5298,-0.4939 0.9474,-0.615 0.2729,-0.0656 0.5857,-0.0965 0.8894,0.0375 0.4696,0.1733 1.3836,0.72 1.8911,1.0715"/>
   <path id="_194952312" class="fil1 str0" d="M70.4003 44.5858c1.2215,-1.0072 1.6326,-1.0991 1.9735,-1.1388 0.1454,-0.017 0.6497,0.0114 1.1311,0.2337 0.6474,0.299 1.7385,1.173 1.7385,1.173 0.721,-0.5967 1.6577,-1.6243 2.7556,-1.3608 0.3518,0.0845 0.5383,0.2209 0.8449,0.4224l1.2384 0.8168c0.3121,-0.2416 0.5705,-0.5796 0.8826,-0.8212 0.2678,-0.2714 0.4983,-0.4379 0.975,-0.4929 0.3286,-0.0036 0.6093,0.0189 0.9858,0.2679 0.4195,0.2767 0.8983,0.6285 1.4519,1.0607 0.175,-0.1428 0.3615,-0.3617 0.5365,-0.5046 0.273,-0.2443 0.5298,-0.4939 0.9474,-0.615 0.2729,-0.0656 0.5857,-0.0965 0.8894,0.0375 0.4696,0.1733 1.3836,0.72 1.8911,1.0715"/>
   <path id="_194952504" class="fil1 str0" d="M88.4567 44.8066c1.2215,-1.0072 1.6326,-1.0991 1.9735,-1.1388 0.1454,-0.017 0.6497,0.0114 1.1311,0.2337 0.6474,0.299 1.7385,1.173 1.7385,1.173 0.721,-0.5967 1.6577,-1.6243 2.7556,-1.3608 0.3518,0.0845 0.5383,0.2209 0.8449,0.4224l1.2384 0.8168c0.3121,-0.2416 0.5705,-0.5796 0.8826,-0.8212 0.2678,-0.2714 0.4983,-0.4379 0.975,-0.4929 0.3286,-0.0036 0.6093,0.0189 0.9858,0.2679 0.4195,0.2767 0.8983,0.6285 1.4519,1.0607 0.175,-0.1428 0.3615,-0.3617 0.5365,-0.5046 0.273,-0.2443 0.5298,-0.4939 0.9474,-0.615 0.2729,-0.0656 0.5857,-0.0965 0.8894,0.0375 0.4696,0.1733 1.3836,0.72 1.8911,1.0715"/>
   <path id="_195126664" class="fil1 str0" d="M106.513 45.0274c1.2215,-1.0072 1.6326,-1.0991 1.9735,-1.1388 0.1454,-0.017 0.6497,0.0114 1.1311,0.2337 0.6474,0.299 1.7385,1.173 1.7385,1.173 0.721,-0.5967 1.6577,-1.6243 2.7556,-1.3608 0.3518,0.0845 0.5383,0.2209 0.8449,0.4224l1.2384 0.8168c0.3121,-0.2416 0.5705,-0.5796 0.8826,-0.8212 0.2678,-0.2714 0.4983,-0.4379 0.975,-0.4929 0.3286,-0.0036 0.6093,0.0189 0.9858,0.2679 0.4195,0.2767 0.8983,0.6285 1.4519,1.0607 0.175,-0.1428 0.3615,-0.3617 0.5365,-0.5046 0.273,-0.2443 0.5298,-0.4939 0.9474,-0.615 0.2729,-0.0656 0.5857,-0.0965 0.8894,0.0375 0.4696,0.1733 1.3836,0.72 1.8911,1.0715"/>
   <path id="_195128584" class="fil1 str0" d="M124.57 45.2482c1.2215,-1.0072 1.6326,-1.0991 1.9735,-1.1388 0.1454,-0.017 0.6497,0.0114 1.1311,0.2337 0.6474,0.299 1.7385,1.173 1.7385,1.173 0.721,-0.5967 1.6577,-1.6243 2.7556,-1.3608 0.3518,0.0845 0.5383,0.2209 0.8449,0.4224l1.2384 0.8168c0.3121,-0.2416 0.5705,-0.5796 0.8826,-0.8212 0.2678,-0.2714 0.4983,-0.4379 0.975,-0.4929 0.3286,-0.0036 0.6093,0.0189 0.9858,0.2679 0.4195,0.2767 0.8983,0.6285 1.4519,1.0607 0.175,-0.1428 0.3615,-0.3617 0.5365,-0.5046 0.273,-0.2443 0.5298,-0.4939 0.9474,-0.615 0.2729,-0.0656 0.5857,-0.0965 0.8894,0.0375 0.4696,0.1733 1.3836,0.72 1.8911,1.0715"/>
   <path id="_195128776" class="fil1 str0" d="M142.626 45.469c1.2215,-1.0072 1.6326,-1.0991 1.9735,-1.1388 0.1454,-0.017 0.6497,0.0114 1.1311,0.2337 0.6474,0.299 1.7385,1.173 1.7385,1.173 0.721,-0.5967 1.6577,-1.6243 2.7556,-1.3608 0.3518,0.0845 0.5383,0.2209 0.8449,0.4224l1.2384 0.8168c0.3121,-0.2416 0.5705,-0.5796 0.8826,-0.8212 0.2678,-0.2714 0.4983,-0.4379 0.975,-0.4929 0.3286,-0.0036 0.6093,0.0189 0.9858,0.2679 0.4195,0.2767 0.8983,0.6285 1.4519,1.0607"/>
  </g>
  <g id="_194949624">
   <path id="_195129736" class="fil1 str0" d="M28.3451 40.5981c1.2215,-1.0072 1.6326,-1.0991 1.9735,-1.1388 0.1454,-0.017 0.6497,0.0114 1.1311,0.2337 0.6474,0.299 1.7385,1.173 1.7385,1.173 0.721,-0.5967 1.6577,-1.6243 2.7556,-1.3608 0.3518,0.0845 0.5383,0.2209 0.8449,0.4224l1.2384 0.8168c0.3121,-0.2416 0.5705,-0.5796 0.8826,-0.8212 0.2678,-0.2714 0.4983,-0.4379 0.975,-0.4929 0.3286,-0.0036 0.6093,0.0189 0.9858,0.2679 0.4195,0.2767 0.8983,0.6285 1.4519,1.0607 0.175,-0.1428 0.3615,-0.3617 0.5365,-0.5046 0.273,-0.2443 0.5298,-0.4939 0.9474,-0.615 0.2729,-0.0656 0.5857,-0.0965 0.8894,0.0375 0.4696,0.1733 1.3836,0.72 1.8911,1.0715"/>
   <path id="_195130312" class="fil1 str0" d="M46.4531 40.7406c1.2215,-1.0072 1.6326,-1.0991 1.9735,-1.1388 0.1454,-0.017 0.6497,0.0114 1.1311,0.2337 0.6474,0.299 1.7385,1.173 1.7385,1.173 0.721,-0.5967 1.6577,-1.6243 2.7556,-1.3608 0.3518,0.0845 0.5383,0.2209 0.8449,0.4224l1.2384 0.8168c0.3121,-0.2416 0.5705,-0.5796 0.8826,-0.8212 0.2678,-0.2714 0.4983,-0.4379 0.975,-0.4929 0.3286,-0.0036 0.6093,0.0189 0.9858,0.2679 0.4195,0.2767 0.8983,0.6285 1.4519,1.0607 0.175,-0.1428 0.3615,-0.3617 0.5365,-0.5046 0.273,-0.2443 0.5298,-0.4939 0.9474,-0.615 0.2729,-0.0656 0.5857,-0.0965 0.8894,0.0375 0.4696,0.1733 1.3836,0.72 1.8911,1.0715"/>
   <path id="_194940024" class="fil1 str0" d="M64.5095 40.9614c1.2215,-1.0072 1.6326,-1.0991 1.9735,-1.1388 0.1454,-0.017 0.6497,0.0114 1.1311,0.2337 0.6474,0.299 1.7385,1.173 1.7385,1.173 0.721,-0.5967 1.6577,-1.6243 2.7556,-1.3608 0.3518,0.0845 0.5383,0.2209 0.8449,0.4224l1.2384 0.8168c0.3121,-0.2416 0.5705,-0.5796 0.8826,-0.8212 0.2678,-0.2714 0.4983,-0.4379 0.975,-0.4929 0.3286,-0.0036 0.6093,0.0189 0.9858,0.2679 0.4195,0.2767 0.8983,0.6285 1.4519,1.0607 0.175,-0.1428 0.3615,-0.3617 0.5365,-0.5046 0.273,-0.2443 0.5298,-0.4939 0.9474,-0.615 0.2729,-0.0656 0.5857,-0.0965 0.8894,0.0375 0.4696,0.1733 1.3836,0.72 1.8911,1.0715"/>
   <path id="_194940216" class="fil1 str0" d="M82.5659 41.1822c1.2215,-1.0072 1.6326,-1.0991 1.9735,-1.1388 0.1454,-0.017 0.6497,0.0114 1.1311,0.2337 0.6474,0.299 1.7385,1.173 1.7385,1.173 0.721,-0.5967 1.6577,-1.6243 2.7556,-1.3608 0.3518,0.0845 0.5383,0.2209 0.8449,0.4224l1.2384 0.8168c0.3121,-0.2416 0.5705,-0.5796 0.8826,-0.8212 0.2678,-0.2714 0.4983,-0.4379 0.975,-0.4929 0.3286,-0.0036 0.6093,0.0189 0.9858,0.2679 0.4195,0.2767 0.8983,0.6285 1.4519,1.0607 0.175,-0.1428 0.3615,-0.3617 0.5365,-0.5046 0.273,-0.2443 0.5298,-0.4939 0.9474,-0.615 0.2729,-0.0656 0.5857,-0.0965 0.8894,0.0375 0.4696,0.1733 1.3836,0.72 1.8911,1.0715"/>
   <path id="_194940408" class="fil1 str0" d="M100.622 41.403c1.2215,-1.0072 1.6326,-1.0991 1.9735,-1.1388 0.1454,-0.017 0.6497,0.0114 1.1311,0.2337 0.6474,0.299 1.7385,1.173 1.7385,1.173 0.721,-0.5967 1.6577,-1.6243 2.7556,-1.3608 0.3518,0.0845 0.5383,0.2209 0.8449,0.4224l1.2384 0.8168c0.3121,-0.2416 0.5705,-0.5796 0.8826,-0.8212 0.2678,-0.2714 0.4983,-0.4379 0.975,-0.4929 0.3286,-0.0036 0.6093,0.0189 0.9858,0.2679 0.4195,0.2767 0.8983,0.6285 1.4519,1.0607 0.175,-0.1428 0.3615,-0.3617 0.5365,-0.5046 0.273,-0.2443 0.5298,-0.4939 0.9474,-0.615 0.2729,-0.0656 0.5857,-0.0965 0.8894,0.0375 0.4696,0.1733 1.3836,0.72 1.8911,1.0715"/>
   <path id="_194940600" class="fil1 str0" d="M118.679 41.6238c1.2215,-1.0072 1.6326,-1.0991 1.9735,-1.1388 0.1454,-0.017 0.6497,0.0114 1.1311,0.2337 0.6474,0.299 1.7385,1.173 1.7385,1.173 0.721,-0.5967 1.6577,-1.6243 2.7556,-1.3608 0.3518,0.0845 0.5383,0.2209 0.8449,0.4224l1.2384 0.8168c0.3121,-0.2416 0.5705,-0.5796 0.8826,-0.8212 0.2678,-0.2714 0.4983,-0.4379 0.975,-0.4929 0.3286,-0.0036 0.6093,0.0189 0.9858,0.2679 0.4195,0.2767 0.8983,0.6285 1.4519,1.0607 0.175,-0.1428 0.3615,-0.3617 0.5365,-0.5046 0.273,-0.2443 0.5298,-0.4939 0.9474,-0.615 0.2729,-0.0656 0.5857,-0.0965 0.8894,0.0375 0.4696,0.1733 1.3836,0.72 1.8911,1.0715"/>
   <path id="_194940792" class="fil1 str0" d="M136.735 41.8446c1.2215,-1.0072 1.6326,-1.0991 1.9735,-1.1388 0.1454,-0.017 0.6497,0.0114 1.1311,0.2337 0.6474,0.299 1.7385,1.173 1.7385,1.173 0.721,-0.5967 1.6577,-1.6243 2.7556,-1.3608 0.3518,0.0845 0.5383,0.2209 0.8449,0.4224l1.2384 0.8168c0.3121,-0.2416 0.5705,-0.5796 0.8826,-0.8212 0.2678,-0.2714 0.4983,-0.4379 0.975,-0.4929 0.3286,-0.0036 0.6093,0.0189 0.9858,0.2679 0.4195,0.2767 0.8983,0.6285 1.4519,1.0607"/>
  </g>
  <g id="_195128968">
   <path id="_194941752" class="fil1 str0" d="M21.792 36.7523c1.2215,-1.0072 1.6326,-1.0991 1.9735,-1.1388 0.1454,-0.017 0.6497,0.0114 1.1311,0.2337 0.6474,0.299 1.7385,1.173 1.7385,1.173 0.721,-0.5967 1.6577,-1.6243 2.7556,-1.3608 0.3518,0.0845 0.5383,0.2209 0.8449,0.4224l1.2384 0.8168c0.3121,-0.2416 0.5705,-0.5796 0.8826,-0.8212 0.2678,-0.2714 0.4983,-0.4379 0.975,-0.4929 0.3286,-0.0036 0.6093,0.0189 0.9858,0.2679 0.4195,0.2767 0.8983,0.6285 1.4519,1.0607 0.175,-0.1428 0.3615,-0.3617 0.5365,-0.5046 0.273,-0.2443 0.5298,-0.4939 0.9474,-0.615 0.2729,-0.0656 0.5857,-0.0965 0.8894,0.0375 0.4696,0.1733 1.3836,0.72 1.8911,1.0715"/>
   <path id="_194942520" class="fil1 str0" d="M39.9 36.8948c1.2215,-1.0072 1.6326,-1.0991 1.9735,-1.1388 0.1454,-0.017 0.6497,0.0114 1.1311,0.2337 0.6474,0.299 1.7385,1.173 1.7385,1.173 0.721,-0.5967 1.6577,-1.6243 2.7556,-1.3608 0.3518,0.0845 0.5383,0.2209 0.8449,0.4224l1.2384 0.8168c0.3121,-0.2416 0.5705,-0.5796 0.8826,-0.8212 0.2678,-0.2714 0.4983,-0.4379 0.975,-0.4929 0.3286,-0.0036 0.6093,0.0189 0.9858,0.2679 0.4195,0.2767 0.8983,0.6285 1.4519,1.0607 0.175,-0.1428 0.3615,-0.3617 0.5365,-0.5046 0.273,-0.2443 0.5298,-0.4939 0.9474,-0.615 0.2729,-0.0656 0.5857,-0.0965 0.8894,0.0375 0.4696,0.1733 1.3836,0.72 1.8911,1.0715"/>
   <path id="_194942712" class="fil1 str0" d="M57.9564 37.1156c1.2215,-1.0072 1.6326,-1.0991 1.9735,-1.1388 0.1454,-0.017 0.6497,0.0114 1.1311,0.2337 0.6474,0.299 1.7385,1.173 1.7385,1.173 0.721,-0.5967 1.6577,-1.6243 2.7556,-1.3608 0.3518,0.0845 0.5383,0.2209 0.8449,0.4224l1.2384 0.8168c0.3121,-0.2416 0.5705,-0.5796 0.8826,-0.8212 0.2678,-0.2714 0.4983,-0.4379 0.975,-0.4929 0.3286,-0.0036 0.6093,0.0189 0.9858,0.2679 0.4195,0.2767 0.8983,0.6285 1.4519,1.0607 0.175,-0.1428 0.3615,-0.3617 0.5365,-0.5046 0.273,-0.2443 0.5298,-0.4939 0.9474,-0.615 0.2729,-0.0656 0.5857,-0.0965 0.8894,0.0375 0.4696,0.1733 1.3836,0.72 1.8911,1.0715"/>
   <path id="_194942904" class="fil1 str0" d="M76.0128 37.3364c1.2215,-1.0072 1.6326,-1.0991 1.9735,-1.1388 0.1454,-0.017 0.6497,0.0114 1.1311,0.2337 0.6474,0.299 1.7385,1.173 1.7385,1.173 0.721,-0.5967 1.6577,-1.6243 2.7556,-1.3608 0.3518,0.0845 0.5383,0.2209 0.8449,0.4224l1.2384 0.8168c0.3121,-0.2416 0.5705,-0.5796 0.8826,-0.8212 0.2678,-0.2714 0.4983,-0.4379 0.975,-0.4929 0.3286,-0.0036 0.6093,0.0189 0.9858,0.2679 0.4195,0.2767 0.8983,0.6285 1.4519,1.0607 0.175,-0.1428 0.3615,-0.3617 0.5365,-0.5046 0.273,-0.2443 0.5298,-0.4939 0.9474,-0.615 0.2729,-0.0656 0.5857,-0.0965 0.8894,0.0375 0.4696,0.1733 1.3836,0.72 1.8911,1.0715"/>
   <path id="_194943096" class="fil1 str0" d="M94.0692 37.5572c1.2215,-1.0072 1.6326,-1.0991 1.9735,-1.1388 0.1454,-0.017 0.6497,0.0114 1.1311,0.2337 0.6474,0.299 1.7385,1.173 1.7385,1.173 0.721,-0.5967 1.6577,-1.6243 2.7556,-1.3608 0.3518,0.0845 0.5383,0.2209 0.8449,0.4224l1.2384 0.8168c0.3121,-0.2416 0.5705,-0.5796 0.8826,-0.8212 0.2678,-0.2714 0.4983,-0.4379 0.975,-0.4929 0.3286,-0.0036 0.6093,0.0189 0.9858,0.2679 0.4195,0.2767 0.8983,0.6285 1.4519,1.0607 0.175,-0.1428 0.3615,-0.3617 0.5365,-0.5046 0.273,-0.2443 0.5298,-0.4939 0.9474,-0.615 0.2729,-0.0656 0.5857,-0.0965 0.8894,0.0375 0.4696,0.1733 1.3836,0.72 1.8911,1.0715"/>
   <path id="_194943288" class="fil1 str0" d="M112.126 37.778c1.2215,-1.0072 1.6326,-1.0991 1.9735,-1.1388 0.1454,-0.017 0.6497,0.0114 1.1311,0.2337 0.6474,0.299 1.7385,1.173 1.7385,1.173 0.721,-0.5967 1.6577,-1.6243 2.7556,-1.3608 0.3518,0.0845 0.5383,0.2209 0.8449,0.4224l1.2384 0.8168c0.3121,-0.2416 0.5705,-0.5796 0.8826,-0.8212 0.2678,-0.2714 0.4983,-0.4379 0.975,-0.4929 0.3286,-0.0036 0.6093,0.0189 0.9858,0.2679 0.4195,0.2767 0.8983,0.6285 1.4519,1.0607 0.175,-0.1428 0.3615,-0.3617 0.5365,-0.5046 0.273,-0.2443 0.5298,-0.4939 0.9474,-0.615 0.2729,-0.0656 0.5857,-0.0965 0.8894,0.0375 0.4696,0.1733 1.3836,0.72 1.8911,1.0715"/>
   <path id="_194943480" class="fil1 str0" d="M130.182 37.9988c1.2215,-1.0072 1.6326,-1.0991 1.9735,-1.1388 0.1454,-0.017 0.6497,0.0114 1.1311,0.2337 0.6474,0.299 1.7385,1.173 1.7385,1.173 0.721,-0.5967 1.6577,-1.6243 2.7556,-1.3608 0.3518,0.0845 0.5383,0.2209 0.8449,0.4224l1.2384 0.8168c0.3121,-0.2416 0.5705,-0.5796 0.8826,-0.8212 0.2678,-0.2714 0.4983,-0.4379 0.975,-0.4929 0.3286,-0.0036 0.6093,0.0189 0.9858,0.2679 0.4195,0.2767 0.8983,0.6285 1.4519,1.0607"/>
  </g>
  <g id="_194941560">
   <path id="_194944824" class="fil1 str0" d="M16.3891 33.4448c1.2215,-1.0072 1.6326,-1.0991 1.9735,-1.1388 0.1454,-0.017 0.6497,0.0114 1.1311,0.2337 0.6474,0.299 1.7385,1.173 1.7385,1.173 0.721,-0.5967 1.6577,-1.6243 2.7556,-1.3608 0.3518,0.0845 0.5383,0.2209 0.8449,0.4224l1.2384 0.8168c0.3121,-0.2416 0.5705,-0.5796 0.8826,-0.8212 0.2678,-0.2714 0.4983,-0.4379 0.975,-0.4929 0.3286,-0.0036 0.6093,0.0189 0.9858,0.2679 0.4195,0.2767 0.8983,0.6285 1.4519,1.0607 0.175,-0.1428 0.3615,-0.3617 0.5365,-0.5046 0.273,-0.2443 0.5298,-0.4939 0.9474,-0.615 0.2729,-0.0656 0.5857,-0.0965 0.8894,0.0375 0.4696,0.1733 1.3836,0.72 1.8911,1.0715"/>
   <path id="_194945016" class="fil1 str0" d="M34.4971 33.5873c1.2215,-1.0072 1.6326,-1.0991 1.9735,-1.1388 0.1454,-0.017 0.6497,0.0114 1.1311,0.2337 0.6474,0.299 1.7385,1.173 1.7385,1.173 0.721,-0.5967 1.6577,-1.6243 2.7556,-1.3608 0.3518,0.0845 0.5383,0.2209 0.8449,0.4224l1.2384 0.8168c0.3121,-0.2416 0.5705,-0.5796 0.8826,-0.8212 0.2678,-0.2714 0.4983,-0.4379 0.975,-0.4929 0.3286,-0.0036 0.6093,0.0189 0.9858,0.2679 0.4195,0.2767 0.8983,0.6285 1.4519,1.0607 0.175,-0.1428 0.3615,-0.3617 0.5365,-0.5046 0.273,-0.2443 0.5298,-0.4939 0.9474,-0.615 0.2729,-0.0656 0.5857,-0.0965 0.8894,0.0375 0.4696,0.1733 1.3836,0.72 1.8911,1.0715"/>
   <path id="_194945208" class="fil1 str0" d="M52.5535 33.8081c1.2215,-1.0072 1.6326,-1.0991 1.9735,-1.1388 0.1454,-0.017 0.6497,0.0114 1.1311,0.2337 0.6474,0.299 1.7385,1.173 1.7385,1.173 0.721,-0.5967 1.6577,-1.6243 2.7556,-1.3608 0.3518,0.0845 0.5383,0.2209 0.8449,0.4224l1.2384 0.8168c0.3121,-0.2416 0.5705,-0.5796 0.8826,-0.8212 0.2678,-0.2714 0.4983,-0.4379 0.975,-0.4929 0.3286,-0.0036 0.6093,0.0189 0.9858,0.2679 0.4195,0.2767 0.8983,0.6285 1.4519,1.0607 0.175,-0.1428 0.3615,-0.3617 0.5365,-0.5046 0.273,-0.2443 0.5298,-0.4939 0.9474,-0.615 0.2729,-0.0656 0.5857,-0.0965 0.8894,0.0375 0.4696,0.1733 1.3836,0.72 1.8911,1.0715"/>
   <path id="_194945400" class="fil1 str0" d="M70.6099 34.0289c1.2215,-1.0072 1.6326,-1.0991 1.9735,-1.1388 0.1454,-0.017 0.6497,0.0114 1.1311,0.2337 0.6474,0.299 1.7385,1.173 1.7385,1.173 0.721,-0.5967 1.6577,-1.6243 2.7556,-1.3608 0.3518,0.0845 0.5383,0.2209 0.8449,0.4224l1.2384 0.8168c0.3121,-0.2416 0.5705,-0.5796 0.8826,-0.8212 0.2678,-0.2714 0.4983,-0.4379 0.975,-0.4929 0.3286,-0.0036 0.6093,0.0189 0.9858,0.2679 0.4195,0.2767 0.8983,0.6285 1.4519,1.0607 0.175,-0.1428 0.3615,-0.3617 0.5365,-0.5046 0.273,-0.2443 0.5298,-0.4939 0.9474,-0.615 0.2729,-0.0656 0.5857,-0.0965 0.8894,0.0375 0.4696,0.1733 1.3836,0.72 1.8911,1.0715"/>
   <path id="_194945592" class="fil1 str0" d="M88.6663 34.2497c1.2215,-1.0072 1.6326,-1.0991 1.9735,-1.1388 0.1454,-0.017 0.6497,0.0114 1.1311,0.2337 0.6474,0.299 1.7385,1.173 1.7385,1.173 0.721,-0.5967 1.6577,-1.6243 2.7556,-1.3608 0.3518,0.0845 0.5383,0.2209 0.8449,0.4224l1.2384 0.8168c0.3121,-0.2416 0.5705,-0.5796 0.8826,-0.8212 0.2678,-0.2714 0.4983,-0.4379 0.975,-0.4929 0.3286,-0.0036 0.6093,0.0189 0.9858,0.2679 0.4195,0.2767 0.8983,0.6285 1.4519,1.0607 0.175,-0.1428 0.3615,-0.3617 0.5365,-0.5046 0.273,-0.2443 0.5298,-0.4939 0.9474,-0.615 0.2729,-0.0656 0.5857,-0.0965 0.8894,0.0375 0.4696,0.1733 1.3836,0.72 1.8911,1.0715"/>
   <path id="_194947128" class="fil1 str0" d="M106.723 34.4705c1.2215,-1.0072 1.6326,-1.0991 1.9735,-1.1388 0.1454,-0.017 0.6497,0.0114 1.1311,0.2337 0.6474,0.299 1.7385,1.173 1.7385,1.173 0.721,-0.5967 1.6577,-1.6243 2.7556,-1.3608 0.3518,0.0845 0.5383,0.2209 0.8449,0.4224l1.2384 0.8168c0.3121,-0.2416 0.5705,-0.5796 0.8826,-0.8212 0.2678,-0.2714 0.4983,-0.4379 0.975,-0.4929 0.3286,-0.0036 0.6093,0.0189 0.9858,0.2679 0.4195,0.2767 0.8983,0.6285 1.4519,1.0607 0.175,-0.1428 0.3615,-0.3617 0.5365,-0.5046 0.273,-0.2443 0.5298,-0.4939 0.9474,-0.615 0.2729,-0.0656 0.5857,-0.0965 0.8894,0.0375 0.4696,0.1733 1.3836,0.72 1.8911,1.0715"/>
   <path id="_194947320" class="fil1 str0" d="M124.779 34.6913c1.2215,-1.0072 1.6326,-1.0991 1.9735,-1.1388 0.1454,-0.017 0.6497,0.0114 1.1311,0.2337 0.6474,0.299 1.7385,1.173 1.7385,1.173 0.721,-0.5967 1.6577,-1.6243 2.7556,-1.3608 0.3518,0.0845 0.5383,0.2209 0.8449,0.4224l1.2384 0.8168c0.3121,-0.2416 0.5705,-0.5796 0.8826,-0.8212 0.2678,-0.2714 0.4983,-0.4379 0.975,-0.4929 0.3286,-0.0036 0.6093,0.0189 0.9858,0.2679 0.4195,0.2767 0.8983,0.6285 1.4519,1.0607"/>
  </g>
  <line class="fil1 str0" x1="89.989" y1="75.0591" x2="16.5672" y2= "30.9074" />
  <line class="fil1 str0" x1="94.9449" y1="75.0717" x2="21.5231" y2= "30.92" />
  <line class="fil1 str0" x1="99.5446" y1="75.2217" x2="26.1228" y2= "31.07" />
  <line class="fil1 str0" x1="103.742" y1="75.4409" x2="30.3199" y2= "31.2892" />
  <line class="fil1 str0" x1="108.157" y1="75.3251" x2="34.735" y2= "31.1734" />
  <line class="fil1 str0" x1="113.271" y1="75.3685" x2="39.8487" y2= "31.2168" />
  <line class="fil1 str0" x1="117.673" y1="75.3184" x2="44.2512" y2= "31.1667" />
  <line class="fil1 str0" x1="121.706" y1="75.3845" x2="48.2841" y2= "31.2328" />
  <line class="fil1 str0" x1="125.886" y1="75.2616" x2="52.4644" y2= "31.1099" />
  <line class="fil1 str0" x1="131.427" y1="75.5258" x2="58.0047" y2= "31.3741" />
  <line class="fil1 str0" x1="135.837" y1="75.5221" x2="62.4156" y2= "31.3704" />
  <line class="fil1 str0" x1="139.939" y1="75.5263" x2="66.5175" y2= "31.3746" />
  <line class="fil1 str0" x1="144.27" y1="75.5516" x2="70.8485" y2= "31.3999" />
  <line class="fil1 str0" x1="148.761" y1="75.53" x2="75.3396" y2= "31.3783" />
  <line class="fil1 str0" x1="153.32" y1="75.6586" x2="79.8977" y2= "31.5069" />
  <line class="fil1 str0" x1="157.709" y1="75.692" x2="84.2876" y2= "31.5403" />
  <line class="fil1 str0" x1="161.876" y1="75.5933" x2="88.4543" y2= "31.4416" />
  <line class="fil1 str0" x1="166.712" y1="75.6295" x2="93.2899" y2= "31.4778" />
  <line class="fil1 str0" x1="171.423" y1="75.7101" x2="98.0016" y2= "31.5584" />
  <line class="fil1 str0" x1="175.609" y1="75.7783" x2="102.187" y2= "31.6266" />
  <line class="fil1 str0" x1="179.72" y1="75.7959" x2="106.299" y2= "31.6442" />
  <line class="fil1 str0" x1="184.92" y1="75.8178" x2="111.498" y2= "31.6661" />
  <line class="fil1 str0" x1="189.414" y1="75.7645" x2="115.993" y2= "31.6128" />
  <line class="fil1 str0" x1="193.12" y1="75.7364" x2="119.699" y2= "31.5847" />
  <line class="fil1 str0" x1="198.102" y1="75.9558" x2="124.68" y2= "31.8041" />
  <line class="fil1 str0" x1="202.811" y1="76.0115" x2="129.389" y2= "31.8598" />
  <line class="fil1 str0" x1="206.329" y1="75.3362" x2="132.907" y2= "31.1845" />
 </g>
</svg>
