<?xml version="1.0" encoding="UTF-8"?>
<!DOCTYPE svg PUBLIC "-//W3C//DTD SVG 1.1//EN" "http://www.w3.org/Graphics/SVG/1.1/DTD/svg11.dtd">
<!-- Creator: CorelDRAW -->
<svg xmlns="http://www.w3.org/2000/svg" xml:space="preserve" width="210mm" height="297mm" style="shape-rendering:geometricPrecision; text-rendering:geometricPrecision; image-rendering:optimizeQuality; fill-rule:evenodd; clip-rule:evenodd"
viewBox="0 0 210 297"
 xmlns:xlink="http://www.w3.org/1999/xlink">
 <defs>
  <style type="text/css">
   <![CDATA[
    .str1 {stroke:#333333;stroke-width:0.2}
    .str0 {stroke:#333333;stroke-width:0.5}
    .fil0 {fill:none}
    .fil1 {fill:#96272E}
    .fil2 {fill:#B32E37}
   ]]>
  </style>
 </defs>
 <g id="Слой_x0020_1">
  <metadata id="CorelCorpID_0Corel-Layer"/>
  <line class="fil0 str0" x1="26.7939" y1="28.2263" x2="27.5296" y2= "100.81" />
  <line class="fil0 str0" x1="100.06" y1="75.0997" x2="99.5926" y2= "101.518" />
  <line class="fil0 str0" x1="191.181" y1="75.834" x2="191.485" y2= "102.41" />
  <line class="fil0 str0" x1="2.8634" y1="100.577" x2="201.642" y2= "102.512" />
  <g id="_422734400">
   <polygon id="_362697040" class="fil1 str0" points="9.594,13.7418 85.0596,74.8971 206.725,75.9335 134.359,14.4252 "/>
   <polygon id="_362699008" class="fil2 str0" points="9.594,13.7418 12.4388,16.0472 137.389,17.0001 134.359,14.4252 "/>
   <polygon id="_362699416" class="fil0 str1" points="78.7044,64.1991 80.2985,61.9326 87.5543,61.5671 91.1822,65.2958 89.5881,67.6355 82.1124,68.2205 "/>
   <polygon id="_362699632" class="fil0 str1" points="69.4765,39.2011 71.3918,36.351 78.6476,35.9855 82.2755,39.7143 80.6814,42.054 72.926,42.6718 "/>
   <polygon id="_362699824" class="fil0 str1" points="56.1116,29.5238 58.0027,26.5402 65.2585,26.1746 68.8864,29.9034 67.2923,32.2431 59.8166,32.8281 "/>
   <polygon id="_362700016" class="fil0 str1" points="42.6029,19.7133 44.2063,16.4997 51.8694,16.3637 55.4973,20.0925 53.9032,22.4322 46.4275,23.0172 "/>
   <polygon id="_362700208" class="fil0 str1" points="82.8012,49.1027 85.0046,46.2617 92.2604,45.8962 95.8883,49.6249 94.2942,51.9646 86.4145,52.9046 "/>
   <polygon id="_362700400" class="fil0 str1" points="112.375,46.974 114.352,43.2714 121.583,43.1902 125.462,47.4962 123.868,49.8359 115.988,50.7759 "/>
   <polygon id="_362700592" class="fil0 str1" points="75.1491,23.5253 75.6402,20.3033 83.5344,20.3049 87.2952,22.8111 85.1279,26.324 77.9123,26.4514 "/>
   <polygon id="_362700784" class="fil0 str1" points="96.383,59.0567 98.5313,56.2295 105.787,55.864 109.59,59.9685 108.091,62.1237 99.8122,62.883 "/>
   <polygon id="_362700976" class="fil0 str1" points="125.907,56.6791 128.055,53.8519 135.311,53.4864 139.114,57.5909 137.615,59.7461 129.336,60.5054 "/>
   <polygon id="_362701168" class="fil0 str1" points="146.468,57.1818 147.763,54.6894 155.366,54.5788 160.272,58.6671 158.773,60.8223 150.822,60.7923 "/>
   <polygon id="_362701360" class="fil0 str1" points="137.615,59.7461 139.114,57.5909 146.468,57.1818 150.822,60.7923 148.81,63.6022 141.286,63.9074 "/>
   <polygon id="_362701552" class="fil0 str1" points="158.773,60.8223 160.272,58.6671 167.626,58.258 171.98,61.8685 169.968,64.6784 162.445,64.9836 "/>
   <polygon id="_362701744" class="fil0 str1" points="87.4378,33.3585 89.8093,29.4261 97.0651,29.0606 101.259,33.5836 99.7602,35.7388 91.8437,36.242 "/>
   <polygon id="_362701936" class="fil0 str1" points="116.962,30.9809 119.333,27.0485 126.589,26.683 130.576,30.3663 129.284,33.3612 121.368,33.8644 "/>
   <polygon id="_362702128" class="fil0 str1" points="129.284,33.3612 130.666,30.1573 137.922,29.7918 142.116,34.3147 139.603,36.6459 132.701,36.9731 "/>
   <polygon id="_362702320" class="fil0 str1" points="148.721,34.0918 149.344,31.0619 153.764,30.9187 157.702,34.2655 159.245,35.5189 152.517,36.1148 "/>
   <polygon id="_362702512" class="fil0 str1" points="139.76,36.8947 142.116,34.3147 148.721,34.0918 152.517,36.1148 150.428,39.9428 143.216,40.1599 "/>
   <polygon id="_362702704" class="fil0 str1" points="99.7602,35.7386 101.354,33.4721 108.61,33.1066 112.538,36.9834 110.944,39.2502 103.168,39.76 "/>
   <polygon id="_362702896" class="fil0 str1" points="87.5543,61.5671 89.3683,59.5929 96.1293,59.008 99.8122,62.8831 98.2731,65.0765 91.1822,65.2958 "/>
   <polygon id="_362703088" class="fil0 str1" points="117.128,59.4383 118.728,57.0643 125.735,56.5199 129.386,60.7544 127.847,62.9477 120.756,63.1671 "/>
   <polygon id="_362703280" class="fil0 str1" points="89.5881,67.6355 91.1822,65.2958 98.2731,65.0765 101.867,68.8342 100.349,72.0748 93.6008,72.0224 "/>
   <polygon id="_362703472" class="fil0 str1" points="100.349,72.0748 101.867,68.8342 109.677,68.9275 112.335,73.7526 109.964,75.4713 102.529,75.3316 "/>
   <polygon id="_362703664" class="fil0 str1" points="119.545,66.5557 121.108,63.1563 127.847,62.9477 131.44,66.7055 129.923,69.9461 123.174,69.8937 "/>
   <polygon id="_362703856" class="fil0 str1" points="80.2435,70.8525 82.1124,68.2205 89.5881,67.6355 93.6008,72.0224 91.6769,74.7276 85.0596,74.8971 "/>
   <polygon id="_362704048" class="fil0 str1" points="71.3368,45.271 73.2057,42.6389 80.6814,42.054 84.6941,46.4409 82.7702,49.1461 75.9706,49.6145 "/>
   <polygon id="_362704240" class="fil0 str1" points="58.135,35.1965 59.8166,32.8281 67.2923,32.2431 71.305,36.63 69.3811,39.3352 62.7638,39.5046 "/>
   <polygon id="_362704432" class="fil0 str1" points="44.6823,25.1631 46.4275,23.0172 53.9032,22.4322 57.9159,26.8191 55.992,29.5243 49.3747,29.6937 "/>
   <polygon id="_362704624" class="fil0 str1" points="31.1695,15.8383 33.6558,16.2091 41.8378,16.2714 44.2063,16.4997 42.6029,19.7134 35.9856,19.8829 "/>
   <polygon id="_362704816" class="fil0 str1" points="21.7234,17.7962 23.592,16.1323 31.1695,15.8383 35.7627,19.6957 33.9635,21.6535 26.5395,21.8407 "/>
   <polygon id="_362705008" class="fil0 str1" points="84.9496,55.1817 86.4923,53.1488 94.2942,51.9646 98.5313,56.2295 96.383,59.0567 89.3683,59.5929 "/>
   <polygon id="_362705200" class="fil0 str1" points="114.523,53.0529 115.801,50.8292 123.868,49.8359 128.105,54.1008 125.735,56.5199 118.721,57.0561 "/>
   <polygon id="_362705392" class="fil0 str1" points="75.9687,29.5166 78.2449,26.4254 85.1279,26.324 89.7139,29.5376 87.4378,33.3586 80.4616,34.0113 "/>
   <polygon id="_362705584" class="fil0 str1" points="106.025,26.732 107.819,24.2966 114.702,24.1953 119.288,27.4089 117.012,31.2299 110.244,31.345 "/>
   <polygon id="_362705776" class="fil0 str1" points="98.4763,65.1495 99.8123,62.883 107.821,61.9324 111.834,66.3193 109.91,69.0246 101.867,68.8342 "/>
   <polygon id="_362705968" class="fil0 str1" points="128,62.7719 129.336,60.5054 137.345,59.5548 141.358,63.9417 139.434,66.6469 131.39,66.4566 "/>
   <polygon id="_362706160" class="fil0 str1" points="148.81,63.6022 150.822,60.7923 158.503,60.631 162.516,65.0179 160.592,67.7232 152.823,67.989 "/>
   <polygon id="_362706352" class="fil0 str1" points="141.32,73.5465 142.856,70.5039 150.942,70.6332 154.288,75.5858 150.284,75.6031 143.283,75.6801 "/>
   <polygon id="_362706544" class="fil0 str1" points="160.624,67.8954 162.516,65.0179 169.968,64.6784 173.981,69.0653 172.057,71.7705 164.014,71.5801 "/>
   <polygon id="_362706736" class="fil0 str1" points="169.968,64.6784 171.855,61.8876 179.418,61.9586 183.567,66.1685 181.643,68.8737 173.981,69.0653 "/>
   <polygon id="_362706928" class="fil0 str1" points="150.899,70.6943 152.823,67.989 160.624,67.8954 164.014,71.5801 162.331,75.7761 154.288,75.5858 "/>
   <polygon id="_362707120" class="fil0 str1" points="129.808,69.9539 131.44,66.7055 139.152,66.7369 142.856,70.5039 141.241,73.829 133.198,73.6386 "/>
   <polygon id="_362707312" class="fil0 str1" points="119.939,73.9984 123.174,69.8937 130.005,70.1689 133.198,73.6386 131.116,75.5853 123.47,75.5709 "/>
   <polygon id="_362707504" class="fil0 str1" points="108.091,62.1237 109.59,59.9685 117.456,59.4636 121.017,63.3559 119.545,66.5557 111.796,66.3724 "/>
   <polygon id="_362707696" class="fil0 str1" points="109.91,69.0246 111.796,66.3724 119.545,66.5557 123.174,69.8937 119.939,73.9984 112.335,73.7526 "/>
   <polygon id="_362707888" class="fil0 str1" points="124.34,20.4491 126.232,17.5716 133.684,17.2321 137.697,21.6189 135.374,24.6447 128.403,24.7088 "/>
   <polygon id="_362708080" class="fil0 str1" points="135.374,24.6447 137.697,21.6189 142.726,21.3061 147.455,25.5563 145.817,27.5334 138.722,27.9936 "/>
   <polygon id="_362708272" class="fil0 str1" points="167.755,58.3652 169.083,55.8842 176.26,55.7976 181.088,58.9234 179.165,61.6286 171.98,61.8685 "/>
   <polygon id="_362708464" class="fil0 str1" points="164.947,51.789 165.648,49.185 173.327,49.0953 176.986,52.7782 176.26,55.7976 168.922,55.7656 "/>
   <polygon id="_362708656" class="fil0 str1" points="179.165,61.6286 181.088,58.9234 186.948,59.1237 192.241,63.6232 191.187,66.1209 183.567,66.1685 "/>
   <polygon id="_362708848" class="fil0 str1" points="181.585,69.192 183.567,66.1685 191.187,66.1209 195.376,69.9506 193.143,73.8288 185.413,73.5632 "/>
   <polygon id="_362709040" class="fil0 str1" points="172.128,71.6702 173.981,69.0653 181.485,69.0829 185.498,73.4698 183.288,75.8818 175.531,75.6679 "/>
   <polygon id="_362709232" class="fil0 str1" points="193.143,73.8288 195.376,69.9506 199.458,69.7573 206.413,75.6688 204.426,75.9139 196.074,75.8428 "/>
   <polygon id="_362709424" class="fil0 str1" points="89.5815,39.4272 91.8437,36.242 99.7602,35.7388 103.112,39.5159 100.965,43.3265 94.0744,43.922 "/>
   <polygon id="_362709616" class="fil0 str1" points="119.105,37.0496 121.368,33.8644 129.284,33.3612 132.636,37.1383 130.488,40.9489 123.598,41.5444 "/>
   <polygon id="_362709808" class="fil0 str1" points="130.488,40.9489 132.594,37.0915 139.603,36.6459 143.216,40.1599 140.807,44.2336 133.917,44.8291 "/>
   <polygon id="_362710000" class="fil0 str1" points="150.412,39.9722 152.517,36.1148 159.526,35.6692 162.878,39.4464 161.921,43.0811 153.838,43.4787 "/>
   <polygon id="_362710192" class="fil0 str1" points="140.807,44.2336 143.216,40.1599 150.225,39.7143 153.577,43.4914 153.122,47.4712 144.54,47.8975 "/>
   <polygon id="_362710384" class="fil0 str1" points="100.965,43.3265 103.168,39.76 110.644,39.175 114.352,43.2714 112.118,46.9541 104.647,47.2016 "/>
   <polygon id="_362710576" class="fil0 str1" points="92.3693,16.6568 95.411,16.68 101.96,16.7299 105.797,16.7592 103.787,20.5692 95.9253,20.3983 "/>
   <polygon id="_362710768" class="fil0 str1" points="103.868,20.4393 105.797,16.7592 113.345,16.8168 116.819,20.4335 114.652,23.9464 107.47,24.4443 "/>
   <polygon id="_362710960" class="fil0 str1" points="65.3067,54.2208 66.9008,51.9542 74.1566,51.5887 77.7845,55.3175 76.1904,57.6572 68.7147,58.2421 "/>
   <polygon id="_362711152" class="fil0 str1" points="74.1566,51.5887 75.9706,49.6145 82.7316,49.0297 86.4145,52.9047 84.8754,55.0981 77.7845,55.3175 "/>
   <polygon id="_362711344" class="fil0 str1" points="65.2499,26.0072 67.0639,24.033 74.9315,23.3907 78.0909,26.6347 75.9687,29.5166 68.8778,29.7359 "/>
   <polygon id="_362711536" class="fil0 str1" points="51.8608,16.1963 54.6016,16.3688 60.5673,16.4143 64.1634,16.4417 62.5796,19.7057 55.4887,19.925 "/>
   <polygon id="_362711728" class="fil0 str1" points="78.8627,35.9178 80.6767,33.9436 87.4377,33.3588 91.8436,36.2421 89.5815,39.4272 82.4906,39.6466 "/>
   <polygon id="_362711920" class="fil0 str1" points="108.848,33.3414 110.244,31.345 117.011,31.23 121.417,34.1134 119.155,37.2985 112.538,36.9834 "/>
   <polygon id="_362712112" class="fil0 str1" points="92.3894,45.8857 94.2034,43.9115 100.964,43.3266 104.647,47.2017 103.108,49.3951 96.0173,49.6144 "/>
   <polygon id="_362712304" class="fil0 str1" points="121.583,43.1903 123.727,41.5339 130.488,40.949 134.171,44.8241 132.632,47.0175 125.541,47.2368 "/>
   <polygon id="_362712496" class="fil0 str1" points="132.632,47.0175 134.046,44.8186 140.807,44.2338 144.49,48.1088 143.789,50.7128 136.698,50.932 "/>
   <polygon id="_362712688" class="fil0 str1" points="153.122,47.4712 153.577,43.4914 161.921,43.0811 165.648,49.185 164.947,51.789 156.831,51.6639 "/>
   <polygon id="_362712880" class="fil0 str1" points="83.5344,20.3049 85.8202,16.6069 92.2424,16.5232 95.9253,20.3983 94.3862,22.5917 87.2953,22.811 "/>
   <polygon id="_362713072" class="fil0 str1" points="103.108,49.3949 104.647,47.2016 112.118,46.9541 115.801,50.8292 114.262,53.0226 107.171,53.2419 "/>
   <polygon id="_362713264" class="fil0 str1" points="94.3862,22.5917 95.9253,20.3983 103.787,20.5692 107.47,24.4443 105.931,26.6376 98.8403,26.857 "/>
   <polygon id="_362713456" class="fil0 str1" points="161.988,43.1542 162.995,39.0233 169.669,44.4374 173.496,47.4617 173.327,49.0953 165.648,49.185 "/>
   <polygon id="_362713648" class="fil0 str1" points="76.1904,57.6572 77.7845,55.3175 84.8754,55.0981 89.3683,59.5929 87.7887,61.4592 80.2031,62.044 "/>
   <polygon id="_362713840" class="fil0 str1" points="67.2837,32.0756 68.8778,29.7359 75.9687,29.5166 80.4616,34.0113 78.882,35.8776 71.2964,36.4625 "/>
   <polygon id="_362714032" class="fil0 str1" points="53.8946,22.2647 55.4887,19.925 62.5796,19.7057 67.0725,24.2005 65.4929,26.0668 57.9073,26.6516 "/>
   <polygon id="_362714224" class="fil0 str1" points="16.0593,18.9812 14.09,17.3853 21.7234,17.7962 26.7077,22.0192 25.2244,24.3111 21.0749,23.0456 "/>
   <polygon id="_362714416" class="fil0 str1" points="80.8965,41.9863 82.4906,39.6466 89.5815,39.4272 94.0744,43.922 92.4948,45.7883 84.9092,46.3731 "/>
   <polygon id="_362714608" class="fil0 str1" points="110.81,39.3587 112.538,36.9834 119.155,37.2985 123.433,41.5783 121.583,43.1903 114.352,43.2714 "/>
   <polygon id="_362714800" class="fil0 str1" points="71.6273,16.4986 74.3679,16.5195 80.4882,16.5662 85.8203,16.6069 83.5344,20.3049 75.6402,20.3033 "/>
   <polygon id="_362714992" class="fil0 str1" points="94.4232,51.9541 96.0173,49.6144 103.108,49.3951 107.083,53.3716 105.787,55.864 98.5313,56.2295 "/>
   <polygon id="_362715184" class="fil0 str1" points="123.947,49.5765 125.541,47.2368 132.632,47.0175 136.607,50.994 135.311,53.4864 128.055,53.8519 "/>
   <polygon id="_362715376" class="fil0 str1" points="143.789,50.7128 144.54,47.8975 153.122,47.4712 156.831,51.6639 155.678,54.5742 147.764,54.6894 "/>
   <polygon id="_362715568" class="fil0 str1" points="135.311,53.4864 136.698,50.9322 143.789,50.7128 147.763,54.6894 146.468,57.1818 139.212,57.5473 "/>
   <polygon id="_362715760" class="fil0 str1" points="155.678,54.5743 156.831,51.6639 164.947,51.789 168.922,55.7656 167.626,58.258 160.37,58.6235 "/>
   <polygon id="_362715952" class="fil0 str1" points="85.1279,26.324 87.2952,22.8111 94.3862,22.5917 98.8791,27.0864 97.2995,28.9527 89.7139,29.5376 "/>
   <polygon id="_362716144" class="fil0 str1" points="114.652,23.9464 116.819,20.4335 123.91,20.2141 128.403,24.7088 126.823,26.5751 119.238,27.16 "/>
   <polygon id="_362716336" class="fil0 str1" points="126.823,26.5751 128.403,24.7088 135.194,24.465 138.722,27.9936 137.922,29.7918 130.576,30.3663 "/>
   <polygon id="_362716528" class="fil0 str1" points="137.922,29.7918 139.025,27.7772 145.817,27.5334 149.344,31.0619 148.721,34.0918 142.116,34.3147 "/>
   <polygon id="_362716720" class="fil0 str1" points="105.805,55.8304 107.171,53.2419 114.262,53.0226 118.728,57.0643 117.176,59.3837 109.59,59.9685 "/>
   <polygon id="_362716912" class="fil0 str1" points="97.2462,29.1967 98.8403,26.857 105.931,26.6376 110.424,31.1324 108.845,32.9987 101.259,33.5836 "/>
   <polygon id="_362717104" class="fil0 str1" points="176.26,55.7976 176.986,52.7782 179.868,52.857 183.913,56.5446 186.827,59.0207 181.088,58.9234 "/>
   <polygon id="_362717296" class="fil0 str1" points="67.1781,60.4064 68.7147,58.2421 76.1904,57.6572 80.2031,62.044 78.2792,64.7493 72.6096,65.0187 "/>
   <polygon id="_362717488" class="fil0 str1" points="51.909,44.2424 53.5031,41.9759 60.7589,41.6104 64.3868,45.3391 62.7927,47.6788 55.317,48.2638 "/>
   <polygon id="_362717680" class="fil0 str1" points="60.7589,41.6104 62.5729,39.6362 69.381,39.3353 73.0168,42.9264 71.4777,45.1198 64.3868,45.3391 "/>
   <polygon id="_362717872" class="fil0 str1" points="62.7927,47.6788 64.3868,45.3391 71.4777,45.1198 75.9706,49.6145 74.391,51.4808 66.8054,52.0657 "/>
   <polygon id="_362718064" class="fil0 str1" points="54.3114,49.9795 55.317,48.2638 62.7927,47.6788 66.8054,52.0657 64.8815,54.7709 60.1544,54.7146 "/>
   <polygon id="_362718256" class="fil0 str1" points="38.5113,34.2641 40.1054,31.9975 47.3612,31.632 50.9891,35.3608 49.395,37.7005 41.9193,38.2854 "/>
   <polygon id="_362718448" class="fil0 str1" points="47.3612,31.632 49.1752,29.658 56.1116,29.5239 59.6191,32.948 58.08,35.1414 50.9891,35.3608 "/>
   <polygon id="_362718640" class="fil0 str1" points="49.395,37.7005 50.9891,35.3608 58.08,35.1414 62.5729,39.6362 60.9933,41.5025 53.4077,42.0873 "/>
   <polygon id="_362718832" class="fil0 str1" points="41.1748,39.3341 41.9193,38.2854 49.395,37.7005 53.4077,42.0873 51.4838,44.7926 47.3268,44.3194 "/>
   <polygon id="_362719024" class="fil0 str1" points="25.1136,24.2857 26.7077,22.0192 33.9635,21.6537 37.5914,25.3824 35.9973,27.7221 28.5216,28.3071 "/>
   <polygon id="_362719216" class="fil0 str1" points="33.9635,21.6537 35.7775,19.6795 42.6028,19.7135 46.2214,22.9697 44.6823,25.1631 37.5914,25.3824 "/>
   <polygon id="_362719408" class="fil0 str1" points="35.9973,27.7221 37.5914,25.3824 44.6823,25.1631 49.1752,29.658 47.5956,31.5241 40.01,32.109 "/>
   <polygon id="_362719600" class="fil0 str1" points="28.7496,29.265 28.5216,28.3071 35.9973,27.7221 40.01,32.109 38.0861,34.8142 34.9925,34.3241 "/>
  </g>
 </g>
</svg>
