<?xml version="1.0" encoding="UTF-8"?>
<!DOCTYPE svg PUBLIC "-//W3C//DTD SVG 1.1//EN" "http://www.w3.org/Graphics/SVG/1.1/DTD/svg11.dtd">
<!-- Creator: CorelDRAW -->
<svg xmlns="http://www.w3.org/2000/svg" xml:space="preserve" width="210mm" height="297mm" style="shape-rendering:geometricPrecision; text-rendering:geometricPrecision; image-rendering:optimizeQuality; fill-rule:evenodd; clip-rule:evenodd"
viewBox="0 0 210 297"
 xmlns:xlink="http://www.w3.org/1999/xlink">
 <defs>
  <style type="text/css">
   <![CDATA[
    .str1 {stroke:#333333;stroke-width:0.2}
    .str0 {stroke:#333333;stroke-width:0.5}
    .fil0 {fill:none}
    .fil1 {fill:#96272E}
    .fil2 {fill:#B32E37}
   ]]>
  </style>
 </defs>
 <g id="Слой_x0020_1">
  <metadata id="CorelCorpID_0Corel-Layer"/>
  <line class="fil0 str0" x1="26.7939" y1="39.7416" x2="27.5296" y2= "100.81" />
  <line class="fil0 str0" x1="100.06" y1="75.0997" x2="99.5926" y2= "101.518" />
  <line class="fil0 str0" x1="191.181" y1="75.834" x2="191.485" y2= "102.41" />
  <line class="fil0 str0" x1="2.8634" y1="100.577" x2="201.642" y2= "102.512" />
  <g id="_422734400">
   <polygon id="_362697040" class="fil1 str0" points="9.594,35.7669 85.0596,75.2641 206.725,75.9335 134.359,36.2083 "/>
   <polygon id="_362699008" class="fil2 str0" points="9.594,35.7669 12.4388,37.2558 137.389,37.8713 134.359,36.2083 "/>
   <polygon id="_362699416" class="fil0 str1" points="78.7044,68.3548 80.2985,66.891 87.5543,66.6549 91.1822,69.0631 89.5881,70.5742 82.1124,70.952 "/>
   <polygon id="_362699632" class="fil0 str1" points="69.4765,52.2098 71.3918,50.3691 78.6476,50.133 82.2755,52.5413 80.6814,54.0523 72.926,54.4514 "/>
   <polygon id="_362699824" class="fil0 str1" points="56.1116,45.9597 58.0027,44.0327 65.2585,43.7967 68.8864,46.2049 67.2923,47.716 59.8166,48.0938 "/>
   <polygon id="_362700016" class="fil0 str1" points="42.6029,39.6236 44.2063,37.5481 51.8694,37.4603 55.4973,39.8685 53.9032,41.3796 46.4275,41.7574 "/>
   <polygon id="_362700208" class="fil0 str1" points="82.8012,58.6048 85.0046,56.7699 92.2604,56.5338 95.8883,58.9421 94.2942,60.4532 86.4145,61.0603 "/>
   <polygon id="_362700400" class="fil0 str1" points="112.375,57.2299 114.352,54.8387 121.583,54.7862 125.462,57.5672 123.868,59.0783 115.988,59.6854 "/>
   <polygon id="_362700592" class="fil0 str1" points="75.1491,42.0856 75.6402,40.0047 83.5344,40.0057 87.2952,41.6243 85.1279,43.8931 77.9123,43.9754 "/>
   <polygon id="_362700784" class="fil0 str1" points="96.383,65.0336 98.5313,63.2077 105.787,62.9716 109.59,65.6225 108.091,67.0144 99.8122,67.5048 "/>
   <polygon id="_362700976" class="fil0 str1" points="125.907,63.498 128.055,61.6721 135.311,61.436 139.114,64.0869 137.615,65.4789 129.336,65.9692 "/>
   <polygon id="_362701168" class="fil0 str1" points="146.468,63.8227 147.763,62.2129 155.366,62.1416 160.272,64.782 158.773,66.1739 150.822,66.1545 "/>
   <polygon id="_362701360" class="fil0 str1" points="137.615,65.4789 139.114,64.0869 146.468,63.8227 150.822,66.1545 148.81,67.9693 141.286,68.1664 "/>
   <polygon id="_362701552" class="fil0 str1" points="158.773,66.1739 160.272,64.782 167.626,64.5177 171.98,66.8496 169.968,68.6644 162.445,68.8615 "/>
   <polygon id="_362701744" class="fil0 str1" points="87.4378,48.4364 89.8093,45.8966 97.0651,45.6606 101.259,48.5817 99.7602,49.9737 91.8437,50.2987 "/>
   <polygon id="_362701936" class="fil0 str1" points="116.962,46.9008 119.333,44.3611 126.589,44.125 130.576,46.5038 129.284,48.4381 121.368,48.7631 "/>
   <polygon id="_362702128" class="fil0 str1" points="129.284,48.4381 130.666,46.3689 137.922,46.1328 142.116,49.054 139.603,50.5596 132.701,50.7709 "/>
   <polygon id="_362702320" class="fil0 str1" points="148.721,48.91 149.344,46.9531 153.764,46.8606 157.702,49.0222 159.245,49.8317 152.517,50.2165 "/>
   <polygon id="_362702512" class="fil0 str1" points="139.76,50.7202 142.116,49.054 148.721,48.91 152.517,50.2165 150.428,52.6888 143.216,52.829 "/>
   <polygon id="_362702704" class="fil0 str1" points="99.7602,49.9736 101.354,48.5097 108.61,48.2737 112.538,50.7775 110.944,52.2415 103.168,52.5708 "/>
   <polygon id="_362702896" class="fil0 str1" points="87.5543,66.6549 89.3683,65.3799 96.1293,65.0022 99.8122,67.5049 98.2731,68.9215 91.1822,69.0631 "/>
   <polygon id="_362703088" class="fil0 str1" points="117.128,65.2801 118.728,63.7468 125.735,63.3952 129.386,66.13 127.847,67.5466 120.756,67.6883 "/>
   <polygon id="_362703280" class="fil0 str1" points="89.5881,70.5742 91.1822,69.0631 98.2731,68.9215 101.867,71.3484 100.349,73.4414 93.6008,73.4075 "/>
   <polygon id="_362703472" class="fil0 str1" points="100.349,73.4414 101.867,71.3484 109.677,71.4086 112.335,74.525 109.964,75.635 102.529,75.5448 "/>
   <polygon id="_362703664" class="fil0 str1" points="119.545,69.8768 121.108,67.6813 127.847,67.5466 131.44,69.9736 129.923,72.0665 123.174,72.0327 "/>
   <polygon id="_362703856" class="fil0 str1" points="80.2435,72.652 82.1124,70.952 89.5881,70.5742 93.6008,73.4075 91.6769,75.1547 85.0596,75.2641 "/>
   <polygon id="_362704048" class="fil0 str1" points="71.3368,56.1301 73.2057,54.4302 80.6814,54.0523 84.6941,56.8856 82.7702,58.6328 75.9706,58.9354 "/>
   <polygon id="_362704240" class="fil0 str1" points="58.135,49.6234 59.8166,48.0938 67.2923,47.716 71.305,50.5493 69.3811,52.2964 62.7638,52.4059 "/>
   <polygon id="_362704432" class="fil0 str1" points="44.6823,43.1433 46.4275,41.7574 53.9032,41.3796 57.9159,44.2129 55.992,45.96 49.3747,46.0695 "/>
   <polygon id="_362704624" class="fil0 str1" points="31.1695,37.121 33.6558,37.3604 41.8378,37.4007 44.2063,37.5481 42.6029,39.6237 35.9856,39.7331 "/>
   <polygon id="_362704816" class="fil0 str1" points="21.7234,38.3854 23.592,37.3108 31.1695,37.121 35.7627,39.6122 33.9635,40.8767 26.5395,40.9976 "/>
   <polygon id="_362705008" class="fil0 str1" points="84.9496,62.5309 86.4923,61.218 94.2942,60.4532 98.5313,63.2077 96.383,65.0336 89.3683,65.3799 "/>
   <polygon id="_362705200" class="fil0 str1" points="114.523,61.156 115.801,59.7199 123.868,59.0783 128.105,61.8328 125.735,63.3952 118.721,63.7415 "/>
   <polygon id="_362705392" class="fil0 str1" points="75.9687,45.9551 78.2449,43.9586 85.1279,43.8931 89.7139,45.9686 87.4378,48.4365 80.4616,48.858 "/>
   <polygon id="_362705584" class="fil0 str1" points="106.025,44.1566 107.819,42.5837 114.702,42.5183 119.288,44.5938 117.012,47.0616 110.244,47.1359 "/>
   <polygon id="_362705776" class="fil0 str1" points="98.4763,68.9686 99.8123,67.5048 107.821,66.8909 111.834,69.7242 109.91,71.4713 101.867,71.3484 "/>
   <polygon id="_362705968" class="fil0 str1" points="128,67.4331 129.336,65.9692 137.345,65.3553 141.358,68.1886 139.434,69.9358 131.39,69.8128 "/>
   <polygon id="_362706160" class="fil0 str1" points="148.81,67.9693 150.822,66.1545 158.503,66.0504 162.516,68.8837 160.592,70.6308 152.823,70.8026 "/>
   <polygon id="_362706352" class="fil0 str1" points="141.32,74.3918 142.856,72.4268 150.942,72.5103 154.288,75.7089 150.284,75.7201 143.283,75.7698 "/>
   <polygon id="_362706544" class="fil0 str1" points="160.624,70.7421 162.516,68.8837 169.968,68.6644 173.981,71.4976 172.057,73.2448 164.014,73.1219 "/>
   <polygon id="_362706736" class="fil0 str1" points="169.968,68.6644 171.855,66.8619 179.418,66.9078 183.567,69.6268 181.643,71.3739 173.981,71.4976 "/>
   <polygon id="_362706928" class="fil0 str1" points="150.899,72.5497 152.823,70.8026 160.624,70.7421 164.014,73.1219 162.331,75.8319 154.288,75.7089 "/>
   <polygon id="_362707120" class="fil0 str1" points="129.808,72.0716 131.44,69.9736 139.152,69.9938 142.856,72.4268 141.241,74.5743 133.198,74.4514 "/>
   <polygon id="_362707312" class="fil0 str1" points="119.939,74.6837 123.174,72.0327 130.005,72.2104 133.198,74.4514 131.116,75.7086 123.47,75.6993 "/>
   <polygon id="_362707504" class="fil0 str1" points="108.091,67.0144 109.59,65.6225 117.456,65.2964 121.017,67.8103 119.545,69.8768 111.796,69.7585 "/>
   <polygon id="_362707696" class="fil0 str1" points="109.91,71.4713 111.796,69.7585 119.545,69.8768 123.174,72.0327 119.939,74.6837 112.335,74.525 "/>
   <polygon id="_362707888" class="fil0 str1" points="124.34,40.0988 126.232,38.2404 133.684,38.0211 137.697,40.8544 135.374,42.8086 128.403,42.85 "/>
   <polygon id="_362708080" class="fil0 str1" points="135.374,42.8086 137.697,40.8544 142.726,40.6523 147.455,43.3973 145.817,44.6742 138.722,44.9714 "/>
   <polygon id="_362708272" class="fil0 str1" points="167.755,64.587 169.083,62.9846 176.26,62.9287 181.088,64.9475 179.165,66.6947 171.98,66.8496 "/>
   <polygon id="_362708464" class="fil0 str1" points="164.947,60.3398 165.648,58.658 173.327,58.6 176.986,60.9786 176.26,62.9287 168.922,62.908 "/>
   <polygon id="_362708656" class="fil0 str1" points="179.165,66.6947 181.088,64.9475 186.948,65.0769 192.241,67.9829 191.187,69.596 183.567,69.6268 "/>
   <polygon id="_362708848" class="fil0 str1" points="181.585,71.5795 183.567,69.6268 191.187,69.596 195.376,72.0694 193.143,74.5742 185.413,74.4026 "/>
   <polygon id="_362709040" class="fil0 str1" points="172.128,73.18 173.981,71.4976 181.485,71.5091 185.498,74.3423 183.288,75.9001 175.531,75.7619 "/>
   <polygon id="_362709232" class="fil0 str1" points="193.143,74.5742 195.376,72.0694 199.458,71.9446 206.413,75.7625 204.426,75.9209 196.074,75.8749 "/>
   <polygon id="_362709424" class="fil0 str1" points="89.5815,52.3559 91.8437,50.2987 99.7602,49.9737 103.112,52.4132 100.965,54.8742 94.0744,55.2588 "/>
   <polygon id="_362709616" class="fil0 str1" points="119.105,50.8203 121.368,48.7631 129.284,48.4381 132.636,50.8776 130.488,53.3386 123.598,53.7232 "/>
   <polygon id="_362709808" class="fil0 str1" points="130.488,53.3386 132.594,50.8474 139.603,50.5596 143.216,52.829 140.807,55.4601 133.917,55.8447 "/>
   <polygon id="_362710000" class="fil0 str1" points="150.412,52.7078 152.517,50.2165 159.526,49.9288 162.878,52.3682 161.921,54.7157 153.838,54.9725 "/>
   <polygon id="_362710192" class="fil0 str1" points="140.807,55.4601 143.216,52.829 150.225,52.5413 153.577,54.9807 153.122,57.5511 144.54,57.8264 "/>
   <polygon id="_362710384" class="fil0 str1" points="100.965,54.8742 103.168,52.5708 110.644,52.193 114.352,54.8387 112.118,57.2171 104.647,57.3769 "/>
   <polygon id="_362710576" class="fil0 str1" points="92.3693,37.6495 95.411,37.6646 101.96,37.6968 105.797,37.7157 103.787,40.1764 95.9253,40.066 "/>
   <polygon id="_362710768" class="fil0 str1" points="103.868,40.0925 105.797,37.7157 113.345,37.7529 116.819,40.0888 114.652,42.3576 107.47,42.6791 "/>
   <polygon id="_362710960" class="fil0 str1" points="65.3067,61.9103 66.9008,60.4465 74.1566,60.2104 77.7845,62.6186 76.1904,64.1297 68.7147,64.5075 "/>
   <polygon id="_362711152" class="fil0 str1" points="74.1566,60.2104 75.9706,58.9354 82.7316,58.5576 86.4145,61.0603 84.8754,62.4769 77.7845,62.6186 "/>
   <polygon id="_362711344" class="fil0 str1" points="65.2499,43.6885 67.0639,42.4135 74.9315,41.9986 78.0909,44.0938 75.9687,45.9551 68.8778,46.0967 "/>
   <polygon id="_362711536" class="fil0 str1" points="51.8608,37.3521 54.6016,37.4636 60.5673,37.4929 64.1634,37.5106 62.5796,39.6187 55.4887,39.7603 "/>
   <polygon id="_362711728" class="fil0 str1" points="78.8627,50.0893 80.6767,48.8143 87.4377,48.4366 91.8436,50.2988 89.5815,52.3559 82.4906,52.4975 "/>
   <polygon id="_362711920" class="fil0 str1" points="108.848,48.4253 110.244,47.1359 117.011,47.0617 121.417,48.9239 119.155,50.981 112.538,50.7775 "/>
   <polygon id="_362712112" class="fil0 str1" points="92.3894,56.5271 94.2034,55.252 100.964,54.8743 104.647,57.377 103.108,58.7936 96.0173,58.9353 "/>
   <polygon id="_362712304" class="fil0 str1" points="121.583,54.7862 123.727,53.7165 130.488,53.3387 134.171,55.8414 132.632,57.258 125.541,57.3997 "/>
   <polygon id="_362712496" class="fil0 str1" points="132.632,57.258 134.046,55.8379 140.807,55.4602 144.49,57.9629 143.789,59.6447 136.698,59.7863 "/>
   <polygon id="_362712688" class="fil0 str1" points="153.122,57.5511 153.577,54.9807 161.921,54.7157 165.648,58.658 164.947,60.3398 156.831,60.2589 "/>
   <polygon id="_362712880" class="fil0 str1" points="83.5344,40.0057 85.8202,37.6173 92.2424,37.5633 95.9253,40.066 94.3862,41.4826 87.2953,41.6243 "/>
   <polygon id="_362713072" class="fil0 str1" points="103.108,58.7935 104.647,57.3769 112.118,57.2171 115.801,59.7199 114.262,61.1365 107.171,61.2781 "/>
   <polygon id="_362713264" class="fil0 str1" points="94.3862,41.4826 95.9253,40.066 103.787,40.1764 107.47,42.6791 105.931,44.0957 98.8403,44.2374 "/>
   <polygon id="_362713456" class="fil0 str1" points="161.988,54.763 162.995,52.095 169.669,55.5917 173.496,57.545 173.327,58.6 165.648,58.658 "/>
   <polygon id="_362713648" class="fil0 str1" points="76.1904,64.1297 77.7845,62.6186 84.8754,62.4769 89.3683,65.3799 87.7887,66.5852 80.2031,66.963 "/>
   <polygon id="_362713840" class="fil0 str1" points="67.2837,47.6078 68.8778,46.0967 75.9687,45.9551 80.4616,48.858 78.882,50.0634 71.2964,50.4411 "/>
   <polygon id="_362714032" class="fil0 str1" points="53.8946,41.2714 55.4887,39.7603 62.5796,39.6187 67.0725,42.5216 65.4929,43.727 57.9073,44.1047 "/>
   <polygon id="_362714224" class="fil0 str1" points="16.0593,39.1508 14.09,38.12 21.7234,38.3854 26.7077,41.1129 25.2244,42.5931 21.0749,41.7758 "/>
   <polygon id="_362714416" class="fil0 str1" points="80.8965,54.0086 82.4906,52.4975 89.5815,52.3559 94.0744,55.2588 92.4948,56.4642 84.9092,56.8419 "/>
   <polygon id="_362714608" class="fil0 str1" points="110.81,52.3116 112.538,50.7775 119.155,50.981 123.433,53.7451 121.583,54.7862 114.352,54.8387 "/>
   <polygon id="_362714800" class="fil0 str1" points="71.6273,37.5474 74.3679,37.5609 80.4882,37.591 85.8203,37.6173 83.5344,40.0057 75.6402,40.0047 "/>
   <polygon id="_362714992" class="fil0 str1" points="94.4232,60.4464 96.0173,58.9353 103.108,58.7936 107.083,61.3619 105.787,62.9716 98.5313,63.2077 "/>
   <polygon id="_362715184" class="fil0 str1" points="123.947,58.9108 125.541,57.3997 132.632,57.258 136.607,59.8263 135.311,61.436 128.055,61.6721 "/>
   <polygon id="_362715376" class="fil0 str1" points="143.789,59.6447 144.54,57.8264 153.122,57.5511 156.831,60.2589 155.678,62.1386 147.764,62.2129 "/>
   <polygon id="_362715568" class="fil0 str1" points="135.311,61.436 136.698,59.7863 143.789,59.6447 147.763,62.2129 146.468,63.8227 139.212,64.0587 "/>
   <polygon id="_362715760" class="fil0 str1" points="155.678,62.1386 156.831,60.2589 164.947,60.3398 168.922,62.908 167.626,64.5177 160.37,64.7538 "/>
   <polygon id="_362715952" class="fil0 str1" points="85.1279,43.8931 87.2952,41.6243 94.3862,41.4826 98.8791,44.3856 97.2995,45.5909 89.7139,45.9686 "/>
   <polygon id="_362716144" class="fil0 str1" points="114.652,42.3576 116.819,40.0888 123.91,39.947 128.403,42.85 126.823,44.0553 119.238,44.4331 "/>
   <polygon id="_362716336" class="fil0 str1" points="126.823,44.0553 128.403,42.85 135.194,42.6925 138.722,44.9714 137.922,46.1328 130.576,46.5038 "/>
   <polygon id="_362716528" class="fil0 str1" points="137.922,46.1328 139.025,44.8317 145.817,44.6742 149.344,46.9531 148.721,48.91 142.116,49.054 "/>
   <polygon id="_362716720" class="fil0 str1" points="105.805,62.9499 107.171,61.2781 114.262,61.1365 118.728,63.7468 117.176,65.2448 109.59,65.6225 "/>
   <polygon id="_362716912" class="fil0 str1" points="97.2462,45.7485 98.8403,44.2374 105.931,44.0957 110.424,46.9987 108.845,48.204 101.259,48.5817 "/>
   <polygon id="_362717104" class="fil0 str1" points="176.26,62.9287 176.986,60.9786 179.868,61.0295 183.913,63.4112 186.827,65.0103 181.088,64.9475 "/>
   <polygon id="_362717296" class="fil0 str1" points="67.1781,65.9053 68.7147,64.5075 76.1904,64.1297 80.2031,66.963 78.2792,68.7101 72.6096,68.8842 "/>
   <polygon id="_362717488" class="fil0 str1" points="51.909,55.4658 53.5031,54.0019 60.7589,53.7659 64.3868,56.1741 62.7927,57.6852 55.317,58.063 "/>
   <polygon id="_362717680" class="fil0 str1" points="60.7589,53.7659 62.5729,52.4908 69.381,52.2965 73.0168,54.6158 71.4777,56.0324 64.3868,56.1741 "/>
   <polygon id="_362717872" class="fil0 str1" points="62.7927,57.6852 64.3868,56.1741 71.4777,56.0324 75.9706,58.9354 74.391,60.1407 66.8054,60.5184 "/>
   <polygon id="_362718064" class="fil0 str1" points="54.3114,59.1711 55.317,58.063 62.7927,57.6852 66.8054,60.5184 64.8815,62.2656 60.1544,62.2293 "/>
   <polygon id="_362718256" class="fil0 str1" points="38.5113,49.0212 40.1054,47.5574 47.3612,47.3213 50.9891,49.7295 49.395,51.2406 41.9193,51.6184 "/>
   <polygon id="_362718448" class="fil0 str1" points="47.3612,47.3213 49.1752,46.0464 56.1116,45.9598 59.6191,48.1713 58.08,49.5879 50.9891,49.7295 "/>
   <polygon id="_362718640" class="fil0 str1" points="49.395,51.2406 50.9891,49.7295 58.08,49.5879 62.5729,52.4908 60.9933,53.6962 53.4077,54.0739 "/>
   <polygon id="_362718832" class="fil0 str1" points="41.1748,52.2957 41.9193,51.6184 49.395,51.2406 53.4077,54.0739 51.4838,55.8211 47.3268,55.5155 "/>
   <polygon id="_362719024" class="fil0 str1" points="25.1136,42.5767 26.7077,41.1129 33.9635,40.8768 37.5914,43.285 35.9973,44.7961 28.5216,45.1739 "/>
   <polygon id="_362719216" class="fil0 str1" points="33.9635,40.8768 35.7775,39.6018 42.6028,39.6238 46.2214,41.7267 44.6823,43.1433 37.5914,43.285 "/>
   <polygon id="_362719408" class="fil0 str1" points="35.9973,44.7961 37.5914,43.285 44.6823,43.1433 49.1752,46.0464 47.5956,47.2516 40.01,47.6294 "/>
   <polygon id="_362719600" class="fil0 str1" points="28.7496,45.7926 28.5216,45.1739 35.9973,44.7961 40.01,47.6294 38.0861,49.3765 34.9925,49.06 "/>
  </g>
 </g>
</svg>
