<?xml version="1.0" encoding="UTF-8"?>
<!DOCTYPE svg PUBLIC "-//W3C//DTD SVG 1.1//EN" "http://www.w3.org/Graphics/SVG/1.1/DTD/svg11.dtd">
<!-- Creator: CorelDRAW -->
<svg xmlns="http://www.w3.org/2000/svg" xml:space="preserve" width="210mm" height="297mm" style="shape-rendering:geometricPrecision; text-rendering:geometricPrecision; image-rendering:optimizeQuality; fill-rule:evenodd; clip-rule:evenodd"
viewBox="0 0 210 297"
 xmlns:xlink="http://www.w3.org/1999/xlink">
 <defs>
  <style type="text/css">
   <![CDATA[
    .str1 {stroke:#333333;stroke-width:0.2}
    .str0 {stroke:#333333;stroke-width:0.5}
    .fil0 {fill:none}
    .fil1 {fill:#96272E}
    .fil2 {fill:#B32E37}
   ]]>
  </style>
 </defs>
 <g id="Слой_x0020_1">
  <metadata id="CorelCorpID_0Corel-Layer"/>
  <line class="fil0 str0" x1="26.7939" y1="17.5952" x2="27.5296" y2= "100.81" />
  <line class="fil0 str0" x1="100.06" y1="75.0997" x2="99.5926" y2= "101.518" />
  <line class="fil0 str0" x1="191.181" y1="75.834" x2="191.485" y2= "102.41" />
  <line class="fil0 str0" x1="2.8634" y1="100.577" x2="201.642" y2= "102.512" />
  <g id="_422734400">
   <polygon id="_362697040" class="fil1 str0" points="9.594,1.0417 85.0596,74.6854 206.725,75.9335 134.359,1.8647 "/>
   <polygon id="_362699008" class="fil2 str0" points="9.594,1.0417 12.4388,3.8179 137.389,4.9653 134.359,1.8647 "/>
   <polygon id="_362699416" class="fil0 str1" points="78.7044,61.8028 80.2985,59.0735 87.5543,58.6333 91.1822,63.1235 89.5881,65.941 82.1124,66.6454 "/>
   <polygon id="_362699632" class="fil0 str1" points="69.4765,31.7 71.3918,28.2679 78.6476,27.8278 82.2755,32.318 80.6814,35.1355 72.926,35.8795 "/>
   <polygon id="_362699824" class="fil0 str1" points="56.1116,20.0465 58.0027,16.4536 65.2585,16.0134 68.8864,20.5036 67.2923,23.3211 59.8166,24.0255 "/>
   <polygon id="_362700016" class="fil0 str1" points="42.6029,8.2326 44.2063,4.3628 51.8694,4.1991 55.4973,8.6893 53.9032,11.5067 46.4275,12.2112 "/>
   <polygon id="_362700208" class="fil0 str1" points="82.8012,43.6236 85.0046,40.2024 92.2604,39.7623 95.8883,44.2525 94.2942,47.0699 86.4145,48.2019 "/>
   <polygon id="_362700400" class="fil0 str1" points="112.375,41.0602 114.352,36.6015 121.583,36.5037 125.462,41.689 123.868,44.5065 115.988,45.6385 "/>
   <polygon id="_362700592" class="fil0 str1" points="75.1491,12.8231 75.6402,8.9431 83.5344,8.9451 87.2952,11.9631 85.1279,16.1933 77.9123,16.3467 "/>
   <polygon id="_362700784" class="fil0 str1" points="96.383,55.6103 98.5313,52.2058 105.787,51.7656 109.59,56.7083 108.091,59.3036 99.8122,60.2179 "/>
   <polygon id="_362700976" class="fil0 str1" points="125.907,52.7472 128.055,49.3427 135.311,48.9025 139.114,53.8452 137.615,56.4405 129.336,57.3548 "/>
   <polygon id="_362701168" class="fil0 str1" points="146.468,53.3525 147.763,50.3511 155.366,50.218 160.272,55.1412 158.773,57.7365 150.822,57.7003 "/>
   <polygon id="_362701360" class="fil0 str1" points="137.615,56.4405 139.114,53.8452 146.468,53.3525 150.822,57.7003 148.81,61.084 141.286,61.4516 "/>
   <polygon id="_362701552" class="fil0 str1" points="158.773,57.7365 160.272,55.1412 167.626,54.6485 171.98,58.9963 169.968,62.38 162.445,62.7476 "/>
   <polygon id="_362701744" class="fil0 str1" points="87.4378,24.6643 89.8093,19.9289 97.0651,19.4887 101.259,24.9353 99.7602,27.5307 91.8437,28.1366 "/>
   <polygon id="_362701936" class="fil0 str1" points="116.962,21.8012 119.333,17.0658 126.589,16.6256 130.576,21.061 129.284,24.6675 121.368,25.2735 "/>
   <polygon id="_362702128" class="fil0 str1" points="129.284,24.6675 130.666,20.8094 137.922,20.3692 142.116,25.8158 139.603,28.6231 132.701,29.0171 "/>
   <polygon id="_362702320" class="fil0 str1" points="148.721,25.5474 149.344,21.8987 153.764,21.7262 157.702,25.7566 159.245,27.2659 152.517,27.9835 "/>
   <polygon id="_362702512" class="fil0 str1" points="139.76,28.9226 142.116,25.8158 148.721,25.5474 152.517,27.9835 150.428,32.5932 143.216,32.8546 "/>
   <polygon id="_362702704" class="fil0 str1" points="99.7602,27.5305 101.354,24.8011 108.61,24.361 112.538,29.0294 110.944,31.7591 103.168,32.3731 "/>
   <polygon id="_362702896" class="fil0 str1" points="87.5543,58.6333 89.3683,56.256 96.1293,55.5517 99.8122,60.2181 98.2731,62.8594 91.1822,63.1235 "/>
   <polygon id="_362703088" class="fil0 str1" points="117.128,56.0699 118.728,53.2111 125.735,52.5555 129.386,57.6546 127.847,60.2959 120.756,60.5601 "/>
   <polygon id="_362703280" class="fil0 str1" points="89.5881,65.941 91.1822,63.1235 98.2731,62.8594 101.867,67.3845 100.349,71.2868 93.6008,71.2237 "/>
   <polygon id="_362703472" class="fil0 str1" points="100.349,71.2868 101.867,67.3845 109.677,67.4968 112.335,73.3073 109.964,75.3769 102.529,75.2087 "/>
   <polygon id="_362703664" class="fil0 str1" points="119.545,64.6407 121.108,60.5471 127.847,60.2959 131.44,64.821 129.923,68.7234 123.174,68.6603 "/>
   <polygon id="_362703856" class="fil0 str1" points="80.2435,69.815 82.1124,66.6454 89.5881,65.941 93.6008,71.2237 91.6769,74.4814 85.0596,74.6854 "/>
   <polygon id="_362704048" class="fil0 str1" points="71.3368,39.0094 73.2057,35.8399 80.6814,35.1355 84.6941,40.4182 82.7702,43.6758 75.9706,44.24 "/>
   <polygon id="_362704240" class="fil0 str1" points="58.135,26.8776 59.8166,24.0255 67.2923,23.3211 71.305,28.6038 69.3811,31.8615 62.7638,32.0655 "/>
   <polygon id="_362704432" class="fil0 str1" points="44.6823,14.7953 46.4275,12.2112 53.9032,11.5067 57.9159,16.7895 55.992,20.0471 49.3747,20.2512 "/>
   <polygon id="_362704624" class="fil0 str1" points="31.1695,3.5664 33.6558,4.0128 41.8378,4.0879 44.2063,4.3628 42.6029,8.2328 35.9856,8.4368 "/>
   <polygon id="_362704816" class="fil0 str1" points="21.7234,5.924 23.592,3.9204 31.1695,3.5664 35.7627,8.2115 33.9635,10.5691 26.5395,10.7944 "/>
   <polygon id="_362705008" class="fil0 str1" points="84.9496,50.9439 86.4923,48.496 94.2942,47.0699 98.5313,52.2058 96.383,55.6103 89.3683,56.256 "/>
   <polygon id="_362705200" class="fil0 str1" points="114.523,48.3805 115.801,45.7027 123.868,44.5065 128.105,49.6424 125.735,52.5555 118.721,53.2011 "/>
   <polygon id="_362705392" class="fil0 str1" points="75.9687,20.0378 78.2449,16.3154 85.1279,16.1933 89.7139,20.0631 87.4378,24.6645 80.4616,25.4505 "/>
   <polygon id="_362705584" class="fil0 str1" points="106.025,16.6846 107.819,13.7519 114.702,13.6299 119.288,17.4997 117.012,22.101 110.244,22.2396 "/>
   <polygon id="_362705776" class="fil0 str1" points="98.4763,62.9473 99.8123,60.2179 107.821,59.0733 111.834,64.356 109.91,67.6137 101.867,67.3845 "/>
   <polygon id="_362705968" class="fil0 str1" points="128,60.0842 129.336,57.3548 137.345,56.2102 141.358,61.4929 139.434,64.7506 131.39,64.5213 "/>
   <polygon id="_362706160" class="fil0 str1" points="148.81,61.084 150.822,57.7003 158.503,57.5062 162.516,62.7889 160.592,66.0465 152.823,66.3667 "/>
   <polygon id="_362706352" class="fil0 str1" points="141.32,73.059 142.856,69.3952 150.942,69.5508 154.288,75.5148 150.284,75.5356 143.283,75.6284 "/>
   <polygon id="_362706544" class="fil0 str1" points="160.624,66.254 162.516,62.7889 169.968,62.38 173.981,67.6627 172.057,70.9203 164.014,70.6911 "/>
   <polygon id="_362706736" class="fil0 str1" points="169.968,62.38 171.855,59.0193 179.418,59.1049 183.567,64.1744 181.643,67.432 173.981,67.6627 "/>
   <polygon id="_362706928" class="fil0 str1" points="150.899,69.6244 152.823,66.3667 160.624,66.254 164.014,70.6911 162.331,75.744 154.288,75.5148 "/>
   <polygon id="_362707120" class="fil0 str1" points="129.808,68.7328 131.44,64.821 139.152,64.8588 142.856,69.3952 141.241,73.3992 133.198,73.17 "/>
   <polygon id="_362707312" class="fil0 str1" points="119.939,73.6033 123.174,68.6603 130.005,68.9917 133.198,73.17 131.116,75.5142 123.47,75.4969 "/>
   <polygon id="_362707504" class="fil0 str1" points="108.091,59.3036 109.59,56.7083 117.456,56.1003 121.017,60.7875 119.545,64.6407 111.796,64.42 "/>
   <polygon id="_362707696" class="fil0 str1" points="109.91,67.6137 111.796,64.42 119.545,64.6407 123.174,68.6603 119.939,73.6033 112.335,73.3073 "/>
   <polygon id="_362707888" class="fil0 str1" points="124.34,9.1187 126.232,5.6536 133.684,5.2447 137.697,10.5274 135.374,14.1711 128.403,14.2483 "/>
   <polygon id="_362708080" class="fil0 str1" points="135.374,14.1711 137.697,10.5274 142.726,10.1507 147.455,15.2688 145.817,17.6496 138.722,18.2038 "/>
   <polygon id="_362708272" class="fil0 str1" points="167.755,54.7776 169.083,51.79 176.26,51.6857 181.088,55.4498 179.165,58.7075 171.98,58.9963 "/>
   <polygon id="_362708464" class="fil0 str1" points="164.947,46.8585 165.648,43.7228 173.327,43.6146 176.986,48.0497 176.26,51.6857 168.922,51.6471 "/>
   <polygon id="_362708656" class="fil0 str1" points="179.165,58.7075 181.088,55.4498 186.948,55.691 192.241,61.1093 191.187,64.1171 183.567,64.1744 "/>
   <polygon id="_362708848" class="fil0 str1" points="181.585,67.8153 183.567,64.1744 191.187,64.1171 195.376,68.7288 193.143,73.399 185.413,73.0792 "/>
   <polygon id="_362709040" class="fil0 str1" points="172.128,70.7996 173.981,67.6627 181.485,67.684 185.498,72.9667 183.288,75.8712 175.531,75.6136 "/>
   <polygon id="_362709232" class="fil0 str1" points="193.143,73.399 195.376,68.7288 199.458,68.4961 206.413,75.6148 204.426,75.91 196.074,75.8243 "/>
   <polygon id="_362709424" class="fil0 str1" points="89.5815,31.9723 91.8437,28.1366 99.7602,27.5307 103.112,32.0792 100.965,36.6678 94.0744,37.385 "/>
   <polygon id="_362709616" class="fil0 str1" points="119.105,29.1092 121.368,25.2735 129.284,24.6675 132.636,29.216 130.488,33.8047 123.598,34.5218 "/>
   <polygon id="_362709808" class="fil0 str1" points="130.488,33.8047 132.594,29.1596 139.603,28.6231 143.216,32.8546 140.807,37.7602 133.917,38.4773 "/>
   <polygon id="_362710000" class="fil0 str1" points="150.412,32.6286 152.517,27.9835 159.526,27.4469 162.878,31.9954 161.921,36.3723 153.838,36.8511 "/>
   <polygon id="_362710192" class="fil0 str1" points="140.807,37.7602 143.216,32.8546 150.225,32.318 153.577,36.8665 153.122,41.6589 144.54,42.1723 "/>
   <polygon id="_362710384" class="fil0 str1" points="100.965,36.6678 103.168,32.3731 110.644,31.6686 114.352,36.6015 112.118,41.0363 104.647,41.3342 "/>
   <polygon id="_362710576" class="fil0 str1" points="92.3693,4.5519 95.411,4.58 101.96,4.64 105.797,4.6753 103.787,9.2633 95.9253,9.0575 "/>
   <polygon id="_362710768" class="fil0 str1" points="103.868,9.1068 105.797,4.6753 113.345,4.7446 116.819,9.0999 114.652,13.3302 107.47,13.9297 "/>
   <polygon id="_362710960" class="fil0 str1" points="65.3067,49.7868 66.9008,47.0574 74.1566,46.6173 77.7845,51.1075 76.1904,53.925 68.7147,54.6294 "/>
   <polygon id="_362711152" class="fil0 str1" points="74.1566,46.6173 75.9706,44.24 82.7316,43.5357 86.4145,48.2021 84.8754,50.8433 77.7845,51.1075 "/>
   <polygon id="_362711344" class="fil0 str1" points="65.2499,15.8118 67.0639,13.4344 74.9315,12.661 78.0909,16.5675 75.9687,20.0378 68.8778,20.302 "/>
   <polygon id="_362711536" class="fil0 str1" points="51.8608,3.9974 54.6016,4.2052 60.5673,4.2599 64.1634,4.2929 62.5796,8.2235 55.4887,8.4876 "/>
   <polygon id="_362711728" class="fil0 str1" points="78.8627,27.7463 80.6767,25.3689 87.4377,24.6646 91.8436,28.1368 89.5815,31.9723 82.4906,32.2364 "/>
   <polygon id="_362711920" class="fil0 str1" points="108.848,24.6437 110.244,22.2396 117.011,22.1012 121.417,25.5733 119.155,29.4089 112.538,29.0294 "/>
   <polygon id="_362712112" class="fil0 str1" points="92.3894,39.7496 94.2034,37.3723 100.964,36.668 104.647,41.3344 103.108,43.9757 96.0173,44.2398 "/>
   <polygon id="_362712304" class="fil0 str1" points="121.583,36.5038 123.727,34.5092 130.488,33.8049 134.171,38.4713 132.632,41.1125 125.541,41.3767 "/>
   <polygon id="_362712496" class="fil0 str1" points="132.632,41.1125 134.046,38.4647 140.807,37.7604 144.49,42.4268 143.789,45.5625 136.698,45.8265 "/>
   <polygon id="_362712688" class="fil0 str1" points="153.122,41.6589 153.577,36.8665 161.921,36.3723 165.648,43.7228 164.947,46.8585 156.831,46.7078 "/>
   <polygon id="_362712880" class="fil0 str1" points="83.5344,8.9451 85.8202,4.4919 92.2424,4.3911 95.9253,9.0575 94.3862,11.6988 87.2953,11.9629 "/>
   <polygon id="_362713072" class="fil0 str1" points="103.108,43.9755 104.647,41.3342 112.118,41.0363 115.801,45.7027 114.262,48.344 107.171,48.6081 "/>
   <polygon id="_362713264" class="fil0 str1" points="94.3862,11.6988 95.9253,9.0575 103.787,9.2633 107.47,13.9297 105.931,16.571 98.8403,16.8351 "/>
   <polygon id="_362713456" class="fil0 str1" points="161.988,36.4604 162.995,31.4859 169.669,38.0056 173.496,41.6475 173.327,43.6146 165.648,43.7228 "/>
   <polygon id="_362713648" class="fil0 str1" points="76.1904,53.925 77.7845,51.1075 84.8754,50.8433 89.3683,56.256 87.7887,58.5034 80.2031,59.2077 "/>
   <polygon id="_362713840" class="fil0 str1" points="67.2837,23.1194 68.8778,20.302 75.9687,20.0378 80.4616,25.4505 78.882,27.6979 71.2964,28.4022 "/>
   <polygon id="_362714032" class="fil0 str1" points="53.8946,11.3051 55.4887,8.4876 62.5796,8.2235 67.0725,13.6361 65.4929,15.8835 57.9073,16.5878 "/>
   <polygon id="_362714224" class="fil0 str1" points="16.0593,7.351 14.09,5.4292 21.7234,5.924 26.7077,11.0094 25.2244,13.7694 21.0749,12.2455 "/>
   <polygon id="_362714416" class="fil0 str1" points="80.8965,35.0539 82.4906,32.2364 89.5815,31.9723 94.0744,37.385 92.4948,39.6324 84.9092,40.3367 "/>
   <polygon id="_362714608" class="fil0 str1" points="110.81,31.8898 112.538,29.0294 119.155,29.4089 123.433,34.5627 121.583,36.5038 114.352,36.6015 "/>
   <polygon id="_362714800" class="fil0 str1" points="71.6273,4.3615 74.3679,4.3866 80.4882,4.4429 85.8203,4.4919 83.5344,8.9451 75.6402,8.9431 "/>
   <polygon id="_362714992" class="fil0 str1" points="94.4232,47.0573 96.0173,44.2398 103.108,43.9757 107.083,48.7643 105.787,51.7656 98.5313,52.2058 "/>
   <polygon id="_362715184" class="fil0 str1" points="123.947,44.1942 125.541,41.3767 132.632,41.1125 136.607,45.9011 135.311,48.9025 128.055,49.3427 "/>
   <polygon id="_362715376" class="fil0 str1" points="143.789,45.5625 144.54,42.1723 153.122,41.6589 156.831,46.7078 155.678,50.2124 147.764,50.3511 "/>
   <polygon id="_362715568" class="fil0 str1" points="135.311,48.9025 136.698,45.8267 143.789,45.5625 147.763,50.3511 146.468,53.3525 139.212,53.7927 "/>
   <polygon id="_362715760" class="fil0 str1" points="155.678,50.2126 156.831,46.7078 164.947,46.8585 168.922,51.6471 167.626,54.6485 160.37,55.0886 "/>
   <polygon id="_362715952" class="fil0 str1" points="85.1279,16.1933 87.2952,11.9631 94.3862,11.6988 98.8791,17.1114 97.2995,19.3588 89.7139,20.0631 "/>
   <polygon id="_362716144" class="fil0 str1" points="114.652,13.3302 116.819,9.0999 123.91,8.8357 128.403,14.2483 126.823,16.4957 119.238,17.2 "/>
   <polygon id="_362716336" class="fil0 str1" points="126.823,16.4957 128.403,14.2483 135.194,13.9547 138.722,18.2038 137.922,20.3692 130.576,21.061 "/>
   <polygon id="_362716528" class="fil0 str1" points="137.922,20.3692 139.025,17.9432 145.817,17.6496 149.344,21.8987 148.721,25.5474 142.116,25.8158 "/>
   <polygon id="_362716720" class="fil0 str1" points="105.805,51.7251 107.171,48.6081 114.262,48.344 118.728,53.2111 117.176,56.004 109.59,56.7083 "/>
   <polygon id="_362716912" class="fil0 str1" points="97.2462,19.6526 98.8403,16.8351 105.931,16.571 110.424,21.9836 108.845,24.231 101.259,24.9353 "/>
   <polygon id="_362717104" class="fil0 str1" points="176.26,51.6857 176.986,48.0497 179.868,48.1446 183.913,52.5853 186.827,55.5669 181.088,55.4498 "/>
   <polygon id="_362717296" class="fil0 str1" points="67.1781,57.2356 68.7147,54.6294 76.1904,53.925 80.2031,59.2077 78.2792,62.4653 72.6096,62.7898 "/>
   <polygon id="_362717488" class="fil0 str1" points="51.909,37.7708 53.5031,35.0414 60.7589,34.6013 64.3868,39.0915 62.7927,41.9089 55.317,42.6134 "/>
   <polygon id="_362717680" class="fil0 str1" points="60.7589,34.6013 62.5729,32.2239 69.381,31.8616 73.0168,36.186 71.4777,38.8273 64.3868,39.0915 "/>
   <polygon id="_362717872" class="fil0 str1" points="62.7927,41.9089 64.3868,39.0915 71.4777,38.8273 75.9706,44.24 74.391,46.4874 66.8054,47.1917 "/>
   <polygon id="_362718064" class="fil0 str1" points="54.3114,44.6795 55.317,42.6134 62.7927,41.9089 66.8054,47.1917 64.8815,50.4493 60.1544,50.3816 "/>
   <polygon id="_362718256" class="fil0 str1" points="38.5113,25.7548 40.1054,23.0254 47.3612,22.5853 50.9891,27.0754 49.395,29.8929 41.9193,30.5974 "/>
   <polygon id="_362718448" class="fil0 str1" points="47.3612,22.5853 49.1752,20.2081 56.1116,20.0466 59.6191,24.17 58.08,26.8113 50.9891,27.0754 "/>
   <polygon id="_362718640" class="fil0 str1" points="49.395,29.8929 50.9891,27.0754 58.08,26.8113 62.5729,32.2239 60.9933,34.4714 53.4077,35.1757 "/>
   <polygon id="_362718832" class="fil0 str1" points="41.1748,31.8602 41.9193,30.5974 49.395,29.8929 53.4077,35.1757 51.4838,38.4333 47.3268,37.8636 "/>
   <polygon id="_362719024" class="fil0 str1" points="25.1136,13.7388 26.7077,11.0094 33.9635,10.5692 37.5914,15.0594 35.9973,17.8769 28.5216,18.5814 "/>
   <polygon id="_362719216" class="fil0 str1" points="33.9635,10.5692 35.7775,8.1919 42.6028,8.2329 46.2214,12.154 44.6823,14.7953 37.5914,15.0594 "/>
   <polygon id="_362719408" class="fil0 str1" points="35.9973,17.8769 37.5914,15.0594 44.6823,14.7953 49.1752,20.2081 47.5956,22.4553 40.01,23.1596 "/>
   <polygon id="_362719600" class="fil0 str1" points="28.7496,19.7349 28.5216,18.5814 35.9973,17.8769 40.01,23.1596 38.0861,26.4173 34.9925,25.827 "/>
  </g>
 </g>
</svg>
