<?xml version="1.0" encoding="UTF-8"?>
<!DOCTYPE svg PUBLIC "-//W3C//DTD SVG 1.1//EN" "http://www.w3.org/Graphics/SVG/1.1/DTD/svg11.dtd">
<!-- Creator: CorelDRAW -->
<svg xmlns="http://www.w3.org/2000/svg" xml:space="preserve" width="210mm" height="297mm" style="shape-rendering:geometricPrecision; text-rendering:geometricPrecision; image-rendering:optimizeQuality; fill-rule:evenodd; clip-rule:evenodd"
viewBox="0 0 210 297"
 xmlns:xlink="http://www.w3.org/1999/xlink">
 <defs>
  <style type="text/css">
   <![CDATA[
    .str1 {stroke:#333333;stroke-width:0.25}
    .str0 {stroke:#333333;stroke-width:0.5}
    .fil0 {fill:none}
    .fil1 {fill:#9E312B}
    .fil2 {fill:#B83932}
   ]]>
  </style>
 </defs>
 <g id="Слой_x0020_1">
  <metadata id="CorelCorpID_0Corel-Layer"/>
  <line class="fil0 str0" x1="26.7939" y1="39.7416" x2="27.5296" y2= "100.81" />
  <line class="fil0 str0" x1="100.06" y1="75.0997" x2="99.5926" y2= "101.518" />
  <line class="fil0 str0" x1="191.181" y1="75.834" x2="191.485" y2= "102.41" />
  <line class="fil0 str0" x1="2.8634" y1="100.577" x2="201.642" y2= "102.512" />
  <g id="_365274448">
   <polygon id="_362758280" class="fil1 str1" points="9.594,36.9652 85.0596,75.2968 206.725,75.9465 134.359,37.3935 "/>
   <polygon id="_362748056" class="fil2 str1" points="9.3377,36.8823 12.1825,38.3273 137.133,38.9246 134.103,37.3107 "/>
   <g id="_197247856">
    <path id="_197247352" class="fil0 str1" d="M79.7756 72.3017c1.2215,-0.8397 1.6326,-0.9163 1.9735,-0.9494 0.1454,-0.0142 0.6497,0.0095 1.1311,0.1948 0.6474,0.2493 1.7385,0.978 1.7385,0.978 0.721,-0.4975 1.6577,-1.3542 2.7556,-1.1345 0.3518,0.0704 0.5383,0.1841 0.8449,0.3521l1.2384 0.681c0.3121,-0.2014 0.5705,-0.4832 0.8826,-0.6847 0.2678,-0.2262 0.4983,-0.365 0.975,-0.4109 0.3286,-0.003 0.6093,0.0158 0.9858,0.2234 0.4195,0.2307 0.8983,0.524 1.4519,0.8843 0.175,-0.1191 0.3615,-0.3016 0.5365,-0.4207 0.273,-0.2037 0.5298,-0.4118 0.9474,-0.5127 0.2729,-0.0547 0.5857,-0.0805 0.8894,0.0312 0.4696,0.1445 1.3836,0.6003 1.8911,0.8933"/>
    <path id="_197248648" class="fil0 str1" d="M97.8836 72.4205c1.2215,-0.8397 1.6326,-0.9163 1.9735,-0.9494 0.1454,-0.0142 0.6497,0.0095 1.1311,0.1948 0.6474,0.2493 1.7385,0.978 1.7385,0.978 0.721,-0.4975 1.6577,-1.3542 2.7556,-1.1345 0.3518,0.0704 0.5383,0.1841 0.8449,0.3521l1.2384 0.681c0.3121,-0.2014 0.5705,-0.4832 0.8826,-0.6846 0.2678,-0.2263 0.4983,-0.3651 0.975,-0.411 0.3286,-0.003 0.6093,0.0158 0.9858,0.2234 0.4195,0.2307 0.8983,0.524 1.4519,0.8843 0.175,-0.1191 0.3615,-0.3016 0.5365,-0.4207 0.273,-0.2037 0.5298,-0.4118 0.9474,-0.5127 0.2729,-0.0547 0.5857,-0.0805 0.8894,0.0312 0.4696,0.1445 1.3836,0.6003 1.8911,0.8934"/>
    <path id="_197247448" class="fil0 str1" d="M115.94 72.6046c1.2215,-0.8397 1.6326,-0.9163 1.9735,-0.9494 0.1454,-0.0142 0.6497,0.0095 1.1311,0.1948 0.6474,0.2493 1.7385,0.978 1.7385,0.978 0.721,-0.4975 1.6577,-1.3542 2.7556,-1.1346 0.3518,0.0705 0.5383,0.1842 0.8449,0.3522l1.2384 0.681c0.3121,-0.2014 0.5705,-0.4832 0.8826,-0.6847 0.2678,-0.2262 0.4983,-0.365 0.975,-0.4109 0.3286,-0.003 0.6093,0.0158 0.9858,0.2234 0.4195,0.2306 0.8983,0.5239 1.4519,0.8843 0.175,-0.1191 0.3615,-0.3016 0.5365,-0.4207 0.273,-0.2037 0.5298,-0.4118 0.9474,-0.5128 0.2729,-0.0546 0.5857,-0.0804 0.8894,0.0313 0.4696,0.1445 1.3836,0.6003 1.8911,0.8933"/>
    <path id="_197250208" class="fil0 str1" d="M133.996 72.7887c1.2215,-0.8397 1.6326,-0.9163 1.9735,-0.9494 0.1454,-0.0142 0.6497,0.0095 1.1311,0.1948 0.6474,0.2493 1.7385,0.9779 1.7385,0.9779 0.721,-0.4974 1.6577,-1.3542 2.7556,-1.1345 0.3518,0.0705 0.5383,0.1842 0.8449,0.3522l1.2384 0.681c0.3121,-0.2015 0.5705,-0.4833 0.8826,-0.6847 0.2678,-0.2262 0.4983,-0.3651 0.975,-0.4109 0.3286,-0.003 0.6093,0.0157 0.9858,0.2233 0.4195,0.2307 0.8983,0.524 1.4519,0.8844 0.175,-0.1191 0.3615,-0.3016 0.5365,-0.4207 0.273,-0.2037 0.5298,-0.4118 0.9474,-0.5128 0.2729,-0.0547 0.5857,-0.0804 0.8894,0.0313 0.4696,0.1445 1.3836,0.6003 1.8911,0.8933"/>
    <path id="_197256568" class="fil0 str1" d="M152.053 72.9728c1.2215,-0.8397 1.6326,-0.9164 1.9735,-0.9495 0.1454,-0.0141 0.6497,0.0096 1.1311,0.1949 0.6474,0.2493 1.7385,0.9779 1.7385,0.9779 0.721,-0.4974 1.6577,-1.3542 2.7556,-1.1345 0.3518,0.0705 0.5383,0.1842 0.8449,0.3522l1.2384 0.681c0.3121,-0.2015 0.5705,-0.4833 0.8826,-0.6847 0.2678,-0.2263 0.4983,-0.3651 0.975,-0.4109 0.3286,-0.003 0.6093,0.0157 0.9858,0.2233 0.4195,0.2307 0.8983,0.524 1.4519,0.8843 0.175,-0.119 0.3615,-0.3015 0.5365,-0.4207 0.273,-0.2036 0.5298,-0.4117 0.9474,-0.5127 0.2729,-0.0547 0.5857,-0.0804 0.8894,0.0313 0.4696,0.1445 1.3836,0.6003 1.8911,0.8933"/>
    <path id="_197256688" class="fil0 str1" d="M170.109 73.1569c1.2215,-0.8398 1.6326,-0.9164 1.9735,-0.9495 0.1454,-0.0141 0.6497,0.0095 1.1311,0.1949 0.6474,0.2492 1.7385,0.9779 1.7385,0.9779 0.721,-0.4975 1.6577,-1.3542 2.7556,-1.1345 0.3518,0.0704 0.5383,0.1842 0.8449,0.3522l1.2384 0.6809c0.3121,-0.2014 0.5705,-0.4832 0.8826,-0.6846 0.2678,-0.2263 0.4983,-0.3651 0.975,-0.4109 0.3286,-0.003 0.6093,0.0157 0.9858,0.2233 0.4195,0.2307 0.8983,0.524 1.4519,0.8843 0.175,-0.119 0.3615,-0.3015 0.5365,-0.4207 0.273,-0.2036 0.5298,-0.4117 0.9474,-0.5127 0.2729,-0.0547 0.5857,-0.0805 0.8894,0.0313 0.4696,0.1444 1.3836,0.6002 1.8911,0.8933"/>
    <path id="_197252128" class="fil0 str1" d="M188.166 73.3409c1.2215,-0.8397 1.6326,-0.9163 1.9735,-0.9494 0.1454,-0.0142 0.6497,0.0095 1.1311,0.1949 0.6474,0.2492 1.7385,0.9779 1.7385,0.9779 0.721,-0.4975 1.6577,-1.3542 2.7556,-1.1345 0.3518,0.0704 0.5383,0.1841 0.8449,0.3521l1.2384 0.681c0.3121,-0.2014 0.5705,-0.4832 0.8826,-0.6846 0.2678,-0.2263 0.4983,-0.3651 0.975,-0.411 0.3286,-0.003 0.6093,0.0158 0.9858,0.2234 0.4195,0.2307 0.8983,0.524 1.4519,0.8843"/>
   </g>
   <g id="_197248192">
    <path id="_197251240" class="fil0 str1" d="M72.9136 69.1203c1.2215,-0.8397 1.6326,-0.9164 1.9735,-0.9495 0.1454,-0.0141 0.6497,0.0095 1.1311,0.1949 0.6474,0.2493 1.7385,0.9779 1.7385,0.9779 0.721,-0.4975 1.6577,-1.3542 2.7556,-1.1345 0.3518,0.0705 0.5383,0.1842 0.8449,0.3522l1.2384 0.6809c0.3121,-0.2014 0.5705,-0.4832 0.8826,-0.6846 0.2678,-0.2263 0.4983,-0.3651 0.975,-0.4109 0.3286,-0.003 0.6093,0.0157 0.9858,0.2233 0.4195,0.2307 0.8983,0.524 1.4519,0.8843 0.175,-0.119 0.3615,-0.3015 0.5365,-0.4207 0.273,-0.2036 0.5298,-0.4117 0.9474,-0.5127 0.2729,-0.0547 0.5857,-0.0804 0.8894,0.0313 0.4696,0.1445 1.3836,0.6002 1.8911,0.8933"/>
    <path id="_197248744" class="fil0 str1" d="M91.0216 69.2391c1.2215,-0.8397 1.6326,-0.9164 1.9735,-0.9495 0.1454,-0.0141 0.6497,0.0095 1.1311,0.1949 0.6474,0.2493 1.7385,0.9779 1.7385,0.9779 0.721,-0.4975 1.6577,-1.3542 2.7556,-1.1345 0.3518,0.0705 0.5383,0.1842 0.8449,0.3522l1.2384 0.6809c0.3121,-0.2014 0.5705,-0.4832 0.8826,-0.6846 0.2678,-0.2263 0.4983,-0.3651 0.975,-0.4109 0.3286,-0.003 0.6093,0.0157 0.9858,0.2233 0.4195,0.2307 0.8983,0.524 1.4519,0.8843 0.175,-0.119 0.3615,-0.3015 0.5365,-0.4207 0.273,-0.2036 0.5298,-0.4117 0.9474,-0.5127 0.2729,-0.0547 0.5857,-0.0804 0.8894,0.0313 0.4696,0.1445 1.3836,0.6002 1.8911,0.8933"/>
    <path id="_197247472" class="fil0 str1" d="M109.078 69.4232c1.2215,-0.8398 1.6326,-0.9164 1.9735,-0.9495 0.1454,-0.0141 0.6497,0.0095 1.1311,0.1949 0.6474,0.2492 1.7385,0.9779 1.7385,0.9779 0.721,-0.4975 1.6577,-1.3542 2.7556,-1.1345 0.3518,0.0704 0.5383,0.1842 0.8449,0.3522l1.2384 0.6809c0.3121,-0.2014 0.5705,-0.4832 0.8826,-0.6846 0.2678,-0.2263 0.4983,-0.3651 0.975,-0.411 0.3286,-0.003 0.6093,0.0158 0.9858,0.2234 0.4195,0.2307 0.8983,0.524 1.4519,0.8843 0.175,-0.119 0.3615,-0.3015 0.5365,-0.4207 0.273,-0.2036 0.5298,-0.4117 0.9474,-0.5127 0.2729,-0.0547 0.5857,-0.0805 0.8894,0.0313 0.4696,0.1444 1.3836,0.6002 1.8911,0.8933"/>
    <path id="_197249104" class="fil0 str1" d="M127.134 69.6072c1.2215,-0.8397 1.6326,-0.9163 1.9735,-0.9494 0.1454,-0.0142 0.6497,0.0095 1.1311,0.1948 0.6474,0.2493 1.7385,0.978 1.7385,0.978 0.721,-0.4975 1.6577,-1.3542 2.7556,-1.1345 0.3518,0.0704 0.5383,0.1841 0.8449,0.3521l1.2384 0.681c0.3121,-0.2014 0.5705,-0.4832 0.8826,-0.6846 0.2678,-0.2263 0.4983,-0.3651 0.975,-0.411 0.3286,-0.003 0.6093,0.0158 0.9858,0.2234 0.4195,0.2307 0.8983,0.524 1.4519,0.8843 0.175,-0.1191 0.3615,-0.3016 0.5365,-0.4207 0.273,-0.2037 0.5298,-0.4118 0.9474,-0.5127 0.2729,-0.0547 0.5857,-0.0805 0.8894,0.0312 0.4696,0.1445 1.3836,0.6003 1.8911,0.8934"/>
    <path id="_194944632" class="fil0 str1" d="M145.191 69.7913c1.2215,-0.8397 1.6326,-0.9163 1.9735,-0.9494 0.1454,-0.0142 0.6497,0.0095 1.1311,0.1948 0.6474,0.2493 1.7385,0.978 1.7385,0.978 0.721,-0.4975 1.6577,-1.3542 2.7556,-1.1345 0.3518,0.0704 0.5383,0.1841 0.8449,0.3521l1.2384 0.681c0.3121,-0.2014 0.5705,-0.4832 0.8826,-0.6846 0.2678,-0.2263 0.4983,-0.3651 0.975,-0.411 0.3286,-0.003 0.6093,0.0158 0.9858,0.2234 0.4195,0.2307 0.8983,0.524 1.4519,0.8843 0.175,-0.1191 0.3615,-0.3016 0.5365,-0.4207 0.273,-0.2037 0.5298,-0.4118 0.9474,-0.5127 0.2729,-0.0547 0.5857,-0.0805 0.8894,0.0312 0.4696,0.1445 1.3836,0.6003 1.8911,0.8934"/>
    <path id="_194950776" class="fil0 str1" d="M163.247 69.9754c1.2215,-0.8397 1.6326,-0.9163 1.9735,-0.9494 0.1454,-0.0142 0.6497,0.0095 1.1311,0.1948 0.6474,0.2493 1.7385,0.978 1.7385,0.978 0.721,-0.4975 1.6577,-1.3542 2.7556,-1.1346 0.3518,0.0705 0.5383,0.1842 0.8449,0.3522l1.2384 0.681c0.3121,-0.2014 0.5705,-0.4832 0.8826,-0.6847 0.2678,-0.2262 0.4983,-0.365 0.975,-0.4109 0.3286,-0.003 0.6093,0.0158 0.9858,0.2234 0.4195,0.2306 0.8983,0.5239 1.4519,0.8843 0.175,-0.1191 0.3615,-0.3016 0.5365,-0.4207 0.273,-0.2037 0.5298,-0.4118 0.9474,-0.5128 0.2729,-0.0546 0.5857,-0.0804 0.8894,0.0313 0.4696,0.1445 1.3836,0.6003 1.8911,0.8933"/>
    <path id="_194951160" class="fil0 str1" d="M181.304 70.1595c1.2215,-0.8397 1.6326,-0.9163 1.9735,-0.9494 0.1454,-0.0142 0.6497,0.0095 1.1311,0.1948 0.6474,0.2493 1.7385,0.9779 1.7385,0.9779 0.721,-0.4974 1.6577,-1.3542 2.7556,-1.1345 0.3518,0.0705 0.5383,0.1842 0.8449,0.3522l1.2384 0.681c0.3121,-0.2015 0.5705,-0.4833 0.8826,-0.6847 0.2678,-0.2262 0.4983,-0.3651 0.975,-0.4109 0.3286,-0.003 0.6093,0.0157 0.9858,0.2233 0.4195,0.2307 0.8983,0.524 1.4519,0.8844"/>
   </g>
   <g id="_197248120">
    <path id="_197247208" class="fil0 str1" d="M66.4361 65.8667c1.2215,-0.8397 1.6326,-0.9163 1.9735,-0.9494 0.1454,-0.0142 0.6497,0.0095 1.1311,0.1948 0.6474,0.2493 1.7385,0.978 1.7385,0.978 0.721,-0.4975 1.6577,-1.3542 2.7556,-1.1346 0.3518,0.0705 0.5383,0.1842 0.8449,0.3522l1.2384 0.681c0.3121,-0.2015 0.5705,-0.4832 0.8826,-0.6847 0.2678,-0.2262 0.4983,-0.3651 0.975,-0.4109 0.3286,-0.003 0.6093,0.0157 0.9858,0.2233 0.4195,0.2307 0.8983,0.524 1.4519,0.8844 0.175,-0.1191 0.3615,-0.3016 0.5365,-0.4207 0.273,-0.2037 0.5298,-0.4118 0.9474,-0.5128 0.2729,-0.0547 0.5857,-0.0804 0.8894,0.0313 0.4696,0.1445 1.3836,0.6003 1.8911,0.8933"/>
    <path id="_197257168" class="fil0 str1" d="M84.5441 65.9855c1.2215,-0.8397 1.6326,-0.9163 1.9735,-0.9494 0.1454,-0.0142 0.6497,0.0095 1.1311,0.1948 0.6474,0.2493 1.7385,0.978 1.7385,0.978 0.721,-0.4975 1.6577,-1.3542 2.7556,-1.1346 0.3518,0.0705 0.5383,0.1842 0.8449,0.3522l1.2384 0.681c0.3121,-0.2014 0.5705,-0.4832 0.8826,-0.6847 0.2678,-0.2262 0.4983,-0.3651 0.975,-0.4109 0.3286,-0.003 0.6093,0.0158 0.9858,0.2233 0.4195,0.2307 0.8983,0.524 1.4519,0.8844 0.175,-0.1191 0.3615,-0.3016 0.5365,-0.4207 0.273,-0.2037 0.5298,-0.4118 0.9474,-0.5128 0.2729,-0.0547 0.5857,-0.0804 0.8894,0.0313 0.4696,0.1445 1.3836,0.6003 1.8911,0.8933"/>
    <path id="_194951352" class="fil0 str1" d="M102.601 66.1696c1.2215,-0.8397 1.6326,-0.9163 1.9735,-0.9494 0.1454,-0.0142 0.6497,0.0095 1.1311,0.1948 0.6474,0.2493 1.7385,0.9779 1.7385,0.9779 0.721,-0.4974 1.6577,-1.3542 2.7556,-1.1345 0.3518,0.0705 0.5383,0.1842 0.8449,0.3522l1.2384 0.681c0.3121,-0.2015 0.5705,-0.4833 0.8826,-0.6847 0.2678,-0.2263 0.4983,-0.3651 0.975,-0.4109 0.3286,-0.003 0.6093,0.0157 0.9858,0.2233 0.4195,0.2307 0.8983,0.524 1.4519,0.8844 0.175,-0.1191 0.3615,-0.3016 0.5365,-0.4207 0.273,-0.2037 0.5298,-0.4118 0.9474,-0.5128 0.2729,-0.0547 0.5857,-0.0804 0.8894,0.0313 0.4696,0.1445 1.3836,0.6003 1.8911,0.8933"/>
    <path id="_195127048" class="fil0 str1" d="M120.657 66.3537c1.2215,-0.8397 1.6326,-0.9164 1.9735,-0.9495 0.1454,-0.0141 0.6497,0.0095 1.1311,0.1949 0.6474,0.2493 1.7385,0.9779 1.7385,0.9779 0.721,-0.4975 1.6577,-1.3542 2.7556,-1.1345 0.3518,0.0705 0.5383,0.1842 0.8449,0.3522l1.2384 0.6809c0.3121,-0.2014 0.5705,-0.4832 0.8826,-0.6846 0.2678,-0.2263 0.4983,-0.3651 0.975,-0.4109 0.3286,-0.003 0.6093,0.0157 0.9858,0.2233 0.4195,0.2307 0.8983,0.524 1.4519,0.8843 0.175,-0.119 0.3615,-0.3015 0.5365,-0.4207 0.273,-0.2036 0.5298,-0.4117 0.9474,-0.5127 0.2729,-0.0547 0.5857,-0.0804 0.8894,0.0313 0.4696,0.1445 1.3836,0.6002 1.8911,0.8933"/>
    <path id="_195127240" class="fil0 str1" d="M138.713 66.5378c1.2215,-0.8398 1.6326,-0.9164 1.9735,-0.9495 0.1454,-0.0141 0.6497,0.0095 1.1311,0.1949 0.6474,0.2492 1.7385,0.9779 1.7385,0.9779 0.721,-0.4975 1.6577,-1.3542 2.7556,-1.1345 0.3518,0.0704 0.5383,0.1842 0.8449,0.3522l1.2384 0.6809c0.3121,-0.2014 0.5705,-0.4832 0.8826,-0.6846 0.2678,-0.2263 0.4983,-0.3651 0.975,-0.411 0.3286,-0.003 0.6093,0.0158 0.9858,0.2234 0.4195,0.2307 0.8983,0.524 1.4519,0.8843 0.175,-0.119 0.3615,-0.3015 0.5365,-0.4207 0.273,-0.2036 0.5298,-0.4117 0.9474,-0.5127 0.2729,-0.0547 0.5857,-0.0805 0.8894,0.0313 0.4696,0.1444 1.3836,0.6002 1.8911,0.8933"/>
    <path id="_195127432" class="fil0 str1" d="M156.77 66.7218c1.2215,-0.8397 1.6326,-0.9163 1.9735,-0.9494 0.1454,-0.0142 0.6497,0.0095 1.1311,0.1948 0.6474,0.2493 1.7385,0.978 1.7385,0.978 0.721,-0.4975 1.6577,-1.3542 2.7556,-1.1345 0.3518,0.0704 0.5383,0.1841 0.8449,0.3521l1.2384 0.681c0.3121,-0.2014 0.5705,-0.4832 0.8826,-0.6846 0.2678,-0.2263 0.4983,-0.3651 0.975,-0.411 0.3286,-0.003 0.6093,0.0158 0.9858,0.2234 0.4195,0.2307 0.8983,0.524 1.4519,0.8843 0.175,-0.1191 0.3615,-0.3016 0.5365,-0.4207 0.273,-0.2037 0.5298,-0.4118 0.9474,-0.5127 0.2729,-0.0547 0.5857,-0.0805 0.8894,0.0312 0.4696,0.1445 1.3836,0.6003 1.8911,0.8934"/>
    <path id="_195128008" class="fil0 str1" d="M174.826 66.9059c1.2215,-0.8397 1.6326,-0.9163 1.9735,-0.9494 0.1454,-0.0142 0.6497,0.0095 1.1311,0.1948 0.6474,0.2493 1.7385,0.978 1.7385,0.978 0.721,-0.4975 1.6577,-1.3542 2.7556,-1.1345 0.3518,0.0704 0.5383,0.1841 0.8449,0.3521l1.2384 0.681c0.3121,-0.2014 0.5705,-0.4832 0.8826,-0.6846 0.2678,-0.2263 0.4983,-0.3651 0.975,-0.411 0.3286,-0.003 0.6093,0.0158 0.9858,0.2234 0.4195,0.2307 0.8983,0.524 1.4519,0.8843"/>
   </g>
   <g id="_197257072">
    <path id="_195130696" class="fil0 str1" d="M59.8147 62.542c1.2215,-0.8397 1.6326,-0.9163 1.9735,-0.9494 0.1454,-0.0142 0.6497,0.0095 1.1311,0.1948 0.6474,0.2493 1.7385,0.978 1.7385,0.978 0.721,-0.4975 1.6577,-1.3542 2.7556,-1.1345 0.3518,0.0704 0.5383,0.1841 0.8449,0.3521l1.2384 0.681c0.3121,-0.2014 0.5705,-0.4832 0.8826,-0.6847 0.2678,-0.2262 0.4983,-0.365 0.975,-0.4109 0.3286,-0.003 0.6093,0.0158 0.9858,0.2234 0.4195,0.2306 0.8983,0.5239 1.4519,0.8843 0.175,-0.1191 0.3615,-0.3016 0.5365,-0.4207 0.273,-0.2037 0.5298,-0.4118 0.9474,-0.5127 0.2729,-0.0547 0.5857,-0.0805 0.8894,0.0312 0.4696,0.1445 1.3836,0.6003 1.8911,0.8933"/>
    <path id="_195130888" class="fil0 str1" d="M77.9227 62.6608c1.2215,-0.8397 1.6326,-0.9163 1.9735,-0.9494 0.1454,-0.0142 0.6497,0.0095 1.1311,0.1948 0.6474,0.2493 1.7385,0.978 1.7385,0.978 0.721,-0.4975 1.6577,-1.3542 2.7556,-1.1345 0.3518,0.0704 0.5383,0.1841 0.8449,0.3521l1.2384 0.681c0.3121,-0.2014 0.5705,-0.4832 0.8826,-0.6847 0.2678,-0.2262 0.4983,-0.365 0.975,-0.4109 0.3286,-0.003 0.6093,0.0158 0.9858,0.2234 0.4195,0.2307 0.8983,0.524 1.4519,0.8843 0.175,-0.1191 0.3615,-0.3016 0.5365,-0.4207 0.273,-0.2037 0.5298,-0.4118 0.9474,-0.5127 0.2729,-0.0547 0.5857,-0.0805 0.8894,0.0312 0.4696,0.1445 1.3836,0.6003 1.8911,0.8933"/>
    <path id="_195131080" class="fil0 str1" d="M95.9791 62.8449c1.2215,-0.8397 1.6326,-0.9163 1.9735,-0.9494 0.1454,-0.0142 0.6497,0.0095 1.1311,0.1948 0.6474,0.2493 1.7385,0.978 1.7385,0.978 0.721,-0.4975 1.6577,-1.3542 2.7556,-1.1346 0.3518,0.0705 0.5383,0.1842 0.8449,0.3522l1.2384 0.681c0.3121,-0.2014 0.5705,-0.4832 0.8826,-0.6847 0.2678,-0.2262 0.4983,-0.3651 0.975,-0.4109 0.3286,-0.003 0.6093,0.0158 0.9858,0.2233 0.4195,0.2307 0.8983,0.524 1.4519,0.8844 0.175,-0.1191 0.3615,-0.3016 0.5365,-0.4207 0.273,-0.2037 0.5298,-0.4118 0.9474,-0.5128 0.2729,-0.0547 0.5857,-0.0804 0.8894,0.0313 0.4696,0.1445 1.3836,0.6003 1.8911,0.8933"/>
    <path id="_195131272" class="fil0 str1" d="M114.036 63.029c1.2215,-0.8397 1.6326,-0.9163 1.9735,-0.9494 0.1454,-0.0142 0.6497,0.0095 1.1311,0.1948 0.6474,0.2493 1.7385,0.9779 1.7385,0.9779 0.721,-0.4974 1.6577,-1.3542 2.7556,-1.1345 0.3518,0.0705 0.5383,0.1842 0.8449,0.3522l1.2384 0.681c0.3121,-0.2015 0.5705,-0.4833 0.8826,-0.6847 0.2678,-0.2263 0.4983,-0.3651 0.975,-0.4109 0.3286,-0.003 0.6093,0.0157 0.9858,0.2233 0.4195,0.2307 0.8983,0.524 1.4519,0.8844 0.175,-0.1191 0.3615,-0.3016 0.5365,-0.4207 0.273,-0.2037 0.5298,-0.4118 0.9474,-0.5128 0.2729,-0.0547 0.5857,-0.0804 0.8894,0.0313 0.4696,0.1445 1.3836,0.6003 1.8911,0.8933"/>
    <path id="_195131464" class="fil0 str1" d="M132.092 63.2131c1.2215,-0.8397 1.6326,-0.9164 1.9735,-0.9495 0.1454,-0.0141 0.6497,0.0095 1.1311,0.1949 0.6474,0.2493 1.7385,0.9779 1.7385,0.9779 0.721,-0.4975 1.6577,-1.3542 2.7556,-1.1345 0.3518,0.0705 0.5383,0.1842 0.8449,0.3522l1.2384 0.6809c0.3121,-0.2014 0.5705,-0.4832 0.8826,-0.6846 0.2678,-0.2263 0.4983,-0.3651 0.975,-0.4109 0.3286,-0.003 0.6093,0.0157 0.9858,0.2233 0.4195,0.2307 0.8983,0.524 1.4519,0.8843 0.175,-0.119 0.3615,-0.3015 0.5365,-0.4207 0.273,-0.2036 0.5298,-0.4117 0.9474,-0.5127 0.2729,-0.0547 0.5857,-0.0804 0.8894,0.0313 0.4696,0.1445 1.3836,0.6002 1.8911,0.8933"/>
    <path id="_195131656" class="fil0 str1" d="M150.148 63.3972c1.2215,-0.8398 1.6326,-0.9164 1.9735,-0.9495 0.1454,-0.0141 0.6497,0.0095 1.1311,0.1949 0.6474,0.2492 1.7385,0.9779 1.7385,0.9779 0.721,-0.4975 1.6577,-1.3542 2.7556,-1.1345 0.3518,0.0704 0.5383,0.1842 0.8449,0.3522l1.2384 0.6809c0.3121,-0.2014 0.5705,-0.4832 0.8826,-0.6846 0.2678,-0.2263 0.4983,-0.3651 0.975,-0.411 0.3286,-0.003 0.6093,0.0158 0.9858,0.2234 0.4195,0.2307 0.8983,0.524 1.4519,0.8843 0.175,-0.119 0.3615,-0.3015 0.5365,-0.4207 0.273,-0.2037 0.5298,-0.4117 0.9474,-0.5127 0.2729,-0.0547 0.5857,-0.0805 0.8894,0.0313 0.4696,0.1444 1.3836,0.6002 1.8911,0.8933"/>
    <path id="_195131848" class="fil0 str1" d="M168.205 63.5812c1.2215,-0.8397 1.6326,-0.9163 1.9735,-0.9494 0.1454,-0.0142 0.6497,0.0095 1.1311,0.1948 0.6474,0.2493 1.7385,0.978 1.7385,0.978 0.721,-0.4975 1.6577,-1.3542 2.7556,-1.1345 0.3518,0.0704 0.5383,0.1841 0.8449,0.3521l1.2384 0.681c0.3121,-0.2014 0.5705,-0.4832 0.8826,-0.6846 0.2678,-0.2263 0.4983,-0.3651 0.975,-0.411 0.3286,-0.003 0.6093,0.0158 0.9858,0.2234 0.4195,0.2307 0.8983,0.524 1.4519,0.8843"/>
   </g>
   <g id="_195130504">
    <path id="_195132232" class="fil0 str1" d="M53.4652 59.3287c1.2215,-0.8397 1.6326,-0.9163 1.9735,-0.9494 0.1454,-0.0142 0.6497,0.0095 1.1311,0.1948 0.6474,0.2493 1.7385,0.978 1.7385,0.978 0.721,-0.4975 1.6577,-1.3542 2.7556,-1.1346 0.3518,0.0705 0.5383,0.1842 0.8449,0.3522l1.2384 0.681c0.3121,-0.2014 0.5705,-0.4832 0.8826,-0.6847 0.2678,-0.2262 0.4983,-0.365 0.975,-0.4109 0.3286,-0.003 0.6093,0.0158 0.9858,0.2234 0.4195,0.2306 0.8983,0.5239 1.4519,0.8843 0.175,-0.1191 0.3615,-0.3016 0.5365,-0.4207 0.273,-0.2037 0.5298,-0.4118 0.9474,-0.5127 0.2729,-0.0547 0.5857,-0.0805 0.8894,0.0312 0.4696,0.1445 1.3836,0.6003 1.8911,0.8933"/>
    <path id="_195132424" class="fil0 str1" d="M71.5732 59.4475c1.2215,-0.8397 1.6326,-0.9163 1.9735,-0.9494 0.1454,-0.0142 0.6497,0.0095 1.1311,0.1948 0.6474,0.2493 1.7385,0.978 1.7385,0.978 0.721,-0.4975 1.6577,-1.3542 2.7556,-1.1345 0.3518,0.0704 0.5383,0.1841 0.8449,0.3521l1.2384 0.681c0.3121,-0.2014 0.5705,-0.4832 0.8826,-0.6847 0.2678,-0.2262 0.4983,-0.365 0.975,-0.4109 0.3286,-0.003 0.6093,0.0158 0.9858,0.2234 0.4195,0.2306 0.8983,0.524 1.4519,0.8843 0.175,-0.1191 0.3615,-0.3016 0.5365,-0.4207 0.273,-0.2037 0.5298,-0.4118 0.9474,-0.5127 0.2729,-0.0547 0.5857,-0.0805 0.8894,0.0312 0.4696,0.1445 1.3836,0.6003 1.8911,0.8933"/>
    <path id="_195132616" class="fil0 str1" d="M89.6296 59.6316c1.2215,-0.8397 1.6326,-0.9163 1.9735,-0.9494 0.1454,-0.0142 0.6497,0.0095 1.1311,0.1948 0.6474,0.2493 1.7385,0.978 1.7385,0.978 0.721,-0.4975 1.6577,-1.3542 2.7556,-1.1346 0.3518,0.0705 0.5383,0.1842 0.8449,0.3522l1.2384 0.681c0.3121,-0.2014 0.5705,-0.4832 0.8826,-0.6847 0.2678,-0.2262 0.4983,-0.3651 0.975,-0.4109 0.3286,-0.003 0.6093,0.0158 0.9858,0.2233 0.4195,0.2307 0.8983,0.524 1.4519,0.8844 0.175,-0.1191 0.3615,-0.3016 0.5365,-0.4207 0.273,-0.2037 0.5298,-0.4118 0.9474,-0.5128 0.2729,-0.0547 0.5857,-0.0804 0.8894,0.0313 0.4696,0.1445 1.3836,0.6003 1.8911,0.8933"/>
    <path id="_195132808" class="fil0 str1" d="M107.686 59.8157c1.2215,-0.8397 1.6326,-0.9163 1.9735,-0.9494 0.1454,-0.0142 0.6497,0.0095 1.1311,0.1948 0.6474,0.2493 1.7385,0.9779 1.7385,0.9779 0.721,-0.4974 1.6577,-1.3542 2.7556,-1.1345 0.3518,0.0705 0.5383,0.1842 0.8449,0.3522l1.2384 0.681c0.3121,-0.2015 0.5705,-0.4833 0.8826,-0.6847 0.2678,-0.2263 0.4983,-0.3651 0.975,-0.4109 0.3286,-0.003 0.6093,0.0157 0.9858,0.2233 0.4195,0.2307 0.8983,0.524 1.4519,0.8843 0.175,-0.119 0.3615,-0.3015 0.5365,-0.4206 0.273,-0.2037 0.5298,-0.4118 0.9474,-0.5128 0.2729,-0.0547 0.5857,-0.0804 0.8894,0.0313 0.4696,0.1445 1.3836,0.6003 1.8911,0.8933"/>
    <path id="_194941176" class="fil0 str1" d="M125.742 59.9998c1.2215,-0.8397 1.6326,-0.9164 1.9735,-0.9495 0.1454,-0.0141 0.6497,0.0095 1.1311,0.1949 0.6474,0.2493 1.7385,0.9779 1.7385,0.9779 0.721,-0.4975 1.6577,-1.3542 2.7556,-1.1345 0.3518,0.0705 0.5383,0.1842 0.8449,0.3522l1.2384 0.6809c0.3121,-0.2014 0.5705,-0.4832 0.8826,-0.6846 0.2678,-0.2263 0.4983,-0.3651 0.975,-0.4109 0.3286,-0.003 0.6093,0.0157 0.9858,0.2233 0.4195,0.2307 0.8983,0.524 1.4519,0.8843 0.175,-0.119 0.3615,-0.3015 0.5365,-0.4207 0.273,-0.2036 0.5298,-0.4117 0.9474,-0.5127 0.2729,-0.0547 0.5857,-0.0804 0.8894,0.0313 0.4696,0.1445 1.3836,0.6002 1.8911,0.8933"/>
    <path id="_194941368" class="fil0 str1" d="M143.799 60.1839c1.2215,-0.8398 1.6326,-0.9164 1.9735,-0.9495 0.1454,-0.0142 0.6497,0.0095 1.1311,0.1949 0.6474,0.2492 1.7385,0.9779 1.7385,0.9779 0.721,-0.4975 1.6577,-1.3542 2.7556,-1.1345 0.3518,0.0704 0.5383,0.1842 0.8449,0.3522l1.2384 0.6809c0.3121,-0.2014 0.5705,-0.4832 0.8826,-0.6846 0.2678,-0.2263 0.4983,-0.3651 0.975,-0.411 0.3286,-0.003 0.6093,0.0158 0.9858,0.2234 0.4195,0.2307 0.8983,0.524 1.4519,0.8843 0.175,-0.119 0.3615,-0.3015 0.5365,-0.4207 0.273,-0.2037 0.5298,-0.4117 0.9474,-0.5127 0.2729,-0.0547 0.5857,-0.0805 0.8894,0.0313 0.4696,0.1444 1.3836,0.6002 1.8911,0.8933"/>
    <path id="_194941944" class="fil0 str1" d="M161.855 60.3679c1.2215,-0.8397 1.6326,-0.9163 1.9735,-0.9494 0.1454,-0.0142 0.6497,0.0095 1.1311,0.1948 0.6474,0.2493 1.7385,0.978 1.7385,0.978 0.721,-0.4975 1.6577,-1.3542 2.7556,-1.1345 0.3518,0.0704 0.5383,0.1841 0.8449,0.3521l1.2384 0.681c0.3121,-0.2014 0.5705,-0.4832 0.8826,-0.6846 0.2678,-0.2263 0.4983,-0.3651 0.975,-0.411 0.3286,-0.003 0.6093,0.0158 0.9858,0.2234 0.4195,0.2307 0.8983,0.524 1.4519,0.8843"/>
   </g>
   <g id="_195132040">
    <path id="_194942328" class="fil0 str1" d="M46.6692 55.9023c1.2215,-0.8397 1.6326,-0.9163 1.9735,-0.9494 0.1454,-0.0142 0.6497,0.0095 1.1311,0.1948 0.6474,0.2493 1.7385,0.978 1.7385,0.978 0.721,-0.4975 1.6577,-1.3542 2.7556,-1.1345 0.3518,0.0704 0.5383,0.1841 0.8449,0.3521l1.2384 0.681c0.3121,-0.2014 0.5705,-0.4832 0.8826,-0.6847 0.2678,-0.2262 0.4983,-0.365 0.975,-0.4109 0.3286,-0.003 0.6093,0.0158 0.9858,0.2234 0.4195,0.2306 0.8983,0.5239 1.4519,0.8843 0.175,-0.1191 0.3615,-0.3016 0.5365,-0.4207 0.273,-0.2037 0.5298,-0.4118 0.9474,-0.5127 0.2729,-0.0547 0.5857,-0.0805 0.8894,0.0312 0.4696,0.1445 1.3836,0.6003 1.8911,0.8933"/>
    <path id="_194945784" class="fil0 str1" d="M64.7772 56.0211c1.2215,-0.8397 1.6326,-0.9163 1.9735,-0.9494 0.1454,-0.0142 0.6497,0.0095 1.1311,0.1948 0.6474,0.2493 1.7385,0.978 1.7385,0.978 0.721,-0.4975 1.6577,-1.3542 2.7556,-1.1345 0.3518,0.0704 0.5383,0.1841 0.8449,0.3521l1.2384 0.681c0.3121,-0.2014 0.5705,-0.4832 0.8826,-0.6847 0.2678,-0.2262 0.4983,-0.365 0.975,-0.4109 0.3286,-0.003 0.6093,0.0158 0.9858,0.2234 0.4195,0.2307 0.8983,0.524 1.4519,0.8843 0.175,-0.1191 0.3615,-0.3016 0.5365,-0.4207 0.273,-0.2037 0.5298,-0.4118 0.9474,-0.5127 0.2729,-0.0547 0.5857,-0.0805 0.8894,0.0312 0.4696,0.1445 1.3836,0.6003 1.8911,0.8933"/>
    <path id="_194945976" class="fil0 str1" d="M82.8336 56.2052c1.2215,-0.8397 1.6326,-0.9163 1.9735,-0.9494 0.1454,-0.0142 0.6497,0.0095 1.1311,0.1948 0.6474,0.2493 1.7385,0.978 1.7385,0.978 0.721,-0.4975 1.6577,-1.3542 2.7556,-1.1346 0.3518,0.0705 0.5383,0.1842 0.8449,0.3522l1.2384 0.681c0.3121,-0.2014 0.5705,-0.4832 0.8826,-0.6847 0.2678,-0.2262 0.4983,-0.3651 0.975,-0.4109 0.3286,-0.003 0.6093,0.0158 0.9858,0.2233 0.4195,0.2307 0.8983,0.524 1.4519,0.8844 0.175,-0.1191 0.3615,-0.3016 0.5365,-0.4207 0.273,-0.2037 0.5298,-0.4118 0.9474,-0.5128 0.2729,-0.0547 0.5857,-0.0804 0.8894,0.0313 0.4696,0.1445 1.3836,0.6003 1.8911,0.8933"/>
    <path id="_194946168" class="fil0 str1" d="M100.89 56.3893c1.2215,-0.8397 1.6326,-0.9163 1.9735,-0.9494 0.1454,-0.0142 0.6497,0.0095 1.1311,0.1948 0.6474,0.2493 1.7385,0.9779 1.7385,0.9779 0.721,-0.4974 1.6577,-1.3542 2.7556,-1.1345 0.3518,0.0705 0.5383,0.1842 0.8449,0.3522l1.2384 0.681c0.3121,-0.2015 0.5705,-0.4833 0.8826,-0.6847 0.2678,-0.2263 0.4983,-0.3651 0.975,-0.4109 0.3286,-0.003 0.6093,0.0157 0.9858,0.2233 0.4195,0.2307 0.8983,0.524 1.4519,0.8844 0.175,-0.1191 0.3615,-0.3016 0.5365,-0.4207 0.273,-0.2037 0.5298,-0.4118 0.9474,-0.5128 0.2729,-0.0547 0.5857,-0.0804 0.8894,0.0313 0.4696,0.1445 1.3836,0.6003 1.8911,0.8933"/>
    <path id="_194946360" class="fil0 str1" d="M118.946 56.5734c1.2215,-0.8397 1.6326,-0.9164 1.9735,-0.9495 0.1454,-0.0141 0.6497,0.0095 1.1311,0.1949 0.6474,0.2493 1.7385,0.9779 1.7385,0.9779 0.721,-0.4975 1.6577,-1.3542 2.7556,-1.1345 0.3518,0.0705 0.5383,0.1842 0.8449,0.3522l1.2384 0.6809c0.3121,-0.2014 0.5705,-0.4832 0.8826,-0.6846 0.2678,-0.2263 0.4983,-0.3651 0.975,-0.4109 0.3286,-0.003 0.6093,0.0157 0.9858,0.2233 0.4195,0.2307 0.8983,0.524 1.4519,0.8843 0.175,-0.119 0.3615,-0.3015 0.5365,-0.4207 0.273,-0.2036 0.5298,-0.4117 0.9474,-0.5127 0.2729,-0.0547 0.5857,-0.0804 0.8894,0.0313 0.4696,0.1445 1.3836,0.6002 1.8911,0.8933"/>
    <path id="_194946552" class="fil0 str1" d="M137.003 56.7575c1.2215,-0.8398 1.6326,-0.9164 1.9735,-0.9495 0.1454,-0.0141 0.6497,0.0095 1.1311,0.1949 0.6474,0.2492 1.7385,0.9779 1.7385,0.9779 0.721,-0.4975 1.6577,-1.3542 2.7556,-1.1345 0.3518,0.0704 0.5383,0.1842 0.8449,0.3522l1.2384 0.6809c0.3121,-0.2014 0.5705,-0.4832 0.8826,-0.6846 0.2678,-0.2263 0.4983,-0.3651 0.975,-0.411 0.3286,-0.003 0.6093,0.0158 0.9858,0.2234 0.4195,0.2307 0.8983,0.524 1.4519,0.8843 0.175,-0.119 0.3615,-0.3015 0.5365,-0.4207 0.273,-0.2036 0.5298,-0.4117 0.9474,-0.5127 0.2729,-0.0547 0.5857,-0.0805 0.8894,0.0313 0.4696,0.1444 1.3836,0.6002 1.8911,0.8933"/>
    <path id="_194946744" class="fil0 str1" d="M155.059 56.9415c1.2215,-0.8397 1.6326,-0.9163 1.9735,-0.9494 0.1454,-0.0142 0.6497,0.0095 1.1311,0.1948 0.6474,0.2493 1.7385,0.978 1.7385,0.978 0.721,-0.4975 1.6577,-1.3542 2.7556,-1.1345 0.3518,0.0704 0.5383,0.1841 0.8449,0.3521l1.2384 0.681c0.3121,-0.2014 0.5705,-0.4832 0.8826,-0.6846 0.2678,-0.2263 0.4983,-0.3651 0.975,-0.411 0.3286,-0.003 0.6093,0.0158 0.9858,0.2234 0.4195,0.2307 0.8983,0.524 1.4519,0.8843"/>
   </g>
   <g id="_194942136">
    <path id="_194947896" class="fil0 str1" d="M40.4652 52.7111c1.2215,-0.8397 1.6326,-0.9163 1.9735,-0.9494 0.1454,-0.0142 0.6497,0.0095 1.1311,0.1948 0.6474,0.2493 1.7385,0.978 1.7385,0.978 0.721,-0.4975 1.6577,-1.3542 2.7556,-1.1346 0.3518,0.0705 0.5383,0.1842 0.8449,0.3522l1.2384 0.681c0.3121,-0.2014 0.5705,-0.4832 0.8826,-0.6847 0.2678,-0.2262 0.4983,-0.365 0.975,-0.4109 0.3286,-0.003 0.6093,0.0158 0.9858,0.2234 0.4195,0.2306 0.8983,0.5239 1.4519,0.8843 0.175,-0.1191 0.3615,-0.3016 0.5365,-0.4207 0.273,-0.2037 0.5298,-0.4118 0.9474,-0.5128 0.2729,-0.0546 0.5857,-0.0804 0.8894,0.0313 0.4696,0.1445 1.3836,0.6003 1.8911,0.8933"/>
    <path id="_194948088" class="fil0 str1" d="M58.5732 52.8299c1.2215,-0.8397 1.6326,-0.9163 1.9735,-0.9494 0.1454,-0.0142 0.6497,0.0095 1.1311,0.1948 0.6474,0.2493 1.7385,0.978 1.7385,0.978 0.721,-0.4975 1.6577,-1.3542 2.7556,-1.1346 0.3518,0.0705 0.5383,0.1842 0.8449,0.3522l1.2384 0.681c0.3121,-0.2014 0.5705,-0.4832 0.8826,-0.6847 0.2678,-0.2262 0.4983,-0.365 0.975,-0.4109 0.3286,-0.003 0.6093,0.0158 0.9858,0.2234 0.4195,0.2306 0.8983,0.5239 1.4519,0.8843 0.175,-0.1191 0.3615,-0.3016 0.5365,-0.4207 0.273,-0.2037 0.5298,-0.4118 0.9474,-0.5127 0.2729,-0.0547 0.5857,-0.0805 0.8894,0.0312 0.4696,0.1445 1.3836,0.6003 1.8911,0.8933"/>
    <path id="_194948280" class="fil0 str1" d="M76.6296 53.014c1.2215,-0.8397 1.6326,-0.9163 1.9735,-0.9494 0.1454,-0.0142 0.6497,0.0095 1.1311,0.1948 0.6474,0.2493 1.7385,0.978 1.7385,0.978 0.721,-0.4975 1.6577,-1.3543 2.7556,-1.1346 0.3518,0.0705 0.5383,0.1842 0.8449,0.3522l1.2384 0.681c0.3121,-0.2015 0.5705,-0.4832 0.8826,-0.6847 0.2678,-0.2262 0.4983,-0.3651 0.975,-0.4109 0.3286,-0.003 0.6093,0.0157 0.9858,0.2233 0.4195,0.2307 0.8983,0.524 1.4519,0.8844 0.175,-0.1191 0.3615,-0.3016 0.5365,-0.4207 0.273,-0.2037 0.5298,-0.4118 0.9474,-0.5128 0.2729,-0.0547 0.5857,-0.0804 0.8894,0.0313 0.4696,0.1445 1.3836,0.6003 1.8911,0.8933"/>
    <path id="_194948472" class="fil0 str1" d="M94.686 53.1981c1.2215,-0.8397 1.6326,-0.9164 1.9735,-0.9495 0.1454,-0.0141 0.6497,0.0096 1.1311,0.1949 0.6474,0.2493 1.7385,0.9779 1.7385,0.9779 0.721,-0.4974 1.6577,-1.3542 2.7556,-1.1345 0.3518,0.0705 0.5383,0.1842 0.8449,0.3522l1.2384 0.681c0.3121,-0.2015 0.5705,-0.4833 0.8826,-0.6847 0.2678,-0.2263 0.4983,-0.3651 0.975,-0.4109 0.3286,-0.003 0.6093,0.0157 0.9858,0.2233 0.4195,0.2307 0.8983,0.524 1.4519,0.8843 0.175,-0.119 0.3615,-0.3015 0.5365,-0.4206 0.273,-0.2037 0.5298,-0.4118 0.9474,-0.5128 0.2729,-0.0547 0.5857,-0.0804 0.8894,0.0313 0.4696,0.1445 1.3836,0.6003 1.8911,0.8933"/>
    <path id="_194948664" class="fil0 str1" d="M112.742 53.3822c1.2215,-0.8397 1.6326,-0.9164 1.9735,-0.9495 0.1454,-0.0141 0.6497,0.0095 1.1311,0.1949 0.6474,0.2493 1.7385,0.9779 1.7385,0.9779 0.721,-0.4975 1.6577,-1.3542 2.7556,-1.1345 0.3518,0.0705 0.5383,0.1842 0.8449,0.3522l1.2384 0.6809c0.3121,-0.2014 0.5705,-0.4832 0.8826,-0.6846 0.2678,-0.2263 0.4983,-0.3651 0.975,-0.4109 0.3286,-0.003 0.6093,0.0157 0.9858,0.2233 0.4195,0.2307 0.8983,0.524 1.4519,0.8843 0.175,-0.119 0.3615,-0.3015 0.5365,-0.4207 0.273,-0.2036 0.5298,-0.4117 0.9474,-0.5127 0.2729,-0.0547 0.5857,-0.0805 0.8894,0.0313 0.4696,0.1444 1.3836,0.6002 1.8911,0.8933"/>
    <path id="_194948856" class="fil0 str1" d="M130.799 53.5663c1.2215,-0.8398 1.6326,-0.9164 1.9735,-0.9495 0.1454,-0.0142 0.6497,0.0095 1.1311,0.1949 0.6474,0.2492 1.7385,0.9779 1.7385,0.9779 0.721,-0.4975 1.6577,-1.3542 2.7556,-1.1345 0.3518,0.0704 0.5383,0.1842 0.8449,0.3521l1.2384 0.681c0.3121,-0.2014 0.5705,-0.4832 0.8826,-0.6846 0.2678,-0.2263 0.4983,-0.3651 0.975,-0.411 0.3286,-0.003 0.6093,0.0158 0.9858,0.2234 0.4195,0.2307 0.8983,0.524 1.4519,0.8843 0.175,-0.119 0.3615,-0.3015 0.5365,-0.4207 0.273,-0.2037 0.5298,-0.4118 0.9474,-0.5127 0.2729,-0.0547 0.5857,-0.0805 0.8894,0.0313 0.4696,0.1444 1.3836,0.6002 1.8911,0.8933"/>
    <path id="_194949048" class="fil0 str1" d="M148.855 53.7503c1.2215,-0.8397 1.6326,-0.9163 1.9735,-0.9494 0.1454,-0.0142 0.6497,0.0095 1.1311,0.1948 0.6474,0.2493 1.7385,0.978 1.7385,0.978 0.721,-0.4975 1.6577,-1.3542 2.7556,-1.1345 0.3518,0.0704 0.5383,0.1841 0.8449,0.3521l1.2384 0.681c0.3121,-0.2014 0.5705,-0.4832 0.8826,-0.6846 0.2678,-0.2263 0.4983,-0.3651 0.975,-0.411 0.3286,-0.003 0.6093,0.0158 0.9858,0.2234 0.4195,0.2307 0.8983,0.524 1.4519,0.8843"/>
   </g>
   <g id="_194946936">
    <path id="_194949816" class="fil0 str1" d="M34.2359 49.5086c1.2215,-0.8398 1.6326,-0.9164 1.9735,-0.9495 0.1454,-0.0141 0.6497,0.0095 1.1311,0.1949 0.6474,0.2493 1.7385,0.9779 1.7385,0.9779 0.721,-0.4975 1.6577,-1.3542 2.7556,-1.1345 0.3518,0.0704 0.5383,0.1842 0.8449,0.3522l1.2384 0.6809c0.3121,-0.2014 0.5705,-0.4832 0.8826,-0.6846 0.2678,-0.2263 0.4983,-0.3651 0.975,-0.4109 0.3286,-0.003 0.6093,0.0157 0.9858,0.2233 0.4195,0.2307 0.8983,0.524 1.4519,0.8843 0.175,-0.119 0.3615,-0.3015 0.5365,-0.4207 0.273,-0.2036 0.5298,-0.4117 0.9474,-0.5127 0.2729,-0.0547 0.5857,-0.0805 0.8894,0.0313 0.4696,0.1444 1.3836,0.6002 1.8911,0.8933"/>
    <path id="_194950008" class="fil0 str1" d="M52.3439 49.6274c1.2215,-0.8397 1.6326,-0.9164 1.9735,-0.9495 0.1454,-0.0141 0.6497,0.0095 1.1311,0.1949 0.6474,0.2493 1.7385,0.9779 1.7385,0.9779 0.721,-0.4975 1.6577,-1.3542 2.7556,-1.1345 0.3518,0.0705 0.5383,0.1842 0.8449,0.3522l1.2384 0.6809c0.3121,-0.2014 0.5705,-0.4832 0.8826,-0.6846 0.2678,-0.2263 0.4983,-0.3651 0.975,-0.4109 0.3286,-0.003 0.6093,0.0157 0.9858,0.2233 0.4195,0.2307 0.8983,0.524 1.4519,0.8843 0.175,-0.119 0.3615,-0.3015 0.5365,-0.4207 0.273,-0.2036 0.5298,-0.4117 0.9474,-0.5127 0.2729,-0.0547 0.5857,-0.0804 0.8894,0.0313 0.4696,0.1445 1.3836,0.6002 1.8911,0.8933"/>
    <path id="_194952312" class="fil0 str1" d="M70.4003 49.8115c1.2215,-0.8398 1.6326,-0.9164 1.9735,-0.9495 0.1454,-0.0142 0.6497,0.0095 1.1311,0.1949 0.6474,0.2492 1.7385,0.9779 1.7385,0.9779 0.721,-0.4975 1.6577,-1.3542 2.7556,-1.1345 0.3518,0.0704 0.5383,0.1842 0.8449,0.3521l1.2384 0.681c0.3121,-0.2014 0.5705,-0.4832 0.8826,-0.6846 0.2678,-0.2263 0.4983,-0.3651 0.975,-0.411 0.3286,-0.003 0.6093,0.0158 0.9858,0.2234 0.4195,0.2307 0.8983,0.524 1.4519,0.8843 0.175,-0.119 0.3615,-0.3015 0.5365,-0.4207 0.273,-0.2037 0.5298,-0.4117 0.9474,-0.5127 0.2729,-0.0547 0.5857,-0.0805 0.8894,0.0313 0.4696,0.1444 1.3836,0.6002 1.8911,0.8933"/>
    <path id="_194952504" class="fil0 str1" d="M88.4567 49.9955c1.2215,-0.8397 1.6326,-0.9163 1.9735,-0.9494 0.1454,-0.0142 0.6497,0.0095 1.1311,0.1948 0.6474,0.2493 1.7385,0.978 1.7385,0.978 0.721,-0.4975 1.6577,-1.3542 2.7556,-1.1345 0.3518,0.0704 0.5383,0.1841 0.8449,0.3521l1.2384 0.681c0.3121,-0.2014 0.5705,-0.4832 0.8826,-0.6846 0.2678,-0.2263 0.4983,-0.3651 0.975,-0.411 0.3286,-0.003 0.6093,0.0158 0.9858,0.2234 0.4195,0.2307 0.8983,0.524 1.4519,0.8843 0.175,-0.1191 0.3615,-0.3016 0.5365,-0.4207 0.273,-0.2037 0.5298,-0.4118 0.9474,-0.5127 0.2729,-0.0547 0.5857,-0.0805 0.8894,0.0312 0.4696,0.1445 1.3836,0.6003 1.8911,0.8934"/>
    <path id="_195126664" class="fil0 str1" d="M106.513 50.1796c1.2215,-0.8397 1.6326,-0.9163 1.9735,-0.9494 0.1454,-0.0142 0.6497,0.0095 1.1311,0.1948 0.6474,0.2493 1.7385,0.978 1.7385,0.978 0.721,-0.4975 1.6577,-1.3542 2.7556,-1.1345 0.3518,0.0704 0.5383,0.1841 0.8449,0.3521l1.2384 0.681c0.3121,-0.2014 0.5705,-0.4832 0.8826,-0.6847 0.2678,-0.2262 0.4983,-0.365 0.975,-0.4109 0.3286,-0.003 0.6093,0.0158 0.9858,0.2234 0.4195,0.2307 0.8983,0.524 1.4519,0.8843 0.175,-0.1191 0.3615,-0.3016 0.5365,-0.4207 0.273,-0.2037 0.5298,-0.4118 0.9474,-0.5127 0.2729,-0.0547 0.5857,-0.0805 0.8894,0.0312 0.4696,0.1445 1.3836,0.6003 1.8911,0.8933"/>
    <path id="_195128584" class="fil0 str1" d="M124.57 50.3637c1.2215,-0.8397 1.6326,-0.9163 1.9735,-0.9494 0.1454,-0.0142 0.6497,0.0095 1.1311,0.1948 0.6474,0.2493 1.7385,0.978 1.7385,0.978 0.721,-0.4975 1.6577,-1.3542 2.7556,-1.1346 0.3518,0.0705 0.5383,0.1842 0.8449,0.3522l1.2384 0.681c0.3121,-0.2014 0.5705,-0.4832 0.8826,-0.6847 0.2678,-0.2262 0.4983,-0.3651 0.975,-0.4109 0.3286,-0.003 0.6093,0.0158 0.9858,0.2233 0.4195,0.2307 0.8983,0.524 1.4519,0.8844 0.175,-0.1191 0.3615,-0.3016 0.5365,-0.4207 0.273,-0.2037 0.5298,-0.4118 0.9474,-0.5128 0.2729,-0.0547 0.5857,-0.0804 0.8894,0.0313 0.4696,0.1445 1.3836,0.6003 1.8911,0.8933"/>
    <path id="_195128776" class="fil0 str1" d="M142.626 50.5478c1.2215,-0.8397 1.6326,-0.9163 1.9735,-0.9494 0.1454,-0.0142 0.6497,0.0095 1.1311,0.1948 0.6474,0.2493 1.7385,0.9779 1.7385,0.9779 0.721,-0.4974 1.6577,-1.3542 2.7556,-1.1345 0.3518,0.0705 0.5383,0.1842 0.8449,0.3522l1.2384 0.681c0.3121,-0.2015 0.5705,-0.4833 0.8826,-0.6847 0.2678,-0.2263 0.4983,-0.3651 0.975,-0.4109 0.3286,-0.003 0.6093,0.0157 0.9858,0.2233 0.4195,0.2307 0.8983,0.524 1.4519,0.8844"/>
   </g>
   <g id="_194949624">
    <path id="_195129736" class="fil0 str1" d="M28.3451 46.4869c1.2215,-0.8398 1.6326,-0.9164 1.9735,-0.9495 0.1454,-0.0142 0.6497,0.0095 1.1311,0.1949 0.6474,0.2492 1.7385,0.9779 1.7385,0.9779 0.721,-0.4975 1.6577,-1.3542 2.7556,-1.1345 0.3518,0.0704 0.5383,0.1842 0.8449,0.3521l1.2384 0.681c0.3121,-0.2014 0.5705,-0.4832 0.8826,-0.6846 0.2678,-0.2263 0.4983,-0.3651 0.975,-0.411 0.3286,-0.003 0.6093,0.0158 0.9858,0.2234 0.4195,0.2307 0.8983,0.524 1.4519,0.8843 0.175,-0.119 0.3615,-0.3015 0.5365,-0.4207 0.273,-0.2037 0.5298,-0.4117 0.9474,-0.5127 0.2729,-0.0547 0.5857,-0.0805 0.8894,0.0313 0.4696,0.1444 1.3836,0.6002 1.8911,0.8933"/>
    <path id="_195130312" class="fil0 str1" d="M46.4531 46.6057c1.2215,-0.8398 1.6326,-0.9164 1.9735,-0.9495 0.1454,-0.0142 0.6497,0.0095 1.1311,0.1949 0.6474,0.2492 1.7385,0.9779 1.7385,0.9779 0.721,-0.4975 1.6577,-1.3542 2.7556,-1.1345 0.3518,0.0704 0.5383,0.1842 0.8449,0.3522l1.2384 0.6809c0.3121,-0.2014 0.5705,-0.4832 0.8826,-0.6846 0.2678,-0.2263 0.4983,-0.3651 0.975,-0.411 0.3286,-0.003 0.6093,0.0158 0.9858,0.2234 0.4195,0.2307 0.8983,0.524 1.4519,0.8843 0.175,-0.119 0.3615,-0.3015 0.5365,-0.4207 0.273,-0.2037 0.5298,-0.4117 0.9474,-0.5127 0.2729,-0.0547 0.5857,-0.0805 0.8894,0.0313 0.4696,0.1444 1.3836,0.6002 1.8911,0.8933"/>
    <path id="_194940024" class="fil0 str1" d="M64.5095 46.7897c1.2215,-0.8397 1.6326,-0.9163 1.9735,-0.9494 0.1454,-0.0142 0.6497,0.0095 1.1311,0.1948 0.6474,0.2493 1.7385,0.978 1.7385,0.978 0.721,-0.4975 1.6577,-1.3542 2.7556,-1.1345 0.3518,0.0704 0.5383,0.1841 0.8449,0.3521l1.2384 0.681c0.3121,-0.2014 0.5705,-0.4832 0.8826,-0.6846 0.2678,-0.2263 0.4983,-0.3651 0.975,-0.411 0.3286,-0.003 0.6093,0.0158 0.9858,0.2234 0.4195,0.2307 0.8983,0.524 1.4519,0.8843 0.175,-0.1191 0.3615,-0.3016 0.5365,-0.4207 0.273,-0.2037 0.5298,-0.4118 0.9474,-0.5127 0.2729,-0.0547 0.5857,-0.0805 0.8894,0.0312 0.4696,0.1445 1.3836,0.6003 1.8911,0.8934"/>
    <path id="_194940216" class="fil0 str1" d="M82.5659 46.9738c1.2215,-0.8397 1.6326,-0.9163 1.9735,-0.9494 0.1454,-0.0142 0.6497,0.0095 1.1311,0.1948 0.6474,0.2493 1.7385,0.978 1.7385,0.978 0.721,-0.4975 1.6577,-1.3542 2.7556,-1.1345 0.3518,0.0704 0.5383,0.1841 0.8449,0.3521l1.2384 0.681c0.3121,-0.2014 0.5705,-0.4832 0.8826,-0.6846 0.2678,-0.2263 0.4983,-0.3651 0.975,-0.411 0.3286,-0.003 0.6093,0.0158 0.9858,0.2234 0.4195,0.2307 0.8983,0.524 1.4519,0.8843 0.175,-0.1191 0.3615,-0.3016 0.5365,-0.4207 0.273,-0.2037 0.5298,-0.4118 0.9474,-0.5127 0.2729,-0.0547 0.5857,-0.0805 0.8894,0.0312 0.4696,0.1445 1.3836,0.6003 1.8911,0.8933"/>
    <path id="_194940408" class="fil0 str1" d="M100.622 47.1579c1.2215,-0.8397 1.6326,-0.9163 1.9735,-0.9494 0.1454,-0.0142 0.6497,0.0095 1.1311,0.1948 0.6474,0.2493 1.7385,0.978 1.7385,0.978 0.721,-0.4975 1.6577,-1.3542 2.7556,-1.1346 0.3518,0.0705 0.5383,0.1842 0.8449,0.3522l1.2384 0.681c0.3121,-0.2014 0.5705,-0.4832 0.8826,-0.6847 0.2678,-0.2262 0.4983,-0.365 0.975,-0.4109 0.3286,-0.003 0.6093,0.0158 0.9858,0.2233 0.4195,0.2307 0.8983,0.524 1.4519,0.8844 0.175,-0.1191 0.3615,-0.3016 0.5365,-0.4207 0.273,-0.2037 0.5298,-0.4118 0.9474,-0.5128 0.2729,-0.0546 0.5857,-0.0804 0.8894,0.0313 0.4696,0.1445 1.3836,0.6003 1.8911,0.8933"/>
    <path id="_194940600" class="fil0 str1" d="M118.679 47.342c1.2215,-0.8397 1.6326,-0.9163 1.9735,-0.9494 0.1454,-0.0142 0.6497,0.0095 1.1311,0.1948 0.6474,0.2493 1.7385,0.9779 1.7385,0.9779 0.721,-0.4974 1.6577,-1.3542 2.7556,-1.1345 0.3518,0.0705 0.5383,0.1842 0.8449,0.3522l1.2384 0.681c0.3121,-0.2015 0.5705,-0.4833 0.8826,-0.6847 0.2678,-0.2263 0.4983,-0.3651 0.975,-0.4109 0.3286,-0.003 0.6093,0.0157 0.9858,0.2233 0.4195,0.2307 0.8983,0.524 1.4519,0.8844 0.175,-0.1191 0.3615,-0.3016 0.5365,-0.4207 0.273,-0.2037 0.5298,-0.4118 0.9474,-0.5128 0.2729,-0.0547 0.5857,-0.0804 0.8894,0.0313 0.4696,0.1445 1.3836,0.6003 1.8911,0.8933"/>
    <path id="_194940792" class="fil0 str1" d="M136.735 47.5261c1.2215,-0.8397 1.6326,-0.9164 1.9735,-0.9495 0.1454,-0.0141 0.6497,0.0095 1.1311,0.1949 0.6474,0.2493 1.7385,0.9779 1.7385,0.9779 0.721,-0.4974 1.6577,-1.3542 2.7556,-1.1345 0.3518,0.0705 0.5383,0.1842 0.8449,0.3522l1.2384 0.6809c0.3121,-0.2014 0.5705,-0.4832 0.8826,-0.6846 0.2678,-0.2263 0.4983,-0.3651 0.975,-0.4109 0.3286,-0.003 0.6093,0.0157 0.9858,0.2233 0.4195,0.2307 0.8983,0.524 1.4519,0.8843"/>
   </g>
   <g id="_195128968">
    <path id="_194941752" class="fil0 str1" d="M21.792 43.2806c1.2215,-0.8398 1.6326,-0.9164 1.9735,-0.9495 0.1454,-0.0142 0.6497,0.0095 1.1311,0.1949 0.6474,0.2492 1.7385,0.9779 1.7385,0.9779 0.721,-0.4975 1.6577,-1.3542 2.7556,-1.1345 0.3518,0.0704 0.5383,0.1842 0.8449,0.3521l1.2384 0.681c0.3121,-0.2014 0.5705,-0.4832 0.8826,-0.6846 0.2678,-0.2263 0.4983,-0.3651 0.975,-0.411 0.3286,-0.003 0.6093,0.0158 0.9858,0.2234 0.4195,0.2307 0.8983,0.524 1.4519,0.8843 0.175,-0.119 0.3615,-0.3015 0.5365,-0.4207 0.273,-0.2037 0.5298,-0.4117 0.9474,-0.5127 0.2729,-0.0547 0.5857,-0.0805 0.8894,0.0313 0.4696,0.1444 1.3836,0.6002 1.8911,0.8933"/>
    <path id="_194942520" class="fil0 str1" d="M39.9 43.3994c1.2215,-0.8398 1.6326,-0.9164 1.9735,-0.9495 0.1454,-0.0141 0.6497,0.0095 1.1311,0.1949 0.6474,0.2492 1.7385,0.9779 1.7385,0.9779 0.721,-0.4975 1.6577,-1.3542 2.7556,-1.1345 0.3518,0.0704 0.5383,0.1842 0.8449,0.3522l1.2384 0.6809c0.3121,-0.2014 0.5705,-0.4832 0.8826,-0.6846 0.2678,-0.2263 0.4983,-0.3651 0.975,-0.411 0.3286,-0.003 0.6093,0.0158 0.9858,0.2234 0.4195,0.2307 0.8983,0.524 1.4519,0.8843 0.175,-0.119 0.3615,-0.3015 0.5365,-0.4207 0.273,-0.2036 0.5298,-0.4117 0.9474,-0.5127 0.2729,-0.0547 0.5857,-0.0805 0.8894,0.0313 0.4696,0.1444 1.3836,0.6002 1.8911,0.8933"/>
    <path id="_194942712" class="fil0 str1" d="M57.9564 43.5834c1.2215,-0.8397 1.6326,-0.9163 1.9735,-0.9494 0.1454,-0.0142 0.6497,0.0095 1.1311,0.1948 0.6474,0.2493 1.7385,0.978 1.7385,0.978 0.721,-0.4975 1.6577,-1.3542 2.7556,-1.1345 0.3518,0.0704 0.5383,0.1841 0.8449,0.3521l1.2384 0.681c0.3121,-0.2014 0.5705,-0.4832 0.8826,-0.6846 0.2678,-0.2263 0.4983,-0.3651 0.975,-0.411 0.3286,-0.003 0.6093,0.0158 0.9858,0.2234 0.4195,0.2307 0.8983,0.524 1.4519,0.8843 0.175,-0.119 0.3615,-0.3015 0.5365,-0.4207 0.273,-0.2037 0.5298,-0.4118 0.9474,-0.5127 0.2729,-0.0547 0.5857,-0.0805 0.8894,0.0312 0.4696,0.1445 1.3836,0.6003 1.8911,0.8934"/>
    <path id="_194942904" class="fil0 str1" d="M76.0128 43.7675c1.2215,-0.8397 1.6326,-0.9163 1.9735,-0.9494 0.1454,-0.0142 0.6497,0.0095 1.1311,0.1948 0.6474,0.2493 1.7385,0.978 1.7385,0.978 0.721,-0.4975 1.6577,-1.3542 2.7556,-1.1345 0.3518,0.0704 0.5383,0.1841 0.8449,0.3521l1.2384 0.681c0.3121,-0.2014 0.5705,-0.4832 0.8826,-0.6846 0.2678,-0.2263 0.4983,-0.3651 0.975,-0.411 0.3286,-0.003 0.6093,0.0158 0.9858,0.2234 0.4195,0.2307 0.8983,0.524 1.4519,0.8843 0.175,-0.1191 0.3615,-0.3016 0.5365,-0.4207 0.273,-0.2037 0.5298,-0.4118 0.9474,-0.5127 0.2729,-0.0547 0.5857,-0.0805 0.8894,0.0312 0.4696,0.1445 1.3836,0.6003 1.8911,0.8934"/>
    <path id="_194943096" class="fil0 str1" d="M94.0692 43.9516c1.2215,-0.8397 1.6326,-0.9163 1.9735,-0.9494 0.1454,-0.0142 0.6497,0.0095 1.1311,0.1948 0.6474,0.2493 1.7385,0.978 1.7385,0.978 0.721,-0.4975 1.6577,-1.3542 2.7556,-1.1346 0.3518,0.0705 0.5383,0.1842 0.8449,0.3522l1.2384 0.681c0.3121,-0.2014 0.5705,-0.4832 0.8826,-0.6847 0.2678,-0.2262 0.4983,-0.365 0.975,-0.4109 0.3286,-0.003 0.6093,0.0158 0.9858,0.2234 0.4195,0.2306 0.8983,0.5239 1.4519,0.8843 0.175,-0.1191 0.3615,-0.3016 0.5365,-0.4207 0.273,-0.2037 0.5298,-0.4118 0.9474,-0.5128 0.2729,-0.0546 0.5857,-0.0804 0.8894,0.0313 0.4696,0.1445 1.3836,0.6003 1.8911,0.8933"/>
    <path id="_194943288" class="fil0 str1" d="M112.126 44.1357c1.2215,-0.8397 1.6326,-0.9163 1.9735,-0.9494 0.1454,-0.0142 0.6497,0.0095 1.1311,0.1948 0.6474,0.2493 1.7385,0.9779 1.7385,0.9779 0.721,-0.4974 1.6577,-1.3542 2.7556,-1.1345 0.3518,0.0705 0.5383,0.1842 0.8449,0.3522l1.2384 0.681c0.3121,-0.2015 0.5705,-0.4833 0.8826,-0.6847 0.2678,-0.2262 0.4983,-0.3651 0.975,-0.4109 0.3286,-0.003 0.6093,0.0157 0.9858,0.2233 0.4195,0.2307 0.8983,0.524 1.4519,0.8844 0.175,-0.1191 0.3615,-0.3016 0.5365,-0.4207 0.273,-0.2037 0.5298,-0.4118 0.9474,-0.5128 0.2729,-0.0547 0.5857,-0.0804 0.8894,0.0313 0.4696,0.1445 1.3836,0.6003 1.8911,0.8933"/>
    <path id="_194943480" class="fil0 str1" d="M130.182 44.3198c1.2215,-0.8397 1.6326,-0.9164 1.9735,-0.9495 0.1454,-0.0141 0.6497,0.0096 1.1311,0.1949 0.6474,0.2493 1.7385,0.9779 1.7385,0.9779 0.721,-0.4974 1.6577,-1.3542 2.7556,-1.1345 0.3518,0.0705 0.5383,0.1842 0.8449,0.3522l1.2384 0.681c0.3121,-0.2015 0.5705,-0.4833 0.8826,-0.6847 0.2678,-0.2263 0.4983,-0.3651 0.975,-0.4109 0.3286,-0.003 0.6093,0.0157 0.9858,0.2233 0.4195,0.2307 0.8983,0.524 1.4519,0.8843"/>
   </g>
   <g id="_194941560">
    <path id="_194944824" class="fil0 str1" d="M16.3891 40.523c1.2215,-0.8397 1.6326,-0.9163 1.9735,-0.9494 0.1454,-0.0142 0.6497,0.0095 1.1311,0.1949 0.6474,0.2492 1.7385,0.9779 1.7385,0.9779 0.721,-0.4975 1.6577,-1.3542 2.7556,-1.1345 0.3518,0.0704 0.5383,0.1841 0.8449,0.3521l1.2384 0.681c0.3121,-0.2014 0.5705,-0.4832 0.8826,-0.6846 0.2678,-0.2263 0.4983,-0.3651 0.975,-0.411 0.3286,-0.003 0.6093,0.0158 0.9858,0.2234 0.4195,0.2307 0.8983,0.524 1.4519,0.8843 0.175,-0.119 0.3615,-0.3015 0.5365,-0.4207 0.273,-0.2037 0.5298,-0.4118 0.9474,-0.5127 0.2729,-0.0547 0.5857,-0.0805 0.8894,0.0312 0.4696,0.1445 1.3836,0.6003 1.8911,0.8934"/>
    <path id="_194945016" class="fil0 str1" d="M34.4971 40.6419c1.2215,-0.8398 1.6326,-0.9164 1.9735,-0.9495 0.1454,-0.0142 0.6497,0.0095 1.1311,0.1949 0.6474,0.2492 1.7385,0.9779 1.7385,0.9779 0.721,-0.4975 1.6577,-1.3542 2.7556,-1.1345 0.3518,0.0704 0.5383,0.1842 0.8449,0.3521l1.2384 0.681c0.3121,-0.2014 0.5705,-0.4832 0.8826,-0.6846 0.2678,-0.2263 0.4983,-0.3651 0.975,-0.411 0.3286,-0.003 0.6093,0.0158 0.9858,0.2234 0.4195,0.2307 0.8983,0.524 1.4519,0.8843 0.175,-0.119 0.3615,-0.3015 0.5365,-0.4207 0.273,-0.2037 0.5298,-0.4118 0.9474,-0.5127 0.2729,-0.0547 0.5857,-0.0805 0.8894,0.0312 0.4696,0.1445 1.3836,0.6003 1.8911,0.8934"/>
    <path id="_194945208" class="fil0 str1" d="M52.5535 40.8259c1.2215,-0.8397 1.6326,-0.9163 1.9735,-0.9494 0.1454,-0.0142 0.6497,0.0095 1.1311,0.1948 0.6474,0.2493 1.7385,0.978 1.7385,0.978 0.721,-0.4975 1.6577,-1.3542 2.7556,-1.1345 0.3518,0.0704 0.5383,0.1841 0.8449,0.3521l1.2384 0.681c0.3121,-0.2014 0.5705,-0.4832 0.8826,-0.6846 0.2678,-0.2263 0.4983,-0.3651 0.975,-0.411 0.3286,-0.003 0.6093,0.0158 0.9858,0.2234 0.4195,0.2307 0.8983,0.524 1.4519,0.8843 0.175,-0.1191 0.3615,-0.3016 0.5365,-0.4207 0.273,-0.2037 0.5298,-0.4118 0.9474,-0.5127 0.2729,-0.0547 0.5857,-0.0805 0.8894,0.0312 0.4696,0.1445 1.3836,0.6003 1.8911,0.8934"/>
    <path id="_194945400" class="fil0 str1" d="M70.6099 41.01c1.2215,-0.8397 1.6326,-0.9163 1.9735,-0.9494 0.1454,-0.0142 0.6497,0.0095 1.1311,0.1948 0.6474,0.2493 1.7385,0.978 1.7385,0.978 0.721,-0.4975 1.6577,-1.3542 2.7556,-1.1345 0.3518,0.0704 0.5383,0.1841 0.8449,0.3521l1.2384 0.681c0.3121,-0.2014 0.5705,-0.4832 0.8826,-0.6847 0.2678,-0.2262 0.4983,-0.365 0.975,-0.4109 0.3286,-0.003 0.6093,0.0158 0.9858,0.2234 0.4195,0.2306 0.8983,0.5239 1.4519,0.8843 0.175,-0.1191 0.3615,-0.3016 0.5365,-0.4207 0.273,-0.2037 0.5298,-0.4118 0.9474,-0.5127 0.2729,-0.0547 0.5857,-0.0805 0.8894,0.0312 0.4696,0.1445 1.3836,0.6003 1.8911,0.8933"/>
    <path id="_194945592" class="fil0 str1" d="M88.6663 41.1941c1.2215,-0.8397 1.6326,-0.9163 1.9735,-0.9494 0.1454,-0.0142 0.6497,0.0095 1.1311,0.1948 0.6474,0.2493 1.7385,0.978 1.7385,0.978 0.721,-0.4975 1.6577,-1.3542 2.7556,-1.1346 0.3518,0.0705 0.5383,0.1842 0.8449,0.3522l1.2384 0.681c0.3121,-0.2015 0.5705,-0.4832 0.8826,-0.6847 0.2678,-0.2262 0.4983,-0.3651 0.975,-0.4109 0.3286,-0.003 0.6093,0.0157 0.9858,0.2233 0.4195,0.2307 0.8983,0.524 1.4519,0.8844 0.175,-0.1191 0.3615,-0.3016 0.5365,-0.4207 0.273,-0.2037 0.5298,-0.4118 0.9474,-0.5128 0.2729,-0.0547 0.5857,-0.0804 0.8894,0.0313 0.4696,0.1445 1.3836,0.6003 1.8911,0.8933"/>
    <path id="_194947128" class="fil0 str1" d="M106.723 41.3782c1.2215,-0.8397 1.6326,-0.9163 1.9735,-0.9494 0.1454,-0.0142 0.6497,0.0095 1.1311,0.1948 0.6474,0.2493 1.7385,0.9779 1.7385,0.9779 0.721,-0.4974 1.6577,-1.3542 2.7556,-1.1345 0.3518,0.0705 0.5383,0.1842 0.8449,0.3522l1.2384 0.681c0.3121,-0.2015 0.5705,-0.4833 0.8826,-0.6847 0.2678,-0.2263 0.4983,-0.3651 0.975,-0.4109 0.3286,-0.003 0.6093,0.0157 0.9858,0.2233 0.4195,0.2307 0.8983,0.524 1.4519,0.8843 0.175,-0.119 0.3615,-0.3015 0.5365,-0.4206 0.273,-0.2037 0.5298,-0.4118 0.9474,-0.5128 0.2729,-0.0547 0.5857,-0.0804 0.8894,0.0313 0.4696,0.1445 1.3836,0.6003 1.8911,0.8933"/>
    <path id="_194947320" class="fil0 str1" d="M124.779 41.5623c1.2215,-0.8397 1.6326,-0.9164 1.9735,-0.9495 0.1454,-0.0141 0.6497,0.0095 1.1311,0.1949 0.6474,0.2493 1.7385,0.9779 1.7385,0.9779 0.721,-0.4975 1.6577,-1.3542 2.7556,-1.1345 0.3518,0.0705 0.5383,0.1842 0.8449,0.3522l1.2384 0.6809c0.3121,-0.2014 0.5705,-0.4832 0.8826,-0.6846 0.2678,-0.2263 0.4983,-0.3651 0.975,-0.4109 0.3286,-0.003 0.6093,0.0157 0.9858,0.2233 0.4195,0.2307 0.8983,0.524 1.4519,0.8843"/>
   </g>
   <line id="_366411240" class="fil0 str1" x1="89.989" y1="75.2175" x2="16.5672" y2= "38.4076" />
   <line id="_366411576" class="fil0 str1" x1="94.9449" y1="75.228" x2="21.5231" y2= "38.4181" />
   <line id="_366411912" class="fil0 str1" x1="99.5446" y1="75.353" x2="26.1228" y2= "38.5431" />
   <line id="_366412248" class="fil0 str1" x1="103.742" y1="75.5358" x2="30.3199" y2= "38.7259" />
   <line id="_366412584" class="fil0 str1" x1="108.157" y1="75.4392" x2="34.735" y2= "38.6293" />
   <line id="_366412920" class="fil0 str1" x1="113.271" y1="75.4754" x2="39.8487" y2= "38.6655" />
   <line id="_366413256" class="fil0 str1" x1="117.673" y1="75.4337" x2="44.2512" y2= "38.6238" />
   <line id="_366413592" class="fil0 str1" x1="121.706" y1="75.4888" x2="48.2841" y2= "38.6789" />
   <line id="_366413928" class="fil0 str1" x1="125.886" y1="75.3863" x2="52.4644" y2= "38.5764" />
   <line id="_366414264" class="fil0 str1" x1="131.427" y1="75.6066" x2="58.0047" y2= "38.7967" />
   <line id="_366414600" class="fil0 str1" x1="135.837" y1="75.6035" x2="62.4156" y2= "38.7936" />
   <line id="_366414936" class="fil0 str1" x1="139.939" y1="75.607" x2="66.5175" y2= "38.7971" />
   <line id="_366415272" class="fil0 str1" x1="144.27" y1="75.6281" x2="70.8485" y2= "38.8182" />
   <line id="_366415608" class="fil0 str1" x1="148.761" y1="75.6101" x2="75.3396" y2= "38.8002" />
   <line id="_366415944" class="fil0 str1" x1="153.32" y1="75.7173" x2="79.8977" y2= "38.9074" />
   <line id="_366416280" class="fil0 str1" x1="157.709" y1="75.7451" x2="84.2876" y2= "38.9352" />
   <line id="_366416616" class="fil0 str1" x1="161.876" y1="75.6628" x2="88.4543" y2= "38.853" />
   <line id="_366416952" class="fil0 str1" x1="166.712" y1="75.693" x2="93.2899" y2= "38.8831" />
   <line id="_366417288" class="fil0 str1" x1="171.423" y1="75.7602" x2="98.0016" y2= "38.9503" />
   <line id="_366417624" class="fil0 str1" x1="175.609" y1="75.8171" x2="102.187" y2= "39.0072" />
   <line id="_366417960" class="fil0 str1" x1="179.72" y1="75.8318" x2="106.299" y2= "39.0219" />
   <line id="_366418296" class="fil0 str1" x1="184.92" y1="75.85" x2="111.498" y2= "39.0401" />
   <line id="_366418632" class="fil0 str1" x1="189.414" y1="75.8056" x2="115.993" y2= "38.9957" />
   <line id="_366418968" class="fil0 str1" x1="193.12" y1="75.7821" x2="119.699" y2= "38.9723" />
   <line id="_366419304" class="fil0 str1" x1="198.102" y1="75.9651" x2="124.68" y2= "39.1552" />
   <line id="_366419640" class="fil0 str1" x1="202.811" y1="76.0115" x2="129.389" y2= "39.2016" />
   <line id="_366419976" class="fil0 str1" x1="206.329" y1="75.4485" x2="132.907" y2= "38.6386" />
  </g>
 </g>
</svg>
