<?xml version="1.0" encoding="UTF-8"?>
<!DOCTYPE svg PUBLIC "-//W3C//DTD SVG 1.1//EN" "http://www.w3.org/Graphics/SVG/1.1/DTD/svg11.dtd">
<!-- Creator: CorelDRAW -->
<svg xmlns="http://www.w3.org/2000/svg" xml:space="preserve" width="210mm" height="297mm" style="shape-rendering:geometricPrecision; text-rendering:geometricPrecision; image-rendering:optimizeQuality; fill-rule:evenodd; clip-rule:evenodd"
viewBox="0 0 210 297"
 xmlns:xlink="http://www.w3.org/1999/xlink">
 <defs>
  <style type="text/css">
   <![CDATA[
    .str0 {stroke:#333333;stroke-width:0.5}
    .fil1 {fill:none}
    .fil0 {fill:#999999}
   ]]>
  </style>
 </defs>
 <g id="Слой_x0020_1">
  <metadata id="CorelCorpID_0Corel-Layer"/>
  <path class="fil0 str0" d="M88.2574 73.5792l-75.4661 -45.9771 121.879 0.9674 70.2544 42.4715c-0.6212,0.0102 -0.9638,1.7124 -1.661,1.7561 -0.8142,0.0511 -1.9879,-1.5378 -2.7525,-1.2494 -0.6557,0.2473 -1.0467,1.2443 -1.7249,1.312 -0.7917,0.079 -1.732,-1.3169 -2.5043,-1.196 -0.6177,0.0967 -1.0119,0.986 -1.6288,1.0227 -0.7663,0.0456 -1.5107,-1.2091 -2.2769,-1.1262 -0.6121,0.0663 -1.1432,1.307 -1.7575,1.3378 -0.9077,0.0455 -1.8786,-1.4519 -2.7772,-1.3762 -0.7412,0.0625 -1.0696,1.3008 -1.8169,1.3382 -0.7174,0.0358 -1.6601,-1.2547 -2.3772,-1.2126 -0.6456,0.0378 -1.1475,1.0281 -1.7946,1.0547 -0.7441,0.0306 -1.402,-1.1375 -2.1493,-1.1015 -0.6428,0.0309 -1.2215,1.2046 -1.8674,1.2264 -0.7963,0.0268 -1.6669,-1.3592 -2.4648,-1.3259 -0.7168,0.0299 -1.5005,1.3468 -2.2163,1.3728 -0.8145,0.0296 -1.5844,-1.2365 -2.3963,-1.2103 -0.5847,0.0188 -1.1107,1.0141 -1.6939,1.029 -0.7105,0.0181 -1.3541,-1.1749 -2.0623,-1.1543 -0.7171,0.0208 -1.2902,1.3416 -2.0056,1.3562 -0.8614,0.0177 -1.7221,-1.4072 -2.5804,-1.3868 -0.7871,0.0187 -1.2866,1.3576 -2.0724,1.3702 -0.8126,0.013 -1.4712,-1.2356 -2.2831,-1.222 -0.6579,0.011 -1.2043,1.0439 -1.862,1.0516 -0.6723,0.0078 -1.2901,-1.1745 -1.9624,-1.1663 -0.6266,0.0077 -1.2976,1.2913 -1.9239,1.2958 -0.8382,0.006 -1.7145,-1.2722 -2.5517,-1.2664 -0.7681,0.0054 -1.4153,1.3097 -2.1828,1.3103 -0.6836,0.0005 -1.5107,-1.225 -2.1934,-1.2252 -0.6439,-0.0001 -1.3324,0.9921 -1.9753,0.989 -0.6211,-0.003 -1.3069,-1.0962 -1.9269,-1.1001 -0.7661,-0.0048 -1.412,1.2631 -2.1765,1.2534 -0.8165,-0.0104 -1.5517,-1.2763 -2.3663,-1.289 -0.7875,-0.0122 -1.3214,1.3917 -2.1076,1.3736 -0.7631,-0.0175 -1.6126,-1.1942 -2.3742,-1.215 -0.6729,-0.0183 -1.1857,1.0043 -1.8576,0.9816 -0.6439,-0.0217 -1.3098,-1.0762 -1.9527,-1.1007 -0.6472,-0.0246 -1.293,1.3177 -1.9391,1.2884 -0.7979,-0.0362 -1.7171,-1.2839 -2.5129,-1.3253 -0.7934,-0.0412 -1.4651,1.4217 -2.2565,1.3724 -0.7249,-0.0451 -1.5095,-1.166 -2.2325,-1.2167 -0.6961,-0.0488 -1.1475,1.0385 -1.8421,0.9829 -0.6643,-0.0531 -1.3691,-1.037 -2.0319,-1.0956 -0.7602,-0.0672 -1.3168,1.3168 -2.0753,1.2402 -0.7723,-0.078 -1.5342,-1.2603 -2.3046,-1.3469 -0.7468,-0.0839 -1.526,1.5354 -2.2708,1.4409 -0.7065,-0.0896 -1.4571,-1.1256 -2.1617,-1.224 -0.7165,-0.1001 -1.3668,1.0979 -2.0814,0.987 -0.5779,-0.0896 -1.1013,-0.9888 -1.6779,-1.0852 -0.7691,-0.1286 -1.5619,1.4667 -2.3286,1.3238 -0.7483,-0.1395 -1.4187,-1.0466 -2.1647,-1.1995 -0.8426,-0.1726 -1.5266,1.7161 -2.3663,1.5232 -0.7042,-0.1617 -1.3636,-0.9071 -2.0658,-1.0831 -0.8534,-0.2138 -1.4368,1.3864 -2.2873,1.1487 -0.9273,-0.2592 -1.3738,-0.8376 -2.3578,-0.7614l-1.4336 1.0609z"/>
  <line class="fil1 str0" x1="29.9912" y1="38.1664" x2="30.7269" y2= "99.2354" />
  <line class="fil1 str0" x1="103.262" y1="71.5664" x2="102.79" y2= "99.9428" />
  <line class="fil1 str0" x1="194.4" y1="72.6573" x2="194.683" y2= "100.835" />
  <line class="fil1 str0" x1="6.0607" y1="99.0023" x2="204.84" y2= "100.937" />
  <line class="fil1 str0" x1="46.6099" y1="27.8707" x2="122.943" y2= "72.6403" />
  <line class="fil1 str0" x1="76.3679" y1="28.1068" x2="150.122" y2= "71.6391" />
  <line class="fil1 str0" x1="106.146" y1="28.343" x2="180.095" y2= "71.6434" />
  <g id="_187781112">
   <path id="_187782000" class="fil1 str0" d="M38.5949 43.6077c2.5697,-2.928 2.8893,1.1475 5.0196,-0.9009 0.9213,-0.8857 1.4274,-0.5611 2.119,0.0173 1.0011,0.8375 1.3921,0.6677 2.396,-0.5617 0.4402,-0.5391 1.3136,-0.6645 1.9314,0.0603 0.4913,0.5764 0.8877,0.5775 1.3212,0.6432"/>
   <path id="_186183744" class="fil1 str0" d="M51.2616 42.8049c0.8478,0.3493 1.1719,-0.5899 1.4414,-0.8397 1.6057,-1.488 1.7297,1.9618 3.6871,0.2092 0.9211,-0.8246 1.4274,-0.4668 2.119,0.1575 1.0011,0.9037 1.3921,0.7597 2.396,-0.4032 0.4402,-0.51 1.3136,-0.5777 1.9314,0.188 0.4913,0.609 0.8877,0.6362 1.3212,0.7306"/>
   <path id="_187781088" class="fil1 str0" d="M64.0393 42.8018c0.8478,0.3493 1.1719,-0.5899 1.4414,-0.8397 1.6057,-1.488 1.7297,1.9618 3.6871,0.2092 0.9211,-0.8246 1.4274,-0.4668 2.119,0.1575 1.0011,0.9037 1.3921,0.7597 2.396,-0.4032 0.4402,-0.51 1.3136,-0.5777 1.9314,0.188 0.4913,0.609 0.8877,0.6362 1.3212,0.7306"/>
   <path id="_187786392" class="fil1 str0" d="M76.817 42.7987c0.8478,0.3493 1.1719,-0.5899 1.4414,-0.8397 1.6057,-1.488 1.7297,1.9618 3.6871,0.2092 0.9211,-0.8246 1.4274,-0.4668 2.119,0.1575 1.0011,0.9037 1.3921,0.7597 2.396,-0.4032 0.4402,-0.51 1.3136,-0.5777 1.9314,0.188 0.4913,0.609 0.8877,0.6362 1.3212,0.7306"/>
   <path id="_187784232" class="fil1 str0" d="M89.5947 42.7956c0.8478,0.3493 1.1719,-0.5899 1.4414,-0.8397 1.6057,-1.488 1.7297,1.9618 3.6871,0.2092 0.9211,-0.8246 1.4274,-0.4668 2.119,0.1575 1.0011,0.9037 1.3921,0.7597 2.396,-0.4032 0.4402,-0.51 1.3136,-0.5777 1.9314,0.188 0.4913,0.609 0.8877,0.6362 1.3212,0.7306"/>
   <path id="_187783224" class="fil1 str0" d="M102.372 42.7925c0.8478,0.3493 1.1719,-0.5899 1.4414,-0.8397 1.6057,-1.488 1.7297,1.9618 3.6871,0.2092 0.9211,-0.8246 1.4274,-0.4668 2.119,0.1575 1.0011,0.9037 1.3921,0.7597 2.396,-0.4032 0.4402,-0.51 1.3136,-0.5777 1.9314,0.188 0.4913,0.609 0.8877,0.6362 1.3212,0.7306"/>
   <path id="_187780992" class="fil1 str0" d="M115.15 42.7894c0.8478,0.3493 1.1719,-0.5899 1.4414,-0.8397 1.6057,-1.488 1.7297,1.9618 3.6871,0.2092 0.9211,-0.8246 1.4274,-0.4668 2.119,0.1575 1.0011,0.9037 1.3921,0.7597 2.396,-0.4032 0.4402,-0.51 1.3136,-0.5777 1.9314,0.188 0.4913,0.609 0.8877,0.6362 1.3212,0.7306"/>
   <path id="_187783080" class="fil1 str0" d="M127.928 42.7863c0.8478,0.3493 1.1719,-0.5899 1.4414,-0.8397 1.6057,-1.488 1.7297,1.9618 3.6871,0.2092 0.9211,-0.8246 1.4274,-0.4668 2.119,0.1575 1.0011,0.9037 1.3921,0.7597 2.396,-0.4032 0.4402,-0.51 1.3136,-0.5777 1.9314,0.188 0.4913,0.609 0.8877,0.6362 1.3212,0.7306"/>
   <path id="_187784112" class="fil1 str0" d="M140.706 42.7832c0.8478,0.3493 1.1719,-0.5899 1.4414,-0.8397 1.6057,-1.488 1.7297,1.9618 3.6871,0.2092 0.9211,-0.8246 1.4274,-0.4668 2.119,0.1575 1.0011,0.9037 1.3921,0.7597 2.396,-0.4032 0.4402,-0.51 1.3136,-0.5777 1.9314,0.188 0.4913,0.609 0.8877,0.6362 1.3212,0.7306"/>
   <path id="_186185952" class="fil1 str0" d="M153.483 42.7801c0.8478,0.3493 1.3141,-1.7426 1.7794,-1.7106"/>
  </g>
  <g id="_187780872">
   <path id="_187782408" class="fil1 str0" d="M63.2248 58.7121c2.5697,-2.928 2.8893,1.1475 5.0196,-0.9009 0.9213,-0.8857 1.4274,-0.5611 2.119,0.0173 1.0011,0.8375 1.3921,0.6677 2.396,-0.5617 0.4402,-0.5391 1.3136,-0.6645 1.9314,0.0603 0.4913,0.5764 0.8877,0.5775 1.3212,0.6432"/>
   <path id="_187782312" class="fil1 str0" d="M75.8915 57.9093c0.8478,0.3493 1.1719,-0.5899 1.4414,-0.8397 1.6057,-1.488 1.7297,1.9618 3.6871,0.2092 0.9211,-0.8246 1.4274,-0.4668 2.119,0.1575 1.0011,0.9037 1.3921,0.7597 2.396,-0.4032 0.4402,-0.51 1.3136,-0.5777 1.9314,0.188 0.4913,0.609 0.8877,0.6362 1.3212,0.7306"/>
   <path id="_187784328" class="fil1 str0" d="M88.6692 57.9062c0.8478,0.3493 1.1719,-0.5899 1.4414,-0.8397 1.6057,-1.488 1.7297,1.9618 3.6871,0.2092 0.9211,-0.8246 1.4274,-0.4668 2.119,0.1575 1.0011,0.9037 1.3921,0.7597 2.396,-0.4032 0.4402,-0.51 1.3136,-0.5777 1.9314,0.188 0.4913,0.609 0.8877,0.6362 1.3212,0.7306"/>
   <path id="_187788792" class="fil1 str0" d="M101.447 57.9031c0.8478,0.3493 1.1719,-0.5899 1.4414,-0.8397 1.6057,-1.488 1.7297,1.9618 3.6871,0.2092 0.9211,-0.8246 1.4274,-0.4668 2.119,0.1575 1.0011,0.9037 1.3921,0.7597 2.396,-0.4032 0.4402,-0.51 1.3136,-0.5777 1.9314,0.188 0.4913,0.609 0.8877,0.6362 1.3212,0.7306"/>
   <path id="_187787064" class="fil1 str0" d="M114.225 57.9c0.8478,0.3493 1.1719,-0.5899 1.4414,-0.8397 1.6057,-1.488 1.7297,1.9618 3.6871,0.2092 0.9211,-0.8246 1.4274,-0.4668 2.119,0.1575 1.0011,0.9037 1.3921,0.7597 2.396,-0.4032 0.4402,-0.51 1.3136,-0.5777 1.9314,0.188 0.4913,0.609 0.8877,0.6362 1.3212,0.7306"/>
   <path id="_187786368" class="fil1 str0" d="M127.002 57.8969c0.8478,0.3493 1.1719,-0.5899 1.4414,-0.8397 1.6057,-1.488 1.7297,1.9618 3.6871,0.2092 0.9211,-0.8246 1.4274,-0.4668 2.119,0.1575 1.0011,0.9037 1.3921,0.7597 2.396,-0.4032 0.4402,-0.51 1.3136,-0.5777 1.9314,0.188 0.4913,0.609 0.8877,0.6362 1.3212,0.7306"/>
   <path id="_187788384" class="fil1 str0" d="M139.78 57.8938c0.8478,0.3493 1.1719,-0.5899 1.4414,-0.8397 1.6057,-1.488 1.7297,1.9618 3.6871,0.2092 0.9211,-0.8246 1.4274,-0.4668 2.119,0.1575 1.0011,0.9037 1.3921,0.7597 2.396,-0.4032 0.4402,-0.51 1.3136,-0.5777 1.9314,0.188 0.4913,0.609 0.8877,0.6362 1.3212,0.7306"/>
   <path id="_187787088" class="fil1 str0" d="M152.558 57.8907c0.8478,0.3493 1.1719,-0.5899 1.4414,-0.8397 1.6057,-1.488 1.7297,1.9618 3.6871,0.2092 0.9211,-0.8246 1.4274,-0.4668 2.119,0.1575 1.0011,0.9037 1.3921,0.7597 2.396,-0.4032 0.4402,-0.51 1.3136,-0.5777 1.9314,0.188 0.4913,0.609 0.8877,0.6362 1.3212,0.7306"/>
   <path id="_187783872" class="fil1 str0" d="M165.335 57.8876c0.8478,0.3493 1.1719,-0.5899 1.4414,-0.8397 1.6057,-1.488 1.7297,1.9618 3.6871,0.2092 0.9211,-0.8246 1.4274,-0.4668 2.119,0.1575 1.0011,0.9037 1.3921,0.7597 2.396,-0.4032 0.4402,-0.51 1.3136,-0.5777 1.9314,0.188 0.4913,0.609 0.8877,0.6362 1.3212,0.7306"/>
   <path id="_187787760" class="fil1 str0" d="M178.113 57.8845c0.8478,0.3493 1.3141,-1.7426 1.7794,-1.7106"/>
  </g>
 </g>
</svg>
