<?xml version="1.0" encoding="UTF-8"?>
<!DOCTYPE svg PUBLIC "-//W3C//DTD SVG 1.1//EN" "http://www.w3.org/Graphics/SVG/1.1/DTD/svg11.dtd">
<!-- Creator: CorelDRAW -->
<svg xmlns="http://www.w3.org/2000/svg" xml:space="preserve" width="210mm" height="297mm" style="shape-rendering:geometricPrecision; text-rendering:geometricPrecision; image-rendering:optimizeQuality; fill-rule:evenodd; clip-rule:evenodd"
viewBox="0 0 210 297"
 xmlns:xlink="http://www.w3.org/1999/xlink">
 <defs>
  <style type="text/css">
   <![CDATA[
    .str0 {stroke:#333333;stroke-width:0.5}
    .fil0 {fill:none}
    .fil1 {fill:#999999}
   ]]>
  </style>
 </defs>
 <g id="Слой_x0020_1">
  <metadata id="CorelCorpID_0Corel-Layer"/>
  <line class="fil0 str0" x1="29.9912" y1="38.1664" x2="30.7269" y2= "99.2354" />
  <line class="fil0 str0" x1="103.262" y1="71.5664" x2="102.79" y2= "99.9428" />
  <line class="fil0 str0" x1="194.4" y1="72.6573" x2="194.683" y2= "100.835" />
  <line class="fil0 str0" x1="6.0607" y1="99.0023" x2="204.84" y2= "100.937" />
  <g id="_362735240">
   <path id="_356441352" class="fil1 str0" d="M88.2574 73.5792l-75.4661 -37.1075 121.879 0.7808 70.2544 34.2782c-0.6212,0.0082 -0.9638,1.382 -1.661,1.4173 -0.8142,0.0412 -1.9879,-1.2412 -2.7525,-1.0084 -0.6557,0.1996 -1.0467,1.0043 -1.7249,1.0589 -0.7917,0.0638 -1.732,-1.0629 -2.5043,-0.9653 -0.6177,0.0781 -1.0119,0.7958 -1.6288,0.8254 -0.7663,0.0368 -1.5107,-0.9758 -2.2769,-0.9089 -0.6121,0.0535 -1.1432,1.0549 -1.7575,1.0797 -0.9077,0.0367 -1.8786,-1.1718 -2.7772,-1.1107 -0.7412,0.0504 -1.0696,1.0499 -1.8169,1.08 -0.7174,0.0289 -1.6601,-1.0126 -2.3772,-0.9786 -0.6456,0.0305 -1.1475,0.8297 -1.7946,0.8512 -0.7441,0.0247 -1.402,-0.9181 -2.1493,-0.889 -0.6428,0.0249 -1.2215,0.9722 -1.8674,0.9898 -0.7963,0.0216 -1.6669,-1.097 -2.4648,-1.0701 -0.7168,0.0241 -1.5005,1.087 -2.2163,1.108 -0.8145,0.0239 -1.5844,-0.998 -2.3963,-0.9769 -0.5847,0.0152 -1.1107,0.8185 -1.6939,0.8305 -0.7105,0.0146 -1.3541,-0.9482 -2.0623,-0.9316 -0.7171,0.0168 -1.2902,1.0828 -2.0056,1.0946 -0.8614,0.0143 -1.7221,-1.1357 -2.5804,-1.1193 -0.7871,0.0151 -1.2866,1.0957 -2.0724,1.1059 -0.8126,0.0105 -1.4712,-0.9972 -2.2831,-0.9863 -0.6579,0.0089 -1.2043,0.8425 -1.862,0.8488 -0.6723,0.0063 -1.2901,-0.948 -1.9624,-0.9413 -0.6266,0.0062 -1.2976,1.0421 -1.9239,1.0458 -0.8382,0.0048 -1.7145,-1.0268 -2.5517,-1.0221 -0.7681,0.0043 -1.4153,1.057 -2.1828,1.0575 -0.6836,0.0004 -1.5107,-0.9887 -2.1934,-0.9888 -0.6439,-0.0001 -1.3324,0.8007 -1.9753,0.7982 -0.6211,-0.0024 -1.3069,-0.8848 -1.9269,-0.8879 -0.7661,-0.0039 -1.412,1.0194 -2.1765,1.0116 -0.8165,-0.0084 -1.5517,-1.0301 -2.3663,-1.0403 -0.7875,-0.0099 -1.3214,1.1232 -2.1076,1.1086 -0.7631,-0.0141 -1.6126,-0.9638 -2.3742,-0.9806 -0.6729,-0.0148 -1.1857,0.8105 -1.8576,0.7922 -0.6439,-0.0175 -1.3098,-0.8686 -1.9527,-0.8884 -0.6472,-0.0198 -1.293,1.0635 -1.9391,1.0399 -0.7979,-0.0292 -1.7171,-1.0362 -2.5129,-1.0696 -0.7934,-0.0333 -1.4651,1.1474 -2.2565,1.1076 -0.7249,-0.0364 -1.5095,-0.941 -2.2325,-0.982 -0.6961,-0.0394 -1.1475,0.8382 -1.8421,0.7933 -0.6643,-0.0428 -1.3691,-0.8369 -2.0319,-0.8842 -0.7602,-0.0543 -1.3168,1.0627 -2.0753,1.0009 -0.7723,-0.0629 -1.5342,-1.0171 -2.3046,-1.087 -0.7468,-0.0678 -1.526,1.2392 -2.2708,1.1629 -0.7065,-0.0723 -1.4571,-0.9085 -2.1617,-0.9879 -0.7165,-0.0808 -1.3668,0.8861 -2.0814,0.7966 -0.5779,-0.0723 -1.1013,-0.798 -1.6779,-0.8758 -0.7691,-0.1038 -1.5619,1.1837 -2.3286,1.0684 -0.7483,-0.1126 -1.4187,-0.8447 -2.1647,-0.9681 -0.8426,-0.1393 -1.5266,1.385 -2.3663,1.2293 -0.7042,-0.1305 -1.3636,-0.7321 -2.0658,-0.8741 -0.8534,-0.1726 -1.4368,1.1189 -2.2873,0.9271 -0.9273,-0.2092 -1.3738,-0.676 -2.3578,-0.6145l-1.4336 0.8562 0.0004 0z"/>
   <line id="_356422704" class="fil0 str0" x1="46.6099" y1="36.6885" x2="122.943" y2= "72.8214" />
   <line id="_356422344" class="fil0 str0" x1="76.3679" y1="36.879" x2="150.122" y2= "72.0134" />
   <line id="_356422008" class="fil0 str0" x1="106.146" y1="37.0697" x2="180.095" y2= "72.0168" />
   <g id="_187781112">
    <path id="_187782000" class="fil0 str0" d="M38.5949 49.3896c2.5697,-2.3631 2.8893,0.9261 5.0196,-0.7271 0.9213,-0.7148 1.4274,-0.4529 2.119,0.014 1.0011,0.6759 1.3921,0.5389 2.396,-0.4534 0.4402,-0.4351 1.3136,-0.5363 1.9314,0.0487 0.4913,0.4652 0.8877,0.4661 1.3212,0.5191"/>
    <path id="_186183744" class="fil0 str0" d="M51.2616 48.7417c0.8478,0.2819 1.1719,-0.4761 1.4414,-0.6777 1.6057,-1.201 1.7297,1.5833 3.6871,0.1688 0.9211,-0.6655 1.4274,-0.3767 2.119,0.1271 1.0011,0.7294 1.3921,0.6132 2.396,-0.3254 0.4402,-0.4116 1.3136,-0.4662 1.9314,0.1517 0.4913,0.4916 0.8877,0.5135 1.3212,0.5897"/>
    <path id="_187781088" class="fil0 str0" d="M64.0393 48.7392c0.8478,0.2819 1.1719,-0.4761 1.4414,-0.6777 1.6057,-1.201 1.7297,1.5833 3.6871,0.1688 0.9211,-0.6655 1.4274,-0.3767 2.119,0.1271 1.0011,0.7294 1.3921,0.6132 2.396,-0.3254 0.4402,-0.4116 1.3136,-0.4662 1.9314,0.1517 0.4913,0.4916 0.8877,0.5135 1.3212,0.5897"/>
    <path id="_187786392" class="fil0 str0" d="M76.817 48.7367c0.8478,0.2819 1.1719,-0.4761 1.4414,-0.6777 1.6057,-1.201 1.7297,1.5833 3.6871,0.1688 0.9211,-0.6655 1.4274,-0.3767 2.119,0.1271 1.0011,0.7294 1.3921,0.6132 2.396,-0.3254 0.4402,-0.4116 1.3136,-0.4663 1.9314,0.1517 0.4913,0.4916 0.8877,0.5135 1.3212,0.5897"/>
    <path id="_187784232" class="fil0 str0" d="M89.5947 48.7342c0.8478,0.2819 1.1719,-0.4761 1.4414,-0.6777 1.6057,-1.201 1.7297,1.5833 3.6871,0.1688 0.9211,-0.6655 1.4274,-0.3767 2.119,0.1271 1.0011,0.7294 1.3921,0.6132 2.396,-0.3254 0.4402,-0.4116 1.3136,-0.4663 1.9314,0.1517 0.4913,0.4915 0.8877,0.5135 1.3212,0.5897"/>
    <path id="_187783224" class="fil0 str0" d="M102.372 48.7317c0.8478,0.2819 1.1719,-0.4761 1.4414,-0.6777 1.6057,-1.201 1.7297,1.5833 3.6871,0.1688 0.9211,-0.6655 1.4274,-0.3767 2.119,0.1271 1.0011,0.7294 1.3921,0.6132 2.396,-0.3254 0.4402,-0.4116 1.3136,-0.4663 1.9314,0.1517 0.4913,0.4915 0.8877,0.5135 1.3212,0.5897"/>
    <path id="_187780992" class="fil0 str0" d="M115.15 48.7292c0.8478,0.2819 1.1719,-0.4761 1.4414,-0.6777 1.6057,-1.201 1.7297,1.5833 3.6871,0.1688 0.9211,-0.6655 1.4274,-0.3768 2.119,0.1271 1.0011,0.7294 1.3921,0.6132 2.396,-0.3254 0.4402,-0.4116 1.3136,-0.4663 1.9314,0.1517 0.4913,0.4915 0.8877,0.5135 1.3212,0.5897"/>
    <path id="_187783080" class="fil0 str0" d="M127.928 48.7267c0.8478,0.2819 1.1719,-0.4761 1.4414,-0.6777 1.6057,-1.201 1.7297,1.5833 3.6871,0.1688 0.9211,-0.6655 1.4274,-0.3768 2.119,0.1271 1.0011,0.7294 1.3921,0.6132 2.396,-0.3254 0.4402,-0.4116 1.3136,-0.4663 1.9314,0.1517 0.4913,0.4915 0.8877,0.5135 1.3212,0.5897"/>
    <path id="_187784112" class="fil0 str0" d="M140.706 48.7242c0.8478,0.2819 1.1719,-0.4761 1.4414,-0.6777 1.6057,-1.201 1.7297,1.5833 3.6871,0.1688 0.9211,-0.6655 1.4274,-0.3768 2.119,0.1271 1.0011,0.7294 1.3921,0.6132 2.396,-0.3254 0.4402,-0.4116 1.3136,-0.4663 1.9314,0.1517 0.4913,0.4915 0.8877,0.5135 1.3212,0.5897"/>
    <path id="_186185952" class="fil0 str0" d="M153.483 48.7217c0.8478,0.2819 1.3141,-1.4065 1.7794,-1.3806"/>
   </g>
   <g id="_187780872">
    <path id="_187782408" class="fil0 str0" d="M63.2248 61.5802c2.5697,-2.3632 2.8893,0.9261 5.0196,-0.7271 0.9213,-0.7149 1.4274,-0.4529 2.119,0.0139 1.0011,0.676 1.3921,0.5389 2.396,-0.4533 0.4402,-0.4351 1.3136,-0.5363 1.9314,0.0486 0.4913,0.4653 0.8877,0.4661 1.3212,0.5192"/>
    <path id="_187782312" class="fil0 str0" d="M75.8915 60.9322c0.8478,0.2819 1.1719,-0.4761 1.4414,-0.6777 1.6057,-1.2009 1.7297,1.5834 3.6871,0.1689 0.9211,-0.6656 1.4274,-0.3768 2.119,0.1271 1.0011,0.7293 1.3921,0.6131 2.396,-0.3254 0.4402,-0.4116 1.3136,-0.4663 1.9314,0.1517 0.4913,0.4915 0.8877,0.5135 1.3212,0.5897"/>
    <path id="_187784328" class="fil0 str0" d="M88.6692 60.9297c0.8478,0.2819 1.1719,-0.4761 1.4414,-0.6777 1.6057,-1.2009 1.7297,1.5834 3.6871,0.1689 0.9211,-0.6656 1.4274,-0.3768 2.119,0.1271 1.0011,0.7293 1.3921,0.6131 2.396,-0.3254 0.4402,-0.4117 1.3136,-0.4663 1.9314,0.1517 0.4913,0.4915 0.8877,0.5135 1.3212,0.5897"/>
    <path id="_187788792" class="fil0 str0" d="M101.447 60.9272c0.8478,0.2819 1.1719,-0.4761 1.4414,-0.6777 1.6057,-1.2009 1.7297,1.5834 3.6871,0.1689 0.9211,-0.6656 1.4274,-0.3768 2.119,0.1271 1.0011,0.7293 1.3921,0.6131 2.396,-0.3254 0.4402,-0.4117 1.3136,-0.4663 1.9314,0.1517 0.4913,0.4915 0.8877,0.5135 1.3212,0.5897"/>
    <path id="_187787064" class="fil0 str0" d="M114.225 60.9247c0.8478,0.2819 1.1719,-0.4761 1.4414,-0.6777 1.6057,-1.2009 1.7297,1.5834 3.6871,0.1689 0.9211,-0.6656 1.4274,-0.3768 2.119,0.1271 1.0011,0.7293 1.3921,0.6131 2.396,-0.3254 0.4402,-0.4117 1.3136,-0.4663 1.9314,0.1517 0.4913,0.4915 0.8877,0.5135 1.3212,0.5896"/>
    <path id="_187786368" class="fil0 str0" d="M127.002 60.9222c0.8478,0.2819 1.1719,-0.4761 1.4414,-0.6777 1.6057,-1.2009 1.7297,1.5834 3.6871,0.1689 0.9211,-0.6656 1.4274,-0.3768 2.119,0.1271 1.0011,0.7293 1.3921,0.6131 2.396,-0.3254 0.4402,-0.4117 1.3136,-0.4663 1.9314,0.1517 0.4913,0.4915 0.8877,0.5135 1.3212,0.5896"/>
    <path id="_187788384" class="fil0 str0" d="M139.78 60.9197c0.8478,0.2819 1.1719,-0.4761 1.4414,-0.6777 1.6057,-1.2009 1.7297,1.5834 3.6871,0.1689 0.9211,-0.6656 1.4274,-0.3768 2.119,0.1271 1.0011,0.7293 1.3921,0.6131 2.396,-0.3254 0.4402,-0.4117 1.3136,-0.4663 1.9314,0.1517 0.4913,0.4915 0.8877,0.5135 1.3212,0.5896"/>
    <path id="_187787088" class="fil0 str0" d="M152.558 60.9172c0.8478,0.2819 1.1719,-0.4761 1.4414,-0.6777 1.6057,-1.2009 1.7297,1.5834 3.6871,0.1689 0.9211,-0.6656 1.4274,-0.3768 2.119,0.1271 1.0011,0.7293 1.3921,0.6131 2.396,-0.3254 0.4402,-0.4117 1.3136,-0.4663 1.9314,0.1517 0.4913,0.4915 0.8877,0.5135 1.3212,0.5896"/>
    <path id="_187783872" class="fil0 str0" d="M165.335 60.9147c0.8478,0.2819 1.1719,-0.4761 1.4414,-0.6777 1.6057,-1.2009 1.7297,1.5834 3.6871,0.1689 0.9211,-0.6656 1.4274,-0.3768 2.119,0.1271 1.0011,0.7293 1.3921,0.6131 2.396,-0.3254 0.4402,-0.4117 1.3136,-0.4663 1.9314,0.1517 0.4913,0.4915 0.8877,0.5135 1.3212,0.5896"/>
    <path id="_187787760" class="fil0 str0" d="M178.113 60.9122c0.8478,0.2819 1.3141,-1.4064 1.7794,-1.3806"/>
   </g>
  </g>
 </g>
</svg>
