<?xml version="1.0" encoding="UTF-8"?>
<!DOCTYPE svg PUBLIC "-//W3C//DTD SVG 1.1//EN" "http://www.w3.org/Graphics/SVG/1.1/DTD/svg11.dtd">
<!-- Creator: CorelDRAW -->
<svg xmlns="http://www.w3.org/2000/svg" xml:space="preserve" width="210mm" height="297mm" style="shape-rendering:geometricPrecision; text-rendering:geometricPrecision; image-rendering:optimizeQuality; fill-rule:evenodd; clip-rule:evenodd"
viewBox="0 0 210 297"
 xmlns:xlink="http://www.w3.org/1999/xlink">
 <defs>
  <style type="text/css">
   <![CDATA[
    .str1 {stroke:#333333;stroke-width:0.2}
    .str0 {stroke:#333333;stroke-width:0.5}
    .fil0 {fill:none}
    .fil1 {fill:#999999}
   ]]>
  </style>
 </defs>
 <g id="Слой_x0020_1">
  <metadata id="CorelCorpID_0Corel-Layer"/>
  <line class="fil0 str0" x1="23.3073" y1="68.8807" x2="23.3079" y2= "104.999" />
  <line class="fil0 str0" x1="114.636" y1="82.2119" x2="115.674" y2= "124.027" />
  <line class="fil0 str0" x1="188.883" y1="68.0546" x2="188.679" y2= "107.22" />
  <polyline class="fil0 str0" points="23.3079,104.998 115.92,124.077 188.679,107.22 "/>
  <g id="_427736984">
   <polygon id="_197262592" class="fil1 str0" points="9.7057,64.6427 106.232,5.058 198.311,64.3521 116.628,82.5115 "/>
   <line id="_197276272" class="fil0 str0" x1="106.149" y1="5.1958" x2="116.628" y2= "82.5115" />
   <g id="_194944440">
    <path id="_187782408" class="fil0 str0" d="M111.684 55.4705c2.5331,-3.6549 2.8482,0.8236 4.9481,-1.7852 0.9082,-1.1281 1.4071,-0.8465 2.0889,-0.3118 0.9868,0.7741 1.3722,0.5244 2.3618,-0.9984 0.434,-0.6679 1.2949,-0.9435 1.9039,-0.2346 0.4843,0.5636 0.8751,0.5029 1.3024,0.5082"/>
    <path id="_187782312" class="fil0 str0" d="M124.17 52.5998c0.8358,0.2556 1.1552,-0.8386 1.4209,-1.1582 1.5828,-1.9043 1.7051,1.9095 3.6346,-0.3436 0.908,-1.0601 1.4071,-0.7417 2.0888,-0.156 0.9869,0.8478 1.3723,0.6266 2.3619,-0.8223 0.4339,-0.6354 1.2949,-0.8471 1.9039,-0.0928 0.4843,0.5999 0.8751,0.5682 1.3024,0.6054"/>
    <path id="_187784328" class="fil0 str0" d="M136.766 50.6002c0.8357,0.2557 1.1552,-0.8385 1.4208,-1.1582 1.5829,-1.9041 1.7051,1.9097 3.6346,-0.3436 0.908,-1.06 1.4071,-0.7415 2.0889,-0.1559 0.9868,0.8477 1.3722,0.6267 2.3618,-0.8222 0.434,-0.6356 1.2949,-0.8472 1.9039,-0.0929 0.4843,0.5999 0.8751,0.5682 1.3024,0.6054"/>
    <path id="_187788792" class="fil0 str0" d="M149.362 48.6008c0.8357,0.2556 1.1552,-0.8386 1.4209,-1.1583 1.5828,-1.9042 1.705,1.9096 3.6346,-0.3435 0.9079,-1.0601 1.407,-0.7416 2.0888,-0.1559 0.9868,0.8476 1.3723,0.6266 2.3618,-0.8224 0.4339,-0.6354 1.2949,-0.8471 1.9039,-0.0929 0.4843,0.6 0.875,0.5684 1.3023,0.6055"/>
    <path id="_187787064" class="fil0 str0" d="M161.958 46.6012c0.8358,0.2556 1.1552,-0.8385 1.4209,-1.1582"/>
   </g>
   <path id="_187782408_0" class="fil0 str0" d="M109.413 31.8949c2.5331,-3.604 2.8482,0.8808 4.9481,-1.6857 0.9082,-1.1098 1.4071,-0.8181 2.0889,-0.2698 0.9868,0.794 1.3722,0.552 2.3618,-0.9508 0.434,-0.6592 1.2949,-0.9177 1.9039,-0.1964 0.4843,0.5734 0.8751,0.5205 1.3024,0.5343"/>
   <path id="_187782312_1" class="fil0 str0" d="M121.899 29.2753c0.8358,0.2724 1.1552,-0.8153 1.4209,-1.1296 1.5828,-1.8723 1.7051,1.9438 3.6346,-0.2704 0.908,-1.0419 1.4071,-0.7135 2.0888,-0.1141 0.9869,0.8676 1.3723,0.6543 2.3619,-0.7747 0.4339,-0.6267 1.5221,-1.3239 2.1311,-0.5575 0.4843,0.6097 0.8061,0.7449 1.2334,0.7907"/>
   <path id="_187782408_2" class="fil0 str0" d="M53.3898 46.4009c2.5923,-2.7905 2.9147,1.7954 5.0637,-0.0968 0.9294,-0.8182 1.4399,-0.3663 2.1377,0.4011 1.0098,1.1108 1.4042,0.9927 2.4169,-0.1925 0.4441,-0.5198 1.3252,-0.5018 1.9484,0.4149 0.4956,0.7289 0.8955,0.8016 1.3328,0.9527"/>
   <path id="_187782408_3" class="fil0 str0" d="M50.3881 45.0068c0.4441,-0.5198 1.3251,-0.5018 1.9484,0.415 0.4956,0.7289 0.8955,0.8016 1.3328,0.9526"/>
   <path id="_187782312_4" class="fil0 str0" d="M66.1677 47.7909c0.8553,0.5407 1.1822,-0.4444 1.4541,-0.6734 1.6198,-1.3641 1.7449,2.4914 3.7195,0.8967 0.9292,-0.7504 1.4399,-0.2616 2.1376,0.5567 1.0099,1.1845 1.4043,1.0949 2.417,-0.0164 0.444,-0.4873 1.3252,-0.4052 1.9484,0.5569 0.4956,0.7651 0.8955,0.8668 1.3328,1.0498"/>
   <path id="_187784328_5" class="fil0 str0" d="M79.0577 50.0893c0.8552,0.5409 1.1821,-0.4443 1.4539,-0.6734 1.6199,-1.3639 1.745,2.4916 3.7195,0.8968 0.9292,-0.7504 1.44,-0.2616 2.1377,0.5567 1.0098,1.1844 1.4043,1.0949 2.417,-0.0163 0.4441,-0.4874 1.3251,-0.4053 1.9483,0.5568 0.4956,0.7652 0.8956,0.8668 1.3328,1.0498"/>
   <path id="_187788792_6" class="fil0 str0" d="M91.9476 52.3878c0.8552,0.5409 1.1822,-0.4443 1.4541,-0.6733 1.6198,-1.3642 1.7448,2.4913 3.7195,0.8966 0.9291,-0.7502 1.4398,-0.2614 2.1376,0.5568 1.0098,1.1845 1.4043,1.095 2.417,-0.0163 0.444,-0.4874 1.3252,-0.4052 1.9484,0.5568 0.4956,0.7652 0.8954,0.8669 1.3327,1.0499"/>
   <path id="_187787064_7" class="fil0 str0" d="M104.838 54.6864c0.8553,0.5409 1.1821,-0.4444 1.4541,-0.6734 1.6197,-1.364 2.0681,2.5311 3.1328,0.9622 1.0647,-1.5688 1.9274,0.1095 2.2144,0.7538 0.3245,0.7287 1.3757,-0.9136 1.7248,-0.5041"/>
   <path id="_187784328_8" class="fil0 str0" d="M75.8158 28.7844c0.8357,0.4999 1.3664,-1.1889 1.632,-1.4309 1.5829,-1.4418 1.7051,2.4077 3.6346,0.7181 0.908,-0.7949 1.4071,-0.3305 2.0889,0.4542 0.9868,1.1359 1.3722,1.0275 2.3618,-0.1323 0.434,-0.5088 1.2949,-0.469 1.9039,0.4632 0.4843,0.7415 0.8751,0.8238 1.3024,0.9858"/>
   <path id="_187788792_9" class="fil0 str0" d="M88.6228 29.7764c0.8357,0.4998 1.1552,-0.5011 1.4209,-0.7431 1.5828,-1.4419 1.705,2.4076 3.6346,0.7181 0.9079,-0.7949 1.407,-0.3305 2.0888,0.4542 0.9868,1.1359 1.3723,1.0275 2.3618,-0.1324 0.4339,-0.5087 1.2949,-0.4689 1.9039,0.4633 0.4843,0.7415 0.875,0.8238 1.3023,0.9858"/>
   <path id="_187787064_10" class="fil0 str0" d="M101.219 31.4563c0.8358,0.4997 1.1552,-0.5011 1.4209,-0.7432 1.5828,-1.4418 2.021,2.4317 3.0614,0.8118 1.0404,-1.62 1.8834,0.017 2.1638,0.6474 0.3171,0.7131 1.3443,-0.9796 1.6855,-0.5868"/>
   <line id="_197257720" class="fil0 str0" x1="170.678" y1="70.4951" x2="109.565" y2= "31.3218" />
   <line id="_197258392" class="fil0 str0" x1="194.135" y1="65.2803" x2="106.5" y2= "9.0949" />
   <line id="_197262760" class="fil0 str0" x1="146.788" y1="75.8065" x2="112.858" y2= "54.1699" />
   <line id="_197248456" class="fil0 str0" x1="46.6948" y1="70.8244" x2="107.776" y2= "32.1558" />
   <line id="_197275888" class="fil0 str0" x1="17.5975" y1="65.6536" x2="106.696" y2= "9.2284" />
   <line id="_197271640" class="fil0 str0" x1="78.1699" y1="76.0845" x2="113.06" y2= "53.1973" />
   <polygon id="_197245864" class="fil1 str1" points="103.259,6.8932 112.496,81.8212 116.628,82.5115 120.225,81.7119 109.899,7.4196 106.232,5.058 "/>
   <line id="_197264824" class="fil0 str1" x1="106.149" y1="5.1958" x2="116.628" y2= "82.5115" />
  </g>
 </g>
</svg>
