<?xml version="1.0" encoding="UTF-8"?>
<!DOCTYPE svg PUBLIC "-//W3C//DTD SVG 1.1//EN" "http://www.w3.org/Graphics/SVG/1.1/DTD/svg11.dtd">
<!-- Creator: CorelDRAW -->
<svg xmlns="http://www.w3.org/2000/svg" xml:space="preserve" width="210mm" height="297mm" style="shape-rendering:geometricPrecision; text-rendering:geometricPrecision; image-rendering:optimizeQuality; fill-rule:evenodd; clip-rule:evenodd"
viewBox="0 0 210 297"
 xmlns:xlink="http://www.w3.org/1999/xlink">
 <defs>
  <style type="text/css">
   <![CDATA[
    .str1 {stroke:#333333;stroke-width:0.2}
    .str0 {stroke:#333333;stroke-width:0.5}
    .fil0 {fill:none}
    .fil1 {fill:#999999}
   ]]>
  </style>
 </defs>
 <g id="Слой_x0020_1">
  <metadata id="CorelCorpID_0Corel-Layer"/>
  <line class="fil0 str0" x1="23.3073" y1="68.8807" x2="23.3079" y2= "104.999" />
  <line class="fil0 str0" x1="114.636" y1="82.2119" x2="115.674" y2= "124.027" />
  <line class="fil0 str0" x1="188.883" y1="68.0546" x2="188.679" y2= "107.22" />
  <polyline class="fil0 str0" points="23.3079,104.998 115.92,124.077 188.679,107.22 "/>
  <g id="_427736984">
   <polygon id="_197262592" class="fil1 str0" points="9.7057,71.5672 106.232,35.0727 198.311,71.3892 116.628,82.5115 "/>
   <line id="_197276272" class="fil0 str0" x1="106.149" y1="35.1571" x2="116.628" y2= "82.5115" />
   <g id="_194944440">
    <path id="_187782408" class="fil0 str0" d="M111.684 65.9494c2.5331,-2.2386 2.8482,0.5044 4.9481,-1.0934 0.9082,-0.6909 1.4071,-0.5185 2.0889,-0.191 0.9868,0.4741 1.3722,0.3212 2.3618,-0.6115 0.434,-0.409 1.2949,-0.5779 1.9039,-0.1437 0.4843,0.3453 0.8751,0.308 1.3024,0.3113"/>
    <path id="_187782312" class="fil0 str0" d="M124.17 64.1912c0.8358,0.1565 1.1552,-0.5137 1.4209,-0.7094 1.5828,-1.1664 1.7051,1.1695 3.6346,-0.2105 0.908,-0.6493 1.4071,-0.4542 2.0888,-0.0955 0.9869,0.5192 1.3723,0.3837 2.3619,-0.5037 0.4339,-0.3891 1.2949,-0.5188 1.9039,-0.0568 0.4843,0.3674 0.8751,0.348 1.3024,0.3708"/>
    <path id="_187784328" class="fil0 str0" d="M136.766 62.9664c0.8357,0.1566 1.1552,-0.5136 1.4208,-0.7093 1.5829,-1.1663 1.7051,1.1696 3.6346,-0.2105 0.908,-0.6492 1.4071,-0.4542 2.0889,-0.0955 0.9868,0.5192 1.3722,0.3839 2.3618,-0.5036 0.434,-0.3892 1.2949,-0.5189 1.9039,-0.0568 0.4843,0.3674 0.8751,0.348 1.3024,0.3707"/>
    <path id="_187788792" class="fil0 str0" d="M149.362 61.7418c0.8357,0.1566 1.1552,-0.5136 1.4209,-0.7094 1.5828,-1.1663 1.705,1.1696 3.6346,-0.2104 0.9079,-0.6492 1.407,-0.4542 2.0888,-0.0955 0.9868,0.5192 1.3723,0.3838 2.3618,-0.5037 0.4339,-0.3892 1.2949,-0.5188 1.9039,-0.0569 0.4843,0.3675 0.875,0.3481 1.3023,0.3709"/>
    <path id="_187787064" class="fil0 str0" d="M161.958 60.5171c0.8358,0.1566 1.1552,-0.5135 1.4209,-0.7093"/>
   </g>
   <path id="_187782408_0" class="fil0 str0" d="M109.413 51.5098c2.5331,-2.2074 2.8482,0.5394 4.9481,-1.0325 0.9082,-0.6797 1.4071,-0.5011 2.0889,-0.1652 0.9868,0.4863 1.3722,0.3381 2.3618,-0.5823 0.434,-0.4038 1.2949,-0.5621 1.9039,-0.1204 0.4843,0.3513 0.8751,0.3189 1.3024,0.3273"/>
   <path id="_187782312_1" class="fil0 str0" d="M121.899 49.9053c0.8358,0.1669 1.1552,-0.4993 1.4209,-0.6918 1.5828,-1.1468 1.7051,1.1905 3.6346,-0.1656 0.908,-0.6382 1.4071,-0.437 2.0888,-0.0699 0.9869,0.5314 1.3723,0.4007 2.3619,-0.4745 0.4339,-0.3838 1.5221,-0.8109 2.1311,-0.3414 0.4843,0.3734 0.8061,0.4562 1.2334,0.4842"/>
   <path id="_187782408_2" class="fil0 str0" d="M53.3898 60.3945c2.5923,-1.7092 2.9147,1.0996 5.0637,-0.0594 0.9294,-0.5011 1.4399,-0.2243 2.1377,0.2457 1.0098,0.6803 1.4042,0.608 2.4169,-0.1179 0.4441,-0.3183 1.3252,-0.3073 1.9484,0.2541 0.4956,0.4465 0.8955,0.491 1.3328,0.5835"/>
   <path id="_187782408_3" class="fil0 str0" d="M50.3881 59.5406c0.4441,-0.3184 1.3251,-0.3073 1.9484,0.2542 0.4956,0.4464 0.8955,0.4909 1.3328,0.5834"/>
   <path id="_187782312_4" class="fil0 str0" d="M66.1677 61.2458c0.8553,0.3312 1.1822,-0.2722 1.4541,-0.4124 1.6198,-0.8355 1.7449,1.5259 3.7195,0.5492 0.9292,-0.4596 1.4399,-0.1602 2.1376,0.3409 1.0099,0.7255 1.4043,0.6706 2.417,-0.01 0.444,-0.2985 1.3252,-0.2482 1.9484,0.3411 0.4956,0.4686 0.8955,0.5309 1.3328,0.643"/>
   <path id="_187784328_5" class="fil0 str0" d="M79.0577 62.6535c0.8552,0.3313 1.1821,-0.2721 1.4539,-0.4124 1.6199,-0.8354 1.745,1.526 3.7195,0.5492 0.9292,-0.4595 1.44,-0.1602 2.1377,0.341 1.0098,0.7254 1.4043,0.6707 2.417,-0.01 0.4441,-0.2985 1.3251,-0.2482 1.9483,0.3411 0.4956,0.4686 0.8956,0.5309 1.3328,0.6429"/>
   <path id="_187788792_6" class="fil0 str0" d="M91.9476 64.0613c0.8552,0.3313 1.1822,-0.2721 1.4541,-0.4124 1.6198,-0.8355 1.7448,1.5259 3.7195,0.5492 0.9291,-0.4595 1.4398,-0.1601 2.1376,0.341 1.0098,0.7255 1.4043,0.6707 2.417,-0.01 0.444,-0.2985 1.3252,-0.2482 1.9484,0.341 0.4956,0.4687 0.8954,0.531 1.3327,0.6431"/>
   <path id="_187787064_7" class="fil0 str0" d="M104.838 65.4691c0.8553,0.3313 1.1821,-0.2721 1.4541,-0.4124 1.6197,-0.8354 2.0681,1.5502 3.1328,0.5893 1.0647,-0.9608 1.9274,0.0671 2.2144,0.4617 0.3245,0.4464 1.3757,-0.5595 1.7248,-0.3087"/>
   <path id="_187784328_8" class="fil0 str0" d="M75.8158 49.6047c0.8357,0.3061 1.3664,-0.7282 1.632,-0.8764 1.5829,-0.8831 1.7051,1.4746 3.6346,0.4398 0.908,-0.4869 1.4071,-0.2025 2.0889,0.2782 0.9868,0.6957 1.3722,0.6293 2.3618,-0.081 0.434,-0.3117 1.2949,-0.2873 1.9039,0.2837 0.4843,0.4541 0.8751,0.5045 1.3024,0.6038"/>
   <path id="_187788792_9" class="fil0 str0" d="M88.6228 50.2123c0.8357,0.3061 1.1552,-0.307 1.4209,-0.4552 1.5828,-0.8831 1.705,1.4746 3.6346,0.4398 0.9079,-0.4868 1.407,-0.2024 2.0888,0.2783 0.9868,0.6957 1.3723,0.6293 2.3618,-0.0812 0.4339,-0.3115 1.2949,-0.2872 1.9039,0.2838 0.4843,0.4541 0.875,0.5046 1.3023,0.6038"/>
   <path id="_187787064_10" class="fil0 str0" d="M101.219 51.2412c0.8358,0.306 1.1552,-0.307 1.4209,-0.4552 1.5828,-0.8831 2.021,1.4893 3.0614,0.4972 1.0404,-0.9923 1.8834,0.0104 2.1638,0.3965 0.3171,0.4368 1.3443,-0.6 1.6855,-0.3594"/>
   <line id="_197257720" class="fil0 str0" x1="170.678" y1="75.1517" x2="109.565" y2= "51.1588" />
   <line id="_197258392" class="fil0 str0" x1="194.135" y1="71.9577" x2="106.5" y2= "37.5452" />
   <line id="_197262760" class="fil0 str0" x1="146.788" y1="78.4048" x2="112.858" y2= "65.1528" />
   <line id="_197248456" class="fil0 str0" x1="46.6948" y1="75.3533" x2="107.776" y2= "51.6696" />
   <line id="_197275888" class="fil0 str0" x1="17.5975" y1="72.1864" x2="106.696" y2= "37.627" />
   <line id="_197271640" class="fil0 str0" x1="78.1699" y1="78.5751" x2="113.06" y2= "64.5571" />
   <polygon id="_197245864" class="fil1 str1" points="103.259,36.1968 112.496,82.0887 116.628,82.5115 120.225,82.0218 109.899,36.5191 106.232,35.0727 "/>
   <line id="_197264824" class="fil0 str1" x1="106.149" y1="35.1571" x2="116.628" y2= "82.5115" />
  </g>
 </g>
</svg>
