<?xml version="1.0" encoding="UTF-8"?>
<!DOCTYPE svg PUBLIC "-//W3C//DTD SVG 1.1//EN" "http://www.w3.org/Graphics/SVG/1.1/DTD/svg11.dtd">
<!-- Creator: CorelDRAW -->
<svg xmlns="http://www.w3.org/2000/svg" xml:space="preserve" width="210mm" height="297mm" style="shape-rendering:geometricPrecision; text-rendering:geometricPrecision; image-rendering:optimizeQuality; fill-rule:evenodd; clip-rule:evenodd"
viewBox="0 0 210 297"
 xmlns:xlink="http://www.w3.org/1999/xlink">
 <defs>
  <style type="text/css">
   <![CDATA[
    .str0 {stroke:#333333;stroke-width:0.5}
    .fil0 {fill:none}
    .fil1 {fill:#AD3836}
   ]]>
  </style>
 </defs>
 <g id="Слой_x0020_1">
  <metadata id="CorelCorpID_0Corel-Layer"/>
  <line class="fil0 str0" x1="23.3073" y1="68.8807" x2="23.3079" y2= "104.999" />
  <line class="fil0 str0" x1="114.636" y1="82.2119" x2="115.674" y2= "124.027" />
  <line class="fil0 str0" x1="188.883" y1="68.0546" x2="188.679" y2= "107.22" />
  <polyline class="fil0 str0" points="23.3079,104.998 115.92,124.077 188.679,107.22 "/>
  <g id="_432543872">
   <polygon id="_430464776" class="fil1 str0" points="9.7057,70.5034 106.232,30.4616 198.311,70.3081 116.628,82.5115 "/>
   <line id="_430465808" class="fil0 str0" x1="106.149" y1="30.5542" x2="116.628" y2= "82.5115" />
   <line id="_430474688" class="fil0 str0" x1="194.135" y1="70.9319" x2="106.5" y2= "33.1745" />
   <line id="_430475024" class="fil0 str0" x1="17.5975" y1="71.1828" x2="106.696" y2= "33.2642" />
   <polygon id="_430475168" class="fil1 str0" points="103.259,31.6949 112.496,82.0476 116.628,82.5115 120.225,81.9742 109.899,32.0486 106.232,30.4616 "/>
   <line id="_430475552" class="fil0 str0" x1="106.149" y1="30.5542" x2="116.628" y2= "82.5115" />
   <polygon id="_430475696" class="fil0 str0" points="121.212,77.9362 128.2,76.6764 131.776,80.6262 131.68,80.5207 120.992,82.2234 119.885,80.7984 "/>
   <polygon id="_430475888" class="fil0 str0" points="129.575,73.7334 136.563,72.4735 140.139,76.4233 138.784,79.4286 131.68,80.5207 128.248,76.5955 "/>
   <polygon id="_430476080" class="fil0 str0" points="137.938,69.5305 144.927,68.2707 148.502,72.2204 147.148,75.2257 140.024,76.7862 136.611,72.3926 "/>
   <polygon id="_430476272" class="fil0 str0" points="146.302,65.3275 153.29,64.0678 156.866,68.0175 155.511,71.0229 148.387,72.5832 144.974,68.1898 "/>
   <polygon id="_430476464" class="fil0 str0" points="154.665,61.1246 161.653,59.8648 165.229,63.8146 163.874,66.8199 156.75,68.3803 153.337,63.9868 "/>
   <polygon id="_430476656" class="fil0 str0" points="162.793,57.428 167.976,59.6611 172.434,61.5819 172.237,62.617 165.114,64.1774 161.7,59.7839 "/>
   <polygon id="_430476848" class="fil0 str0" points="118.993,70.7569 125.981,69.4971 129.557,73.447 128.202,76.4522 121.078,78.0126 118.529,73.7746 "/>
   <polygon id="_430477040" class="fil0 str0" points="127.356,66.554 134.344,65.2942 137.92,69.244 136.565,72.2493 129.441,73.8097 126.029,69.4162 "/>
   <polygon id="_430477232" class="fil0 str0" points="135.719,62.3512 142.708,61.0912 146.283,65.0411 144.929,68.0464 137.805,69.6068 134.391,65.2133 "/>
   <polygon id="_430477424" class="fil0 str0" points="144.082,58.1483 151.071,56.8885 154.646,60.8382 153.292,63.8434 146.168,65.404 142.755,61.0103 "/>
   <polygon id="_430474136" class="fil0 str0" points="152.908,53.1693 158.447,55.5558 162.675,57.3774 161.655,59.6408 154.531,61.2011 151.118,56.8075 "/>
   <polygon id="_430473848" class="fil0 str0" points="116.773,63.5777 123.762,62.3179 127.337,66.2676 125.983,69.2729 118.859,70.8334 117.054,66.6426 "/>
   <polygon id="_430473680" class="fil0 str0" points="125.137,59.3748 132.125,58.115 135.701,62.0648 134.346,65.07 127.222,66.6305 123.809,62.2369 "/>
   <polygon id="_430473560" class="fil0 str0" points="133.5,55.1719 140.488,53.9121 144.064,57.8618 142.709,60.8671 135.586,62.4275 132.172,58.034 "/>
   <polygon id="_430473392" class="fil0 str0" points="141.863,50.969 147.851,50.9907 153.077,53.2423 151.073,56.6642 143.949,58.2246 140.536,53.8311 "/>
   <polygon id="_430471640" class="fil0 str0" points="114.928,56.3637 121.543,55.1385 125.118,59.0883 123.764,62.0936 116.64,63.654 115.58,59.5182 "/>
   <polygon id="_430472288" class="fil0 str0" points="122.917,52.1955 129.906,50.9357 133.482,54.8854 132.127,57.8907 125.003,59.4512 121.59,55.0576 "/>
   <polygon id="_430473032" class="fil0 str0" points="131.28,47.9926 138.269,46.7327 141.844,50.6826 140.49,53.6878 133.366,55.2483 129.953,50.8548 "/>
   <polygon id="_430472840" class="fil0 str0" points="113.411,49.0305 119.323,47.9592 122.899,51.9091 121.545,54.9144 114.928,56.3637 114.147,52.5868 "/>
   <polygon id="_430472648" class="fil0 str0" points="120.698,45.0163 127.687,43.7563 131.262,47.7062 129.908,50.7114 122.784,52.2718 119.371,47.8783 "/>
   <polygon id="_430472456" class="fil0 str0" points="128.257,42.5484 132.793,44.5028 137.725,46.628 138.271,46.5085 131.147,48.0691 127.734,43.6754 "/>
   <polygon id="_428550440" class="fil0 str0" points="111.899,41.7183 117.104,40.78 120.68,44.7298 119.325,47.7351 113.411,49.0305 112.533,44.7833 "/>
   <polygon id="_433894616" class="fil0 str0" points="118.045,37.9839 123.476,40.4885 128.257,42.5484 127.689,43.5321 120.564,45.0926 117.151,40.699 "/>
   <polygon id="_433894808" class="fil0 str0" points="110.895,36.8634 113.466,36.51 118.045,37.9839 117.106,40.5558 111.971,42.0663 111.092,37.8184 "/>
   <polygon id="_433895000" class="fil0 str0" points="140.165,76.4989 147.153,75.2389 149.747,77.6521 148.027,77.9168 142.152,78.8528 138.837,79.361 "/>
   <polygon id="_433895192" class="fil0 str0" points="148.528,72.2959 155.516,71.0363 159.092,74.9858 158.415,76.4887 149.382,77.7009 147.2,75.1582 "/>
   <polygon id="_433895384" class="fil0 str0" points="156.891,68.0931 163.88,66.8332 167.455,70.7831 166.101,73.7883 158.976,75.3488 155.564,70.9552 "/>
   <polygon id="_433895576" class="fil0 str0" points="165.254,63.8902 172.243,62.6304 175.819,66.5801 174.464,69.5855 167.34,71.1458 163.927,66.7524 "/>
   <polygon id="_433895768" class="fil0 str0" points="167.44,71.235 174.429,69.9751 178.004,73.3426 175.959,73.4673 169.821,74.4452 165.948,75.0621 "/>
   <polygon id="_433895960" class="fil0 str0" points="175.803,67.032 182.791,65.7722 186.368,69.722 184.915,72.0406 177.553,73.4271 174.476,69.8943 "/>
   <polygon id="_433896152" class="fil0 str0" points="109.224,77.2487 101.055,76.2578 96.876,80.3452 96.9875,80.2361 109.481,81.5274 110.775,80.0598 "/>
   <polygon id="_433896344" class="fil0 str0" points="99.4485,73.3677 91.2806,72.3767 87.101,76.4641 88.6845,79.4174 96.9875,80.2361 101,76.1787 "/>
   <polygon id="_433896536" class="fil0 str0" points="89.6736,69.4866 81.5052,68.4957 77.3264,72.5831 78.909,75.5362 87.2361,76.8226 91.2248,72.2976 "/>
   <polygon id="_433896728" class="fil0 str0" points="79.8982,65.6055 71.7306,64.6147 67.551,68.7021 69.1345,71.6553 77.4606,72.9414 81.4503,68.4167 "/>
   <polygon id="_433896920" class="fil0 str0" points="70.1236,61.7245 61.9552,60.7335 57.7765,64.821 59.3591,67.7742 67.6861,69.0604 71.6749,64.5356 "/>
   <polygon id="_433897112" class="fil0 str0" points="60.3491,57.8436 52.1807,56.8525 48.001,60.9399 49.5845,63.8931 57.9107,65.1793 61.9003,60.6545 "/>
   <polygon id="_433897304" class="fil0 str0" points="110.248,69.7938 103.649,68.9932 99.4699,73.0806 101.053,76.0337 109.38,77.32 110.801,72.8075 "/>
   <polygon id="_433897496" class="fil0 str0" points="102.042,66.1029 93.8741,65.1121 89.6945,69.1994 91.278,72.1526 99.6046,73.4389 103.594,68.914 "/>
   <polygon id="_433897688" class="fil0 str0" points="92.2671,62.2219 84.0987,61.2309 79.92,65.3184 81.5026,68.2715 89.8296,69.5578 93.8192,65.033 "/>
   <polygon id="_433897880" class="fil0 str0" points="82.4926,58.3409 74.3242,57.35 70.1454,61.4374 71.728,64.3905 80.055,65.6769 84.0438,61.1518 "/>
   <polygon id="_433898072" class="fil0 str0" points="72.7171,54.4598 64.5496,53.469 60.37,57.5563 61.9535,60.5095 70.2796,61.7957 74.2684,57.2708 "/>
   <polygon id="_433898264" class="fil0 str0" points="108.826,62.0418 106.243,61.7285 102.064,65.8158 103.647,68.7689 110.395,69.8115 109.522,65.8359 "/>
   <polygon id="_433898456" class="fil0 str0" points="104.636,58.8383 96.4679,57.8474 92.2889,61.9348 93.8715,64.888 102.198,66.1742 106.188,61.6494 "/>
   <polygon id="_433898648" class="fil0 str0" points="94.8615,54.9572 86.6931,53.9664 82.5135,58.0537 84.097,61.0069 92.4231,62.2931 96.4127,57.7683 "/>
   <polygon id="_433898840" class="fil0 str0" points="85.0861,51.0762 76.9177,50.0852 72.7389,54.1727 74.3215,57.1258 82.6486,58.4121 86.6373,53.8872 "/>
   <polygon id="_433899032" class="fil0 str0" points="74.9691,46.7664 68.6064,49.4744 63.6556,51.5814 64.547,53.2447 72.8731,54.5311 76.8628,50.0061 "/>
   <polygon id="_433899224" class="fil0 str0" points="106.905,51.5704 99.0618,50.5827 94.8824,54.67 96.4657,57.6232 104.792,58.9096 107.435,54.4587 "/>
   <polygon id="_433899416" class="fil0 str0" points="97.4552,47.6926 89.2866,46.7016 85.1079,50.7891 86.6905,53.7422 95.0175,55.0285 99.0066,50.5036 "/>
   <polygon id="_433899608" class="fil0 str0" points="87.6805,43.8115 80.4101,44.4509 74.9691,46.7664 76.916,49.8612 85.2421,51.1474 89.2317,46.6226 "/>
   <polygon id="_433899800" class="fil0 str0" points="105.451,43.6462 101.656,43.3179 97.4766,47.4054 99.0596,50.3586 106.905,51.5704 106.024,46.7703 "/>
   <polygon id="_433899992" class="fil0 str0" points="100.049,40.4279 91.8811,39.4371 87.7014,43.5242 89.2849,46.4775 97.6112,47.7638 101.6,43.2388 "/>
   <polygon id="_433900184" class="fil0 str0" points="103.775,34.5074 97.3816,37.2283 92.1225,39.4665 92.4948,39.3081 100.205,40.499 104.194,35.9742 "/>
   <polygon id="_433900376" class="fil0 str0" points="87.0713,76.5407 78.9029,75.5497 75.8719,78.0627 77.8816,78.2612 84.7488,78.9711 88.6226,79.3517 "/>
   <polygon id="_433900568" class="fil0 str0" points="77.2959,72.6596 69.1284,71.6689 64.9488,75.7561 65.8921,76.8136 76.2981,78.0975 78.848,75.4709 "/>
   <polygon id="_433900760" class="fil0 str0" points="67.5214,68.7786 59.353,67.7877 55.1742,71.8752 56.7568,74.8283 65.0838,76.1146 69.0726,71.5897 "/>
   <polygon id="_433900952" class="fil0 str0" points="57.7468,64.8976 49.5784,63.9066 45.3988,67.994 46.9823,70.9473 55.3084,72.2334 59.2981,67.7086 "/>
   <polygon id="_433901144" class="fil0 str0" points="47.9714,61.0165 40.2608,61.5378 34.9295,63.8066 37.2068,67.0661 45.5339,68.3524 49.5226,63.8275 "/>
   <polygon id="_433901336" class="fil0 str0" points="55.1916,72.3264 47.0232,71.3355 43.4915,74.2977 45.9646,74.5755 52.8231,75.3458 56.7947,75.7919 "/>
   <polygon id="_433901528" class="fil0 str0" points="45.4171,68.4454 37.2487,67.4545 33.069,71.5418 34.368,73.2732 43.9241,74.3464 46.9683,71.2565 "/>
   <polygon id="_433901720" class="fil0 str0" points="34.9296,63.8066 29.0123,66.325 23.7734,68.5545 24.8771,70.6139 33.2041,71.9003 37.1929,67.3754 "/>
  </g>
 </g>
</svg>
