<?xml version="1.0" encoding="UTF-8"?>
<!DOCTYPE svg PUBLIC "-//W3C//DTD SVG 1.1//EN" "http://www.w3.org/Graphics/SVG/1.1/DTD/svg11.dtd">
<!-- Creator: CorelDRAW -->
<svg xmlns="http://www.w3.org/2000/svg" xml:space="preserve" width="210mm" height="297mm" style="shape-rendering:geometricPrecision; text-rendering:geometricPrecision; image-rendering:optimizeQuality; fill-rule:evenodd; clip-rule:evenodd"
viewBox="0 0 210 297"
 xmlns:xlink="http://www.w3.org/1999/xlink">
 <defs>
  <style type="text/css">
   <![CDATA[
    .str0 {stroke:#333333;stroke-width:0.5}
    .fil0 {fill:none}
    .fil1 {fill:#AD3836}
   ]]>
  </style>
 </defs>
 <g id="Слой_x0020_1">
  <metadata id="CorelCorpID_0Corel-Layer"/>
  <line class="fil0 str0" x1="23.3073" y1="68.8807" x2="23.3079" y2= "104.999" />
  <line class="fil0 str0" x1="114.636" y1="82.2119" x2="115.674" y2= "124.027" />
  <line class="fil0 str0" x1="188.883" y1="68.0546" x2="188.679" y2= "107.22" />
  <polyline class="fil0 str0" points="23.3079,104.998 115.92,124.077 188.679,107.22 "/>
  <g id="_431374416">
   <polygon id="_366420792" class="fil1 str0" points="9.7057,63.8456 106.232,1.6026 198.311,63.5419 116.628,82.5115 "/>
   <line id="_366422808" class="fil0 str0" x1="106.149" y1="1.7465" x2="116.628" y2= "82.5115" />
   <line id="_432534800" class="fil0 str0" x1="194.135" y1="64.5116" x2="106.5" y2= "5.8196" />
   <line id="_432535136" class="fil0 str0" x1="17.5975" y1="64.9016" x2="106.696" y2= "5.959" />
   <polygon id="_432535280" class="fil1 str0" points="103.259,3.5197 112.496,81.7904 116.628,82.5115 120.225,81.6763 109.899,4.0695 106.232,1.6026 "/>
   <line id="_432535664" class="fil0 str0" x1="106.149" y1="1.7465" x2="116.628" y2= "82.5115" />
   <polygon id="_432535808" class="fil0 str0" points="121.212,75.3995 128.2,73.4411 131.776,79.5809 131.68,79.417 120.992,82.0637 119.885,79.8485 "/>
   <polygon id="_432536000" class="fil0 str0" points="129.575,68.8664 136.563,66.9079 140.139,73.0477 138.784,77.7193 131.68,79.417 128.248,73.3153 "/>
   <polygon id="_432536192" class="fil0 str0" points="137.938,62.3332 144.927,60.3748 148.502,66.5145 147.148,71.186 140.024,73.6119 136.611,66.7821 "/>
   <polygon id="_432536384" class="fil0 str0" points="146.302,55.7998 153.29,53.8416 156.866,59.9814 155.511,64.653 148.387,67.0784 144.974,60.2491 "/>
   <polygon id="_432536576" class="fil0 str0" points="154.665,49.2666 161.653,47.3083 165.229,53.4482 163.874,58.1197 156.75,60.5454 153.337,53.7158 "/>
   <polygon id="_432536768" class="fil0 str0" points="162.793,43.5205 167.976,46.9917 172.434,49.9775 172.237,51.5865 165.114,54.012 161.7,47.1826 "/>
   <polygon id="_432536960" class="fil0 str0" points="118.993,64.2396 125.981,62.2813 129.557,68.4211 128.202,73.0927 121.078,75.5182 118.529,68.9304 "/>
   <polygon id="_432537152" class="fil0 str0" points="127.356,57.7064 134.344,55.7481 137.92,61.8878 136.565,66.5595 129.441,68.985 126.029,62.1556 "/>
   <polygon id="_432537344" class="fil0 str0" points="135.719,51.1733 142.708,49.2148 146.283,55.3546 144.929,60.0262 137.805,62.4518 134.391,55.6224 "/>
   <polygon id="_432537536" class="fil0 str0" points="144.082,44.6401 151.071,42.6818 154.646,48.8215 153.292,53.493 146.168,55.9188 142.755,49.0891 "/>
   <polygon id="_432537728" class="fil0 str0" points="152.908,36.9005 158.447,40.6103 162.675,43.4418 161.655,46.9601 154.531,49.3855 151.118,42.556 "/>
   <polygon id="_432537920" class="fil0 str0" points="116.773,53.0799 123.762,51.1216 127.337,57.2612 125.983,61.9327 118.859,64.3585 117.054,57.8441 "/>
   <polygon id="_432538112" class="fil0 str0" points="125.137,46.5467 132.125,44.5884 135.701,50.7281 134.346,55.3996 127.222,57.8253 123.809,50.9957 "/>
   <polygon id="_432538304" class="fil0 str0" points="133.5,40.0135 140.488,38.0551 144.064,44.1948 142.709,48.8664 135.586,51.2919 132.172,44.4625 "/>
   <polygon id="_432538496" class="fil0 str0" points="141.863,33.4803 147.851,33.514 153.077,37.014 151.073,42.3331 143.949,44.7587 140.536,37.9292 "/>
   <polygon id="_432538688" class="fil0 str0" points="114.928,41.8661 121.543,39.9616 125.118,46.1013 123.764,50.7729 116.64,53.1985 115.58,46.7696 "/>
   <polygon id="_432538880" class="fil0 str0" points="122.917,35.3868 129.906,33.4285 133.482,39.5681 132.127,44.2397 125.003,46.6654 121.59,39.8358 "/>
   <polygon id="_432539072" class="fil0 str0" points="131.28,28.8536 138.269,26.8952 141.844,33.0351 140.49,37.7066 133.366,40.1322 129.953,33.3028 "/>
   <polygon id="_432539264" class="fil0 str0" points="113.411,30.467 119.323,28.8017 122.899,34.9416 121.545,39.6131 114.928,41.8661 114.147,35.9951 "/>
   <polygon id="_432539456" class="fil0 str0" points="120.698,24.2271 127.687,22.2685 131.262,28.4084 129.908,33.0799 122.784,35.5054 119.371,28.676 "/>
   <polygon id="_432539648" class="fil0 str0" points="128.257,20.3909 132.793,23.4289 137.725,26.7325 138.271,26.5467 131.147,28.9725 127.734,22.1428 "/>
   <polygon id="_432539840" class="fil0 str0" points="111.899,19.1005 117.104,17.642 120.68,23.7819 119.325,28.4534 113.411,30.467 112.533,23.865 "/>
   <polygon id="_432540032" class="fil0 str0" points="118.045,13.2956 123.476,17.1889 128.257,20.3909 127.689,21.9201 120.564,24.3457 117.151,17.5162 "/>
   <polygon id="_432540224" class="fil0 str0" points="110.895,11.5538 113.466,11.0045 118.045,13.2956 117.106,17.2936 111.971,19.6415 111.092,13.0383 "/>
   <polygon id="_432540416" class="fil0 str0" points="140.165,73.1652 147.153,71.2067 149.747,74.9578 148.027,75.3693 142.152,76.8242 138.837,77.6142 "/>
   <polygon id="_432540608" class="fil0 str0" points="148.528,66.6319 155.516,64.6738 159.092,70.8132 158.415,73.1493 149.382,75.0337 147.2,71.0812 "/>
   <polygon id="_432540800" class="fil0 str0" points="156.891,60.0988 163.88,58.1404 167.455,64.2804 166.101,68.9518 158.976,71.3774 155.564,64.5479 "/>
   <polygon id="_432540992" class="fil0 str0" points="165.254,53.5656 172.243,51.6073 175.819,57.747 174.464,62.4187 167.34,64.8441 163.927,58.0148 "/>
   <polygon id="_432541184" class="fil0 str0" points="167.44,64.9827 174.429,63.0244 178.004,68.2589 175.959,68.4528 169.821,69.9729 165.948,70.9318 "/>
   <polygon id="_432541376" class="fil0 str0" points="175.803,58.4495 182.791,56.4912 186.368,62.6309 184.915,66.2351 177.553,68.3903 174.476,62.8987 "/>
   <polygon id="_432541568" class="fil0 str0" points="109.224,74.3307 101.055,72.7904 96.876,79.1441 96.9875,78.9745 109.481,80.9818 110.775,78.7005 "/>
   <polygon id="_432541760" class="fil0 str0" points="99.4485,68.298 91.2806,66.7575 87.101,73.1111 88.6845,77.7018 96.9875,78.9745 101,72.6675 "/>
   <polygon id="_432541952" class="fil0 str0" points="89.6736,62.265 81.5052,60.7247 77.3264,67.0783 78.909,71.6688 87.2361,73.6684 91.2248,66.6346 "/>
   <polygon id="_432542144" class="fil0 str0" points="79.8982,56.232 71.7306,54.6919 67.551,61.0455 69.1345,65.636 77.4606,67.6353 81.4503,60.6019 "/>
   <polygon id="_432542336" class="fil0 str0" points="70.1236,50.1991 61.9552,48.6588 57.7765,55.0126 59.3591,59.6031 67.6861,61.6025 71.6749,54.5688 "/>
   <polygon id="_432542528" class="fil0 str0" points="60.3491,44.1664 52.1807,42.626 48.001,48.9795 49.5845,53.5702 57.9107,55.5695 61.9003,48.536 "/>
   <polygon id="_432542720" class="fil0 str0" points="110.248,62.7424 103.649,61.4979 99.4699,67.8516 101.053,72.4421 109.38,74.4415 110.801,67.4271 "/>
   <polygon id="_432542912" class="fil0 str0" points="102.042,57.0052 93.8741,55.465 89.6945,61.8185 91.278,66.4092 99.6046,68.4086 103.594,61.3749 "/>
   <polygon id="_432543104" class="fil0 str0" points="92.2671,50.9724 84.0987,49.4319 79.92,55.7857 81.5026,60.3761 89.8296,62.3757 93.8192,55.3421 "/>
   <polygon id="_432543296" class="fil0 str0" points="82.4926,44.9396 74.3242,43.3992 70.1454,49.7529 71.728,54.3433 80.055,56.3429 84.0438,49.309 "/>
   <polygon id="_432543488" class="fil0 str0" points="72.7171,38.9065 64.5496,37.3664 60.37,43.7199 61.9535,48.3106 70.2796,50.3099 74.2684,43.2762 "/>
   <polygon id="_432543680" class="fil0 str0" points="108.826,50.6924 106.243,50.2054 102.064,56.5588 103.647,61.1494 110.395,62.7699 109.522,56.5902 "/>
   <polygon id="_432543872" class="fil0 str0" points="104.636,45.7127 96.4679,44.1724 92.2889,50.5261 93.8715,55.1167 102.198,57.1161 106.188,50.0824 "/>
   <polygon id="_432544064" class="fil0 str0" points="94.8615,39.6798 86.6931,38.1395 82.5135,44.4931 84.097,49.0837 92.4231,51.083 96.4127,44.0494 "/>
   <polygon id="_432544256" class="fil0 str0" points="85.0861,33.6469 76.9177,32.1065 72.7389,38.4602 74.3215,43.0507 82.6486,45.0502 86.6373,38.0165 "/>
   <polygon id="_432544448" class="fil0 str0" points="74.9691,26.9476 68.6064,31.157 63.6556,34.4323 64.547,37.0178 72.8731,39.0174 76.8628,31.9836 "/>
   <polygon id="_432544640" class="fil0 str0" points="106.905,34.4152 99.0618,32.8798 94.8824,39.2334 96.4657,43.8239 104.792,45.8236 107.435,38.9049 "/>
   <polygon id="_432544832" class="fil0 str0" points="97.4552,28.3873 89.2866,26.8469 85.1079,33.2007 86.6905,37.7911 95.0175,39.7906 99.0066,32.7569 "/>
   <polygon id="_432545024" class="fil0 str0" points="87.6805,22.3543 80.4101,23.3482 74.9691,26.9476 76.916,31.7583 85.2421,33.7576 89.2317,26.724 "/>
   <polygon id="_432545216" class="fil0 str0" points="105.451,22.0975 101.656,21.5871 97.4766,27.9409 99.0596,32.5314 106.905,34.4152 106.024,26.9537 "/>
   <polygon id="_432545408" class="fil0 str0" points="100.049,17.0946 91.8811,15.5545 87.7014,21.9078 89.2849,26.4985 97.6112,28.498 101.6,21.4642 "/>
   <polygon id="_432545600" class="fil0 str0" points="103.775,7.8916 97.3816,12.121 92.1225,15.6002 92.4948,15.354 100.205,17.2052 104.194,10.1717 "/>
   <polygon id="_432545792" class="fil0 str0" points="87.0713,73.2302 78.9029,71.6898 75.8719,75.5961 77.8816,75.9046 84.7488,77.0081 88.6226,77.5998 "/>
   <polygon id="_432545984" class="fil0 str0" points="77.2959,67.1973 69.1284,65.6572 64.9488,72.0106 65.8921,73.6545 76.2981,75.6502 78.848,71.5672 "/>
   <polygon id="_432546176" class="fil0 str0" points="67.5214,61.1643 59.353,59.6241 55.1742,65.9779 56.7568,70.5683 65.0838,72.5678 69.0726,65.5341 "/>
   <polygon id="_432546368" class="fil0 str0" points="57.7468,55.1315 49.5784,53.5912 45.3988,59.9448 46.9823,64.5355 55.3084,66.5348 59.2981,59.5012 "/>
   <polygon id="_432546560" class="fil0 str0" points="47.9714,49.0987 40.2608,49.909 34.9295,53.4356 37.2068,58.5024 45.5339,60.5019 49.5226,53.4682 "/>
   <polygon id="_432546752" class="fil0 str0" points="55.1916,66.6793 47.0232,65.139 43.4915,69.7436 45.9646,70.1754 52.8231,71.3728 56.7947,72.0663 "/>
   <polygon id="_432546944" class="fil0 str0" points="45.4171,60.6464 37.2487,59.1062 33.069,65.4597 34.368,68.151 43.9241,69.8193 46.9683,65.0161 "/>
   <polygon id="_432547136" class="fil0 str0" points="34.9296,53.4356 29.0123,57.3504 23.7734,60.816 24.8771,64.0173 33.2041,66.0169 37.1929,58.9832 "/>
  </g>
 </g>
</svg>
