<?xml version="1.0" encoding="UTF-8"?>
<!DOCTYPE svg PUBLIC "-//W3C//DTD SVG 1.1//EN" "http://www.w3.org/Graphics/SVG/1.1/DTD/svg11.dtd">
<!-- Creator: CorelDRAW -->
<svg xmlns="http://www.w3.org/2000/svg" xml:space="preserve" width="210mm" height="297mm" style="shape-rendering:geometricPrecision; text-rendering:geometricPrecision; image-rendering:optimizeQuality; fill-rule:evenodd; clip-rule:evenodd"
viewBox="0 0 210 297"
 xmlns:xlink="http://www.w3.org/1999/xlink">
 <defs>
  <style type="text/css">
   <![CDATA[
    .str0 {stroke:#333333;stroke-width:0.5}
    .fil0 {fill:none}
    .fil1 {fill:#AD3836}
   ]]>
  </style>
 </defs>
 <g id="Слой_x0020_1">
  <metadata id="CorelCorpID_0Corel-Layer"/>
  <line class="fil0 str0" x1="23.3073" y1="68.8807" x2="23.3079" y2= "104.999" />
  <line class="fil0 str0" x1="114.636" y1="82.2119" x2="115.674" y2= "124.027" />
  <line class="fil0 str0" x1="188.883" y1="68.0546" x2="188.679" y2= "107.22" />
  <polyline class="fil0 str0" points="23.3079,104.998 115.92,124.077 188.679,107.22 "/>
  <g id="_433899800">
   <polygon id="_431381424" class="fil1 str0" points="9.7057,69.5257 106.232,26.2237 198.311,69.3145 116.628,82.5115 "/>
   <line id="_431394624" class="fil0 str0" x1="106.149" y1="26.3238" x2="116.628" y2= "82.5115" />
   <line id="_431406768" class="fil0 str0" x1="194.135" y1="69.9891" x2="106.5" y2= "29.1575" />
   <line id="_431399712" class="fil0 str0" x1="17.5975" y1="70.2604" x2="106.696" y2= "29.2544" />
   <polygon id="_431390424" class="fil1 str0" points="103.259,27.5574 112.496,82.0098 116.628,82.5115 120.225,81.9304 109.899,27.9399 106.232,26.2237 "/>
   <line id="_431388624" class="fil0 str0" x1="106.149" y1="26.3238" x2="116.628" y2= "82.5115" />
   <line id="_431393736" class="fil0 str0" x1="119.259" y1="76.8828" x2="123.325" y2= "81.9232" />
   <line id="_431378736" class="fil0 str0" x1="116.781" y1="63.9275" x2="129.655" y2= "80.682" />
   <line id="_431401872" class="fil0 str0" x1="114.443" y1="52.7393" x2="136.171" y2= "79.6725" />
   <line id="_431402280" class="fil0 str0" x1="112.425" y1="41.1506" x2="142.567" y2= "78.5131" />
   <line id="_431390544" class="fil0 str0" x1="112.238" y1="31.8315" x2="149.083" y2= "77.5035" />
   <line id="_431391600" class="fil0 str0" x1="123.984" y1="37.3042" x2="155.48" y2= "76.3452" />
   <line id="_431395680" class="fil0 str0" x1="136.142" y1="42.9685" x2="162.317" y2= "75.4147" />
   <line id="_431405016" class="fil0 str0" x1="147.476" y1="48.2494" x2="168.315" y2= "74.0811" />
   <line id="_431403408" class="fil0 str0" x1="159.6" y1="53.8982" x2="175.165" y2= "73.1927" />
   <line id="_431402832" class="fil0 str0" x1="171.303" y1="59.0902" x2="181.338" y2= "72.1375" />
   <line id="_431400552" class="fil0 str0" x1="183.133" y1="64.8626" x2="188.106" y2= "71.0274" />
   <path id="_188344768" class="fil0 str0" d="M119.665 77.6683c0.4524,0.2868 0.5246,0.8738 1.5913,1.1253 0.883,0.2081 1.8015,0.0416 2.6823,-0.7187 0.9487,-0.8189 1.597,-2.4017 2.5098,-1.2884 0.6044,0.7371 1.3082,0.9486 2.2894,0.7778 1.0937,-0.1903 1.4776,-0.1554 2.3263,-1.2004 1.5818,-1.9472 1.5999,-0.5067 2.6293,-0.0105 0.628,0.4186 2.8633,-0.0717 3.5407,-0.7638 0.3562,-0.3639 0.7809,-1.2261 1.1007,-1.4719 0.2823,-0.2168 0.5422,-0.0352 0.7445,0.1413"/>
   <path id="_188343352" class="fil0 str0" d="M138.923 74.1853c0.1337,0.1731 0.7377,0.6998 0.9401,0.8588 0.9121,0.7172 2.8646,0.4557 3.7919,-0.5541 1.0466,-1.1399 1.4605,-1.5132 2.0841,-1.1176 0.4524,0.2868 0.5246,0.8738 1.5912,1.1253 0.8829,0.2081 1.8014,0.0416 2.6822,-0.7186 0.9487,-0.8189 1.597,-2.4018 2.5098,-1.2885 0.6044,0.7371 1.3082,0.9486 2.2894,0.7778 1.0937,-0.1903 1.4776,-0.1554 2.3263,-1.2004 1.5818,-1.9472 1.5999,-0.5068 2.6293,-0.0106 0.628,0.4187 2.8633,-0.0715 3.5407,-0.7637 0.3562,-0.3639 0.7809,-1.2261 1.1007,-1.4719 0.2823,-0.2168 0.5422,-0.0352 0.7445,0.1413"/>
   <path id="_346964440" class="fil0 str0" d="M164.997 69.8894c0.1337,0.1731 0.7377,0.6997 0.9401,0.8588 0.9121,0.7172 2.8646,0.4557 3.7919,-0.5541 1.0466,-1.1399 1.4605,-1.5132 2.0841,-1.1177 0.4524,0.2869 0.5246,0.8738 1.5913,1.1254 0.883,0.208 1.8015,0.0415 2.6823,-0.7187 0.9487,-0.8189 1.597,-2.4017 2.5098,-1.2885 0.6044,0.7371 1.3082,0.9487 2.2894,0.7778 1.0937,-0.1903 1.4776,-0.1554 2.3263,-1.2004 1.5818,-1.9472 1.5999,-0.5067 2.6293,-0.0105 0.628,0.4186 2.3804,0.27 3.0578,-0.4221"/>
   <path id="_188344768_0" class="fil0 str0" d="M118.762 74.2846c0.883,0.2081 0.6491,-0.0017 1.5299,-0.7619 0.9487,-0.8189 1.597,-2.4017 2.5098,-1.2885 0.6044,0.7372 1.3082,0.9487 2.2894,0.7779 1.0937,-0.1903 1.4776,-0.1555 2.3263,-1.2004 1.5818,-1.9472 1.5999,-0.5068 2.6293,-0.0106 0.628,0.4187 2.8633,-0.0716 3.5407,-0.7637 0.3562,-0.3639 0.7809,-1.2261 1.1007,-1.4719 0.2823,-0.2168 0.5422,-0.0353 0.7445,0.1413"/>
   <path id="_188344768_0_0" class="fil0 str0" d="M117.669 68.5684c0.6044,0.7371 3.1109,0.4232 4.0921,0.2523 1.0937,-0.1902 1.4776,-0.1554 2.3263,-1.2003 1.5818,-1.9473 1.5999,-0.5068 2.6293,-0.0106 0.628,0.4187 2.8633,-0.0716 3.5407,-0.7637 0.3562,-0.364 0.7809,-1.2261 1.1007,-1.4719 0.2823,-0.2168 0.5422,-0.0353 0.7445,0.1412"/>
   <path id="_188343352_1" class="fil0 str0" d="M135.276 69.6331c0.1337,0.1731 0.7377,0.6998 0.9401,0.8588 0.9121,0.7172 2.8646,0.4557 3.7919,-0.5541 1.0466,-1.1399 1.4605,-1.5132 2.0841,-1.1177 0.4524,0.2869 0.5246,0.8739 1.5912,1.1254 0.883,0.208 1.8015,0.0415 2.6823,-0.7187 0.9487,-0.8188 1.5969,-2.4017 2.5097,-1.2884 0.6044,0.737 1.3082,0.9486 2.2894,0.7778 1.0937,-0.1903 1.4776,-0.1554 2.3263,-1.2004 1.5818,-1.9473 1.5999,-0.5068 2.6293,-0.0106 0.628,0.4187 2.8633,-0.0715 3.5407,-0.7637 0.3562,-0.3639 0.7809,-1.2261 1.1007,-1.4719 0.2823,-0.2168 0.5422,-0.0352 0.7445,0.1412"/>
   <path id="_346964440_2" class="fil0 str0" d="M161.35 65.3372c0.1337,0.173 0.7377,0.6997 0.9401,0.8588 0.9121,0.7172 2.8646,0.4557 3.7919,-0.5541 1.0466,-1.1399 1.4605,-1.5132 2.0841,-1.1178 0.4524,0.2869 0.5246,0.8739 1.5913,1.1254 0.883,0.2081 1.8015,0.0415 2.6823,-0.7186 0.9487,-0.8189 1.597,-2.4017 2.5098,-1.2885 0.6044,0.7371 1.3082,0.9487 2.2894,0.7778 1.0937,-0.1903 1.4776,-0.1554 2.3263,-1.2004"/>
   <path id="_188343352_6" class="fil0 str0" d="M131.629 65.0809c0.1337,0.1731 0.7377,0.6997 0.9401,0.8588 0.9121,0.7172 2.8646,0.4557 3.7919,-0.5541 1.0466,-1.14 1.4605,-1.5132 2.0841,-1.1178 0.4524,0.2869 0.5246,0.8739 1.5912,1.1254 0.883,0.2081 1.8015,0.0415 2.6823,-0.7186 0.9487,-0.8189 1.597,-2.4017 2.5098,-1.2885 0.6044,0.7371 1.3082,0.9487 2.2893,0.7778 1.0937,-0.1903 1.4776,-0.1554 2.3263,-1.2004 1.5818,-1.9472 1.5999,-0.5067 2.6293,-0.0105 0.628,0.4187 2.8633,-0.0716 3.5407,-0.7637 0.3562,-0.3639 0.7809,-1.2262 1.1007,-1.472 0.2823,-0.2167 0.5422,-0.0352 0.7445,0.1413"/>
   <path id="_346964440_7" class="fil0 str0" d="M157.703 60.785c0.1337,0.173 0.7377,0.6997 0.9401,0.8588 0.9121,0.7172 2.8646,0.4557 3.7919,-0.5541 1.0466,-1.1399 1.4605,-1.5132 2.0841,-1.1178 0.4524,0.2869 0.5246,0.8739 1.5913,1.1254 0.883,0.2081 1.8015,0.0415 2.6823,-0.7186 0.9487,-0.8189 1.597,-2.4017 2.5098,-1.2885"/>
   <path id="_188344768_10" class="fil0 str0" d="M116.781 63.9275c0.6044,0.7371 0.0349,0.1509 1.0161,-0.0199 1.0937,-0.1903 1.4776,-0.1554 2.3263,-1.2004 1.5818,-1.9472 1.5999,-0.5068 2.6293,-0.0106 0.628,0.4187 2.8633,-0.0715 3.5407,-0.7637 0.3562,-0.3639 0.7809,-1.2261 1.1007,-1.4719 0.2823,-0.2168 0.5422,-0.0352 0.7445,0.1413"/>
   <path id="_188343352_11" class="fil0 str0" d="M127.983 60.5287c0.1337,0.173 0.7377,0.6997 0.9401,0.8588 0.9121,0.7172 2.8646,0.4556 3.7919,-0.5542 1.0466,-1.1399 1.4605,-1.5131 2.0841,-1.1177 0.4524,0.2869 0.5246,0.8739 1.5912,1.1253 0.883,0.2081 1.8015,0.0416 2.6823,-0.7185 0.9487,-0.8189 1.597,-2.4018 2.5098,-1.2885 0.6044,0.7371 1.3082,0.9486 2.2894,0.7778 1.0937,-0.1903 1.4776,-0.1554 2.3263,-1.2004 1.5817,-1.9473 1.5998,-0.5067 2.6292,-0.0106 0.628,0.4187 2.8633,-0.0715 3.5407,-0.7637 0.3562,-0.3639 0.7809,-1.2261 1.1007,-1.4719 0.2823,-0.2168 0.5422,-0.0352 0.7445,0.1412"/>
   <path id="_346964440_12" class="fil0 str0" d="M154.056 56.2328c0.1337,0.173 0.7377,0.6997 0.9401,0.8587 0.9121,0.7173 2.8646,0.4558 3.7919,-0.5541 1.0466,-1.1398 1.4605,-1.5131 2.0841,-1.1177 0.4524,0.2869 0.5246,0.8739 1.5913,1.1254 0.883,0.2081 1.2492,0.44 2.13,-0.3202"/>
   <path id="_188344768_15" class="fil0 str0" d="M115.764 58.6053c1.5818,-1.9472 2.3132,-0.9571 3.3426,-0.4609 0.628,0.4187 2.8633,-0.0716 3.5407,-0.7637 0.3562,-0.3639 0.7809,-1.2261 1.1007,-1.4719 0.2823,-0.2168 0.5422,-0.0352 0.7445,0.1412"/>
   <path id="_188343352_16" class="fil0 str0" d="M124.336 55.9764c0.1337,0.173 0.7377,0.6998 0.9401,0.8588 0.9121,0.7172 2.8646,0.4557 3.7919,-0.5541 1.0466,-1.1399 1.4605,-1.5131 2.0841,-1.1177 0.4524,0.2868 0.5246,0.8739 1.5912,1.1253 0.883,0.2081 1.8015,0.0416 2.6823,-0.7185 0.9487,-0.8189 1.597,-2.4018 2.5098,-1.2886 0.6044,0.7372 1.3082,0.9487 2.2894,0.7779 1.0937,-0.1903 1.4776,-0.1554 2.3263,-1.2004 1.5818,-1.9473 1.5999,-0.5068 2.6293,-0.0106 0.628,0.4187 2.8632,-0.0715 3.5406,-0.7637 0.3562,-0.3639 0.7809,-1.2261 1.1007,-1.4719 0.2823,-0.2168 0.5422,-0.0352 0.7445,0.1412"/>
   <path id="_346964440_17" class="fil0 str0" d="M150.409 51.6806c0.1337,0.173 0.7377,0.6997 0.9401,0.8587 0.9121,0.7172 2.8646,0.4558 3.7919,-0.5541"/>
   <path id="_188344768_20" class="fil0 str0" d="M115.459 53.5922c0.628,0.4187 2.8633,-0.0716 3.5407,-0.7637 0.3562,-0.3639 0.7809,-1.2261 1.1007,-1.4719 0.2823,-0.2168 0.5422,-0.0352 0.7445,0.1412"/>
   <path id="_188343352_21" class="fil0 str0" d="M120.689 51.4242c0.1337,0.173 0.7377,0.6997 0.9401,0.8588 0.9121,0.7172 2.8646,0.4557 3.7919,-0.5541 1.0466,-1.1399 1.4605,-1.5132 2.0841,-1.1178 0.4524,0.2869 0.5246,0.874 1.5912,1.1254 0.883,0.2081 1.8015,0.0416 2.6823,-0.7186 0.9487,-0.8189 1.597,-2.4018 2.5098,-1.2885 0.6044,0.7371 1.3082,0.9487 2.2894,0.7779 1.0937,-0.1903 1.4776,-0.1555 2.3263,-1.2004 1.5818,-1.9473 1.5999,-0.5068 2.6293,-0.0106 0.628,0.4187 2.8633,-0.0716 3.5407,-0.7637 0.3562,-0.364 0.2385,-0.8965 0.5583,-1.1423"/>
   <path id="_188343352_21_1" class="fil0 str0" d="M117.391 46.8629c0.1337,0.173 0.7377,0.6996 0.9401,0.8587 0.9121,0.7172 2.8646,0.4558 3.7919,-0.5541 1.0466,-1.1398 1.4605,-1.5131 2.0841,-1.1177 0.4524,0.2869 0.5246,0.8739 1.5912,1.1254 0.883,0.2081 1.8015,0.0416 2.6823,-0.7187 0.9487,-0.8189 1.597,-2.4017 2.5098,-1.2884 0.6044,0.7371 1.3082,0.9486 2.2894,0.7778 1.0937,-0.1903 1.4776,-0.1555 2.3263,-1.2004 1.5818,-1.9472 1.5999,-0.5067 2.6293,-0.0105"/>
   <path id="_188343352_21_2" class="fil0 str0" d="M113.628 42.5427c0.1337,0.1731 0.7377,0.6997 0.9401,0.8588 0.9121,0.7172 2.8646,0.4557 3.7919,-0.5541 1.0466,-1.1399 1.4605,-1.5132 2.0841,-1.1178 0.4524,0.287 0.5246,0.874 1.5912,1.1254 0.883,0.2081 1.8015,0.0416 2.6823,-0.7186 0.9487,-0.8189 1.597,-2.4017 2.5098,-1.2884 0.6044,0.737 1.3082,0.9486 2.2894,0.7778 1.0937,-0.1903 1.4776,-0.1555 2.3263,-1.2004"/>
   <path id="_188344768_25" class="fil0 str0" d="M114.026 49.5218c0.3562,-0.3639 2.4271,-2.2033 2.7469,-2.4491 0.2823,-0.2168 0.5422,-0.0352 0.7445,0.1412"/>
   <path id="_188343352_36" class="fil0 str0" d="M112.019 39.0242c0.9121,0.7173 1.7484,0.0613 2.6757,-0.9486 1.0466,-1.1398 1.4605,-1.5131 2.0841,-1.1177 0.4524,0.2869 0.5246,0.8739 1.5912,1.1254 0.883,0.2081 2.7276,-0.7417 3.6084,-1.5019"/>
   <path id="_188343352_41" class="fil0 str0" d="M111.142 33.5297c1.0466,-1.1399 1.4605,-1.5132 2.0841,-1.1177 0.4524,0.2869 1.4186,0.7859 2.4852,1.0373"/>
   <line id="_430444856" class="fil0 str0" x1="111.755" y1="78.0978" x2="109.686" y2= "81.3243" />
   <line id="_430475072" class="fil0 str0" x1="110.21" y1="71.6109" x2="103.357" y2= "80.38" />
   <line id="_430476536" class="fil0 str0" x1="109.366" y1="63.5619" x2="96.8406" y2= "79.6761" />
   <line id="_430473920" class="fil0 str0" x1="108.101" y1="56.1024" x2="90.4446" y2= "78.8168" />
   <line id="_430472768" class="fil0 str0" x1="106.836" y1="48.6432" x2="83.9287" y2= "78.1126" />
   <line id="_434565296" class="fil0 str0" x1="105.57" y1="41.1835" x2="77.5317" y2= "77.2544" />
   <line id="_434565632" class="fil0 str0" x1="103.57" y1="34.3517" x2="70.6947" y2= "76.6445" />
   <line id="_434565968" class="fil0 str0" x1="97.5635" y1="33.3772" x2="64.6967" y2= "75.5921" />
   <line id="_434566304" class="fil0 str0" x1="86.0327" y1="38.7644" x2="57.8467" y2= "75.025" />
   <line id="_434566640" class="fil0 str0" x1="75.4948" y1="43.6143" x2="51.6737" y2= "74.2594" />
   <line id="_434566976" class="fil0 str0" x1="63.9982" y1="48.9053" x2="44.9057" y2= "73.4666" />
   <line id="_434567312" class="fil0 str0" x1="52.0089" y1="54.4231" x2="38.4427" y2= "72.6095" />
   <line id="_434567648" class="fil0 str0" x1="42.5102" y1="58.7947" x2="32.3357" y2= "71.8841" />
   <line id="_434567984" class="fil0 str0" x1="30.7592" y1="64.203" x2="25.4567" y2= "71.0245" />
   <path id="_188344768_3" class="fil0 str0" d="M111.755 78.0978c-0.883,0.2495 -1.8015,0.126 -2.6823,-0.5929 -0.9487,-0.7744 -1.597,-2.3268 -2.5098,-1.1708 -0.6044,0.7655 -1.3082,1.01 -2.2894,0.8853 -1.0937,-0.1391 -1.4776,-0.0862 -2.3263,-1.0913 -1.5818,-1.8731 -1.5999,-0.4318 -2.6293,0.1127 -0.628,0.4481 -2.8633,0.0627 -3.5407,-0.5977 -0.3562,-0.3472 -0.7809,-1.1894 -1.1007,-1.4203 -0.2823,-0.2036 -0.5422,-0.0098 -0.7445,0.1762"/>
   <path id="_188343352_4" class="fil0 str0" d="M94.0886 74.3181c-0.1337,0.1792 -0.7377,0.7342 -0.9401,0.9028 -0.9121,0.76 -2.8646,0.5901 -3.7919,-0.3763 -1.0466,-1.0908 -1.4605,-1.4446 -2.0841,-1.02 -0.4524,0.3082 -0.5246,0.8985 -1.5912,1.2 -0.8829,0.2495 -1.8014,0.1261 -2.6822,-0.5928 -0.9487,-0.7744 -1.597,-2.3269 -2.5098,-1.1708 -0.6044,0.7655 -1.3082,1.01 -2.2894,0.8852 -1.0937,-0.139 -1.4776,-0.0861 -2.3263,-1.0913 -1.5818,-1.873 -1.5999,-0.4317 -2.6293,0.1128 -0.628,0.4481 -2.8633,0.0626 -3.5407,-0.5977 -0.3562,-0.3473 -0.7809,-1.1895 -1.1007,-1.4203 -0.2823,-0.2036 -0.5422,-0.0098 -0.7445,0.1762"/>
   <path id="_346964440_5" class="fil0 str0" d="M68.0147 71.2449c-0.1337,0.1793 -0.7377,0.7343 -0.9401,0.9028 -0.9121,0.76 -2.8646,0.59 -3.7919,-0.3763 -1.0466,-1.0907 -1.4605,-1.4446 -2.0841,-1.0199 -0.4524,0.308 -0.5246,0.8985 -1.5913,1.2 -0.883,0.2494 -1.8015,0.126 -2.6823,-0.5929 -0.9487,-0.7743 -1.597,-2.3268 -2.5098,-1.1707 -0.6044,0.7654 -1.3082,1.01 -2.2894,0.8851 -1.0937,-0.139 -1.4776,-0.0861 -2.3263,-1.0913 -1.5818,-1.873 -1.5999,-0.4317 -2.6293,0.1128 -0.628,0.4481 -2.8633,0.0627 -3.5407,-0.5977 -0.3562,-0.3472 -0.7809,-1.1895 -1.1007,-1.4203 -0.2823,-0.2035 -0.5422,-0.0097 -0.7445,0.1762"/>
   <path id="_188342920" class="fil0 str0" d="M41.9407 68.1717c-0.1337,0.1793 -0.7377,0.7344 -0.9401,0.9029 -0.9121,0.7599 -2.8646,0.59 -3.7919,-0.3763 -1.0466,-1.0908 -1.4605,-1.4447 -2.0841,-1.0199 -0.4524,0.308 -0.5246,0.8984 -1.5913,1.1999 -0.883,0.2495 -1.8015,0.126 -2.6823,-0.5929 -0.9487,-0.7744 -1.597,-2.3268 -2.5098,-1.1708 -0.6044,0.7655 -1.3082,1.0101 -2.2894,0.8853 -1.0937,-0.1391 -1.4776,-0.0862 -2.3263,-1.0913"/>
   <path id="_188344768_0_6" class="fil0 str0" d="M110.21 71.6109c-0.6044,0.7655 -1.3082,1.01 -2.2894,0.8852 -1.0937,-0.139 -1.4776,-0.0862 -2.3263,-1.0913 -1.5818,-1.8731 -1.5999,-0.4317 -2.6293,0.1128 -0.628,0.448 -2.8633,0.0626 -3.5407,-0.5977 -0.3562,-0.3473 -0.7809,-1.1896 -1.1007,-1.4203 -0.2823,-0.2036 -0.5422,-0.0098 -0.7445,0.1762"/>
   <path id="_188343352_1_7" class="fil0 str0" d="M97.7356 69.5948c-0.1337,0.1793 -0.7377,0.7343 -0.9401,0.9028 -0.9121,0.76 -2.8646,0.5901 -3.7919,-0.3763 -1.0466,-1.0907 -1.4605,-1.4446 -2.0841,-1.0199 -0.4524,0.3081 -0.5246,0.8985 -1.5912,1.2 -0.883,0.2495 -1.8015,0.126 -2.6823,-0.5929 -0.9487,-0.7743 -1.5969,-2.3268 -2.5097,-1.1707 -0.6044,0.7655 -1.3082,1.01 -2.2894,0.8852 -1.0937,-0.139 -1.4776,-0.0861 -2.3263,-1.0913 -1.5818,-1.8731 -1.5999,-0.4318 -2.6293,0.1127 -0.628,0.4482 -2.8633,0.0627 -3.5407,-0.5977 -0.3562,-0.3472 -0.7809,-1.1894 -1.1007,-1.4203 -0.2823,-0.2035 -0.5422,-0.0097 -0.7445,0.1762"/>
   <path id="_346964440_2_8" class="fil0 str0" d="M71.6617 66.5216c-0.1337,0.1794 -0.7377,0.7344 -0.9401,0.9029 -0.9121,0.76 -2.8646,0.59 -3.7919,-0.3763 -1.0466,-1.0908 -1.4605,-1.4446 -2.0841,-1.0199 -0.4524,0.308 -0.5246,0.8984 -1.5913,1.1999 -0.883,0.2495 -1.8015,0.126 -2.6823,-0.5928 -0.9487,-0.7744 -1.597,-2.3269 -2.5098,-1.1708 -0.6044,0.7654 -1.3082,1.01 -2.2894,0.8852 -1.0937,-0.1391 -1.4776,-0.0862 -2.3263,-1.0913 -1.5818,-1.8731 -1.5999,-0.4317 -2.6293,0.1127 -0.628,0.4482 -2.8633,0.0627 -3.5407,-0.5976 -0.3562,-0.3472 -0.7809,-1.1895 -1.1007,-1.4203 -0.2823,-0.2036 -0.5422,-0.0098 -0.7445,0.1762"/>
   <path id="_188342920_3" class="fil0 str0" d="M45.5877 63.4485c-0.1337,0.1793 -0.7377,0.7342 -0.9401,0.9028 -0.9121,0.76 -2.8646,0.5901 -3.7919,-0.3762 -1.0466,-1.0909 -1.4605,-1.4447 -2.0841,-1.02 -0.4524,0.3081 -0.5246,0.8984 -1.5913,1.1999 -0.883,0.2496 -2.5965,-0.588 -3.4773,-1.3068"/>
   <path id="_188344768_5" class="fil0 str0" d="M109.978 67.1668c-1.5818,-1.873 -2.3368,-0.917 -3.3662,-0.3726 -0.628,0.4482 -2.8633,0.0628 -3.5407,-0.5976 -0.3562,-0.3472 -0.7809,-1.1895 -1.1007,-1.4203 -0.2823,-0.2035 -0.5422,-0.0097 -0.7445,0.1762"/>
   <path id="_188343352_6_9" class="fil0 str0" d="M101.382 64.8715c-0.1337,0.1794 -0.7377,0.7344 -0.9401,0.9029 -0.9121,0.76 -2.8646,0.59 -3.7919,-0.3763 -1.0466,-1.0908 -1.4605,-1.4446 -2.0841,-1.02 -0.4524,0.3081 -0.5246,0.8985 -1.5912,1.2001 -0.883,0.2494 -1.8015,0.1259 -2.6823,-0.5929 -0.9487,-0.7744 -1.597,-2.3269 -2.5098,-1.1708 -0.6044,0.7654 -1.3082,1.01 -2.2893,0.8852 -1.0937,-0.1391 -1.4776,-0.0862 -2.3263,-1.0913 -1.5818,-1.8731 -1.5999,-0.4317 -2.6293,0.1127 -0.628,0.4482 -2.8633,0.0627 -3.5407,-0.5976 -0.3562,-0.3472 -0.7809,-1.1895 -1.1007,-1.4203 -0.2823,-0.2036 -0.5422,-0.0098 -0.7445,0.1762"/>
   <path id="_346964440_7_10" class="fil0 str0" d="M75.3087 61.7984c-0.1337,0.1793 -0.7377,0.7343 -0.9401,0.9028 -0.9121,0.76 -2.8646,0.5901 -3.7919,-0.3762 -1.0466,-1.0908 -1.4605,-1.4446 -2.0841,-1.02 -0.4524,0.3081 -0.5246,0.8985 -1.5913,1.1999 -0.883,0.2496 -1.8015,0.1261 -2.6823,-0.5928 -0.9487,-0.7743 -1.597,-2.3268 -2.5098,-1.1708 -0.6044,0.7655 -1.3082,1.01 -2.2894,0.8853 -1.0937,-0.1391 -1.4776,-0.0862 -2.3263,-1.0914 -1.5818,-1.873 -1.5999,-0.4316 -2.6293,0.1128 -0.628,0.4481 -2.8633,0.0627 -3.5407,-0.5977 -0.3562,-0.3473 -0.7809,-1.1895 -1.1007,-1.4203 -0.2823,-0.2035 -0.5422,-0.0097 -0.7445,0.1762"/>
   <path id="_188342920_8" class="fil0 str0" d="M49.2347 58.7253c-0.1337,0.1792 -0.7377,0.7342 -0.9401,0.9028 -0.9121,0.7599 -2.8646,0.59 -3.7919,-0.3763 -1.0466,-1.0908 -0.348,-1.3516 -0.9716,-0.9269 -0.4524,0.3081 -1.6371,0.8054 -2.7038,1.1069"/>
   <path id="_188343352_11_11" class="fil0 str0" d="M105.029 60.1483c-0.1337,0.1792 -0.7377,0.7342 -0.9401,0.9028 -0.9121,0.76 -2.8646,0.5901 -3.7919,-0.3763 -1.0466,-1.0908 -1.4605,-1.4446 -2.0841,-1.0199 -0.4524,0.3081 -0.5246,0.8984 -1.5912,1.1999 -0.883,0.2496 -1.8015,0.1261 -2.6823,-0.5928 -0.9487,-0.7744 -1.597,-2.3268 -2.5098,-1.1708 -0.6044,0.7655 -1.3082,1.01 -2.2894,0.8853 -1.0937,-0.1391 -1.4776,-0.0862 -2.3263,-1.0914 -1.5817,-1.873 -1.5998,-0.4317 -2.6292,0.1128 -0.628,0.4481 -2.8633,0.0627 -3.5407,-0.5977 -0.3562,-0.3473 -0.7809,-1.1895 -1.1007,-1.4203 -0.2823,-0.2035 -0.5422,-0.0097 -0.7445,0.1762"/>
   <path id="_346964440_12_12" class="fil0 str0" d="M78.9557 57.0751c-0.1337,0.1794 -0.7377,0.7344 -0.9401,0.9029 -0.9121,0.76 -2.8646,0.59 -3.7919,-0.3763 -1.0466,-1.0908 -1.4605,-1.4447 -2.0841,-1.0199 -0.4524,0.308 -0.5246,0.8985 -1.5913,1.1999 -0.883,0.2495 -1.8015,0.126 -2.6823,-0.5929 -0.9487,-0.7743 -1.597,-2.3267 -2.5098,-1.1707 -0.6044,0.7655 -1.3082,1.01 -2.2894,0.8852 -1.0937,-0.139 -1.4776,-0.0861 -2.3263,-1.0913 -1.5818,-1.8731 -1.5999,-0.4317 -2.6293,0.1127 -0.628,0.4482 -2.8633,0.0628 -3.5407,-0.5976 -0.3562,-0.3473 -0.7809,-1.1895 -1.1007,-1.4203 -0.2823,-0.2036 -0.5422,-0.0098 -0.7445,0.1761"/>
   <path id="_188343352_16_13" class="fil0 str0" d="M108.101 56.1024c-0.1337,0.1792 -0.1625,0.0569 -0.3649,0.2254 -0.9121,0.76 -2.8646,0.5901 -3.7919,-0.3763 -1.0466,-1.0907 -1.4605,-1.4446 -2.0841,-1.0199 -0.4524,0.3081 -0.5246,0.8985 -1.5912,1.2 -0.883,0.2495 -1.8015,0.126 -2.6823,-0.5929 -0.9487,-0.7743 -1.597,-2.3268 -2.5098,-1.1707 -0.6044,0.7655 -1.3082,1.01 -2.2894,0.8852 -1.0937,-0.139 -1.4776,-0.0861 -2.3263,-1.0913 -1.5818,-1.8731 -1.5999,-0.4318 -2.6293,0.1127 -0.628,0.4482 -2.8632,0.0627 -3.5406,-0.5977 -0.3562,-0.3472 -0.7809,-1.1894 -1.1007,-1.4203 -0.2823,-0.2035 -0.5422,-0.0097 -0.7445,0.1762"/>
   <path id="_346964440_17_14" class="fil0 str0" d="M82.6027 52.3519c-0.1337,0.1793 -0.7377,0.7343 -0.9401,0.9029 -0.9121,0.7599 -2.8646,0.59 -3.7919,-0.3763 -1.0466,-1.0909 -1.4605,-1.4447 -2.0841,-1.02 -0.4524,0.3081 -0.5246,0.8984 -1.5913,1.2 -0.883,0.2495 -1.8015,0.126 -2.6823,-0.5929 -0.9487,-0.7744 -1.597,-2.3269 -2.5098,-1.1708 -0.6044,0.7655 -1.3082,1.01 -2.2894,0.8853 -1.0937,-0.1391 -1.4776,-0.0862 -2.3263,-1.0913 -1.5818,-1.8731 -1.5999,-0.4317 -2.6293,0.1127 -0.628,0.4481 -1.8906,0.577 -2.568,-0.0834"/>
   <path id="_188343352_21_15" class="fil0 str0" d="M107.308 51.4294c-1.0466,-1.0908 -1.1778,-1.6457 -1.8014,-1.221 -0.4524,0.308 -0.5246,0.8984 -1.5912,1.2 -0.883,0.2495 -1.8015,0.126 -2.6823,-0.5929 -0.9487,-0.7744 -1.597,-2.3269 -2.5098,-1.1708 -0.6044,0.7655 -1.3082,1.01 -2.2894,0.8852 -1.0937,-0.139 -1.4776,-0.0862 -2.3263,-1.0912 -1.5818,-1.8732 -1.5999,-0.4318 -2.6293,0.1127 -0.628,0.4481 -2.8633,0.0626 -3.5407,-0.5977 -0.3562,-0.3472 -0.7809,-1.1895 -1.1007,-1.4203 -0.2823,-0.2036 -0.5422,-0.0098 -0.7445,0.1762"/>
   <path id="_346964440_22" class="fil0 str0" d="M86.2496 47.6287c-0.1337,0.1792 -0.7376,0.7342 -0.94,0.9028 -0.9121,0.76 -2.8646,0.5901 -3.7919,-0.3763 -1.0466,-1.0908 -1.4605,-1.4446 -2.0841,-1.0199 -0.4524,0.3081 -0.5246,0.8984 -1.5913,1.1999 -0.883,0.2495 -1.8015,0.1261 -2.6823,-0.5928 -0.9487,-0.7744 -1.597,-2.3269 -2.5098,-1.1708 -0.6044,0.7655 -1.3082,1.01 -2.2894,0.8852 -1.0937,-0.139 -0.6381,0.2097 -1.4868,-0.7955"/>
   <path id="_188343352_26" class="fil0 str0" d="M106.571 47.0823c-0.883,0.2495 -1.1293,0.0121 -2.0101,-0.7067 -0.9487,-0.7744 -1.597,-2.3268 -2.5098,-1.1708 -0.6044,0.7655 -1.3082,1.01 -2.2894,0.8852 -1.0937,-0.139 -1.4776,-0.0862 -2.3263,-1.0913 -1.5818,-1.8731 -1.5999,-0.4317 -2.6293,0.1128 -0.628,0.4481 -2.8633,0.0627 -3.5407,-0.5977 -0.3562,-0.3472 -0.7809,-1.1895 -1.1007,-1.4203 -0.2823,-0.2036 -0.5422,-0.0098 -0.7445,0.1762"/>
   <path id="_346964440_27" class="fil0 str0" d="M89.5766 43.1887c-0.1337,0.1793 -0.7377,0.7343 -0.9401,0.9029 -0.9121,0.7599 -2.8646,0.59 -3.7918,-0.3763 -1.0466,-1.0909 -1.4605,-1.4447 -2.0841,-1.02 -0.4524,0.3081 -0.5246,0.8984 -1.5913,1.2 -0.883,0.2495 -2.7978,-0.4807 -3.6786,-1.1996"/>
   <path id="_188343352_31" class="fil0 str0" d="M105.481 40.6547c-0.6044,0.7655 -0.9122,0.595 -1.8934,0.4702 -1.0937,-0.139 -1.4776,-0.0861 -2.3263,-1.0913 -1.5818,-1.873 -1.5999,-0.4318 -2.6293,0.1127 -0.628,0.4482 -2.8633,0.0627 -3.5407,-0.5977 -0.3562,-0.3472 -0.7809,-1.1894 -1.1007,-1.4203 -0.2823,-0.2035 -0.5422,-0.0097 -0.7445,0.1762"/>
   <path id="_346964440_32" class="fil0 str0" d="M93.4016 38.2235c-0.1337,0.1793 -0.7377,0.7343 -0.9401,0.9028 -0.9121,0.76 -2.8646,0.5901 -3.7919,-0.3763 -1.0466,-1.0907 -0.2099,-1.2403 -0.8335,-0.8155 -0.4524,0.308 -1.7752,0.6941 -2.8418,0.9956"/>
   <path id="_188343352_36_16" class="fil0 str0" d="M104.834 35.2823c-1.5818,-1.873 -1.5999,-0.4316 -2.6293,0.1128 -0.628,0.4481 -2.8633,0.0627 -3.5407,-0.5977 -0.3562,-0.3473 -0.7809,-1.1895 -1.1007,-1.4202 -0.2823,-0.2036 -0.5422,-0.0098 -0.7445,0.1761"/>
  </g>
 </g>
</svg>
