<?xml version="1.0" encoding="UTF-8"?>
<!DOCTYPE svg PUBLIC "-//W3C//DTD SVG 1.1//EN" "http://www.w3.org/Graphics/SVG/1.1/DTD/svg11.dtd">
<!-- Creator: CorelDRAW -->
<svg xmlns="http://www.w3.org/2000/svg" xml:space="preserve" width="210mm" height="297mm" style="shape-rendering:geometricPrecision; text-rendering:geometricPrecision; image-rendering:optimizeQuality; fill-rule:evenodd; clip-rule:evenodd"
viewBox="0 0 210 297"
 xmlns:xlink="http://www.w3.org/1999/xlink">
 <defs>
  <style type="text/css">
   <![CDATA[
    .str0 {stroke:#333333;stroke-width:0.5}
    .fil0 {fill:none}
    .fil1 {fill:#AD3836}
   ]]>
  </style>
 </defs>
 <g id="Слой_x0020_1">
  <metadata id="CorelCorpID_0Corel-Layer"/>
  <line class="fil0 str0" x1="23.3073" y1="68.8807" x2="23.3079" y2= "104.999" />
  <line class="fil0 str0" x1="114.636" y1="82.2119" x2="115.674" y2= "124.027" />
  <line class="fil0 str0" x1="188.883" y1="68.0546" x2="188.679" y2= "107.22" />
  <polyline class="fil0 str0" points="23.3079,104.998 115.92,124.077 188.679,107.22 "/>
  <g id="_430452104">
   <polygon id="_349015656" class="fil1 str0" points="9.7057,63.9237 106.232,1.9412 198.311,63.6213 116.628,82.5115 "/>
   <line id="_428549720" class="fil0 str0" x1="106.149" y1="2.0845" x2="116.628" y2= "82.5115" />
   <line id="_431374848" class="fil0 str0" x1="194.135" y1="64.5869" x2="106.5" y2= "6.1406" />
   <line id="_431375184" class="fil0 str0" x1="17.5975" y1="64.9753" x2="106.696" y2= "6.2794" />
   <polygon id="_431375328" class="fil1 str0" points="103.259,3.8503 112.496,81.7934 116.628,82.5115 120.225,81.6798 109.899,4.3978 106.232,1.9412 "/>
   <line id="_431375712" class="fil0 str0" x1="106.149" y1="2.0845" x2="116.628" y2= "82.5115" />
   <line id="_431376048" class="fil0 str0" x1="119.259" y1="74.4546" x2="123.325" y2= "81.6694" />
   <line id="_431376384" class="fil0 str0" x1="116.781" y1="55.9104" x2="129.655" y2= "79.8927" />
   <line id="_431376720" class="fil0 str0" x1="114.443" y1="39.8955" x2="136.171" y2= "78.4478" />
   <line id="_431377056" class="fil0 str0" x1="112.425" y1="23.3075" x2="142.567" y2= "76.7883" />
   <line id="_431377392" class="fil0 str0" x1="112.238" y1="9.9681" x2="149.083" y2= "75.343" />
   <line id="_431377728" class="fil0 str0" x1="123.984" y1="17.8018" x2="155.48" y2= "73.6851" />
   <line id="_431378064" class="fil0 str0" x1="136.142" y1="25.9097" x2="162.317" y2= "72.3532" />
   <line id="_431378400" class="fil0 str0" x1="147.476" y1="33.4687" x2="168.315" y2= "70.4442" />
   <line id="_431378736" class="fil0 str0" x1="159.6" y1="41.5545" x2="175.165" y2= "69.1726" />
   <line id="_431379072" class="fil0 str0" x1="171.303" y1="48.9863" x2="181.338" y2= "67.6622" />
   <line id="_431379408" class="fil0 str0" x1="183.133" y1="57.2489" x2="188.106" y2= "66.0732" />
   <path id="_188344768" class="fil0 str0" d="M119.665 75.5789c0.4524,0.4106 0.5246,1.2509 1.5913,1.6108 0.883,0.2978 1.8015,0.0595 2.6823,-1.0287 0.9487,-1.1722 1.597,-3.4378 2.5098,-1.8443 0.6044,1.0551 1.3082,1.3579 2.2894,1.1134 1.0937,-0.2724 1.4776,-0.2225 2.3263,-1.7182 1.5818,-2.7873 1.5999,-0.7254 2.6293,-0.0152 0.628,0.5993 2.8633,-0.1025 3.5407,-1.0932 0.3562,-0.5209 0.7809,-1.755 1.1007,-2.1068 0.2823,-0.3104 0.5422,-0.0504 0.7445,0.2021"/>
   <path id="_188343352" class="fil0 str0" d="M138.923 70.5934c0.1337,0.2477 0.7377,1.0017 0.9401,1.2293 0.9121,1.0266 2.8646,0.6523 3.7919,-0.7932 1.0466,-1.6316 1.4605,-2.1659 2.0841,-1.5998 0.4524,0.4106 0.5246,1.2509 1.5912,1.6108 0.8829,0.2979 1.8014,0.0595 2.6822,-1.0286 0.9487,-1.1721 1.597,-3.4379 2.5098,-1.8443 0.6044,1.055 1.3082,1.3578 2.2894,1.1134 1.0937,-0.2725 1.4776,-0.2225 2.3263,-1.7183 1.5818,-2.7873 1.5999,-0.7254 2.6293,-0.0151 0.628,0.5993 2.8633,-0.1024 3.5407,-1.0932 0.3562,-0.521 0.7809,-1.755 1.1007,-2.1069 0.2823,-0.3103 0.5422,-0.0504 0.7445,0.2022"/>
   <path id="_346964440" class="fil0 str0" d="M164.997 64.4443c0.1337,0.2477 0.7377,1.0015 0.9401,1.2292 0.9121,1.0266 2.8646,0.6523 3.7919,-0.7931 1.0466,-1.6316 1.4605,-2.166 2.0841,-1.6 0.4524,0.4107 0.5246,1.2509 1.5913,1.6109 0.883,0.2979 1.8015,0.0594 2.6823,-1.0287 0.9487,-1.1721 1.597,-3.4378 2.5098,-1.8443 0.6044,1.0551 1.3082,1.358 2.2894,1.1134 1.0937,-0.2724 1.4776,-0.2225 2.3263,-1.7183 1.5818,-2.7872 1.5999,-0.7253 2.6293,-0.015 0.628,0.5992 2.3804,0.3865 3.0578,-0.6043"/>
   <path id="_188344768_0" class="fil0 str0" d="M118.762 70.7355c0.883,0.2978 0.6491,-0.0024 1.5299,-1.0905 0.9487,-1.1722 1.597,-3.4379 2.5098,-1.8444 0.6044,1.0551 1.3082,1.358 2.2894,1.1134 1.0937,-0.2723 1.4776,-0.2225 2.3263,-1.7182 1.5818,-2.7873 1.5999,-0.7254 2.6293,-0.0151 0.628,0.5993 2.8633,-0.1025 3.5407,-1.0932 0.3562,-0.5209 0.7809,-1.755 1.1007,-2.1068 0.2823,-0.3104 0.5422,-0.0506 0.7445,0.2021"/>
   <path id="_188344768_0_0" class="fil0 str0" d="M117.669 62.5533c0.6044,1.0552 3.1109,0.6058 4.0921,0.3612 1.0937,-0.2723 1.4776,-0.2225 2.3263,-1.7181 1.5818,-2.7873 1.5999,-0.7254 2.6293,-0.0152 0.628,0.5993 2.8633,-0.1025 3.5407,-1.0932 0.3562,-0.5209 0.7809,-1.755 1.1007,-2.1068 0.2823,-0.3104 0.5422,-0.0505 0.7445,0.2021"/>
   <path id="_188343352_1" class="fil0 str0" d="M135.276 64.0774c0.1337,0.2477 0.7377,1.0016 0.9401,1.2292 0.9121,1.0266 2.8646,0.6524 3.7919,-0.7931 1.0466,-1.6316 1.4605,-2.1659 2.0841,-1.5998 0.4524,0.4106 0.5246,1.2508 1.5912,1.6108 0.883,0.2978 1.8015,0.0595 2.6823,-1.0287 0.9487,-1.172 1.5969,-3.4378 2.5097,-1.8443 0.6044,1.0551 1.3082,1.3579 2.2894,1.1134 1.0937,-0.2724 1.4776,-0.2225 2.3263,-1.7182 1.5818,-2.7873 1.5999,-0.7254 2.6293,-0.0152 0.628,0.5993 2.8633,-0.1024 3.5407,-1.0932 0.3562,-0.5209 0.7809,-1.755 1.1007,-2.1068 0.2823,-0.3104 0.5422,-0.0504 0.7445,0.2021"/>
   <path id="_346964440_2" class="fil0 str0" d="M161.35 57.9282c0.1337,0.2477 0.7377,1.0016 0.9401,1.2293 0.9121,1.0266 2.8646,0.6523 3.7919,-0.7932 1.0466,-1.6316 1.4605,-2.1659 2.0841,-1.5999 0.4524,0.4107 0.5246,1.2509 1.5913,1.6109 0.883,0.2979 1.8015,0.0594 2.6823,-1.0287 0.9487,-1.1721 1.597,-3.4378 2.5098,-1.8444 0.6044,1.0552 1.3082,1.358 2.2894,1.1135 1.0937,-0.2725 1.4776,-0.2225 2.3263,-1.7183"/>
   <path id="_188343352_6" class="fil0 str0" d="M131.629 57.5614c0.1337,0.2477 0.7377,1.0015 0.9401,1.2292 0.9121,1.0266 2.8646,0.6524 3.7919,-0.7931 1.0466,-1.6317 1.4605,-2.166 2.0841,-1.5999 0.4524,0.4106 0.5246,1.2508 1.5912,1.6108 0.883,0.2979 1.8015,0.0595 2.6823,-1.0287 0.9487,-1.1721 1.597,-3.4378 2.5098,-1.8443 0.6044,1.0551 1.3082,1.358 2.2893,1.1134 1.0937,-0.2724 1.4776,-0.2225 2.3263,-1.7183 1.5818,-2.7872 1.5999,-0.7253 2.6293,-0.015 0.628,0.5993 2.8633,-0.1025 3.5407,-1.0932 0.3562,-0.5209 0.7809,-1.7551 1.1007,-2.107 0.2823,-0.3102 0.5422,-0.0504 0.7445,0.2023"/>
   <path id="_346964440_7" class="fil0 str0" d="M157.703 51.4122c0.1337,0.2477 0.7377,1.0015 0.9401,1.2292 0.9121,1.0266 2.8646,0.6524 3.7919,-0.7931 1.0466,-1.6316 1.4605,-2.1659 2.0841,-1.5999 0.4524,0.4107 0.5246,1.2508 1.5913,1.6109 0.883,0.2978 1.8015,0.0594 2.6823,-1.0287 0.9487,-1.1722 1.597,-3.4378 2.5098,-1.8444"/>
   <path id="_188344768_10" class="fil0 str0" d="M116.781 55.9104c0.6044,1.0551 0.0349,0.216 1.0161,-0.0285 1.0937,-0.2724 1.4776,-0.2225 2.3263,-1.7182 1.5818,-2.7873 1.5999,-0.7254 2.6293,-0.0152 0.628,0.5993 2.8633,-0.1024 3.5407,-1.0932 0.3562,-0.5209 0.7809,-1.755 1.1007,-2.1068 0.2823,-0.3104 0.5422,-0.0504 0.7445,0.2021"/>
   <path id="_188343352_11" class="fil0 str0" d="M127.983 51.0453c0.1337,0.2477 0.7377,1.0016 0.9401,1.2293 0.9121,1.0266 2.8646,0.6522 3.7919,-0.7933 1.0466,-1.6316 1.4605,-2.1658 2.0841,-1.5998 0.4524,0.4107 0.5246,1.2509 1.5912,1.6108 0.883,0.2979 1.8015,0.0595 2.6823,-1.0286 0.9487,-1.1721 1.597,-3.4379 2.5098,-1.8444 0.6044,1.0552 1.3082,1.3579 2.2894,1.1135 1.0937,-0.2725 1.4776,-0.2225 2.3263,-1.7183 1.5817,-2.7873 1.5998,-0.7253 2.6292,-0.0151 0.628,0.5993 2.8633,-0.1025 3.5407,-1.0932 0.3562,-0.521 0.7809,-1.7551 1.1007,-2.1069 0.2823,-0.3103 0.5422,-0.0504 0.7445,0.2022"/>
   <path id="_346964440_12" class="fil0 str0" d="M154.056 44.8962c0.1337,0.2477 0.7377,1.0015 0.9401,1.2292 0.9121,1.0266 2.8646,0.6523 3.7919,-0.7931 1.0466,-1.6316 1.4605,-2.166 2.0841,-1.6 0.4524,0.4107 0.5246,1.2509 1.5913,1.6109 0.883,0.2979 1.2492,0.6299 2.13,-0.4584"/>
   <path id="_188344768_15" class="fil0 str0" d="M115.764 48.2922c1.5818,-2.7873 2.3132,-1.37 3.3426,-0.6597 0.628,0.5993 2.8633,-0.1025 3.5407,-1.0932 0.3562,-0.5209 0.7809,-1.755 1.1007,-2.1069 0.2823,-0.3103 0.5422,-0.0504 0.7445,0.2022"/>
   <path id="_188343352_16" class="fil0 str0" d="M124.336 44.5292c0.1337,0.2477 0.7377,1.0016 0.9401,1.2292 0.9121,1.0266 2.8646,0.6524 3.7919,-0.7931 1.0466,-1.6316 1.4605,-2.1658 2.0841,-1.5998 0.4524,0.4105 0.5246,1.2508 1.5912,1.6108 0.883,0.2978 1.8015,0.0595 2.6823,-1.0286 0.9487,-1.1722 1.597,-3.4379 2.5098,-1.8444 0.6044,1.0552 1.3082,1.3579 2.2894,1.1134 1.0937,-0.2724 1.4776,-0.2225 2.3263,-1.7182 1.5818,-2.7873 1.5999,-0.7254 2.6293,-0.0152 0.628,0.5993 2.8632,-0.1024 3.5406,-1.0932 0.3562,-0.5209 0.7809,-1.755 1.1007,-2.1068 0.2823,-0.3104 0.5422,-0.0504 0.7445,0.2021"/>
   <path id="_346964440_17" class="fil0 str0" d="M150.409 38.3801c0.1337,0.2477 0.7377,1.0016 0.9401,1.2293 0.9121,1.0266 2.8646,0.6523 3.7919,-0.7932"/>
   <path id="_188344768_20" class="fil0 str0" d="M115.459 41.1165c0.628,0.5993 2.8633,-0.1026 3.5407,-1.0932 0.3562,-0.521 0.7809,-1.7551 1.1007,-2.1069 0.2823,-0.3103 0.5422,-0.0504 0.7445,0.2022"/>
   <path id="_188343352_21" class="fil0 str0" d="M120.689 38.0132c0.1337,0.2476 0.7377,1.0015 0.9401,1.2292 0.9121,1.0266 2.8646,0.6523 3.7919,-0.7932 1.0466,-1.6315 1.4605,-2.1659 2.0841,-1.5999 0.4524,0.4107 0.5246,1.251 1.5912,1.6109 0.883,0.2979 1.8015,0.0596 2.6823,-1.0287 0.9487,-1.1721 1.597,-3.4378 2.5098,-1.8442 0.6044,1.055 1.3082,1.3579 2.2894,1.1134 1.0937,-0.2724 1.4776,-0.2226 2.3263,-1.7183 1.5818,-2.7873 1.5999,-0.7254 2.6293,-0.0151 0.628,0.5993 2.8633,-0.1025 3.5407,-1.0932 0.3562,-0.5209 0.2385,-1.2832 0.5583,-1.6351"/>
   <path id="_188343352_21_1" class="fil0 str0" d="M117.391 31.4841c0.1337,0.2477 0.7377,1.0015 0.9401,1.2292 0.9121,1.0266 2.8646,0.6523 3.7919,-0.7931 1.0466,-1.6316 1.4605,-2.166 2.0841,-1.6 0.4524,0.4107 0.5246,1.251 1.5912,1.6109 0.883,0.2979 1.8015,0.0596 2.6823,-1.0287 0.9487,-1.1721 1.597,-3.4378 2.5098,-1.8442 0.6044,1.055 1.3082,1.3579 2.2894,1.1134 1.0937,-0.2724 1.4776,-0.2226 2.3263,-1.7183 1.5818,-2.7873 1.5999,-0.7254 2.6293,-0.0151"/>
   <path id="_188343352_21_2" class="fil0 str0" d="M113.628 25.3002c0.1337,0.2477 0.7377,1.0015 0.9401,1.2292 0.9121,1.0267 2.8646,0.6524 3.7919,-0.7931 1.0466,-1.6316 1.4605,-2.1659 2.0841,-1.5999 0.4524,0.4107 0.5246,1.251 1.5912,1.6109 0.883,0.2978 1.8015,0.0595 2.6823,-1.0287 0.9487,-1.1721 1.597,-3.4378 2.5098,-1.8443 0.6044,1.0551 1.3082,1.3579 2.2894,1.1135 1.0937,-0.2725 1.4776,-0.2227 2.3263,-1.7183"/>
   <path id="_188344768_25" class="fil0 str0" d="M114.026 35.2901c0.3562,-0.5209 2.4271,-3.1538 2.7469,-3.5056 0.2823,-0.3104 0.5422,-0.0504 0.7445,0.2021"/>
   <path id="_188343352_36" class="fil0 str0" d="M112.019 20.2639c0.9121,1.0266 1.7484,0.0876 2.6757,-1.3579 1.0466,-1.6316 1.4605,-2.1659 2.0841,-1.5999 0.4524,0.4107 0.5246,1.251 1.5912,1.6109 0.883,0.2978 2.7276,-1.0617 3.6084,-2.1498"/>
   <path id="_188343352_41" class="fil0 str0" d="M111.142 12.399c1.0466,-1.6316 1.4605,-2.1659 2.0841,-1.5999 0.4524,0.4106 1.4186,1.125 2.4852,1.4849"/>
   <line id="_431383968" class="fil0 str0" x1="111.755" y1="76.1937" x2="109.686" y2= "80.8122" />
   <line id="_431384304" class="fil0 str0" x1="110.21" y1="66.9084" x2="103.357" y2= "79.4604" />
   <line id="_431384640" class="fil0 str0" x1="109.366" y1="55.387" x2="96.8406" y2= "78.4529" />
   <line id="_431384976" class="fil0 str0" x1="108.101" y1="44.7095" x2="90.4446" y2= "77.2229" />
   <line id="_431385312" class="fil0 str0" x1="106.836" y1="34.0324" x2="83.9287" y2= "76.215" />
   <line id="_431385648" class="fil0 str0" x1="105.57" y1="23.3547" x2="77.5317" y2= "74.9864" />
   <line id="_431385984" class="fil0 str0" x1="103.57" y1="13.5756" x2="70.6947" y2= "74.1134" />
   <line id="_431386320" class="fil0 str0" x1="97.5635" y1="12.1806" x2="64.6967" y2= "72.6071" />
   <line id="_431386656" class="fil0 str0" x1="86.0327" y1="19.8919" x2="57.8467" y2= "71.7953" />
   <line id="_431386992" class="fil0 str0" x1="75.4948" y1="26.8341" x2="51.6737" y2= "70.6994" />
   <line id="_431387328" class="fil0 str0" x1="63.9982" y1="34.4076" x2="44.9057" y2= "69.5646" />
   <line id="_431387664" class="fil0 str0" x1="52.0089" y1="42.3058" x2="38.4427" y2= "68.3378" />
   <line id="_431388000" class="fil0 str0" x1="42.5102" y1="48.5633" x2="32.3357" y2= "67.2994" />
   <line id="_431388336" class="fil0 str0" x1="30.7592" y1="56.3047" x2="25.4567" y2= "66.069" />
   <path id="_188344768_3" class="fil0 str0" d="M111.755 76.1937c-0.883,0.3571 -1.8015,0.1804 -2.6823,-0.8486 -0.9487,-1.1085 -1.597,-3.3307 -2.5098,-1.6759 -0.6044,1.0958 -1.3082,1.4458 -2.2894,1.2672 -1.0937,-0.1991 -1.4776,-0.1234 -2.3263,-1.5621 -1.5818,-2.6811 -1.5999,-0.6181 -2.6293,0.1613 -0.628,0.6415 -2.8633,0.0897 -3.5407,-0.8555 -0.3562,-0.497 -0.7809,-1.7026 -1.1007,-2.033 -0.2823,-0.2914 -0.5422,-0.014 -0.7445,0.2522"/>
   <path id="_188343352_4" class="fil0 str0" d="M94.0886 70.7834c-0.1337,0.2566 -0.7377,1.0511 -0.9401,1.2923 -0.9121,1.0879 -2.8646,0.8447 -3.7919,-0.5386 -1.0466,-1.5613 -1.4605,-2.0678 -2.0841,-1.46 -0.4524,0.4411 -0.5246,1.2861 -1.5912,1.7177 -0.8829,0.3572 -1.8014,0.1804 -2.6822,-0.8486 -0.9487,-1.1085 -1.597,-3.3307 -2.5098,-1.6759 -0.6044,1.0958 -1.3082,1.4458 -2.2894,1.2672 -1.0937,-0.199 -1.4776,-0.1233 -2.3263,-1.5621 -1.5818,-2.6811 -1.5999,-0.6181 -2.6293,0.1613 -0.628,0.6415 -2.8633,0.0897 -3.5407,-0.8555 -0.3562,-0.497 -0.7809,-1.7026 -1.1007,-2.033 -0.2823,-0.2914 -0.5422,-0.014 -0.7445,0.2522"/>
   <path id="_346964440_5" class="fil0 str0" d="M68.0147 66.3844c-0.1337,0.2568 -0.7377,1.0512 -0.9401,1.2924 -0.9121,1.0879 -2.8646,0.8446 -3.7919,-0.5386 -1.0466,-1.5613 -1.4605,-2.0678 -2.0841,-1.46 -0.4524,0.441 -0.5246,1.2861 -1.5913,1.7177 -0.883,0.3571 -1.8015,0.1803 -2.6823,-0.8486 -0.9487,-1.1084 -1.597,-3.3307 -2.5098,-1.6758 -0.6044,1.0956 -1.3082,1.4457 -2.2894,1.267 -1.0937,-0.199 -1.4776,-0.1233 -2.3263,-1.5621 -1.5818,-2.6811 -1.5999,-0.6179 -2.6293,0.1614 -0.628,0.6414 -2.8633,0.0897 -3.5407,-0.8555 -0.3562,-0.497 -0.7809,-1.7027 -1.1007,-2.033 -0.2823,-0.2914 -0.5422,-0.014 -0.7445,0.2522"/>
   <path id="_188342920" class="fil0 str0" d="M41.9407 61.9856c-0.1337,0.2566 -0.7377,1.0511 -0.9401,1.2923 -0.9121,1.0878 -2.8646,0.8446 -3.7919,-0.5386 -1.0466,-1.5614 -1.4605,-2.0679 -2.0841,-1.46 -0.4524,0.441 -0.5246,1.286 -1.5913,1.7176 -0.883,0.3572 -1.8015,0.1804 -2.6823,-0.8486 -0.9487,-1.1084 -1.597,-3.3307 -2.5098,-1.6758 -0.6044,1.0957 -1.3082,1.4457 -2.2894,1.2671 -1.0937,-0.199 -1.4776,-0.1233 -2.3263,-1.5621"/>
   <path id="_188344768_0_6" class="fil0 str0" d="M110.21 66.9084c-0.6044,1.0957 -1.3082,1.4457 -2.2894,1.267 -1.0937,-0.1989 -1.4776,-0.1233 -2.3263,-1.562 -1.5818,-2.6812 -1.5999,-0.618 -2.6293,0.1614 -0.628,0.6413 -2.8633,0.0897 -3.5407,-0.8556 -0.3562,-0.497 -0.7809,-1.7026 -1.1007,-2.033 -0.2823,-0.2914 -0.5422,-0.014 -0.7445,0.2522"/>
   <path id="_188343352_1_7" class="fil0 str0" d="M97.7356 64.0225c-0.1337,0.2567 -0.7377,1.0511 -0.9401,1.2923 -0.9121,1.0879 -2.8646,0.8447 -3.7919,-0.5386 -1.0466,-1.5613 -1.4605,-2.0678 -2.0841,-1.4599 -0.4524,0.441 -0.5246,1.2861 -1.5912,1.7177 -0.883,0.3571 -1.8015,0.1804 -2.6823,-0.8486 -0.9487,-1.1085 -1.5969,-3.3307 -2.5097,-1.6759 -0.6044,1.0957 -1.3082,1.4457 -2.2894,1.2671 -1.0937,-0.199 -1.4776,-0.1233 -2.3263,-1.5621 -1.5818,-2.681 -1.5999,-0.618 -2.6293,0.1614 -0.628,0.6415 -2.8633,0.0897 -3.5407,-0.8556 -0.3562,-0.497 -0.7809,-1.7025 -1.1007,-2.033 -0.2823,-0.2914 -0.5422,-0.0139 -0.7445,0.2522"/>
   <path id="_346964440_2_8" class="fil0 str0" d="M71.6617 59.6236c-0.1337,0.2567 -0.7377,1.0511 -0.9401,1.2924 -0.9121,1.0878 -2.8646,0.8445 -3.7919,-0.5387 -1.0466,-1.5613 -1.4605,-2.0678 -2.0841,-1.4599 -0.4524,0.4409 -0.5246,1.2861 -1.5913,1.7176 -0.883,0.3571 -1.8015,0.1804 -2.6823,-0.8485 -0.9487,-1.1085 -1.597,-3.3307 -2.5098,-1.6759 -0.6044,1.0956 -1.3082,1.4457 -2.2894,1.267 -1.0937,-0.199 -1.4776,-0.1233 -2.3263,-1.5621 -1.5818,-2.681 -1.5999,-0.6179 -2.6293,0.1614 -0.628,0.6415 -2.8633,0.0898 -3.5407,-0.8554 -0.3562,-0.4971 -0.7809,-1.7027 -1.1007,-2.033 -0.2823,-0.2914 -0.5422,-0.014 -0.7445,0.2522"/>
   <path id="_188342920_3" class="fil0 str0" d="M45.5877 55.2247c-0.1337,0.2566 -0.7377,1.051 -0.9401,1.2924 -0.9121,1.0877 -2.8646,0.8445 -3.7919,-0.5387 -1.0466,-1.5614 -1.4605,-2.0679 -2.0841,-1.4599 -0.4524,0.441 -0.5246,1.286 -1.5913,1.7176 -0.883,0.3571 -2.5965,-0.8417 -3.4773,-1.8706"/>
   <path id="_188344768_5" class="fil0 str0" d="M109.978 60.5471c-1.5818,-2.6811 -2.3368,-1.3125 -3.3662,-0.5333 -0.628,0.6415 -2.8633,0.0898 -3.5407,-0.8554 -0.3562,-0.497 -0.7809,-1.7027 -1.1007,-2.033 -0.2823,-0.2914 -0.5422,-0.014 -0.7445,0.2522"/>
   <path id="_188343352_6_9" class="fil0 str0" d="M101.382 57.2617c-0.1337,0.2567 -0.7377,1.0511 -0.9401,1.2923 -0.9121,1.0879 -2.8646,0.8446 -3.7919,-0.5386 -1.0466,-1.5613 -1.4605,-2.0678 -2.0841,-1.46 -0.4524,0.441 -0.5246,1.2861 -1.5912,1.7177 -0.883,0.3571 -1.8015,0.1803 -2.6823,-0.8486 -0.9487,-1.1084 -1.597,-3.3306 -2.5098,-1.6758 -0.6044,1.0956 -1.3082,1.4457 -2.2893,1.267 -1.0937,-0.199 -1.4776,-0.1233 -2.3263,-1.5621 -1.5818,-2.6811 -1.5999,-0.6179 -2.6293,0.1613 -0.628,0.6415 -2.8633,0.0898 -3.5407,-0.8554 -0.3562,-0.497 -0.7809,-1.7027 -1.1007,-2.033 -0.2823,-0.2914 -0.5422,-0.014 -0.7445,0.2522"/>
   <path id="_346964440_7_10" class="fil0 str0" d="M75.3087 52.8628c-0.1337,0.2567 -0.7377,1.0511 -0.9401,1.2923 -0.9121,1.0879 -2.8646,0.8446 -3.7919,-0.5386 -1.0466,-1.5613 -1.4605,-2.0678 -2.0841,-1.4599 -0.4524,0.4409 -0.5246,1.2861 -1.5913,1.7175 -0.883,0.3572 -1.8015,0.1805 -2.6823,-0.8486 -0.9487,-1.1083 -1.597,-3.3305 -2.5098,-1.6758 -0.6044,1.0957 -1.3082,1.4457 -2.2894,1.2671 -1.0937,-0.199 -1.4776,-0.1233 -2.3263,-1.5621 -1.5818,-2.6811 -1.5999,-0.6179 -2.6293,0.1613 -0.628,0.6415 -2.8633,0.0899 -3.5407,-0.8554 -0.3562,-0.4971 -0.7809,-1.7027 -1.1007,-2.033 -0.2823,-0.2914 -0.5422,-0.014 -0.7445,0.2521"/>
   <path id="_188342920_8" class="fil0 str0" d="M49.2347 48.4639c-0.1337,0.2566 -0.7377,1.051 -0.9401,1.2923 -0.9121,1.0878 -2.8646,0.8446 -3.7919,-0.5386 -1.0466,-1.5614 -0.348,-1.9346 -0.9716,-1.3268 -0.4524,0.441 -1.6371,1.1529 -2.7038,1.5844"/>
   <path id="_188343352_11_11" class="fil0 str0" d="M105.029 50.5008c-0.1337,0.2566 -0.7377,1.051 -0.9401,1.2924 -0.9121,1.0877 -2.8646,0.8445 -3.7919,-0.5387 -1.0466,-1.5614 -1.4605,-2.0679 -2.0841,-1.4599 -0.4524,0.441 -0.5246,1.286 -1.5912,1.7176 -0.883,0.3571 -1.8015,0.1804 -2.6823,-0.8486 -0.9487,-1.1085 -1.597,-3.3306 -2.5098,-1.6759 -0.6044,1.0957 -1.3082,1.4457 -2.2894,1.2672 -1.0937,-0.1991 -1.4776,-0.1234 -2.3263,-1.5622 -1.5817,-2.681 -1.5998,-0.6179 -2.6292,0.1614 -0.628,0.6415 -2.8633,0.0898 -3.5407,-0.8554 -0.3562,-0.4972 -0.7809,-1.7027 -1.1007,-2.033 -0.2823,-0.2914 -0.5422,-0.014 -0.7445,0.252"/>
   <path id="_346964440_12_12" class="fil0 str0" d="M78.9557 46.1019c-0.1337,0.2567 -0.7377,1.0511 -0.9401,1.2924 -0.9121,1.0878 -2.8646,0.8445 -3.7919,-0.5386 -1.0466,-1.5615 -1.4605,-2.068 -2.0841,-1.46 -0.4524,0.441 -0.5246,1.2861 -1.5913,1.7176 -0.883,0.3571 -1.8015,0.1804 -2.6823,-0.8486 -0.9487,-1.1085 -1.597,-3.3306 -2.5098,-1.6759 -0.6044,1.0958 -1.3082,1.4457 -2.2894,1.2672 -1.0937,-0.1991 -1.4776,-0.1234 -2.3263,-1.5621 -1.5818,-2.6811 -1.5999,-0.618 -2.6293,0.1613 -0.628,0.6415 -2.8633,0.0898 -3.5407,-0.8554 -0.3562,-0.4972 -0.7809,-1.7027 -1.1007,-2.033 -0.2823,-0.2914 -0.5422,-0.014 -0.7445,0.2521"/>
   <path id="_188343352_16_13" class="fil0 str0" d="M108.101 44.7095c-0.1337,0.2566 -0.1625,0.0815 -0.3649,0.3227 -0.9121,1.0879 -2.8646,0.8447 -3.7919,-0.5386 -1.0466,-1.5613 -1.4605,-2.0678 -2.0841,-1.46 -0.4524,0.4411 -0.5246,1.2861 -1.5912,1.7177 -0.883,0.3572 -1.8015,0.1805 -2.6823,-0.8486 -0.9487,-1.1084 -1.597,-3.3306 -2.5098,-1.6758 -0.6044,1.0957 -1.3082,1.4457 -2.2894,1.2671 -1.0937,-0.199 -1.4776,-0.1233 -2.3263,-1.5621 -1.5818,-2.6811 -1.5999,-0.618 -2.6293,0.1614 -0.628,0.6414 -2.8632,0.0896 -3.5406,-0.8556 -0.3562,-0.497 -0.7809,-1.7025 -1.1007,-2.033 -0.2823,-0.2914 -0.5422,-0.014 -0.7445,0.2522"/>
   <path id="_346964440_17_14" class="fil0 str0" d="M82.6027 39.3411c-0.1337,0.2566 -0.7377,1.0511 -0.9401,1.2923 -0.9121,1.0878 -2.8646,0.8446 -3.7919,-0.5386 -1.0466,-1.5614 -1.4605,-2.0679 -2.0841,-1.4599 -0.4524,0.4409 -0.5246,1.286 -1.5913,1.7175 -0.883,0.3572 -1.8015,0.1805 -2.6823,-0.8486 -0.9487,-1.1084 -1.597,-3.3306 -2.5098,-1.6758 -0.6044,1.0957 -1.3082,1.4457 -2.2894,1.2671 -1.0937,-0.199 -1.4776,-0.1233 -2.3263,-1.5621 -1.5818,-2.6811 -1.5999,-0.6179 -2.6293,0.1614 -0.628,0.6415 -1.8906,0.8259 -2.568,-0.1193"/>
   <path id="_188343352_21_15" class="fil0 str0" d="M107.308 38.0205c-1.0466,-1.5613 -1.1778,-2.3555 -1.8014,-1.7477 -0.4524,0.441 -0.5246,1.2861 -1.5912,1.7177 -0.883,0.3571 -1.8015,0.1804 -2.6823,-0.8486 -0.9487,-1.1085 -1.597,-3.3307 -2.5098,-1.6759 -0.6044,1.0958 -1.3082,1.4458 -2.2894,1.2671 -1.0937,-0.199 -1.4776,-0.1234 -2.3263,-1.562 -1.5818,-2.6812 -1.5999,-0.6181 -2.6293,0.1613 -0.628,0.6414 -2.8633,0.0897 -3.5407,-0.8555 -0.3562,-0.497 -0.7809,-1.7027 -1.1007,-2.033 -0.2823,-0.2914 -0.5422,-0.014 -0.7445,0.2522"/>
   <path id="_346964440_22" class="fil0 str0" d="M86.2496 32.5803c-0.1337,0.2565 -0.7376,1.051 -0.94,1.2923 -0.9121,1.0878 -2.8646,0.8446 -3.7919,-0.5386 -1.0466,-1.5614 -1.4605,-2.0679 -2.0841,-1.46 -0.4524,0.441 -0.5246,1.286 -1.5913,1.7176 -0.883,0.3572 -1.8015,0.1804 -2.6823,-0.8486 -0.9487,-1.1085 -1.597,-3.3307 -2.5098,-1.6759 -0.6044,1.0958 -1.3082,1.4458 -2.2894,1.2672 -1.0937,-0.199 -0.6381,0.3 -1.4868,-1.1387"/>
   <path id="_188343352_26" class="fil0 str0" d="M106.571 31.7982c-0.883,0.3572 -1.1293,0.0174 -2.0101,-1.0116 -0.9487,-1.1084 -1.597,-3.3306 -2.5098,-1.6758 -0.6044,1.0956 -1.3082,1.4457 -2.2894,1.267 -1.0937,-0.1989 -1.4776,-0.1233 -2.3263,-1.5621 -1.5818,-2.6811 -1.5999,-0.6179 -2.6293,0.1615 -0.628,0.6413 -2.8633,0.0897 -3.5407,-0.8556 -0.3562,-0.497 -0.7809,-1.7027 -1.1007,-2.033 -0.2823,-0.2914 -0.5422,-0.014 -0.7445,0.2522"/>
   <path id="_346964440_27" class="fil0 str0" d="M89.5766 26.2249c-0.1337,0.2566 -0.7377,1.0511 -0.9401,1.2923 -0.9121,1.0878 -2.8646,0.8446 -3.7918,-0.5386 -1.0466,-1.5614 -1.4605,-2.0679 -2.0841,-1.4599 -0.4524,0.4409 -0.5246,1.2859 -1.5913,1.7175 -0.883,0.3572 -2.7978,-0.6879 -3.6786,-1.717"/>
   <path id="_188343352_31" class="fil0 str0" d="M105.481 22.5977c-0.6044,1.0958 -0.9122,0.8517 -1.8934,0.6731 -1.0937,-0.199 -1.4776,-0.1233 -2.3263,-1.5621 -1.5818,-2.6811 -1.5999,-0.618 -2.6293,0.1613 -0.628,0.6415 -2.8633,0.0897 -3.5407,-0.8555 -0.3562,-0.497 -0.7809,-1.7026 -1.1007,-2.033 -0.2823,-0.2914 -0.5422,-0.014 -0.7445,0.2522"/>
   <path id="_346964440_32" class="fil0 str0" d="M93.4016 19.1176c-0.1337,0.2567 -0.7377,1.0512 -0.9401,1.2924 -0.9121,1.0879 -2.8646,0.8447 -3.7919,-0.5386 -1.0466,-1.5613 -0.2099,-1.7754 -0.8335,-1.1674 -0.4524,0.4409 -1.7752,0.9935 -2.8418,1.4251"/>
   <path id="_188343352_36_16" class="fil0 str0" d="M104.834 14.9077c-1.5818,-2.681 -1.5999,-0.6179 -2.6293,0.1614 -0.628,0.6415 -2.8633,0.0898 -3.5407,-0.8554 -0.3562,-0.4972 -0.7809,-1.7027 -1.1007,-2.0331 -0.2823,-0.2913 -0.5422,-0.0139 -0.7445,0.2521"/>
  </g>
 </g>
</svg>
