<?xml version="1.0" encoding="UTF-8"?>
<!DOCTYPE svg PUBLIC "-//W3C//DTD SVG 1.1//EN" "http://www.w3.org/Graphics/SVG/1.1/DTD/svg11.dtd">
<!-- Creator: CorelDRAW -->
<svg xmlns="http://www.w3.org/2000/svg" xml:space="preserve" width="210mm" height="297mm" style="shape-rendering:geometricPrecision; text-rendering:geometricPrecision; image-rendering:optimizeQuality; fill-rule:evenodd; clip-rule:evenodd"
viewBox="0 0 210 297"
 xmlns:xlink="http://www.w3.org/1999/xlink">
 <defs>
  <style type="text/css">
   <![CDATA[
    .str0 {stroke:#333333;stroke-width:0.5}
    .fil0 {fill:none}
    .fil1 {fill:#AD3836}
   ]]>
  </style>
 </defs>
 <g id="Слой_x0020_1">
  <metadata id="CorelCorpID_0Corel-Layer"/>
  <line class="fil0 str0" x1="23.3073" y1="68.8807" x2="23.3079" y2= "104.999" />
  <line class="fil0 str0" x1="114.636" y1="82.2119" x2="115.674" y2= "124.027" />
  <line class="fil0 str0" x1="188.883" y1="68.0546" x2="188.679" y2= "107.22" />
  <polyline class="fil0 str0" points="23.3079,104.998 115.92,124.077 188.679,107.22 "/>
  <g id="_431374416">
   <polygon id="_366420792" class="fil1 str0" points="9.7057,67.0197 106.232,15.361 198.311,66.7677 116.628,82.5115 "/>
   <line id="_366422808" class="fil0 str0" x1="106.149" y1="15.4805" x2="116.628" y2= "82.5115" />
   <line id="_432534800" class="fil0 str0" x1="194.135" y1="67.5724" x2="106.5" y2= "18.8609" />
   <line id="_432535136" class="fil0 str0" x1="17.5975" y1="67.8961" x2="106.696" y2= "18.9766" />
   <polygon id="_432535280" class="fil1 str0" points="103.259,16.9521 112.496,81.913 116.628,82.5115 120.225,81.8183 109.899,17.4084 106.232,15.361 "/>
   <line id="_432535664" class="fil0 str0" x1="106.149" y1="15.4805" x2="116.628" y2= "82.5115" />
   <polygon id="_432535808" class="fil0 str0" points="121.212,76.6088 128.2,74.9835 131.776,80.0792 131.68,79.9432 120.992,82.1399 119.885,80.3014 "/>
   <polygon id="_432536000" class="fil0 str0" points="129.575,71.1867 136.563,69.5613 140.139,74.657 138.784,78.5342 131.68,79.9432 128.248,74.8791 "/>
   <polygon id="_432536192" class="fil0 str0" points="137.938,65.7645 144.927,64.1391 148.502,69.2347 147.148,73.1119 140.024,75.1252 136.611,69.4569 "/>
   <polygon id="_432536384" class="fil0 str0" points="146.302,60.3421 153.29,58.7169 156.866,63.8126 155.511,67.6898 148.387,69.7028 144.974,64.0348 "/>
   <polygon id="_432536576" class="fil0 str0" points="154.665,54.9199 161.653,53.2946 165.229,58.3903 163.874,62.2675 156.75,64.2807 153.337,58.6125 "/>
   <polygon id="_432536768" class="fil0 str0" points="162.793,50.1509 167.976,53.0318 172.434,55.5098 172.237,56.8453 165.114,58.8583 161.7,53.1902 "/>
   <polygon id="_432536960" class="fil0 str0" points="118.993,67.3467 125.981,65.7214 129.557,70.8172 128.202,74.6943 121.078,76.7074 118.529,71.2399 "/>
   <polygon id="_432537152" class="fil0 str0" points="127.356,61.9245 134.344,60.2992 137.92,65.3948 136.565,69.2721 129.441,71.2852 126.029,65.6171 "/>
   <polygon id="_432537344" class="fil0 str0" points="135.719,56.5023 142.708,54.8768 146.283,59.9726 144.929,63.8498 137.805,65.8629 134.391,60.1948 "/>
   <polygon id="_432537536" class="fil0 str0" points="144.082,51.0801 151.071,49.4548 154.646,54.5504 153.292,58.4275 146.168,60.4409 142.755,54.7725 "/>
   <polygon id="_432537728" class="fil0 str0" points="152.908,44.6566 158.447,47.7355 162.675,50.0855 161.655,53.0056 154.531,55.0185 151.118,49.3503 "/>
   <polygon id="_432537920" class="fil0 str0" points="116.773,58.0847 123.762,56.4594 127.337,61.5549 125.983,65.4321 118.859,67.4454 117.054,62.0387 "/>
   <polygon id="_432538112" class="fil0 str0" points="125.137,52.6624 132.125,51.0371 135.701,56.1328 134.346,60.01 127.222,62.0231 123.809,56.3549 "/>
   <polygon id="_432538304" class="fil0 str0" points="133.5,47.2402 140.488,45.6149 144.064,50.7104 142.709,54.5877 135.586,56.6008 132.172,50.9327 "/>
   <polygon id="_432538496" class="fil0 str0" points="141.863,41.8179 147.851,41.846 153.077,44.7508 151.073,49.1654 143.949,51.1785 140.536,45.5103 "/>
   <polygon id="_432538688" class="fil0 str0" points="114.928,48.7777 121.543,47.1971 125.118,52.2928 123.764,56.17 116.64,58.1831 115.58,52.8475 "/>
   <polygon id="_432538880" class="fil0 str0" points="122.917,43.4003 129.906,41.775 133.482,46.8706 132.127,50.7477 125.003,52.761 121.59,47.0927 "/>
   <polygon id="_432539072" class="fil0 str0" points="131.28,37.978 138.269,36.3526 141.844,41.4485 140.49,45.3256 133.366,47.3387 129.953,41.6706 "/>
   <polygon id="_432539264" class="fil0 str0" points="113.411,39.3171 119.323,37.935 122.899,43.0308 121.545,46.9079 114.928,48.7777 114.147,43.9052 "/>
   <polygon id="_432539456" class="fil0 str0" points="120.698,34.1382 127.687,32.5127 131.262,37.6085 129.908,41.4857 122.784,43.4987 119.371,37.8307 "/>
   <polygon id="_432539648" class="fil0 str0" points="128.257,30.9544 132.793,33.4758 137.725,36.2176 138.271,36.0634 131.147,38.0767 127.734,32.4084 "/>
   <polygon id="_432539840" class="fil0 str0" points="111.899,29.8834 117.104,28.6729 120.68,33.7687 119.325,37.6459 113.411,39.3171 112.533,33.8377 "/>
   <polygon id="_432540032" class="fil0 str0" points="118.045,25.0656 123.476,28.2969 128.257,30.9544 127.689,32.2235 120.564,34.2367 117.151,28.5685 "/>
   <polygon id="_432540224" class="fil0 str0" points="110.895,23.62 113.466,23.1641 118.045,25.0656 117.106,28.3838 111.971,30.3325 111.092,24.8521 "/>
   <polygon id="_432540416" class="fil0 str0" points="140.165,74.7546 147.153,73.129 149.747,76.2423 148.027,76.5838 142.152,77.7913 138.837,78.447 "/>
   <polygon id="_432540608" class="fil0 str0" points="148.528,69.3322 155.516,67.7071 159.092,72.8025 158.415,74.7414 149.382,76.3053 147.2,73.0249 "/>
   <polygon id="_432540800" class="fil0 str0" points="156.891,63.9101 163.88,62.2847 167.455,67.3805 166.101,71.2576 158.976,73.2707 155.564,67.6026 "/>
   <polygon id="_432540992" class="fil0 str0" points="165.254,58.4878 172.243,56.8625 175.819,61.9582 174.464,65.8355 167.34,67.8484 163.927,62.1804 "/>
   <polygon id="_432541184" class="fil0 str0" points="167.44,67.9634 174.429,66.3381 178.004,70.6825 175.959,70.8435 169.821,72.105 165.948,72.9009 "/>
   <polygon id="_432541376" class="fil0 str0" points="175.803,62.5412 182.791,60.9159 186.368,66.0115 184.915,69.0029 177.553,70.7915 174.476,66.2338 "/>
   <polygon id="_432541568" class="fil0 str0" points="109.224,75.7218 101.055,74.4435 96.876,79.7167 96.9875,79.576 109.481,81.2419 110.775,79.3485 "/>
   <polygon id="_432541760" class="fil0 str0" points="99.4485,70.715 91.2806,69.4364 87.101,74.7097 88.6845,78.5197 96.9875,79.576 101,74.3415 "/>
   <polygon id="_432541952" class="fil0 str0" points="89.6736,65.7079 81.5052,64.4295 77.3264,69.7027 78.909,73.5125 87.2361,75.1722 91.2248,69.3344 "/>
   <polygon id="_432542144" class="fil0 str0" points="79.8982,60.7008 71.7306,59.4225 67.551,64.6957 69.1345,68.5057 77.4606,70.165 81.4503,64.3276 "/>
   <polygon id="_432542336" class="fil0 str0" points="70.1236,55.6938 61.9552,54.4154 57.7765,59.6887 59.3591,63.4986 67.6861,65.158 71.6749,59.3204 "/>
   <polygon id="_432542528" class="fil0 str0" points="60.3491,50.6869 52.1807,49.4084 48.001,54.6815 49.5845,58.4916 57.9107,60.1509 61.9003,54.3135 "/>
   <polygon id="_432542720" class="fil0 str0" points="110.248,66.1041 103.649,65.0712 99.4699,70.3445 101.053,74.1544 109.38,75.8138 110.801,69.9922 "/>
   <polygon id="_432542912" class="fil0 str0" points="102.042,61.3425 93.8741,60.0642 89.6945,65.3373 91.278,69.1473 99.6046,70.8068 103.594,64.9691 "/>
   <polygon id="_432543104" class="fil0 str0" points="92.2671,56.3356 84.0987,55.057 79.92,60.3304 81.5026,64.1402 89.8296,65.7997 93.8192,59.9622 "/>
   <polygon id="_432543296" class="fil0 str0" points="82.4926,51.3286 74.3242,50.0502 70.1454,55.3234 71.728,59.1332 80.055,60.7929 84.0438,54.955 "/>
   <polygon id="_432543488" class="fil0 str0" points="72.7171,46.3215 64.5496,45.0432 60.37,50.3164 61.9535,54.1264 70.2796,55.7857 74.2684,49.9481 "/>
   <polygon id="_432543680" class="fil0 str0" points="108.826,56.1032 106.243,55.699 102.064,60.972 103.647,64.782 110.395,66.127 109.522,60.998 "/>
   <polygon id="_432543872" class="fil0 str0" points="104.636,51.9703 96.4679,50.6919 92.2889,55.9652 93.8715,59.7751 102.198,61.4345 106.188,55.5969 "/>
   <polygon id="_432544064" class="fil0 str0" points="94.8615,46.9632 86.6931,45.6849 82.5135,50.958 84.097,54.7681 92.4231,56.4274 96.4127,50.5898 "/>
   <polygon id="_432544256" class="fil0 str0" points="85.0861,41.9563 76.9177,40.6777 72.7389,45.9511 74.3215,49.7609 82.6486,51.4204 86.6373,45.5828 "/>
   <polygon id="_432544448" class="fil0 str0" points="74.9691,36.3962 68.6064,39.8898 63.6556,42.6081 64.547,44.7539 72.8731,46.4135 76.8628,40.5757 "/>
   <polygon id="_432544640" class="fil0 str0" points="106.905,42.5939 99.0618,41.3196 94.8824,46.5927 96.4657,50.4027 104.792,52.0623 107.435,46.3201 "/>
   <polygon id="_432544832" class="fil0 str0" points="97.4552,37.591 89.2866,36.3126 85.1079,41.5859 86.6905,45.3957 95.0175,47.0552 99.0066,41.2176 "/>
   <polygon id="_432545024" class="fil0 str0" points="87.6805,32.5839 80.4101,33.4088 74.9691,36.3962 76.916,40.3888 85.2421,42.0481 89.2317,36.2105 "/>
   <polygon id="_432545216" class="fil0 str0" points="105.451,32.3707 101.656,31.9472 97.4766,37.2205 99.0596,41.0304 106.905,42.5939 106.024,36.4012 "/>
   <polygon id="_432545408" class="fil0 str0" points="100.049,28.2186 91.8811,26.9404 87.7014,32.2133 89.2849,36.0234 97.6112,37.6829 101.6,31.8452 "/>
   <polygon id="_432545600" class="fil0 str0" points="103.775,20.5806 97.3816,24.0908 92.1225,26.9784 92.4948,26.774 100.205,28.3104 104.194,22.4729 "/>
   <polygon id="_432545792" class="fil0 str0" points="87.0713,74.8085 78.9029,73.53 75.8719,76.772 77.8816,77.0281 84.7488,77.9439 88.6226,78.435 "/>
   <polygon id="_432545984" class="fil0 str0" points="77.2959,69.8014 69.1284,68.5232 64.9488,73.7962 65.8921,75.1606 76.2981,76.8169 78.848,73.4283 "/>
   <polygon id="_432546176" class="fil0 str0" points="67.5214,64.7944 59.353,63.5161 55.1742,68.7894 56.7568,72.5992 65.0838,74.2587 69.0726,68.4211 "/>
   <polygon id="_432546368" class="fil0 str0" points="57.7468,59.7874 49.5784,58.509 45.3988,63.7822 46.9823,67.5923 55.3084,69.2516 59.2981,63.414 "/>
   <polygon id="_432546560" class="fil0 str0" points="47.9714,54.7805 40.2608,55.453 34.9295,58.3799 37.2068,62.5851 45.5339,64.2446 49.5226,58.407 "/>
   <polygon id="_432546752" class="fil0 str0" points="55.1916,69.3715 47.0232,68.0932 43.4915,71.9148 45.9646,72.2731 52.8231,73.2669 56.7947,73.8425 "/>
   <polygon id="_432546944" class="fil0 str0" points="45.4171,64.3646 37.2487,63.0862 33.069,68.3594 34.368,70.593 43.9241,71.9776 46.9683,67.9912 "/>
   <polygon id="_432547136" class="fil0 str0" points="34.9296,58.3799 29.0123,61.629 23.7734,64.5053 24.8771,67.1622 33.2041,68.8217 37.1929,62.9841 "/>
  </g>
 </g>
</svg>
