<?xml version="1.0" encoding="UTF-8"?>
<!DOCTYPE svg PUBLIC "-//W3C//DTD SVG 1.1//EN" "http://www.w3.org/Graphics/SVG/1.1/DTD/svg11.dtd">
<!-- Creator: CorelDRAW -->
<svg xmlns="http://www.w3.org/2000/svg" xml:space="preserve" width="210mm" height="297mm" style="shape-rendering:geometricPrecision; text-rendering:geometricPrecision; image-rendering:optimizeQuality; fill-rule:evenodd; clip-rule:evenodd"
viewBox="0 0 210 297"
 xmlns:xlink="http://www.w3.org/1999/xlink">
 <defs>
  <style type="text/css">
   <![CDATA[
    .str1 {stroke:#333333;stroke-width:0.2}
    .str2 {stroke:#333333;stroke-width:0.25}
    .str0 {stroke:#333333;stroke-width:0.5}
    .fil0 {fill:none}
    .fil2 {fill:#A33535}
    .fil1 {fill:#A33838}
   ]]>
  </style>
 </defs>
 <g id="Слой_x0020_1">
  <metadata id="CorelCorpID_0Corel-Layer"/>
  <line class="fil0 str0" x1="23.3073" y1="68.8807" x2="23.3079" y2= "104.999" />
  <line class="fil0 str0" x1="114.636" y1="82.2119" x2="115.674" y2= "124.027" />
  <line class="fil0 str0" x1="188.883" y1="68.0546" x2="188.679" y2= "107.22" />
  <polyline class="fil0 str0" points="23.3079,104.998 115.92,124.077 188.679,107.22 "/>
  <g id="_433904504">
   <polygon id="_435932504" class="fil1 str0" points="9.7057,73.1285 106.232,41.8403 198.311,72.9759 116.628,82.5115 "/>
   <line id="_435933680" class="fil0 str0" x1="106.149" y1="41.9127" x2="116.628" y2= "82.5115" />
   <line id="_435935192" class="fil0 str0" x1="194.135" y1="73.4633" x2="106.5" y2= "43.9601" />
   <line id="_435935528" class="fil0 str0" x1="17.5975" y1="73.6593" x2="106.696" y2= "44.0302" />
   <polygon id="_435935672" class="fil2 str1" points="103.259,42.804 112.496,82.149 116.628,82.5115 120.225,82.0917 109.899,43.0804 106.232,41.8403 "/>
   <line id="_435936104" class="fil0 str1" x1="106.149" y1="41.9127" x2="116.628" y2= "82.5115" />
   <path id="_197247352_1" class="fil0 str2" d="M119.862 80.7239c0.2624,0.0367 2.2387,0.1229 2.3921,0.2697l0.6181 0.5956c0.419,-0.2519 0.847,-0.5845 1.266,-0.8364 0.3973,-0.2738 0.6997,-0.4491 1.1549,-0.5517 0.2936,-0.0399 0.5294,-0.0511 0.7169,0.1307 0.2094,0.2017 0.4271,0.4644 0.664,0.7907 0.2392,-0.1477 0.5334,-0.3651 0.7727,-0.5131 0.3859,-0.2499 0.7606,-0.5029 1.2023,-0.6583 0.2807,-0.0894 0.5763,-0.1521 0.7669,-0.0657 0.3146,0.1034 0.8038,0.4925 1.0472,0.7516"/>
   <line id="_435936656" class="fil0 str2" x1="126.868" y1="81" x2="118.063" y2= "73.9238" />
   <g id="_197261344">
    <path id="_197247352" class="fil0 str2" d="M119.156 78.0569c0.2624,0.0366 0.0586,0.1703 0.212,0.3171l0.6181 0.5956c0.419,-0.252 0.847,-0.5845 1.266,-0.8364 0.3973,-0.2738 0.6997,-0.449 1.1549,-0.5516 0.2936,-0.0399 0.5294,-0.051 0.7169,0.1306 0.2094,0.2017 0.4271,0.4644 0.664,0.7909 0.2392,-0.1479 0.5334,-0.3654 0.7727,-0.5133 0.3859,-0.25 0.7606,-0.5029 1.2023,-0.6583 0.2807,-0.0894 0.5763,-0.152 0.7669,-0.0656 0.3146,0.1033 0.8038,0.4924 1.0472,0.7516"/>
    <path id="_197248648" class="fil0 str2" d="M127.463 78.0254c1.6762,-1.0412 2.0949,-1.1696 2.4207,-1.2434 0.139,-0.0315 0.5696,-0.0624 0.8659,0.0836 0.3984,0.1964 0.8521,0.8598 0.8521,0.8598 0.9906,-0.6166 2.4261,-1.6444 3.245,-1.5302 0.2624,0.0366 0.3476,0.1384 0.501,0.2851l0.6181 0.5957c0.419,-0.252 0.847,-0.5845 1.266,-0.8363 0.3973,-0.2738 0.6997,-0.4491 1.1549,-0.5517 0.2937,-0.04 0.5294,-0.0511 0.7169,0.1306 0.2094,0.2017 0.4271,0.4644 0.664,0.7908 0.2392,-0.1477 0.5334,-0.3653 0.7728,-0.5132 0.3859,-0.25 0.7605,-0.5029 1.2022,-0.6584 0.2807,-0.0893 0.5763,-0.1519 0.7669,-0.0655 0.3146,0.1033 0.8038,0.4924 1.0472,0.7515"/>
    <path id="_197247448" class="fil0 str2" d="M143.351 76.208c1.6761,-1.0413 2.0949,-1.1699 2.4207,-1.2436 0.1388,-0.0314 0.5695,-0.0622 0.8657,0.0837 0.3984,0.1964 0.8522,0.8598 0.8522,0.8598 0.9906,-0.6165 2.4261,-1.6443 3.245,-1.5302 0.2624,0.0367 0.3476,0.1384 0.501,0.2851l0.6181 0.5956c0.4189,-0.2519 0.847,-0.5844 1.266,-0.8363 0.3973,-0.2738 0.6997,-0.4491 1.1549,-0.5517 0.2936,-0.0399 0.5294,-0.051 0.7169,0.1306 0.2093,0.2018 0.4271,0.4644 0.6639,0.7909 0.2393,-0.1478 0.5335,-0.3654 0.7728,-0.5132 0.3859,-0.25 0.7606,-0.5029 1.2023,-0.6583 0.2807,-0.0895 0.5763,-0.1522 0.7669,-0.0657 0.3146,0.1033 0.8038,0.4924 1.0472,0.7516"/>
    <path id="_197250208" class="fil0 str2" d="M159.238 74.3905c1.6762,-1.0412 2.0949,-1.1696 2.4207,-1.2434 0.139,-0.0316 0.5696,-0.0624 0.8659,0.0836 0.3984,0.1964 0.8521,0.8598 0.8521,0.8598 0.9906,-0.6166 2.4261,-1.6444 3.245,-1.5302 0.2624,0.0366 0.3476,0.1384 0.501,0.2851l0.6181 0.5956c0.419,-0.2519 0.847,-0.5844 1.266,-0.8363 0.3973,-0.2737 0.6997,-0.4491 1.1549,-0.5516 0.2937,-0.04 0.5294,-0.0511 0.7169,0.1306 0.2094,0.2017 0.4271,0.4643 0.664,0.7908 0.2392,-0.1478 0.5334,-0.3653 0.7728,-0.5132 0.3859,-0.25 0.7605,-0.5029 1.2022,-0.6583 0.2807,-0.0894 0.5763,-0.152 0.7669,-0.0656 0.3146,0.1032 0.8038,0.4924 1.0472,0.7516"/>
    <path id="_197256568" class="fil0 str2" d="M175.127 72.5729c1.6762,-1.0414 2.0949,-1.1698 2.4207,-1.2435 0.139,-0.0315 0.5696,-0.0623 0.8659,0.0837 0.3984,0.1964 0.8521,0.8597 0.8521,0.8597 0.9906,-0.6165 2.4261,-1.6443 3.245,-1.5302 0.2624,0.0367 0.3476,0.1384 0.501,0.2851l0.6181 0.5956c0.419,-0.2519 1.3918,-0.8352 1.8108,-1.0871"/>
    <path id="_197248648_2" class="fil0 str2" d="M130.349 80.645c1.6762,-1.0413 2.0949,-1.1697 2.4207,-1.2434 0.139,-0.0315 0.5696,-0.0623 0.8659,0.0836 0.3984,0.1963 0.8521,0.8599 0.8521,0.8599 0.9906,-0.6167 2.4261,-1.6445 3.245,-1.5303 0.2624,0.0366 0.3476,0.1383 0.501,0.2852l0.6181 0.5955c0.419,-0.2519 0.847,-0.5844 1.266,-0.8362 0.3973,-0.2737 0.6997,-0.4492 1.1549,-0.5518 0.2937,-0.04 0.5294,-0.0511 0.7169,0.1307 0.2094,0.2016 0.4271,0.4643 0.664,0.7908 0.2392,-0.1478 0.5334,-0.3652 0.7728,-0.5133 0.3859,-0.2498 0.7605,-0.5028 1.2022,-0.6582 0.2807,-0.0895 0.5763,-0.1521 0.7669,-0.0655 0.3146,0.1031 0.8037,0.4922 1.0471,0.7514"/>
    <path id="_197247448_3" class="fil0 str2" d="M146.237 78.8275c1.6761,-1.0412 2.0949,-1.1698 2.4207,-1.2435 0.1389,-0.0314 0.5696,-0.0622 0.8658,0.0838 0.3984,0.1963 0.8522,0.8597 0.8522,0.8597 0.9906,-0.6166 2.4261,-1.6443 3.245,-1.5302 0.2624,0.0366 0.3476,0.1384 0.501,0.2851l0.6181 0.5955c0.4189,-0.2518 0.847,-0.5843 1.266,-0.8362 0.3973,-0.2737 0.6997,-0.449 1.1549,-0.5517 0.2936,-0.0399 0.5294,-0.051 0.7169,0.1306 0.2093,0.2018 0.4271,0.4644 0.6639,0.7909 0.2393,-0.1479 0.5335,-0.3654 0.7728,-0.5132 0.3859,-0.25 0.7606,-0.5029 1.2023,-0.6583 0.2807,-0.0895 0.5763,-0.1522 0.7669,-0.0656 0.3146,0.1032 0.8038,0.4923 1.0472,0.7514"/>
    <path id="_197250208_4" class="fil0 str2" d="M162.124 77.0101c1.6762,-1.0413 2.0949,-1.1697 2.4207,-1.2434 0.139,-0.0316 0.5696,-0.0624 0.8659,0.0836 0.3984,0.1964 0.8521,0.8598 0.8521,0.8598 0.9906,-0.6166 2.4261,-1.6444 3.245,-1.5302 0.2624,0.0366 0.3476,0.1383 0.501,0.2852l0.6181 0.5956c0.419,-0.252 0.847,-0.5846 1.266,-0.8363 0.3973,-0.2738 0.6997,-0.4492 1.1549,-0.5518 0.2937,-0.04 0.5294,-0.0511 0.7169,0.1307 0.2094,0.2017 0.4271,0.4644 0.664,0.7907 0.2392,-0.1477 0.5334,-0.3652 0.7728,-0.5132 0.3859,-0.2499 0.7605,-0.5028 1.2022,-0.6583 0.2807,-0.0894 0.5763,-0.1521 0.7669,-0.0655 0.3146,0.1032 0.8038,0.4923 1.0472,0.7515"/>
    <path id="_197256568_5" class="fil0 str2" d="M178.013 75.1925c1.6762,-1.0413 2.0949,-1.1698 2.4207,-1.2435 0.139,-0.0315 0.5696,-0.0623 0.8659,0.0837 0.3984,0.1963 0.8521,0.8597 0.8521,0.8597 0.9906,-0.6165 2.4261,-1.6443 3.245,-1.5301 0.2624,0.0366 0.3476,0.1383 0.501,0.285l0.6181 0.5957c0.419,-0.252 0.8471,-0.5844 1.2661,-0.8364 0.3972,-0.2737 0.6996,-0.449 1.1548,-0.5516 0.2937,-0.04 0.5294,-0.0511 0.7169,0.1305 0.2094,0.2018 0.4272,0.4644 0.664,0.7909 0.2392,-0.1478 0.5335,-0.3653 0.7728,-0.5132 0.3859,-0.25 0.7605,-0.5029 1.2022,-0.6582"/>
    <path id="_197251240" class="fil0 str2" d="M118.565 74.9193c0.2936,-0.04 0.5294,-0.051 0.7169,0.1307 0.2093,0.2017 0.4271,0.4643 0.6639,0.7908 0.2393,-0.1479 0.5335,-0.3653 0.7728,-0.5132 0.3859,-0.25 0.7606,-0.503 1.2023,-0.6583 0.2807,-0.0894 0.5763,-0.1521 0.7669,-0.0657 0.3146,0.1034 0.8038,0.4924 1.0472,0.7515"/>
    <path id="_197248744" class="fil0 str2" d="M123.621 75.3632c1.6761,-1.0413 2.0949,-1.1697 2.4207,-1.2435 0.1389,-0.0315 0.5696,-0.0622 0.8659,0.0837 0.3984,0.1963 0.8521,0.8598 0.8521,0.8598 0.9906,-0.6166 2.4261,-1.6444 3.245,-1.5302 0.2624,0.0366 0.3476,0.1383 0.501,0.2852l0.6181 0.5955c0.419,-0.2518 0.847,-0.5844 1.266,-0.8364 0.3973,-0.2737 0.6997,-0.449 1.1549,-0.5516 0.2936,-0.04 0.5294,-0.0511 0.7169,0.1307 0.2094,0.2016 0.4271,0.4643 0.664,0.7907 0.2392,-0.1478 0.5334,-0.3652 0.7727,-0.5132 0.3859,-0.25 0.7606,-0.5029 1.2023,-0.6582 0.2807,-0.0894 0.5763,-0.1521 0.7669,-0.0657 0.3146,0.1034 0.8038,0.4924 1.0472,0.7516"/>
    <path id="_197247472" class="fil0 str2" d="M139.509 73.5456c1.6761,-1.0413 2.0949,-1.1697 2.4206,-1.2434 0.139,-0.0315 0.5697,-0.0623 0.8659,0.0837 0.3984,0.1963 0.8522,0.8598 0.8522,0.8598 0.9906,-0.6167 2.426,-1.6445 3.2449,-1.5303 0.2624,0.0367 0.3476,0.1383 0.501,0.2852l0.618 0.5955c0.419,-0.2518 0.8471,-0.5844 1.2661,-0.8362 0.3972,-0.2738 0.6997,-0.4491 1.1549,-0.5518 0.2936,-0.0398 0.5294,-0.051 0.7169,0.1307 0.2093,0.2018 0.4271,0.4644 0.6639,0.7908 0.2393,-0.1478 0.5335,-0.3653 0.7728,-0.5131 0.3859,-0.2501 0.7606,-0.503 1.2023,-0.6584 0.2806,-0.0894 0.5763,-0.1521 0.7669,-0.0656 0.3146,0.1033 0.8038,0.4924 1.0472,0.7514"/>
    <path id="_197249104" class="fil0 str2" d="M155.396 71.7282c1.6761,-1.0412 2.0949,-1.1697 2.4207,-1.2434 0.1389,-0.0315 0.5696,-0.0623 0.8659,0.0837 0.3984,0.1963 0.8521,0.8596 0.8521,0.8596 0.9906,-0.6164 2.4261,-1.6443 3.245,-1.53 0.2624,0.0366 0.3476,0.1383 0.501,0.2851l0.6181 0.5956c0.419,-0.252 0.847,-0.5845 1.266,-0.8364 0.3973,-0.2737 0.6997,-0.4491 1.1549,-0.5516 0.2936,-0.04 0.5294,-0.0511 0.7169,0.1306 0.2094,0.2017 0.4271,0.4644 0.664,0.7908 0.2392,-0.1478 0.5334,-0.3652 0.7727,-0.5133 0.3859,-0.2499 0.7606,-0.5028 1.2023,-0.6582 0.2807,-0.0894 0.5763,-0.1521 0.7669,-0.0656 0.3146,0.1033 0.8038,0.4924 1.0472,0.7516"/>
    <path id="_194944632" class="fil0 str2" d="M171.284 69.9107c1.6762,-1.0413 2.0949,-1.1697 2.4207,-1.2435 0.139,-0.0314 0.5696,-0.0622 0.8659,0.0838 0.3984,0.1962 0.8521,0.8597 0.8521,0.8597 0.9906,-0.6166 2.4261,-1.6444 3.245,-1.5302 0.2624,0.0366 0.3476,0.1383 0.501,0.2851l0.6181 0.5956"/>
    <path id="_197257168" class="fil0 str2" d="M120.171 72.5803c1.6761,-1.0413 2.0949,-1.1697 2.4206,-1.2434 0.139,-0.0315 0.5697,-0.0624 0.8659,0.0836 0.3984,0.1964 0.8521,0.8598 0.8521,0.8598 0.9907,-0.6166 2.4262,-1.6444 3.2451,-1.5303 0.2624,0.0367 0.3476,0.1384 0.501,0.2852l0.618 0.5956c0.419,-0.2519 0.8471,-0.5845 1.2661,-0.8363 0.3972,-0.2737 0.6997,-0.449 1.1549,-0.5517 0.2936,-0.0399 0.5294,-0.051 0.7169,0.1306 0.2093,0.2017 0.4271,0.4644 0.6639,0.7909 0.2393,-0.1477 0.5335,-0.3654 0.7728,-0.5133 0.3859,-0.2499 0.7606,-0.5028 1.2023,-0.6583 0.2806,-0.0894 0.5763,-0.152 0.7669,-0.0655 0.3146,0.1032 0.8038,0.4924 1.0472,0.7515"/>
    <path id="_194951352" class="fil0 str2" d="M136.059 70.7627c1.6761,-1.0412 2.0949,-1.1697 2.4207,-1.2434 0.1389,-0.0315 0.5696,-0.0623 0.8659,0.0837 0.3983,0.1963 0.8521,0.8597 0.8521,0.8597 0.9906,-0.6165 2.4261,-1.6444 3.245,-1.5301 0.2624,0.0366 0.3476,0.1382 0.501,0.285l0.6181 0.5955c0.4189,-0.2518 0.847,-0.5843 1.266,-0.8362 0.3972,-0.2737 0.6996,-0.449 1.1548,-0.5516 0.2936,-0.04 0.5294,-0.0511 0.7169,0.1305 0.2093,0.2018 0.4271,0.4644 0.6639,0.7909 0.2393,-0.1478 0.5335,-0.3653 0.7728,-0.5133 0.3859,-0.2499 0.7606,-0.5028 1.2023,-0.6582 0.2807,-0.0895 0.5763,-0.1521 0.7669,-0.0656 0.3146,0.1032 0.8038,0.4923 1.0472,0.7515"/>
    <path id="_195127048" class="fil0 str2" d="M151.946 68.9453c1.6762,-1.0412 2.0949,-1.1697 2.4207,-1.2434 0.139,-0.0316 0.5696,-0.0624 0.8659,0.0836 0.3984,0.1964 0.8521,0.8598 0.8521,0.8598 0.9906,-0.6166 2.4261,-1.6444 3.245,-1.5303 0.2624,0.0367 0.3476,0.1385 0.501,0.2852l0.6181 0.5957c0.419,-0.252 0.847,-0.5846 1.266,-0.8365 0.3973,-0.2736 0.6997,-0.4489 1.1549,-0.5516 0.2937,-0.04 0.5294,-0.051 0.7169,0.1306 0.2094,0.2018 0.4271,0.4644 0.664,0.7909 0.2392,-0.1479 0.5334,-0.3653 0.7728,-0.5132 0.3859,-0.25 0.7605,-0.5029 1.2022,-0.6584 0.2807,-0.0893 0.5763,-0.152 0.7669,-0.0655 0.3146,0.1032 0.8038,0.4924 1.0472,0.7515"/>
    <path id="_195127240" class="fil0 str2" d="M167.834 67.1277c1.6762,-1.0412 2.0949,-1.1697 2.4207,-1.2434 0.139,-0.0314 0.5696,-0.0622 0.8659,0.0837 0.3984,0.1963 0.8521,0.8598 0.8521,0.8598"/>
    <path id="_195130888" class="fil0 str2" d="M116.643 69.7368c1.6761,-1.0412 2.0949,-1.1697 2.4206,-1.2434 0.139,-0.0315 0.5697,-0.0623 0.8659,0.0837 0.3984,0.1963 0.8521,0.8598 0.8521,0.8598 0.9907,-0.6167 2.4262,-1.6445 3.2451,-1.5303 0.2624,0.0366 0.3476,0.1383 0.501,0.2852l0.618 0.5956c0.419,-0.252 0.8471,-0.5845 1.2661,-0.8364 0.3972,-0.2737 0.6997,-0.449 1.1549,-0.5516 0.2936,-0.04 0.5294,-0.0511 0.7169,0.1306 0.2093,0.2017 0.4271,0.4643 0.6639,0.7908 0.2393,-0.1477 0.5335,-0.3653 0.7728,-0.5133 0.3859,-0.2498 0.7606,-0.5028 1.2023,-0.6582 0.2806,-0.0895 0.5763,-0.1521 0.7669,-0.0656 0.3146,0.1032 0.8038,0.4924 1.0472,0.7516"/>
    <path id="_195131080" class="fil0 str2" d="M132.531 67.9194c1.6761,-1.0413 2.0948,-1.1698 2.4206,-1.2435 0.139,-0.0315 0.5696,-0.0624 0.8659,0.0836 0.3984,0.1965 0.8521,0.8598 0.8521,0.8598 0.9907,-0.6165 2.4262,-1.6443 3.2451,-1.5302 0.2623,0.0367 0.3475,0.1384 0.501,0.2852l0.618 0.5955c0.419,-0.2519 0.8471,-0.5844 1.2661,-0.8363 0.3972,-0.2737 0.6996,-0.449 1.1549,-0.5517 0.2936,-0.0399 0.5294,-0.051 0.7169,0.1307 0.2093,0.2018 0.4271,0.4643 0.6639,0.7909 0.2392,-0.1479 0.5335,-0.3654 0.7728,-0.5133 0.3858,-0.25 0.7604,-0.5029 1.2021,-0.6583 0.2807,-0.0895 0.5764,-0.1521 0.7669,-0.0656 0.3147,0.1032 0.8038,0.4923 1.0472,0.7515"/>
    <path id="_195131272" class="fil0 str2" d="M148.419 66.1017c1.6761,-1.0412 2.0949,-1.1696 2.4206,-1.2433 0.139,-0.0316 0.5697,-0.0624 0.8659,0.0836 0.3984,0.1963 0.8521,0.8598 0.8521,0.8598 0.9907,-0.6167 2.4262,-1.6444 3.2451,-1.5303 0.2624,0.0367 0.3475,0.1384 0.501,0.2852l0.618 0.5955c0.419,-0.2519 0.8471,-0.5844 1.2661,-0.8362 0.3972,-0.2737 0.6997,-0.4491 1.1549,-0.5517 0.2936,-0.04 0.5294,-0.0511 0.7169,0.1306 0.2093,0.2017 0.4271,0.4644 0.6639,0.7908 0.2393,-0.1478 0.5335,-0.3653 0.7728,-0.5132 0.3859,-0.2499 0.7606,-0.5028 1.2023,-0.6583 0.2806,-0.0894 0.5763,-0.152 0.7669,-0.0655 0.3146,0.1032 0.8038,0.4923 1.0472,0.7515"/>
    <path id="_195132424" class="fil0 str2" d="M115.89 65.7163c0.139,-0.0316 0.3783,-0.039 0.6745,0.107 0.3984,0.1963 0.8521,0.8598 0.8521,0.8598 0.9907,-0.6167 2.4262,-1.6445 3.2451,-1.5303 0.2624,0.0366 0.3476,0.1383 0.501,0.2852l0.618 0.5956c0.419,-0.2519 0.8471,-0.5844 1.2661,-0.8363 0.3972,-0.2737 0.6997,-0.4492 1.1549,-0.5518 0.2936,-0.0399 0.5294,-0.0511 0.7169,0.1307 0.2093,0.2018 0.4271,0.4643 0.6639,0.7908 0.2393,-0.1478 0.5335,-0.3652 0.7728,-0.5132 0.3859,-0.2499 0.7606,-0.5028 1.2023,-0.6583 0.2806,-0.0894 0.5763,-0.1521 0.7669,-0.0655 0.3146,0.1031 0.8038,0.4922 1.0472,0.7514"/>
    <path id="_195132616" class="fil0 str2" d="M129.166 65.1655c1.6761,-1.0412 2.0948,-1.1697 2.4206,-1.2434 0.139,-0.0315 0.5696,-0.0623 0.8659,0.0837 0.3984,0.1964 0.8521,0.8597 0.8521,0.8597 0.9907,-0.6166 2.4261,-1.6443 3.2451,-1.5302 0.2623,0.0367 0.3475,0.1384 0.501,0.2852l0.618 0.5956c0.419,-0.252 0.8471,-0.5845 1.2661,-0.8364 0.3972,-0.2737 0.6996,-0.449 1.1549,-0.5516 0.2936,-0.0399 0.5294,-0.0511 0.7169,0.1305 0.2093,0.2019 0.4271,0.4644 0.6639,0.791 0.2392,-0.1479 0.5335,-0.3653 0.7728,-0.5133 0.3859,-0.25 0.7605,-0.5028 1.2022,-0.6583 0.2807,-0.0893 0.5764,-0.1521 0.7669,-0.0656 0.3147,0.1033 0.8038,0.4925 1.0472,0.7515"/>
    <path id="_195132808" class="fil0 str2" d="M145.053 63.348c1.6761,-1.0412 2.0948,-1.1697 2.4206,-1.2434 0.139,-0.0315 0.5696,-0.0622 0.8659,0.0837 0.3984,0.1963 0.8521,0.8598 0.8521,0.8598 0.9906,-0.6166 2.4261,-1.6445 3.245,-1.5302 0.2624,0.0366 0.3476,0.1383 0.501,0.2852l0.6181 0.5955c0.419,-0.2519 0.8471,-0.5844 1.2661,-0.8363 0.3972,-0.2738 0.6996,-0.4491 1.1548,-0.5517 0.2937,-0.04 0.5294,-0.0511 0.7169,0.1306 0.2094,0.2017 0.4271,0.4644 0.664,0.7908 0.2392,-0.1477 0.5334,-0.3652 0.7728,-0.5133"/>
    <path id="_194945784" class="fil0 str2" d="M114.928 62.0813c0.2623,0.0367 2.4705,0.2763 2.624,0.4231l0.618 0.5956c0.419,-0.2519 0.8471,-0.5845 1.2661,-0.8364 0.3972,-0.2736 0.6996,-0.449 1.1549,-0.5516 0.2936,-0.04 0.5294,-0.0511 0.7169,0.1306 0.2093,0.2017 0.4271,0.4644 0.6639,0.7909 0.2393,-0.1479 0.5335,-0.3653 0.7728,-0.5133 0.3859,-0.2499 0.7605,-0.5029 1.2022,-0.6583 0.2807,-0.0894 0.5764,-0.1521 0.767,-0.0657 0.3146,0.1034 0.8037,0.4925 1.0472,0.7517"/>
    <path id="_194945976" class="fil0 str2" d="M125.555 62.232c1.6762,-1.0414 2.0949,-1.1698 2.4207,-1.2435 0.139,-0.0315 0.5696,-0.0623 0.8659,0.0837 0.3984,0.1964 0.8521,0.8597 0.8521,0.8597 0.9906,-0.6165 2.4261,-1.6442 3.2451,-1.5301 0.2623,0.0366 0.3475,0.1384 0.5009,0.2851l0.6181 0.5955c0.419,-0.2518 0.8471,-0.5843 1.2661,-0.8362 0.3972,-0.2737 0.6996,-0.4491 1.1549,-0.5517 0.2936,-0.0399 0.5293,-0.051 0.7168,0.1306 0.2094,0.2018 0.4272,0.4644 0.664,0.7909 0.2392,-0.1479 0.5335,-0.3654 0.7728,-0.5132 0.3859,-0.2501 0.7605,-0.5029 1.2022,-0.6583 0.2807,-0.0895 0.5764,-0.1522 0.7669,-0.0656 0.3147,0.1032 0.8038,0.4922 1.0472,0.7514"/>
    <path id="_194946168" class="fil0 str2" d="M141.442 60.4145c1.6762,-1.0412 2.0949,-1.1697 2.4207,-1.2434 0.1389,-0.0315 0.5696,-0.0623 0.8659,0.0837 0.3984,0.1963 0.8521,0.8596 0.8521,0.8596 0.9905,-0.6165 2.426,-1.6443 3.2449,-1.5301 0.2624,0.0366 0.3476,0.1383 0.501,0.2852l0.6181 0.5956c0.419,-0.252 0.4559,-0.3322 0.8749,-0.5841"/>
    <path id="_194948088" class="fil0 str2" d="M114.301 59.7581l0.618 0.5956c0.419,-0.2519 0.8471,-0.5844 1.2661,-0.8363 0.3972,-0.2737 0.6996,-0.4489 1.1549,-0.5517 0.2936,-0.0398 0.5293,-0.0509 0.7168,0.1307 0.2094,0.2017 0.4272,0.4643 0.664,0.7909 0.2392,-0.1479 0.5335,-0.3654 0.7728,-0.5133 0.3859,-0.2499 0.7605,-0.5029 1.2022,-0.6583 0.2807,-0.0894 0.5764,-0.1521 0.7669,-0.0656 0.3147,0.1032 0.8038,0.4924 1.0472,0.7515"/>
    <path id="_194948280" class="fil0 str2" d="M122.304 59.4857c1.6762,-1.0412 2.0949,-1.1697 2.4207,-1.2434 0.139,-0.0315 0.5696,-0.0623 0.8659,0.0837 0.3984,0.1963 0.8521,0.8596 0.8521,0.8596 0.9906,-0.6164 2.4261,-1.6443 3.245,-1.53 0.2624,0.0366 0.3476,0.1382 0.501,0.2851l0.6181 0.5956c0.419,-0.252 0.847,-0.5845 1.266,-0.8364 0.3973,-0.2737 0.6997,-0.449 1.1549,-0.5516 0.2937,-0.04 0.5294,-0.0511 0.7169,0.1306 0.2094,0.2017 0.4271,0.4644 0.664,0.7908 0.2392,-0.1478 0.5334,-0.3652 0.7727,-0.5133 0.386,-0.25 0.7606,-0.5028 1.2023,-0.6582 0.2807,-0.0894 0.5763,-0.1521 0.7669,-0.0656 0.3146,0.1033 0.8038,0.4924 1.0472,0.7516"/>
    <path id="_194948472" class="fil0 str2" d="M138.191 57.6682c1.6761,-1.0413 2.0949,-1.1697 2.4206,-1.2434 0.139,-0.0315 0.5697,-0.0624 0.8659,0.0836 1.2363,1.0454 2.246,-0.0164 2.246,-0.0164"/>
    <path id="_194950008" class="fil0 str2" d="M113.436 56.4454c0.2936,-0.0399 1.1664,-0.2863 1.3539,-0.1047 0.2093,0.2018 0.4271,0.4644 0.6639,0.7909 0.2393,-0.1478 0.5335,-0.3653 0.7728,-0.5132 0.3859,-0.25 0.7606,-0.5029 1.2023,-0.6582 0.2806,-0.0896 0.5763,-0.1522 0.7669,-0.0657 0.3146,0.1032 0.8038,0.4923 1.0472,0.7515"/>
    <path id="_194952312" class="fil0 str2" d="M119.037 56.7302c1.6761,-1.0413 2.0948,-1.1697 2.4206,-1.2435 0.139,-0.0316 0.5696,-0.0624 0.8659,0.0836 0.3984,0.1964 0.8521,0.8598 0.8521,0.8598 0.9907,-0.6166 2.4262,-1.6443 3.2451,-1.5302 0.2623,0.0367 0.3475,0.1384 0.501,0.2852l0.618 0.5955c0.419,-0.2518 0.8471,-0.5844 1.2661,-0.8363 0.3972,-0.2738 0.6996,-0.4491 1.1549,-0.5517 0.2936,-0.0399 0.5294,-0.0511 0.7169,0.1307 0.2093,0.2017 0.4271,0.4644 0.6639,0.7907 0.2393,-0.1478 0.5335,-0.3652 0.7728,-0.5131 0.3859,-0.2499 0.7605,-0.5029 1.2022,-0.6583 0.2807,-0.0894 0.5764,-0.1521 0.7669,-0.0656 0.3147,0.1033 0.8038,0.4924 1.0472,0.7515"/>
    <path id="_195130312" class="fil0 str2" d="M112.87 54.3067c0.3859,-0.2499 1.0239,-0.7897 1.4656,-0.9451 0.2806,-0.0895 0.5763,-0.1522 0.7669,-0.0656 0.3146,0.1032 0.8038,0.4922 1.0472,0.7514"/>
    <path id="_194940024" class="fil0 str2" d="M115.944 54.1316c1.6761,-1.0412 2.0949,-1.1697 2.4206,-1.2434 0.139,-0.0316 0.5697,-0.0624 0.8659,0.0836 0.3984,0.1964 0.8521,0.8597 0.8521,0.8597 0.9907,-0.6166 2.4262,-1.6443 3.2451,-1.5302 0.2623,0.0366 0.3475,0.1384 0.501,0.2852l0.618 0.5956c0.419,-0.2519 0.8471,-0.5845 1.2661,-0.8364 0.3972,-0.2736 0.6997,-0.449 1.1549,-0.5516 0.2936,-0.0399 0.5294,-0.0511 0.7169,0.1306 0.2093,0.2017 0.4271,0.4644 0.6639,0.7908 0.2393,-0.1478 1.3559,-0.7484 1.5952,-0.8964"/>
    <path id="_194942520" class="fil0 str2" d="M111.935 50.7721c0.3147,0.1032 0.4211,0.2926 0.6645,0.5518"/>
    <path id="_194942712" class="fil0 str2" d="M112.393 51.408c1.6761,-1.0412 2.0949,-1.1696 2.4207,-1.2433 0.1389,-0.0316 0.5696,-0.0624 0.8659,0.0836 0.3984,0.1964 0.8521,0.8598 0.8521,0.8598 0.9906,-0.6167 2.4261,-1.6445 3.245,-1.5303 0.2624,0.0366 0.3476,0.1384 0.501,0.2852l0.6181 0.5956c0.419,-0.252 1.3443,-0.8061 1.7633,-1.058"/>
    <path id="_194945208" class="fil0 str2" d="M111.175 47.903c0.139,-0.0315 1.3613,-0.169 1.6575,-0.023 0.3984,0.1963 0.8522,0.8597 0.8522,0.8597 0.9906,-0.6166 2.4261,-1.6444 3.245,-1.5302 0.2624,0.0366 0.3476,0.1384 0.501,0.2852l0.618 0.5955"/>
    <line id="_197252128" class="fil0 str2" x1="130.462" y1="80.7284" x2="116.643" y2= "69.7368" />
    <line id="_197260744" class="fil0 str2" x1="134.446" y1="80.1315" x2="115.723" y2= "65.0837" />
    <line id="_197263456" class="fil0 str2" x1="138.957" y1="79.5995" x2="114.301" y2= "59.7581" />
    <line id="_197266960" class="fil0 str2" x1="142.777" y1="79.2571" x2="112.966" y2= "55.2988" />
    <line id="_197274856" class="fil0 str2" x1="146.431" y1="78.6721" x2="111.935" y2= "50.7721" />
    <line id="_197269696" class="fil0 str2" x1="150.461" y1="78.2744" x2="111.305" y2= "46.8049" />
    <line id="_197260600" class="fil0 str2" x1="154.667" y1="77.782" x2="117.359" y2= "47.7867" />
    <line id="_197260672" class="fil0 str2" x1="158.626" y1="77.2929" x2="125.177" y2= "50.4099" />
    <line id="_197269456" class="fil0 str2" x1="162.229" y1="76.8672" x2="132.373" y2= "52.8723" />
    <line id="_197266216" class="fil0 str2" x1="166.041" y1="76.3617" x2="139.93" y2= "55.3771" />
    <line id="_197274496" class="fil0 str2" x1="170.345" y1="75.7825" x2="148.231" y2= "58.0093" />
    <line id="_197275408" class="fil0 str2" x1="174.314" y1="75.3889" x2="156.407" y2= "60.9975" />
    <line id="_197271160" class="fil0 str2" x1="178.188" y1="74.9289" x2="163.554" y2= "63.1681" />
    <line id="_197251720" class="fil0 str2" x1="181.942" y1="74.3751" x2="171.121" y2= "65.968" />
    <line id="_197271376" class="fil0 str2" x1="186.211" y1="73.8676" x2="179.331" y2= "68.5635" />
   </g>
   <path id="_197247352_0" class="fil0 str2" d="M94.3004 77.6094c-0.4298,-0.2402 -0.8688,-0.5607 -1.2986,-0.8008 -0.4076,-0.2625 -0.7178,-0.4293 -1.1847,-0.5191 -0.3012,-0.0317 -0.543,-0.0362 -0.7354,0.1508 -0.2148,0.2077 -0.4381,0.4764 -0.6811,0.8095 -0.2454,-0.1411 -0.5471,-0.3503 -0.7926,-0.4914 -0.3958,-0.2391 -0.7802,-0.4815 -1.2333,-0.6245 -0.2879,-0.0815 -0.5911,-0.1358 -0.7867,-0.044 -0.3227,0.1121 -0.8245,0.515 -1.0741,0.7811"/>
   <path id="_197247352_1_0" class="fil0 str2" d="M91.5468 80.3134c-0.4298,-0.2401 -0.8688,-0.5607 -1.2986,-0.8008 -0.4076,-0.2625 -0.7178,-0.4292 -1.1847,-0.5191 -0.3012,-0.0316 -0.543,-0.0361 -0.7354,0.1509 -0.2148,0.2075 -0.4381,0.4764 -0.6811,0.8094 -0.2454,-0.1411 -0.5471,-0.3503 -0.7926,-0.4915 -0.3958,-0.239 -0.7802,-0.4814 -1.2333,-0.6244 -0.2879,-0.0815 -0.5911,-0.1358 -0.7867,-0.044 -0.3227,0.1121 -0.8245,0.515 -1.0741,0.781"/>
   <path id="_197247352_2" class="fil0 str2" d="M98.9939 80.8892c-0.4298,-0.2401 -0.8688,-0.5606 -1.2986,-0.8007 -0.4076,-0.2626 -0.7178,-0.4293 -1.1847,-0.5192 -0.3012,-0.0315 -0.543,-0.036 -0.7354,0.1509 -0.2148,0.2076 -0.4381,0.4765 -0.6811,0.8095 -0.2454,-0.1411 -0.5471,-0.3503 -0.7926,-0.4915 -0.3958,-0.239 -0.7802,-0.4815 -1.2333,-0.6244 -0.2879,-0.0815 -0.5911,-0.1358 -0.7867,-0.0441 -0.3227,0.1122 -0.8245,0.5151 -1.0741,0.7811"/>
   <path id="_197247352_3" class="fil0 str2" d="M101.999 78.3569c-0.4298,-0.2401 -0.8688,-0.5606 -1.2986,-0.8007 -0.4076,-0.2626 -0.7178,-0.4293 -1.1847,-0.5192 -0.3012,-0.0316 -0.543,-0.036 -0.7354,0.151 -0.2148,0.2075 -0.4381,0.4763 -0.6811,0.8094 -0.2454,-0.1411 -0.5471,-0.3503 -0.7926,-0.4915 -0.3958,-0.239 -0.7802,-0.4815 -1.2333,-0.6245 -0.2879,-0.0814 -0.5911,-0.1357 -0.7867,-0.044 -0.3227,0.1122 -0.8245,0.5151 -1.0741,0.7811"/>
   <path id="_197247352_4" class="fil0 str2" d="M109.754 79.0757c-0.4298,-0.2401 -0.8688,-0.5607 -1.2986,-0.8008 -0.4076,-0.2625 -0.7178,-0.4292 -1.1847,-0.5191 -0.3012,-0.0316 -0.543,-0.0361 -0.7354,0.1509 -0.2148,0.2075 -0.4381,0.4764 -0.6811,0.8095 -0.2454,-0.1412 -0.5471,-0.3503 -0.7926,-0.4916 -0.3958,-0.2389 -0.7802,-0.4814 -1.2333,-0.6244 -0.2879,-0.0815 -0.5911,-0.1358 -0.7867,-0.044 -0.3227,0.1121 -0.8245,0.5151 -1.0741,0.7811"/>
   <path id="_197247352_5" class="fil0 str2" d="M111.584 78.319c-0.2879,-0.0815 -0.5911,-0.1358 -0.7867,-0.0441 -0.3227,0.1122 -0.8245,0.5152 -1.0741,0.7811"/>
   <path id="_197247352_6" class="fil0 str2" d="M102.078 75.2317c-0.4298,-0.2402 -0.8688,-0.5606 -1.2986,-0.8007 -0.4076,-0.2626 -0.7178,-0.4294 -1.1847,-0.5192 -0.3012,-0.0316 -0.543,-0.0361 -0.7354,0.1509 -0.2148,0.2076 -0.4381,0.4764 -0.6811,0.8095 -0.2454,-0.1411 -0.5471,-0.3503 -0.7926,-0.4915 -0.3958,-0.2391 -0.7802,-0.4815 -1.2333,-0.6245 -0.2879,-0.0814 -0.5911,-0.1357 -0.7867,-0.044 -0.3227,0.1122 -0.8245,0.5151 -1.0741,0.7811"/>
   <path id="_197247352_7" class="fil0 str2" d="M109.776 75.9618c-0.4298,-0.2401 -0.8688,-0.5606 -1.2986,-0.8007 -0.4076,-0.2626 -0.7178,-0.4293 -1.1847,-0.5192 -0.3012,-0.0315 -0.543,-0.036 -0.7354,0.1509 -0.2148,0.2076 -0.4381,0.4764 -0.6811,0.8095 -0.2454,-0.1411 -0.5471,-0.3503 -0.7926,-0.4915 -0.3958,-0.239 -0.7802,-0.4815 -1.2333,-0.6245 -0.2879,-0.0814 -0.5911,-0.1357 -0.7867,-0.044 -0.3227,0.1122 -0.8245,0.5151 -1.0741,0.7811"/>
   <path id="_197247352_8" class="fil0 str2" d="M110.761 75.1725c-0.3227,0.1121 -0.8245,0.5151 -1.0741,0.7811"/>
   <path id="_197247352_9" class="fil0 str2" d="M101.728 71.9617c-0.4298,-0.2401 -0.8688,-0.5606 -1.2986,-0.8007 -0.4076,-0.2626 -0.7178,-0.4293 -1.1847,-0.5192 -0.3012,-0.0316 -0.543,-0.0361 -0.7354,0.1509 -0.2148,0.2076 -0.4381,0.4764 -0.6811,0.8095 -0.2454,-0.1412 -0.5471,-0.3503 -0.7926,-0.4915 -0.3958,-0.239 -0.7802,-0.4815 -1.2333,-0.6245 -0.2879,-0.0814 -0.5911,-0.1358 -0.7867,-0.044 -0.3227,0.1122 -0.8245,0.5151 -1.0741,0.7811"/>
   <path id="_197247352_10" class="fil0 str2" d="M109.496 72.6182c-0.4298,-0.2402 -0.8688,-0.5606 -1.2986,-0.8008 -0.4076,-0.2625 -0.7178,-0.4293 -1.1847,-0.5191 -0.3012,-0.0317 -0.543,-0.0362 -0.7354,0.1508 -0.2148,0.2077 -0.4381,0.4764 -0.6811,0.8096 -0.2454,-0.1412 -0.5471,-0.3503 -0.7926,-0.4915 -0.3958,-0.2391 -0.7802,-0.4815 -1.2333,-0.6245 -0.2879,-0.0815 -0.5911,-0.1358 -0.7867,-0.044 -0.3227,0.1121 -0.8245,0.5151 -1.0741,0.7811"/>
   <path id="_197247352_11" class="fil0 str2" d="M105.658 69.056c-0.4298,-0.2402 -0.8688,-0.5607 -1.2986,-0.8008 -0.4076,-0.2625 -0.7178,-0.4293 -1.1847,-0.5191 -0.3012,-0.0317 -0.543,-0.0362 -0.7354,0.1508 -0.2148,0.2077 -0.4381,0.4764 -0.6811,0.8095 -0.2454,-0.1411 -0.5471,-0.3503 -0.7926,-0.4915 -0.3958,-0.239 -0.7802,-0.4814 -1.2333,-0.6244 -0.2879,-0.0815 -0.5911,-0.1359 -0.7867,-0.0441 -0.3227,0.1122 -0.8245,0.5151 -1.0741,0.7811"/>
   <path id="_197247352_12" class="fil0 str2" d="M109.412 69.4667c-0.2454,-0.1412 -0.5471,-0.3504 -0.7926,-0.4916 -0.3958,-0.239 -0.7802,-0.4814 -1.2333,-0.6244 -0.2879,-0.0815 -0.5911,-0.1358 -0.7867,-0.044 -0.3227,0.1121 -0.8245,0.515 -1.0741,0.7811"/>
   <path id="_197247352_13" class="fil0 str2" d="M104.606 65.9675c-0.4298,-0.2402 -0.8688,-0.5607 -1.2986,-0.8008 -0.4076,-0.2625 -0.7178,-0.4293 -1.1847,-0.5191 -0.3012,-0.0317 -0.543,-0.0361 -0.7354,0.1509 -0.2148,0.2075 -0.4381,0.4763 -0.6811,0.8095 -0.2454,-0.1412 -0.5471,-0.3503 -0.7926,-0.4916 -0.3958,-0.239 -0.7802,-0.4814 -1.2333,-0.6245 -0.2879,-0.0814 -0.5911,-0.1357 -0.7867,-0.0439 -0.3227,0.1121 -0.8245,0.515 -1.0741,0.781"/>
   <path id="_197247352_14" class="fil0 str2" d="M108.444 66.2488c-0.2454,-0.1411 -0.5471,-0.3503 -0.7926,-0.4915 -0.3958,-0.239 -0.7802,-0.4814 -1.2333,-0.6244 -0.2879,-0.0815 -0.5911,-0.1359 -0.7867,-0.0441 -0.3227,0.1122 -0.8245,0.5151 -1.0741,0.7811"/>
   <path id="_197247352_15" class="fil0 str2" d="M103.978 62.3712c-0.4298,-0.2401 -0.8688,-0.5606 -1.2986,-0.8007 -0.4076,-0.2626 -0.7178,-0.4293 -1.1847,-0.5192 -0.3012,-0.0316 -0.543,-0.0361 -0.7354,0.1509 -0.2148,0.2076 -0.4381,0.4764 -0.6811,0.8095 -0.2454,-0.1412 -0.5471,-0.3504 -0.7926,-0.4915 -0.3958,-0.2391 -0.7802,-0.4814 -1.2333,-0.6245 -0.2879,-0.0814 -0.5911,-0.1358 -0.7867,-0.044 -0.3227,0.1122 -0.8245,0.5151 -1.0741,0.7811"/>
   <path id="_197247352_16" class="fil0 str2" d="M107.741 62.7365c-0.2454,-0.1412 -0.5471,-0.3503 -0.7926,-0.4915 -0.3958,-0.239 -0.7802,-0.4815 -1.2333,-0.6244 -0.2879,-0.0815 -0.5911,-0.1359 -0.7867,-0.0441 -0.3227,0.1122 -0.8245,0.5151 -1.0741,0.7811"/>
   <path id="_197247352_17" class="fil0 str2" d="M107.107 59.4254c-0.4298,-0.2402 -0.8688,-0.5606 -1.2986,-0.8007 -0.4076,-0.2626 -0.7178,-0.4294 -1.1847,-0.5192 -0.3012,-0.0316 -0.543,-0.0362 -0.7354,0.1509 -0.2148,0.2076 -0.4381,0.4764 -0.6811,0.8095 -0.2454,-0.1411 -0.5471,-0.3503 -0.7926,-0.4915 -0.3958,-0.2391 -0.7802,-0.4815 -1.2333,-0.6245 -0.2879,-0.0815 -0.5911,-0.1357 -0.7867,-0.044 -0.3227,0.1121 -0.8245,0.5151 -1.0741,0.7811"/>
   <path id="_197247352_18" class="fil0 str2" d="M106.578 56.3894c-0.4298,-0.2402 -0.8688,-0.5606 -1.2986,-0.8007 -0.4076,-0.2626 -0.7178,-0.4294 -1.1847,-0.5192 -0.3012,-0.0316 -0.543,-0.0362 -0.7354,0.1508 -0.2148,0.2077 -0.4381,0.4765 -0.6811,0.8096 -0.2454,-0.1411 -0.5471,-0.3504 -0.7926,-0.4915 -0.3958,-0.2391 -0.7802,-0.4815 -1.2333,-0.6245 -0.2879,-0.0815 -0.5911,-0.1358 -0.7867,-0.044 -0.3227,0.1121 -0.8245,0.5151 -1.0741,0.7811"/>
   <path id="_197247352_19" class="fil0 str2" d="M105.345 53.1917c-0.2454,-0.1411 -0.5471,-0.3502 -0.7926,-0.4915 -0.3958,-0.239 -0.7802,-0.4814 -1.2333,-0.6245 -0.2879,-0.0814 -0.5911,-0.1357 -0.7867,-0.0439 -0.3227,0.1121 -0.8245,0.515 -1.0741,0.781"/>
   <path id="_197247352_20" class="fil0 str2" d="M104.813 49.4225c-0.288,-0.0814 -1.529,-0.4951 -1.7246,-0.4033 -0.3227,0.1122 -0.8245,0.5151 -1.0741,0.7811"/>
   <path id="_197247352_21" class="fil0 str2" d="M106.441 81.4651c-0.4298,-0.2401 -0.8688,-0.5606 -1.2986,-0.8007 -0.4076,-0.2626 -0.7178,-0.4293 -1.1847,-0.5192 -0.3012,-0.0316 -0.543,-0.0361 -0.7354,0.1509 -0.2148,0.2076 -0.4381,0.4764 -0.6811,0.8095 -0.2454,-0.1412 -0.5471,-0.3503 -0.7926,-0.4915 -0.3958,-0.239 -0.7802,-0.4815 -1.2333,-0.6245 -0.2879,-0.0814 -0.5911,-0.1358 -0.7867,-0.044 -0.3227,0.1122 -0.8245,0.5151 -1.0741,0.7811"/>
   <path id="_197247352_22" class="fil0 str2" d="M112.194 80.8607c-0.3011,-0.0317 -1.3317,-0.1757 -1.5241,0.0113 -0.2148,0.2076 -0.4381,0.4764 -0.6811,0.8095 -0.2454,-0.1412 -0.5471,-0.3503 -0.7926,-0.4916 -0.3958,-0.239 -0.7802,-0.4814 -1.2333,-0.6244 -0.2879,-0.0814 -0.5911,-0.1358 -0.7867,-0.044 -0.3227,0.1122 -0.8245,0.5151 -1.0741,0.781"/>
   <path id="_197248648_23" class="fil0 str2" d="M86.6309 76.8757c-1.7194,-0.9941 -2.1489,-1.1108 -2.4831,-1.1753 -0.1426,-0.0277 -0.5843,-0.0464 -0.8882,0.108 -0.4087,0.2076 -0.8741,0.8838 -0.8741,0.8838 -1.0161,-0.5887 -2.4886,-1.5761 -3.3286,-1.4389 -0.2692,0.044 -0.3566,0.1481 -0.5139,0.2992l-0.6341 0.613c-0.4298,-0.24 -0.8688,-0.5606 -1.2986,-0.8006 -0.4075,-0.2626 -0.7177,-0.4294 -1.1846,-0.5192 -0.3013,-0.0317 -0.5431,-0.0362 -0.7354,0.1508 -0.2148,0.2076 -0.4381,0.4764 -0.6811,0.8095 -0.2454,-0.141 -0.5472,-0.3502 -0.7928,-0.4915 -0.3958,-0.239 -0.7801,-0.4814 -1.2331,-0.6244 -0.288,-0.0816 -0.5912,-0.1359 -0.7867,-0.044 -0.3227,0.1121 -0.8245,0.515 -1.0742,0.781"/>
   <path id="_197247448_24" class="fil0 str2" d="M70.3334 75.5054c-1.7193,-0.994 -2.1489,-1.1108 -2.4831,-1.1754 -0.1425,-0.0275 -0.5843,-0.0462 -0.8881,0.1082 -0.4087,0.2075 -0.8742,0.8836 -0.8742,0.8836 -1.0161,-0.5886 -2.4886,-1.576 -3.3286,-1.4388 -0.2692,0.0441 -0.3566,0.1482 -0.5139,0.2993l-0.634 0.6129c-0.4297,-0.2401 -0.8689,-0.5606 -1.2987,-0.8007 -0.4075,-0.2625 -0.7177,-0.4292 -1.1846,-0.5191 -0.3012,-0.0316 -0.5431,-0.0361 -0.7354,0.1507 -0.2147,0.2077 -0.4381,0.4765 -0.681,0.8097 -0.2455,-0.1412 -0.5473,-0.3504 -0.7927,-0.4916 -0.3959,-0.239 -0.7802,-0.4814 -1.2333,-0.6244 -0.288,-0.0815 -0.5912,-0.1359 -0.7867,-0.044 -0.3227,0.1121 -0.8245,0.515 -1.0742,0.7809"/>
   <path id="_197250208_25" class="fil0 str2" d="M54.0369 74.1352c-1.7194,-0.9941 -2.1488,-1.1108 -2.483,-1.1753 -0.1426,-0.0276 -0.5843,-0.0463 -0.8883,0.108 -0.4086,0.2076 -0.874,0.8838 -0.874,0.8838 -1.0162,-0.5887 -2.4887,-1.5761 -3.3287,-1.4389 -0.2691,0.044 -0.3565,0.1481 -0.5139,0.2992l-0.634 0.613c-0.4298,-0.2401 -0.8688,-0.5605 -1.2986,-0.8006 -0.4076,-0.2625 -0.7178,-0.4294 -1.1847,-0.5192 -0.3013,-0.0317 -0.543,-0.0361 -0.7354,0.1508 -0.2148,0.2076 -0.4381,0.4764 -0.6811,0.8095 -0.2454,-0.141 -0.5471,-0.3502 -0.7927,-0.4915 -0.3959,-0.239 -0.7801,-0.4813 -1.2332,-0.6244 -0.2879,-0.0815 -0.5911,-0.1358 -0.7867,-0.0439 -0.3227,0.112 -0.8245,0.5149 -1.0741,0.7809"/>
   <path id="_197256568_26" class="fil0 str2" d="M37.7384 72.7648c-1.7194,-0.9942 -2.1489,-1.1108 -2.4831,-1.1753 -0.1425,-0.0276 -0.5842,-0.0463 -0.8882,0.1081 -0.4086,0.2075 -0.874,0.8837 -0.874,0.8837 -1.0162,-0.5887 -2.1381,-1.5768 -2.9781,-1.4396 -0.2691,0.0441 -0.46,0.3299 -0.6174,0.4809l-0.8811 0.432c-0.4298,-0.2401 -1.9966,-1.1456 -2.4264,-1.3857"/>
   <path id="_197248648_2_27" class="fil0 str2" d="M83.6705 79.5765c-1.7194,-0.9942 -2.1489,-1.1108 -2.4831,-1.1753 -0.1426,-0.0277 -0.5843,-0.0463 -0.8882,0.108 -0.4087,0.2076 -0.8741,0.8838 -0.8741,0.8838 -1.0161,-0.5887 -2.4886,-1.5761 -3.3286,-1.4389 -0.2692,0.044 -0.3565,0.1482 -0.5139,0.2993l-0.634 0.613c-0.4298,-0.2401 -0.8689,-0.5607 -1.2987,-0.8007 -0.4075,-0.2626 -0.7177,-0.4294 -1.1846,-0.5192 -0.3013,-0.0317 -0.5431,-0.0362 -0.7354,0.1508 -0.2148,0.2077 -0.4381,0.4765 -0.6811,0.8095 -0.2454,-0.141 -0.5472,-0.3502 -0.7927,-0.4915 -0.3959,-0.239 -0.7801,-0.4814 -1.2332,-0.6244 -0.288,-0.0815 -0.5912,-0.1359 -0.7867,-0.044 -0.3227,0.1122 -0.8245,0.5151 -1.0742,0.781"/>
   <path id="_197247448_3_28" class="fil0 str2" d="M67.373 78.2062c-1.7193,-0.994 -2.1489,-1.1108 -2.4831,-1.1753 -0.1424,-0.0276 -0.5842,-0.0462 -0.8881,0.1081 -0.4086,0.2075 -0.8741,0.8837 -0.8741,0.8837 -1.0162,-0.5887 -2.4887,-1.5761 -3.3287,-1.4388 -0.2691,0.044 -0.3565,0.1481 -0.5139,0.2992l-0.634 0.6129c-0.4297,-0.2401 -0.8689,-0.5606 -1.2987,-0.8006 -0.4075,-0.2625 -0.7177,-0.4293 -1.1846,-0.5192 -0.3012,-0.0316 -0.5431,-0.0361 -0.7354,0.1507 -0.2147,0.2078 -0.4381,0.4765 -0.681,0.8096 -0.2455,-0.1411 -0.5473,-0.3503 -0.7927,-0.4914 -0.3959,-0.2391 -0.7802,-0.4815 -1.2333,-0.6244 -0.2879,-0.0816 -0.5912,-0.136 -0.7867,-0.0441 -0.3227,0.1121 -0.8245,0.515 -1.0742,0.781"/>
   <path id="_197250208_4_29" class="fil0 str2" d="M51.0766 76.836c-1.7194,-0.9941 -2.1489,-1.1108 -2.4831,-1.1753 -0.1426,-0.0276 -0.5843,-0.0463 -0.8882,0.108 -0.4087,0.2076 -0.8741,0.8838 -0.8741,0.8838 -1.0161,-0.5887 -2.4886,-1.5761 -3.3286,-1.4388 -0.2692,0.0439 -0.3566,0.1481 -0.514,0.2992l-0.634 0.6129c-0.4298,-0.24 -0.8688,-0.5605 -1.2986,-0.8006 -0.4076,-0.2625 -0.7177,-0.4294 -1.1847,-0.5192 -0.3012,-0.0316 -0.543,-0.0362 -0.7354,0.1508 -0.2148,0.2076 -0.4381,0.4765 -0.6811,0.8095 -0.2453,-0.141 -0.5471,-0.3502 -0.7927,-0.4915 -0.3958,-0.239 -0.7801,-0.4813 -1.2332,-0.6244 -0.2879,-0.0815 -0.5911,-0.1358 -0.7866,-0.0439 -0.3227,0.112 -0.8246,0.515 -1.0742,0.7809"/>
   <path id="_197256568_5_30" class="fil0 str2" d="M34.778 75.4656c-1.7194,-0.9941 -2.1488,-1.1107 -2.483,-1.1753 -0.1426,-0.0276 -0.5843,-0.0462 -0.8883,0.1081 -0.4086,0.2075 -0.874,0.8837 -0.874,0.8837 -1.0162,-0.5887 -2.4886,-1.5761 -3.3287,-1.4388 -0.2691,0.044 -0.3565,0.1481 -0.5139,0.2992l-0.634 0.6129c-0.4298,-0.2401 -0.8689,-0.5605 -1.2987,-0.8006 -0.4075,-0.2626 -0.7177,-0.4294 -1.1846,-0.5191 -0.3013,-0.0317 -0.543,-0.0362 -0.7354,0.1507 -0.2148,0.2077 -0.4382,0.4763 -0.6811,0.8096 -0.2453,-0.1411 -0.5472,-0.3504 -0.7927,-0.4915 -0.3958,-0.2392 -0.7801,-0.4815 -1.2332,-0.6244"/>
   <path id="_197251240_31" class="fil0 str2" d="M94.3419 74.4794c-0.2454,-0.1411 -0.5472,-0.3502 -0.7927,-0.4915 -0.3958,-0.2391 -0.7802,-0.4815 -1.2333,-0.6245 -0.2879,-0.0814 -0.5911,-0.1358 -0.7866,-0.044 -0.3227,0.1122 -0.8245,0.5151 -1.0742,0.781"/>
   <path id="_197248744_32" class="fil0 str2" d="M90.5721 74.1052c-1.7193,-0.994 -2.1489,-1.1106 -2.4831,-1.1753 -0.1424,-0.0275 -0.5842,-0.0462 -0.8882,0.108 -0.4087,0.2077 -0.874,0.8838 -0.874,0.8838 -1.0162,-0.5886 -2.4887,-1.576 -3.3287,-1.4388 -0.2691,0.044 -0.3565,0.1481 -0.5139,0.2993l-0.634 0.613c-0.4298,-0.2402 -0.8689,-0.5607 -1.2987,-0.8008 -0.4075,-0.2625 -0.7177,-0.4294 -1.1846,-0.5191 -0.3012,-0.0318 -0.5431,-0.0362 -0.7354,0.1508 -0.2148,0.2076 -0.4381,0.4764 -0.6811,0.8096 -0.2454,-0.1412 -0.5472,-0.3504 -0.7926,-0.4915 -0.3959,-0.2392 -0.7802,-0.4815 -1.2333,-0.6245 -0.2879,-0.0815 -0.5912,-0.1358 -0.7867,-0.0441 -0.3227,0.1122 -0.8245,0.5151 -1.0742,0.7812"/>
   <path id="_197247472_33" class="fil0 str2" d="M74.2744 72.735c-1.7193,-0.9942 -2.1489,-1.1108 -2.483,-1.1753 -0.1425,-0.0276 -0.5843,-0.0463 -0.8882,0.108 -0.4086,0.2075 -0.8741,0.8837 -0.8741,0.8837 -1.0162,-0.5887 -2.4887,-1.5761 -3.3287,-1.4389 -0.2691,0.0441 -0.3565,0.1482 -0.5139,0.2993l-0.6339 0.613c-0.4298,-0.2401 -0.8689,-0.5605 -1.2987,-0.8007 -0.4075,-0.2625 -0.7178,-0.4293 -1.1847,-0.5192 -0.3012,-0.0316 -0.5431,-0.0361 -0.7354,0.1508 -0.2147,0.2077 -0.4381,0.4764 -0.681,0.8097 -0.2455,-0.1411 -0.5473,-0.3504 -0.7927,-0.4915 -0.3959,-0.2392 -0.7802,-0.4815 -1.2333,-0.6245 -0.2878,-0.0816 -0.5912,-0.1359 -0.7867,-0.044 -0.3227,0.112 -0.8245,0.5149 -1.0742,0.781"/>
   <path id="_197249104_34" class="fil0 str2" d="M57.978 71.3648c-1.7193,-0.9941 -2.1489,-1.1108 -2.4831,-1.1754 -0.1425,-0.0276 -0.5843,-0.0462 -0.8882,0.1081 -0.4087,0.2076 -0.8741,0.8837 -0.8741,0.8837 -1.0161,-0.5886 -2.4886,-1.576 -3.3286,-1.4388 -0.2692,0.044 -0.3566,0.1481 -0.514,0.2993l-0.634 0.6129c-0.4298,-0.2401 -0.8688,-0.5606 -1.2986,-0.8007 -0.4075,-0.2625 -0.7177,-0.4294 -1.1847,-0.5191 -0.3011,-0.0317 -0.543,-0.0362 -0.7354,0.1508 -0.2147,0.2076 -0.4381,0.4764 -0.6811,0.8095 -0.2453,-0.1411 -0.5471,-0.3503 -0.7926,-0.4914 -0.3958,-0.2392 -0.7802,-0.4816 -1.2333,-0.6245 -0.2879,-0.0815 -0.5911,-0.1358 -0.7866,-0.0441 -0.3227,0.1122 -0.8246,0.5151 -1.0742,0.7811"/>
   <path id="_194944632_35" class="fil0 str2" d="M41.6805 69.9944c-1.7194,-0.994 -2.1489,-1.1107 -2.4831,-1.1752 -0.1426,-0.0277 -0.5843,-0.0463 -0.8882,0.108 -0.4087,0.2075 -0.8741,0.8837 -0.8741,0.8837 -1.0161,-0.5886 -2.4886,-1.576 -3.3286,-1.4389 -0.2692,0.044 -0.3566,0.1482 -0.5139,0.2993l-0.6341 0.613"/>
   <path id="_197257168_36" class="fil0 str2" d="M94.1112 71.2252c-1.7193,-0.994 -2.1488,-1.1107 -2.4829,-1.1752 -0.1426,-0.0277 -0.5844,-0.0463 -0.8883,0.108 -0.4086,0.2075 -0.874,0.8838 -0.874,0.8838 -1.0163,-0.5888 -2.4888,-1.5762 -3.3288,-1.4389 -0.2691,0.044 -0.3565,0.1481 -0.5139,0.2992l-0.6339 0.613c-0.4298,-0.2401 -0.8689,-0.5606 -1.2987,-0.8007 -0.4075,-0.2625 -0.7178,-0.4293 -1.1847,-0.5192 -0.3012,-0.0316 -0.543,-0.0361 -0.7354,0.1509 -0.2147,0.2076 -0.4381,0.4764 -0.681,0.8094 -0.2455,-0.141 -0.5472,-0.3502 -0.7927,-0.4914 -0.3958,-0.239 -0.7802,-0.4814 -1.2333,-0.6244 -0.2878,-0.0815 -0.5911,-0.1359 -0.7867,-0.044 -0.3227,0.1121 -0.8245,0.515 -1.0741,0.781"/>
   <path id="_194951352_37" class="fil0 str2" d="M77.8133 69.855c-1.7193,-0.9942 -2.1488,-1.1109 -2.483,-1.1754 -0.1425,-0.0275 -0.5843,-0.0462 -0.8883,0.1081 -0.4085,0.2075 -0.874,0.8837 -0.874,0.8837 -1.0162,-0.5886 -2.4887,-1.576 -3.3287,-1.4388 -0.2691,0.044 -0.3565,0.1481 -0.5139,0.2992l-0.634 0.613c-0.4297,-0.2402 -0.8688,-0.5606 -1.2986,-0.8006 -0.4076,-0.2626 -0.7178,-0.4294 -1.1847,-0.5193 -0.3012,-0.0316 -0.543,-0.0361 -0.7354,0.1508 -0.2147,0.2077 -0.4381,0.4764 -0.681,0.8095 -0.2455,-0.141 -0.5472,-0.3503 -0.7927,-0.4914 -0.3958,-0.2392 -0.7802,-0.4815 -1.2333,-0.6244 -0.2879,-0.0816 -0.5911,-0.1359 -0.7867,-0.0441 -0.3227,0.1121 -0.8245,0.515 -1.0741,0.781"/>
   <path id="_195127048_38" class="fil0 str2" d="M61.5169 68.4847c-1.7194,-0.9941 -2.1489,-1.1107 -2.4831,-1.1753 -0.1426,-0.0276 -0.5843,-0.0463 -0.8882,0.108 -0.4087,0.2076 -0.8741,0.8838 -0.8741,0.8838 -1.0161,-0.5887 -2.4886,-1.5761 -3.3286,-1.4389 -0.2692,0.0441 -0.3566,0.1482 -0.5139,0.2994l-0.6341 0.6129c-0.4298,-0.2401 -0.8688,-0.5607 -1.2986,-0.8007 -0.4075,-0.2626 -0.7177,-0.4294 -1.1847,-0.5192 -0.3012,-0.0317 -0.543,-0.0361 -0.7353,0.1508 -0.2148,0.2077 -0.4381,0.4764 -0.6811,0.8095 -0.2454,-0.1411 -0.5472,-0.3502 -0.7928,-0.4915 -0.3958,-0.2389 -0.7801,-0.4814 -1.2332,-0.6244 -0.2879,-0.0814 -0.5911,-0.1359 -0.7866,-0.044 -0.3227,0.1122 -0.8245,0.5151 -1.0742,0.781"/>
   <path id="_195127240_39" class="fil0 str2" d="M45.2194 67.1143c-1.7194,-0.9941 -2.1489,-1.1107 -2.4831,-1.1752 -0.1426,-0.0275 -0.5843,-0.0462 -0.8882,0.1081 -0.4087,0.2075 -0.8741,0.8837 -0.8741,0.8837"/>
   <path id="_195130888_40" class="fil0 str2" d="M97.7299 68.2825c-1.7193,-0.9941 -2.1489,-1.1107 -2.483,-1.1753 -0.1426,-0.0276 -0.5844,-0.0463 -0.8882,0.108 -0.4087,0.2076 -0.8741,0.8838 -0.8741,0.8838 -1.0162,-0.5887 -2.4887,-1.5761 -3.3287,-1.4389 -0.2692,0.044 -0.3566,0.1481 -0.514,0.2993l-0.6339 0.613c-0.4298,-0.2402 -0.8689,-0.5607 -1.2987,-0.8007 -0.4074,-0.2626 -0.7177,-0.4294 -1.1847,-0.5192 -0.3011,-0.0317 -0.543,-0.0362 -0.7354,0.1508 -0.2146,0.2076 -0.4381,0.4764 -0.681,0.8095 -0.2454,-0.141 -0.5472,-0.3503 -0.7927,-0.4915 -0.3958,-0.239 -0.7802,-0.4814 -1.2333,-0.6244 -0.2878,-0.0815 -0.5911,-0.1359 -0.7866,-0.044 -0.3227,0.1122 -0.8246,0.515 -1.0742,0.781"/>
   <path id="_195131080_41" class="fil0 str2" d="M81.4326 66.9123c-1.7193,-0.9942 -2.1488,-1.1109 -2.483,-1.1754 -0.1426,-0.0276 -0.5843,-0.0462 -0.8882,0.1081 -0.4087,0.2076 -0.8741,0.8837 -0.8741,0.8837 -1.0162,-0.5887 -2.4887,-1.576 -3.3287,-1.4388 -0.2691,0.044 -0.3565,0.1482 -0.5139,0.2991l-0.634 0.613c-0.4298,-0.2401 -0.8689,-0.5605 -1.2987,-0.8006 -0.4074,-0.2626 -0.7176,-0.4293 -1.1847,-0.5192 -0.3011,-0.0316 -0.543,-0.0361 -0.7353,0.1508 -0.2147,0.2077 -0.4381,0.4764 -0.681,0.8096 -0.2454,-0.1412 -0.5473,-0.3504 -0.7928,-0.4915 -0.3958,-0.2391 -0.7801,-0.4815 -1.2331,-0.6245 -0.288,-0.0814 -0.5913,-0.1359 -0.7867,-0.044 -0.3228,0.1121 -0.8245,0.515 -1.0742,0.781"/>
   <path id="_195131272_42" class="fil0 str2" d="M65.1348 65.5419c-1.7193,-0.9941 -2.1489,-1.1108 -2.483,-1.1752 -0.1426,-0.0277 -0.5844,-0.0464 -0.8882,0.1079 -0.4087,0.2076 -0.8741,0.8838 -0.8741,0.8838 -1.0162,-0.5887 -2.4887,-1.5761 -3.3287,-1.4389 -0.2692,0.044 -0.3565,0.1482 -0.5139,0.2993l-0.634 0.613c-0.4298,-0.2402 -0.8689,-0.5607 -1.2987,-0.8007 -0.4074,-0.2625 -0.7177,-0.4295 -1.1847,-0.5192 -0.3011,-0.0317 -0.543,-0.0362 -0.7353,0.1508 -0.2147,0.2077 -0.4381,0.4764 -0.681,0.8095 -0.2455,-0.1411 -0.5473,-0.3503 -0.7928,-0.4914 -0.3958,-0.2391 -0.7802,-0.4815 -1.2332,-0.6245 -0.2879,-0.0815 -0.5912,-0.1358 -0.7867,-0.044 -0.3227,0.1121 -0.8245,0.515 -1.0742,0.781"/>
   <path id="_195132424_43" class="fil0 str2" d="M96.9364 65.2505c-1.0162,-0.5887 -2.4887,-1.5761 -3.3287,-1.4389 -0.2692,0.044 -0.3566,0.1481 -0.5139,0.2992l-0.6339 0.613c-0.4298,-0.2401 -0.869,-0.5605 -1.2988,-0.8006 -0.4074,-0.2625 -0.7177,-0.4294 -1.1846,-0.5192 -0.3012,-0.0317 -0.5431,-0.0361 -0.7354,0.1508 -0.2147,0.2077 -0.4381,0.4764 -0.681,0.8095 -0.2455,-0.141 -0.5473,-0.3502 -0.7928,-0.4915 -0.3958,-0.239 -0.7802,-0.4814 -1.2332,-0.6244 -0.2879,-0.0815 -0.5912,-0.1358 -0.7867,-0.044 -0.3227,0.1121 -0.8245,0.515 -1.0742,0.781"/>
   <path id="_195132616_44" class="fil0 str2" d="M84.8844 64.0637c-1.7193,-0.994 -2.1488,-1.1108 -2.483,-1.1753 -0.1426,-0.0276 -0.5843,-0.0463 -0.8882,0.108 -0.4087,0.2077 -0.8741,0.8837 -0.8741,0.8837 -1.0162,-0.5886 -2.4886,-1.5759 -3.3287,-1.4388 -0.2691,0.0441 -0.3564,0.1482 -0.5139,0.2994l-0.6339 0.6129c-0.4298,-0.2401 -0.869,-0.5606 -1.2988,-0.8008 -0.4074,-0.2625 -0.7176,-0.4293 -1.1846,-0.519 -0.3012,-0.0318 -0.5431,-0.0362 -0.7354,0.1507 -0.2147,0.2077 -0.4381,0.4764 -0.681,0.8096 -0.2454,-0.1411 -0.5473,-0.3503 -0.7927,-0.4915 -0.3959,-0.2391 -0.7801,-0.4815 -1.2332,-0.6245 -0.288,-0.0814 -0.5913,-0.1359 -0.7867,-0.044 -0.3228,0.1122 -0.8245,0.515 -1.0742,0.781"/>
   <path id="_195132808_45" class="fil0 str2" d="M68.5875 62.6935c-1.7194,-0.9941 -2.1489,-1.1107 -2.483,-1.1753 -0.1426,-0.0276 -0.5843,-0.0463 -0.8883,0.108 -0.4086,0.2075 -0.874,0.8838 -0.874,0.8838 -1.0162,-0.5887 -2.4887,-1.5761 -3.3287,-1.4389 -0.2691,0.0439 -0.3565,0.148 -0.5139,0.2992l-0.634 0.613c-0.4298,-0.2401 -0.8689,-0.5605 -1.2987,-0.8006 -0.4075,-0.2626 -0.7177,-0.4295 -1.1846,-0.5193 -0.3013,-0.0317 -0.543,-0.0361 -0.7354,0.1509 -0.2148,0.2075 -0.4381,0.4764 -0.6811,0.8095"/>
   <path id="_194945784_46" class="fil0 str2" d="M96.1637 61.6887c-0.4298,-0.2402 -0.8689,-0.5607 -1.2987,-0.8008 -0.4075,-0.2624 -0.7176,-0.4293 -1.1847,-0.5191 -0.3011,-0.0317 -0.543,-0.0362 -0.7354,0.1508 -0.2147,0.2076 -0.4381,0.4764 -0.681,0.8095 -0.2454,-0.1411 -0.5472,-0.3503 -0.7927,-0.4915 -0.3958,-0.2391 -0.7801,-0.4814 -1.2332,-0.6244 -0.2879,-0.0815 -0.5912,-0.1359 -0.7867,-0.044 -0.3227,0.1122 -0.8245,0.515 -1.0742,0.781"/>
   <path id="_194945976_47" class="fil0 str2" d="M88.5884 61.0284c-1.7194,-0.994 -2.1489,-1.1107 -2.4831,-1.1752 -0.1426,-0.0276 -0.5843,-0.0463 -0.8882,0.108 -0.4087,0.2076 -0.8741,0.8838 -0.8741,0.8838 -1.0161,-0.5887 -2.4886,-1.5761 -3.3287,-1.4388 -0.2691,0.044 -0.3565,0.1481 -0.5138,0.2991l-0.6341 0.613c-0.4298,-0.2402 -0.8689,-0.5605 -1.2987,-0.8006 -0.4074,-0.2625 -0.7176,-0.4294 -1.1847,-0.5192 -0.3011,-0.0316 -0.5429,-0.0362 -0.7352,0.1508 -0.2148,0.2077 -0.4383,0.4764 -0.6812,0.8095 -0.2453,-0.1411 -0.5472,-0.3503 -0.7927,-0.4914 -0.3958,-0.2392 -0.7801,-0.4815 -1.2332,-0.6244 -0.2879,-0.0816 -0.5912,-0.1359 -0.7866,-0.0441 -0.3228,0.1121 -0.8245,0.515 -1.0742,0.781"/>
   <path id="_194946168_48" class="fil0 str2" d="M72.2916 59.6582c-1.7194,-0.994 -2.1489,-1.1107 -2.4831,-1.1752 -0.1425,-0.0277 -0.5843,-0.0463 -0.8882,0.108 -0.4087,0.2076 -0.8741,0.8837 -0.8741,0.8837 -1.0161,-0.5887 -2.4886,-1.5761 -3.3286,-1.4388 -0.2692,0.044 -0.3566,0.1482 -0.5139,0.2993l-0.634 0.613"/>
   <path id="_194948088_49" class="fil0 str2" d="M99.4991 58.8508c-0.4298,-0.2401 -0.8689,-0.5605 -1.2987,-0.8006 -0.4074,-0.2626 -0.7176,-0.4293 -1.1847,-0.5192 -0.3011,-0.0316 -0.5429,-0.0361 -0.7353,0.1508 -0.2147,0.2077 -0.4382,0.4764 -0.6811,0.8096 -0.2453,-0.1411 -0.5472,-0.3504 -0.7927,-0.4915 -0.3958,-0.2391 -0.7801,-0.4815 -1.2332,-0.6244 -0.2879,-0.0816 -0.5912,-0.136 -0.7866,-0.0441 -0.3228,0.1121 -0.8246,0.515 -1.0742,0.781"/>
   <path id="_194948280_50" class="fil0 str2" d="M91.9238 58.1908c-1.7194,-0.9941 -2.1489,-1.1108 -2.4831,-1.1755 -0.1426,-0.0274 -0.5843,-0.0462 -0.8882,0.1082 -0.4087,0.2075 -0.8741,0.8837 -0.8741,0.8837 -1.0161,-0.5886 -2.4886,-1.576 -3.3286,-1.4389 -0.2692,0.0441 -0.3566,0.1482 -0.5139,0.2993l-0.6341 0.613c-0.4298,-0.2401 -0.8688,-0.5606 -1.2986,-0.8007 -0.4075,-0.2626 -0.7177,-0.4293 -1.1847,-0.5192 -0.3012,-0.0316 -0.543,-0.0361 -0.7353,0.1509 -0.2148,0.2076 -0.4381,0.4764 -0.6811,0.8095 -0.2454,-0.1412 -0.5472,-0.3503 -0.7927,-0.4915 -0.3959,-0.2392 -0.7802,-0.4815 -1.2333,-0.6245 -0.2879,-0.0815 -0.5911,-0.1357 -0.7866,-0.044 -0.3227,0.1121 -0.8245,0.5151 -1.0742,0.7811"/>
   <path id="_194948472_51" class="fil0 str2" d="M75.6264 56.8204c-1.7193,-0.9941 -2.1489,-1.1107 -2.483,-1.1752 -0.1426,-0.0276 -0.5844,-0.0463 -0.8882,0.108"/>
   <path id="_194950008_52" class="fil0 str2" d="M98.9496 55.6439c-0.2455,-0.1412 -0.5472,-0.3504 -0.7927,-0.4916 -0.3959,-0.239 -0.7802,-0.4814 -1.2333,-0.6244 -0.2878,-0.0816 -0.5911,-0.1359 -0.7867,-0.044 -0.3227,0.112 -0.8245,0.5149 -1.0741,0.7809"/>
   <path id="_194952312_53" class="fil0 str2" d="M95.274 55.3432c-1.7193,-0.9941 -2.1488,-1.1107 -2.483,-1.1753 -0.1426,-0.0276 -0.5843,-0.0463 -0.8882,0.108 -0.4087,0.2076 -0.8741,0.8837 -0.8741,0.8837 -1.0162,-0.5886 -2.4887,-1.576 -3.3287,-1.4388 -0.2691,0.044 -0.3565,0.1481 -0.514,0.2992l-0.6339 0.613c-0.4298,-0.2401 -0.8689,-0.5606 -1.2987,-0.8007 -0.4075,-0.2626 -0.7176,-0.4293 -1.1847,-0.5191 -0.3011,-0.0317 -0.543,-0.0361 -0.7354,0.1508 -0.2147,0.2076 -0.4381,0.4764 -0.681,0.8095 -0.2454,-0.1411 -0.5472,-0.3503 -0.7927,-0.4915 -0.3958,-0.239 -0.7801,-0.4815 -1.2332,-0.6245 -0.2879,-0.0814 -0.5912,-0.1357 -0.7866,-0.0439"/>
   <path id="_195130312_54" class="fil0 str2" d="M101.6 52.7462c-0.3958,-0.2391 -1.0503,-0.761 -1.5034,-0.9039 -0.2878,-0.0816 -0.5911,-0.1359 -0.7866,-0.0441 -0.3227,0.1121 -0.8245,0.515 -1.0742,0.781"/>
   <path id="_194940024_55" class="fil0 str2" d="M98.4471 52.6575c-1.7193,-0.994 -2.1489,-1.1107 -2.483,-1.1752 -0.1426,-0.0277 -0.5844,-0.0463 -0.8882,0.1079 -0.4087,0.2077 -0.8741,0.8838 -0.8741,0.8838 -1.0162,-0.5887 -2.4887,-1.576 -3.3287,-1.4388 -0.2691,0.044 -0.3565,0.1481 -0.5139,0.2993l-0.634 0.6129c-0.4298,-0.2401 -0.8689,-0.5606 -1.2987,-0.8007 -0.4074,-0.2624 -0.7177,-0.4294 -1.1847,-0.5191 -0.3011,-0.0317 -0.543,-0.0362 -0.7353,0.1508"/>
   <path id="_194942520_56" class="fil0 str2" d="M102.56 49.1852c-0.3228,0.1121 -0.4319,0.3046 -0.6816,0.5706"/>
   <path id="_194942712_57" class="fil0 str2" d="M102.089 49.8341c-1.7193,-0.9941 -2.1489,-1.1107 -2.4831,-1.1753 -0.1425,-0.0276 -0.5843,-0.0463 -0.8882,0.108 -0.4087,0.2076 -0.8741,0.8839 -0.8741,0.8839 -1.0161,-0.5889 -2.4886,-1.5762 -3.3286,-1.439"/>
   <path id="_194945208_58" class="fil0 str2" d="M104.106 46.4127c-0.1426,-0.0276 -1.8973,-0.3115 -2.2011,-0.1572 -0.1644,0.0834 -1.0374,0.6289 -1.519,0.6682 -0.7163,0.0584 -1.3444,-0.3482 -1.3444,-0.3482"/>
   <line id="_436387960" class="fil0 str2" x1="83.5549" y1="79.663" x2="107.405" y2= "60.4629" />
   <line id="_436388296" class="fil0 str2" x1="87.4185" y1="79.9524" x2="107.891" y2= "62.5361" />
   <line id="_436683584" class="fil0 str2" x1="90.9627" y1="80.2593" x2="108.933" y2= "65.7927" />
   <line id="_436683920" class="fil0 str2" x1="94.7784" y1="80.5711" x2="109.419" y2= "69.0425" />
   <line id="_436684256" class="fil0 str2" x1="98.7445" y1="80.9594" x2="110.075" y2= "71.8377" />
   <line id="_436684592" class="fil0 str2" x1="102.358" y1="81.2776" x2="110.712" y2= "74.552" />
   <line id="_436684928" class="fil0 str2" x1="105.996" y1="81.6744" x2="111.369" y2= "77.3491" />
   <line id="_436685264" class="fil0 str2" x1="109.305" y1="81.9643" x2="111.952" y2= "79.8334" />
   <line id="_436685600" class="fil0 str2" x1="79.4679" y1="79.1782" x2="106.585" y2= "56.9724" />
   <line id="_436685936" class="fil0 str2" x1="74.8407" y1="78.7734" x2="105.795" y2= "53.6053" />
   <line id="_436686272" class="fil0 str2" x1="70.9224" y1="78.5383" x2="105.063" y2= "50.4874" />
   <line id="_436686608" class="fil0 str2" x1="67.174" y1="78.0563" x2="104.386" y2= "47.6036" />
   <line id="_436686944" class="fil0 str2" x1="63.0405" y1="77.772" x2="103.206" y2= "45.2003" />
   <line id="_436687280" class="fil0 str2" x1="58.7257" y1="77.3979" x2="95.2182" y2= "47.7941" />
   <line id="_436687616" class="fil0 str2" x1="54.6646" y1="77.0203" x2="87.4566" y2= "50.428" />
   <line id="_436687952" class="fil0 str2" x1="50.9692" y1="76.6959" x2="80.514" y2= "52.7369" />
   <line id="_436688288" class="fil0 str2" x1="47.0592" y1="76.2979" x2="73.0552" y2= "55.2172" />
   <line id="_436688624" class="fil0 str2" x1="42.6437" y1="75.8398" x2="64.6118" y2= "58.025" />
   <line id="_436688960" class="fil0 str2" x1="38.5724" y1="75.5579" x2="56.9409" y2= "60.6625" />
   <line id="_436689296" class="fil0 str2" x1="34.5985" y1="75.207" x2="49.6097" y2= "63.0342" />
   <line id="_436689632" class="fil0 str2" x1="30.7478" y1="74.7588" x2="42.5758" y2= "65.4681" />
   <line id="_436689968" class="fil0 str2" x1="26.3688" y1="74.3715" x2="33.4263" y2= "68.8738" />
  </g>
 </g>
</svg>
