<?xml version="1.0" encoding="UTF-8"?>
<!DOCTYPE svg PUBLIC "-//W3C//DTD SVG 1.1//EN" "http://www.w3.org/Graphics/SVG/1.1/DTD/svg11.dtd">
<!-- Creator: CorelDRAW -->
<svg xmlns="http://www.w3.org/2000/svg" xml:space="preserve" width="210mm" height="297mm" style="shape-rendering:geometricPrecision; text-rendering:geometricPrecision; image-rendering:optimizeQuality; fill-rule:evenodd; clip-rule:evenodd"
viewBox="0 0 210 297"
 xmlns:xlink="http://www.w3.org/1999/xlink">
 <defs>
  <style type="text/css">
   <![CDATA[
    .str0 {stroke:#333333;stroke-width:0.5}
    .fil0 {fill:none}
    .fil1 {fill:#339966}
   ]]>
  </style>
 </defs>
 <g id="Слой_x0020_1">
  <metadata id="CorelCorpID_0Corel-Layer"/>
  <line class="fil0 str0" x1="23.3073" y1="68.8807" x2="23.3079" y2= "104.999" />
  <line class="fil0 str0" x1="114.636" y1="82.2119" x2="115.674" y2= "124.027" />
  <line class="fil0 str0" x1="188.883" y1="68.0546" x2="188.679" y2= "107.22" />
  <polyline class="fil0 str0" points="23.3079,104.998 115.92,124.077 188.679,107.22 "/>
  <g id="_359706816">
   <polygon id="_430450928" class="fil1 str0" points="9.7057,71.4585 106.232,34.6016 198.311,71.2787 116.628,82.5115 "/>
   <line id="_430452104" class="fil0 str0" x1="106.149" y1="34.6868" x2="116.628" y2= "82.5115" />
   <line id="_430453616" class="fil0 str0" x1="194.135" y1="71.8529" x2="106.5" y2= "37.0987" />
   <line id="_430453952" class="fil0 str0" x1="17.5975" y1="72.0838" x2="106.696" y2= "37.1812" />
   <polygon id="_430454096" class="fil1 str0" points="103.259,35.7368 112.496,82.0845 116.628,82.5115 120.225,82.0169 109.899,36.0624 106.232,34.6016 "/>
   <line id="_430454480" class="fil0 str0" x1="106.149" y1="34.6868" x2="116.628" y2= "82.5115" />
   <line id="_430454816" class="fil0 str0" x1="36.4352" y1="74.2217" x2="51.3669" y2= "58.8554" />
   <line id="_430455152" class="fil0 str0" x1="48.4052" y1="75.5932" x2="73.0313" y2= "50.3688" />
   <line id="_430455488" class="fil0 str0" x1="60.6333" y1="76.6991" x2="94.0316" y2= "42.1423" />
   <line id="_430455824" class="fil0 str0" x1="72.746" y1="77.9238" x2="104.993" y2= "44.4364" />
   <line id="_430456160" class="fil0 str0" x1="84.716" y1="79.2952" x2="107.309" y2= "56.0582" />
   <line id="_430456496" class="fil0 str0" x1="96.7607" y1="80.5898" x2="109.571" y2= "67.4069" />
   <line id="_430456832" class="fil0 str0" x1="130.111" y1="80.4332" x2="116.904" y2= "66.9168" />
   <line id="_430457168" class="fil0 str0" x1="139.079" y1="79.4241" x2="113.708" y2= "53.0154" />
   <line id="_430457504" class="fil0 str0" x1="148.527" y1="78.0478" x2="110.704" y2= "39.643" />
   <line id="_430457840" class="fil0 str0" x1="158.476" y1="76.6688" x2="129.395" y2= "46.1785" />
   <line id="_430458176" class="fil0 str0" x1="167.452" y1="75.426" x2="144.44" y2= "52.145" />
   <line id="_430458512" class="fil0 str0" x1="175.651" y1="74.3839" x2="160.658" y2= "58.5765" />
   <line id="_430458848" class="fil0 str0" x1="184.517" y1="72.979" x2="176.635" y2= "64.9125" />
  </g>
 </g>
</svg>
