<?xml version="1.0" encoding="UTF-8"?>
<!DOCTYPE svg PUBLIC "-//W3C//DTD SVG 1.1//EN" "http://www.w3.org/Graphics/SVG/1.1/DTD/svg11.dtd">
<!-- Creator: CorelDRAW -->
<svg xmlns="http://www.w3.org/2000/svg" xml:space="preserve" width="210mm" height="297mm" style="shape-rendering:geometricPrecision; text-rendering:geometricPrecision; image-rendering:optimizeQuality; fill-rule:evenodd; clip-rule:evenodd"
viewBox="0 0 210 297"
 xmlns:xlink="http://www.w3.org/1999/xlink">
 <defs>
  <style type="text/css">
   <![CDATA[
    .str1 {stroke:#333333;stroke-width:0.2}
    .str2 {stroke:#333333;stroke-width:0.25}
    .str0 {stroke:#333333;stroke-width:0.5}
    .fil0 {fill:none}
    .fil2 {fill:#A33535}
    .fil1 {fill:#A33838}
   ]]>
  </style>
 </defs>
 <g id="Слой_x0020_1">
  <metadata id="CorelCorpID_0Corel-Layer"/>
  <line class="fil0 str0" x1="23.3073" y1="68.8807" x2="23.3079" y2= "104.999" />
  <line class="fil0 str0" x1="114.636" y1="82.2119" x2="115.674" y2= "124.027" />
  <line class="fil0 str0" x1="188.883" y1="68.0546" x2="188.679" y2= "107.22" />
  <polyline class="fil0 str0" points="23.3079,104.998 115.92,124.077 188.679,107.22 "/>
  <g id="_197246440">
   <polygon id="_428546504" class="fil1 str0" points="9.7057,70.6794 106.232,31.2246 198.311,70.487 116.628,82.5115 "/>
   <line id="_428547680" class="fil0 str0" x1="106.149" y1="31.3158" x2="116.628" y2= "82.5115" />
   <line id="_428549192" class="fil0 str0" x1="194.135" y1="71.1016" x2="106.5" y2= "33.8977" />
   <line id="_428549528" class="fil0 str0" x1="17.5975" y1="71.3488" x2="106.696" y2= "33.9861" />
   <polygon id="_428549672" class="fil2 str1" points="103.259,32.4398 112.496,82.0544 116.628,82.5115 120.225,81.9821 109.899,32.7884 106.232,31.2246 "/>
   <line id="_428550104" class="fil0 str1" x1="106.149" y1="31.3158" x2="116.628" y2= "82.5115" />
   <path id="_197247352_1" class="fil0 str2" d="M119.862 80.2573c0.2624,0.0462 2.2387,0.155 2.3921,0.3401l0.6181 0.751c0.419,-0.3177 0.847,-0.737 1.266,-1.0547 0.3973,-0.3452 0.6997,-0.5662 1.1549,-0.6956 0.2936,-0.0503 0.5294,-0.0644 0.7169,0.1648 0.2094,0.2543 0.4271,0.5856 0.664,0.9972 0.2392,-0.1865 0.5334,-0.4606 0.7727,-0.6472 0.3859,-0.3151 0.7606,-0.6341 1.2023,-0.8301 0.2807,-0.1128 0.5763,-0.1918 0.7669,-0.0828 0.3146,0.1303 0.8038,0.621 1.0472,0.9478"/>
   <line id="_428550656" class="fil0 str2" x1="126.868" y1="80.6055" x2="118.063" y2= "71.6823" />
   <g id="_197261344">
    <path id="_197247352" class="fil0 str2" d="M119.156 76.8942c0.2624,0.0462 0.0586,0.2147 0.212,0.3998l0.6181 0.7511c0.419,-0.3177 0.847,-0.737 1.266,-1.0547 0.3973,-0.3452 0.6997,-0.5662 1.1549,-0.6956 0.2936,-0.0504 0.5294,-0.0644 0.7169,0.1647 0.2094,0.2544 0.4271,0.5856 0.664,0.9973 0.2392,-0.1865 0.5334,-0.4607 0.7727,-0.6473 0.3859,-0.3151 0.7606,-0.6341 1.2023,-0.83 0.2807,-0.1127 0.5763,-0.1918 0.7669,-0.0828 0.3146,0.1303 0.8038,0.621 1.0472,0.9478"/>
    <path id="_197248648" class="fil0 str2" d="M127.463 76.8545c1.6762,-1.313 2.0949,-1.475 2.4207,-1.568 0.139,-0.0398 0.5696,-0.0786 0.8659,0.1055 0.3984,0.2476 0.8521,1.0842 0.8521,1.0842 0.9906,-0.7776 2.4261,-2.0736 3.245,-1.9296 0.2624,0.0461 0.3476,0.1744 0.501,0.3596l0.6181 0.751c0.419,-0.3177 0.847,-0.737 1.266,-1.0545 0.3973,-0.3452 0.6997,-0.5664 1.1549,-0.6958 0.2937,-0.0504 0.5294,-0.0644 0.7169,0.1648 0.2094,0.2543 0.4271,0.5856 0.664,0.9971 0.2392,-0.1863 0.5334,-0.4605 0.7728,-0.6471 0.3859,-0.3151 0.7605,-0.6341 1.2022,-0.8302 0.2807,-0.1126 0.5763,-0.1916 0.7669,-0.0826 0.3146,0.1302 0.8038,0.6209 1.0472,0.9476"/>
    <path id="_197247448" class="fil0 str2" d="M143.351 74.5626c1.6761,-1.313 2.0949,-1.4751 2.4207,-1.5681 0.1388,-0.0396 0.5695,-0.0785 0.8657,0.1056 0.3984,0.2477 0.8522,1.0841 0.8522,1.0841 0.9906,-0.7774 2.4261,-2.0734 3.245,-1.9295 0.2624,0.0462 0.3476,0.1745 0.501,0.3595l0.6181 0.751c0.4189,-0.3176 0.847,-0.7369 1.266,-1.0545 0.3973,-0.3452 0.6997,-0.5663 1.1549,-0.6957 0.2936,-0.0503 0.5294,-0.0644 0.7169,0.1647 0.2093,0.2545 0.4271,0.5856 0.6639,0.9973 0.2393,-0.1865 0.5335,-0.4607 0.7728,-0.6472 0.3859,-0.3152 0.7606,-0.6341 1.2023,-0.8301 0.2807,-0.1128 0.5763,-0.1918 0.7669,-0.0828 0.3146,0.1302 0.8038,0.6209 1.0472,0.9477"/>
    <path id="_197250208" class="fil0 str2" d="M159.238 72.2708c1.6762,-1.313 2.0949,-1.475 2.4207,-1.568 0.139,-0.0398 0.5696,-0.0786 0.8659,0.1055 0.3984,0.2476 0.8521,1.0842 0.8521,1.0842 0.9906,-0.7775 2.4261,-2.0736 3.245,-1.9296 0.2624,0.0462 0.3476,0.1744 0.501,0.3596l0.6181 0.751c0.419,-0.3177 0.847,-0.737 1.266,-1.0545 0.3973,-0.3452 0.6997,-0.5664 1.1549,-0.6958 0.2937,-0.0504 0.5294,-0.0643 0.7169,0.1648 0.2094,0.2543 0.4271,0.5856 0.664,0.9972 0.2392,-0.1864 0.5334,-0.4606 0.7728,-0.6472 0.3859,-0.3151 0.7605,-0.634 1.2022,-0.8301 0.2807,-0.1127 0.5763,-0.1917 0.7669,-0.0827 0.3146,0.1302 0.8038,0.6209 1.0472,0.9477"/>
    <path id="_197256568" class="fil0 str2" d="M175.127 69.9788c1.6762,-1.3132 2.0949,-1.4751 2.4207,-1.5681 0.139,-0.0397 0.5696,-0.0785 0.8659,0.1056 0.3984,0.2476 0.8521,1.0841 0.8521,1.0841 0.9906,-0.7775 2.4261,-2.0735 3.245,-1.9296 0.2624,0.0462 0.3476,0.1746 0.501,0.3595l0.6181 0.7511c0.419,-0.3177 1.3918,-1.0533 1.8108,-1.3709"/>
    <path id="_197248648_2" class="fil0 str2" d="M130.349 80.1578c1.6762,-1.313 2.0949,-1.475 2.4207,-1.5679 0.139,-0.0398 0.5696,-0.0787 0.8659,0.1054 0.3984,0.2476 0.8521,1.0843 0.8521,1.0843 0.9906,-0.7776 2.4261,-2.0736 3.245,-1.9297 0.2624,0.0462 0.3476,0.1744 0.501,0.3596l0.6181 0.751c0.419,-0.3176 0.847,-0.737 1.266,-1.0546 0.3973,-0.3451 0.6997,-0.5663 1.1549,-0.6957 0.2937,-0.0504 0.5294,-0.0644 0.7169,0.1648 0.2094,0.2543 0.4271,0.5855 0.664,0.9972 0.2392,-0.1863 0.5334,-0.4606 0.7728,-0.6472 0.3859,-0.3151 0.7605,-0.634 1.2022,-0.8301 0.2807,-0.1127 0.5763,-0.1918 0.7669,-0.0826 0.3146,0.1301 0.8037,0.6208 1.0471,0.9476"/>
    <path id="_197247448_3" class="fil0 str2" d="M146.237 77.866c1.6761,-1.3131 2.0949,-1.4752 2.4207,-1.5681 0.1389,-0.0397 0.5696,-0.0785 0.8658,0.1056 0.3984,0.2476 0.8522,1.0841 0.8522,1.0841 0.9906,-0.7775 2.4261,-2.0736 3.245,-1.9296 0.2624,0.0462 0.3476,0.1745 0.501,0.3595l0.6181 0.7511c0.4189,-0.3177 0.847,-0.737 1.266,-1.0546 0.3973,-0.3452 0.6997,-0.5662 1.1549,-0.6956 0.2936,-0.0504 0.5294,-0.0644 0.7169,0.1646 0.2093,0.2545 0.4271,0.5856 0.6639,0.9973 0.2393,-0.1864 0.5335,-0.4607 0.7728,-0.6471 0.3859,-0.3153 0.7606,-0.6342 1.2023,-0.8302 0.2807,-0.1128 0.5763,-0.1918 0.7669,-0.0827 0.3146,0.1301 0.8038,0.6209 1.0472,0.9476"/>
    <path id="_197250208_4" class="fil0 str2" d="M162.124 75.5741c1.6762,-1.313 2.0949,-1.4749 2.4207,-1.5679 0.139,-0.0398 0.5696,-0.0787 0.8659,0.1054 0.3984,0.2477 0.8521,1.0843 0.8521,1.0843 0.9906,-0.7776 2.4261,-2.0736 3.245,-1.9297 0.2624,0.0462 0.3476,0.1745 0.501,0.3596l0.6181 0.7511c0.419,-0.3177 0.847,-0.7371 1.266,-1.0546 0.3973,-0.3452 0.6997,-0.5664 1.1549,-0.6958 0.2937,-0.0503 0.5294,-0.0644 0.7169,0.1648 0.2094,0.2544 0.4271,0.5856 0.664,0.9972 0.2392,-0.1863 0.5334,-0.4606 0.7728,-0.6472 0.3859,-0.3151 0.7605,-0.634 1.2022,-0.8301 0.2807,-0.1127 0.5763,-0.1918 0.7669,-0.0826 0.3146,0.1301 0.8038,0.6209 1.0472,0.9476"/>
    <path id="_197256568_5" class="fil0 str2" d="M178.013 73.2821c1.6762,-1.3131 2.0949,-1.4751 2.4207,-1.568 0.139,-0.0398 0.5696,-0.0786 0.8659,0.1055 0.3984,0.2476 0.8521,1.0842 0.8521,1.0842 0.9906,-0.7775 2.4261,-2.0736 3.245,-1.9296 0.2624,0.0462 0.3476,0.1744 0.501,0.3595l0.6181 0.751c0.419,-0.3177 0.8471,-0.7369 1.2661,-1.0546 0.3972,-0.3451 0.6996,-0.5662 1.1548,-0.6956 0.2937,-0.0504 0.5294,-0.0643 0.7169,0.1646 0.2094,0.2545 0.4272,0.5856 0.664,0.9974 0.2392,-0.1864 0.5335,-0.4607 0.7728,-0.6472 0.3859,-0.3152 0.7605,-0.6342 1.2022,-0.8301"/>
    <path id="_197251240" class="fil0 str2" d="M118.565 72.9377c0.2936,-0.0504 0.5294,-0.0644 0.7169,0.1647 0.2093,0.2544 0.4271,0.5855 0.6639,0.9972 0.2393,-0.1864 0.5335,-0.4606 0.7728,-0.6471 0.3859,-0.3153 0.7606,-0.6342 1.2023,-0.8302 0.2807,-0.1127 0.5763,-0.1917 0.7669,-0.0827 0.3146,0.1303 0.8038,0.6209 1.0472,0.9476"/>
    <path id="_197248744" class="fil0 str2" d="M123.621 73.4974c1.6761,-1.3131 2.0949,-1.475 2.4207,-1.5681 0.1389,-0.0396 0.5696,-0.0785 0.8659,0.1055 0.3984,0.2477 0.8521,1.0842 0.8521,1.0842 0.9906,-0.7774 2.4261,-2.0735 3.245,-1.9295 0.2624,0.0462 0.3476,0.1744 0.501,0.3596l0.6181 0.751c0.419,-0.3176 0.847,-0.737 1.266,-1.0547 0.3973,-0.3452 0.6997,-0.5662 1.1549,-0.6956 0.2936,-0.0504 0.5294,-0.0644 0.7169,0.1647 0.2094,0.2544 0.4271,0.5856 0.664,0.9973 0.2392,-0.1865 0.5334,-0.4607 0.7727,-0.6473 0.3859,-0.3152 0.7606,-0.6341 1.2023,-0.83 0.2807,-0.1127 0.5763,-0.1918 0.7669,-0.0828 0.3146,0.1303 0.8038,0.621 1.0472,0.9478"/>
    <path id="_197247472" class="fil0 str2" d="M139.509 71.2054c1.6761,-1.3131 2.0949,-1.475 2.4206,-1.568 0.139,-0.0396 0.5697,-0.0785 0.8659,0.1056 0.3984,0.2475 0.8522,1.0841 0.8522,1.0841 0.9906,-0.7775 2.426,-2.0736 3.2449,-1.9296 0.2624,0.0462 0.3476,0.1744 0.501,0.3595l0.618 0.7511c0.419,-0.3176 0.8471,-0.7369 1.2661,-1.0546 0.3972,-0.3452 0.6997,-0.5662 1.1549,-0.6957 0.2936,-0.0502 0.5294,-0.0644 0.7169,0.1647 0.2093,0.2545 0.4271,0.5856 0.6639,0.9973 0.2393,-0.1864 0.5335,-0.4607 0.7728,-0.6471 0.3859,-0.3153 0.7606,-0.6342 1.2023,-0.8302 0.2806,-0.1127 0.5763,-0.1918 0.7669,-0.0827 0.3146,0.1302 0.8038,0.6209 1.0472,0.9476"/>
    <path id="_197249104" class="fil0 str2" d="M155.396 68.9137c1.6761,-1.3131 2.0949,-1.4751 2.4207,-1.5681 0.1389,-0.0397 0.5696,-0.0785 0.8659,0.1055 0.3984,0.2477 0.8521,1.0842 0.8521,1.0842 0.9906,-0.7774 2.4261,-2.0735 3.245,-1.9295 0.2624,0.0462 0.3476,0.1744 0.501,0.3595l0.6181 0.7511c0.419,-0.3177 0.847,-0.737 1.266,-1.0547 0.3973,-0.3452 0.6997,-0.5662 1.1549,-0.6956 0.2936,-0.0504 0.5294,-0.0644 0.7169,0.1647 0.2094,0.2544 0.4271,0.5856 0.664,0.9973 0.2392,-0.1865 0.5334,-0.4607 0.7727,-0.6473 0.3859,-0.3152 0.7606,-0.6341 1.2023,-0.8301 0.2807,-0.1126 0.5763,-0.1917 0.7669,-0.0827 0.3146,0.1303 0.8038,0.621 1.0472,0.9478"/>
    <path id="_194944632" class="fil0 str2" d="M171.284 66.6217c1.6762,-1.3131 2.0949,-1.475 2.4207,-1.568 0.139,-0.0396 0.5696,-0.0785 0.8659,0.1056 0.3984,0.2475 0.8521,1.0841 0.8521,1.0841 0.9906,-0.7775 2.4261,-2.0736 3.245,-1.9296 0.2624,0.0462 0.3476,0.1744 0.501,0.3596l0.6181 0.751"/>
    <path id="_197257168" class="fil0 str2" d="M120.171 69.9881c1.6761,-1.313 2.0949,-1.475 2.4206,-1.5679 0.139,-0.0398 0.5697,-0.0787 0.8659,0.1054 0.3984,0.2476 0.8521,1.0843 0.8521,1.0843 0.9907,-0.7776 2.4262,-2.0737 3.2451,-1.9297 0.2624,0.0462 0.3476,0.1744 0.501,0.3596l0.618 0.751c0.419,-0.3176 0.8471,-0.737 1.2661,-1.0546 0.3972,-0.3451 0.6997,-0.5663 1.1549,-0.6957 0.2936,-0.0504 0.5294,-0.0644 0.7169,0.1648 0.2093,0.2543 0.4271,0.5855 0.6639,0.9972 0.2393,-0.1863 0.5335,-0.4607 0.7728,-0.6472 0.3859,-0.3151 0.7606,-0.634 1.2023,-0.8301 0.2806,-0.1127 0.5763,-0.1918 0.7669,-0.0826 0.3146,0.1301 0.8038,0.6208 1.0472,0.9476"/>
    <path id="_194951352" class="fil0 str2" d="M136.059 67.6961c1.6761,-1.313 2.0949,-1.4751 2.4207,-1.568 0.1389,-0.0396 0.5696,-0.0785 0.8659,0.1055 0.3983,0.2477 0.8521,1.0842 0.8521,1.0842 0.9906,-0.7774 2.4261,-2.0735 3.245,-1.9295 0.2624,0.0462 0.3476,0.1744 0.501,0.3594l0.6181 0.751c0.4189,-0.3176 0.847,-0.7368 1.266,-1.0545 0.3972,-0.3452 0.6996,-0.5662 1.1548,-0.6956 0.2936,-0.0504 0.5294,-0.0644 0.7169,0.1646 0.2093,0.2545 0.4271,0.5856 0.6639,0.9974 0.2393,-0.1865 0.5335,-0.4608 0.7728,-0.6473 0.3859,-0.3152 0.7606,-0.6341 1.2023,-0.83 0.2807,-0.1129 0.5763,-0.1919 0.7669,-0.0828 0.3146,0.1301 0.8038,0.6208 1.0472,0.9476"/>
    <path id="_195127048" class="fil0 str2" d="M151.946 65.4044c1.6762,-1.313 2.0949,-1.4751 2.4207,-1.568 0.139,-0.0398 0.5696,-0.0786 0.8659,0.1054 0.3984,0.2476 0.8521,1.0843 0.8521,1.0843 0.9906,-0.7776 2.4261,-2.0736 3.245,-1.9297 0.2624,0.0462 0.3476,0.1745 0.501,0.3596l0.6181 0.7511c0.419,-0.3177 0.847,-0.7371 1.266,-1.0547 0.3973,-0.3451 0.6997,-0.5662 1.1549,-0.6957 0.2937,-0.0504 0.5294,-0.0643 0.7169,0.1648 0.2094,0.2543 0.4271,0.5856 0.664,0.9972 0.2392,-0.1864 0.5334,-0.4606 0.7728,-0.6472 0.3859,-0.3151 0.7605,-0.6341 1.2022,-0.8301 0.2807,-0.1127 0.5763,-0.1917 0.7669,-0.0826 0.3146,0.1301 0.8038,0.6209 1.0472,0.9476"/>
    <path id="_195127240" class="fil0 str2" d="M167.834 63.1124c1.6762,-1.313 2.0949,-1.475 2.4207,-1.568 0.139,-0.0396 0.5696,-0.0785 0.8659,0.1055 0.3984,0.2477 0.8521,1.0842 0.8521,1.0842"/>
    <path id="_195130888" class="fil0 str2" d="M116.643 66.4025c1.6761,-1.313 2.0949,-1.475 2.4206,-1.568 0.139,-0.0398 0.5697,-0.0786 0.8659,0.1055 0.3984,0.2476 0.8521,1.0842 0.8521,1.0842 0.9907,-0.7776 2.4262,-2.0737 3.2451,-1.9297 0.2624,0.0462 0.3476,0.1745 0.501,0.3596l0.618 0.7511c0.419,-0.3177 0.8471,-0.7371 1.2661,-1.0546 0.3972,-0.3452 0.6997,-0.5663 1.1549,-0.6957 0.2936,-0.0504 0.5294,-0.0644 0.7169,0.1647 0.2093,0.2544 0.4271,0.5856 0.6639,0.9972 0.2393,-0.1863 0.5335,-0.4606 0.7728,-0.6471 0.3859,-0.3152 0.7606,-0.6341 1.2023,-0.8302 0.2806,-0.1127 0.5763,-0.1917 0.7669,-0.0826 0.3146,0.1301 0.8038,0.6208 1.0472,0.9476"/>
    <path id="_195131080" class="fil0 str2" d="M132.531 64.1106c1.6761,-1.313 2.0948,-1.4751 2.4206,-1.568 0.139,-0.0397 0.5696,-0.0786 0.8659,0.1055 0.3984,0.2477 0.8521,1.0841 0.8521,1.0841 0.9907,-0.7774 2.4262,-2.0734 3.2451,-1.9295 0.2623,0.0462 0.3475,0.1745 0.501,0.3595l0.618 0.751c0.419,-0.3176 0.8471,-0.7369 1.2661,-1.0545 0.3972,-0.3452 0.6996,-0.5663 1.1549,-0.6957 0.2936,-0.0503 0.5294,-0.0644 0.7169,0.1647 0.2093,0.2545 0.4271,0.5855 0.6639,0.9973 0.2392,-0.1864 0.5335,-0.4608 0.7728,-0.6472 0.3858,-0.3153 0.7604,-0.6341 1.2021,-0.8301 0.2807,-0.1128 0.5764,-0.1918 0.7669,-0.0827 0.3147,0.1301 0.8038,0.6208 1.0472,0.9476"/>
    <path id="_195131272" class="fil0 str2" d="M148.419 61.8186c1.6761,-1.3131 2.0949,-1.475 2.4206,-1.5679 0.139,-0.0398 0.5697,-0.0787 0.8659,0.1054 0.3984,0.2476 0.8521,1.0842 0.8521,1.0842 0.9907,-0.7775 2.4262,-2.0736 3.2451,-1.9296 0.2624,0.0462 0.3475,0.1744 0.501,0.3596l0.618 0.751c0.419,-0.3176 0.8471,-0.737 1.2661,-1.0546 0.3972,-0.3451 0.6997,-0.5663 1.1549,-0.6957 0.2936,-0.0504 0.5294,-0.0644 0.7169,0.1647 0.2093,0.2544 0.4271,0.5856 0.6639,0.9973 0.2393,-0.1864 0.5335,-0.4607 0.7728,-0.6473 0.3859,-0.3151 0.7606,-0.634 1.2023,-0.83 0.2806,-0.1127 0.5763,-0.1918 0.7669,-0.0827 0.3146,0.1302 0.8038,0.6209 1.0472,0.9477"/>
    <path id="_195132424" class="fil0 str2" d="M115.89 61.3325c0.139,-0.0398 0.3783,-0.0491 0.6745,0.135 0.3984,0.2475 0.8521,1.0842 0.8521,1.0842 0.9907,-0.7777 2.4262,-2.0737 3.2451,-1.9298 0.2624,0.0462 0.3476,0.1745 0.501,0.3597l0.618 0.751c0.419,-0.3177 0.8471,-0.7369 1.2661,-1.0546 0.3972,-0.3451 0.6997,-0.5663 1.1549,-0.6957 0.2936,-0.0503 0.5294,-0.0644 0.7169,0.1647 0.2093,0.2545 0.4271,0.5856 0.6639,0.9972 0.2393,-0.1862 0.5335,-0.4605 0.7728,-0.6471 0.3859,-0.3151 0.7606,-0.6341 1.2023,-0.8302 0.2806,-0.1127 0.5763,-0.1917 0.7669,-0.0826 0.3146,0.1302 0.8038,0.6208 1.0472,0.9477"/>
    <path id="_195132616" class="fil0 str2" d="M129.166 60.6381c1.6761,-1.3131 2.0948,-1.4751 2.4206,-1.5681 0.139,-0.0397 0.5696,-0.0785 0.8659,0.1055 0.3984,0.2477 0.8521,1.0842 0.8521,1.0842 0.9907,-0.7775 2.4261,-2.0735 3.2451,-1.9296 0.2623,0.0463 0.3475,0.1745 0.501,0.3596l0.618 0.7511c0.419,-0.3177 0.8471,-0.7371 1.2661,-1.0547 0.3972,-0.3452 0.6996,-0.5663 1.1549,-0.6957 0.2936,-0.0503 0.5294,-0.0643 0.7169,0.1647 0.2093,0.2545 0.4271,0.5856 0.6639,0.9974 0.2392,-0.1865 0.5335,-0.4607 0.7728,-0.6473 0.3859,-0.3152 0.7605,-0.6341 1.2022,-0.8301 0.2807,-0.1127 0.5764,-0.1918 0.7669,-0.0827 0.3147,0.1302 0.8038,0.621 1.0472,0.9476"/>
    <path id="_195132808" class="fil0 str2" d="M145.053 58.3461c1.6761,-1.313 2.0948,-1.4749 2.4206,-1.5679 0.139,-0.0398 0.5696,-0.0785 0.8659,0.1056 0.3984,0.2475 0.8521,1.0841 0.8521,1.0841 0.9906,-0.7776 2.4261,-2.0736 3.245,-1.9297 0.2624,0.0462 0.3476,0.1745 0.501,0.3597l0.6181 0.7509c0.419,-0.3176 0.8471,-0.7369 1.2661,-1.0545 0.3972,-0.3452 0.6996,-0.5663 1.1548,-0.6957 0.2937,-0.0504 0.5294,-0.0644 0.7169,0.1647 0.2094,0.2544 0.4271,0.5856 0.664,0.9972 0.2392,-0.1863 0.5334,-0.4606 0.7728,-0.6472"/>
    <path id="_194945784" class="fil0 str2" d="M114.928 56.7488c0.2623,0.0462 2.4705,0.3484 2.624,0.5335l0.618 0.7511c0.419,-0.3177 0.8471,-0.7371 1.2661,-1.0547 0.3972,-0.3451 0.6996,-0.5663 1.1549,-0.6957 0.2936,-0.0503 0.5294,-0.0644 0.7169,0.1648 0.2093,0.2544 0.4271,0.5855 0.6639,0.9972 0.2393,-0.1865 0.5335,-0.4606 0.7728,-0.6472 0.3859,-0.3151 0.7605,-0.6341 1.2022,-0.8301 0.2807,-0.1127 0.5764,-0.1918 0.767,-0.0828 0.3146,0.1303 0.8037,0.6211 1.0472,0.9478"/>
    <path id="_194945976" class="fil0 str2" d="M125.555 56.9387c1.6762,-1.3131 2.0949,-1.475 2.4207,-1.5679 0.139,-0.0398 0.5696,-0.0786 0.8659,0.1055 0.3984,0.2476 0.8521,1.0841 0.8521,1.0841 0.9906,-0.7774 2.4261,-2.0735 3.2451,-1.9296 0.2623,0.0463 0.3475,0.1745 0.5009,0.3596l0.6181 0.751c0.419,-0.3177 0.8471,-0.7369 1.2661,-1.0546 0.3972,-0.3451 0.6996,-0.5662 1.1549,-0.6956 0.2936,-0.0504 0.5293,-0.0643 0.7168,0.1646 0.2094,0.2545 0.4272,0.5856 0.664,0.9974 0.2392,-0.1864 0.5335,-0.4608 0.7728,-0.6472 0.3859,-0.3153 0.7605,-0.6342 1.2022,-0.8301 0.2807,-0.1129 0.5764,-0.1919 0.7669,-0.0828 0.3147,0.1302 0.8038,0.6209 1.0472,0.9477"/>
    <path id="_194946168" class="fil0 str2" d="M141.442 54.6469c1.6762,-1.313 2.0949,-1.4749 2.4207,-1.5679 0.1389,-0.0398 0.5696,-0.0787 0.8659,0.1054 0.3984,0.2477 0.8521,1.0841 0.8521,1.0841 0.9905,-0.7774 2.426,-2.0734 3.2449,-1.9295 0.2624,0.0462 0.3476,0.1745 0.501,0.3596l0.6181 0.7511c0.419,-0.3177 0.4559,-0.419 0.8749,-0.7366"/>
    <path id="_194948088" class="fil0 str2" d="M114.301 53.8192l0.618 0.7511c0.419,-0.3177 0.8471,-0.7369 1.2661,-1.0546 0.3972,-0.3452 0.6996,-0.5662 1.1549,-0.6958 0.2936,-0.0502 0.5293,-0.0642 0.7168,0.1648 0.2094,0.2545 0.4272,0.5856 0.664,0.9973 0.2392,-0.1864 0.5335,-0.4607 0.7728,-0.6472 0.3859,-0.3152 0.7605,-0.6341 1.2022,-0.8301 0.2807,-0.1127 0.5764,-0.1918 0.7669,-0.0827 0.3147,0.1301 0.8038,0.6209 1.0472,0.9476"/>
    <path id="_194948280" class="fil0 str2" d="M122.304 53.4757c1.6762,-1.313 2.0949,-1.4749 2.4207,-1.568 0.139,-0.0397 0.5696,-0.0786 0.8659,0.1055 0.3984,0.2476 0.8521,1.0841 0.8521,1.0841 0.9906,-0.7774 2.4261,-2.0735 3.245,-1.9295 0.2624,0.0462 0.3476,0.1745 0.501,0.3596l0.6181 0.751c0.419,-0.3177 0.847,-0.737 1.266,-1.0547 0.3973,-0.3451 0.6997,-0.5662 1.1549,-0.6955 0.2937,-0.0504 0.5294,-0.0644 0.7169,0.1647 0.2094,0.2543 0.4271,0.5856 0.664,0.9972 0.2392,-0.1864 0.5334,-0.4606 0.7727,-0.6472 0.386,-0.3153 0.7606,-0.6342 1.2023,-0.8301 0.2807,-0.1127 0.5763,-0.1917 0.7669,-0.0828 0.3146,0.1303 0.8038,0.621 1.0472,0.9478"/>
    <path id="_194948472" class="fil0 str2" d="M138.191 51.1838c1.6761,-1.313 2.0949,-1.475 2.4206,-1.568 0.139,-0.0396 0.5697,-0.0785 0.8659,0.1055 1.2363,1.3182 2.246,-0.0207 2.246,-0.0207"/>
    <path id="_194950008" class="fil0 str2" d="M113.436 49.6418c0.2936,-0.0502 1.1664,-0.361 1.3539,-0.132 0.2093,0.2545 0.4271,0.5856 0.6639,0.9974 0.2393,-0.1864 0.5335,-0.4607 0.7728,-0.6472 0.3859,-0.3152 0.7606,-0.6342 1.2023,-0.8301 0.2806,-0.1129 0.5763,-0.1919 0.7669,-0.0828 0.3146,0.1302 0.8038,0.6208 1.0472,0.9477"/>
    <path id="_194952312" class="fil0 str2" d="M119.037 50.0009c1.6761,-1.3131 2.0948,-1.475 2.4206,-1.568 0.139,-0.0398 0.5696,-0.0786 0.8659,0.1054 0.3984,0.2477 0.8521,1.0842 0.8521,1.0842 0.9907,-0.7775 2.4262,-2.0735 3.2451,-1.9296 0.2623,0.0463 0.3475,0.1745 0.501,0.3596l0.618 0.7511c0.419,-0.3177 0.8471,-0.7371 1.2661,-1.0547 0.3972,-0.3452 0.6996,-0.5663 1.1549,-0.6957 0.2936,-0.0503 0.5294,-0.0643 0.7169,0.1648 0.2093,0.2544 0.4271,0.5856 0.6639,0.9972 0.2393,-0.1864 0.5335,-0.4606 0.7728,-0.6472 0.3859,-0.3151 0.7605,-0.6341 1.2022,-0.8301 0.2807,-0.1127 0.5764,-0.1917 0.7669,-0.0827 0.3147,0.1302 0.8038,0.621 1.0472,0.9477"/>
    <path id="_195130312" class="fil0 str2" d="M112.87 46.9449c0.3859,-0.3152 1.0239,-0.9959 1.4656,-1.1918 0.2806,-0.1129 0.5763,-0.1919 0.7669,-0.0828 0.3146,0.1302 0.8038,0.6208 1.0472,0.9477"/>
    <path id="_194940024" class="fil0 str2" d="M115.944 46.7241c1.6761,-1.3131 2.0949,-1.4751 2.4206,-1.568 0.139,-0.0398 0.5697,-0.0786 0.8659,0.1054 0.3984,0.2477 0.8521,1.0842 0.8521,1.0842 0.9907,-0.7775 2.4262,-2.0735 3.2451,-1.9296 0.2623,0.0462 0.3475,0.1745 0.501,0.3596l0.618 0.7511c0.419,-0.3177 0.8471,-0.7371 1.2661,-1.0547 0.3972,-0.3451 0.6997,-0.5662 1.1549,-0.6957 0.2936,-0.0503 0.5294,-0.0643 0.7169,0.1648 0.2093,0.2544 0.4271,0.5856 0.6639,0.9972 0.2393,-0.1864 1.3559,-0.9438 1.5952,-1.1304"/>
    <path id="_194942520" class="fil0 str2" d="M111.935 42.4877c0.3147,0.1302 0.4211,0.3691 0.6645,0.6959"/>
    <path id="_194942712" class="fil0 str2" d="M112.393 43.2897c1.6761,-1.313 2.0949,-1.475 2.4207,-1.568 0.1389,-0.0398 0.5696,-0.0786 0.8659,0.1054 0.3984,0.2477 0.8521,1.0843 0.8521,1.0843 0.9906,-0.7776 2.4261,-2.0736 3.245,-1.9297 0.2624,0.0462 0.3476,0.1745 0.501,0.3596l0.6181 0.7511c0.419,-0.3177 1.3443,-1.0165 1.7633,-1.3341"/>
    <path id="_194945208" class="fil0 str2" d="M111.175 38.8698c0.139,-0.0397 1.3613,-0.2131 1.6575,-0.029 0.3984,0.2475 0.8522,1.0841 0.8522,1.0841 0.9906,-0.7776 2.4261,-2.0737 3.245,-1.9297 0.2624,0.0462 0.3476,0.1745 0.501,0.3597l0.618 0.7509"/>
    <line id="_197252128" class="fil0 str2" x1="130.462" y1="80.263" x2="116.643" y2= "66.4025" />
    <line id="_197260744" class="fil0 str2" x1="134.446" y1="79.5102" x2="115.723" y2= "60.5348" />
    <line id="_197263456" class="fil0 str2" x1="138.957" y1="78.8395" x2="114.301" y2= "53.8192" />
    <line id="_197266960" class="fil0 str2" x1="142.777" y1="78.4076" x2="112.966" y2= "48.196" />
    <line id="_197274856" class="fil0 str2" x1="146.431" y1="77.67" x2="111.935" y2= "42.4877" />
    <line id="_197269696" class="fil0 str2" x1="150.461" y1="77.1685" x2="111.305" y2= "37.4851" />
    <line id="_197260600" class="fil0 str2" x1="154.667" y1="76.5475" x2="117.359" y2= "38.723" />
    <line id="_197260672" class="fil0 str2" x1="158.626" y1="75.9308" x2="125.177" y2= "42.031" />
    <line id="_197269456" class="fil0 str2" x1="162.229" y1="75.3939" x2="132.373" y2= "45.136" />
    <line id="_197266216" class="fil0 str2" x1="166.041" y1="74.7565" x2="139.93" y2= "48.2947" />
    <line id="_197274496" class="fil0 str2" x1="170.345" y1="74.0261" x2="148.231" y2= "51.6139" />
    <line id="_197275408" class="fil0 str2" x1="174.314" y1="73.5298" x2="156.407" y2= "55.3821" />
    <line id="_197271160" class="fil0 str2" x1="178.188" y1="72.9497" x2="163.554" y2= "58.1192" />
    <line id="_197251720" class="fil0 str2" x1="181.942" y1="72.2514" x2="171.121" y2= "61.6499" />
    <line id="_197271376" class="fil0 str2" x1="186.211" y1="71.6114" x2="179.331" y2= "64.9229" />
   </g>
   <path id="_197247352_0" class="fil0 str2" d="M94.3004 76.3298c-0.4298,-0.3028 -0.8688,-0.7069 -1.2986,-1.0097 -0.4076,-0.3311 -0.7178,-0.5414 -1.1847,-0.6547 -0.3012,-0.0399 -0.543,-0.0455 -0.7354,0.1903 -0.2148,0.2618 -0.4381,0.6007 -0.6811,1.0208 -0.2454,-0.178 -0.5471,-0.4418 -0.7926,-0.6198 -0.3958,-0.3015 -0.7802,-0.6072 -1.2333,-0.7875 -0.2879,-0.1027 -0.5911,-0.1712 -0.7867,-0.0555 -0.3227,0.1414 -0.8245,0.6495 -1.0741,0.985"/>
   <path id="_197247352_1_0" class="fil0 str2" d="M91.5468 79.7396c-0.4298,-0.3028 -0.8688,-0.7069 -1.2986,-1.0097 -0.4076,-0.3311 -0.7178,-0.5414 -1.1847,-0.6547 -0.3012,-0.0398 -0.543,-0.0455 -0.7354,0.1903 -0.2148,0.2618 -0.4381,0.6007 -0.6811,1.0208 -0.2454,-0.178 -0.5471,-0.4418 -0.7926,-0.6198 -0.3958,-0.3014 -0.7802,-0.6071 -1.2333,-0.7875 -0.2879,-0.1027 -0.5911,-0.1712 -0.7867,-0.0555 -0.3227,0.1415 -0.8245,0.6496 -1.0741,0.985"/>
   <path id="_197247352_2" class="fil0 str2" d="M98.9939 80.4658c-0.4298,-0.3028 -0.8688,-0.7069 -1.2986,-1.0097 -0.4076,-0.3311 -0.7178,-0.5414 -1.1847,-0.6547 -0.3012,-0.0399 -0.543,-0.0455 -0.7354,0.1903 -0.2148,0.2618 -0.4381,0.6007 -0.6811,1.0208 -0.2454,-0.178 -0.5471,-0.4418 -0.7926,-0.6198 -0.3958,-0.3015 -0.7802,-0.6072 -1.2333,-0.7875 -0.2879,-0.1027 -0.5911,-0.1712 -0.7867,-0.0555 -0.3227,0.1414 -0.8245,0.6495 -1.0741,0.985"/>
   <path id="_197247352_3" class="fil0 str2" d="M101.999 77.2725c-0.4298,-0.3028 -0.8688,-0.7069 -1.2986,-1.0097 -0.4076,-0.3311 -0.7178,-0.5414 -1.1847,-0.6547 -0.3012,-0.0398 -0.543,-0.0455 -0.7354,0.1903 -0.2148,0.2618 -0.4381,0.6007 -0.6811,1.0208 -0.2454,-0.178 -0.5471,-0.4418 -0.7926,-0.6198 -0.3958,-0.3015 -0.7802,-0.6072 -1.2333,-0.7875 -0.2879,-0.1027 -0.5911,-0.1712 -0.7867,-0.0555 -0.3227,0.1414 -0.8245,0.6496 -1.0741,0.985"/>
   <path id="_197247352_4" class="fil0 str2" d="M109.754 78.1789c-0.4298,-0.3028 -0.8688,-0.707 -1.2986,-1.0097 -0.4076,-0.3311 -0.7178,-0.5414 -1.1847,-0.6547 -0.3012,-0.0399 -0.543,-0.0455 -0.7354,0.1903 -0.2148,0.2617 -0.4381,0.6007 -0.6811,1.0207 -0.2454,-0.1779 -0.5471,-0.4417 -0.7926,-0.6197 -0.3958,-0.3015 -0.7802,-0.6072 -1.2333,-0.7875 -0.2879,-0.1027 -0.5911,-0.1712 -0.7867,-0.0555 -0.3227,0.1414 -0.8245,0.6495 -1.0741,0.9849"/>
   <path id="_197247352_5" class="fil0 str2" d="M111.584 77.2246c-0.2879,-0.1027 -0.5911,-0.1712 -0.7867,-0.0554 -0.3227,0.1414 -0.8245,0.6495 -1.0741,0.9849"/>
   <path id="_197247352_6" class="fil0 str2" d="M102.078 73.3316c-0.4298,-0.3028 -0.8688,-0.707 -1.2986,-1.0097 -0.4076,-0.3311 -0.7178,-0.5414 -1.1847,-0.6547 -0.3012,-0.0399 -0.543,-0.0456 -0.7354,0.1903 -0.2148,0.2617 -0.4381,0.6007 -0.6811,1.0207 -0.2454,-0.178 -0.5471,-0.4417 -0.7926,-0.6198 -0.3958,-0.3014 -0.7802,-0.6071 -1.2333,-0.7874 -0.2879,-0.1027 -0.5911,-0.1712 -0.7867,-0.0555 -0.3227,0.1414 -0.8245,0.6495 -1.0741,0.9849"/>
   <path id="_197247352_7" class="fil0 str2" d="M109.776 74.2523c-0.4298,-0.3028 -0.8688,-0.707 -1.2986,-1.0097 -0.4076,-0.3311 -0.7178,-0.5414 -1.1847,-0.6547 -0.3012,-0.0399 -0.543,-0.0455 -0.7354,0.1903 -0.2148,0.2617 -0.4381,0.6007 -0.6811,1.0207 -0.2454,-0.1779 -0.5471,-0.4417 -0.7926,-0.6198 -0.3958,-0.3014 -0.7802,-0.6071 -1.2333,-0.7874 -0.2879,-0.1027 -0.5911,-0.1712 -0.7867,-0.0555 -0.3227,0.1414 -0.8245,0.6495 -1.0741,0.9849"/>
   <path id="_197247352_8" class="fil0 str2" d="M110.761 73.2569c-0.3227,0.1414 -0.8245,0.6495 -1.0741,0.985"/>
   <path id="_197247352_9" class="fil0 str2" d="M101.728 69.2081c-0.4298,-0.3028 -0.8688,-0.707 -1.2986,-1.0097 -0.4076,-0.3311 -0.7178,-0.5414 -1.1847,-0.6547 -0.3012,-0.0399 -0.543,-0.0455 -0.7354,0.1903 -0.2148,0.2617 -0.4381,0.6007 -0.6811,1.0207 -0.2454,-0.1779 -0.5471,-0.4417 -0.7926,-0.6198 -0.3958,-0.3014 -0.7802,-0.6071 -1.2333,-0.7874 -0.2879,-0.1027 -0.5911,-0.1712 -0.7867,-0.0555 -0.3227,0.1414 -0.8245,0.6495 -1.0741,0.9849"/>
   <path id="_197247352_10" class="fil0 str2" d="M109.496 70.0359c-0.4298,-0.3028 -0.8688,-0.707 -1.2986,-1.0097 -0.4076,-0.3311 -0.7178,-0.5414 -1.1847,-0.6547 -0.3012,-0.0399 -0.543,-0.0456 -0.7354,0.1902 -0.2148,0.2618 -0.4381,0.6008 -0.6811,1.0208 -0.2454,-0.178 -0.5471,-0.4417 -0.7926,-0.6198 -0.3958,-0.3014 -0.7802,-0.6071 -1.2333,-0.7874 -0.2879,-0.1028 -0.5911,-0.1712 -0.7867,-0.0555 -0.3227,0.1414 -0.8245,0.6495 -1.0741,0.9849"/>
   <path id="_197247352_11" class="fil0 str2" d="M105.658 65.5439c-0.4298,-0.3029 -0.8688,-0.707 -1.2986,-1.0098 -0.4076,-0.3311 -0.7178,-0.5413 -1.1847,-0.6546 -0.3012,-0.0399 -0.543,-0.0456 -0.7354,0.1902 -0.2148,0.2618 -0.4381,0.6008 -0.6811,1.0208 -0.2454,-0.178 -0.5471,-0.4417 -0.7926,-0.6198 -0.3958,-0.3014 -0.7802,-0.6071 -1.2333,-0.7875 -0.2879,-0.1027 -0.5911,-0.1712 -0.7867,-0.0554 -0.3227,0.1414 -0.8245,0.6495 -1.0741,0.9849"/>
   <path id="_197247352_12" class="fil0 str2" d="M109.412 66.0618c-0.2454,-0.178 -0.5471,-0.4418 -0.7926,-0.6198 -0.3958,-0.3015 -0.7802,-0.6072 -1.2333,-0.7875 -0.2879,-0.1027 -0.5911,-0.1712 -0.7867,-0.0555 -0.3227,0.1414 -0.8245,0.6495 -1.0741,0.985"/>
   <path id="_197247352_13" class="fil0 str2" d="M104.606 61.6493c-0.4298,-0.3029 -0.8688,-0.707 -1.2986,-1.0098 -0.4076,-0.3311 -0.7178,-0.5413 -1.1847,-0.6546 -0.3012,-0.0399 -0.543,-0.0456 -0.7354,0.1902 -0.2148,0.2618 -0.4381,0.6008 -0.6811,1.0208 -0.2454,-0.178 -0.5471,-0.4417 -0.7926,-0.6198 -0.3958,-0.3014 -0.7802,-0.6071 -1.2333,-0.7875 -0.2879,-0.1027 -0.5911,-0.1712 -0.7867,-0.0554 -0.3227,0.1414 -0.8245,0.6495 -1.0741,0.9849"/>
   <path id="_197247352_14" class="fil0 str2" d="M108.444 62.004c-0.2454,-0.1779 -0.5471,-0.4417 -0.7926,-0.6198 -0.3958,-0.3014 -0.7802,-0.6071 -1.2333,-0.7874 -0.2879,-0.1027 -0.5911,-0.1712 -0.7867,-0.0555 -0.3227,0.1414 -0.8245,0.6495 -1.0741,0.9849"/>
   <path id="_197247352_15" class="fil0 str2" d="M103.978 57.1143c-0.4298,-0.3028 -0.8688,-0.7069 -1.2986,-1.0097 -0.4076,-0.3311 -0.7178,-0.5414 -1.1847,-0.6547 -0.3012,-0.0398 -0.543,-0.0455 -0.7354,0.1903 -0.2148,0.2618 -0.4381,0.6007 -0.6811,1.0208 -0.2454,-0.178 -0.5471,-0.4418 -0.7926,-0.6198 -0.3958,-0.3015 -0.7802,-0.6072 -1.2333,-0.7875 -0.2879,-0.1027 -0.5911,-0.1712 -0.7867,-0.0555 -0.3227,0.1414 -0.8245,0.6496 -1.0741,0.985"/>
   <path id="_197247352_16" class="fil0 str2" d="M107.741 57.575c-0.2454,-0.178 -0.5471,-0.4417 -0.7926,-0.6198 -0.3958,-0.3014 -0.7802,-0.6071 -1.2333,-0.7875 -0.2879,-0.1027 -0.5911,-0.1712 -0.7867,-0.0554 -0.3227,0.1414 -0.8245,0.6495 -1.0741,0.9849"/>
   <path id="_197247352_17" class="fil0 str2" d="M107.107 53.3996c-0.4298,-0.3028 -0.8688,-0.7069 -1.2986,-1.0097 -0.4076,-0.3311 -0.7178,-0.5414 -1.1847,-0.6547 -0.3012,-0.0399 -0.543,-0.0455 -0.7354,0.1903 -0.2148,0.2618 -0.4381,0.6007 -0.6811,1.0208 -0.2454,-0.178 -0.5471,-0.4418 -0.7926,-0.6198 -0.3958,-0.3015 -0.7802,-0.6072 -1.2333,-0.7875 -0.2879,-0.1027 -0.5911,-0.1712 -0.7867,-0.0555 -0.3227,0.1414 -0.8245,0.6495 -1.0741,0.985"/>
   <path id="_197247352_18" class="fil0 str2" d="M106.578 49.5712c-0.4298,-0.3029 -0.8688,-0.707 -1.2986,-1.0098 -0.4076,-0.331 -0.7178,-0.5413 -1.1847,-0.6546 -0.3012,-0.0399 -0.543,-0.0456 -0.7354,0.1902 -0.2148,0.2618 -0.4381,0.6008 -0.6811,1.0208 -0.2454,-0.178 -0.5471,-0.4417 -0.7926,-0.6198 -0.3958,-0.3014 -0.7802,-0.6071 -1.2333,-0.7875 -0.2879,-0.1027 -0.5911,-0.1712 -0.7867,-0.0554 -0.3227,0.1414 -0.8245,0.6495 -1.0741,0.9849"/>
   <path id="_197247352_19" class="fil0 str2" d="M105.345 45.5389c-0.2454,-0.178 -0.5471,-0.4417 -0.7926,-0.6198 -0.3958,-0.3014 -0.7802,-0.6071 -1.2333,-0.7874 -0.2879,-0.1028 -0.5911,-0.1713 -0.7867,-0.0555 -0.3227,0.1414 -0.8245,0.6495 -1.0741,0.9849"/>
   <path id="_197247352_20" class="fil0 str2" d="M104.813 40.7859c-0.288,-0.1028 -1.529,-0.6243 -1.7246,-0.5086 -0.3227,0.1414 -0.8245,0.6495 -1.0741,0.9849"/>
   <path id="_197247352_21" class="fil0 str2" d="M106.441 81.192c-0.4298,-0.3028 -0.8688,-0.707 -1.2986,-1.0097 -0.4076,-0.3311 -0.7178,-0.5414 -1.1847,-0.6547 -0.3012,-0.0399 -0.543,-0.0455 -0.7354,0.1903 -0.2148,0.2617 -0.4381,0.6007 -0.6811,1.0207 -0.2454,-0.1779 -0.5471,-0.4417 -0.7926,-0.6197 -0.3958,-0.3015 -0.7802,-0.6072 -1.2333,-0.7875 -0.2879,-0.1027 -0.5911,-0.1712 -0.7867,-0.0555 -0.3227,0.1414 -0.8245,0.6495 -1.0741,0.985"/>
   <path id="_197247352_22" class="fil0 str2" d="M112.194 80.4299c-0.3011,-0.04 -1.3317,-0.2217 -1.5241,0.0142 -0.2148,0.2617 -0.4381,0.6007 -0.6811,1.0207 -0.2454,-0.1779 -0.5471,-0.4417 -0.7926,-0.6198 -0.3958,-0.3014 -0.7802,-0.6071 -1.2333,-0.7874 -0.2879,-0.1027 -0.5911,-0.1712 -0.7867,-0.0555 -0.3227,0.1414 -0.8245,0.6495 -1.0741,0.9849"/>
   <path id="_197248648_23" class="fil0 str2" d="M86.6309 75.4046c-1.7194,-1.2535 -2.1489,-1.4006 -2.4831,-1.482 -0.1426,-0.0349 -0.5843,-0.0584 -0.8882,0.1362 -0.4087,0.2618 -0.8741,1.1145 -0.8741,1.1145 -1.0161,-0.7424 -2.4886,-1.9875 -3.3286,-1.8145 -0.2692,0.0555 -0.3566,0.1868 -0.5139,0.3774l-0.6341 0.773c-0.4298,-0.3028 -0.8688,-0.707 -1.2986,-1.0096 -0.4075,-0.3311 -0.7177,-0.5415 -1.1846,-0.6548 -0.3013,-0.0399 -0.5431,-0.0456 -0.7354,0.1902 -0.2148,0.2618 -0.4381,0.6007 -0.6811,1.0208 -0.2454,-0.1778 -0.5472,-0.4417 -0.7928,-0.6198 -0.3958,-0.3014 -0.7801,-0.607 -1.2331,-0.7874 -0.288,-0.1028 -0.5912,-0.1713 -0.7867,-0.0555 -0.3227,0.1414 -0.8245,0.6495 -1.0742,0.9849"/>
   <path id="_197247448_24" class="fil0 str2" d="M70.3334 73.6767c-1.7193,-1.2535 -2.1489,-1.4007 -2.4831,-1.4821 -0.1425,-0.0348 -0.5843,-0.0583 -0.8881,0.1363 -0.4087,0.2618 -0.8742,1.1144 -0.8742,1.1144 -1.0161,-0.7423 -2.4886,-1.9874 -3.3286,-1.8144 -0.2692,0.0555 -0.3566,0.1868 -0.5139,0.3773l-0.634 0.7729c-0.4297,-0.3028 -0.8689,-0.7068 -1.2987,-1.0096 -0.4075,-0.3311 -0.7177,-0.5413 -1.1846,-0.6546 -0.3012,-0.0399 -0.5431,-0.0456 -0.7354,0.1901 -0.2147,0.2619 -0.4381,0.6007 -0.681,1.0209 -0.2455,-0.178 -0.5473,-0.4418 -0.7927,-0.6198 -0.3959,-0.3015 -0.7802,-0.6071 -1.2333,-0.7874 -0.288,-0.1029 -0.5912,-0.1714 -0.7867,-0.0556 -0.3227,0.1414 -0.8245,0.6494 -1.0742,0.9848"/>
   <path id="_197250208_25" class="fil0 str2" d="M54.0369 71.9488c-1.7194,-1.2535 -2.1488,-1.4006 -2.483,-1.482 -0.1426,-0.0349 -0.5843,-0.0584 -0.8883,0.1362 -0.4086,0.2618 -0.874,1.1145 -0.874,1.1145 -1.0162,-0.7424 -2.4887,-1.9875 -3.3287,-1.8145 -0.2691,0.0555 -0.3565,0.1868 -0.5139,0.3774l-0.634 0.773c-0.4298,-0.3028 -0.8688,-0.707 -1.2986,-1.0096 -0.4076,-0.3311 -0.7178,-0.5415 -1.1847,-0.6548 -0.3013,-0.0399 -0.543,-0.0456 -0.7354,0.1902 -0.2148,0.2618 -0.4381,0.6007 -0.6811,1.0208 -0.2454,-0.1778 -0.5471,-0.4417 -0.7927,-0.6198 -0.3959,-0.3014 -0.7801,-0.607 -1.2332,-0.7874 -0.2879,-0.1028 -0.5911,-0.1713 -0.7867,-0.0554 -0.3227,0.1413 -0.8245,0.6494 -1.0741,0.9848"/>
   <path id="_197256568_26" class="fil0 str2" d="M37.7384 70.2208c-1.7194,-1.2537 -2.1489,-1.4007 -2.4831,-1.4821 -0.1425,-0.0348 -0.5842,-0.0584 -0.8882,0.1363 -0.4086,0.2617 -0.874,1.1143 -0.874,1.1143 -1.0162,-0.7423 -2.1381,-1.9883 -2.9781,-1.8152 -0.2691,0.0555 -0.46,0.4159 -0.6174,0.6064l-0.8811 0.5447c-0.4298,-0.3028 -1.9966,-1.4446 -2.4264,-1.7474"/>
   <path id="_197248648_2_27" class="fil0 str2" d="M83.6705 78.8104c-1.7194,-1.2536 -2.1489,-1.4006 -2.4831,-1.482 -0.1426,-0.0349 -0.5843,-0.0584 -0.8882,0.1362 -0.4087,0.2618 -0.8741,1.1145 -0.8741,1.1145 -1.0161,-0.7425 -2.4886,-1.9876 -3.3286,-1.8145 -0.2692,0.0555 -0.3565,0.1868 -0.5139,0.3773l-0.634 0.773c-0.4298,-0.3027 -0.8689,-0.707 -1.2987,-1.0096 -0.4075,-0.3311 -0.7177,-0.5415 -1.1846,-0.6547 -0.3013,-0.04 -0.5431,-0.0456 -0.7354,0.1902 -0.2148,0.2618 -0.4381,0.6007 -0.6811,1.0208 -0.2454,-0.1779 -0.5472,-0.4417 -0.7927,-0.6198 -0.3959,-0.3015 -0.7801,-0.607 -1.2332,-0.7874 -0.288,-0.1028 -0.5912,-0.1713 -0.7867,-0.0555 -0.3227,0.1414 -0.8245,0.6494 -1.0742,0.9849"/>
   <path id="_197247448_3_28" class="fil0 str2" d="M67.373 77.0825c-1.7193,-1.2535 -2.1489,-1.4007 -2.4831,-1.4822 -0.1424,-0.0347 -0.5842,-0.0582 -0.8881,0.1364 -0.4086,0.2618 -0.8741,1.1143 -0.8741,1.1143 -1.0162,-0.7423 -2.4887,-1.9874 -3.3287,-1.8143 -0.2691,0.0555 -0.3565,0.1868 -0.5139,0.3773l-0.634 0.7729c-0.4297,-0.3028 -0.8689,-0.7069 -1.2987,-1.0096 -0.4075,-0.3311 -0.7177,-0.5414 -1.1846,-0.6546 -0.3012,-0.04 -0.5431,-0.0456 -0.7354,0.19 -0.2147,0.262 -0.4381,0.6008 -0.681,1.021 -0.2455,-0.178 -0.5473,-0.4419 -0.7927,-0.6198 -0.3959,-0.3015 -0.7802,-0.6072 -1.2333,-0.7874 -0.2879,-0.1029 -0.5912,-0.1715 -0.7867,-0.0556 -0.3227,0.1414 -0.8245,0.6494 -1.0742,0.9848"/>
   <path id="_197250208_4_29" class="fil0 str2" d="M51.0766 75.3546c-1.7194,-1.2535 -2.1489,-1.4006 -2.4831,-1.482 -0.1426,-0.0349 -0.5843,-0.0584 -0.8882,0.1362 -0.4087,0.2618 -0.8741,1.1145 -0.8741,1.1145 -1.0161,-0.7425 -2.4886,-1.9876 -3.3286,-1.8145 -0.2692,0.0555 -0.3566,0.1868 -0.514,0.3773l-0.634 0.773c-0.4298,-0.3027 -0.8688,-0.7069 -1.2986,-1.0096 -0.4076,-0.3311 -0.7177,-0.5415 -1.1847,-0.6547 -0.3012,-0.04 -0.543,-0.0456 -0.7354,0.1902 -0.2148,0.2618 -0.4381,0.6007 -0.6811,1.0208 -0.2453,-0.1779 -0.5471,-0.4417 -0.7927,-0.6198 -0.3958,-0.3015 -0.7801,-0.607 -1.2332,-0.7874 -0.2879,-0.1028 -0.5911,-0.1713 -0.7866,-0.0554 -0.3227,0.1413 -0.8246,0.6493 -1.0742,0.9848"/>
   <path id="_197256568_5_30" class="fil0 str2" d="M34.778 73.6266c-1.7194,-1.2537 -2.1488,-1.4008 -2.483,-1.4821 -0.1426,-0.0348 -0.5843,-0.0584 -0.8883,0.1362 -0.4086,0.2618 -0.874,1.1144 -0.874,1.1144 -1.0162,-0.7423 -2.4886,-1.9874 -3.3287,-1.8144 -0.2691,0.0556 -0.3565,0.1868 -0.5139,0.3773l-0.634 0.773c-0.4298,-0.3028 -0.8689,-0.7068 -1.2987,-1.0097 -0.4075,-0.331 -0.7177,-0.5413 -1.1846,-0.6546 -0.3013,-0.0399 -0.543,-0.0456 -0.7354,0.1901 -0.2148,0.2619 -0.4382,0.6007 -0.6811,1.0209 -0.2453,-0.1779 -0.5472,-0.4418 -0.7927,-0.6198 -0.3958,-0.3015 -0.7801,-0.6071 -1.2332,-0.7874"/>
   <path id="_197251240_31" class="fil0 str2" d="M94.3419 72.3829c-0.2454,-0.1779 -0.5472,-0.4416 -0.7927,-0.6197 -0.3958,-0.3016 -0.7802,-0.6072 -1.2333,-0.7875 -0.2879,-0.1027 -0.5911,-0.1713 -0.7866,-0.0555 -0.3227,0.1415 -0.8245,0.6495 -1.0742,0.9849"/>
   <path id="_197248744_32" class="fil0 str2" d="M90.5721 71.9112c-1.7193,-1.2536 -2.1489,-1.4007 -2.4831,-1.4822 -0.1424,-0.0347 -0.5842,-0.0583 -0.8882,0.1363 -0.4087,0.2617 -0.874,1.1144 -0.874,1.1144 -1.0162,-0.7423 -2.4887,-1.9874 -3.3287,-1.8144 -0.2691,0.0555 -0.3565,0.1868 -0.5139,0.3774l-0.634 0.773c-0.4298,-0.3029 -0.8689,-0.707 -1.2987,-1.0098 -0.4075,-0.331 -0.7177,-0.5414 -1.1846,-0.6546 -0.3012,-0.04 -0.5431,-0.0456 -0.7354,0.1902 -0.2148,0.2617 -0.4381,0.6008 -0.6811,1.0208 -0.2454,-0.178 -0.5472,-0.4417 -0.7926,-0.6198 -0.3959,-0.3015 -0.7802,-0.6071 -1.2333,-0.7874 -0.2879,-0.1028 -0.5912,-0.1713 -0.7867,-0.0556 -0.3227,0.1415 -0.8245,0.6495 -1.0742,0.985"/>
   <path id="_197247472_33" class="fil0 str2" d="M74.2744 70.1831c-1.7193,-1.2536 -2.1489,-1.4006 -2.483,-1.482 -0.1425,-0.0347 -0.5843,-0.0583 -0.8882,0.1363 -0.4086,0.2616 -0.8741,1.1143 -0.8741,1.1143 -1.0162,-0.7423 -2.4887,-1.9875 -3.3287,-1.8144 -0.2691,0.0555 -0.3565,0.1868 -0.5139,0.3774l-0.6339 0.7729c-0.4298,-0.3028 -0.8689,-0.7068 -1.2987,-1.0096 -0.4075,-0.331 -0.7178,-0.5414 -1.1847,-0.6548 -0.3012,-0.0398 -0.5431,-0.0455 -0.7354,0.1902 -0.2147,0.2619 -0.4381,0.6008 -0.681,1.0209 -0.2455,-0.1779 -0.5473,-0.4418 -0.7927,-0.6197 -0.3959,-0.3016 -0.7802,-0.6072 -1.2333,-0.7874 -0.2878,-0.1029 -0.5912,-0.1714 -0.7867,-0.0556 -0.3227,0.1413 -0.8245,0.6494 -1.0742,0.9849"/>
   <path id="_197249104_34" class="fil0 str2" d="M57.978 68.4554c-1.7193,-1.2536 -2.1489,-1.4008 -2.4831,-1.4822 -0.1425,-0.0347 -0.5843,-0.0583 -0.8882,0.1363 -0.4087,0.2617 -0.8741,1.1143 -0.8741,1.1143 -1.0161,-0.7422 -2.4886,-1.9873 -3.3286,-1.8143 -0.2692,0.0555 -0.3566,0.1868 -0.514,0.3774l-0.634 0.7729c-0.4298,-0.3028 -0.8688,-0.7069 -1.2986,-1.0097 -0.4075,-0.331 -0.7177,-0.5414 -1.1847,-0.6546 -0.3011,-0.04 -0.543,-0.0456 -0.7354,0.1902 -0.2147,0.2617 -0.4381,0.6007 -0.6811,1.0207 -0.2453,-0.1779 -0.5471,-0.4416 -0.7926,-0.6197 -0.3958,-0.3016 -0.7802,-0.6072 -1.2333,-0.7874 -0.2879,-0.1028 -0.5911,-0.1713 -0.7866,-0.0556 -0.3227,0.1415 -0.8246,0.6495 -1.0742,0.9849"/>
   <path id="_194944632_35" class="fil0 str2" d="M41.6805 66.7273c-1.7194,-1.2536 -2.1489,-1.4006 -2.4831,-1.482 -0.1426,-0.0348 -0.5843,-0.0583 -0.8882,0.1363 -0.4087,0.2616 -0.8741,1.1143 -0.8741,1.1143 -1.0161,-0.7423 -2.4886,-1.9875 -3.3286,-1.8144 -0.2692,0.0555 -0.3566,0.1868 -0.5139,0.3774l-0.6341 0.7729"/>
   <path id="_197257168_36" class="fil0 str2" d="M94.1112 68.2794c-1.7193,-1.2535 -2.1488,-1.4006 -2.4829,-1.482 -0.1426,-0.0349 -0.5844,-0.0585 -0.8883,0.1361 -0.4086,0.2618 -0.874,1.1145 -0.874,1.1145 -1.0163,-0.7424 -2.4888,-1.9875 -3.3288,-1.8144 -0.2691,0.0555 -0.3565,0.1868 -0.5139,0.3773l-0.6339 0.773c-0.4298,-0.3028 -0.8689,-0.7069 -1.2987,-1.0096 -0.4075,-0.3311 -0.7178,-0.5415 -1.1847,-0.6547 -0.3012,-0.04 -0.543,-0.0457 -0.7354,0.1901 -0.2147,0.2618 -0.4381,0.6008 -0.681,1.0208 -0.2455,-0.1778 -0.5472,-0.4416 -0.7927,-0.6198 -0.3958,-0.3013 -0.7802,-0.607 -1.2333,-0.7874 -0.2878,-0.1027 -0.5911,-0.1712 -0.7867,-0.0554 -0.3227,0.1414 -0.8245,0.6494 -1.0741,0.9848"/>
   <path id="_194951352_37" class="fil0 str2" d="M77.8133 66.5515c-1.7193,-1.2537 -2.1488,-1.4008 -2.483,-1.4822 -0.1425,-0.0347 -0.5843,-0.0583 -0.8883,0.1363 -0.4085,0.2617 -0.874,1.1143 -0.874,1.1143 -1.0162,-0.7422 -2.4887,-1.9873 -3.3287,-1.8143 -0.2691,0.0555 -0.3565,0.1868 -0.5139,0.3773l-0.634 0.7729c-0.4297,-0.3027 -0.8688,-0.7068 -1.2986,-1.0095 -0.4076,-0.3311 -0.7178,-0.5415 -1.1847,-0.6547 -0.3012,-0.04 -0.543,-0.0456 -0.7354,0.1901 -0.2147,0.2619 -0.4381,0.6007 -0.681,1.0208 -0.2455,-0.1779 -0.5472,-0.4417 -0.7927,-0.6197 -0.3958,-0.3016 -0.7802,-0.6072 -1.2333,-0.7874 -0.2879,-0.1029 -0.5911,-0.1714 -0.7867,-0.0556 -0.3227,0.1413 -0.8245,0.6495 -1.0741,0.9849"/>
   <path id="_195127048_38" class="fil0 str2" d="M61.5169 64.8236c-1.7194,-1.2536 -2.1489,-1.4007 -2.4831,-1.482 -0.1426,-0.0349 -0.5843,-0.0585 -0.8882,0.1361 -0.4087,0.2617 -0.8741,1.1145 -0.8741,1.1145 -1.0161,-0.7424 -2.4886,-1.9875 -3.3286,-1.8145 -0.2692,0.0555 -0.3566,0.1868 -0.5139,0.3774l-0.6341 0.773c-0.4298,-0.3028 -0.8688,-0.707 -1.2986,-1.0097 -0.4075,-0.3311 -0.7177,-0.5415 -1.1847,-0.6547 -0.3012,-0.04 -0.543,-0.0456 -0.7353,0.1902 -0.2148,0.2618 -0.4381,0.6007 -0.6811,1.0207 -0.2454,-0.1779 -0.5472,-0.4416 -0.7928,-0.6197 -0.3958,-0.3014 -0.7801,-0.6072 -1.2332,-0.7874 -0.2879,-0.1027 -0.5911,-0.1713 -0.7866,-0.0554 -0.3227,0.1413 -0.8245,0.6493 -1.0742,0.9848"/>
   <path id="_195127240_39" class="fil0 str2" d="M45.2194 63.0955c-1.7194,-1.2535 -2.1489,-1.4006 -2.4831,-1.482 -0.1426,-0.0347 -0.5843,-0.0583 -0.8882,0.1363 -0.4087,0.2617 -0.8741,1.1144 -0.8741,1.1144"/>
   <path id="_195130888_40" class="fil0 str2" d="M97.7299 64.5686c-1.7193,-1.2536 -2.1489,-1.4007 -2.483,-1.4821 -0.1426,-0.0348 -0.5844,-0.0584 -0.8882,0.1362 -0.4087,0.2617 -0.8741,1.1145 -0.8741,1.1145 -1.0162,-0.7424 -2.4887,-1.9875 -3.3287,-1.8145 -0.2692,0.0555 -0.3566,0.1868 -0.514,0.3774l-0.6339 0.773c-0.4298,-0.3029 -0.8689,-0.707 -1.2987,-1.0097 -0.4074,-0.3311 -0.7177,-0.5415 -1.1847,-0.6547 -0.3011,-0.04 -0.543,-0.0456 -0.7354,0.1902 -0.2146,0.2617 -0.4381,0.6007 -0.681,1.0207 -0.2454,-0.1778 -0.5472,-0.4416 -0.7927,-0.6197 -0.3958,-0.3014 -0.7802,-0.607 -1.2333,-0.7874 -0.2878,-0.1028 -0.5911,-0.1713 -0.7866,-0.0555 -0.3227,0.1414 -0.8246,0.6494 -1.0742,0.9848"/>
   <path id="_195131080_41" class="fil0 str2" d="M81.4326 62.8407c-1.7193,-1.2536 -2.1488,-1.4008 -2.483,-1.4822 -0.1426,-0.0347 -0.5843,-0.0583 -0.8882,0.1363 -0.4087,0.2618 -0.8741,1.1144 -0.8741,1.1144 -1.0162,-0.7423 -2.4887,-1.9874 -3.3287,-1.8144 -0.2691,0.0555 -0.3565,0.1868 -0.5139,0.3773l-0.634 0.7729c-0.4298,-0.3027 -0.8689,-0.7068 -1.2987,-1.0096 -0.4074,-0.331 -0.7176,-0.5413 -1.1847,-0.6546 -0.3011,-0.0399 -0.543,-0.0456 -0.7353,0.1901 -0.2147,0.2619 -0.4381,0.6007 -0.681,1.0209 -0.2454,-0.178 -0.5473,-0.4418 -0.7928,-0.6198 -0.3958,-0.3015 -0.7801,-0.6071 -1.2331,-0.7874 -0.288,-0.1028 -0.5913,-0.1714 -0.7867,-0.0555 -0.3228,0.1413 -0.8245,0.6493 -1.0742,0.9848"/>
   <path id="_195131272_42" class="fil0 str2" d="M65.1348 61.1126c-1.7193,-1.2536 -2.1489,-1.4006 -2.483,-1.482 -0.1426,-0.0349 -0.5844,-0.0585 -0.8882,0.1361 -0.4087,0.2618 -0.8741,1.1145 -0.8741,1.1145 -1.0162,-0.7424 -2.4887,-1.9875 -3.3287,-1.8145 -0.2692,0.0556 -0.3565,0.1869 -0.5139,0.3775l-0.634 0.7729c-0.4298,-0.3028 -0.8689,-0.7069 -1.2987,-1.0096 -0.4074,-0.3311 -0.7177,-0.5415 -1.1847,-0.6548 -0.3011,-0.0399 -0.543,-0.0455 -0.7353,0.1902 -0.2147,0.2619 -0.4381,0.6008 -0.681,1.0209 -0.2455,-0.1779 -0.5473,-0.4418 -0.7928,-0.6198 -0.3958,-0.3015 -0.7802,-0.6071 -1.2332,-0.7875 -0.2879,-0.1027 -0.5912,-0.1713 -0.7867,-0.0554 -0.3227,0.1413 -0.8245,0.6494 -1.0742,0.9848"/>
   <path id="_195132424_43" class="fil0 str2" d="M96.9364 60.7452c-1.0162,-0.7425 -2.4887,-1.9876 -3.3287,-1.8145 -0.2692,0.0555 -0.3566,0.1868 -0.5139,0.3773l-0.6339 0.773c-0.4298,-0.3027 -0.869,-0.7068 -1.2988,-1.0096 -0.4074,-0.3311 -0.7177,-0.5415 -1.1846,-0.6547 -0.3012,-0.04 -0.5431,-0.0456 -0.7354,0.1902 -0.2147,0.2618 -0.4381,0.6007 -0.681,1.0208 -0.2455,-0.1779 -0.5473,-0.4417 -0.7928,-0.6198 -0.3958,-0.3015 -0.7802,-0.6071 -1.2332,-0.7874 -0.2879,-0.1028 -0.5912,-0.1713 -0.7867,-0.0555 -0.3227,0.1414 -0.8245,0.6494 -1.0742,0.9849"/>
   <path id="_195132616_44" class="fil0 str2" d="M84.8844 59.2486c-1.7193,-1.2535 -2.1488,-1.4007 -2.483,-1.4821 -0.1426,-0.0348 -0.5843,-0.0583 -0.8882,0.1363 -0.4087,0.2617 -0.8741,1.1143 -0.8741,1.1143 -1.0162,-0.7423 -2.4886,-1.9873 -3.3287,-1.8143 -0.2691,0.0555 -0.3564,0.1868 -0.5139,0.3774l-0.6339 0.7729c-0.4298,-0.3027 -0.869,-0.7069 -1.2988,-1.0097 -0.4074,-0.331 -0.7176,-0.5414 -1.1846,-0.6546 -0.3012,-0.04 -0.5431,-0.0456 -0.7354,0.19 -0.2147,0.262 -0.4381,0.6008 -0.681,1.021 -0.2454,-0.178 -0.5473,-0.4417 -0.7927,-0.6198 -0.3959,-0.3016 -0.7801,-0.6072 -1.2332,-0.7874 -0.288,-0.1027 -0.5913,-0.1715 -0.7867,-0.0556 -0.3228,0.1415 -0.8245,0.6495 -1.0742,0.9849"/>
   <path id="_195132808_45" class="fil0 str2" d="M68.5875 57.5207c-1.7194,-1.2536 -2.1489,-1.4006 -2.483,-1.482 -0.1426,-0.0349 -0.5843,-0.0584 -0.8883,0.1362 -0.4086,0.2617 -0.874,1.1144 -0.874,1.1144 -1.0162,-0.7424 -2.4887,-1.9875 -3.3287,-1.8144 -0.2691,0.0555 -0.3565,0.1867 -0.5139,0.3773l-0.634 0.773c-0.4298,-0.3028 -0.8689,-0.7068 -1.2987,-1.0096 -0.4075,-0.3311 -0.7177,-0.5416 -1.1846,-0.6548 -0.3013,-0.0399 -0.543,-0.0455 -0.7354,0.1902 -0.2148,0.2618 -0.4381,0.6008 -0.6811,1.0208"/>
   <path id="_194945784_46" class="fil0 str2" d="M96.1637 56.2536c-0.4298,-0.3028 -0.8689,-0.707 -1.2987,-1.0097 -0.4075,-0.331 -0.7176,-0.5414 -1.1847,-0.6546 -0.3011,-0.04 -0.543,-0.0457 -0.7354,0.1902 -0.2147,0.2617 -0.4381,0.6007 -0.681,1.0207 -0.2454,-0.178 -0.5472,-0.4416 -0.7927,-0.6198 -0.3958,-0.3014 -0.7801,-0.6071 -1.2332,-0.7874 -0.2879,-0.1027 -0.5912,-0.1712 -0.7867,-0.0555 -0.3227,0.1415 -0.8245,0.6495 -1.0742,0.9849"/>
   <path id="_194945976_47" class="fil0 str2" d="M88.5884 55.4211c-1.7194,-1.2536 -2.1489,-1.4006 -2.4831,-1.482 -0.1426,-0.0348 -0.5843,-0.0584 -0.8882,0.1362 -0.4087,0.2618 -0.8741,1.1144 -0.8741,1.1144 -1.0161,-0.7422 -2.4886,-1.9873 -3.3287,-1.8143 -0.2691,0.0555 -0.3565,0.1868 -0.5138,0.3772l-0.6341 0.773c-0.4298,-0.3028 -0.8689,-0.7068 -1.2987,-1.0096 -0.4074,-0.3311 -0.7176,-0.5414 -1.1847,-0.6546 -0.3011,-0.04 -0.5429,-0.0457 -0.7352,0.1901 -0.2148,0.2618 -0.4383,0.6007 -0.6812,1.0208 -0.2453,-0.1779 -0.5472,-0.4418 -0.7927,-0.6197 -0.3958,-0.3016 -0.7801,-0.6072 -1.2332,-0.7875 -0.2879,-0.1028 -0.5912,-0.1713 -0.7866,-0.0555 -0.3228,0.1413 -0.8245,0.6494 -1.0742,0.9849"/>
   <path id="_194946168_48" class="fil0 str2" d="M72.2916 53.6933c-1.7194,-1.2535 -2.1489,-1.4007 -2.4831,-1.482 -0.1425,-0.0349 -0.5843,-0.0585 -0.8882,0.1361 -0.4087,0.2618 -0.8741,1.1144 -0.8741,1.1144 -1.0161,-0.7423 -2.4886,-1.9874 -3.3286,-1.8143 -0.2692,0.0554 -0.3566,0.1868 -0.5139,0.3773l-0.634 0.773"/>
   <path id="_194948088_49" class="fil0 str2" d="M99.4991 52.6751c-0.4298,-0.3028 -0.8689,-0.7069 -1.2987,-1.0096 -0.4074,-0.3311 -0.7176,-0.5414 -1.1847,-0.6548 -0.3011,-0.0398 -0.5429,-0.0454 -0.7353,0.1902 -0.2147,0.262 -0.4382,0.6008 -0.6811,1.0209 -0.2453,-0.1779 -0.5472,-0.4418 -0.7927,-0.6197 -0.3958,-0.3016 -0.7801,-0.6072 -1.2332,-0.7874 -0.2879,-0.1029 -0.5912,-0.1715 -0.7866,-0.0556 -0.3228,0.1413 -0.8246,0.6494 -1.0742,0.9848"/>
   <path id="_194948280_50" class="fil0 str2" d="M91.9238 51.8427c-1.7194,-1.2535 -2.1489,-1.4006 -2.4831,-1.4821 -0.1426,-0.0348 -0.5843,-0.0583 -0.8882,0.1362 -0.4087,0.2618 -0.8741,1.1145 -0.8741,1.1145 -1.0161,-0.7423 -2.4886,-1.9874 -3.3286,-1.8144 -0.2692,0.0555 -0.3566,0.1868 -0.5139,0.3774l-0.6341 0.7729c-0.4298,-0.3028 -0.8688,-0.7069 -1.2986,-1.0097 -0.4075,-0.3311 -0.7177,-0.5414 -1.1847,-0.6547 -0.3012,-0.0399 -0.543,-0.0455 -0.7353,0.1903 -0.2148,0.2618 -0.4381,0.6007 -0.6811,1.0208 -0.2454,-0.178 -0.5472,-0.4418 -0.7927,-0.6198 -0.3959,-0.3016 -0.7802,-0.6072 -1.2333,-0.7875 -0.2879,-0.1027 -0.5911,-0.1712 -0.7866,-0.0555 -0.3227,0.1414 -0.8245,0.6496 -1.0742,0.985"/>
   <path id="_194948472_51" class="fil0 str2" d="M75.6264 50.1147c-1.7193,-1.2535 -2.1489,-1.4006 -2.483,-1.482 -0.1426,-0.0348 -0.5844,-0.0583 -0.8882,0.1363"/>
   <path id="_194950008_52" class="fil0 str2" d="M98.9496 48.631c-0.2455,-0.1779 -0.5472,-0.4418 -0.7927,-0.6198 -0.3959,-0.3015 -0.7802,-0.6071 -1.2333,-0.7874 -0.2878,-0.1028 -0.5911,-0.1714 -0.7867,-0.0555 -0.3227,0.1413 -0.8245,0.6494 -1.0741,0.9848"/>
   <path id="_194952312_53" class="fil0 str2" d="M95.274 48.2519c-1.7193,-1.2536 -2.1488,-1.4006 -2.483,-1.482 -0.1426,-0.0349 -0.5843,-0.0584 -0.8882,0.1362 -0.4087,0.2617 -0.8741,1.1143 -0.8741,1.1143 -1.0162,-0.7423 -2.4887,-1.9874 -3.3287,-1.8143 -0.2691,0.0555 -0.3565,0.1868 -0.514,0.3774l-0.6339 0.7729c-0.4298,-0.3027 -0.8689,-0.7069 -1.2987,-1.0097 -0.4075,-0.3311 -0.7176,-0.5414 -1.1847,-0.6547 -0.3011,-0.0399 -0.543,-0.0455 -0.7354,0.1902 -0.2147,0.2619 -0.4381,0.6008 -0.681,1.0209 -0.2454,-0.178 -0.5472,-0.4418 -0.7927,-0.6198 -0.3958,-0.3015 -0.7801,-0.6072 -1.2332,-0.7875 -0.2879,-0.1027 -0.5912,-0.1712 -0.7866,-0.0555"/>
   <path id="_195130312_54" class="fil0 str2" d="M101.6 44.9771c-0.3958,-0.3016 -1.0503,-0.9596 -1.5034,-1.1399 -0.2878,-0.1028 -0.5911,-0.1713 -0.7866,-0.0555 -0.3227,0.1413 -0.8245,0.6494 -1.0742,0.9848"/>
   <path id="_194940024_55" class="fil0 str2" d="M98.4471 44.8653c-1.7193,-1.2535 -2.1489,-1.4006 -2.483,-1.482 -0.1426,-0.0349 -0.5844,-0.0585 -0.8882,0.1361 -0.4087,0.2618 -0.8741,1.1144 -0.8741,1.1144 -1.0162,-0.7423 -2.4887,-1.9874 -3.3287,-1.8143 -0.2691,0.0555 -0.3565,0.1868 -0.5139,0.3774l-0.634 0.7729c-0.4298,-0.3028 -0.8689,-0.7069 -1.2987,-1.0097 -0.4074,-0.331 -0.7177,-0.5414 -1.1847,-0.6546 -0.3011,-0.04 -0.543,-0.0457 -0.7353,0.1901"/>
   <path id="_194942520_56" class="fil0 str2" d="M102.56 40.4866c-0.3228,0.1414 -0.4319,0.3841 -0.6816,0.7195"/>
   <path id="_194942712_57" class="fil0 str2" d="M102.089 41.3049c-1.7193,-1.2535 -2.1489,-1.4006 -2.4831,-1.4821 -0.1425,-0.0348 -0.5843,-0.0584 -0.8882,0.1362 -0.4087,0.2618 -0.8741,1.1145 -0.8741,1.1145 -1.0161,-0.7424 -2.4886,-1.9875 -3.3286,-1.8145"/>
   <path id="_194945208_58" class="fil0 str2" d="M104.106 36.9904c-0.1426,-0.0347 -1.8973,-0.3928 -2.2011,-0.1982 -0.1644,0.1052 -1.0374,0.7931 -1.519,0.8426 -0.7163,0.0737 -1.3444,-0.439 -1.3444,-0.439"/>
   <line id="_428887296" class="fil0 str2" x1="83.5549" y1="78.9196" x2="107.405" y2= "54.708" />
   <line id="_428887632" class="fil0 str2" x1="87.4185" y1="79.2844" x2="107.891" y2= "57.3222" />
   <line id="_428887968" class="fil0 str2" x1="90.9627" y1="79.6715" x2="108.933" y2= "61.4289" />
   <line id="_428888304" class="fil0 str2" x1="94.7784" y1="80.0647" x2="109.419" y2= "65.5269" />
   <line id="_428888640" class="fil0 str2" x1="98.7445" y1="80.5543" x2="110.075" y2= "69.0518" />
   <line id="_428888976" class="fil0 str2" x1="102.358" y1="80.9555" x2="110.712" y2= "72.4745" />
   <line id="_428889312" class="fil0 str2" x1="105.996" y1="81.4559" x2="111.369" y2= "76.0016" />
   <line id="_428889648" class="fil0 str2" x1="109.305" y1="81.8214" x2="111.952" y2= "79.1343" />
   <line id="_428889984" class="fil0 str2" x1="79.4679" y1="78.3083" x2="106.585" y2= "50.3064" />
   <line id="_428890320" class="fil0 str2" x1="74.8407" y1="77.7976" x2="105.795" y2= "46.0604" />
   <line id="_428890656" class="fil0 str2" x1="70.9224" y1="77.5013" x2="105.063" y2= "42.1287" />
   <line id="_428890992" class="fil0 str2" x1="67.174" y1="76.8934" x2="104.386" y2= "38.4922" />
   <line id="_428891328" class="fil0 str2" x1="63.0405" y1="76.535" x2="103.206" y2= "35.4616" />
   <line id="_428891664" class="fil0 str2" x1="58.7257" y1="76.0632" x2="95.2182" y2= "38.7325" />
   <line id="_428892000" class="fil0 str2" x1="54.6646" y1="75.5871" x2="87.4566" y2= "42.0539" />
   <line id="_428892336" class="fil0 str2" x1="50.9692" y1="75.178" x2="80.514" y2= "44.9653" />
   <line id="_428892672" class="fil0 str2" x1="47.0592" y1="74.676" x2="73.0552" y2= "48.0931" />
   <line id="_428893008" class="fil0 str2" x1="42.6437" y1="74.0984" x2="64.6118" y2= "51.6338" />
   <line id="_428893344" class="fil0 str2" x1="38.5724" y1="73.7429" x2="56.9409" y2= "54.9596" />
   <line id="_428893680" class="fil0 str2" x1="34.5985" y1="73.3004" x2="49.6097" y2= "57.9504" />
   <line id="_428894016" class="fil0 str2" x1="30.7478" y1="72.7353" x2="42.5758" y2= "61.0196" />
   <line id="_428894352" class="fil0 str2" x1="26.3688" y1="72.247" x2="33.4263" y2= "65.3141" />
  </g>
 </g>
</svg>
