<?xml version="1.0" encoding="UTF-8"?>
<!DOCTYPE svg PUBLIC "-//W3C//DTD SVG 1.1//EN" "http://www.w3.org/Graphics/SVG/1.1/DTD/svg11.dtd">
<!-- Creator: CorelDRAW -->
<svg xmlns="http://www.w3.org/2000/svg" xml:space="preserve" width="210mm" height="297mm" style="shape-rendering:geometricPrecision; text-rendering:geometricPrecision; image-rendering:optimizeQuality; fill-rule:evenodd; clip-rule:evenodd"
viewBox="0 0 210 297"
 xmlns:xlink="http://www.w3.org/1999/xlink">
 <defs>
  <style type="text/css">
   <![CDATA[
    .str1 {stroke:#333333;stroke-width:0.2}
    .str0 {stroke:#333333;stroke-width:0.5}
    .fil0 {fill:none}
    .fil1 {fill:#999999}
   ]]>
  </style>
 </defs>
 <g id="Слой_x0020_1">
  <metadata id="CorelCorpID_0Corel-Layer"/>
  <line class="fil0 str0" x1="23.3073" y1="68.8807" x2="23.3079" y2= "104.999" />
  <line class="fil0 str0" x1="114.636" y1="82.2119" x2="115.674" y2= "124.027" />
  <line class="fil0 str0" x1="188.883" y1="68.0546" x2="188.679" y2= "107.22" />
  <polyline class="fil0 str0" points="23.3079,104.998 115.92,124.077 188.679,107.22 "/>
  <g id="_427736984">
   <polygon id="_197262592" class="fil1 str0" points="9.7057,67.4099 106.232,17.0524 198.311,67.1642 116.628,82.5115 "/>
   <line id="_197276272" class="fil0 str0" x1="106.149" y1="17.1688" x2="116.628" y2= "82.5115" />
   <g id="_194944440">
    <path id="_187782408" class="fil0 str0" d="M111.684 59.6581c2.5331,-3.089 2.8482,0.696 4.9481,-1.5088 0.9082,-0.9534 1.4071,-0.7154 2.0889,-0.2635 0.9868,0.6542 1.3722,0.4432 2.3618,-0.8438 0.434,-0.5644 1.2949,-0.7974 1.9039,-0.1983 0.4843,0.4764 0.8751,0.425 1.3024,0.4295"/>
    <path id="_187782312" class="fil0 str0" d="M124.17 57.2319c0.8358,0.216 1.1552,-0.7087 1.4209,-0.9789 1.5828,-1.6093 1.7051,1.6139 3.6346,-0.2903 0.908,-0.896 1.4071,-0.6268 2.0888,-0.1319 0.9869,0.7165 1.3723,0.5296 2.3619,-0.695 0.4339,-0.5369 1.2949,-0.7158 1.9039,-0.0784 0.4843,0.507 0.8751,0.4803 1.3024,0.5117"/>
    <path id="_187784328" class="fil0 str0" d="M136.766 55.542c0.8357,0.2161 1.1552,-0.7087 1.4208,-0.9789 1.5829,-1.6093 1.7051,1.614 3.6346,-0.2903 0.908,-0.8959 1.4071,-0.6268 2.0889,-0.1318 0.9868,0.7164 1.3722,0.5296 2.3618,-0.6949 0.434,-0.5371 1.2949,-0.716 1.9039,-0.0785 0.4843,0.507 0.8751,0.4802 1.3024,0.5116"/>
    <path id="_187788792" class="fil0 str0" d="M149.362 53.8521c0.8357,0.2161 1.1552,-0.7087 1.4209,-0.9788 1.5828,-1.6094 1.705,1.6138 3.6346,-0.2904 0.9079,-0.8958 1.407,-0.6267 2.0888,-0.1317 0.9868,0.7164 1.3723,0.5296 2.3618,-0.695 0.4339,-0.5371 1.2949,-0.716 1.9039,-0.0785 0.4843,0.5071 0.875,0.4803 1.3023,0.5117"/>
    <path id="_187787064" class="fil0 str0" d="M161.958 52.1622c0.8358,0.2161 1.1552,-0.7086 1.4209,-0.9788"/>
   </g>
   <path id="_187782408_0" class="fil0 str0" d="M109.413 39.7333c2.5331,-3.0458 2.8482,0.7444 4.9481,-1.4246 0.9082,-0.9379 1.4071,-0.6914 2.0889,-0.228 0.9868,0.671 1.3722,0.4665 2.3618,-0.8036 0.434,-0.5571 1.2949,-0.7755 1.9039,-0.166 0.4843,0.4847 0.8751,0.44 1.3024,0.4516"/>
   <path id="_187782312_1" class="fil0 str0" d="M121.899 37.5194c0.8358,0.2303 1.1552,-0.6891 1.4209,-0.9546 1.5828,-1.5824 1.7051,1.6428 3.6346,-0.2286 0.908,-0.8805 1.4071,-0.603 2.0888,-0.0964 0.9869,0.7333 1.3723,0.553 2.3619,-0.6547 0.4339,-0.5297 1.5221,-1.1189 2.1311,-0.4712 0.4843,0.5153 0.8061,0.6296 1.2334,0.6683"/>
   <path id="_187782408_2" class="fil0 str0" d="M53.3898 51.993c2.5923,-2.3584 2.9147,1.5173 5.0637,-0.0819 0.9294,-0.6914 1.4399,-0.3095 2.1377,0.339 1.0098,0.9388 1.4042,0.839 2.4169,-0.1626 0.4441,-0.4393 1.3252,-0.4241 1.9484,0.3506 0.4956,0.616 0.8955,0.6775 1.3328,0.8052"/>
   <path id="_187782408_3" class="fil0 str0" d="M50.3881 50.8148c0.4441,-0.4393 1.3251,-0.4241 1.9484,0.3507 0.4956,0.616 0.8955,0.6774 1.3328,0.8051"/>
   <path id="_187782312_4" class="fil0 str0" d="M66.1677 53.1677c0.8553,0.457 1.1822,-0.3756 1.4541,-0.5691 1.6198,-1.1529 1.7449,2.1056 3.7195,0.7578 0.9292,-0.6341 1.4399,-0.221 2.1376,0.4705 1.0099,1.0011 1.4043,0.9253 2.417,-0.0138 0.444,-0.4119 1.3252,-0.3425 1.9484,0.4706 0.4956,0.6467 0.8955,0.7326 1.3328,0.8873"/>
   <path id="_187784328_5" class="fil0 str0" d="M79.0577 55.1102c0.8552,0.4571 1.1821,-0.3755 1.4539,-0.5692 1.6199,-1.1527 1.745,2.1058 3.7195,0.758 0.9292,-0.6342 1.44,-0.2211 2.1377,0.4705 1.0098,1.001 1.4043,0.9254 2.417,-0.0138 0.4441,-0.412 1.3251,-0.3426 1.9483,0.4706 0.4956,0.6467 0.8956,0.7325 1.3328,0.8872"/>
   <path id="_187788792_6" class="fil0 str0" d="M91.9476 57.0527c0.8552,0.4572 1.1822,-0.3755 1.4541,-0.569 1.6198,-1.1529 1.7448,2.1055 3.7195,0.7578 0.9291,-0.6341 1.4398,-0.221 2.1376,0.4705 1.0098,1.0011 1.4043,0.9255 2.417,-0.0138 0.444,-0.4118 1.3252,-0.3424 1.9484,0.4706 0.4956,0.6467 0.8954,0.7327 1.3327,0.8873"/>
   <path id="_187787064_7" class="fil0 str0" d="M104.838 58.9954c0.8553,0.4571 1.1821,-0.3756 1.4541,-0.5691 1.6197,-1.1528 2.0681,2.1391 3.1328,0.8131 1.0647,-1.3258 1.9274,0.0926 2.2144,0.6371 0.3245,0.6159 1.3757,-0.7721 1.7248,-0.426"/>
   <path id="_187784328_8" class="fil0 str0" d="M75.8158 37.1045c0.8357,0.4225 1.3664,-1.0047 1.632,-1.2093 1.5829,-1.2185 1.7051,2.0349 3.6346,0.6069 0.908,-0.6718 1.4071,-0.2793 2.0889,0.3839 0.9868,0.96 1.3722,0.8684 2.3618,-0.1118 0.434,-0.43 1.2949,-0.3964 1.9039,0.3915 0.4843,0.6266 0.8751,0.6962 1.3024,0.8331"/>
   <path id="_187788792_9" class="fil0 str0" d="M88.6228 37.9429c0.8357,0.4224 1.1552,-0.4235 1.4209,-0.628 1.5828,-1.2186 1.705,2.0347 3.6346,0.6069 0.9079,-0.6718 1.407,-0.2794 2.0888,0.3839 0.9868,0.96 1.3723,0.8683 2.3618,-0.1119 0.4339,-0.4299 1.2949,-0.3963 1.9039,0.3915 0.4843,0.6267 0.875,0.6963 1.3023,0.8332"/>
   <path id="_187787064_10" class="fil0 str0" d="M101.219 39.3627c0.8358,0.4223 1.1552,-0.4235 1.4209,-0.6281 1.5828,-1.2186 2.021,2.0551 3.0614,0.686 1.0404,-1.3691 1.8834,0.0144 2.1638,0.5472 0.3171,0.6027 1.3443,-0.8279 1.6855,-0.4959"/>
   <line id="_197257720" class="fil0 str0" x1="170.678" y1="72.356" x2="109.565" y2= "39.249" />
   <line id="_197258392" class="fil0 str0" x1="194.135" y1="67.9487" x2="106.5" y2= "20.4642" />
   <line id="_197262760" class="fil0 str0" x1="146.788" y1="76.8449" x2="112.858" y2= "58.5589" />
   <line id="_197248456" class="fil0 str0" x1="46.6948" y1="72.6342" x2="107.776" y2= "39.9538" />
   <line id="_197275888" class="fil0 str0" x1="17.5975" y1="68.2642" x2="106.696" y2= "20.577" />
   <line id="_197271640" class="fil0 str0" x1="78.1699" y1="77.0798" x2="113.06" y2= "57.7368" />
   <polygon id="_197245864" class="fil1 str1" points="103.259,18.6034 112.496,81.9281 116.628,82.5115 120.225,81.8358 109.899,19.0483 106.232,17.0524 "/>
   <line id="_197264824" class="fil0 str1" x1="106.149" y1="17.1688" x2="116.628" y2= "82.5115" />
  </g>
 </g>
</svg>
