<?xml version="1.0" encoding="UTF-8"?>
<!DOCTYPE svg PUBLIC "-//W3C//DTD SVG 1.1//EN" "http://www.w3.org/Graphics/SVG/1.1/DTD/svg11.dtd">
<!-- Creator: CorelDRAW -->
<svg xmlns="http://www.w3.org/2000/svg" xml:space="preserve" width="210mm" height="297mm" style="shape-rendering:geometricPrecision; text-rendering:geometricPrecision; image-rendering:optimizeQuality; fill-rule:evenodd; clip-rule:evenodd"
viewBox="0 0 210 297"
 xmlns:xlink="http://www.w3.org/1999/xlink">
 <defs>
  <style type="text/css">
   <![CDATA[
    .str1 {stroke:#333333;stroke-width:0.2}
    .str2 {stroke:#333333;stroke-width:0.25}
    .str0 {stroke:#333333;stroke-width:0.5}
    .fil0 {fill:none}
    .fil2 {fill:#A33535}
    .fil1 {fill:#A33838}
   ]]>
  </style>
 </defs>
 <g id="Слой_x0020_1">
  <metadata id="CorelCorpID_0Corel-Layer"/>
  <line class="fil0 str0" x1="23.3073" y1="68.8807" x2="23.3079" y2= "104.999" />
  <line class="fil0 str0" x1="114.636" y1="82.2119" x2="115.674" y2= "124.027" />
  <line class="fil0 str0" x1="188.883" y1="68.0546" x2="188.679" y2= "107.22" />
  <polyline class="fil0 str0" points="23.3079,104.998 115.92,124.077 188.679,107.22 "/>
  <g id="_197246440">
   <polygon id="_428546504" class="fil1 str0" points="9.7057,64.9419 106.232,6.3546 198.311,64.6561 116.628,82.5115 "/>
   <line id="_428547680" class="fil0 str0" x1="106.149" y1="6.4901" x2="116.628" y2= "82.5115" />
   <line id="_428549192" class="fil0 str0" x1="194.135" y1="65.5687" x2="106.5" y2= "10.324" />
   <line id="_428549528" class="fil0 str0" x1="17.5975" y1="65.9358" x2="106.696" y2= "10.4552" />
   <polygon id="_428549672" class="fil2 str1" points="103.259,8.1591 112.496,81.8327 116.628,82.5115 120.225,81.7253 109.899,8.6767 106.232,6.3546 "/>
   <line id="_428550104" class="fil0 str1" x1="106.149" y1="6.4901" x2="116.628" y2= "82.5115" />
   <path id="_197247352_1" class="fil0 str2" d="M119.862 79.1642c0.2624,0.0686 2.2387,0.2301 2.3921,0.505l0.6181 1.1152c0.419,-0.4717 0.847,-1.0945 1.266,-1.5661 0.3973,-0.5126 0.6997,-0.8408 1.1549,-1.033 0.2936,-0.0747 0.5294,-0.0956 0.7169,0.2447 0.2094,0.3776 0.4271,0.8696 0.664,1.4807 0.2392,-0.2768 0.5334,-0.6839 0.7727,-0.9609 0.3859,-0.468 0.7606,-0.9417 1.2023,-1.2327 0.2807,-0.1674 0.5763,-0.2847 0.7669,-0.1229 0.3146,0.1934 0.8038,0.9222 1.0472,1.4073"/>
   <line id="_428550656" class="fil0 str2" x1="126.868" y1="79.6813" x2="118.063" y2= "66.431" />
   <g id="_197261344">
    <path id="_197247352" class="fil0 str2" d="M119.156 74.1703c0.2624,0.0686 0.0586,0.3188 0.212,0.5937l0.6181 1.1152c0.419,-0.4717 0.847,-1.0944 1.266,-1.5661 0.3973,-0.5125 0.6997,-0.8408 1.1549,-1.0329 0.2936,-0.0748 0.5294,-0.0956 0.7169,0.2446 0.2094,0.3777 0.4271,0.8696 0.664,1.4808 0.2392,-0.2768 0.5334,-0.684 0.7727,-0.9611 0.3859,-0.4679 0.7606,-0.9416 1.2023,-1.2325 0.2807,-0.1674 0.5763,-0.2847 0.7669,-0.1229 0.3146,0.1934 0.8038,0.922 1.0472,1.4073"/>
    <path id="_197248648" class="fil0 str2" d="M127.463 74.1113c1.6762,-1.9497 2.0949,-2.1902 2.4207,-2.3283 0.139,-0.0591 0.5696,-0.1168 0.8659,0.1566 0.3984,0.3677 0.8521,1.61 0.8521,1.61 0.9906,-1.1547 2.4261,-3.0791 3.245,-2.8653 0.2624,0.0685 0.3476,0.259 0.501,0.5339l0.6181 1.1152c0.419,-0.4717 0.847,-1.0943 1.266,-1.5659 0.3973,-0.5126 0.6997,-0.841 1.1549,-1.0331 0.2937,-0.0748 0.5294,-0.0957 0.7169,0.2446 0.2094,0.3777 0.4271,0.8696 0.664,1.4807 0.2392,-0.2766 0.5334,-0.6839 0.7728,-0.9609 0.3859,-0.468 0.7605,-0.9416 1.2022,-1.2327 0.2807,-0.1673 0.5763,-0.2846 0.7669,-0.1227 0.3146,0.1934 0.8038,0.922 1.0472,1.4071"/>
    <path id="_197247448" class="fil0 str2" d="M143.351 70.7081c1.6761,-1.9497 2.0949,-2.1904 2.4207,-2.3285 0.1388,-0.0589 0.5695,-0.1166 0.8657,0.1568 0.3984,0.3677 0.8522,1.6098 0.8522,1.6098 0.9906,-1.1545 2.4261,-3.0789 3.245,-2.8652 0.2624,0.0686 0.3476,0.2591 0.501,0.5338l0.6181 1.1152c0.4189,-0.4716 0.847,-1.0943 1.266,-1.5659 0.3973,-0.5126 0.6997,-0.8408 1.1549,-1.033 0.2936,-0.0747 0.5294,-0.0956 0.7169,0.2445 0.2093,0.3779 0.4271,0.8696 0.6639,1.4809 0.2393,-0.2768 0.5335,-0.6841 0.7728,-0.9609 0.3859,-0.4682 0.7606,-0.9417 1.2023,-1.2327 0.2807,-0.1675 0.5763,-0.2849 0.7669,-0.123 0.3146,0.1934 0.8038,0.922 1.0472,1.4073"/>
    <path id="_197250208" class="fil0 str2" d="M159.238 67.3049c1.6762,-1.9497 2.0949,-2.1902 2.4207,-2.3283 0.139,-0.0591 0.5696,-0.1168 0.8659,0.1566 0.3984,0.3677 0.8521,1.61 0.8521,1.61 0.9906,-1.1546 2.4261,-3.0792 3.245,-2.8654 0.2624,0.0687 0.3476,0.2591 0.501,0.534l0.6181 1.1152c0.419,-0.4717 0.847,-1.0944 1.266,-1.5659 0.3973,-0.5126 0.6997,-0.841 1.1549,-1.0331 0.2937,-0.0748 0.5294,-0.0956 0.7169,0.2446 0.2094,0.3777 0.4271,0.8696 0.664,1.4808 0.2392,-0.2767 0.5334,-0.684 0.7728,-0.9611 0.3859,-0.4679 0.7605,-0.9414 1.2022,-1.2325 0.2807,-0.1674 0.5763,-0.2848 0.7669,-0.1228 0.3146,0.1933 0.8038,0.9219 1.0472,1.4072"/>
    <path id="_197256568" class="fil0 str2" d="M175.127 63.9014c1.6762,-1.9499 2.0949,-2.1904 2.4207,-2.3284 0.139,-0.0589 0.5696,-0.1166 0.8659,0.1567 0.3984,0.3678 0.8521,1.6099 0.8521,1.6099 0.9906,-1.1545 2.4261,-3.079 3.245,-2.8653 0.2624,0.0686 0.3476,0.2592 0.501,0.5338l0.6181 1.1153c0.419,-0.4718 1.3918,-1.564 1.8108,-2.0356"/>
    <path id="_197248648_2" class="fil0 str2" d="M130.349 79.0165c1.6762,-1.9498 2.0949,-2.1903 2.4207,-2.3283 0.139,-0.0591 0.5696,-0.1168 0.8659,0.1566 0.3984,0.3676 0.8521,1.61 0.8521,1.61 0.9906,-1.1546 2.4261,-3.0791 3.245,-2.8654 0.2624,0.0686 0.3476,0.259 0.501,0.534l0.6181 1.1151c0.419,-0.4716 0.847,-1.0943 1.266,-1.5659 0.3973,-0.5125 0.6997,-0.8409 1.1549,-1.0331 0.2937,-0.0748 0.5294,-0.0956 0.7169,0.2447 0.2094,0.3776 0.4271,0.8695 0.664,1.4808 0.2392,-0.2767 0.5334,-0.684 0.7728,-0.961 0.3859,-0.468 0.7605,-0.9416 1.2022,-1.2327 0.2807,-0.1674 0.5763,-0.2847 0.7669,-0.1227 0.3146,0.1933 0.8037,0.9219 1.0471,1.4072"/>
    <path id="_197247448_3" class="fil0 str2" d="M146.237 75.6133c1.6761,-1.9498 2.0949,-2.1905 2.4207,-2.3285 0.1389,-0.0589 0.5696,-0.1166 0.8658,0.1568 0.3984,0.3676 0.8522,1.6098 0.8522,1.6098 0.9906,-1.1545 2.4261,-3.079 3.245,-2.8652 0.2624,0.0686 0.3476,0.259 0.501,0.5338l0.6181 1.1152c0.4189,-0.4717 0.847,-1.0943 1.266,-1.5659 0.3973,-0.5126 0.6997,-0.8408 1.1549,-1.033 0.2936,-0.0748 0.5294,-0.0956 0.7169,0.2444 0.2093,0.3779 0.4271,0.8697 0.6639,1.481 0.2393,-0.2768 0.5335,-0.6841 0.7728,-0.9609 0.3859,-0.4682 0.7606,-0.9418 1.2023,-1.2327 0.2807,-0.1676 0.5763,-0.285 0.7669,-0.1229 0.3146,0.1932 0.8038,0.9219 1.0472,1.4071"/>
    <path id="_197250208_4" class="fil0 str2" d="M162.124 72.2101c1.6762,-1.9497 2.0949,-2.1902 2.4207,-2.3283 0.139,-0.0591 0.5696,-0.1168 0.8659,0.1566 0.3984,0.3677 0.8521,1.61 0.8521,1.61 0.9906,-1.1547 2.4261,-3.0791 3.245,-2.8654 0.2624,0.0686 0.3476,0.2591 0.501,0.534l0.6181 1.1152c0.419,-0.4717 0.847,-1.0945 1.266,-1.5659 0.3973,-0.5126 0.6997,-0.841 1.1549,-1.0332 0.2937,-0.0747 0.5294,-0.0956 0.7169,0.2447 0.2094,0.3777 0.4271,0.8696 0.664,1.4807 0.2392,-0.2766 0.5334,-0.6839 0.7728,-0.9609 0.3859,-0.468 0.7605,-0.9416 1.2022,-1.2327 0.2807,-0.1674 0.5763,-0.2848 0.7669,-0.1227 0.3146,0.1932 0.8038,0.9219 1.0472,1.4071"/>
    <path id="_197256568_5" class="fil0 str2" d="M178.013 68.8067c1.6762,-1.95 2.0949,-2.1905 2.4207,-2.3285 0.139,-0.059 0.5696,-0.1166 0.8659,0.1566 0.3984,0.3678 0.8521,1.61 0.8521,1.61 0.9906,-1.1545 2.4261,-3.0791 3.245,-2.8653 0.2624,0.0686 0.3476,0.2591 0.501,0.5338l0.6181 1.1153c0.419,-0.4718 0.8471,-1.0943 1.2661,-1.566 0.3972,-0.5125 0.6996,-0.8407 1.1548,-1.0329 0.2937,-0.0749 0.5294,-0.0956 0.7169,0.2444 0.2094,0.3779 0.4272,0.8695 0.664,1.481 0.2392,-0.2768 0.5335,-0.6841 0.7728,-0.9611 0.3859,-0.468 0.7605,-0.9416 1.2022,-1.2326"/>
    <path id="_197251240" class="fil0 str2" d="M118.565 68.2951c0.2936,-0.0748 0.5294,-0.0956 0.7169,0.2447 0.2093,0.3776 0.4271,0.8694 0.6639,1.4808 0.2393,-0.2769 0.5335,-0.6841 0.7728,-0.961 0.3859,-0.4682 0.7606,-0.9418 1.2023,-1.2327 0.2807,-0.1674 0.5763,-0.2847 0.7669,-0.1229 0.3146,0.1935 0.8038,0.9221 1.0472,1.4071"/>
    <path id="_197248744" class="fil0 str2" d="M123.621 69.1262c1.6761,-1.9497 2.0949,-2.1902 2.4207,-2.3284 0.1389,-0.0588 0.5696,-0.1165 0.8659,0.1567 0.3984,0.3677 0.8521,1.6099 0.8521,1.6099 0.9906,-1.1544 2.4261,-3.079 3.245,-2.8652 0.2624,0.0686 0.3476,0.259 0.501,0.534l0.6181 1.1152c0.419,-0.4717 0.847,-1.0944 1.266,-1.5662 0.3973,-0.5125 0.6997,-0.8407 1.1549,-1.0328 0.2936,-0.0749 0.5294,-0.0956 0.7169,0.2446 0.2094,0.3777 0.4271,0.8695 0.664,1.4808 0.2392,-0.2769 0.5334,-0.6841 0.7727,-0.9611 0.3859,-0.4681 0.7606,-0.9417 1.2023,-1.2326 0.2807,-0.1674 0.5763,-0.2847 0.7669,-0.1229 0.3146,0.1935 0.8038,0.9221 1.0472,1.4074"/>
    <path id="_197247472" class="fil0 str2" d="M139.509 65.7228c1.6761,-1.9497 2.0949,-2.1902 2.4206,-2.3283 0.139,-0.0589 0.5697,-0.1166 0.8659,0.1568 0.3984,0.3675 0.8522,1.6098 0.8522,1.6098 0.9906,-1.1546 2.426,-3.0791 3.2449,-2.8653 0.2624,0.0686 0.3476,0.259 0.501,0.5339l0.618 1.1152c0.419,-0.4716 0.8471,-1.0942 1.2661,-1.5659 0.3972,-0.5126 0.6997,-0.8408 1.1549,-1.0331 0.2936,-0.0746 0.5294,-0.0956 0.7169,0.2446 0.2093,0.3779 0.4271,0.8696 0.6639,1.481 0.2393,-0.2769 0.5335,-0.6842 0.7728,-0.961 0.3859,-0.4682 0.7606,-0.9418 1.2023,-1.2327 0.2806,-0.1675 0.5763,-0.2848 0.7669,-0.1229 0.3146,0.1933 0.8038,0.922 1.0472,1.4071"/>
    <path id="_197249104" class="fil0 str2" d="M155.396 62.3198c1.6761,-1.9497 2.0949,-2.1904 2.4207,-2.3284 0.1389,-0.059 0.5696,-0.1167 0.8659,0.1567 0.3984,0.3677 0.8521,1.6098 0.8521,1.6098 0.9906,-1.1543 2.4261,-3.0789 3.245,-2.8651 0.2624,0.0686 0.3476,0.259 0.501,0.5339l0.6181 1.1152c0.419,-0.4717 0.847,-1.0943 1.266,-1.5661 0.3973,-0.5125 0.6997,-0.8408 1.1549,-1.0329 0.2936,-0.0748 0.5294,-0.0956 0.7169,0.2446 0.2094,0.3777 0.4271,0.8696 0.664,1.4809 0.2392,-0.2769 0.5334,-0.6841 0.7727,-0.9611 0.3859,-0.4681 0.7606,-0.9417 1.2023,-1.2327 0.2807,-0.1673 0.5763,-0.2846 0.7669,-0.1228 0.3146,0.1935 0.8038,0.9221 1.0472,1.4074"/>
    <path id="_194944632" class="fil0 str2" d="M171.284 58.9164c1.6762,-1.9497 2.0949,-2.1902 2.4207,-2.3283 0.139,-0.0589 0.5696,-0.1166 0.8659,0.1568 0.3984,0.3675 0.8521,1.6098 0.8521,1.6098 0.9906,-1.1546 2.4261,-3.0792 3.245,-2.8654 0.2624,0.0687 0.3476,0.2591 0.501,0.5341l0.6181 1.1151"/>
    <path id="_197257168" class="fil0 str2" d="M120.171 63.9153c1.6761,-1.9498 2.0949,-2.1903 2.4206,-2.3283 0.139,-0.0591 0.5697,-0.1167 0.8659,0.1566 0.3984,0.3676 0.8521,1.6101 0.8521,1.6101 0.9907,-1.1547 2.4262,-3.0793 3.2451,-2.8655 0.2624,0.0686 0.3476,0.259 0.501,0.534l0.618 1.1151c0.419,-0.4716 0.8471,-1.0943 1.2661,-1.5659 0.3972,-0.5125 0.6997,-0.8409 1.1549,-1.0331 0.2936,-0.0748 0.5294,-0.0956 0.7169,0.2447 0.2093,0.3776 0.4271,0.8695 0.6639,1.4808 0.2393,-0.2767 0.5335,-0.6841 0.7728,-0.961 0.3859,-0.4679 0.7606,-0.9416 1.2023,-1.2327 0.2806,-0.1674 0.5763,-0.2847 0.7669,-0.1227 0.3146,0.1933 0.8038,0.9219 1.0472,1.4072"/>
    <path id="_194951352" class="fil0 str2" d="M136.059 60.5119c1.6761,-1.9498 2.0949,-2.1904 2.4207,-2.3284 0.1389,-0.0589 0.5696,-0.1166 0.8659,0.1567 0.3983,0.3677 0.8521,1.6099 0.8521,1.6099 0.9906,-1.1545 2.4261,-3.079 3.245,-2.8652 0.2624,0.0686 0.3476,0.259 0.501,0.5338l0.6181 1.1151c0.4189,-0.4716 0.847,-1.0942 1.266,-1.5659 0.3972,-0.5125 0.6996,-0.8407 1.1548,-1.0329 0.2936,-0.0748 0.5294,-0.0956 0.7169,0.2444 0.2093,0.3779 0.4271,0.8696 0.6639,1.481 0.2393,-0.2768 0.5335,-0.6841 0.7728,-0.961 0.3859,-0.4681 0.7606,-0.9417 1.2023,-1.2326 0.2807,-0.1676 0.5763,-0.285 0.7669,-0.1229 0.3146,0.1932 0.8038,0.9218 1.0472,1.4071"/>
    <path id="_195127048" class="fil0 str2" d="M151.946 57.1088c1.6762,-1.9497 2.0949,-2.1903 2.4207,-2.3283 0.139,-0.0591 0.5696,-0.1168 0.8659,0.1566 0.3984,0.3676 0.8521,1.61 0.8521,1.61 0.9906,-1.1547 2.4261,-3.0791 3.245,-2.8654 0.2624,0.0686 0.3476,0.2591 0.501,0.534l0.6181 1.1152c0.419,-0.4717 0.847,-1.0945 1.266,-1.5661 0.3973,-0.5124 0.6997,-0.8408 1.1549,-1.033 0.2937,-0.0748 0.5294,-0.0956 0.7169,0.2446 0.2094,0.3777 0.4271,0.8696 0.664,1.4808 0.2392,-0.2768 0.5334,-0.6839 0.7728,-0.9609 0.3859,-0.468 0.7605,-0.9417 1.2022,-1.2327 0.2807,-0.1674 0.5763,-0.2848 0.7669,-0.1227 0.3146,0.1932 0.8038,0.9219 1.0472,1.4071"/>
    <path id="_195127240" class="fil0 str2" d="M167.834 53.7054c1.6762,-1.9498 2.0949,-2.1902 2.4207,-2.3283 0.139,-0.0589 0.5696,-0.1166 0.8659,0.1566 0.3984,0.3678 0.8521,1.61 0.8521,1.61"/>
    <path id="_195130888" class="fil0 str2" d="M116.643 58.5909c1.6761,-1.9497 2.0949,-2.1903 2.4206,-2.3283 0.139,-0.0591 0.5697,-0.1168 0.8659,0.1566 0.3984,0.3677 0.8521,1.61 0.8521,1.61 0.9907,-1.1546 2.4262,-3.0792 3.2451,-2.8654 0.2624,0.0686 0.3476,0.259 0.501,0.534l0.618 1.1152c0.419,-0.4717 0.8471,-1.0944 1.2661,-1.566 0.3972,-0.5125 0.6997,-0.8409 1.1549,-1.0331 0.2936,-0.0747 0.5294,-0.0956 0.7169,0.2446 0.2093,0.3778 0.4271,0.8696 0.6639,1.4809 0.2393,-0.2767 0.5335,-0.684 0.7728,-0.961 0.3859,-0.468 0.7606,-0.9416 1.2023,-1.2327 0.2806,-0.1674 0.5763,-0.2847 0.7669,-0.1227 0.3146,0.1933 0.8038,0.9219 1.0472,1.4072"/>
    <path id="_195131080" class="fil0 str2" d="M132.531 55.1877c1.6761,-1.9497 2.0948,-2.1904 2.4206,-2.3284 0.139,-0.059 0.5696,-0.1167 0.8659,0.1567 0.3984,0.3677 0.8521,1.6098 0.8521,1.6098 0.9907,-1.1545 2.4262,-3.0789 3.2451,-2.8652 0.2623,0.0687 0.3475,0.2591 0.501,0.5339l0.618 1.1151c0.419,-0.4716 0.8471,-1.0943 1.2661,-1.5659 0.3972,-0.5125 0.6996,-0.8408 1.1549,-1.033 0.2936,-0.0747 0.5294,-0.0956 0.7169,0.2445 0.2093,0.3779 0.4271,0.8696 0.6639,1.481 0.2392,-0.2768 0.5335,-0.6842 0.7728,-0.961 0.3858,-0.4682 0.7604,-0.9417 1.2021,-1.2327 0.2807,-0.1675 0.5764,-0.2849 0.7669,-0.1228 0.3147,0.1932 0.8038,0.9218 1.0472,1.4071"/>
    <path id="_195131272" class="fil0 str2" d="M148.419 51.7842c1.6761,-1.9498 2.0949,-2.1902 2.4206,-2.3282 0.139,-0.0591 0.5697,-0.1168 0.8659,0.1565 0.3984,0.3677 0.8521,1.61 0.8521,1.61 0.9907,-1.1546 2.4262,-3.0792 3.2451,-2.8654 0.2624,0.0686 0.3475,0.2591 0.501,0.5341l0.618 1.1151c0.419,-0.4717 0.8471,-1.0944 1.2661,-1.5659 0.3972,-0.5125 0.6997,-0.8409 1.1549,-1.0331 0.2936,-0.0749 0.5294,-0.0956 0.7169,0.2446 0.2093,0.3777 0.4271,0.8695 0.6639,1.4808 0.2393,-0.2767 0.5335,-0.684 0.7728,-0.9611 0.3859,-0.4679 0.7606,-0.9414 1.2023,-1.2326 0.2806,-0.1673 0.5763,-0.2847 0.7669,-0.1227 0.3146,0.1933 0.8038,0.9219 1.0472,1.4072"/>
    <path id="_195132424" class="fil0 str2" d="M115.89 51.0624c0.139,-0.0591 0.3783,-0.0729 0.6745,0.2004 0.3984,0.3676 0.8521,1.6099 0.8521,1.6099 0.9907,-1.1546 2.4262,-3.0792 3.2451,-2.8654 0.2624,0.0686 0.3476,0.259 0.501,0.534l0.618 1.1152c0.419,-0.4717 0.8471,-1.0942 1.2661,-1.566 0.3972,-0.5125 0.6997,-0.8409 1.1549,-1.0331 0.2936,-0.0747 0.5294,-0.0956 0.7169,0.2447 0.2093,0.3779 0.4271,0.8695 0.6639,1.4808 0.2393,-0.2767 0.5335,-0.684 0.7728,-0.961 0.3859,-0.468 0.7606,-0.9416 1.2023,-1.2327 0.2806,-0.1674 0.5763,-0.2847 0.7669,-0.1227 0.3146,0.1933 0.8038,0.9219 1.0472,1.4072"/>
    <path id="_195132616" class="fil0 str2" d="M129.166 50.0312c1.6761,-1.9497 2.0948,-2.1904 2.4206,-2.3284 0.139,-0.059 0.5696,-0.1167 0.8659,0.1567 0.3984,0.3677 0.8521,1.6098 0.8521,1.6098 0.9907,-1.1545 2.4261,-3.0789 3.2451,-2.8652 0.2623,0.0687 0.3475,0.2591 0.501,0.534l0.618 1.1152c0.419,-0.4717 0.8471,-1.0945 1.2661,-1.5661 0.3972,-0.5125 0.6996,-0.8408 1.1549,-1.033 0.2936,-0.0747 0.5294,-0.0956 0.7169,0.2445 0.2093,0.3779 0.4271,0.8696 0.6639,1.4811 0.2392,-0.2769 0.5335,-0.6841 0.7728,-0.9611 0.3859,-0.4682 0.7605,-0.9417 1.2022,-1.2327 0.2807,-0.1673 0.5764,-0.2849 0.7669,-0.1228 0.3147,0.1933 0.8038,0.9221 1.0472,1.4071"/>
    <path id="_195132808" class="fil0 str2" d="M145.053 46.6279c1.6761,-1.9497 2.0948,-2.1902 2.4206,-2.3283 0.139,-0.0591 0.5696,-0.1166 0.8659,0.1568 0.3984,0.3675 0.8521,1.6098 0.8521,1.6098 0.9906,-1.1546 2.4261,-3.0792 3.245,-2.8653 0.2624,0.0686 0.3476,0.259 0.501,0.534l0.6181 1.1151c0.419,-0.4716 0.8471,-1.0943 1.2661,-1.5659 0.3972,-0.5126 0.6996,-0.8409 1.1548,-1.0331 0.2937,-0.0748 0.5294,-0.0956 0.7169,0.2446 0.2094,0.3777 0.4271,0.8696 0.664,1.4808 0.2392,-0.2767 0.5334,-0.684 0.7728,-0.9611"/>
    <path id="_194945784" class="fil0 str2" d="M114.928 44.256c0.2623,0.0686 2.4705,0.5173 2.624,0.7922l0.618 1.1152c0.419,-0.4717 0.8471,-1.0944 1.2661,-1.5661 0.3972,-0.5124 0.6996,-0.8408 1.1549,-1.033 0.2936,-0.0747 0.5294,-0.0956 0.7169,0.2446 0.2093,0.3778 0.4271,0.8696 0.6639,1.4809 0.2393,-0.2769 0.5335,-0.684 0.7728,-0.961 0.3859,-0.468 0.7605,-0.9417 1.2022,-1.2327 0.2807,-0.1674 0.5764,-0.2847 0.767,-0.1229 0.3146,0.1935 0.8037,0.9222 1.0472,1.4074"/>
    <path id="_194945976" class="fil0 str2" d="M125.555 44.538c1.6762,-1.9498 2.0949,-2.1903 2.4207,-2.3283 0.139,-0.059 0.5696,-0.1167 0.8659,0.1567 0.3984,0.3677 0.8521,1.6098 0.8521,1.6098 0.9906,-1.1543 2.4261,-3.0789 3.2451,-2.8652 0.2623,0.0687 0.3475,0.2591 0.5009,0.5339l0.6181 1.1151c0.419,-0.4716 0.8471,-1.0941 1.2661,-1.5659 0.3972,-0.5125 0.6996,-0.8408 1.1549,-1.033 0.2936,-0.0747 0.5293,-0.0955 0.7168,0.2445 0.2094,0.3779 0.4272,0.8696 0.664,1.4811 0.2392,-0.2769 0.5335,-0.6843 0.7728,-0.9611 0.3859,-0.4682 0.7605,-0.9417 1.2022,-1.2326 0.2807,-0.1676 0.5764,-0.285 0.7669,-0.1229 0.3147,0.1932 0.8038,0.9218 1.0472,1.4071"/>
    <path id="_194946168" class="fil0 str2" d="M141.442 41.1349c1.6762,-1.9497 2.0949,-2.1902 2.4207,-2.3283 0.1389,-0.0591 0.5696,-0.1168 0.8659,0.1566 0.3984,0.3677 0.8521,1.6098 0.8521,1.6098 0.9905,-1.1545 2.426,-3.0789 3.2449,-2.8652 0.2624,0.0686 0.3476,0.2591 0.501,0.534l0.6181 1.1152c0.419,-0.4717 0.4559,-0.6221 0.8749,-1.0937"/>
    <path id="_194948088" class="fil0 str2" d="M114.301 39.9058l0.618 1.1152c0.419,-0.4717 0.8471,-1.0942 1.2661,-1.566 0.3972,-0.5125 0.6996,-0.8407 1.1549,-1.0331 0.2936,-0.0746 0.5293,-0.0953 0.7168,0.2448 0.2094,0.3778 0.4272,0.8694 0.664,1.4809 0.2392,-0.2769 0.5335,-0.6842 0.7728,-0.9611 0.3859,-0.4681 0.7605,-0.9417 1.2022,-1.2326 0.2807,-0.1675 0.5764,-0.2849 0.7669,-0.1229 0.3147,0.1933 0.8038,0.922 1.0472,1.4072"/>
    <path id="_194948280" class="fil0 str2" d="M122.304 39.3957c1.6762,-1.9497 2.0949,-2.1902 2.4207,-2.3284 0.139,-0.059 0.5696,-0.1167 0.8659,0.1567 0.3984,0.3677 0.8521,1.6098 0.8521,1.6098 0.9906,-1.1543 2.4261,-3.0789 3.245,-2.8651 0.2624,0.0686 0.3476,0.259 0.501,0.5339l0.6181 1.1152c0.419,-0.4717 0.847,-1.0943 1.266,-1.5661 0.3973,-0.5125 0.6997,-0.8408 1.1549,-1.0329 0.2937,-0.0748 0.5294,-0.0956 0.7169,0.2446 0.2094,0.3777 0.4271,0.8696 0.664,1.4809 0.2392,-0.2769 0.5334,-0.6841 0.7727,-0.9611 0.386,-0.4682 0.7606,-0.9417 1.2023,-1.2326 0.2807,-0.1674 0.5763,-0.2847 0.7669,-0.1229 0.3146,0.1935 0.8038,0.9221 1.0472,1.4074"/>
    <path id="_194948472" class="fil0 str2" d="M138.191 35.9924c1.6761,-1.9497 2.0949,-2.1903 2.4206,-2.3283 0.139,-0.0589 0.5697,-0.1167 0.8659,0.1567 1.2363,1.9573 2.246,-0.0308 2.246,-0.0308"/>
    <path id="_194950008" class="fil0 str2" d="M113.436 33.7027c0.2936,-0.0747 1.1664,-0.536 1.3539,-0.196 0.2093,0.3779 0.4271,0.8695 0.6639,1.481 0.2393,-0.2769 0.5335,-0.6841 0.7728,-0.9611 0.3859,-0.468 0.7606,-0.9416 1.2023,-1.2326 0.2806,-0.1676 0.5763,-0.2849 0.7669,-0.1229 0.3146,0.1933 0.8038,0.9219 1.0472,1.4072"/>
    <path id="_194952312" class="fil0 str2" d="M119.037 34.2358c1.6761,-1.9497 2.0948,-2.1902 2.4206,-2.3283 0.139,-0.0591 0.5696,-0.1168 0.8659,0.1566 0.3984,0.3677 0.8521,1.6098 0.8521,1.6098 0.9907,-1.1544 2.4262,-3.0789 3.2451,-2.8652 0.2623,0.0687 0.3475,0.2591 0.501,0.534l0.618 1.1153c0.419,-0.4718 0.8471,-1.0945 1.2661,-1.5662 0.3972,-0.5126 0.6996,-0.8408 1.1549,-1.033 0.2936,-0.0747 0.5294,-0.0956 0.7169,0.2448 0.2093,0.3777 0.4271,0.8695 0.6639,1.4807 0.2393,-0.2769 0.5335,-0.684 0.7728,-0.961 0.3859,-0.4679 0.7605,-0.9417 1.2022,-1.2327 0.2807,-0.1673 0.5764,-0.2847 0.7669,-0.1228 0.3147,0.1934 0.8038,0.9221 1.0472,1.4073"/>
    <path id="_195130312" class="fil0 str2" d="M112.87 29.698c0.3859,-0.468 1.0239,-1.4788 1.4656,-1.7698 0.2806,-0.1676 0.5763,-0.2849 0.7669,-0.1229 0.3146,0.1933 0.8038,0.9219 1.0472,1.4072"/>
    <path id="_194940024" class="fil0 str2" d="M115.944 29.37c1.6761,-1.9497 2.0949,-2.1902 2.4206,-2.3282 0.139,-0.0591 0.5697,-0.1168 0.8659,0.1565 0.3984,0.3678 0.8521,1.6099 0.8521,1.6099 0.9907,-1.1545 2.4262,-3.079 3.2451,-2.8653 0.2623,0.0686 0.3475,0.2592 0.501,0.534l0.618 1.1153c0.419,-0.4718 0.8471,-1.0945 1.2661,-1.5662 0.3972,-0.5123 0.6997,-0.8408 1.1549,-1.0329 0.2936,-0.0748 0.5294,-0.0956 0.7169,0.2446 0.2093,0.3778 0.4271,0.8696 0.6639,1.4808 0.2393,-0.2769 1.3559,-1.4015 1.5952,-1.6786"/>
    <path id="_194942520" class="fil0 str2" d="M111.935 23.0794c0.3147,0.1933 0.4211,0.548 0.6645,1.0333"/>
    <path id="_194942712" class="fil0 str2" d="M112.393 24.2703c1.6761,-1.9498 2.0949,-2.1902 2.4207,-2.3283 0.1389,-0.0591 0.5696,-0.1168 0.8659,0.1565 0.3984,0.3678 0.8521,1.6101 0.8521,1.6101 0.9906,-1.1547 2.4261,-3.0792 3.245,-2.8655 0.2624,0.0686 0.3476,0.2592 0.501,0.534l0.6181 1.1153c0.419,-0.4718 1.3443,-1.5094 1.7633,-1.9811"/>
    <path id="_194945208" class="fil0 str2" d="M111.175 17.7071c0.139,-0.059 1.3613,-0.3165 1.6575,-0.0431 0.3984,0.3675 0.8522,1.6098 0.8522,1.6098 0.9906,-1.1546 2.4261,-3.0792 3.245,-2.8653 0.2624,0.0686 0.3476,0.259 0.501,0.534l0.618 1.1151"/>
    <line id="_197252128" class="fil0 str2" x1="130.462" y1="79.1726" x2="116.643" y2= "58.5909" />
    <line id="_197260744" class="fil0 str2" x1="134.446" y1="78.0549" x2="115.723" y2= "49.8779" />
    <line id="_197263456" class="fil0 str2" x1="138.957" y1="77.0588" x2="114.301" y2= "39.9058" />
    <line id="_197266960" class="fil0 str2" x1="142.777" y1="76.4175" x2="112.966" y2= "31.5557" />
    <line id="_197274856" class="fil0 str2" x1="146.431" y1="75.3223" x2="111.935" y2= "23.0794" />
    <line id="_197269696" class="fil0 str2" x1="150.461" y1="74.5776" x2="111.305" y2= "15.6509" />
    <line id="_197260600" class="fil0 str2" x1="154.667" y1="73.6554" x2="117.359" y2= "17.4892" />
    <line id="_197260672" class="fil0 str2" x1="158.626" y1="72.7396" x2="125.177" y2= "22.4012" />
    <line id="_197269456" class="fil0 str2" x1="162.229" y1="71.9424" x2="132.373" y2= "27.0119" />
    <line id="_197266216" class="fil0 str2" x1="166.041" y1="70.996" x2="139.93" y2= "31.7024" />
    <line id="_197274496" class="fil0 str2" x1="170.345" y1="69.9113" x2="148.231" y2= "36.6311" />
    <line id="_197275408" class="fil0 str2" x1="174.314" y1="69.1744" x2="156.407" y2= "42.2265" />
    <line id="_197271160" class="fil0 str2" x1="178.188" y1="68.313" x2="163.554" y2= "46.2909" />
    <line id="_197251720" class="fil0 str2" x1="181.942" y1="67.276" x2="171.121" y2= "51.5336" />
    <line id="_197271376" class="fil0 str2" x1="186.211" y1="66.3258" x2="179.331" y2= "56.3938" />
   </g>
   <path id="_197247352_0" class="fil0 str2" d="M94.3004 73.3322c-0.4298,-0.4497 -0.8688,-1.0498 -1.2986,-1.4994 -0.4076,-0.4916 -0.7178,-0.8038 -1.1847,-0.9721 -0.3012,-0.0592 -0.543,-0.0676 -0.7354,0.2825 -0.2148,0.3888 -0.4381,0.8921 -0.6811,1.5158 -0.2454,-0.2643 -0.5471,-0.6559 -0.7926,-0.9203 -0.3958,-0.4476 -0.7802,-0.9016 -1.2333,-1.1694 -0.2879,-0.1525 -0.5911,-0.2542 -0.7867,-0.0823 -0.3227,0.2099 -0.8245,0.9644 -1.0741,1.4625"/>
   <path id="_197247352_1_0" class="fil0 str2" d="M91.5468 78.3955c-0.4298,-0.4497 -0.8688,-1.0498 -1.2986,-1.4994 -0.4076,-0.4916 -0.7178,-0.8038 -1.1847,-0.9721 -0.3012,-0.0592 -0.543,-0.0676 -0.7354,0.2825 -0.2148,0.3888 -0.4381,0.8921 -0.6811,1.5158 -0.2454,-0.2643 -0.5471,-0.6559 -0.7926,-0.9203 -0.3958,-0.4476 -0.7802,-0.9016 -1.2333,-1.1694 -0.2879,-0.1525 -0.5911,-0.2542 -0.7867,-0.0823 -0.3227,0.2099 -0.8245,0.9644 -1.0741,1.4625"/>
   <path id="_197247352_2" class="fil0 str2" d="M98.9939 79.4738c-0.4298,-0.4496 -0.8688,-1.0498 -1.2986,-1.4993 -0.4076,-0.4917 -0.7178,-0.8039 -1.1847,-0.9722 -0.3012,-0.0592 -0.543,-0.0676 -0.7354,0.2826 -0.2148,0.3887 -0.4381,0.892 -0.6811,1.5157 -0.2454,-0.2642 -0.5471,-0.6559 -0.7926,-0.9203 -0.3958,-0.4476 -0.7802,-0.9016 -1.2333,-1.1693 -0.2879,-0.1526 -0.5911,-0.2543 -0.7867,-0.0824 -0.3227,0.21 -0.8245,0.9645 -1.0741,1.4625"/>
   <path id="_197247352_3" class="fil0 str2" d="M101.999 74.7321c-0.4298,-0.4497 -0.8688,-1.0498 -1.2986,-1.4994 -0.4076,-0.4916 -0.7178,-0.8039 -1.1847,-0.9721 -0.3012,-0.0592 -0.543,-0.0677 -0.7354,0.2825 -0.2148,0.3887 -0.4381,0.892 -0.6811,1.5158 -0.2454,-0.2643 -0.5471,-0.656 -0.7926,-0.9204 -0.3958,-0.4476 -0.7802,-0.9015 -1.2333,-1.1693 -0.2879,-0.1525 -0.5911,-0.2542 -0.7867,-0.0824 -0.3227,0.21 -0.8245,0.9645 -1.0741,1.4626"/>
   <path id="_197247352_4" class="fil0 str2" d="M109.754 76.078c-0.4298,-0.4497 -0.8688,-1.0499 -1.2986,-1.4994 -0.4076,-0.4917 -0.7178,-0.8039 -1.1847,-0.9722 -0.3012,-0.0592 -0.543,-0.0676 -0.7354,0.2826 -0.2148,0.3887 -0.4381,0.892 -0.6811,1.5157 -0.2454,-0.2642 -0.5471,-0.6559 -0.7926,-0.9203 -0.3958,-0.4476 -0.7802,-0.9016 -1.2333,-1.1693 -0.2879,-0.1525 -0.5911,-0.2543 -0.7867,-0.0824 -0.3227,0.21 -0.8245,0.9645 -1.0741,1.4626"/>
   <path id="_197247352_5" class="fil0 str2" d="M111.584 74.661c-0.2879,-0.1526 -0.5911,-0.2543 -0.7867,-0.0824 -0.3227,0.21 -0.8245,0.9645 -1.0741,1.4625"/>
   <path id="_197247352_6" class="fil0 str2" d="M102.078 68.8801c-0.4298,-0.4497 -0.8688,-1.0498 -1.2986,-1.4994 -0.4076,-0.4916 -0.7178,-0.8039 -1.1847,-0.9721 -0.3012,-0.0592 -0.543,-0.0677 -0.7354,0.2825 -0.2148,0.3887 -0.4381,0.892 -0.6811,1.5158 -0.2454,-0.2643 -0.5471,-0.656 -0.7926,-0.9204 -0.3958,-0.4476 -0.7802,-0.9015 -1.2333,-1.1693 -0.2879,-0.1525 -0.5911,-0.2542 -0.7867,-0.0824 -0.3227,0.21 -0.8245,0.9645 -1.0741,1.4626"/>
   <path id="_197247352_7" class="fil0 str2" d="M109.776 70.2473c-0.4298,-0.4497 -0.8688,-1.0498 -1.2986,-1.4994 -0.4076,-0.4917 -0.7178,-0.8039 -1.1847,-0.9721 -0.3012,-0.0593 -0.543,-0.0677 -0.7354,0.2825 -0.2148,0.3887 -0.4381,0.892 -0.6811,1.5158 -0.2454,-0.2643 -0.5471,-0.656 -0.7926,-0.9204 -0.3958,-0.4476 -0.7802,-0.9015 -1.2333,-1.1693 -0.2879,-0.1525 -0.5911,-0.2543 -0.7867,-0.0824 -0.3227,0.21 -0.8245,0.9645 -1.0741,1.4626"/>
   <path id="_197247352_8" class="fil0 str2" d="M110.761 68.7692c-0.3227,0.21 -0.8245,0.9645 -1.0741,1.4625"/>
   <path id="_197247352_9" class="fil0 str2" d="M101.728 62.757c-0.4298,-0.4497 -0.8688,-1.0498 -1.2986,-1.4994 -0.4076,-0.4916 -0.7178,-0.8038 -1.1847,-0.9721 -0.3012,-0.0592 -0.543,-0.0676 -0.7354,0.2825 -0.2148,0.3888 -0.4381,0.8921 -0.6811,1.5158 -0.2454,-0.2643 -0.5471,-0.6559 -0.7926,-0.9203 -0.3958,-0.4476 -0.7802,-0.9016 -1.2333,-1.1694 -0.2879,-0.1525 -0.5911,-0.2542 -0.7867,-0.0823 -0.3227,0.21 -0.8245,0.9644 -1.0741,1.4625"/>
   <path id="_197247352_10" class="fil0 str2" d="M109.496 63.9862c-0.4298,-0.4497 -0.8688,-1.0498 -1.2986,-1.4994 -0.4076,-0.4916 -0.7178,-0.8038 -1.1847,-0.9721 -0.3012,-0.0592 -0.543,-0.0676 -0.7354,0.2825 -0.2148,0.3888 -0.4381,0.8921 -0.6811,1.5158 -0.2454,-0.2643 -0.5471,-0.6559 -0.7926,-0.9203 -0.3958,-0.4476 -0.7802,-0.9016 -1.2333,-1.1694 -0.2879,-0.1525 -0.5911,-0.2542 -0.7867,-0.0823 -0.3227,0.21 -0.8245,0.9644 -1.0741,1.4625"/>
   <path id="_197247352_11" class="fil0 str2" d="M105.658 57.3159c-0.4298,-0.4497 -0.8688,-1.0498 -1.2986,-1.4993 -0.4076,-0.4917 -0.7178,-0.8039 -1.1847,-0.9722 -0.3012,-0.0592 -0.543,-0.0676 -0.7354,0.2826 -0.2148,0.3887 -0.4381,0.892 -0.6811,1.5157 -0.2454,-0.2643 -0.5471,-0.6559 -0.7926,-0.9203 -0.3958,-0.4476 -0.7802,-0.9016 -1.2333,-1.1694 -0.2879,-0.1525 -0.5911,-0.2542 -0.7867,-0.0823 -0.3227,0.21 -0.8245,0.9645 -1.0741,1.4625"/>
   <path id="_197247352_12" class="fil0 str2" d="M109.412 58.085c-0.2454,-0.2643 -0.5471,-0.656 -0.7926,-0.9204 -0.3958,-0.4476 -0.7802,-0.9015 -1.2333,-1.1693 -0.2879,-0.1525 -0.5911,-0.2542 -0.7867,-0.0824 -0.3227,0.21 -0.8245,0.9645 -1.0741,1.4626"/>
   <path id="_197247352_13" class="fil0 str2" d="M104.606 51.5328c-0.4298,-0.4497 -0.8688,-1.0498 -1.2986,-1.4994 -0.4076,-0.4916 -0.7178,-0.8039 -1.1847,-0.9721 -0.3012,-0.0593 -0.543,-0.0677 -0.7354,0.2825 -0.2148,0.3887 -0.4381,0.892 -0.6811,1.5158 -0.2454,-0.2643 -0.5471,-0.656 -0.7926,-0.9204 -0.3958,-0.4476 -0.7802,-0.9015 -1.2333,-1.1693 -0.2879,-0.1525 -0.5911,-0.2542 -0.7867,-0.0824 -0.3227,0.21 -0.8245,0.9645 -1.0741,1.4626"/>
   <path id="_197247352_14" class="fil0 str2" d="M108.444 52.0596c-0.2454,-0.2643 -0.5471,-0.656 -0.7926,-0.9204 -0.3958,-0.4476 -0.7802,-0.9015 -1.2333,-1.1693 -0.2879,-0.1525 -0.5911,-0.2542 -0.7867,-0.0824 -0.3227,0.21 -0.8245,0.9645 -1.0741,1.4626"/>
   <path id="_197247352_15" class="fil0 str2" d="M103.978 44.7988c-0.4298,-0.4497 -0.8688,-1.0498 -1.2986,-1.4994 -0.4076,-0.4916 -0.7178,-0.8039 -1.1847,-0.9721 -0.3012,-0.0592 -0.543,-0.0677 -0.7354,0.2825 -0.2148,0.3887 -0.4381,0.892 -0.6811,1.5158 -0.2454,-0.2643 -0.5471,-0.656 -0.7926,-0.9204 -0.3958,-0.4476 -0.7802,-0.9015 -1.2333,-1.1693 -0.2879,-0.1525 -0.5911,-0.2542 -0.7867,-0.0824 -0.3227,0.21 -0.8245,0.9645 -1.0741,1.4626"/>
   <path id="_197247352_16" class="fil0 str2" d="M107.741 45.4828c-0.2454,-0.2643 -0.5471,-0.6559 -0.7926,-0.9203 -0.3958,-0.4476 -0.7802,-0.9016 -1.2333,-1.1694 -0.2879,-0.1525 -0.5911,-0.2542 -0.7867,-0.0823 -0.3227,0.2099 -0.8245,0.9644 -1.0741,1.4625"/>
   <path id="_197247352_17" class="fil0 str2" d="M107.107 39.2827c-0.4298,-0.4497 -0.8688,-1.0498 -1.2986,-1.4993 -0.4076,-0.4917 -0.7178,-0.8039 -1.1847,-0.9722 -0.3012,-0.0592 -0.543,-0.0676 -0.7354,0.2826 -0.2148,0.3887 -0.4381,0.892 -0.6811,1.5157 -0.2454,-0.2643 -0.5471,-0.6559 -0.7926,-0.9203 -0.3958,-0.4476 -0.7802,-0.9016 -1.2333,-1.1694 -0.2879,-0.1525 -0.5911,-0.2542 -0.7867,-0.0823 -0.3227,0.21 -0.8245,0.9645 -1.0741,1.4625"/>
   <path id="_197247352_18" class="fil0 str2" d="M106.578 33.5978c-0.4298,-0.4497 -0.8688,-1.0498 -1.2986,-1.4994 -0.4076,-0.4916 -0.7178,-0.8039 -1.1847,-0.9721 -0.3012,-0.0592 -0.543,-0.0677 -0.7354,0.2825 -0.2148,0.3887 -0.4381,0.892 -0.6811,1.5158 -0.2454,-0.2643 -0.5471,-0.656 -0.7926,-0.9204 -0.3958,-0.4476 -0.7802,-0.9015 -1.2333,-1.1693 -0.2879,-0.1525 -0.5911,-0.2542 -0.7867,-0.0824 -0.3227,0.21 -0.8245,0.9645 -1.0741,1.4626"/>
   <path id="_197247352_19" class="fil0 str2" d="M105.345 27.6102c-0.2454,-0.2643 -0.5471,-0.6559 -0.7926,-0.9203 -0.3958,-0.4476 -0.7802,-0.9016 -1.2333,-1.1694 -0.2879,-0.1525 -0.5911,-0.2542 -0.7867,-0.0823 -0.3227,0.2099 -0.8245,0.9644 -1.0741,1.4625"/>
   <path id="_197247352_20" class="fil0 str2" d="M104.813 20.5524c-0.288,-0.1526 -1.529,-0.9271 -1.7246,-0.7553 -0.3227,0.21 -0.8245,0.9645 -1.0741,1.4626"/>
   <path id="_197247352_21" class="fil0 str2" d="M106.441 80.5522c-0.4298,-0.4497 -0.8688,-1.0498 -1.2986,-1.4994 -0.4076,-0.4916 -0.7178,-0.8039 -1.1847,-0.9721 -0.3012,-0.0593 -0.543,-0.0677 -0.7354,0.2825 -0.2148,0.3887 -0.4381,0.892 -0.6811,1.5158 -0.2454,-0.2643 -0.5471,-0.656 -0.7926,-0.9204 -0.3958,-0.4476 -0.7802,-0.9015 -1.2333,-1.1693 -0.2879,-0.1525 -0.5911,-0.2542 -0.7867,-0.0824 -0.3227,0.21 -0.8245,0.9645 -1.0741,1.4626"/>
   <path id="_197247352_22" class="fil0 str2" d="M112.194 79.4204c-0.3011,-0.0593 -1.3317,-0.329 -1.5241,0.0211 -0.2148,0.3887 -0.4381,0.8921 -0.6811,1.5158 -0.2454,-0.2643 -0.5471,-0.656 -0.7926,-0.9204 -0.3958,-0.4476 -0.7802,-0.9015 -1.2333,-1.1693 -0.2879,-0.1525 -0.5911,-0.2542 -0.7867,-0.0824 -0.3227,0.21 -0.8245,0.9645 -1.0741,1.4626"/>
   <path id="_197248648_23" class="fil0 str2" d="M86.6309 71.9584c-1.7194,-1.8614 -2.1489,-2.0799 -2.4831,-2.2007 -0.1426,-0.0518 -0.5843,-0.0867 -0.8882,0.2022 -0.4087,0.3887 -0.8741,1.655 -0.8741,1.655 -1.0161,-1.1025 -2.4886,-2.9514 -3.3286,-2.6944 -0.2692,0.0824 -0.3566,0.2774 -0.5139,0.5604l-0.6341 1.1478c-0.4298,-0.4496 -0.8688,-1.0498 -1.2986,-1.4992 -0.4075,-0.4916 -0.7177,-0.8041 -1.1846,-0.9722 -0.3013,-0.0594 -0.5431,-0.0678 -0.7354,0.2824 -0.2148,0.3887 -0.4381,0.892 -0.6811,1.5158 -0.2454,-0.2641 -0.5472,-0.6559 -0.7928,-0.9204 -0.3958,-0.4476 -0.7801,-0.9013 -1.2331,-1.1692 -0.288,-0.1526 -0.5912,-0.2544 -0.7867,-0.0824 -0.3227,0.21 -0.8245,0.9644 -1.0742,1.4625"/>
   <path id="_197247448_24" class="fil0 str2" d="M70.3334 69.3926c-1.7193,-1.8614 -2.1489,-2.08 -2.4831,-2.2009 -0.1425,-0.0516 -0.5843,-0.0865 -0.8881,0.2024 -0.4087,0.3888 -0.8742,1.6548 -0.8742,1.6548 -1.0161,-1.1023 -2.4886,-2.9512 -3.3286,-2.6942 -0.2692,0.0824 -0.3566,0.2774 -0.5139,0.5603l-0.634 1.1477c-0.4297,-0.4496 -0.8689,-1.0496 -1.2987,-1.4992 -0.4075,-0.4916 -0.7177,-0.8039 -1.1846,-0.972 -0.3012,-0.0594 -0.5431,-0.0678 -0.7354,0.2822 -0.2147,0.3889 -0.4381,0.892 -0.681,1.516 -0.2455,-0.2643 -0.5473,-0.6561 -0.7927,-0.9204 -0.3959,-0.4477 -0.7802,-0.9015 -1.2333,-1.1692 -0.288,-0.1527 -0.5912,-0.2546 -0.7867,-0.0825 -0.3227,0.2099 -0.8245,0.9643 -1.0742,1.4624"/>
   <path id="_197250208_25" class="fil0 str2" d="M54.0369 66.8268c-1.7194,-1.8613 -2.1488,-2.0798 -2.483,-2.2007 -0.1426,-0.0518 -0.5843,-0.0867 -0.8883,0.2022 -0.4086,0.3888 -0.874,1.655 -0.874,1.655 -1.0162,-1.1025 -2.4887,-2.9513 -3.3287,-2.6944 -0.2691,0.0824 -0.3565,0.2774 -0.5139,0.5604l-0.634 1.1478c-0.4298,-0.4496 -0.8688,-1.0497 -1.2986,-1.4992 -0.4076,-0.4916 -0.7178,-0.8041 -1.1847,-0.9722 -0.3013,-0.0593 -0.543,-0.0678 -0.7354,0.2824 -0.2148,0.3887 -0.4381,0.892 -0.6811,1.5158 -0.2454,-0.2641 -0.5471,-0.6559 -0.7927,-0.9204 -0.3959,-0.4476 -0.7801,-0.9013 -1.2332,-1.1692 -0.2879,-0.1526 -0.5911,-0.2543 -0.7867,-0.0823 -0.3227,0.2099 -0.8245,0.9643 -1.0741,1.4624"/>
   <path id="_197256568_26" class="fil0 str2" d="M37.7384 64.2608c-1.7194,-1.8616 -2.1489,-2.08 -2.4831,-2.2008 -0.1425,-0.0517 -0.5842,-0.0866 -0.8882,0.2023 -0.4086,0.3888 -0.874,1.6548 -0.874,1.6548 -1.0162,-1.1023 -2.1381,-2.9525 -2.9781,-2.6955 -0.2691,0.0824 -0.46,0.6176 -0.6174,0.9005l-0.8811 0.8089c-0.4298,-0.4497 -1.9966,-2.1452 -2.4264,-2.5948"/>
   <path id="_197248648_2_27" class="fil0 str2" d="M83.6705 77.0157c-1.7194,-1.8615 -2.1489,-2.0799 -2.4831,-2.2007 -0.1426,-0.0518 -0.5843,-0.0867 -0.8882,0.2022 -0.4087,0.3887 -0.8741,1.655 -0.8741,1.655 -1.0161,-1.1025 -2.4886,-2.9514 -3.3286,-2.6944 -0.2692,0.0824 -0.3565,0.2774 -0.5139,0.5604l-0.634 1.1478c-0.4298,-0.4496 -0.8689,-1.0498 -1.2987,-1.4992 -0.4075,-0.4916 -0.7177,-0.8041 -1.1846,-0.9722 -0.3013,-0.0594 -0.5431,-0.0678 -0.7354,0.2824 -0.2148,0.3887 -0.4381,0.892 -0.6811,1.5157 -0.2454,-0.264 -0.5472,-0.6558 -0.7927,-0.9203 -0.3959,-0.4476 -0.7801,-0.9013 -1.2332,-1.1692 -0.288,-0.1526 -0.5912,-0.2544 -0.7867,-0.0824 -0.3227,0.21 -0.8245,0.9644 -1.0742,1.4625"/>
   <path id="_197247448_3_28" class="fil0 str2" d="M67.373 74.4499c-1.7193,-1.8614 -2.1489,-2.08 -2.4831,-2.2009 -0.1424,-0.0516 -0.5842,-0.0865 -0.8881,0.2024 -0.4086,0.3888 -0.8741,1.6548 -0.8741,1.6548 -1.0162,-1.1023 -2.4887,-2.9512 -3.3287,-2.6942 -0.2691,0.0824 -0.3565,0.2774 -0.5139,0.5602l-0.634 1.1477c-0.4297,-0.4495 -0.8689,-1.0495 -1.2987,-1.4991 -0.4075,-0.4917 -0.7177,-0.8039 -1.1846,-0.972 -0.3012,-0.0594 -0.5431,-0.0678 -0.7354,0.2822 -0.2147,0.3889 -0.4381,0.892 -0.681,1.516 -0.2455,-0.2643 -0.5473,-0.6561 -0.7927,-0.9204 -0.3959,-0.4477 -0.7802,-0.9015 -1.2333,-1.1692 -0.2879,-0.1527 -0.5912,-0.2546 -0.7867,-0.0825 -0.3227,0.2099 -0.8245,0.9643 -1.0742,1.4623"/>
   <path id="_197250208_4_29" class="fil0 str2" d="M51.0766 71.8841c-1.7194,-1.8614 -2.1489,-2.0799 -2.4831,-2.2007 -0.1426,-0.0518 -0.5843,-0.0867 -0.8882,0.2022 -0.4087,0.3888 -0.8741,1.655 -0.8741,1.655 -1.0161,-1.1025 -2.4886,-2.9514 -3.3286,-2.6944 -0.2692,0.0824 -0.3566,0.2774 -0.514,0.5604l-0.634 1.1478c-0.4298,-0.4496 -0.8688,-1.0497 -1.2986,-1.4992 -0.4076,-0.4916 -0.7177,-0.8041 -1.1847,-0.9722 -0.3012,-0.0594 -0.543,-0.0678 -0.7354,0.2824 -0.2148,0.3887 -0.4381,0.892 -0.6811,1.5158 -0.2453,-0.2641 -0.5471,-0.6559 -0.7927,-0.9204 -0.3958,-0.4476 -0.7801,-0.9013 -1.2332,-1.1692 -0.2879,-0.1526 -0.5911,-0.2543 -0.7866,-0.0823 -0.3227,0.2099 -0.8246,0.9643 -1.0742,1.4624"/>
   <path id="_197256568_5_30" class="fil0 str2" d="M34.778 69.3181c-1.7194,-1.8616 -2.1488,-2.08 -2.483,-2.2008 -0.1426,-0.0517 -0.5843,-0.0866 -0.8883,0.2023 -0.4086,0.3887 -0.874,1.6548 -0.874,1.6548 -1.0162,-1.1023 -2.4886,-2.9512 -3.3287,-2.6942 -0.2691,0.0825 -0.3565,0.2774 -0.5139,0.5602l-0.634 1.1479c-0.4298,-0.4497 -0.8689,-1.0496 -1.2987,-1.4993 -0.4075,-0.4917 -0.7177,-0.8039 -1.1846,-0.972 -0.3013,-0.0594 -0.543,-0.0678 -0.7354,0.2822 -0.2148,0.3889 -0.4382,0.892 -0.6811,1.5159 -0.2453,-0.2641 -0.5472,-0.656 -0.7927,-0.9203 -0.3958,-0.4477 -0.7801,-0.9015 -1.2332,-1.1692"/>
   <path id="_197251240_31" class="fil0 str2" d="M94.3419 67.4714c-0.2454,-0.2642 -0.5472,-0.6559 -0.7927,-0.9203 -0.3958,-0.4478 -0.7802,-0.9016 -1.2333,-1.1693 -0.2879,-0.1525 -0.5911,-0.2543 -0.7866,-0.0825 -0.3227,0.2101 -0.8245,0.9645 -1.0742,1.4625"/>
   <path id="_197248744_32" class="fil0 str2" d="M90.5721 66.7709c-1.7193,-1.8615 -2.1489,-2.0799 -2.4831,-2.2009 -0.1424,-0.0516 -0.5842,-0.0866 -0.8882,0.2023 -0.4087,0.3887 -0.874,1.6548 -0.874,1.6548 -1.0162,-1.1022 -2.4887,-2.9511 -3.3287,-2.6941 -0.2691,0.0824 -0.3565,0.2773 -0.5139,0.5603l-0.634 1.1478c-0.4298,-0.4496 -0.8689,-1.0498 -1.2987,-1.4993 -0.4075,-0.4917 -0.7177,-0.804 -1.1846,-0.9722 -0.3012,-0.0593 -0.5431,-0.0676 -0.7354,0.2825 -0.2148,0.3887 -0.4381,0.8921 -0.6811,1.5158 -0.2454,-0.2643 -0.5472,-0.6559 -0.7926,-0.9203 -0.3959,-0.4477 -0.7802,-0.9016 -1.2333,-1.1693 -0.2879,-0.1526 -0.5912,-0.2543 -0.7867,-0.0825 -0.3227,0.2101 -0.8245,0.9645 -1.0742,1.4626"/>
   <path id="_197247472_33" class="fil0 str2" d="M74.2744 64.2048c-1.7193,-1.8614 -2.1489,-2.0798 -2.483,-2.2006 -0.1425,-0.0516 -0.5843,-0.0867 -0.8882,0.2023 -0.4086,0.3885 -0.8741,1.6547 -0.8741,1.6547 -1.0162,-1.1023 -2.4887,-2.9512 -3.3287,-2.6942 -0.2691,0.0823 -0.3565,0.2774 -0.5139,0.5603l-0.6339 1.1478c-0.4298,-0.4497 -0.8689,-1.0496 -1.2987,-1.4992 -0.4075,-0.4916 -0.7178,-0.8039 -1.1847,-0.9723 -0.3012,-0.0591 -0.5431,-0.0676 -0.7354,0.2824 -0.2147,0.389 -0.4381,0.8922 -0.681,1.516 -0.2455,-0.2641 -0.5473,-0.656 -0.7927,-0.9202 -0.3959,-0.4478 -0.7802,-0.9017 -1.2333,-1.1693 -0.2878,-0.1528 -0.5912,-0.2545 -0.7867,-0.0825 -0.3227,0.2099 -0.8245,0.9642 -1.0742,1.4624"/>
   <path id="_197249104_34" class="fil0 str2" d="M57.978 61.6393c-1.7193,-1.8615 -2.1489,-2.0801 -2.4831,-2.2009 -0.1425,-0.0516 -0.5843,-0.0867 -0.8882,0.2023 -0.4087,0.3887 -0.8741,1.6548 -0.8741,1.6548 -1.0161,-1.1022 -2.4886,-2.9511 -3.3286,-2.6942 -0.2692,0.0825 -0.3566,0.2774 -0.514,0.5605l-0.634 1.1476c-0.4298,-0.4495 -0.8688,-1.0496 -1.2986,-1.4992 -0.4075,-0.4917 -0.7177,-0.804 -1.1847,-0.9722 -0.3011,-0.0593 -0.543,-0.0677 -0.7354,0.2825 -0.2147,0.3887 -0.4381,0.892 -0.6811,1.5157 -0.2453,-0.2641 -0.5471,-0.6558 -0.7926,-0.9202 -0.3958,-0.4478 -0.7802,-0.9017 -1.2333,-1.1693 -0.2879,-0.1525 -0.5911,-0.2544 -0.7866,-0.0825 -0.3227,0.2101 -0.8246,0.9645 -1.0742,1.4625"/>
   <path id="_194944632_35" class="fil0 str2" d="M41.6805 59.0733c-1.7194,-1.8615 -2.1489,-2.0799 -2.4831,-2.2007 -0.1426,-0.0517 -0.5843,-0.0867 -0.8882,0.2023 -0.4087,0.3885 -0.8741,1.6548 -0.8741,1.6548 -1.0161,-1.1024 -2.4886,-2.9513 -3.3286,-2.6943 -0.2692,0.0824 -0.3566,0.2774 -0.5139,0.5603l-0.6341 1.1478"/>
   <path id="_197257168_36" class="fil0 str2" d="M94.1112 61.3779c-1.7193,-1.8613 -2.1488,-2.0797 -2.4829,-2.2006 -0.1426,-0.0518 -0.5844,-0.0868 -0.8883,0.2022 -0.4086,0.3887 -0.874,1.6549 -0.874,1.6549 -1.0163,-1.1024 -2.4888,-2.9513 -3.3288,-2.6943 -0.2691,0.0824 -0.3565,0.2774 -0.5139,0.5603l-0.6339 1.1478c-0.4298,-0.4495 -0.8689,-1.0497 -1.2987,-1.4991 -0.4075,-0.4917 -0.7178,-0.8041 -1.1847,-0.9723 -0.3012,-0.0593 -0.543,-0.0677 -0.7354,0.2824 -0.2147,0.3888 -0.4381,0.8921 -0.681,1.5158 -0.2455,-0.2641 -0.5472,-0.6558 -0.7927,-0.9203 -0.3958,-0.4475 -0.7802,-0.9014 -1.2333,-1.1692 -0.2878,-0.1526 -0.5911,-0.2544 -0.7867,-0.0823 -0.3227,0.2099 -0.8245,0.9642 -1.0741,1.4623"/>
   <path id="_194951352_37" class="fil0 str2" d="M77.8133 58.8121c-1.7193,-1.8615 -2.1488,-2.08 -2.483,-2.2008 -0.1425,-0.0516 -0.5843,-0.0867 -0.8883,0.2023 -0.4085,0.3887 -0.874,1.6547 -0.874,1.6547 -1.0162,-1.1021 -2.4887,-2.951 -3.3287,-2.6941 -0.2691,0.0824 -0.3565,0.2774 -0.5139,0.5602l-0.634 1.1478c-0.4297,-0.4496 -0.8688,-1.0496 -1.2986,-1.4991 -0.4076,-0.4917 -0.7178,-0.804 -1.1847,-0.9722 -0.3012,-0.0593 -0.543,-0.0677 -0.7354,0.2823 -0.2147,0.3889 -0.4381,0.8921 -0.681,1.5159 -0.2455,-0.2642 -0.5472,-0.6559 -0.7927,-0.9202 -0.3958,-0.4478 -0.7802,-0.9017 -1.2333,-1.1694 -0.2879,-0.1527 -0.5911,-0.2544 -0.7867,-0.0824 -0.3227,0.2098 -0.8245,0.9643 -1.0741,1.4624"/>
   <path id="_195127048_38" class="fil0 str2" d="M61.5169 56.2464c-1.7194,-1.8615 -2.1489,-2.0799 -2.4831,-2.2007 -0.1426,-0.0518 -0.5843,-0.0869 -0.8882,0.2021 -0.4087,0.3887 -0.8741,1.655 -0.8741,1.655 -1.0161,-1.1024 -2.4886,-2.9513 -3.3286,-2.6944 -0.2692,0.0825 -0.3566,0.2774 -0.5139,0.5604l-0.6341 1.1478c-0.4298,-0.4496 -0.8688,-1.0498 -1.2986,-1.4993 -0.4075,-0.4916 -0.7177,-0.804 -1.1847,-0.9722 -0.3012,-0.0593 -0.543,-0.0676 -0.7353,0.2825 -0.2148,0.3887 -0.4381,0.892 -0.6811,1.5157 -0.2454,-0.2642 -0.5472,-0.6558 -0.7928,-0.9202 -0.3958,-0.4476 -0.7801,-0.9017 -1.2332,-1.1693 -0.2879,-0.1526 -0.5911,-0.2544 -0.7866,-0.0823 -0.3227,0.2099 -0.8245,0.9643 -1.0742,1.4623"/>
   <path id="_195127240_39" class="fil0 str2" d="M45.2194 53.6803c-1.7194,-1.8614 -2.1489,-2.0798 -2.4831,-2.2006 -0.1426,-0.0516 -0.5843,-0.0867 -0.8882,0.2023 -0.4087,0.3887 -0.8741,1.6549 -0.8741,1.6549"/>
   <path id="_195130888_40" class="fil0 str2" d="M97.7299 55.8677c-1.7193,-1.8615 -2.1489,-2.0799 -2.483,-2.2007 -0.1426,-0.0518 -0.5844,-0.0868 -0.8882,0.2021 -0.4087,0.3887 -0.8741,1.655 -0.8741,1.655 -1.0162,-1.1024 -2.4887,-2.9513 -3.3287,-2.6944 -0.2692,0.0825 -0.3566,0.2774 -0.514,0.5605l-0.6339 1.1478c-0.4298,-0.4497 -0.8689,-1.0498 -1.2987,-1.4993 -0.4074,-0.4916 -0.7177,-0.8041 -1.1847,-0.9722 -0.3011,-0.0594 -0.543,-0.0678 -0.7354,0.2824 -0.2146,0.3887 -0.4381,0.892 -0.681,1.5157 -0.2454,-0.264 -0.5472,-0.6558 -0.7927,-0.9202 -0.3958,-0.4476 -0.7802,-0.9014 -1.2333,-1.1693 -0.2878,-0.1525 -0.5911,-0.2544 -0.7866,-0.0823 -0.3227,0.2099 -0.8246,0.9643 -1.0742,1.4624"/>
   <path id="_195131080_41" class="fil0 str2" d="M81.4326 53.3019c-1.7193,-1.8615 -2.1488,-2.08 -2.483,-2.2009 -0.1426,-0.0516 -0.5843,-0.0865 -0.8882,0.2024 -0.4087,0.3888 -0.8741,1.6548 -0.8741,1.6548 -1.0162,-1.1023 -2.4887,-2.9511 -3.3287,-2.6942 -0.2691,0.0824 -0.3565,0.2774 -0.5139,0.5602l-0.634 1.1478c-0.4298,-0.4496 -0.8689,-1.0496 -1.2987,-1.4992 -0.4074,-0.4916 -0.7176,-0.8039 -1.1847,-0.9721 -0.3011,-0.0592 -0.543,-0.0677 -0.7353,0.2823 -0.2147,0.3889 -0.4381,0.892 -0.681,1.516 -0.2454,-0.2643 -0.5473,-0.6561 -0.7928,-0.9204 -0.3958,-0.4477 -0.7801,-0.9015 -1.2331,-1.1692 -0.288,-0.1527 -0.5913,-0.2546 -0.7867,-0.0825 -0.3228,0.2099 -0.8245,0.9643 -1.0742,1.4624"/>
   <path id="_195131272_42" class="fil0 str2" d="M65.1348 50.7359c-1.7193,-1.8615 -2.1489,-2.0799 -2.483,-2.2007 -0.1426,-0.0518 -0.5844,-0.0868 -0.8882,0.2021 -0.4087,0.3887 -0.8741,1.655 -0.8741,1.655 -1.0162,-1.1024 -2.4887,-2.9513 -3.3287,-2.6944 -0.2692,0.0825 -0.3565,0.2775 -0.5139,0.5605l-0.634 1.1478c-0.4298,-0.4497 -0.8689,-1.0498 -1.2987,-1.4993 -0.4074,-0.4916 -0.7177,-0.8041 -1.1847,-0.9722 -0.3011,-0.0594 -0.543,-0.0677 -0.7353,0.2824 -0.2147,0.3888 -0.4381,0.892 -0.681,1.5159 -0.2455,-0.2642 -0.5473,-0.656 -0.7928,-0.9204 -0.3958,-0.4476 -0.7802,-0.9014 -1.2332,-1.1693 -0.2879,-0.1525 -0.5912,-0.2544 -0.7867,-0.0823 -0.3227,0.2099 -0.8245,0.9643 -1.0742,1.4624"/>
   <path id="_195132424_43" class="fil0 str2" d="M96.9364 50.1903c-1.0162,-1.1025 -2.4887,-2.9514 -3.3287,-2.6944 -0.2692,0.0824 -0.3566,0.2774 -0.5139,0.5603l-0.6339 1.1479c-0.4298,-0.4496 -0.869,-1.0496 -1.2988,-1.4992 -0.4074,-0.4916 -0.7177,-0.8041 -1.1846,-0.9722 -0.3012,-0.0594 -0.5431,-0.0678 -0.7354,0.2824 -0.2147,0.3888 -0.4381,0.892 -0.681,1.5157 -0.2455,-0.264 -0.5473,-0.6558 -0.7928,-0.9203 -0.3958,-0.4476 -0.7802,-0.9014 -1.2332,-1.1692 -0.2879,-0.1526 -0.5912,-0.2544 -0.7867,-0.0824 -0.3227,0.21 -0.8245,0.9644 -1.0742,1.4625"/>
   <path id="_195132616_44" class="fil0 str2" d="M84.8844 47.968c-1.7193,-1.8614 -2.1488,-2.08 -2.483,-2.2008 -0.1426,-0.0517 -0.5843,-0.0866 -0.8882,0.2023 -0.4087,0.3887 -0.8741,1.6548 -0.8741,1.6548 -1.0162,-1.1023 -2.4886,-2.9511 -3.3287,-2.6942 -0.2691,0.0825 -0.3564,0.2774 -0.5139,0.5605l-0.6339 1.1477c-0.4298,-0.4496 -0.869,-1.0497 -1.2988,-1.4994 -0.4074,-0.4915 -0.7176,-0.8039 -1.1846,-0.972 -0.3012,-0.0594 -0.5431,-0.0678 -0.7354,0.2822 -0.2147,0.3889 -0.4381,0.892 -0.681,1.5159 -0.2454,-0.2641 -0.5473,-0.6558 -0.7927,-0.9202 -0.3959,-0.4478 -0.7801,-0.9016 -1.2332,-1.1693 -0.288,-0.1525 -0.5913,-0.2546 -0.7867,-0.0825 -0.3228,0.2101 -0.8245,0.9645 -1.0742,1.4625"/>
   <path id="_195132808_45" class="fil0 str2" d="M68.5875 45.4022c-1.7194,-1.8615 -2.1489,-2.0799 -2.483,-2.2007 -0.1426,-0.0518 -0.5843,-0.0866 -0.8883,0.2023 -0.4086,0.3885 -0.874,1.6548 -0.874,1.6548 -1.0162,-1.1024 -2.4887,-2.9513 -3.3287,-2.6943 -0.2691,0.0824 -0.3565,0.2773 -0.5139,0.5604l-0.634 1.1478c-0.4298,-0.4497 -0.8689,-1.0496 -1.2987,-1.4993 -0.4075,-0.4916 -0.7177,-0.8041 -1.1846,-0.9722 -0.3013,-0.0594 -0.543,-0.0677 -0.7354,0.2824 -0.2148,0.3887 -0.4381,0.8921 -0.6811,1.5157"/>
   <path id="_194945784_46" class="fil0 str2" d="M96.1637 43.5206c-0.4298,-0.4495 -0.8689,-1.0498 -1.2987,-1.4993 -0.4075,-0.4915 -0.7176,-0.8039 -1.1847,-0.9721 -0.3011,-0.0593 -0.543,-0.0677 -0.7354,0.2825 -0.2147,0.3887 -0.4381,0.892 -0.681,1.5157 -0.2454,-0.2643 -0.5472,-0.6558 -0.7927,-0.9203 -0.3958,-0.4476 -0.7801,-0.9016 -1.2332,-1.1692 -0.2879,-0.1527 -0.5912,-0.2544 -0.7867,-0.0825 -0.3227,0.2101 -0.8245,0.9645 -1.0742,1.4625"/>
   <path id="_194945976_47" class="fil0 str2" d="M88.5884 42.2844c-1.7194,-1.8614 -2.1489,-2.0798 -2.4831,-2.2006 -0.1426,-0.0517 -0.5843,-0.0867 -0.8882,0.2023 -0.4087,0.3887 -0.8741,1.6547 -0.8741,1.6547 -1.0161,-1.1021 -2.4886,-2.951 -3.3287,-2.6941 -0.2691,0.0825 -0.3565,0.2774 -0.5138,0.5602l-0.6341 1.1478c-0.4298,-0.4497 -0.8689,-1.0496 -1.2987,-1.4992 -0.4074,-0.4916 -0.7176,-0.8039 -1.1847,-0.9721 -0.3011,-0.0593 -0.5429,-0.0677 -0.7352,0.2824 -0.2148,0.3888 -0.4383,0.892 -0.6812,1.5158 -0.2453,-0.2641 -0.5472,-0.656 -0.7927,-0.9202 -0.3958,-0.4478 -0.7801,-0.9017 -1.2332,-1.1693 -0.2879,-0.1528 -0.5912,-0.2545 -0.7866,-0.0825 -0.3228,0.2099 -0.8245,0.9644 -1.0742,1.4624"/>
   <path id="_194946168_48" class="fil0 str2" d="M72.2916 39.7188c-1.7194,-1.8614 -2.1489,-2.0799 -2.4831,-2.2007 -0.1425,-0.0518 -0.5843,-0.0868 -0.8882,0.2022 -0.4087,0.3887 -0.8741,1.6548 -0.8741,1.6548 -1.0161,-1.1023 -2.4886,-2.9512 -3.3286,-2.6942 -0.2692,0.0824 -0.3566,0.2774 -0.5139,0.5603l-0.634 1.1478"/>
   <path id="_194948088_49" class="fil0 str2" d="M99.4991 38.2068c-0.4298,-0.4496 -0.8689,-1.0496 -1.2987,-1.4991 -0.4074,-0.4917 -0.7176,-0.8039 -1.1847,-0.9723 -0.3011,-0.0591 -0.5429,-0.0675 -0.7353,0.2824 -0.2147,0.389 -0.4382,0.8921 -0.6811,1.516 -0.2453,-0.2643 -0.5472,-0.656 -0.7927,-0.9203 -0.3958,-0.4477 -0.7801,-0.9016 -1.2332,-1.1692 -0.2879,-0.1528 -0.5912,-0.2546 -0.7866,-0.0825 -0.3228,0.2098 -0.8246,0.9642 -1.0742,1.4623"/>
   <path id="_194948280_50" class="fil0 str2" d="M91.9238 36.9708c-1.7194,-1.8614 -2.1489,-2.0798 -2.4831,-2.2008 -0.1426,-0.0516 -0.5843,-0.0866 -0.8882,0.2023 -0.4087,0.3887 -0.8741,1.6548 -0.8741,1.6548 -1.0161,-1.1022 -2.4886,-2.9511 -3.3286,-2.6941 -0.2692,0.0823 -0.3566,0.2774 -0.5139,0.5603l-0.6341 1.1478c-0.4298,-0.4497 -0.8688,-1.0498 -1.2986,-1.4993 -0.4075,-0.4917 -0.7177,-0.8039 -1.1847,-0.9722 -0.3012,-0.0593 -0.543,-0.0676 -0.7353,0.2826 -0.2148,0.3887 -0.4381,0.892 -0.6811,1.5157 -0.2454,-0.2643 -0.5472,-0.6559 -0.7927,-0.9203 -0.3959,-0.4478 -0.7802,-0.9016 -1.2333,-1.1694 -0.2879,-0.1525 -0.5911,-0.2542 -0.7866,-0.0823 -0.3227,0.21 -0.8245,0.9645 -1.0742,1.4625"/>
   <path id="_194948472_51" class="fil0 str2" d="M75.6264 34.4048c-1.7193,-1.8613 -2.1489,-2.0797 -2.483,-2.2005 -0.1426,-0.0517 -0.5844,-0.0867 -0.8882,0.2023"/>
   <path id="_194950008_52" class="fil0 str2" d="M98.9496 32.2018c-0.2455,-0.2643 -0.5472,-0.6561 -0.7927,-0.9204 -0.3959,-0.4477 -0.7802,-0.9015 -1.2333,-1.1692 -0.2878,-0.1527 -0.5911,-0.2546 -0.7867,-0.0825 -0.3227,0.2099 -0.8245,0.9643 -1.0741,1.4624"/>
   <path id="_194952312_53" class="fil0 str2" d="M95.274 31.6388c-1.7193,-1.8615 -2.1488,-2.0799 -2.483,-2.2007 -0.1426,-0.0518 -0.5843,-0.0867 -0.8882,0.2022 -0.4087,0.3886 -0.8741,1.6548 -0.8741,1.6548 -1.0162,-1.1023 -2.4887,-2.9512 -3.3287,-2.6942 -0.2691,0.0824 -0.3565,0.2774 -0.514,0.5604l-0.6339 1.1478c-0.4298,-0.4496 -0.8689,-1.0498 -1.2987,-1.4994 -0.4075,-0.4916 -0.7176,-0.8039 -1.1847,-0.9721 -0.3011,-0.0594 -0.543,-0.0677 -0.7354,0.2824 -0.2147,0.3888 -0.4381,0.8921 -0.681,1.5159 -0.2454,-0.2643 -0.5472,-0.656 -0.7927,-0.9204 -0.3958,-0.4476 -0.7801,-0.9015 -1.2332,-1.1693 -0.2879,-0.1525 -0.5912,-0.2542 -0.7866,-0.0824"/>
   <path id="_195130312_54" class="fil0 str2" d="M101.6 26.776c-0.3958,-0.4479 -1.0503,-1.425 -1.5034,-1.6927 -0.2878,-0.1527 -0.5911,-0.2544 -0.7866,-0.0825 -0.3227,0.2099 -0.8245,0.9644 -1.0742,1.4625"/>
   <path id="_194940024_55" class="fil0 str2" d="M98.4471 26.6099c-1.7193,-1.8613 -2.1489,-2.0797 -2.483,-2.2007 -0.1426,-0.0518 -0.5844,-0.0867 -0.8882,0.2022 -0.4087,0.3888 -0.8741,1.6548 -0.8741,1.6548 -1.0162,-1.1023 -2.4887,-2.9511 -3.3287,-2.6942 -0.2691,0.0825 -0.3565,0.2774 -0.5139,0.5605l-0.634 1.1477c-0.4298,-0.4496 -0.8689,-1.0497 -1.2987,-1.4994 -0.4074,-0.4914 -0.7177,-0.8039 -1.1847,-0.972 -0.3011,-0.0593 -0.543,-0.0678 -0.7353,0.2824"/>
   <path id="_194942520_56" class="fil0 str2" d="M102.56 20.108c-0.3228,0.2098 -0.4319,0.5703 -0.6816,1.0683"/>
   <path id="_194942712_57" class="fil0 str2" d="M102.089 21.3231c-1.7193,-1.8615 -2.1489,-2.0799 -2.4831,-2.2008 -0.1425,-0.0517 -0.5843,-0.0868 -0.8882,0.2022 -0.4087,0.3887 -0.8741,1.655 -0.8741,1.655 -1.0161,-1.1025 -2.4886,-2.9514 -3.3286,-2.6944"/>
   <path id="_194945208_58" class="fil0 str2" d="M104.106 14.9164c-0.1426,-0.0516 -1.8973,-0.5833 -2.2011,-0.2943 -0.1644,0.1562 -1.0374,1.1776 -1.519,1.2511 -0.7163,0.1095 -1.3444,-0.6519 -1.3444,-0.6519"/>
   <line id="_428887296" class="fil0 str2" x1="83.5549" y1="77.1778" x2="107.405" y2= "41.2256" />
   <line id="_428887632" class="fil0 str2" x1="87.4185" y1="77.7196" x2="107.891" y2= "45.1074" />
   <line id="_428887968" class="fil0 str2" x1="90.9627" y1="78.2944" x2="108.933" y2= "51.2056" />
   <line id="_428888304" class="fil0 str2" x1="94.7784" y1="78.8782" x2="109.419" y2= "57.2907" />
   <line id="_428888640" class="fil0 str2" x1="98.7445" y1="79.6052" x2="110.075" y2= "62.5249" />
   <line id="_428888976" class="fil0 str2" x1="102.358" y1="80.201" x2="110.712" y2= "67.6074" />
   <line id="_428889312" class="fil0 str2" x1="105.996" y1="80.9441" x2="111.369" y2= "72.8448" />
   <line id="_428889648" class="fil0 str2" x1="109.305" y1="81.4868" x2="111.952" y2= "77.4966" />
   <line id="_428889984" class="fil0 str2" x1="79.4679" y1="76.27" x2="106.585" y2= "34.6895" />
   <line id="_428890320" class="fil0 str2" x1="74.8407" y1="75.5118" x2="105.795" y2= "28.3846" />
   <line id="_428890656" class="fil0 str2" x1="70.9224" y1="75.0717" x2="105.063" y2= "22.5464" />
   <line id="_428890992" class="fil0 str2" x1="67.174" y1="74.1691" x2="104.386" y2= "17.1465" />
   <line id="_428891328" class="fil0 str2" x1="63.0405" y1="73.6368" x2="103.206" y2= "12.6462" />
   <line id="_428891664" class="fil0 str2" x1="58.7257" y1="72.9363" x2="95.2182" y2= "17.5033" />
   <line id="_428892000" class="fil0 str2" x1="54.6646" y1="72.2293" x2="87.4566" y2= "22.4352" />
   <line id="_428892336" class="fil0 str2" x1="50.9692" y1="71.6219" x2="80.514" y2= "26.7585" />
   <line id="_428892672" class="fil0 str2" x1="47.0592" y1="70.8764" x2="73.0552" y2= "31.4029" />
   <line id="_428893008" class="fil0 str2" x1="42.6437" y1="70.0187" x2="64.6118" y2= "36.6606" />
   <line id="_428893344" class="fil0 str2" x1="38.5724" y1="69.4909" x2="56.9409" y2= "41.5992" />
   <line id="_428893680" class="fil0 str2" x1="34.5985" y1="68.8338" x2="49.6097" y2= "46.0403" />
   <line id="_428894016" class="fil0 str2" x1="30.7478" y1="67.9946" x2="42.5758" y2= "50.5978" />
   <line id="_428894352" class="fil0 str2" x1="26.3688" y1="67.2695" x2="33.4263" y2= "56.9747" />
  </g>
 </g>
</svg>
