<?xml version="1.0" encoding="UTF-8"?>
<!DOCTYPE svg PUBLIC "-//W3C//DTD SVG 1.1//EN" "http://www.w3.org/Graphics/SVG/1.1/DTD/svg11.dtd">
<!-- Creator: CorelDRAW -->
<svg xmlns="http://www.w3.org/2000/svg" xml:space="preserve" width="210mm" height="297mm" style="shape-rendering:geometricPrecision; text-rendering:geometricPrecision; image-rendering:optimizeQuality; fill-rule:evenodd; clip-rule:evenodd"
viewBox="0 0 210 297"
 xmlns:xlink="http://www.w3.org/1999/xlink">
 <defs>
  <style type="text/css">
   <![CDATA[
    .str1 {stroke:#333333;stroke-width:0.2}
    .str2 {stroke:#333333;stroke-width:0.25}
    .str0 {stroke:#333333;stroke-width:0.5}
    .fil0 {fill:none}
    .fil2 {fill:#A33535}
    .fil1 {fill:#A33838}
   ]]>
  </style>
 </defs>
 <g id="Слой_x0020_1">
  <metadata id="CorelCorpID_0Corel-Layer"/>
  <line class="fil0 str0" x1="23.3073" y1="68.8807" x2="23.3079" y2= "104.999" />
  <line class="fil0 str0" x1="114.636" y1="82.2119" x2="115.674" y2= "124.027" />
  <line class="fil0 str0" x1="188.883" y1="68.0546" x2="188.679" y2= "107.22" />
  <polyline class="fil0 str0" points="23.3079,104.998 115.92,124.077 188.679,107.22 "/>
  <g id="_197246440">
   <polygon id="_428546504" class="fil1 str0" points="9.7057,67.417 106.232,17.0832 198.311,67.1714 116.628,82.5115 "/>
   <line id="_428547680" class="fil0 str0" x1="106.149" y1="17.1996" x2="116.628" y2= "82.5115" />
   <line id="_428549192" class="fil0 str0" x1="194.135" y1="67.9556" x2="106.5" y2= "20.4934" />
   <line id="_428549528" class="fil0 str0" x1="17.5975" y1="68.2709" x2="106.696" y2= "20.6061" />
   <polygon id="_428549672" class="fil2 str1" points="103.259,18.6335 112.496,81.9283 116.628,82.5115 120.225,81.8361 109.899,19.0781 106.232,17.0832 "/>
   <line id="_428550104" class="fil0 str1" x1="106.149" y1="17.1996" x2="116.628" y2= "82.5115" />
   <path id="_197247352_1" class="fil0 str2" d="M119.862 79.6358c0.2624,0.0589 2.2387,0.1976 2.3921,0.4338l0.6181 0.9581c0.419,-0.4053 0.847,-0.9403 1.266,-1.3455 0.3973,-0.4404 0.6997,-0.7223 1.1549,-0.8874 0.2936,-0.0642 0.5294,-0.0822 0.7169,0.2102 0.2094,0.3244 0.4271,0.7471 0.664,1.2721 0.2392,-0.2378 0.5334,-0.5875 0.7727,-0.8256 0.3859,-0.402 0.7606,-0.809 1.2023,-1.059 0.2807,-0.1438 0.5763,-0.2446 0.7669,-0.1056 0.3146,0.1662 0.8038,0.7923 1.0472,1.2091"/>
   <line id="_428550656" class="fil0 str2" x1="126.868" y1="80.08" x2="118.063" y2= "68.6963" />
   <g id="_197261344">
    <path id="_197247352" class="fil0 str2" d="M119.156 75.3454c0.2624,0.0589 0.0586,0.2739 0.212,0.51l0.6181 0.9581c0.419,-0.4052 0.847,-0.9402 1.266,-1.3455 0.3973,-0.4403 0.6997,-0.7223 1.1549,-0.8873 0.2936,-0.0643 0.5294,-0.0822 0.7169,0.2101 0.2094,0.3245 0.4271,0.7471 0.664,1.2722 0.2392,-0.2378 0.5334,-0.5876 0.7727,-0.8257 0.3859,-0.402 0.7606,-0.809 1.2023,-1.0589 0.2807,-0.1438 0.5763,-0.2446 0.7669,-0.1056 0.3146,0.1662 0.8038,0.7922 1.0472,1.2091"/>
    <path id="_197248648" class="fil0 str2" d="M127.463 75.2947c1.6762,-1.6751 2.0949,-1.8817 2.4207,-2.0003 0.139,-0.0508 0.5696,-0.1003 0.8659,0.1345 0.3984,0.3159 0.8521,1.3832 0.8521,1.3832 0.9906,-0.992 2.4261,-2.6454 3.245,-2.4617 0.2624,0.0589 0.3476,0.2226 0.501,0.4587l0.6181 0.9582c0.419,-0.4053 0.847,-0.9402 1.266,-1.3453 0.3973,-0.4404 0.6997,-0.7226 1.1549,-0.8876 0.2937,-0.0643 0.5294,-0.0822 0.7169,0.2102 0.2094,0.3244 0.4271,0.747 0.664,1.2721 0.2392,-0.2377 0.5334,-0.5876 0.7728,-0.8256 0.3859,-0.4021 0.7605,-0.8089 1.2022,-1.0591 0.2807,-0.1437 0.5763,-0.2445 0.7669,-0.1054 0.3146,0.1661 0.8038,0.7921 1.0472,1.2089"/>
    <path id="_197247448" class="fil0 str2" d="M143.351 72.3709c1.6761,-1.6751 2.0949,-1.8818 2.4207,-2.0005 0.1388,-0.0506 0.5695,-0.1001 0.8657,0.1347 0.3984,0.316 0.8522,1.3831 0.8522,1.3831 0.9906,-0.9919 2.4261,-2.6452 3.245,-2.4616 0.2624,0.0589 0.3476,0.2226 0.501,0.4586l0.6181 0.9581c0.4189,-0.4052 0.847,-0.9401 1.266,-1.3453 0.3973,-0.4404 0.6997,-0.7224 1.1549,-0.8875 0.2936,-0.0642 0.5294,-0.0821 0.7169,0.2101 0.2093,0.3247 0.4271,0.747 0.6639,1.2723 0.2393,-0.2379 0.5335,-0.5878 0.7728,-0.8256 0.3859,-0.4022 0.7606,-0.809 1.2023,-1.0591 0.2807,-0.1439 0.5763,-0.2447 0.7669,-0.1056 0.3146,0.1662 0.8038,0.7921 1.0472,1.2091"/>
    <path id="_197250208" class="fil0 str2" d="M159.238 69.4471c1.6762,-1.675 2.0949,-1.8816 2.4207,-2.0003 0.139,-0.0508 0.5696,-0.1003 0.8659,0.1345 0.3984,0.316 0.8521,1.3833 0.8521,1.3833 0.9906,-0.992 2.4261,-2.6454 3.245,-2.4617 0.2624,0.0589 0.3476,0.2225 0.501,0.4587l0.6181 0.9581c0.419,-0.4053 0.847,-0.9402 1.266,-1.3453 0.3973,-0.4404 0.6997,-0.7226 1.1549,-0.8876 0.2937,-0.0643 0.5294,-0.0821 0.7169,0.2102 0.2094,0.3245 0.4271,0.747 0.664,1.2722 0.2392,-0.2378 0.5334,-0.5877 0.7728,-0.8257 0.3859,-0.402 0.7605,-0.8088 1.2022,-1.059 0.2807,-0.1438 0.5763,-0.2446 0.7669,-0.1055 0.3146,0.1662 0.8038,0.7921 1.0472,1.2091"/>
    <path id="_197256568" class="fil0 str2" d="M175.127 66.5231c1.6762,-1.6752 2.0949,-1.8818 2.4207,-2.0004 0.139,-0.0506 0.5696,-0.1002 0.8659,0.1347 0.3984,0.3159 0.8521,1.383 0.8521,1.383 0.9906,-0.9918 2.4261,-2.6452 3.245,-2.4616 0.2624,0.0589 0.3476,0.2226 0.501,0.4586l0.6181 0.9581c0.419,-0.4053 1.3918,-1.3436 1.8108,-1.7488"/>
    <path id="_197248648_2" class="fil0 str2" d="M130.349 79.5089c1.6762,-1.6752 2.0949,-1.8818 2.4207,-2.0003 0.139,-0.0508 0.5696,-0.1003 0.8659,0.1345 0.3984,0.3158 0.8521,1.3832 0.8521,1.3832 0.9906,-0.992 2.4261,-2.6454 3.245,-2.4618 0.2624,0.059 0.3476,0.2226 0.501,0.4588l0.6181 0.9581c0.419,-0.4052 0.847,-0.9402 1.266,-1.3453 0.3973,-0.4404 0.6997,-0.7225 1.1549,-0.8876 0.2937,-0.0643 0.5294,-0.0821 0.7169,0.2102 0.2094,0.3244 0.4271,0.747 0.664,1.2722 0.2392,-0.2377 0.5334,-0.5876 0.7728,-0.8257 0.3859,-0.402 0.7605,-0.8088 1.2022,-1.059 0.2807,-0.1438 0.5763,-0.2446 0.7669,-0.1054 0.3146,0.166 0.8037,0.792 1.0471,1.2089"/>
    <path id="_197247448_3" class="fil0 str2" d="M146.237 76.5851c1.6761,-1.6752 2.0949,-1.8819 2.4207,-2.0005 0.1389,-0.0506 0.5696,-0.1001 0.8658,0.1347 0.3984,0.3159 0.8522,1.3831 0.8522,1.3831 0.9906,-0.9919 2.4261,-2.6453 3.245,-2.4617 0.2624,0.059 0.3476,0.2226 0.501,0.4587l0.6181 0.9581c0.4189,-0.4053 0.847,-0.9401 1.266,-1.3453 0.3973,-0.4404 0.6997,-0.7224 1.1549,-0.8875 0.2936,-0.0643 0.5294,-0.0821 0.7169,0.21 0.2093,0.3246 0.4271,0.7471 0.6639,1.2724 0.2393,-0.2379 0.5335,-0.5878 0.7728,-0.8256 0.3859,-0.4022 0.7606,-0.8091 1.2023,-1.0591 0.2807,-0.144 0.5763,-0.2448 0.7669,-0.1056 0.3146,0.1661 0.8038,0.7921 1.0472,1.209"/>
    <path id="_197250208_4" class="fil0 str2" d="M162.124 73.6613c1.6762,-1.675 2.0949,-1.8816 2.4207,-2.0003 0.139,-0.0508 0.5696,-0.1003 0.8659,0.1345 0.3984,0.316 0.8521,1.3833 0.8521,1.3833 0.9906,-0.9921 2.4261,-2.6454 3.245,-2.4618 0.2624,0.0589 0.3476,0.2226 0.501,0.4588l0.6181 0.9581c0.419,-0.4053 0.847,-0.9403 1.266,-1.3453 0.3973,-0.4404 0.6997,-0.7226 1.1549,-0.8877 0.2937,-0.0642 0.5294,-0.0821 0.7169,0.2103 0.2094,0.3245 0.4271,0.747 0.664,1.2721 0.2392,-0.2377 0.5334,-0.5876 0.7728,-0.8256 0.3859,-0.402 0.7605,-0.8089 1.2022,-1.0591 0.2807,-0.1438 0.5763,-0.2446 0.7669,-0.1054 0.3146,0.1661 0.8038,0.7921 1.0472,1.209"/>
    <path id="_197256568_5" class="fil0 str2" d="M178.013 70.7373c1.6762,-1.6752 2.0949,-1.8819 2.4207,-2.0004 0.139,-0.0507 0.5696,-0.1002 0.8659,0.1346 0.3984,0.3159 0.8521,1.3831 0.8521,1.3831 0.9906,-0.9918 2.4261,-2.6453 3.245,-2.4616 0.2624,0.0589 0.3476,0.2225 0.501,0.4586l0.6181 0.9581c0.419,-0.4053 0.8471,-0.9401 1.2661,-1.3454 0.3972,-0.4403 0.6996,-0.7222 1.1548,-0.8873 0.2937,-0.0643 0.5294,-0.0822 0.7169,0.2099 0.2094,0.3247 0.4272,0.7471 0.664,1.2724 0.2392,-0.2378 0.5335,-0.5877 0.7728,-0.8257 0.3859,-0.4021 0.7605,-0.809 1.2022,-1.0589"/>
    <path id="_197251240" class="fil0 str2" d="M118.565 70.2979c0.2936,-0.0643 0.5294,-0.0822 0.7169,0.2101 0.2093,0.3245 0.4271,0.747 0.6639,1.2722 0.2393,-0.2378 0.5335,-0.5876 0.7728,-0.8256 0.3859,-0.4022 0.7606,-0.8091 1.2023,-1.059 0.2807,-0.1438 0.5763,-0.2446 0.7669,-0.1056 0.3146,0.1662 0.8038,0.7922 1.0472,1.2089"/>
    <path id="_197248744" class="fil0 str2" d="M123.621 71.0119c1.6761,-1.6751 2.0949,-1.8817 2.4207,-2.0004 0.1389,-0.0506 0.5696,-0.1002 0.8659,0.1346 0.3984,0.3159 0.8521,1.3831 0.8521,1.3831 0.9906,-0.9918 2.4261,-2.6453 3.245,-2.4616 0.2624,0.059 0.3476,0.2226 0.501,0.4588l0.6181 0.9581c0.419,-0.4052 0.847,-0.9402 1.266,-1.3455 0.3973,-0.4403 0.6997,-0.7223 1.1549,-0.8874 0.2936,-0.0643 0.5294,-0.0821 0.7169,0.2102 0.2094,0.3244 0.4271,0.747 0.664,1.2722 0.2392,-0.2379 0.5334,-0.5877 0.7727,-0.8257 0.3859,-0.4022 0.7606,-0.809 1.2023,-1.059 0.2807,-0.1438 0.5763,-0.2446 0.7669,-0.1056 0.3146,0.1662 0.8038,0.7922 1.0472,1.2091"/>
    <path id="_197247472" class="fil0 str2" d="M139.509 68.0879c1.6761,-1.675 2.0949,-1.8816 2.4206,-2.0003 0.139,-0.0506 0.5697,-0.1001 0.8659,0.1347 0.3984,0.3158 0.8522,1.3831 0.8522,1.3831 0.9906,-0.992 2.426,-2.6454 3.2449,-2.4617 0.2624,0.0589 0.3476,0.2225 0.501,0.4587l0.618 0.9581c0.419,-0.4052 0.8471,-0.9401 1.2661,-1.3453 0.3972,-0.4404 0.6997,-0.7224 1.1549,-0.8876 0.2936,-0.0641 0.5294,-0.0821 0.7169,0.2102 0.2093,0.3246 0.4271,0.747 0.6639,1.2723 0.2393,-0.2379 0.5335,-0.5878 0.7728,-0.8256 0.3859,-0.4022 0.7606,-0.8091 1.2023,-1.0591 0.2806,-0.1439 0.5763,-0.2447 0.7669,-0.1056 0.3146,0.1662 0.8038,0.7921 1.0472,1.209"/>
    <path id="_197249104" class="fil0 str2" d="M155.396 65.1643c1.6761,-1.675 2.0949,-1.8818 2.4207,-2.0004 0.1389,-0.0507 0.5696,-0.1002 0.8659,0.1346 0.3984,0.316 0.8521,1.3831 0.8521,1.3831 0.9906,-0.9918 2.4261,-2.6452 3.245,-2.4615 0.2624,0.0589 0.3476,0.2225 0.501,0.4587l0.6181 0.9581c0.419,-0.4053 0.847,-0.9402 1.266,-1.3455 0.3973,-0.4403 0.6997,-0.7224 1.1549,-0.8874 0.2936,-0.0643 0.5294,-0.0821 0.7169,0.2102 0.2094,0.3245 0.4271,0.747 0.664,1.2722 0.2392,-0.2379 0.5334,-0.5877 0.7727,-0.8257 0.3859,-0.4021 0.7606,-0.809 1.2023,-1.0591 0.2807,-0.1437 0.5763,-0.2445 0.7669,-0.1055 0.3146,0.1663 0.8038,0.7922 1.0472,1.2092"/>
    <path id="_194944632" class="fil0 str2" d="M171.284 62.2403c1.6762,-1.675 2.0949,-1.8816 2.4207,-2.0002 0.139,-0.0506 0.5696,-0.1002 0.8659,0.1346 0.3984,0.3158 0.8521,1.3831 0.8521,1.3831 0.9906,-0.9919 2.4261,-2.6454 3.245,-2.4617 0.2624,0.0589 0.3476,0.2225 0.501,0.4588l0.6181 0.958"/>
    <path id="_197257168" class="fil0 str2" d="M120.171 66.5351c1.6761,-1.6752 2.0949,-1.8818 2.4206,-2.0003 0.139,-0.0508 0.5697,-0.1004 0.8659,0.1345 0.3984,0.3158 0.8521,1.3832 0.8521,1.3832 0.9907,-0.992 2.4262,-2.6455 3.2451,-2.4618 0.2624,0.059 0.3476,0.2226 0.501,0.4588l0.618 0.9581c0.419,-0.4052 0.8471,-0.9403 1.2661,-1.3454 0.3972,-0.4403 0.6997,-0.7224 1.1549,-0.8875 0.2936,-0.0643 0.5294,-0.0821 0.7169,0.2101 0.2093,0.3245 0.4271,0.7471 0.6639,1.2722 0.2393,-0.2376 0.5335,-0.5876 0.7728,-0.8256 0.3859,-0.402 0.7606,-0.8089 1.2023,-1.059 0.2806,-0.1438 0.5763,-0.2446 0.7669,-0.1054 0.3146,0.166 0.8038,0.792 1.0472,1.2089"/>
    <path id="_194951352" class="fil0 str2" d="M136.059 63.6111c1.6761,-1.6752 2.0949,-1.8818 2.4207,-2.0004 0.1389,-0.0506 0.5696,-0.1001 0.8659,0.1346 0.3983,0.3159 0.8521,1.3831 0.8521,1.3831 0.9906,-0.9918 2.4261,-2.6452 3.245,-2.4616 0.2624,0.059 0.3476,0.2226 0.501,0.4586l0.6181 0.9581c0.4189,-0.4052 0.847,-0.94 1.266,-1.3453 0.3972,-0.4403 0.6996,-0.7223 1.1548,-0.8874 0.2936,-0.0643 0.5294,-0.0821 0.7169,0.21 0.2093,0.3246 0.4271,0.747 0.6639,1.2724 0.2393,-0.2379 0.5335,-0.5878 0.7728,-0.8257 0.3859,-0.4021 0.7606,-0.809 1.2023,-1.059 0.2807,-0.144 0.5763,-0.2448 0.7669,-0.1056 0.3146,0.1661 0.8038,0.792 1.0472,1.209"/>
    <path id="_195127048" class="fil0 str2" d="M151.946 60.6874c1.6762,-1.6751 2.0949,-1.8817 2.4207,-2.0003 0.139,-0.0508 0.5696,-0.1003 0.8659,0.1345 0.3984,0.3159 0.8521,1.3833 0.8521,1.3833 0.9906,-0.9921 2.4261,-2.6454 3.245,-2.4618 0.2624,0.0589 0.3476,0.2226 0.501,0.4587l0.6181 0.9582c0.419,-0.4053 0.847,-0.9403 1.266,-1.3455 0.3973,-0.4402 0.6997,-0.7224 1.1549,-0.8875 0.2937,-0.0643 0.5294,-0.0821 0.7169,0.2102 0.2094,0.3245 0.4271,0.747 0.664,1.2722 0.2392,-0.2379 0.5334,-0.5876 0.7728,-0.8256 0.3859,-0.402 0.7605,-0.809 1.2022,-1.0591 0.2807,-0.1438 0.5763,-0.2446 0.7669,-0.1054 0.3146,0.1661 0.8038,0.7921 1.0472,1.209"/>
    <path id="_195127240" class="fil0 str2" d="M167.834 57.7634c1.6762,-1.675 2.0949,-1.8816 2.4207,-2.0003 0.139,-0.0506 0.5696,-0.1001 0.8659,0.1346 0.3984,0.316 0.8521,1.3832 0.8521,1.3832"/>
    <path id="_195130888" class="fil0 str2" d="M116.643 61.9607c1.6761,-1.675 2.0949,-1.8817 2.4206,-2.0003 0.139,-0.0507 0.5697,-0.1003 0.8659,0.1345 0.3984,0.316 0.8521,1.3833 0.8521,1.3833 0.9907,-0.992 2.4262,-2.6455 3.2451,-2.4618 0.2624,0.0589 0.3476,0.2225 0.501,0.4588l0.618 0.9581c0.419,-0.4053 0.8471,-0.9403 1.2661,-1.3454 0.3972,-0.4403 0.6997,-0.7225 1.1549,-0.8876 0.2936,-0.0642 0.5294,-0.0821 0.7169,0.2102 0.2093,0.3246 0.4271,0.747 0.6639,1.2722 0.2393,-0.2377 0.5335,-0.5876 0.7728,-0.8256 0.3859,-0.402 0.7606,-0.8089 1.2023,-1.059 0.2806,-0.1438 0.5763,-0.2446 0.7669,-0.1054 0.3146,0.166 0.8038,0.792 1.0472,1.2089"/>
    <path id="_195131080" class="fil0 str2" d="M132.531 59.0369c1.6761,-1.675 2.0948,-1.8818 2.4206,-2.0003 0.139,-0.0507 0.5696,-0.1003 0.8659,0.1346 0.3984,0.3159 0.8521,1.383 0.8521,1.383 0.9907,-0.9918 2.4262,-2.6452 3.2451,-2.4616 0.2623,0.059 0.3475,0.2226 0.501,0.4587l0.618 0.958c0.419,-0.4052 0.8471,-0.9401 1.2661,-1.3453 0.3972,-0.4403 0.6996,-0.7223 1.1549,-0.8874 0.2936,-0.0642 0.5294,-0.0822 0.7169,0.21 0.2093,0.3247 0.4271,0.7471 0.6639,1.2724 0.2392,-0.2378 0.5335,-0.5878 0.7728,-0.8257 0.3858,-0.4022 0.7604,-0.809 1.2021,-1.059 0.2807,-0.1439 0.5764,-0.2447 0.7669,-0.1055 0.3147,0.166 0.8038,0.792 1.0472,1.2089"/>
    <path id="_195131272" class="fil0 str2" d="M148.419 56.1129c1.6761,-1.6751 2.0949,-1.8817 2.4206,-2.0002 0.139,-0.0508 0.5697,-0.1004 0.8659,0.1345 0.3984,0.3158 0.8521,1.3831 0.8521,1.3831 0.9907,-0.9919 2.4262,-2.6454 3.2451,-2.4617 0.2624,0.059 0.3475,0.2226 0.501,0.4588l0.618 0.9581c0.419,-0.4052 0.8471,-0.9403 1.2661,-1.3454 0.3972,-0.4403 0.6997,-0.7224 1.1549,-0.8875 0.2936,-0.0643 0.5294,-0.0821 0.7169,0.2101 0.2093,0.3245 0.4271,0.7471 0.6639,1.2722 0.2393,-0.2377 0.5335,-0.5876 0.7728,-0.8257 0.3859,-0.402 0.7606,-0.8088 1.2023,-1.0589 0.2806,-0.1438 0.5763,-0.2446 0.7669,-0.1054 0.3146,0.166 0.8038,0.792 1.0472,1.2089"/>
    <path id="_195132424" class="fil0 str2" d="M115.89 55.4928c0.139,-0.0508 0.3783,-0.0627 0.6745,0.1722 0.3984,0.3158 0.8521,1.3831 0.8521,1.3831 0.9907,-0.992 2.4262,-2.6455 3.2451,-2.4618 0.2624,0.0589 0.3476,0.2226 0.501,0.4588l0.618 0.9581c0.419,-0.4053 0.8471,-0.9401 1.2661,-1.3454 0.3972,-0.4403 0.6997,-0.7224 1.1549,-0.8875 0.2936,-0.0642 0.5294,-0.0822 0.7169,0.2101 0.2093,0.3247 0.4271,0.7471 0.6639,1.2722 0.2393,-0.2376 0.5335,-0.5875 0.7728,-0.8256 0.3859,-0.402 0.7606,-0.8089 1.2023,-1.059 0.2806,-0.1438 0.5763,-0.2446 0.7669,-0.1054 0.3146,0.166 0.8038,0.792 1.0472,1.2089"/>
    <path id="_195132616" class="fil0 str2" d="M129.166 54.6069c1.6761,-1.6751 2.0948,-1.8819 2.4206,-2.0004 0.139,-0.0507 0.5696,-0.1003 0.8659,0.1346 0.3984,0.3159 0.8521,1.383 0.8521,1.383 0.9907,-0.9918 2.4261,-2.6452 3.2451,-2.4616 0.2623,0.0591 0.3475,0.2227 0.501,0.4588l0.618 0.9582c0.419,-0.4053 0.8471,-0.9404 1.2661,-1.3456 0.3972,-0.4403 0.6996,-0.7223 1.1549,-0.8874 0.2936,-0.0642 0.5294,-0.0821 0.7169,0.2101 0.2093,0.3246 0.4271,0.747 0.6639,1.2723 0.2392,-0.2378 0.5335,-0.5876 0.7728,-0.8257 0.3859,-0.4022 0.7605,-0.809 1.2022,-1.059 0.2807,-0.1437 0.5764,-0.2447 0.7669,-0.1055 0.3147,0.1661 0.8038,0.7922 1.0472,1.2089"/>
    <path id="_195132808" class="fil0 str2" d="M145.053 51.683c1.6761,-1.6751 2.0948,-1.8817 2.4206,-2.0003 0.139,-0.0508 0.5696,-0.1002 0.8659,0.1347 0.3984,0.3157 0.8521,1.383 0.8521,1.383 0.9906,-0.9919 2.4261,-2.6454 3.245,-2.4617 0.2624,0.059 0.3476,0.2226 0.501,0.4588l0.6181 0.9581c0.419,-0.4052 0.8471,-0.9401 1.2661,-1.3453 0.3972,-0.4404 0.6996,-0.7225 1.1548,-0.8876 0.2937,-0.0643 0.5294,-0.0821 0.7169,0.2102 0.2094,0.3244 0.4271,0.747 0.664,1.2722 0.2392,-0.2378 0.5334,-0.5877 0.7728,-0.8257"/>
    <path id="_194945784" class="fil0 str2" d="M114.928 49.6452c0.2623,0.059 2.4705,0.4445 2.624,0.6806l0.618 0.9582c0.419,-0.4053 0.8471,-0.9403 1.2661,-1.3455 0.3972,-0.4402 0.6996,-0.7224 1.1549,-0.8875 0.2936,-0.0642 0.5294,-0.0821 0.7169,0.2102 0.2093,0.3245 0.4271,0.747 0.6639,1.2722 0.2393,-0.2379 0.5335,-0.5876 0.7728,-0.8256 0.3859,-0.402 0.7605,-0.809 1.2022,-1.0591 0.2807,-0.1438 0.5764,-0.2446 0.767,-0.1056 0.3146,0.1663 0.8037,0.7923 1.0472,1.2092"/>
    <path id="_194945976" class="fil0 str2" d="M125.555 49.8875c1.6762,-1.6751 2.0949,-1.8817 2.4207,-2.0003 0.139,-0.0507 0.5696,-0.1002 0.8659,0.1346 0.3984,0.316 0.8521,1.3831 0.8521,1.3831 0.9906,-0.9918 2.4261,-2.6452 3.2451,-2.4616 0.2623,0.059 0.3475,0.2226 0.5009,0.4587l0.6181 0.958c0.419,-0.4052 0.8471,-0.94 1.2661,-1.3453 0.3972,-0.4403 0.6996,-0.7224 1.1549,-0.8875 0.2936,-0.0642 0.5293,-0.082 0.7168,0.2101 0.2094,0.3247 0.4272,0.747 0.664,1.2724 0.2392,-0.2379 0.5335,-0.5879 0.7728,-0.8257 0.3859,-0.4022 0.7605,-0.809 1.2022,-1.059 0.2807,-0.144 0.5764,-0.2448 0.7669,-0.1056 0.3147,0.1661 0.8038,0.792 1.0472,1.209"/>
    <path id="_194946168" class="fil0 str2" d="M141.442 46.9638c1.6762,-1.675 2.0949,-1.8816 2.4207,-2.0003 0.1389,-0.0507 0.5696,-0.1003 0.8659,0.1345 0.3984,0.316 0.8521,1.3831 0.8521,1.3831 0.9905,-0.9918 2.426,-2.6452 3.2449,-2.4616 0.2624,0.0589 0.3476,0.2226 0.501,0.4588l0.6181 0.9581c0.419,-0.4053 0.4559,-0.5344 0.8749,-0.9396"/>
    <path id="_194948088" class="fil0 str2" d="M114.301 45.9079l0.618 0.9581c0.419,-0.4053 0.8471,-0.9401 1.2661,-1.3454 0.3972,-0.4403 0.6996,-0.7223 1.1549,-0.8876 0.2936,-0.0641 0.5293,-0.0819 0.7168,0.2103 0.2094,0.3246 0.4272,0.7469 0.664,1.2723 0.2392,-0.2379 0.5335,-0.5878 0.7728,-0.8257 0.3859,-0.4021 0.7605,-0.809 1.2022,-1.059 0.2807,-0.1438 0.5764,-0.2447 0.7669,-0.1055 0.3147,0.166 0.8038,0.792 1.0472,1.2089"/>
    <path id="_194948280" class="fil0 str2" d="M122.304 45.4696c1.6762,-1.675 2.0949,-1.8816 2.4207,-2.0003 0.139,-0.0507 0.5696,-0.1003 0.8659,0.1346 0.3984,0.3159 0.8521,1.383 0.8521,1.383 0.9906,-0.9917 2.4261,-2.6452 3.245,-2.4615 0.2624,0.0589 0.3476,0.2225 0.501,0.4587l0.6181 0.9581c0.419,-0.4053 0.847,-0.9402 1.266,-1.3455 0.3973,-0.4403 0.6997,-0.7223 1.1549,-0.8873 0.2937,-0.0643 0.5294,-0.0822 0.7169,0.2101 0.2094,0.3245 0.4271,0.7471 0.664,1.2722 0.2392,-0.2378 0.5334,-0.5877 0.7727,-0.8257 0.386,-0.4022 0.7606,-0.809 1.2023,-1.0589 0.2807,-0.1438 0.5763,-0.2446 0.7669,-0.1056 0.3146,0.1662 0.8038,0.7922 1.0472,1.2091"/>
    <path id="_194948472" class="fil0 str2" d="M138.191 42.5458c1.6761,-1.6751 2.0949,-1.8818 2.4206,-2.0003 0.139,-0.0506 0.5697,-0.1003 0.8659,0.1346 1.2363,1.6816 2.246,-0.0265 2.246,-0.0265"/>
    <path id="_194950008" class="fil0 str2" d="M113.436 40.5786c0.2936,-0.0641 1.1664,-0.4605 1.3539,-0.1684 0.2093,0.3247 0.4271,0.7471 0.6639,1.2724 0.2393,-0.2378 0.5335,-0.5878 0.7728,-0.8257 0.3859,-0.4021 0.7606,-0.809 1.2023,-1.0589 0.2806,-0.144 0.5763,-0.2448 0.7669,-0.1056 0.3146,0.166 0.8038,0.792 1.0472,1.2089"/>
    <path id="_194952312" class="fil0 str2" d="M119.037 41.0367c1.6761,-1.6751 2.0948,-1.8817 2.4206,-2.0003 0.139,-0.0508 0.5696,-0.1004 0.8659,0.1345 0.3984,0.3159 0.8521,1.383 0.8521,1.383 0.9907,-0.9918 2.4262,-2.6452 3.2451,-2.4616 0.2623,0.059 0.3475,0.2226 0.501,0.4588l0.618 0.9581c0.419,-0.4053 0.8471,-0.9403 1.2661,-1.3455 0.3972,-0.4404 0.6996,-0.7223 1.1549,-0.8874 0.2936,-0.0642 0.5294,-0.0822 0.7169,0.2102 0.2093,0.3245 0.4271,0.7471 0.6639,1.2721 0.2393,-0.2378 0.5335,-0.5875 0.7728,-0.8256 0.3859,-0.402 0.7605,-0.809 1.2022,-1.059 0.2807,-0.1437 0.5764,-0.2446 0.7669,-0.1055 0.3147,0.1661 0.8038,0.7922 1.0472,1.209"/>
    <path id="_195130312" class="fil0 str2" d="M112.87 37.1381c0.3859,-0.4021 1.0239,-1.2705 1.4656,-1.5204 0.2806,-0.144 0.5763,-0.2448 0.7669,-0.1056 0.3146,0.166 0.8038,0.792 1.0472,1.2089"/>
    <path id="_194940024" class="fil0 str2" d="M115.944 36.8563c1.6761,-1.675 2.0949,-1.8817 2.4206,-2.0002 0.139,-0.0508 0.5697,-0.1004 0.8659,0.1345 0.3984,0.3159 0.8521,1.383 0.8521,1.383 0.9907,-0.9918 2.4262,-2.6452 3.2451,-2.4616 0.2623,0.0589 0.3475,0.2226 0.501,0.4588l0.618 0.9581c0.419,-0.4053 0.8471,-0.9403 1.2661,-1.3455 0.3972,-0.4402 0.6997,-0.7223 1.1549,-0.8874 0.2936,-0.0642 0.5294,-0.0822 0.7169,0.2101 0.2093,0.3246 0.4271,0.7472 0.6639,1.2722 0.2393,-0.2378 1.3559,-1.204 1.5952,-1.4421"/>
    <path id="_194942520" class="fil0 str2" d="M111.935 31.4519c0.3147,0.166 0.4211,0.4708 0.6645,0.8877"/>
    <path id="_194942712" class="fil0 str2" d="M112.393 32.475c1.6761,-1.6751 2.0949,-1.8817 2.4207,-2.0003 0.1389,-0.0508 0.5696,-0.1003 0.8659,0.1345 0.3984,0.3159 0.8521,1.3832 0.8521,1.3832 0.9906,-0.992 2.4261,-2.6454 3.245,-2.4618 0.2624,0.059 0.3476,0.2227 0.501,0.4588l0.6181 0.9582c0.419,-0.4053 1.3443,-1.2968 1.7633,-1.702"/>
    <path id="_194945208" class="fil0 str2" d="M111.175 26.8364c0.139,-0.0506 1.3613,-0.2719 1.6575,-0.037 0.3984,0.3157 0.8522,1.383 0.8522,1.383 0.9906,-0.9919 2.4261,-2.6454 3.245,-2.4617 0.2624,0.059 0.3476,0.2226 0.501,0.4588l0.618 0.9581"/>
    <line id="_197252128" class="fil0 str2" x1="130.462" y1="79.643" x2="116.643" y2= "61.9607" />
    <line id="_197260744" class="fil0 str2" x1="134.446" y1="78.6827" x2="115.723" y2= "54.4752" />
    <line id="_197263456" class="fil0 str2" x1="138.957" y1="77.827" x2="114.301" y2= "45.9079" />
    <line id="_197266960" class="fil0 str2" x1="142.777" y1="77.276" x2="112.966" y2= "38.7341" />
    <line id="_197274856" class="fil0 str2" x1="146.431" y1="76.335" x2="111.935" y2= "31.4519" />
    <line id="_197269696" class="fil0 str2" x1="150.461" y1="75.6953" x2="111.305" y2= "25.0699" />
    <line id="_197260600" class="fil0 str2" x1="154.667" y1="74.903" x2="117.359" y2= "26.6492" />
    <line id="_197260672" class="fil0 str2" x1="158.626" y1="74.1162" x2="125.177" y2= "30.8692" />
    <line id="_197269456" class="fil0 str2" x1="162.229" y1="73.4313" x2="132.373" y2= "34.8304" />
    <line id="_197266216" class="fil0 str2" x1="166.041" y1="72.6182" x2="139.93" y2= "38.8601" />
    <line id="_197274496" class="fil0 str2" x1="170.345" y1="71.6864" x2="148.231" y2= "43.0945" />
    <line id="_197275408" class="fil0 str2" x1="174.314" y1="71.0533" x2="156.407" y2= "47.9017" />
    <line id="_197271160" class="fil0 str2" x1="178.188" y1="70.3132" x2="163.554" y2= "51.3935" />
    <line id="_197251720" class="fil0 str2" x1="181.942" y1="69.4223" x2="171.121" y2= "55.8976" />
    <line id="_197271376" class="fil0 str2" x1="186.211" y1="68.6059" x2="179.331" y2= "60.0732" />
   </g>
   <path id="_197247352_0" class="fil0 str2" d="M94.3004 74.6254c-0.4298,-0.3864 -0.8688,-0.902 -1.2986,-1.2882 -0.4076,-0.4224 -0.7178,-0.6906 -1.1847,-0.8352 -0.3012,-0.0509 -0.543,-0.0581 -0.7354,0.2427 -0.2148,0.334 -0.4381,0.7664 -0.6811,1.3023 -0.2454,-0.2271 -0.5471,-0.5636 -0.7926,-0.7907 -0.3958,-0.3846 -0.7802,-0.7746 -1.2333,-1.0046 -0.2879,-0.131 -0.5911,-0.2184 -0.7867,-0.0708 -0.3227,0.1804 -0.8245,0.8286 -1.0741,1.2565"/>
   <path id="_197247352_1_0" class="fil0 str2" d="M91.5468 78.9754c-0.4298,-0.3864 -0.8688,-0.902 -1.2986,-1.2882 -0.4076,-0.4224 -0.7178,-0.6906 -1.1847,-0.8352 -0.3012,-0.0508 -0.543,-0.0581 -0.7354,0.2428 -0.2148,0.3339 -0.4381,0.7663 -0.6811,1.3022 -0.2454,-0.2271 -0.5471,-0.5636 -0.7926,-0.7907 -0.3958,-0.3846 -0.7802,-0.7745 -1.2333,-1.0046 -0.2879,-0.131 -0.5911,-0.2184 -0.7867,-0.0708 -0.3227,0.1804 -0.8245,0.8286 -1.0741,1.2566"/>
   <path id="_197247352_2" class="fil0 str2" d="M98.9939 79.9018c-0.4298,-0.3864 -0.8688,-0.9019 -1.2986,-1.2882 -0.4076,-0.4224 -0.7178,-0.6906 -1.1847,-0.8352 -0.3012,-0.0508 -0.543,-0.0581 -0.7354,0.2428 -0.2148,0.3339 -0.4381,0.7663 -0.6811,1.3022 -0.2454,-0.227 -0.5471,-0.5635 -0.7926,-0.7907 -0.3958,-0.3845 -0.7802,-0.7745 -1.2333,-1.0046 -0.2879,-0.131 -0.5911,-0.2184 -0.7867,-0.0708 -0.3227,0.1804 -0.8245,0.8287 -1.0741,1.2566"/>
   <path id="_197247352_3" class="fil0 str2" d="M101.999 75.828c-0.4298,-0.3863 -0.8688,-0.9019 -1.2986,-1.2882 -0.4076,-0.4223 -0.7178,-0.6906 -1.1847,-0.8351 -0.3012,-0.0509 -0.543,-0.0581 -0.7354,0.2427 -0.2148,0.334 -0.4381,0.7664 -0.6811,1.3022 -0.2454,-0.227 -0.5471,-0.5635 -0.7926,-0.7907 -0.3958,-0.3845 -0.7802,-0.7745 -1.2333,-1.0046 -0.2879,-0.131 -0.5911,-0.2184 -0.7867,-0.0707 -0.3227,0.1804 -0.8245,0.8286 -1.0741,1.2565"/>
   <path id="_197247352_4" class="fil0 str2" d="M109.754 76.9843c-0.4298,-0.3864 -0.8688,-0.9019 -1.2986,-1.2882 -0.4076,-0.4224 -0.7178,-0.6906 -1.1847,-0.8352 -0.3012,-0.0508 -0.543,-0.0581 -0.7354,0.2428 -0.2148,0.3339 -0.4381,0.7664 -0.6811,1.3022 -0.2454,-0.227 -0.5471,-0.5635 -0.7926,-0.7907 -0.3958,-0.3845 -0.7802,-0.7745 -1.2333,-1.0046 -0.2879,-0.131 -0.5911,-0.2184 -0.7867,-0.0708 -0.3227,0.1804 -0.8245,0.8287 -1.0741,1.2566"/>
   <path id="_197247352_5" class="fil0 str2" d="M111.584 75.7669c-0.2879,-0.131 -0.5911,-0.2184 -0.7867,-0.0708 -0.3227,0.1804 -0.8245,0.8286 -1.0741,1.2565"/>
   <path id="_197247352_6" class="fil0 str2" d="M102.078 70.8004c-0.4298,-0.3863 -0.8688,-0.9019 -1.2986,-1.2882 -0.4076,-0.4223 -0.7178,-0.6906 -1.1847,-0.8351 -0.3012,-0.0509 -0.543,-0.0581 -0.7354,0.2427 -0.2148,0.334 -0.4381,0.7664 -0.6811,1.3022 -0.2454,-0.227 -0.5471,-0.5635 -0.7926,-0.7907 -0.3958,-0.3845 -0.7802,-0.7745 -1.2333,-1.0046 -0.2879,-0.131 -0.5911,-0.2184 -0.7867,-0.0707 -0.3227,0.1804 -0.8245,0.8286 -1.0741,1.2565"/>
   <path id="_197247352_7" class="fil0 str2" d="M109.776 71.975c-0.4298,-0.3863 -0.8688,-0.9019 -1.2986,-1.2882 -0.4076,-0.4223 -0.7178,-0.6906 -1.1847,-0.8351 -0.3012,-0.0509 -0.543,-0.0581 -0.7354,0.2427 -0.2148,0.3339 -0.4381,0.7664 -0.6811,1.3022 -0.2454,-0.227 -0.5471,-0.5635 -0.7926,-0.7907 -0.3958,-0.3845 -0.7802,-0.7745 -1.2333,-1.0046 -0.2879,-0.131 -0.5911,-0.2184 -0.7867,-0.0707 -0.3227,0.1804 -0.8245,0.8286 -1.0741,1.2565"/>
   <path id="_197247352_8" class="fil0 str2" d="M110.761 70.7051c-0.3227,0.1804 -0.8245,0.8286 -1.0741,1.2566"/>
   <path id="_197247352_9" class="fil0 str2" d="M101.728 65.5399c-0.4298,-0.3863 -0.8688,-0.9019 -1.2986,-1.2881 -0.4076,-0.4224 -0.7178,-0.6906 -1.1847,-0.8352 -0.3012,-0.0509 -0.543,-0.0581 -0.7354,0.2427 -0.2148,0.334 -0.4381,0.7664 -0.6811,1.3023 -0.2454,-0.2271 -0.5471,-0.5636 -0.7926,-0.7907 -0.3958,-0.3846 -0.7802,-0.7746 -1.2333,-1.0046 -0.2879,-0.1311 -0.5911,-0.2184 -0.7867,-0.0708 -0.3227,0.1804 -0.8245,0.8286 -1.0741,1.2565"/>
   <path id="_197247352_10" class="fil0 str2" d="M109.496 66.596c-0.4298,-0.3864 -0.8688,-0.9019 -1.2986,-1.2882 -0.4076,-0.4224 -0.7178,-0.6906 -1.1847,-0.8352 -0.3012,-0.0508 -0.543,-0.0581 -0.7354,0.2428 -0.2148,0.3339 -0.4381,0.7663 -0.6811,1.3022 -0.2454,-0.2271 -0.5471,-0.5635 -0.7926,-0.7907 -0.3958,-0.3845 -0.7802,-0.7745 -1.2333,-1.0046 -0.2879,-0.131 -0.5911,-0.2184 -0.7867,-0.0708 -0.3227,0.1804 -0.8245,0.8286 -1.0741,1.2566"/>
   <path id="_197247352_11" class="fil0 str2" d="M105.658 60.8654c-0.4298,-0.3864 -0.8688,-0.902 -1.2986,-1.2882 -0.4076,-0.4224 -0.7178,-0.6906 -1.1847,-0.8352 -0.3012,-0.0509 -0.543,-0.0581 -0.7354,0.2427 -0.2148,0.334 -0.4381,0.7664 -0.6811,1.3023 -0.2454,-0.2271 -0.5471,-0.5636 -0.7926,-0.7907 -0.3958,-0.3846 -0.7802,-0.7746 -1.2333,-1.0046 -0.2879,-0.131 -0.5911,-0.2184 -0.7867,-0.0708 -0.3227,0.1804 -0.8245,0.8286 -1.0741,1.2565"/>
   <path id="_197247352_12" class="fil0 str2" d="M109.412 61.526c-0.2454,-0.227 -0.5471,-0.5635 -0.7926,-0.7906 -0.3958,-0.3846 -0.7802,-0.7746 -1.2333,-1.0046 -0.2879,-0.1311 -0.5911,-0.2185 -0.7867,-0.0708 -0.3227,0.1804 -0.8245,0.8286 -1.0741,1.2565"/>
   <path id="_197247352_13" class="fil0 str2" d="M104.606 55.8969c-0.4298,-0.3863 -0.8688,-0.9019 -1.2986,-1.2882 -0.4076,-0.4223 -0.7178,-0.6906 -1.1847,-0.8351 -0.3012,-0.0509 -0.543,-0.0581 -0.7354,0.2427 -0.2148,0.3339 -0.4381,0.7664 -0.6811,1.3022 -0.2454,-0.227 -0.5471,-0.5635 -0.7926,-0.7907 -0.3958,-0.3845 -0.7802,-0.7745 -1.2333,-1.0046 -0.2879,-0.131 -0.5911,-0.2184 -0.7867,-0.0707 -0.3227,0.1804 -0.8245,0.8286 -1.0741,1.2565"/>
   <path id="_197247352_14" class="fil0 str2" d="M108.444 56.3495c-0.2454,-0.2271 -0.5471,-0.5636 -0.7926,-0.7907 -0.3958,-0.3845 -0.7802,-0.7745 -1.2333,-1.0046 -0.2879,-0.131 -0.5911,-0.2184 -0.7867,-0.0708 -0.3227,0.1804 -0.8245,0.8286 -1.0741,1.2566"/>
   <path id="_197247352_15" class="fil0 str2" d="M103.978 50.1116c-0.4298,-0.3864 -0.8688,-0.902 -1.2986,-1.2882 -0.4076,-0.4224 -0.7178,-0.6906 -1.1847,-0.8352 -0.3012,-0.0509 -0.543,-0.0581 -0.7354,0.2427 -0.2148,0.334 -0.4381,0.7664 -0.6811,1.3023 -0.2454,-0.2271 -0.5471,-0.5636 -0.7926,-0.7907 -0.3958,-0.3846 -0.7802,-0.7746 -1.2333,-1.0046 -0.2879,-0.131 -0.5911,-0.2184 -0.7867,-0.0708 -0.3227,0.1804 -0.8245,0.8286 -1.0741,1.2565"/>
   <path id="_197247352_16" class="fil0 str2" d="M107.741 50.6992c-0.2454,-0.227 -0.5471,-0.5635 -0.7926,-0.7907 -0.3958,-0.3845 -0.7802,-0.7745 -1.2333,-1.0046 -0.2879,-0.131 -0.5911,-0.2184 -0.7867,-0.0707 -0.3227,0.1804 -0.8245,0.8286 -1.0741,1.2565"/>
   <path id="_197247352_17" class="fil0 str2" d="M107.107 45.3726c-0.4298,-0.3864 -0.8688,-0.9019 -1.2986,-1.2882 -0.4076,-0.4224 -0.7178,-0.6906 -1.1847,-0.8352 -0.3012,-0.0508 -0.543,-0.0581 -0.7354,0.2428 -0.2148,0.3339 -0.4381,0.7664 -0.6811,1.3022 -0.2454,-0.227 -0.5471,-0.5635 -0.7926,-0.7907 -0.3958,-0.3845 -0.7802,-0.7745 -1.2333,-1.0046 -0.2879,-0.131 -0.5911,-0.2184 -0.7867,-0.0708 -0.3227,0.1804 -0.8245,0.8287 -1.0741,1.2566"/>
   <path id="_197247352_18" class="fil0 str2" d="M106.578 40.4885c-0.4298,-0.3863 -0.8688,-0.9019 -1.2986,-1.2882 -0.4076,-0.4223 -0.7178,-0.6906 -1.1847,-0.8351 -0.3012,-0.0509 -0.543,-0.0581 -0.7354,0.2427 -0.2148,0.334 -0.4381,0.7664 -0.6811,1.3022 -0.2454,-0.227 -0.5471,-0.5635 -0.7926,-0.7907 -0.3958,-0.3845 -0.7802,-0.7745 -1.2333,-1.0046 -0.2879,-0.131 -0.5911,-0.2184 -0.7867,-0.0707 -0.3227,0.1804 -0.8245,0.8286 -1.0741,1.2565"/>
   <path id="_197247352_19" class="fil0 str2" d="M105.345 35.3444c-0.2454,-0.227 -0.5471,-0.5635 -0.7926,-0.7907 -0.3958,-0.3845 -0.7802,-0.7745 -1.2333,-1.0046 -0.2879,-0.131 -0.5911,-0.2184 -0.7867,-0.0707 -0.3227,0.1804 -0.8245,0.8286 -1.0741,1.2565"/>
   <path id="_197247352_20" class="fil0 str2" d="M104.813 29.2809c-0.288,-0.1311 -1.529,-0.7965 -1.7246,-0.6489 -0.3227,0.1804 -0.8245,0.8286 -1.0741,1.2565"/>
   <path id="_197247352_21" class="fil0 str2" d="M106.441 80.8282c-0.4298,-0.3863 -0.8688,-0.9019 -1.2986,-1.2882 -0.4076,-0.4223 -0.7178,-0.6906 -1.1847,-0.8351 -0.3012,-0.0509 -0.543,-0.0581 -0.7354,0.2427 -0.2148,0.3339 -0.4381,0.7664 -0.6811,1.3022 -0.2454,-0.227 -0.5471,-0.5635 -0.7926,-0.7907 -0.3958,-0.3845 -0.7802,-0.7745 -1.2333,-1.0046 -0.2879,-0.131 -0.5911,-0.2184 -0.7867,-0.0707 -0.3227,0.1804 -0.8245,0.8286 -1.0741,1.2565"/>
   <path id="_197247352_22" class="fil0 str2" d="M112.194 79.8559c-0.3011,-0.051 -1.3317,-0.2827 -1.5241,0.0181 -0.2148,0.334 -0.4381,0.7664 -0.6811,1.3022 -0.2454,-0.227 -0.5471,-0.5635 -0.7926,-0.7907 -0.3958,-0.3845 -0.7802,-0.7745 -1.2333,-1.0046 -0.2879,-0.131 -0.5911,-0.2184 -0.7867,-0.0707 -0.3227,0.1804 -0.8245,0.8286 -1.0741,1.2565"/>
   <path id="_197248648_23" class="fil0 str2" d="M86.6309 73.445c-1.7194,-1.5991 -2.1489,-1.7868 -2.4831,-1.8906 -0.1426,-0.0445 -0.5843,-0.0745 -0.8882,0.1737 -0.4087,0.334 -0.8741,1.4218 -0.8741,1.4218 -1.0161,-0.9471 -2.4886,-2.5355 -3.3286,-2.3148 -0.2692,0.0708 -0.3566,0.2383 -0.5139,0.4814l-0.6341 0.9862c-0.4298,-0.3863 -0.8688,-0.902 -1.2986,-1.288 -0.4075,-0.4224 -0.7177,-0.6908 -1.1846,-0.8353 -0.3013,-0.0509 -0.5431,-0.0582 -0.7354,0.2426 -0.2148,0.334 -0.4381,0.7664 -0.6811,1.3023 -0.2454,-0.2269 -0.5472,-0.5635 -0.7928,-0.7907 -0.3958,-0.3846 -0.7801,-0.7744 -1.2331,-1.0045 -0.288,-0.1311 -0.5912,-0.2185 -0.7867,-0.0708 -0.3227,0.1804 -0.8245,0.8285 -1.0742,1.2564"/>
   <path id="_197247448_24" class="fil0 str2" d="M70.3334 71.2407c-1.7193,-1.5991 -2.1489,-1.7869 -2.4831,-1.8908 -0.1425,-0.0443 -0.5843,-0.0744 -0.8881,0.1739 -0.4087,0.334 -0.8742,1.4216 -0.8742,1.4216 -1.0161,-0.9469 -2.4886,-2.5354 -3.3286,-2.3146 -0.2692,0.0708 -0.3566,0.2383 -0.5139,0.4813l-0.634 0.986c-0.4297,-0.3862 -0.8689,-0.9017 -1.2987,-1.2879 -0.4075,-0.4224 -0.7177,-0.6907 -1.1846,-0.8351 -0.3012,-0.051 -0.5431,-0.0582 -0.7354,0.2424 -0.2147,0.3342 -0.4381,0.7664 -0.681,1.3024 -0.2455,-0.227 -0.5473,-0.5636 -0.7927,-0.7906 -0.3959,-0.3847 -0.7802,-0.7746 -1.2333,-1.0045 -0.288,-0.1313 -0.5912,-0.2187 -0.7867,-0.0709 -0.3227,0.1803 -0.8245,0.8284 -1.0742,1.2563"/>
   <path id="_197250208_25" class="fil0 str2" d="M54.0369 69.0364c-1.7194,-1.5991 -2.1488,-1.7869 -2.483,-1.8907 -0.1426,-0.0445 -0.5843,-0.0745 -0.8883,0.1738 -0.4086,0.3339 -0.874,1.4218 -0.874,1.4218 -1.0162,-0.9472 -2.4887,-2.5356 -3.3287,-2.3148 -0.2691,0.0707 -0.3565,0.2383 -0.5139,0.4814l-0.634 0.9861c-0.4298,-0.3863 -0.8688,-0.9018 -1.2986,-1.288 -0.4076,-0.4224 -0.7178,-0.6908 -1.1847,-0.8353 -0.3013,-0.0509 -0.543,-0.0582 -0.7354,0.2427 -0.2148,0.3339 -0.4381,0.7664 -0.6811,1.3022 -0.2454,-0.2269 -0.5471,-0.5634 -0.7927,-0.7907 -0.3959,-0.3845 -0.7801,-0.7743 -1.2332,-1.0045 -0.2879,-0.1311 -0.5911,-0.2185 -0.7867,-0.0707 -0.3227,0.1803 -0.8245,0.8285 -1.0741,1.2564"/>
   <path id="_197256568_26" class="fil0 str2" d="M37.7384 66.8318c-1.7194,-1.5993 -2.1489,-1.7869 -2.4831,-1.8907 -0.1425,-0.0444 -0.5842,-0.0744 -0.8882,0.1738 -0.4086,0.334 -0.874,1.4217 -0.874,1.4217 -1.0162,-0.947 -2.1381,-2.5366 -2.9781,-2.3158 -0.2691,0.0708 -0.46,0.5306 -0.6174,0.7736l-0.8811 0.695c-0.4298,-0.3864 -1.9966,-1.843 -2.4264,-2.2292"/>
   <path id="_197248648_2_27" class="fil0 str2" d="M83.6705 77.7899c-1.7194,-1.5992 -2.1489,-1.7868 -2.4831,-1.8907 -0.1426,-0.0444 -0.5843,-0.0745 -0.8882,0.1738 -0.4087,0.3339 -0.8741,1.4218 -0.8741,1.4218 -1.0161,-0.9472 -2.4886,-2.5356 -3.3286,-2.3148 -0.2692,0.0708 -0.3565,0.2383 -0.5139,0.4814l-0.634 0.9861c-0.4298,-0.3862 -0.8689,-0.9019 -1.2987,-1.288 -0.4075,-0.4223 -0.7177,-0.6908 -1.1846,-0.8352 -0.3013,-0.051 -0.5431,-0.0582 -0.7354,0.2426 -0.2148,0.334 -0.4381,0.7664 -0.6811,1.3022 -0.2454,-0.2268 -0.5472,-0.5634 -0.7927,-0.7907 -0.3959,-0.3845 -0.7801,-0.7743 -1.2332,-1.0045 -0.288,-0.1311 -0.5912,-0.2185 -0.7867,-0.0707 -0.3227,0.1804 -0.8245,0.8285 -1.0742,1.2564"/>
   <path id="_197247448_3_28" class="fil0 str2" d="M67.373 75.5856c-1.7193,-1.5992 -2.1489,-1.787 -2.4831,-1.8909 -0.1424,-0.0443 -0.5842,-0.0743 -0.8881,0.1739 -0.4086,0.334 -0.8741,1.4217 -0.8741,1.4217 -1.0162,-0.947 -2.4887,-2.5354 -3.3287,-2.3147 -0.2691,0.0708 -0.3565,0.2384 -0.5139,0.4814l-0.634 0.986c-0.4297,-0.3863 -0.8689,-0.9017 -1.2987,-1.288 -0.4075,-0.4224 -0.7177,-0.6906 -1.1846,-0.8351 -0.3012,-0.0509 -0.5431,-0.0582 -0.7354,0.2425 -0.2147,0.3341 -0.4381,0.7664 -0.681,1.3024 -0.2455,-0.2271 -0.5473,-0.5636 -0.7927,-0.7907 -0.3959,-0.3846 -0.7802,-0.7745 -1.2333,-1.0045 -0.2879,-0.1312 -0.5912,-0.2187 -0.7867,-0.0709 -0.3227,0.1803 -0.8245,0.8285 -1.0742,1.2564"/>
   <path id="_197250208_4_29" class="fil0 str2" d="M51.0766 73.3812c-1.7194,-1.5991 -2.1489,-1.7868 -2.4831,-1.8906 -0.1426,-0.0445 -0.5843,-0.0746 -0.8882,0.1737 -0.4087,0.334 -0.8741,1.4218 -0.8741,1.4218 -1.0161,-0.9471 -2.4886,-2.5356 -3.3286,-2.3148 -0.2692,0.0708 -0.3566,0.2383 -0.514,0.4814l-0.634 0.9861c-0.4298,-0.3862 -0.8688,-0.9018 -1.2986,-1.2879 -0.4076,-0.4224 -0.7177,-0.6909 -1.1847,-0.8353 -0.3012,-0.051 -0.543,-0.0582 -0.7354,0.2426 -0.2148,0.334 -0.4381,0.7664 -0.6811,1.3023 -0.2453,-0.2269 -0.5471,-0.5635 -0.7927,-0.7907 -0.3958,-0.3846 -0.7801,-0.7744 -1.2332,-1.0045 -0.2879,-0.1312 -0.5911,-0.2185 -0.7866,-0.0707 -0.3227,0.1803 -0.8246,0.8284 -1.0742,1.2563"/>
   <path id="_197256568_5_30" class="fil0 str2" d="M34.778 71.1767c-1.7194,-1.5993 -2.1488,-1.7869 -2.483,-1.8908 -0.1426,-0.0443 -0.5843,-0.0744 -0.8883,0.1739 -0.4086,0.3339 -0.874,1.4216 -0.874,1.4216 -1.0162,-0.947 -2.4886,-2.5354 -3.3287,-2.3146 -0.2691,0.0708 -0.3565,0.2383 -0.5139,0.4813l-0.634 0.9861c-0.4298,-0.3863 -0.8689,-0.9017 -1.2987,-1.288 -0.4075,-0.4224 -0.7177,-0.6907 -1.1846,-0.8351 -0.3013,-0.051 -0.543,-0.0582 -0.7354,0.2424 -0.2148,0.3342 -0.4382,0.7664 -0.6811,1.3024 -0.2453,-0.2269 -0.5472,-0.5636 -0.7927,-0.7907 -0.3958,-0.3846 -0.7801,-0.7745 -1.2332,-1.0045"/>
   <path id="_197251240_31" class="fil0 str2" d="M94.3419 69.5902c-0.2454,-0.227 -0.5472,-0.5635 -0.7927,-0.7906 -0.3958,-0.3848 -0.7802,-0.7747 -1.2333,-1.0046 -0.2879,-0.1311 -0.5911,-0.2185 -0.7866,-0.0709 -0.3227,0.1805 -0.8245,0.8286 -1.0742,1.2564"/>
   <path id="_197248744_32" class="fil0 str2" d="M90.5721 68.9883c-1.7193,-1.5992 -2.1489,-1.7868 -2.4831,-1.8908 -0.1424,-0.0443 -0.5842,-0.0744 -0.8882,0.1738 -0.4087,0.334 -0.874,1.4217 -0.874,1.4217 -1.0162,-0.9469 -2.4887,-2.5354 -3.3287,-2.3146 -0.2691,0.0708 -0.3565,0.2382 -0.5139,0.4814l-0.634 0.9861c-0.4298,-0.3863 -0.8689,-0.9019 -1.2987,-1.2881 -0.4075,-0.4224 -0.7177,-0.6908 -1.1846,-0.8352 -0.3012,-0.051 -0.5431,-0.0581 -0.7354,0.2426 -0.2148,0.334 -0.4381,0.7665 -0.6811,1.3024 -0.2454,-0.2271 -0.5472,-0.5636 -0.7926,-0.7907 -0.3959,-0.3847 -0.7802,-0.7746 -1.2333,-1.0046 -0.2879,-0.1311 -0.5912,-0.2185 -0.7867,-0.0709 -0.3227,0.1805 -0.8245,0.8286 -1.0742,1.2566"/>
   <path id="_197247472_33" class="fil0 str2" d="M74.2744 66.7838c-1.7193,-1.5992 -2.1489,-1.7869 -2.483,-1.8907 -0.1425,-0.0443 -0.5843,-0.0744 -0.8882,0.1739 -0.4086,0.3337 -0.8741,1.4216 -0.8741,1.4216 -1.0162,-0.9471 -2.4887,-2.5355 -3.3287,-2.3147 -0.2691,0.0708 -0.3565,0.2383 -0.5139,0.4814l-0.6339 0.9861c-0.4298,-0.3863 -0.8689,-0.9017 -1.2987,-1.2881 -0.4075,-0.4222 -0.7178,-0.6906 -1.1847,-0.8352 -0.3012,-0.0508 -0.5431,-0.0581 -0.7354,0.2426 -0.2147,0.3341 -0.4381,0.7665 -0.681,1.3024 -0.2455,-0.2269 -0.5473,-0.5636 -0.7927,-0.7906 -0.3959,-0.3847 -0.7802,-0.7746 -1.2333,-1.0046 -0.2878,-0.1312 -0.5912,-0.2186 -0.7867,-0.0708 -0.3227,0.1803 -0.8245,0.8284 -1.0742,1.2564"/>
   <path id="_197249104_34" class="fil0 str2" d="M57.978 64.5796c-1.7193,-1.5992 -2.1489,-1.787 -2.4831,-1.8908 -0.1425,-0.0443 -0.5843,-0.0744 -0.8882,0.1738 -0.4087,0.334 -0.8741,1.4217 -0.8741,1.4217 -1.0161,-0.9469 -2.4886,-2.5353 -3.3286,-2.3147 -0.2692,0.0709 -0.3566,0.2384 -0.514,0.4815l-0.634 0.9861c-0.4298,-0.3863 -0.8688,-0.9019 -1.2986,-1.2881 -0.4075,-0.4224 -0.7177,-0.6907 -1.1847,-0.8352 -0.3011,-0.0509 -0.543,-0.0582 -0.7354,0.2427 -0.2147,0.3339 -0.4381,0.7663 -0.6811,1.3022 -0.2453,-0.227 -0.5471,-0.5635 -0.7926,-0.7906 -0.3958,-0.3847 -0.7802,-0.7746 -1.2333,-1.0046 -0.2879,-0.131 -0.5911,-0.2185 -0.7866,-0.0709 -0.3227,0.1805 -0.8246,0.8286 -1.0742,1.2565"/>
   <path id="_194944632_35" class="fil0 str2" d="M41.6805 62.3751c-1.7194,-1.5992 -2.1489,-1.7868 -2.4831,-1.8906 -0.1426,-0.0444 -0.5843,-0.0745 -0.8882,0.1738 -0.4087,0.3338 -0.8741,1.4216 -0.8741,1.4216 -1.0161,-0.947 -2.4886,-2.5355 -3.3286,-2.3147 -0.2692,0.0708 -0.3566,0.2383 -0.5139,0.4814l-0.6341 0.9861"/>
   <path id="_197257168_36" class="fil0 str2" d="M94.1112 64.3551c-1.7193,-1.5991 -2.1488,-1.7867 -2.4829,-1.8906 -0.1426,-0.0445 -0.5844,-0.0746 -0.8883,0.1737 -0.4086,0.334 -0.874,1.4218 -0.874,1.4218 -1.0163,-0.9471 -2.4888,-2.5355 -3.3288,-2.3148 -0.2691,0.0709 -0.3565,0.2383 -0.5139,0.4814l-0.6339 0.9861c-0.4298,-0.3862 -0.8689,-0.9018 -1.2987,-1.2879 -0.4075,-0.4224 -0.7178,-0.6909 -1.1847,-0.8353 -0.3012,-0.051 -0.543,-0.0582 -0.7354,0.2426 -0.2147,0.334 -0.4381,0.7664 -0.681,1.3023 -0.2455,-0.2269 -0.5472,-0.5635 -0.7927,-0.7907 -0.3958,-0.3845 -0.7802,-0.7744 -1.2333,-1.0045 -0.2878,-0.1311 -0.5911,-0.2185 -0.7867,-0.0707 -0.3227,0.1803 -0.8245,0.8284 -1.0741,1.2563"/>
   <path id="_194951352_37" class="fil0 str2" d="M77.8133 62.1508c-1.7193,-1.5993 -2.1488,-1.787 -2.483,-1.8909 -0.1425,-0.0443 -0.5843,-0.0744 -0.8883,0.1739 -0.4085,0.3339 -0.874,1.4216 -0.874,1.4216 -1.0162,-0.9469 -2.4887,-2.5353 -3.3287,-2.3146 -0.2691,0.0708 -0.3565,0.2383 -0.5139,0.4813l-0.634 0.9861c-0.4297,-0.3862 -0.8688,-0.9017 -1.2986,-1.288 -0.4076,-0.4223 -0.7178,-0.6907 -1.1847,-0.8351 -0.3012,-0.051 -0.543,-0.0582 -0.7354,0.2425 -0.2147,0.3341 -0.4381,0.7664 -0.681,1.3023 -0.2455,-0.2269 -0.5472,-0.5635 -0.7927,-0.7906 -0.3958,-0.3847 -0.7802,-0.7746 -1.2333,-1.0046 -0.2879,-0.1312 -0.5911,-0.2186 -0.7867,-0.0708 -0.3227,0.1803 -0.8245,0.8285 -1.0741,1.2564"/>
   <path id="_195127048_38" class="fil0 str2" d="M61.5169 59.9465c-1.7194,-1.5993 -2.1489,-1.7869 -2.4831,-1.8907 -0.1426,-0.0445 -0.5843,-0.0746 -0.8882,0.1736 -0.4087,0.334 -0.8741,1.4219 -0.8741,1.4219 -1.0161,-0.9471 -2.4886,-2.5355 -3.3286,-2.3149 -0.2692,0.0709 -0.3566,0.2384 -0.5139,0.4816l-0.6341 0.9861c-0.4298,-0.3864 -0.8688,-0.902 -1.2986,-1.2882 -0.4075,-0.4223 -0.7177,-0.6907 -1.1847,-0.8352 -0.3012,-0.0509 -0.543,-0.0581 -0.7353,0.2427 -0.2148,0.3339 -0.4381,0.7663 -0.6811,1.3022 -0.2454,-0.227 -0.5472,-0.5635 -0.7928,-0.7906 -0.3958,-0.3846 -0.7801,-0.7746 -1.2332,-1.0046 -0.2879,-0.131 -0.5911,-0.2185 -0.7866,-0.0707 -0.3227,0.1803 -0.8245,0.8284 -1.0742,1.2564"/>
   <path id="_195127240_39" class="fil0 str2" d="M45.2194 57.7419c-1.7194,-1.5992 -2.1489,-1.7868 -2.4831,-1.8906 -0.1426,-0.0443 -0.5843,-0.0745 -0.8882,0.1738 -0.4087,0.334 -0.8741,1.4217 -0.8741,1.4217"/>
   <path id="_195130888_40" class="fil0 str2" d="M97.7299 59.6211c-1.7193,-1.5992 -2.1489,-1.7868 -2.483,-1.8906 -0.1426,-0.0445 -0.5844,-0.0746 -0.8882,0.1736 -0.4087,0.334 -0.8741,1.4218 -0.8741,1.4218 -1.0162,-0.947 -2.4887,-2.5354 -3.3287,-2.3148 -0.2692,0.0709 -0.3566,0.2383 -0.514,0.4815l-0.6339 0.9861c-0.4298,-0.3863 -0.8689,-0.9019 -1.2987,-1.288 -0.4074,-0.4224 -0.7177,-0.6908 -1.1847,-0.8353 -0.3011,-0.051 -0.543,-0.0582 -0.7354,0.2426 -0.2146,0.334 -0.4381,0.7664 -0.681,1.3023 -0.2454,-0.2269 -0.5472,-0.5635 -0.7927,-0.7906 -0.3958,-0.3846 -0.7802,-0.7745 -1.2333,-1.0046 -0.2878,-0.1311 -0.5911,-0.2185 -0.7866,-0.0707 -0.3227,0.1803 -0.8246,0.8284 -1.0742,1.2563"/>
   <path id="_195131080_41" class="fil0 str2" d="M81.4326 57.4168c-1.7193,-1.5992 -2.1488,-1.7869 -2.483,-1.8908 -0.1426,-0.0444 -0.5843,-0.0744 -0.8882,0.1739 -0.4087,0.3339 -0.8741,1.4216 -0.8741,1.4216 -1.0162,-0.947 -2.4887,-2.5354 -3.3287,-2.3146 -0.2691,0.0708 -0.3565,0.2383 -0.5139,0.4812l-0.634 0.9861c-0.4298,-0.3862 -0.8689,-0.9017 -1.2987,-1.288 -0.4074,-0.4223 -0.7176,-0.6906 -1.1847,-0.8351 -0.3011,-0.0509 -0.543,-0.0581 -0.7353,0.2425 -0.2147,0.3342 -0.4381,0.7664 -0.681,1.3024 -0.2454,-0.227 -0.5473,-0.5636 -0.7928,-0.7907 -0.3958,-0.3846 -0.7801,-0.7745 -1.2331,-1.0045 -0.288,-0.1312 -0.5913,-0.2187 -0.7867,-0.0708 -0.3228,0.1803 -0.8245,0.8284 -1.0742,1.2563"/>
   <path id="_195131272_42" class="fil0 str2" d="M65.1348 55.2123c-1.7193,-1.5992 -2.1489,-1.7869 -2.483,-1.8907 -0.1426,-0.0445 -0.5844,-0.0746 -0.8882,0.1737 -0.4087,0.3339 -0.8741,1.4218 -0.8741,1.4218 -1.0162,-0.9471 -2.4887,-2.5355 -3.3287,-2.3148 -0.2692,0.0708 -0.3565,0.2384 -0.5139,0.4815l-0.634 0.9861c-0.4298,-0.3864 -0.8689,-0.9019 -1.2987,-1.2881 -0.4074,-0.4224 -0.7177,-0.6908 -1.1847,-0.8353 -0.3011,-0.0509 -0.543,-0.0581 -0.7353,0.2427 -0.2147,0.334 -0.4381,0.7664 -0.681,1.3023 -0.2455,-0.227 -0.5473,-0.5635 -0.7928,-0.7907 -0.3958,-0.3845 -0.7802,-0.7744 -1.2332,-1.0046 -0.2879,-0.131 -0.5912,-0.2185 -0.7867,-0.0707 -0.3227,0.1803 -0.8245,0.8285 -1.0742,1.2564"/>
   <path id="_195132424_43" class="fil0 str2" d="M96.9364 54.7435c-1.0162,-0.9471 -2.4887,-2.5356 -3.3287,-2.3148 -0.2692,0.0708 -0.3566,0.2383 -0.5139,0.4814l-0.6339 0.9861c-0.4298,-0.3862 -0.869,-0.9017 -1.2988,-1.2879 -0.4074,-0.4224 -0.7177,-0.6909 -1.1846,-0.8353 -0.3012,-0.051 -0.5431,-0.0582 -0.7354,0.2426 -0.2147,0.3341 -0.4381,0.7664 -0.681,1.3023 -0.2455,-0.2269 -0.5473,-0.5635 -0.7928,-0.7907 -0.3958,-0.3846 -0.7802,-0.7745 -1.2332,-1.0045 -0.2879,-0.1312 -0.5912,-0.2185 -0.7867,-0.0708 -0.3227,0.1804 -0.8245,0.8285 -1.0742,1.2564"/>
   <path id="_195132616_44" class="fil0 str2" d="M84.8844 52.8343c-1.7193,-1.5991 -2.1488,-1.7869 -2.483,-1.8908 -0.1426,-0.0444 -0.5843,-0.0744 -0.8882,0.1739 -0.4087,0.3339 -0.8741,1.4216 -0.8741,1.4216 -1.0162,-0.947 -2.4886,-2.5353 -3.3287,-2.3146 -0.2691,0.0708 -0.3564,0.2383 -0.5139,0.4815l-0.6339 0.986c-0.4298,-0.3862 -0.869,-0.9018 -1.2988,-1.2882 -0.4074,-0.4222 -0.7176,-0.6906 -1.1846,-0.835 -0.3012,-0.051 -0.5431,-0.0582 -0.7354,0.2424 -0.2147,0.3341 -0.4381,0.7664 -0.681,1.3024 -0.2454,-0.2269 -0.5473,-0.5634 -0.7927,-0.7906 -0.3959,-0.3847 -0.7801,-0.7746 -1.2332,-1.0046 -0.288,-0.131 -0.5913,-0.2187 -0.7867,-0.0708 -0.3228,0.1805 -0.8245,0.8286 -1.0742,1.2564"/>
   <path id="_195132808_45" class="fil0 str2" d="M68.5875 50.63c-1.7194,-1.5993 -2.1489,-1.7869 -2.483,-1.8907 -0.1426,-0.0445 -0.5843,-0.0744 -0.8883,0.1738 -0.4086,0.3338 -0.874,1.4217 -0.874,1.4217 -1.0162,-0.9471 -2.4887,-2.5355 -3.3287,-2.3148 -0.2691,0.0708 -0.3565,0.2383 -0.5139,0.4815l-0.634 0.9861c-0.4298,-0.3864 -0.8689,-0.9018 -1.2987,-1.2881 -0.4075,-0.4224 -0.7177,-0.6908 -1.1846,-0.8353 -0.3013,-0.0509 -0.543,-0.0581 -0.7354,0.2427 -0.2148,0.3339 -0.4381,0.7664 -0.6811,1.3022"/>
   <path id="_194945784_46" class="fil0 str2" d="M96.1637 49.0135c-0.4298,-0.3863 -0.8689,-0.9019 -1.2987,-1.2882 -0.4075,-0.4222 -0.7176,-0.6906 -1.1847,-0.8351 -0.3011,-0.0509 -0.543,-0.0582 -0.7354,0.2427 -0.2147,0.3339 -0.4381,0.7663 -0.681,1.3022 -0.2454,-0.2271 -0.5472,-0.5635 -0.7927,-0.7907 -0.3958,-0.3845 -0.7801,-0.7745 -1.2332,-1.0045 -0.2879,-0.1311 -0.5912,-0.2185 -0.7867,-0.0709 -0.3227,0.1805 -0.8245,0.8286 -1.0742,1.2566"/>
   <path id="_194945976_47" class="fil0 str2" d="M88.5884 47.9514c-1.7194,-1.5992 -2.1489,-1.7868 -2.4831,-1.8906 -0.1426,-0.0444 -0.5843,-0.0745 -0.8882,0.1738 -0.4087,0.334 -0.8741,1.4216 -0.8741,1.4216 -1.0161,-0.9468 -2.4886,-2.5353 -3.3287,-2.3146 -0.2691,0.0709 -0.3565,0.2383 -0.5138,0.4813l-0.6341 0.9861c-0.4298,-0.3863 -0.8689,-0.9017 -1.2987,-1.288 -0.4074,-0.4223 -0.7176,-0.6907 -1.1847,-0.8351 -0.3011,-0.051 -0.5429,-0.0582 -0.7352,0.2425 -0.2148,0.3341 -0.4383,0.7664 -0.6812,1.3024 -0.2453,-0.227 -0.5472,-0.5637 -0.7927,-0.7906 -0.3958,-0.3848 -0.7801,-0.7747 -1.2332,-1.0046 -0.2879,-0.1313 -0.5912,-0.2186 -0.7866,-0.0709 -0.3228,0.1803 -0.8245,0.8285 -1.0742,1.2564"/>
   <path id="_194946168_48" class="fil0 str2" d="M72.2916 45.7472c-1.7194,-1.5991 -2.1489,-1.7869 -2.4831,-1.8907 -0.1425,-0.0445 -0.5843,-0.0745 -0.8882,0.1738 -0.4087,0.3339 -0.8741,1.4216 -0.8741,1.4216 -1.0161,-0.947 -2.4886,-2.5354 -3.3286,-2.3146 -0.2692,0.0707 -0.3566,0.2383 -0.5139,0.4814l-0.634 0.9861"/>
   <path id="_194948088_49" class="fil0 str2" d="M99.4991 44.4482c-0.4298,-0.3862 -0.8689,-0.9017 -1.2987,-1.2879 -0.4074,-0.4224 -0.7176,-0.6907 -1.1847,-0.8353 -0.3011,-0.0508 -0.5429,-0.058 -0.7353,0.2426 -0.2147,0.3342 -0.4382,0.7664 -0.6811,1.3024 -0.2453,-0.227 -0.5472,-0.5636 -0.7927,-0.7906 -0.3958,-0.3847 -0.7801,-0.7746 -1.2332,-1.0045 -0.2879,-0.1313 -0.5912,-0.2187 -0.7866,-0.0709 -0.3228,0.1803 -0.8246,0.8284 -1.0742,1.2563"/>
   <path id="_194948280_50" class="fil0 str2" d="M91.9238 43.3864c-1.7194,-1.5992 -2.1489,-1.7869 -2.4831,-1.8909 -0.1426,-0.0443 -0.5843,-0.0743 -0.8882,0.1739 -0.4087,0.3339 -0.8741,1.4217 -0.8741,1.4217 -1.0161,-0.947 -2.4886,-2.5354 -3.3286,-2.3146 -0.2692,0.0707 -0.3566,0.2383 -0.5139,0.4814l-0.6341 0.9861c-0.4298,-0.3863 -0.8688,-0.9019 -1.2986,-1.2882 -0.4075,-0.4223 -0.7177,-0.6906 -1.1847,-0.8351 -0.3012,-0.051 -0.543,-0.0581 -0.7353,0.2427 -0.2148,0.3339 -0.4381,0.7664 -0.6811,1.3022 -0.2454,-0.227 -0.5472,-0.5635 -0.7927,-0.7907 -0.3959,-0.3847 -0.7802,-0.7745 -1.2333,-1.0046 -0.2879,-0.131 -0.5911,-0.2184 -0.7866,-0.0707 -0.3227,0.1804 -0.8245,0.8286 -1.0742,1.2565"/>
   <path id="_194948472_51" class="fil0 str2" d="M75.6264 41.1819c-1.7193,-1.5992 -2.1489,-1.7868 -2.483,-1.8906 -0.1426,-0.0444 -0.5844,-0.0744 -0.8882,0.1738"/>
   <path id="_194950008_52" class="fil0 str2" d="M98.9496 39.2891c-0.2455,-0.227 -0.5472,-0.5636 -0.7927,-0.7907 -0.3959,-0.3846 -0.7802,-0.7745 -1.2333,-1.0045 -0.2878,-0.1312 -0.5911,-0.2187 -0.7867,-0.0708 -0.3227,0.1803 -0.8245,0.8284 -1.0741,1.2563"/>
   <path id="_194952312_53" class="fil0 str2" d="M95.274 38.8055c-1.7193,-1.5992 -2.1488,-1.7869 -2.483,-1.8907 -0.1426,-0.0445 -0.5843,-0.0745 -0.8882,0.1738 -0.4087,0.3338 -0.8741,1.4216 -0.8741,1.4216 -1.0162,-0.947 -2.4887,-2.5354 -3.3287,-2.3146 -0.2691,0.0707 -0.3565,0.2383 -0.514,0.4814l-0.6339 0.9861c-0.4298,-0.3863 -0.8689,-0.9019 -1.2987,-1.2882 -0.4075,-0.4223 -0.7176,-0.6906 -1.1847,-0.8352 -0.3011,-0.0509 -0.543,-0.0581 -0.7354,0.2427 -0.2147,0.334 -0.4381,0.7665 -0.681,1.3023 -0.2454,-0.227 -0.5472,-0.5635 -0.7927,-0.7907 -0.3958,-0.3845 -0.7801,-0.7745 -1.2332,-1.0046 -0.2879,-0.131 -0.5912,-0.2184 -0.7866,-0.0708"/>
   <path id="_195130312_54" class="fil0 str2" d="M101.6 34.6277c-0.3958,-0.3847 -1.0503,-1.2242 -1.5034,-1.4542 -0.2878,-0.1312 -0.5911,-0.2186 -0.7866,-0.0709 -0.3227,0.1803 -0.8245,0.8285 -1.0742,1.2565"/>
   <path id="_194940024_55" class="fil0 str2" d="M98.4471 34.485c-1.7193,-1.5991 -2.1489,-1.7867 -2.483,-1.8906 -0.1426,-0.0445 -0.5844,-0.0746 -0.8882,0.1737 -0.4087,0.334 -0.8741,1.4216 -0.8741,1.4216 -1.0162,-0.9469 -2.4887,-2.5353 -3.3287,-2.3146 -0.2691,0.0709 -0.3565,0.2383 -0.5139,0.4815l-0.634 0.986c-0.4298,-0.3862 -0.8689,-0.9018 -1.2987,-1.2881 -0.4074,-0.4222 -0.7177,-0.6906 -1.1847,-0.8351 -0.3011,-0.051 -0.543,-0.0582 -0.7353,0.2426"/>
   <path id="_194942520_56" class="fil0 str2" d="M102.56 28.899c-0.3228,0.1804 -0.4319,0.49 -0.6816,0.9179"/>
   <path id="_194942712_57" class="fil0 str2" d="M102.089 29.943c-1.7193,-1.5992 -2.1489,-1.7869 -2.4831,-1.8908 -0.1425,-0.0444 -0.5843,-0.0745 -0.8882,0.1738 -0.4087,0.3339 -0.8741,1.4218 -0.8741,1.4218 -1.0161,-0.9472 -2.4886,-2.5356 -3.3286,-2.3148"/>
   <path id="_194945208_58" class="fil0 str2" d="M104.106 24.4388c-0.1426,-0.0443 -1.8973,-0.5011 -2.2011,-0.2528 -0.1644,0.1342 -1.0374,1.0117 -1.519,1.0749 -0.7163,0.094 -1.3444,-0.5601 -1.3444,-0.5601"/>
   <line id="_428887296" class="fil0 str2" x1="83.5549" y1="77.9292" x2="107.405" y2= "47.0417" />
   <line id="_428887632" class="fil0 str2" x1="87.4185" y1="78.3946" x2="107.891" y2= "50.3767" />
   <line id="_428887968" class="fil0 str2" x1="90.9627" y1="78.8884" x2="108.933" y2= "55.6158" />
   <line id="_428888304" class="fil0 str2" x1="94.7784" y1="79.39" x2="109.419" y2= "60.8437" />
   <line id="_428888640" class="fil0 str2" x1="98.7445" y1="80.0146" x2="110.075" y2= "65.3405" />
   <line id="_428888976" class="fil0 str2" x1="102.358" y1="80.5265" x2="110.712" y2= "69.707" />
   <line id="_428889312" class="fil0 str2" x1="105.996" y1="81.1649" x2="111.369" y2= "74.2066" />
   <line id="_428889648" class="fil0 str2" x1="109.305" y1="81.6312" x2="111.952" y2= "78.2031" />
   <line id="_428889984" class="fil0 str2" x1="79.4679" y1="77.1493" x2="106.585" y2= "41.4265" />
   <line id="_428890320" class="fil0 str2" x1="74.8407" y1="76.4979" x2="105.795" y2= "36.0097" />
   <line id="_428890656" class="fil0 str2" x1="70.9224" y1="76.1198" x2="105.063" y2= "30.9939" />
   <line id="_428890992" class="fil0 str2" x1="67.174" y1="75.3443" x2="104.386" y2= "26.3547" />
   <line id="_428891328" class="fil0 str2" x1="63.0405" y1="74.887" x2="103.206" y2= "22.4885" />
   <line id="_428891664" class="fil0 str2" x1="58.7257" y1="74.2852" x2="95.2182" y2= "26.6613" />
   <line id="_428892000" class="fil0 str2" x1="54.6646" y1="73.6778" x2="87.4566" y2= "30.8985" />
   <line id="_428892336" class="fil0 str2" x1="50.9692" y1="73.156" x2="80.514" y2= "34.6127" />
   <line id="_428892672" class="fil0 str2" x1="47.0592" y1="72.5155" x2="73.0552" y2= "38.6028" />
   <line id="_428893008" class="fil0 str2" x1="42.6437" y1="71.7786" x2="64.6118" y2= "43.1198" />
   <line id="_428893344" class="fil0 str2" x1="38.5724" y1="71.3252" x2="56.9409" y2= "47.3627" />
   <line id="_428893680" class="fil0 str2" x1="34.5985" y1="70.7606" x2="49.6097" y2= "51.1782" />
   <line id="_428894016" class="fil0 str2" x1="30.7478" y1="70.0397" x2="42.5758" y2= "55.0936" />
   <line id="_428894352" class="fil0 str2" x1="26.3688" y1="69.4167" x2="33.4263" y2= "60.5722" />
  </g>
 </g>
</svg>
