<?xml version="1.0" encoding="UTF-8"?>
<!DOCTYPE svg PUBLIC "-//W3C//DTD SVG 1.1//EN" "http://www.w3.org/Graphics/SVG/1.1/DTD/svg11.dtd">
<!-- Creator: CorelDRAW -->
<svg xmlns="http://www.w3.org/2000/svg" xml:space="preserve" width="210mm" height="297mm" style="shape-rendering:geometricPrecision; text-rendering:geometricPrecision; image-rendering:optimizeQuality; fill-rule:evenodd; clip-rule:evenodd"
viewBox="0 0 210 297"
 xmlns:xlink="http://www.w3.org/1999/xlink">
 <defs>
  <style type="text/css">
   <![CDATA[
    .str0 {stroke:#333333;stroke-width:0.5}
    .fil0 {fill:none}
    .fil1 {fill:#AD3836}
   ]]>
  </style>
 </defs>
 <g id="Слой_x0020_1">
  <metadata id="CorelCorpID_0Corel-Layer"/>
  <line class="fil0 str0" x1="23.3073" y1="68.8807" x2="23.3079" y2= "104.999" />
  <line class="fil0 str0" x1="114.636" y1="82.2119" x2="115.674" y2= "124.027" />
  <line class="fil0 str0" x1="188.883" y1="68.0546" x2="188.679" y2= "107.22" />
  <polyline class="fil0 str0" points="23.3079,104.998 115.92,124.077 188.679,107.22 "/>
  <g id="_430452104">
   <polygon id="_349015656" class="fil1 str0" points="9.7057,67.1791 106.232,16.0523 198.311,66.9297 116.628,82.5115 "/>
   <line id="_428549720" class="fil0 str0" x1="106.149" y1="16.1705" x2="116.628" y2= "82.5115" />
   <line id="_431374848" class="fil0 str0" x1="194.135" y1="67.7262" x2="106.5" y2= "19.5162" />
   <line id="_431375184" class="fil0 str0" x1="17.5975" y1="68.0466" x2="106.696" y2= "19.6307" />
   <polygon id="_431375328" class="fil1 str0" points="103.259,17.627 112.496,81.9192 116.628,82.5115 120.225,81.8254 109.899,18.0787 106.232,16.0523 "/>
   <line id="_431375712" class="fil0 str0" x1="106.149" y1="16.1705" x2="116.628" y2= "82.5115" />
   <line id="_431376048" class="fil0 str0" x1="119.259" y1="75.8657" x2="123.325" y2= "81.8169" />
   <line id="_431376384" class="fil0 str0" x1="116.781" y1="60.5693" x2="129.655" y2= "80.3514" />
   <line id="_431376720" class="fil0 str0" x1="114.443" y1="47.3593" x2="136.171" y2= "79.1595" />
   <line id="_431377056" class="fil0 str0" x1="112.425" y1="33.6765" x2="142.567" y2= "77.7906" />
   <line id="_431377392" class="fil0 str0" x1="112.238" y1="22.6734" x2="149.083" y2= "76.5985" />
   <line id="_431377728" class="fil0 str0" x1="123.984" y1="29.1351" x2="155.48" y2= "75.2309" />
   <line id="_431378064" class="fil0 str0" x1="136.142" y1="35.8229" x2="162.317" y2= "74.1323" />
   <line id="_431378400" class="fil0 str0" x1="147.476" y1="42.0581" x2="168.315" y2= "72.5577" />
   <line id="_431378736" class="fil0 str0" x1="159.6" y1="48.7277" x2="175.165" y2= "71.5087" />
   <line id="_431379072" class="fil0 str0" x1="171.303" y1="54.8579" x2="181.338" y2= "70.2629" />
   <line id="_431379408" class="fil0 str0" x1="183.133" y1="61.6734" x2="188.106" y2= "68.9522" />
   <path id="_188344768" class="fil0 str0" d="M119.665 76.7931c0.4524,0.3386 0.5246,1.0318 1.5913,1.3286 0.883,0.2457 1.8015,0.0491 2.6823,-0.8485 0.9487,-0.9668 1.597,-2.8357 2.5098,-1.5212 0.6044,0.8702 1.3082,1.12 2.2894,0.9184 1.0937,-0.2247 1.4776,-0.1836 2.3263,-1.4174 1.5818,-2.2991 1.5999,-0.5983 2.6293,-0.0124 0.628,0.4943 2.8633,-0.0846 3.5407,-0.9018 0.3562,-0.4297 0.7809,-1.4476 1.1007,-1.7378 0.2823,-0.256 0.5422,-0.0416 0.7445,0.1667"/>
   <path id="_188343352" class="fil0 str0" d="M138.923 72.6808c0.1337,0.2043 0.7377,0.8262 0.9401,1.0139 0.9121,0.8468 2.8646,0.5381 3.7919,-0.6542 1.0466,-1.3458 1.4605,-1.7866 2.0841,-1.3196 0.4524,0.3386 0.5246,1.0318 1.5912,1.3286 0.8829,0.2457 1.8014,0.0491 2.6822,-0.8484 0.9487,-0.9668 1.597,-2.8358 2.5098,-1.5213 0.6044,0.8702 1.3082,1.12 2.2894,0.9184 1.0937,-0.2247 1.4776,-0.1836 2.3263,-1.4174 1.5818,-2.2991 1.5999,-0.5983 2.6293,-0.0124 0.628,0.4943 2.8633,-0.0845 3.5407,-0.9018 0.3562,-0.4297 0.7809,-1.4476 1.1007,-1.7378 0.2823,-0.256 0.5422,-0.0416 0.7445,0.1667"/>
   <path id="_346964440" class="fil0 str0" d="M164.997 67.6086c0.1337,0.2043 0.7377,0.8261 0.9401,1.0139 0.9121,0.8468 2.8646,0.5381 3.7919,-0.6542 1.0466,-1.3458 1.4605,-1.7866 2.0841,-1.3197 0.4524,0.3387 0.5246,1.0318 1.5913,1.3287 0.883,0.2457 1.8015,0.049 2.6823,-0.8485 0.9487,-0.9668 1.597,-2.8357 2.5098,-1.5213 0.6044,0.8703 1.3082,1.1201 2.2894,0.9184 1.0937,-0.2247 1.4776,-0.1836 2.3263,-1.4174 1.5818,-2.299 1.5999,-0.5982 2.6293,-0.0123 0.628,0.4942 2.3804,0.3188 3.0578,-0.4985"/>
   <path id="_188344768_0" class="fil0 str0" d="M118.762 72.7979c0.883,0.2457 0.6491,-0.002 1.5299,-0.8995 0.9487,-0.9668 1.597,-2.8357 2.5098,-1.5213 0.6044,0.8703 1.3082,1.1201 2.2894,0.9184 1.0937,-0.2247 1.4776,-0.1836 2.3263,-1.4173 1.5818,-2.2991 1.5999,-0.5983 2.6293,-0.0125 0.628,0.4944 2.8633,-0.0845 3.5407,-0.9017 0.3562,-0.4297 0.7809,-1.4476 1.1007,-1.7379 0.2823,-0.2559 0.5422,-0.0416 0.7445,0.1668"/>
   <path id="_188344768_0_0" class="fil0 str0" d="M117.669 66.0488c0.6044,0.8704 3.1109,0.4997 4.0921,0.2979 1.0937,-0.2246 1.4776,-0.1835 2.3263,-1.4172 1.5818,-2.2991 1.5999,-0.5984 2.6293,-0.0125 0.628,0.4943 2.8633,-0.0846 3.5407,-0.9017 0.3562,-0.4297 0.7809,-1.4477 1.1007,-1.7379 0.2823,-0.256 0.5422,-0.0417 0.7445,0.1668"/>
   <path id="_188343352_1" class="fil0 str0" d="M135.276 67.3059c0.1337,0.2044 0.7377,0.8263 0.9401,1.014 0.9121,0.8468 2.8646,0.5381 3.7919,-0.6542 1.0466,-1.3459 1.4605,-1.7866 2.0841,-1.3196 0.4524,0.3386 0.5246,1.0317 1.5912,1.3286 0.883,0.2457 1.8015,0.0491 2.6823,-0.8485 0.9487,-0.9668 1.5969,-2.8357 2.5097,-1.5213 0.6044,0.8703 1.3082,1.1201 2.2894,0.9185 1.0937,-0.2248 1.4776,-0.1836 2.3263,-1.4174 1.5818,-2.2991 1.5999,-0.5983 2.6293,-0.0125 0.628,0.4944 2.8633,-0.0844 3.5407,-0.9017 0.3562,-0.4297 0.7809,-1.4476 1.1007,-1.7379 0.2823,-0.2559 0.5422,-0.0415 0.7445,0.1668"/>
   <path id="_346964440_2" class="fil0 str0" d="M161.35 62.2337c0.1337,0.2044 0.7377,0.8262 0.9401,1.014 0.9121,0.8468 2.8646,0.5381 3.7919,-0.6542 1.0466,-1.3459 1.4605,-1.7866 2.0841,-1.3197 0.4524,0.3387 0.5246,1.0317 1.5913,1.3287 0.883,0.2457 1.8015,0.049 2.6823,-0.8485 0.9487,-0.9669 1.597,-2.8357 2.5098,-1.5214 0.6044,0.8704 1.3082,1.1202 2.2894,0.9185 1.0937,-0.2248 1.4776,-0.1836 2.3263,-1.4174"/>
   <path id="_188343352_6" class="fil0 str0" d="M131.629 61.9311c0.1337,0.2044 0.7377,0.8262 0.9401,1.014 0.9121,0.8468 2.8646,0.5381 3.7919,-0.6542 1.0466,-1.346 1.4605,-1.7866 2.0841,-1.3197 0.4524,0.3387 0.5246,1.0317 1.5912,1.3287 0.883,0.2457 1.8015,0.049 2.6823,-0.8485 0.9487,-0.9669 1.597,-2.8357 2.5098,-1.5214 0.6044,0.8704 1.3082,1.1202 2.2893,0.9185 1.0937,-0.2248 1.4776,-0.1836 2.3263,-1.4174 1.5818,-2.299 1.5999,-0.5982 2.6293,-0.0124 0.628,0.4944 2.8633,-0.0845 3.5407,-0.9017 0.3562,-0.4297 0.7809,-1.4477 1.1007,-1.738 0.2823,-0.2559 0.5422,-0.0415 0.7445,0.1669"/>
   <path id="_346964440_7" class="fil0 str0" d="M157.703 56.8589c0.1337,0.2043 0.7377,0.8262 0.9401,1.014 0.9121,0.8468 2.8646,0.5381 3.7919,-0.6542 1.0466,-1.3459 1.4605,-1.7866 2.0841,-1.3197 0.4524,0.3387 0.5246,1.0317 1.5913,1.3287 0.883,0.2457 1.8015,0.049 2.6823,-0.8485 0.9487,-0.9669 1.597,-2.8357 2.5098,-1.5214"/>
   <path id="_188344768_10" class="fil0 str0" d="M116.781 60.5693c0.6044,0.8704 0.0349,0.1782 1.0161,-0.0235 1.0937,-0.2247 1.4776,-0.1835 2.3263,-1.4173 1.5818,-2.2991 1.5999,-0.5983 2.6293,-0.0125 0.628,0.4944 2.8633,-0.0845 3.5407,-0.9017 0.3562,-0.4297 0.7809,-1.4477 1.1007,-1.7379 0.2823,-0.256 0.5422,-0.0415 0.7445,0.1668"/>
   <path id="_188343352_11" class="fil0 str0" d="M127.983 56.5563c0.1337,0.2043 0.7377,0.8261 0.9401,1.014 0.9121,0.8468 2.8646,0.538 3.7919,-0.6544 1.0466,-1.3458 1.4605,-1.7864 2.0841,-1.3196 0.4524,0.3388 0.5246,1.0318 1.5912,1.3287 0.883,0.2457 1.8015,0.0491 2.6823,-0.8484 0.9487,-0.9669 1.597,-2.8358 2.5098,-1.5214 0.6044,0.8704 1.3082,1.1201 2.2894,0.9184 1.0937,-0.2247 1.4776,-0.1835 2.3263,-1.4173 1.5817,-2.2991 1.5998,-0.5983 2.6292,-0.0125 0.628,0.4944 2.8633,-0.0845 3.5407,-0.9017 0.3562,-0.4297 0.7809,-1.4477 1.1007,-1.7379 0.2823,-0.256 0.5422,-0.0415 0.7445,0.1668"/>
   <path id="_346964440_12" class="fil0 str0" d="M154.056 51.4841c0.1337,0.2043 0.7377,0.8261 0.9401,1.014 0.9121,0.8468 2.8646,0.5381 3.7919,-0.6543 1.0466,-1.3458 1.4605,-1.7865 2.0841,-1.3197 0.4524,0.3388 0.5246,1.0318 1.5913,1.3288 0.883,0.2457 1.2492,0.5195 2.13,-0.3781"/>
   <path id="_188344768_15" class="fil0 str0" d="M115.764 54.2854c1.5818,-2.2991 2.3132,-1.1301 3.3426,-0.5442 0.628,0.4943 2.8633,-0.0846 3.5407,-0.9017 0.3562,-0.4297 0.7809,-1.4477 1.1007,-1.7379 0.2823,-0.256 0.5422,-0.0416 0.7445,0.1668"/>
   <path id="_188343352_16" class="fil0 str0" d="M124.336 51.1814c0.1337,0.2043 0.7377,0.8262 0.9401,1.014 0.9121,0.8468 2.8646,0.5381 3.7919,-0.6543 1.0466,-1.3458 1.4605,-1.7865 2.0841,-1.3196 0.4524,0.3387 0.5246,1.0318 1.5912,1.3287 0.883,0.2457 1.8015,0.0491 2.6823,-0.8484 0.9487,-0.9669 1.597,-2.8358 2.5098,-1.5214 0.6044,0.8704 1.3082,1.1201 2.2894,0.9184 1.0937,-0.2247 1.4776,-0.1835 2.3263,-1.4173 1.5818,-2.2991 1.5999,-0.5984 2.6293,-0.0125 0.628,0.4943 2.8632,-0.0845 3.5406,-0.9017 0.3562,-0.4297 0.7809,-1.4477 1.1007,-1.7379 0.2823,-0.256 0.5422,-0.0416 0.7445,0.1668"/>
   <path id="_346964440_17" class="fil0 str0" d="M150.409 46.1093c0.1337,0.2043 0.7377,0.8261 0.9401,1.014 0.9121,0.8468 2.8646,0.5381 3.7919,-0.6543"/>
   <path id="_188344768_20" class="fil0 str0" d="M115.459 48.3664c0.628,0.4943 2.8633,-0.0846 3.5407,-0.9017 0.3562,-0.4297 0.7809,-1.4477 1.1007,-1.7379 0.2823,-0.256 0.5422,-0.0416 0.7445,0.1668"/>
   <path id="_188343352_21" class="fil0 str0" d="M120.689 45.8066c0.1337,0.2043 0.7377,0.8261 0.9401,1.0139 0.9121,0.8469 2.8646,0.5381 3.7919,-0.6542 1.0466,-1.3458 1.4605,-1.7866 2.0841,-1.3197 0.4524,0.3388 0.5246,1.0319 1.5912,1.3288 0.883,0.2457 1.8015,0.0491 2.6823,-0.8486 0.9487,-0.9668 1.597,-2.8357 2.5098,-1.5212 0.6044,0.8703 1.3082,1.1201 2.2894,0.9184 1.0937,-0.2247 1.4776,-0.1836 2.3263,-1.4173 1.5818,-2.2992 1.5999,-0.5984 2.6293,-0.0125 0.628,0.4943 2.8633,-0.0846 3.5407,-0.9017 0.3562,-0.4297 0.2385,-1.0585 0.5583,-1.3487"/>
   <path id="_188343352_21_1" class="fil0 str0" d="M117.391 40.421c0.1337,0.2043 0.7377,0.8261 0.9401,1.014 0.9121,0.8468 2.8646,0.5381 3.7919,-0.6543 1.0466,-1.3458 1.4605,-1.7866 2.0841,-1.3197 0.4524,0.3388 0.5246,1.0319 1.5912,1.3288 0.883,0.2457 1.8015,0.0491 2.6823,-0.8485 0.9487,-0.9669 1.597,-2.8357 2.5098,-1.5213 0.6044,0.8703 1.3082,1.1201 2.2894,0.9184 1.0937,-0.2247 1.4776,-0.1836 2.3263,-1.4173 1.5818,-2.2991 1.5999,-0.5984 2.6293,-0.0125"/>
   <path id="_188343352_21_2" class="fil0 str0" d="M113.628 35.3202c0.1337,0.2043 0.7377,0.8261 0.9401,1.014 0.9121,0.8468 2.8646,0.5381 3.7919,-0.6543 1.0466,-1.3458 1.4605,-1.7866 2.0841,-1.3197 0.4524,0.3388 0.5246,1.0319 1.5912,1.3288 0.883,0.2457 1.8015,0.0491 2.6823,-0.8485 0.9487,-0.9669 1.597,-2.8358 2.5098,-1.5213 0.6044,0.8703 1.3082,1.1201 2.2894,0.9184 1.0937,-0.2247 1.4776,-0.1836 2.3263,-1.4173"/>
   <path id="_188344768_25" class="fil0 str0" d="M114.026 43.5605c0.3562,-0.4297 2.4271,-2.6015 2.7469,-2.8917 0.2823,-0.256 0.5422,-0.0416 0.7445,0.1668"/>
   <path id="_188343352_36" class="fil0 str0" d="M112.019 31.1659c0.9121,0.8469 1.7484,0.0723 2.6757,-1.12 1.0466,-1.3458 1.4605,-1.7866 2.0841,-1.3197 0.4524,0.3387 0.5246,1.0319 1.5912,1.3287 0.883,0.2457 2.7276,-0.8757 3.6084,-1.7732"/>
   <path id="_188343352_41" class="fil0 str0" d="M111.142 24.6785c1.0466,-1.3458 1.4605,-1.7866 2.0841,-1.3197 0.4524,0.3387 1.4186,0.928 2.4852,1.2248"/>
   <line id="_431383968" class="fil0 str0" x1="111.755" y1="77.3002" x2="109.686" y2= "81.1098" />
   <line id="_431384304" class="fil0 str0" x1="110.21" y1="69.6411" x2="103.357" y2= "79.9948" />
   <line id="_431384640" class="fil0 str0" x1="109.366" y1="60.1376" x2="96.8406" y2= "79.1637" />
   <line id="_431384976" class="fil0 str0" x1="108.101" y1="51.3301" x2="90.4446" y2= "78.1491" />
   <line id="_431385312" class="fil0 str0" x1="106.836" y1="42.5231" x2="83.9287" y2= "77.3177" />
   <line id="_431385648" class="fil0 str0" x1="105.57" y1="33.7154" x2="77.5317" y2= "76.3044" />
   <line id="_431385984" class="fil0 str0" x1="103.57" y1="25.6491" x2="70.6947" y2= "75.5843" />
   <line id="_431386320" class="fil0 str0" x1="97.5635" y1="24.4984" x2="64.6967" y2= "74.3418" />
   <line id="_431386656" class="fil0 str0" x1="86.0327" y1="30.8591" x2="57.8467" y2= "73.6721" />
   <line id="_431386992" class="fil0 str0" x1="75.4948" y1="36.5855" x2="51.6737" y2= "72.7682" />
   <line id="_431387328" class="fil0 str0" x1="63.9982" y1="42.8326" x2="44.9057" y2= "71.8321" />
   <line id="_431387664" class="fil0 str0" x1="52.0089" y1="49.3474" x2="38.4427" y2= "70.8202" />
   <line id="_431388000" class="fil0 str0" x1="42.5102" y1="54.509" x2="32.3357" y2= "69.9637" />
   <line id="_431388336" class="fil0 str0" x1="30.7592" y1="60.8946" x2="25.4567" y2= "68.9488" />
   <path id="_188344768_3" class="fil0 str0" d="M111.755 77.3002c-0.883,0.2946 -1.8015,0.1488 -2.6823,-0.7 -0.9487,-0.9143 -1.597,-2.7473 -2.5098,-1.3823 -0.6044,0.9038 -1.3082,1.1925 -2.2894,1.0452 -1.0937,-0.1642 -1.4776,-0.1017 -2.3263,-1.2885 -1.5818,-2.2116 -1.5999,-0.5098 -2.6293,0.1331 -0.628,0.5291 -2.8633,0.0739 -3.5407,-0.7058 -0.3562,-0.4099 -0.7809,-1.4043 -1.1007,-1.6769 -0.2823,-0.2404 -0.5422,-0.0115 -0.7445,0.208"/>
   <path id="_188343352_4" class="fil0 str0" d="M94.0886 72.8375c-0.1337,0.2117 -0.7377,0.8669 -0.9401,1.0659 -0.9121,0.8974 -2.8646,0.6968 -3.7919,-0.4443 -1.0466,-1.2878 -1.4605,-1.7056 -2.0841,-1.2042 -0.4524,0.3638 -0.5246,1.0608 -1.5912,1.4168 -0.8829,0.2946 -1.8014,0.1489 -2.6822,-0.7 -0.9487,-0.9143 -1.597,-2.7473 -2.5098,-1.3823 -0.6044,0.9038 -1.3082,1.1925 -2.2894,1.0452 -1.0937,-0.1642 -1.4776,-0.1017 -2.3263,-1.2885 -1.5818,-2.2115 -1.5999,-0.5098 -2.6293,0.1331 -0.628,0.5291 -2.8633,0.074 -3.5407,-0.7057 -0.3562,-0.41 -0.7809,-1.4044 -1.1007,-1.677 -0.2823,-0.2403 -0.5422,-0.0115 -0.7445,0.2081"/>
   <path id="_346964440_5" class="fil0 str0" d="M68.0147 69.2089c-0.1337,0.2118 -0.7377,0.8671 -0.9401,1.066 -0.9121,0.8974 -2.8646,0.6967 -3.7919,-0.4442 -1.0466,-1.2879 -1.4605,-1.7057 -2.0841,-1.2043 -0.4524,0.3637 -0.5246,1.0609 -1.5913,1.4169 -0.883,0.2945 -1.8015,0.1487 -2.6823,-0.7 -0.9487,-0.9143 -1.597,-2.7473 -2.5098,-1.3824 -0.6044,0.9038 -1.3082,1.1926 -2.2894,1.0452 -1.0937,-0.1642 -1.4776,-0.1018 -2.3263,-1.2886 -1.5818,-2.2115 -1.5999,-0.5097 -2.6293,0.1332 -0.628,0.5291 -2.8633,0.074 -3.5407,-0.7057 -0.3562,-0.4099 -0.7809,-1.4044 -1.1007,-1.6769 -0.2823,-0.2404 -0.5422,-0.0116 -0.7445,0.208"/>
   <path id="_188342920" class="fil0 str0" d="M41.9407 65.5805c-0.1337,0.2116 -0.7377,0.867 -0.9401,1.066 -0.9121,0.8972 -2.8646,0.6966 -3.7919,-0.4443 -1.0466,-1.288 -1.4605,-1.7057 -2.0841,-1.2042 -0.4524,0.3637 -0.5246,1.0607 -1.5913,1.4167 -0.883,0.2946 -1.8015,0.1488 -2.6823,-0.7 -0.9487,-0.9143 -1.597,-2.7473 -2.5098,-1.3823 -0.6044,0.9038 -1.3082,1.1925 -2.2894,1.0452 -1.0937,-0.1642 -1.4776,-0.1017 -2.3263,-1.2885"/>
   <path id="_188344768_0_6" class="fil0 str0" d="M110.21 69.6411c-0.6044,0.9038 -1.3082,1.1925 -2.2894,1.0451 -1.0937,-0.164 -1.4776,-0.1017 -2.3263,-1.2884 -1.5818,-2.2116 -1.5999,-0.5098 -2.6293,0.1331 -0.628,0.5291 -2.8633,0.074 -3.5407,-0.7057 -0.3562,-0.41 -0.7809,-1.4045 -1.1007,-1.6769 -0.2823,-0.2404 -0.5422,-0.0116 -0.7445,0.208"/>
   <path id="_188343352_1_7" class="fil0 str0" d="M97.7356 67.2607c-0.1337,0.2117 -0.7377,0.867 -0.9401,1.066 -0.9121,0.8973 -2.8646,0.6967 -3.7919,-0.4443 -1.0466,-1.2879 -1.4605,-1.7057 -2.0841,-1.2043 -0.4524,0.3639 -0.5246,1.0609 -1.5912,1.4169 -0.883,0.2946 -1.8015,0.1488 -2.6823,-0.7 -0.9487,-0.9143 -1.5969,-2.7473 -2.5097,-1.3823 -0.6044,0.9038 -1.3082,1.1925 -2.2894,1.0452 -1.0937,-0.1642 -1.4776,-0.1018 -2.3263,-1.2886 -1.5818,-2.2115 -1.5999,-0.5097 -2.6293,0.1331 -0.628,0.5292 -2.8633,0.074 -3.5407,-0.7057 -0.3562,-0.4099 -0.7809,-1.4043 -1.1007,-1.6769 -0.2823,-0.2404 -0.5422,-0.0115 -0.7445,0.208"/>
   <path id="_346964440_2_8" class="fil0 str0" d="M71.6617 63.6322c-0.1337,0.2118 -0.7377,0.867 -0.9401,1.066 -0.9121,0.8973 -2.8646,0.6967 -3.7919,-0.4443 -1.0466,-1.2878 -1.4605,-1.7056 -2.0841,-1.2042 -0.4524,0.3637 -0.5246,1.0608 -1.5913,1.4167 -0.883,0.2946 -1.8015,0.1489 -2.6823,-0.6999 -0.9487,-0.9143 -1.597,-2.7473 -2.5098,-1.3823 -0.6044,0.9037 -1.3082,1.1925 -2.2894,1.0451 -1.0937,-0.1642 -1.4776,-0.1017 -2.3263,-1.2885 -1.5818,-2.2115 -1.5999,-0.5097 -2.6293,0.1331 -0.628,0.5291 -2.8633,0.0741 -3.5407,-0.7056 -0.3562,-0.41 -0.7809,-1.4045 -1.1007,-1.677 -0.2823,-0.2403 -0.5422,-0.0115 -0.7445,0.2081"/>
   <path id="_188342920_3" class="fil0 str0" d="M45.5877 60.0037c-0.1337,0.2117 -0.7377,0.867 -0.9401,1.066 -0.9121,0.8973 -2.8646,0.6967 -3.7919,-0.4443 -1.0466,-1.2879 -1.4605,-1.7057 -2.0841,-1.2042 -0.4524,0.3637 -0.5246,1.0608 -1.5913,1.4168 -0.883,0.2946 -2.5965,-0.6943 -3.4773,-1.543"/>
   <path id="_188344768_5" class="fil0 str0" d="M109.978 64.394c-1.5818,-2.2115 -2.3368,-1.0827 -3.3662,-0.4399 -0.628,0.5291 -2.8633,0.074 -3.5407,-0.7056 -0.3562,-0.41 -0.7809,-1.4045 -1.1007,-1.677 -0.2823,-0.2403 -0.5422,-0.0115 -0.7445,0.208"/>
   <path id="_188343352_6_9" class="fil0 str0" d="M101.382 61.6839c-0.1337,0.2118 -0.7377,0.867 -0.9401,1.066 -0.9121,0.8974 -2.8646,0.6967 -3.7919,-0.4443 -1.0466,-1.2878 -1.4605,-1.7056 -2.0841,-1.2042 -0.4524,0.3637 -0.5246,1.0608 -1.5912,1.4168 -0.883,0.2945 -1.8015,0.1488 -2.6823,-0.6999 -0.9487,-0.9144 -1.597,-2.7474 -2.5098,-1.3824 -0.6044,0.9037 -1.3082,1.1925 -2.2893,1.0451 -1.0937,-0.1641 -1.4776,-0.1017 -2.3263,-1.2885 -1.5818,-2.2115 -1.5999,-0.5097 -2.6293,0.1331 -0.628,0.5291 -2.8633,0.0741 -3.5407,-0.7056 -0.3562,-0.41 -0.7809,-1.4045 -1.1007,-1.677 -0.2823,-0.2403 -0.5422,-0.0115 -0.7445,0.2081"/>
   <path id="_346964440_7_10" class="fil0 str0" d="M75.3087 58.0555c-0.1337,0.2117 -0.7377,0.867 -0.9401,1.066 -0.9121,0.8973 -2.8646,0.6966 -3.7919,-0.4443 -1.0466,-1.2879 -1.4605,-1.7057 -2.0841,-1.2043 -0.4524,0.3637 -0.5246,1.0609 -1.5913,1.4168 -0.883,0.2946 -1.8015,0.1488 -2.6823,-0.7 -0.9487,-0.9142 -1.597,-2.7472 -2.5098,-1.3823 -0.6044,0.9038 -1.3082,1.1925 -2.2894,1.0452 -1.0937,-0.1642 -1.4776,-0.1018 -2.3263,-1.2886 -1.5818,-2.2115 -1.5999,-0.5096 -2.6293,0.1331 -0.628,0.5292 -2.8633,0.0741 -3.5407,-0.7056 -0.3562,-0.41 -0.7809,-1.4044 -1.1007,-1.6769 -0.2823,-0.2404 -0.5422,-0.0116 -0.7445,0.2079"/>
   <path id="_188342920_8" class="fil0 str0" d="M49.2347 54.427c-0.1337,0.2116 -0.7377,0.8669 -0.9401,1.066 -0.9121,0.8972 -2.8646,0.6966 -3.7919,-0.4443 -1.0466,-1.2879 -0.348,-1.5958 -0.9716,-1.0944 -0.4524,0.3637 -1.6371,0.9509 -2.7038,1.3069"/>
   <path id="_188343352_11_11" class="fil0 str0" d="M105.029 56.1072c-0.1337,0.2116 -0.7377,0.8669 -0.9401,1.066 -0.9121,0.8972 -2.8646,0.6966 -3.7919,-0.4443 -1.0466,-1.288 -1.4605,-1.7057 -2.0841,-1.2043 -0.4524,0.3638 -0.5246,1.0608 -1.5912,1.4168 -0.883,0.2946 -1.8015,0.1488 -2.6823,-0.7 -0.9487,-0.9143 -1.597,-2.7472 -2.5098,-1.3823 -0.6044,0.9038 -1.3082,1.1925 -2.2894,1.0452 -1.0937,-0.1642 -1.4776,-0.1017 -2.3263,-1.2885 -1.5817,-2.2116 -1.5998,-0.5097 -2.6292,0.1331 -0.628,0.5291 -2.8633,0.074 -3.5407,-0.7057 -0.3562,-0.41 -0.7809,-1.4044 -1.1007,-1.6769 -0.2823,-0.2403 -0.5422,-0.0115 -0.7445,0.2079"/>
   <path id="_346964440_12_12" class="fil0 str0" d="M78.9557 52.4787c-0.1337,0.2118 -0.7377,0.867 -0.9401,1.066 -0.9121,0.8974 -2.8646,0.6967 -3.7919,-0.4443 -1.0466,-1.2879 -1.4605,-1.7057 -2.0841,-1.2042 -0.4524,0.3637 -0.5246,1.0608 -1.5913,1.4167 -0.883,0.2946 -1.8015,0.1489 -2.6823,-0.7 -0.9487,-0.9143 -1.597,-2.7472 -2.5098,-1.3823 -0.6044,0.9038 -1.3082,1.1925 -2.2894,1.0452 -1.0937,-0.1642 -1.4776,-0.1017 -2.3263,-1.2885 -1.5818,-2.2115 -1.5999,-0.5097 -2.6293,0.1331 -0.628,0.5291 -2.8633,0.0741 -3.5407,-0.7056 -0.3562,-0.4101 -0.7809,-1.4045 -1.1007,-1.677 -0.2823,-0.2403 -0.5422,-0.0115 -0.7445,0.208"/>
   <path id="_188343352_16_13" class="fil0 str0" d="M108.101 51.3301c-0.1337,0.2117 -0.1625,0.0673 -0.3649,0.2662 -0.9121,0.8974 -2.8646,0.6968 -3.7919,-0.4443 -1.0466,-1.2878 -1.4605,-1.7056 -2.0841,-1.2042 -0.4524,0.3638 -0.5246,1.0609 -1.5912,1.4169 -0.883,0.2946 -1.8015,0.1488 -2.6823,-0.7 -0.9487,-0.9143 -1.597,-2.7474 -2.5098,-1.3824 -0.6044,0.9039 -1.3082,1.1925 -2.2894,1.0452 -1.0937,-0.1641 -1.4776,-0.1017 -2.3263,-1.2885 -1.5818,-2.2115 -1.5999,-0.5098 -2.6293,0.1331 -0.628,0.5292 -2.8632,0.074 -3.5406,-0.7057 -0.3562,-0.41 -0.7809,-1.4044 -1.1007,-1.6769 -0.2823,-0.2404 -0.5422,-0.0116 -0.7445,0.208"/>
   <path id="_346964440_17_14" class="fil0 str0" d="M82.6027 46.902c-0.1337,0.2116 -0.7377,0.867 -0.9401,1.066 -0.9121,0.8972 -2.8646,0.6966 -3.7919,-0.4443 -1.0466,-1.288 -1.4605,-1.7058 -2.0841,-1.2043 -0.4524,0.3638 -0.5246,1.0608 -1.5913,1.4168 -0.883,0.2946 -1.8015,0.1488 -2.6823,-0.7 -0.9487,-0.9143 -1.597,-2.7473 -2.5098,-1.3823 -0.6044,0.9038 -1.3082,1.1925 -2.2894,1.0452 -1.0937,-0.1642 -1.4776,-0.1017 -2.3263,-1.2885 -1.5818,-2.2116 -1.5999,-0.5097 -2.6293,0.1331 -0.628,0.5291 -1.8906,0.6813 -2.568,-0.0984"/>
   <path id="_188343352_21_15" class="fil0 str0" d="M107.308 45.8127c-1.0466,-1.2879 -1.1778,-1.943 -1.8014,-1.4416 -0.4524,0.3637 -0.5246,1.0608 -1.5912,1.4168 -0.883,0.2946 -1.8015,0.1488 -2.6823,-0.7 -0.9487,-0.9143 -1.597,-2.7473 -2.5098,-1.3823 -0.6044,0.9038 -1.3082,1.1925 -2.2894,1.0451 -1.0937,-0.1641 -1.4776,-0.1017 -2.3263,-1.2884 -1.5818,-2.2116 -1.5999,-0.5098 -2.6293,0.1331 -0.628,0.529 -2.8633,0.074 -3.5407,-0.7057 -0.3562,-0.41 -0.7809,-1.4045 -1.1007,-1.677 -0.2823,-0.2403 -0.5422,-0.0115 -0.7445,0.2081"/>
   <path id="_346964440_22" class="fil0 str0" d="M86.2496 41.3252c-0.1337,0.2117 -0.7376,0.867 -0.94,1.066 -0.9121,0.8973 -2.8646,0.6967 -3.7919,-0.4443 -1.0466,-1.2879 -1.4605,-1.7057 -2.0841,-1.2042 -0.4524,0.3637 -0.5246,1.0607 -1.5913,1.4167 -0.883,0.2947 -1.8015,0.1489 -2.6823,-0.6999 -0.9487,-0.9144 -1.597,-2.7474 -2.5098,-1.3824 -0.6044,0.9038 -1.3082,1.1925 -2.2894,1.0452 -1.0937,-0.1641 -0.6381,0.2475 -1.4868,-0.9393"/>
   <path id="_188343352_26" class="fil0 str0" d="M106.571 40.6801c-0.883,0.2947 -1.1293,0.0143 -2.0101,-0.8344 -0.9487,-0.9143 -1.597,-2.7473 -2.5098,-1.3823 -0.6044,0.9037 -1.3082,1.1925 -2.2894,1.0451 -1.0937,-0.1641 -1.4776,-0.1017 -2.3263,-1.2885 -1.5818,-2.2115 -1.5999,-0.5097 -2.6293,0.1332 -0.628,0.529 -2.8633,0.074 -3.5407,-0.7057 -0.3562,-0.41 -0.7809,-1.4045 -1.1007,-1.677 -0.2823,-0.2403 -0.5422,-0.0115 -0.7445,0.2081"/>
   <path id="_346964440_27" class="fil0 str0" d="M89.5766 36.0829c-0.1337,0.2117 -0.7377,0.8671 -0.9401,1.066 -0.9121,0.8973 -2.8646,0.6967 -3.7918,-0.4443 -1.0466,-1.2879 -1.4605,-1.7057 -2.0841,-1.2042 -0.4524,0.3637 -0.5246,1.0608 -1.5913,1.4168 -0.883,0.2946 -2.7978,-0.5675 -3.6786,-1.4163"/>
   <path id="_188343352_31" class="fil0 str0" d="M105.481 33.0911c-0.6044,0.9038 -0.9122,0.7024 -1.8934,0.5551 -1.0937,-0.1642 -1.4776,-0.1017 -2.3263,-1.2885 -1.5818,-2.2115 -1.5999,-0.5098 -2.6293,0.1331 -0.628,0.5291 -2.8633,0.074 -3.5407,-0.7057 -0.3562,-0.41 -0.7809,-1.4044 -1.1007,-1.677 -0.2823,-0.2403 -0.5422,-0.0115 -0.7445,0.2081"/>
   <path id="_346964440_32" class="fil0 str0" d="M93.4016 30.2205c-0.1337,0.2117 -0.7377,0.867 -0.9401,1.066 -0.9121,0.8973 -2.8646,0.6967 -3.7919,-0.4443 -1.0466,-1.2879 -0.2099,-1.4645 -0.8335,-0.963 -0.4524,0.3638 -1.7752,0.8196 -2.8418,1.1756"/>
   <path id="_188343352_36_16" class="fil0 str0" d="M104.834 26.7479c-1.5818,-2.2115 -1.5999,-0.5097 -2.6293,0.1331 -0.628,0.5291 -2.8633,0.074 -3.5407,-0.7056 -0.3562,-0.4101 -0.7809,-1.4045 -1.1007,-1.677 -0.2823,-0.2403 -0.5422,-0.0115 -0.7445,0.2079"/>
  </g>
 </g>
</svg>
