<?xml version="1.0" encoding="UTF-8"?>
<!DOCTYPE svg PUBLIC "-//W3C//DTD SVG 1.1//EN" "http://www.w3.org/Graphics/SVG/1.1/DTD/svg11.dtd">
<!-- Creator: CorelDRAW -->
<svg xmlns="http://www.w3.org/2000/svg" xml:space="preserve" width="210mm" height="297mm" style="shape-rendering:geometricPrecision; text-rendering:geometricPrecision; image-rendering:optimizeQuality; fill-rule:evenodd; clip-rule:evenodd"
viewBox="0 0 210 297"
 xmlns:xlink="http://www.w3.org/1999/xlink">
 <defs>
  <style type="text/css">
   <![CDATA[
    .str1 {stroke:#333333;stroke-width:0.2}
    .str0 {stroke:#333333;stroke-width:0.5}
    .fil0 {fill:none}
    .fil1 {fill:#999999}
   ]]>
  </style>
 </defs>
 <g id="Слой_x0020_1">
  <metadata id="CorelCorpID_0Corel-Layer"/>
  <line class="fil0 str0" x1="23.3073" y1="68.8807" x2="23.3079" y2= "104.999" />
  <line class="fil0 str0" x1="114.636" y1="82.2119" x2="115.674" y2= "124.027" />
  <line class="fil0 str0" x1="188.883" y1="68.0546" x2="188.679" y2= "107.22" />
  <polyline class="fil0 str0" points="23.3079,104.998 115.92,124.077 188.679,107.22 "/>
  <g id="_439436360">
   <polygon id="_438309544" class="fil1 str0" points="9.7057,70.4678 106.232,30.3073 198.311,70.2719 116.628,82.5115 "/>
   <line id="_438306184" class="fil0 str0" x1="106.149" y1="30.4002" x2="116.628" y2= "82.5115" />
   <g id="_194944440">
    <path id="_187782408" class="fil0 str0" d="M111.684 64.2857c2.5331,-2.4635 2.8482,0.5551 4.9481,-1.2033 0.9082,-0.7603 1.4071,-0.5705 2.0889,-0.2101 0.9868,0.5217 1.3722,0.3535 2.3618,-0.6729 0.434,-0.4502 1.2949,-0.636 1.9039,-0.1582 0.4843,0.3799 0.8751,0.339 1.3024,0.3426"/>
    <path id="_187782312" class="fil0 str0" d="M124.17 62.3508c0.8358,0.1723 1.1552,-0.5652 1.4209,-0.7807 1.5828,-1.2834 1.7051,1.2871 3.6346,-0.2315 0.908,-0.7145 1.4071,-0.4999 2.0888,-0.1052 0.9869,0.5715 1.3723,0.4223 2.3619,-0.5542 0.4339,-0.4283 1.2949,-0.5709 1.9039,-0.0626 0.4843,0.4044 0.8751,0.383 1.3024,0.4081"/>
    <path id="_187784328" class="fil0 str0" d="M136.766 61.0031c0.8357,0.1723 1.1552,-0.5652 1.4208,-0.7807 1.5829,-1.2834 1.7051,1.2872 3.6346,-0.2315 0.908,-0.7145 1.4071,-0.4999 2.0889,-0.1051 0.9868,0.5713 1.3722,0.4224 2.3618,-0.5542 0.434,-0.4284 1.2949,-0.571 1.9039,-0.0626 0.4843,0.4043 0.8751,0.383 1.3024,0.408"/>
    <path id="_187788792" class="fil0 str0" d="M149.362 59.6554c0.8357,0.1723 1.1552,-0.5652 1.4209,-0.7806 1.5828,-1.2835 1.705,1.287 3.6346,-0.2316 0.9079,-0.7145 1.407,-0.4998 2.0888,-0.1051 0.9868,0.5714 1.3723,0.4224 2.3618,-0.5542 0.4339,-0.4283 1.2949,-0.571 1.9039,-0.0626 0.4843,0.4044 0.875,0.383 1.3023,0.408"/>
    <path id="_187787064" class="fil0 str0" d="M161.958 58.3077c0.8358,0.1723 1.1552,-0.5651 1.4209,-0.7806"/>
   </g>
   <path id="_187782408_0" class="fil0 str0" d="M109.413 48.3955c2.5331,-2.429 2.8482,0.5937 4.9481,-1.1361 0.9082,-0.748 1.4071,-0.5514 2.0889,-0.1819 0.9868,0.5352 1.3722,0.3721 2.3618,-0.6408 0.434,-0.4443 1.2949,-0.6185 1.9039,-0.1324 0.4843,0.3865 0.8751,0.3509 1.3024,0.3602"/>
   <path id="_187782312_1" class="fil0 str0" d="M121.899 46.6299c0.8358,0.1837 1.1552,-0.5495 1.4209,-0.7613 1.5828,-1.262 1.7051,1.3101 3.6346,-0.1823 0.908,-0.7022 1.4071,-0.4809 2.0888,-0.0769 0.9869,0.5848 1.3723,0.441 2.3619,-0.5221 0.4339,-0.4224 1.5221,-0.8924 2.1311,-0.3758 0.4843,0.411 0.8061,0.5021 1.2334,0.533"/>
   <path id="_187782408_2" class="fil0 str0" d="M53.3898 58.1727c2.5923,-1.8808 2.9147,1.2101 5.0637,-0.0653 0.9294,-0.5514 1.4399,-0.2468 2.1377,0.2704 1.0098,0.7487 1.4042,0.6691 2.4169,-0.1297 0.4441,-0.3504 1.3252,-0.3382 1.9484,0.2796 0.4956,0.4913 0.8955,0.5403 1.3328,0.6421"/>
   <path id="_187782408_3" class="fil0 str0" d="M50.3881 57.2331c0.4441,-0.3504 1.3251,-0.3382 1.9484,0.2797 0.4956,0.4913 0.8955,0.5403 1.3328,0.642"/>
   <path id="_187782312_4" class="fil0 str0" d="M66.1677 59.1095c0.8553,0.3645 1.1822,-0.2994 1.4541,-0.4538 1.6198,-0.9194 1.7449,1.6792 3.7195,0.6044 0.9292,-0.5058 1.4399,-0.1763 2.1376,0.3752 1.0099,0.7984 1.4043,0.7379 2.417,-0.011 0.444,-0.3285 1.3252,-0.2732 1.9484,0.3753 0.4956,0.5157 0.8955,0.5842 1.3328,0.7076"/>
   <path id="_187784328_5" class="fil0 str0" d="M79.0577 60.6587c0.8552,0.3646 1.1821,-0.2995 1.4539,-0.4539 1.6199,-0.9193 1.745,1.6794 3.7195,0.6045 0.9292,-0.5058 1.44,-0.1763 2.1377,0.3752 1.0098,0.7983 1.4043,0.738 2.417,-0.011 0.4441,-0.3285 1.3251,-0.2732 1.9483,0.3753 0.4956,0.5158 0.8956,0.5842 1.3328,0.7076"/>
   <path id="_187788792_6" class="fil0 str0" d="M91.9476 62.2079c0.8552,0.3646 1.1822,-0.2995 1.4541,-0.4538 1.6198,-0.9195 1.7448,1.6792 3.7195,0.6043 0.9291,-0.5056 1.4398,-0.1762 2.1376,0.3753 1.0098,0.7984 1.4043,0.7381 2.417,-0.011 0.444,-0.3285 1.3252,-0.2731 1.9484,0.3753 0.4956,0.5158 0.8954,0.5843 1.3327,0.7076"/>
   <path id="_187787064_7" class="fil0 str0" d="M104.838 63.7572c0.8553,0.3645 1.1821,-0.2995 1.4541,-0.4539 1.6197,-0.9193 2.0681,1.706 3.1328,0.6485 1.0647,-1.0574 1.9274,0.0739 2.2144,0.5081 0.3245,0.4912 1.3757,-0.6158 1.7248,-0.3397"/>
   <path id="_187784328_8" class="fil0 str0" d="M75.8158 46.2991c0.8357,0.3369 1.3664,-0.8014 1.632,-0.9645 1.5829,-0.9718 1.7051,1.6228 3.6346,0.484 0.908,-0.5357 1.4071,-0.2228 2.0889,0.3062 0.9868,0.7656 1.3722,0.6925 2.3618,-0.0892 0.434,-0.3429 1.2949,-0.3161 1.9039,0.3122 0.4843,0.4998 0.8751,0.5553 1.3024,0.6644"/>
   <path id="_187788792_9" class="fil0 str0" d="M88.6228 46.9677c0.8357,0.3368 1.1552,-0.3378 1.4209,-0.5009 1.5828,-0.9718 1.705,1.6227 3.6346,0.484 0.9079,-0.5357 1.407,-0.2228 2.0888,0.3062 0.9868,0.7656 1.3723,0.6925 2.3618,-0.0893 0.4339,-0.3428 1.2949,-0.316 1.9039,0.3123 0.4843,0.4998 0.875,0.5552 1.3023,0.6644"/>
   <path id="_187787064_10" class="fil0 str0" d="M101.219 48.1c0.8358,0.3367 1.1552,-0.3378 1.4209,-0.501 1.5828,-0.9718 2.021,1.639 3.0614,0.5472 1.0404,-1.0919 1.8834,0.0114 2.1638,0.4363 0.3171,0.4807 1.3443,-0.6603 1.6855,-0.3954"/>
   <line id="_438332560" class="fil0 str0" x1="170.678" y1="74.4124" x2="109.565" y2= "48.0093" />
   <line id="_438332224" class="fil0 str0" x1="194.135" y1="70.8975" x2="106.5" y2= "33.0282" />
   <line id="_438331888" class="fil0 str0" x1="146.788" y1="77.9923" x2="112.858" y2= "63.4091" />
   <line id="_438331552" class="fil0 str0" x1="46.6948" y1="74.6343" x2="107.776" y2= "48.5714" />
   <line id="_438331216" class="fil0 str0" x1="17.5975" y1="71.1492" x2="106.696" y2= "33.1182" />
   <line id="_438330880" class="fil0 str0" x1="78.1699" y1="78.1797" x2="113.06" y2= "62.7535" />
   <polygon id="_438330736" class="fil1 str1" points="103.259,31.5443 112.496,82.0462 116.628,82.5115 120.225,81.9726 109.899,31.899 106.232,30.3073 "/>
   <line id="_438330328" class="fil0 str1" x1="106.149" y1="30.4002" x2="116.628" y2= "82.5115" />
  </g>
 </g>
</svg>
