<?xml version="1.0" encoding="UTF-8"?>
<!DOCTYPE svg PUBLIC "-//W3C//DTD SVG 1.1//EN" "http://www.w3.org/Graphics/SVG/1.1/DTD/svg11.dtd">
<!-- Creator: CorelDRAW -->
<svg xmlns="http://www.w3.org/2000/svg" xml:space="preserve" width="210mm" height="297mm" style="shape-rendering:geometricPrecision; text-rendering:geometricPrecision; image-rendering:optimizeQuality; fill-rule:evenodd; clip-rule:evenodd"
viewBox="0 0 210 297"
 xmlns:xlink="http://www.w3.org/1999/xlink">
 <defs>
  <style type="text/css">
   <![CDATA[
    .str0 {stroke:#333333;stroke-width:0.5}
    .fil0 {fill:none}
    .fil1 {fill:#AD3836}
   ]]>
  </style>
 </defs>
 <g id="Слой_x0020_1">
  <metadata id="CorelCorpID_0Corel-Layer"/>
  <line class="fil0 str0" x1="23.3073" y1="68.8807" x2="23.3079" y2= "104.999" />
  <line class="fil0 str0" x1="114.636" y1="82.2119" x2="115.674" y2= "124.027" />
  <line class="fil0 str0" x1="188.883" y1="68.0546" x2="188.679" y2= "107.22" />
  <polyline class="fil0 str0" points="23.3079,104.998 115.92,124.077 188.679,107.22 "/>
  <g id="_431374416">
   <polygon id="_366420792" class="fil1 str0" points="9.7057,72.7991 106.232,40.4126 198.311,72.6412 116.628,82.5115 "/>
   <line id="_366422808" class="fil0 str0" x1="106.149" y1="40.4875" x2="116.628" y2= "82.5115" />
   <line id="_432534800" class="fil0 str0" x1="194.135" y1="73.1457" x2="106.5" y2= "42.6068" />
   <line id="_432535136" class="fil0 str0" x1="17.5975" y1="73.3486" x2="106.696" y2= "42.6794" />
   <polygon id="_432535280" class="fil1 str0" points="103.259,41.4101 112.496,82.1363 116.628,82.5115 120.225,82.0769 109.899,41.6962 106.232,40.4126 "/>
   <line id="_432535664" class="fil0 str0" x1="106.149" y1="40.4875" x2="116.628" y2= "82.5115" />
   <polygon id="_432535808" class="fil0 str0" points="121.212,78.8109 128.2,77.792 131.776,80.9866 131.68,80.9013 120.992,82.2785 119.885,81.1259 "/>
   <polygon id="_432536000" class="fil0 str0" points="129.575,75.4116 136.563,74.3926 140.139,77.5872 138.784,80.018 131.68,80.9013 128.248,77.7265 "/>
   <polygon id="_432536192" class="fil0 str0" points="137.938,72.0122 144.927,70.9933 148.502,74.1878 147.148,76.6186 140.024,77.8808 136.611,74.3271 "/>
   <polygon id="_432536384" class="fil0 str0" points="146.302,68.6128 153.29,67.5939 156.866,70.7885 155.511,73.2193 148.387,74.4813 144.974,70.9278 "/>
   <polygon id="_432536576" class="fil0 str0" points="154.665,65.2134 161.653,64.1944 165.229,67.3891 163.874,69.8199 156.75,71.082 153.337,67.5284 "/>
   <polygon id="_432536768" class="fil0 str0" points="162.793,62.2235 167.976,64.0297 172.434,65.5832 172.237,66.4205 165.114,67.6825 161.7,64.129 "/>
   <polygon id="_432536960" class="fil0 str0" points="118.993,73.0042 125.981,71.9852 129.557,75.1799 128.202,77.6107 121.078,78.8727 118.529,75.4449 "/>
   <polygon id="_432537152" class="fil0 str0" points="127.356,69.6048 134.344,68.5858 137.92,71.7805 136.565,74.2113 129.441,75.4733 126.029,71.9198 "/>
   <polygon id="_432537344" class="fil0 str0" points="135.719,66.2055 142.708,65.1864 146.283,68.3811 144.929,70.8118 137.805,72.0739 134.391,68.5204 "/>
   <polygon id="_432537536" class="fil0 str0" points="144.082,62.8061 151.071,61.7871 154.646,64.9818 153.292,67.4124 146.168,68.6747 142.755,65.121 "/>
   <polygon id="_432537728" class="fil0 str0" points="152.908,58.779 158.447,60.7093 162.675,62.1826 161.655,64.0132 154.531,65.2752 151.118,61.7217 "/>
   <polygon id="_432537920" class="fil0 str0" points="116.773,67.1975 123.762,66.1785 127.337,69.3731 125.983,71.8039 118.859,73.066 117.054,69.6764 "/>
   <polygon id="_432538112" class="fil0 str0" points="125.137,63.7981 132.125,62.7791 135.701,65.9738 134.346,68.4045 127.222,69.6666 123.809,66.1131 "/>
   <polygon id="_432538304" class="fil0 str0" points="133.5,60.3987 140.488,59.3798 144.064,62.5744 142.709,65.0051 135.586,66.2672 132.172,62.7137 "/>
   <polygon id="_432538496" class="fil0 str0" points="141.863,56.9993 147.851,57.0169 153.077,58.838 151.073,61.6057 143.949,62.8678 140.536,59.3142 "/>
   <polygon id="_432538688" class="fil0 str0" points="114.928,61.3627 121.543,60.3717 125.118,63.5664 123.764,65.9971 116.64,67.2592 115.58,63.9141 "/>
   <polygon id="_432538880" class="fil0 str0" points="122.917,57.9914 129.906,56.9724 133.482,60.167 132.127,62.5977 125.003,63.8599 121.59,60.3063 "/>
   <polygon id="_432539072" class="fil0 str0" points="131.28,54.592 138.269,53.573 141.844,56.7677 140.49,59.1984 133.366,60.4605 129.953,56.907 "/>
   <polygon id="_432539264" class="fil0 str0" points="113.411,55.4315 119.323,54.565 122.899,57.7597 121.545,60.1904 114.928,61.3627 114.147,58.3079 "/>
   <polygon id="_432539456" class="fil0 str0" points="120.698,52.1847 127.687,51.1656 131.262,54.3603 129.908,56.791 122.784,58.0531 119.371,54.4996 "/>
   <polygon id="_432539648" class="fil0 str0" points="128.257,50.1886 132.793,51.7694 137.725,53.4883 138.271,53.3917 131.147,54.6538 127.734,51.1002 "/>
   <polygon id="_432539840" class="fil0 str0" points="111.899,49.5172 117.104,48.7583 120.68,51.953 119.325,54.3837 113.411,55.4315 112.533,51.9963 "/>
   <polygon id="_432540032" class="fil0 str0" points="118.045,46.4967 123.476,48.5225 128.257,50.1886 127.689,50.9843 120.564,52.2464 117.151,48.6928 "/>
   <polygon id="_432540224" class="fil0 str0" points="110.895,45.5905 113.466,45.3046 118.045,46.4967 117.106,48.577 111.971,49.7987 111.092,46.3629 "/>
   <polygon id="_432540416" class="fil0 str0" points="140.165,77.6484 147.153,76.6293 149.747,78.5811 148.027,78.7952 142.152,79.5523 138.837,79.9633 "/>
   <polygon id="_432540608" class="fil0 str0" points="148.528,74.249 155.516,73.2301 159.092,76.4246 158.415,77.6401 149.382,78.6206 147.2,76.564 "/>
   <polygon id="_432540800" class="fil0 str0" points="156.891,70.8496 163.88,69.8306 167.455,73.0254 166.101,75.4561 158.976,76.7182 155.564,73.1646 "/>
   <polygon id="_432540992" class="fil0 str0" points="165.254,67.4502 172.243,66.4313 175.819,69.6259 174.464,72.0567 167.34,73.3187 163.927,69.7653 "/>
   <polygon id="_432541184" class="fil0 str0" points="167.44,73.3908 174.429,72.3719 178.004,75.0955 175.959,75.1964 169.821,75.9873 165.948,76.4863 "/>
   <polygon id="_432541376" class="fil0 str0" points="175.803,69.9914 182.791,68.9725 186.368,72.1671 184.915,74.0425 177.553,75.1639 174.476,72.3065 "/>
   <polygon id="_432541568" class="fil0 str0" points="109.224,78.2548 101.055,77.4534 96.876,80.7594 96.9875,80.6711 109.481,81.7156 110.775,80.5285 "/>
   <polygon id="_432541760" class="fil0 str0" points="99.4485,75.1159 91.2806,74.3143 87.101,77.6203 88.6845,80.0089 96.9875,80.6711 101,77.3894 "/>
   <polygon id="_432541952" class="fil0 str0" points="89.6736,71.9768 81.5052,71.1753 77.3264,74.4812 78.909,76.8698 87.2361,77.9102 91.2248,74.2504 "/>
   <polygon id="_432542144" class="fil0 str0" points="79.8982,68.8376 71.7306,68.0362 67.551,71.3422 69.1345,73.7308 77.4606,74.7711 81.4503,71.1114 "/>
   <polygon id="_432542336" class="fil0 str0" points="70.1236,65.6986 61.9552,64.8971 57.7765,68.2031 59.3591,70.5917 67.6861,71.632 71.6749,67.9722 "/>
   <polygon id="_432542528" class="fil0 str0" points="60.3491,62.5596 52.1807,61.7581 48.001,65.064 49.5845,67.4526 57.9107,68.4929 61.9003,64.8332 "/>
   <polygon id="_432542720" class="fil0 str0" points="110.248,72.2252 103.649,71.5776 99.4699,74.8836 101.053,77.2722 109.38,78.3125 110.801,74.6627 "/>
   <polygon id="_432542912" class="fil0 str0" points="102.042,69.24 93.8741,68.4385 89.6945,71.7444 91.278,74.1331 99.6046,75.1734 103.594,71.5136 "/>
   <polygon id="_432543104" class="fil0 str0" points="92.2671,66.1009 84.0987,65.2994 79.92,68.6054 81.5026,70.9939 89.8296,72.0343 93.8192,68.3746 "/>
   <polygon id="_432543296" class="fil0 str0" points="82.4926,62.9619 74.3242,62.1604 70.1454,65.4664 71.728,67.8549 80.055,68.8954 84.0438,65.2354 "/>
   <polygon id="_432543488" class="fil0 str0" points="72.7171,59.8228 64.5496,59.0214 60.37,62.3273 61.9535,64.7159 70.2796,65.7562 74.2684,62.0964 "/>
   <polygon id="_432543680" class="fil0 str0" points="108.826,65.9553 106.243,65.7018 102.064,69.0077 103.647,71.3963 110.395,72.2395 109.522,69.024 "/>
   <polygon id="_432543872" class="fil0 str0" points="104.636,63.3642 96.4679,62.5627 92.2889,65.8687 93.8715,68.2573 102.198,69.2976 106.188,65.6378 "/>
   <polygon id="_432544064" class="fil0 str0" points="94.8615,60.2251 86.6931,59.4237 82.5135,62.7296 84.097,65.1182 92.4231,66.1585 96.4127,62.4987 "/>
   <polygon id="_432544256" class="fil0 str0" points="85.0861,57.0861 76.9177,56.2845 72.7389,59.5905 74.3215,61.9791 82.6486,63.0195 86.6373,59.3597 "/>
   <polygon id="_432544448" class="fil0 str0" points="74.9691,53.6003 68.6064,55.7905 63.6556,57.4947 64.547,58.84 72.8731,59.8804 76.8628,56.2206 "/>
   <polygon id="_432544640" class="fil0 str0" points="106.905,57.4858 99.0618,56.6869 94.8824,59.9928 96.4657,62.3814 104.792,63.4219 107.435,59.8219 "/>
   <polygon id="_432544832" class="fil0 str0" points="97.4552,54.3493 89.2866,53.5478 85.1079,56.8539 86.6905,59.2424 95.0175,60.2828 99.0066,56.623 "/>
   <polygon id="_432545024" class="fil0 str0" points="87.6805,51.2102 80.4101,51.7274 74.9691,53.6003 76.916,56.1033 85.2421,57.1436 89.2317,53.4839 "/>
   <polygon id="_432545216" class="fil0 str0" points="105.451,51.0766 101.656,50.811 97.4766,54.117 99.0596,56.5056 106.905,57.4858 106.024,53.6034 "/>
   <polygon id="_432545408" class="fil0 str0" points="100.049,48.4735 91.8811,47.6721 87.7014,50.9779 89.2849,53.3665 97.6112,54.4069 101.6,50.7471 "/>
   <polygon id="_432545600" class="fil0 str0" points="103.775,43.6849 97.3816,45.8856 92.1225,47.6959 92.4948,47.5678 100.205,48.531 104.194,44.8713 "/>
   <polygon id="_432545792" class="fil0 str0" points="87.0713,77.6822 78.9029,76.8807 75.8719,78.9132 77.8816,79.0738 84.7488,79.6479 88.6226,79.9558 "/>
   <polygon id="_432545984" class="fil0 str0" points="77.2959,74.5431 69.1284,73.7418 64.9488,77.0476 65.8921,77.903 76.2981,78.9414 78.848,76.8169 "/>
   <polygon id="_432546176" class="fil0 str0" points="67.5214,71.4041 59.353,70.6026 55.1742,73.9086 56.7568,76.2972 65.0838,77.3376 69.0726,73.6778 "/>
   <polygon id="_432546368" class="fil0 str0" points="57.7468,68.265 49.5784,67.4635 45.3988,70.7695 46.9823,73.1581 55.3084,74.1984 59.2981,70.5387 "/>
   <polygon id="_432546560" class="fil0 str0" points="47.9714,65.126 40.2608,65.5476 34.9295,67.3826 37.2068,70.019 45.5339,71.0594 49.5226,67.3996 "/>
   <polygon id="_432546752" class="fil0 str0" points="55.1916,74.2736 47.0232,73.4722 43.4915,75.8681 45.9646,76.0927 52.8231,76.7157 56.7947,77.0766 "/>
   <polygon id="_432546944" class="fil0 str0" points="45.4171,71.1346 37.2487,70.3331 33.069,73.639 34.368,75.0394 43.9241,75.9074 46.9683,73.4082 "/>
   <polygon id="_432547136" class="fil0 str0" points="34.9296,67.3826 29.0123,69.4196 23.7734,71.2228 24.8771,72.8885 33.2041,73.9289 37.1929,70.2691 "/>
  </g>
 </g>
</svg>
