<?xml version="1.0" encoding="UTF-8"?>
<!DOCTYPE svg PUBLIC "-//W3C//DTD SVG 1.1//EN" "http://www.w3.org/Graphics/SVG/1.1/DTD/svg11.dtd">
<!-- Creator: CorelDRAW -->
<svg xmlns="http://www.w3.org/2000/svg" xml:space="preserve" width="210mm" height="297mm" style="shape-rendering:geometricPrecision; text-rendering:geometricPrecision; image-rendering:optimizeQuality; fill-rule:evenodd; clip-rule:evenodd"
viewBox="0 0 210 297"
 xmlns:xlink="http://www.w3.org/1999/xlink">
 <defs>
  <style type="text/css">
   <![CDATA[
    .str0 {stroke:#333333;stroke-width:0.5}
    .fil0 {fill:none}
    .fil1 {fill:#AD3836}
   ]]>
  </style>
 </defs>
 <g id="Слой_x0020_1">
  <metadata id="CorelCorpID_0Corel-Layer"/>
  <line class="fil0 str0" x1="23.3073" y1="68.8807" x2="23.3079" y2= "104.999" />
  <line class="fil0 str0" x1="114.636" y1="82.2119" x2="115.674" y2= "124.027" />
  <line class="fil0 str0" x1="188.883" y1="68.0546" x2="188.679" y2= "107.22" />
  <polyline class="fil0 str0" points="23.3079,104.998 115.92,124.077 188.679,107.22 "/>
  <g id="_430452104">
   <polygon id="_349015656" class="fil1 str0" points="9.7057,72.0651 106.232,37.2309 198.311,71.8952 116.628,82.5115 "/>
   <line id="_428549720" class="fil0 str0" x1="106.149" y1="37.3114" x2="116.628" y2= "82.5115" />
   <line id="_431374848" class="fil0 str0" x1="194.135" y1="72.4378" x2="106.5" y2= "39.591" />
   <line id="_431375184" class="fil0 str0" x1="17.5975" y1="72.6561" x2="106.696" y2= "39.669" />
   <polygon id="_431375328" class="fil1 str0" points="103.259,38.3038 112.496,82.1079 116.628,82.5115 120.225,82.0441 109.899,38.6115 106.232,37.2309 "/>
   <line id="_431375712" class="fil0 str0" x1="106.149" y1="37.3114" x2="116.628" y2= "82.5115" />
   <line id="_431376048" class="fil0 str0" x1="119.259" y1="77.9835" x2="123.325" y2= "82.0382" />
   <line id="_431376384" class="fil0 str0" x1="116.781" y1="67.5616" x2="129.655" y2= "81.0397" />
   <line id="_431376720" class="fil0 str0" x1="114.443" y1="58.5613" x2="136.171" y2= "80.2277" />
   <line id="_431377056" class="fil0 str0" x1="112.425" y1="49.2388" x2="142.567" y2= "79.295" />
   <line id="_431377392" class="fil0 str0" x1="112.238" y1="41.7421" x2="149.083" y2= "78.4828" />
   <line id="_431377728" class="fil0 str0" x1="123.984" y1="46.1446" x2="155.48" y2= "77.551" />
   <line id="_431378064" class="fil0 str0" x1="136.142" y1="50.7012" x2="162.317" y2= "76.8025" />
   <line id="_431378400" class="fil0 str0" x1="147.476" y1="54.9494" x2="168.315" y2= "75.7297" />
   <line id="_431378736" class="fil0 str0" x1="159.6" y1="59.4936" x2="175.165" y2= "75.015" />
   <line id="_431379072" class="fil0 str0" x1="171.303" y1="63.6703" x2="181.338" y2= "74.1662" />
   <line id="_431379408" class="fil0 str0" x1="183.133" y1="68.3139" x2="188.106" y2= "73.2731" />
   <path id="_188344768" class="fil0 str0" d="M119.665 78.6154c0.4524,0.2307 0.5246,0.703 1.5913,0.9052 0.883,0.1674 1.8015,0.0335 2.6823,-0.5781 0.9487,-0.6587 1.597,-1.932 2.5098,-1.0365 0.6044,0.593 1.3082,0.7632 2.2894,0.6258 1.0937,-0.1531 1.4776,-0.1251 2.3263,-0.9657 1.5818,-1.5665 1.5999,-0.4077 2.6293,-0.0085 0.628,0.3368 2.8633,-0.0576 3.5407,-0.6144 0.3562,-0.2927 0.7809,-0.9863 1.1007,-1.184 0.2823,-0.1745 0.5422,-0.0284 0.7445,0.1136"/>
   <path id="_188343352" class="fil0 str0" d="M138.923 75.8135c0.1337,0.1392 0.7377,0.563 0.9401,0.6909 0.9121,0.5769 2.8646,0.3666 3.7919,-0.4458 1.0466,-0.9169 1.4605,-1.2172 2.0841,-0.8991 0.4524,0.2308 0.5246,0.703 1.5912,0.9053 0.8829,0.1674 1.8014,0.0334 2.6822,-0.5781 0.9487,-0.6587 1.597,-1.9321 2.5098,-1.0365 0.6044,0.5929 1.3082,0.7631 2.2894,0.6257 1.0937,-0.1531 1.4776,-0.125 2.3263,-0.9656 1.5818,-1.5665 1.5999,-0.4077 2.6293,-0.0085 0.628,0.3368 2.8633,-0.0576 3.5407,-0.6144 0.3562,-0.2928 0.7809,-0.9863 1.1007,-1.1841 0.2823,-0.1744 0.5422,-0.0283 0.7445,0.1136"/>
   <path id="_346964440" class="fil0 str0" d="M164.997 72.3577c0.1337,0.1392 0.7377,0.5629 0.9401,0.6908 0.9121,0.577 2.8646,0.3666 3.7919,-0.4457 1.0466,-0.917 1.4605,-1.2173 2.0841,-0.8992 0.4524,0.2308 0.5246,0.703 1.5913,0.9053 0.883,0.1674 1.8015,0.0334 2.6823,-0.5781 0.9487,-0.6587 1.597,-1.932 2.5098,-1.0365 0.6044,0.593 1.3082,0.7632 2.2894,0.6257 1.0937,-0.1531 1.4776,-0.125 2.3263,-0.9656 1.5818,-1.5664 1.5999,-0.4077 2.6293,-0.0085 0.628,0.3368 2.3804,0.2172 3.0578,-0.3396"/>
   <path id="_188344768_0" class="fil0 str0" d="M118.762 75.8934c0.883,0.1674 0.6491,-0.0014 1.5299,-0.6129 0.9487,-0.6588 1.597,-1.9321 2.5098,-1.0366 0.6044,0.593 1.3082,0.7632 2.2894,0.6258 1.0937,-0.1531 1.4776,-0.1251 2.3263,-0.9656 1.5818,-1.5665 1.5999,-0.4077 2.6293,-0.0085 0.628,0.3368 2.8633,-0.0576 3.5407,-0.6144 0.3562,-0.2928 0.7809,-0.9863 1.1007,-1.1841 0.2823,-0.1744 0.5422,-0.0283 0.7445,0.1137"/>
   <path id="_188344768_0_0" class="fil0 str0" d="M117.669 71.295c0.6044,0.593 3.1109,0.3404 4.0921,0.203 1.0937,-0.1531 1.4776,-0.1251 2.3263,-0.9656 1.5818,-1.5665 1.5999,-0.4077 2.6293,-0.0085 0.628,0.3368 2.8633,-0.0577 3.5407,-0.6144 0.3562,-0.2928 0.7809,-0.9863 1.1007,-1.1841 0.2823,-0.1744 0.5422,-0.0284 0.7445,0.1136"/>
   <path id="_188343352_1" class="fil0 str0" d="M135.276 72.1515c0.1337,0.1392 0.7377,0.5629 0.9401,0.6908 0.9121,0.577 2.8646,0.3667 3.7919,-0.4457 1.0466,-0.9169 1.4605,-1.2173 2.0841,-0.8991 0.4524,0.2307 0.5246,0.703 1.5912,0.9053 0.883,0.1674 1.8015,0.0334 2.6823,-0.5782 0.9487,-0.6586 1.5969,-1.932 2.5097,-1.0364 0.6044,0.5929 1.3082,0.7631 2.2894,0.6257 1.0937,-0.1531 1.4776,-0.125 2.3263,-0.9657 1.5818,-1.5664 1.5999,-0.4076 2.6293,-0.0085 0.628,0.3368 2.8633,-0.0575 3.5407,-0.6143 0.3562,-0.2928 0.7809,-0.9864 1.1007,-1.1841 0.2823,-0.1744 0.5422,-0.0283 0.7445,0.1136"/>
   <path id="_346964440_2" class="fil0 str0" d="M161.35 68.6957c0.1337,0.1392 0.7377,0.5628 0.9401,0.6908 0.9121,0.577 2.8646,0.3666 3.7919,-0.4457 1.0466,-0.917 1.4605,-1.2173 2.0841,-0.8992 0.4524,0.2308 0.5246,0.703 1.5913,0.9053 0.883,0.1674 1.8015,0.0334 2.6823,-0.5781 0.9487,-0.6587 1.597,-1.932 2.5098,-1.0365 0.6044,0.593 1.3082,0.7632 2.2894,0.6257 1.0937,-0.1531 1.4776,-0.125 2.3263,-0.9657"/>
   <path id="_188343352_6" class="fil0 str0" d="M131.629 68.4895c0.1337,0.1392 0.7377,0.5629 0.9401,0.6908 0.9121,0.577 2.8646,0.3666 3.7919,-0.4457 1.0466,-0.917 1.4605,-1.2173 2.0841,-0.8992 0.4524,0.2308 0.5246,0.703 1.5912,0.9054 0.883,0.1674 1.8015,0.0333 2.6823,-0.5782 0.9487,-0.6587 1.597,-1.932 2.5098,-1.0365 0.6044,0.593 1.3082,0.7632 2.2893,0.6257 1.0937,-0.1531 1.4776,-0.125 2.3263,-0.9656 1.5818,-1.5664 1.5999,-0.4077 2.6293,-0.0085 0.628,0.3368 2.8633,-0.0576 3.5407,-0.6144 0.3562,-0.2927 0.7809,-0.9863 1.1007,-1.1841 0.2823,-0.1743 0.5422,-0.0283 0.7445,0.1137"/>
   <path id="_346964440_7" class="fil0 str0" d="M157.703 65.0337c0.1337,0.1392 0.7377,0.5628 0.9401,0.6908 0.9121,0.5769 2.8646,0.3666 3.7919,-0.4458 1.0466,-0.9169 1.4605,-1.2172 2.0841,-0.8991 0.4524,0.2308 0.5246,0.703 1.5913,0.9053 0.883,0.1674 1.8015,0.0334 2.6823,-0.5781 0.9487,-0.6588 1.597,-1.9321 2.5098,-1.0366"/>
   <path id="_188344768_10" class="fil0 str0" d="M116.781 67.5616c0.6044,0.593 0.0349,0.1214 1.0161,-0.0159 1.0937,-0.1532 1.4776,-0.1251 2.3263,-0.9657 1.5818,-1.5665 1.5999,-0.4077 2.6293,-0.0085 0.628,0.3368 2.8633,-0.0576 3.5407,-0.6144 0.3562,-0.2928 0.7809,-0.9863 1.1007,-1.1841 0.2823,-0.1744 0.5422,-0.0283 0.7445,0.1137"/>
   <path id="_188343352_11" class="fil0 str0" d="M127.983 64.8275c0.1337,0.1392 0.7377,0.5628 0.9401,0.6908 0.9121,0.577 2.8646,0.3666 3.7919,-0.4458 1.0466,-0.917 1.4605,-1.2172 2.0841,-0.8991 0.4524,0.2308 0.5246,0.703 1.5912,0.9053 0.883,0.1674 1.8015,0.0334 2.6823,-0.5781 0.9487,-0.6587 1.597,-1.9321 2.5098,-1.0365 0.6044,0.593 1.3082,0.7631 2.2894,0.6257 1.0937,-0.1531 1.4776,-0.125 2.3263,-0.9657 1.5817,-1.5664 1.5998,-0.4076 2.6292,-0.0085 0.628,0.3368 2.8633,-0.0575 3.5407,-0.6143 0.3562,-0.2928 0.7809,-0.9864 1.1007,-1.1841 0.2823,-0.1744 0.5422,-0.0283 0.7445,0.1136"/>
   <path id="_346964440_12" class="fil0 str0" d="M154.056 61.3716c0.1337,0.1392 0.7377,0.5629 0.9401,0.6909 0.9121,0.5769 2.8646,0.3666 3.7919,-0.4458 1.0466,-0.9169 1.4605,-1.2172 2.0841,-0.8991 0.4524,0.2308 0.5246,0.703 1.5913,0.9053 0.883,0.1674 1.2492,0.354 2.13,-0.2576"/>
   <path id="_188344768_15" class="fil0 str0" d="M115.764 63.2802c1.5818,-1.5664 2.3132,-0.7699 3.3426,-0.3707 0.628,0.3368 2.8633,-0.0577 3.5407,-0.6144 0.3562,-0.2928 0.7809,-0.9863 1.1007,-1.1841 0.2823,-0.1744 0.5422,-0.0283 0.7445,0.1136"/>
   <path id="_188343352_16" class="fil0 str0" d="M124.336 61.1654c0.1337,0.1392 0.7377,0.5629 0.9401,0.6908 0.9121,0.577 2.8646,0.3666 3.7919,-0.4457 1.0466,-0.917 1.4605,-1.2172 2.0841,-0.8991 0.4524,0.2307 0.5246,0.703 1.5912,0.9053 0.883,0.1674 1.8015,0.0334 2.6823,-0.5781 0.9487,-0.6588 1.597,-1.9321 2.5098,-1.0365 0.6044,0.593 1.3082,0.7631 2.2894,0.6257 1.0937,-0.1531 1.4776,-0.1251 2.3263,-0.9657 1.5818,-1.5664 1.5999,-0.4077 2.6293,-0.0085 0.628,0.3368 2.8632,-0.0575 3.5406,-0.6144 0.3562,-0.2927 0.7809,-0.9863 1.1007,-1.184 0.2823,-0.1744 0.5422,-0.0283 0.7445,0.1136"/>
   <path id="_346964440_17" class="fil0 str0" d="M150.409 57.7096c0.1337,0.1392 0.7377,0.5629 0.9401,0.6908 0.9121,0.577 2.8646,0.3667 3.7919,-0.4457"/>
   <path id="_188344768_20" class="fil0 str0" d="M115.459 59.2474c0.628,0.3368 2.8633,-0.0576 3.5407,-0.6143 0.3562,-0.2928 0.7809,-0.9864 1.1007,-1.1841 0.2823,-0.1744 0.5422,-0.0283 0.7445,0.1136"/>
   <path id="_188343352_21" class="fil0 str0" d="M120.689 57.5034c0.1337,0.1392 0.7377,0.5628 0.9401,0.6908 0.9121,0.577 2.8646,0.3666 3.7919,-0.4457 1.0466,-0.917 1.4605,-1.2173 2.0841,-0.8992 0.4524,0.2308 0.5246,0.7031 1.5912,0.9053 0.883,0.1674 1.8015,0.0335 2.6823,-0.5781 0.9487,-0.6587 1.597,-1.932 2.5098,-1.0365 0.6044,0.593 1.3082,0.7632 2.2894,0.6258 1.0937,-0.1531 1.4776,-0.1251 2.3263,-0.9657 1.5818,-1.5665 1.5999,-0.4077 2.6293,-0.0085 0.628,0.3368 2.8633,-0.0576 3.5407,-0.6144 0.3562,-0.2927 0.2385,-0.7211 0.5583,-0.9189"/>
   <path id="_188343352_21_1" class="fil0 str0" d="M117.391 53.834c0.1337,0.1392 0.7377,0.5629 0.9401,0.6908 0.9121,0.577 2.8646,0.3667 3.7919,-0.4457 1.0466,-0.9169 1.4605,-1.2172 2.0841,-0.8991 0.4524,0.2308 0.5246,0.703 1.5912,0.9053 0.883,0.1674 1.8015,0.0334 2.6823,-0.5782 0.9487,-0.6587 1.597,-1.932 2.5098,-1.0364 0.6044,0.5929 1.3082,0.7631 2.2894,0.6257 1.0937,-0.1531 1.4776,-0.1251 2.3263,-0.9657 1.5818,-1.5664 1.5999,-0.4076 2.6293,-0.0085"/>
   <path id="_188343352_21_2" class="fil0 str0" d="M113.628 50.3587c0.1337,0.1392 0.7377,0.5629 0.9401,0.6908 0.9121,0.577 2.8646,0.3666 3.7919,-0.4457 1.0466,-0.917 1.4605,-1.2173 2.0841,-0.8992 0.4524,0.2308 0.5246,0.7031 1.5912,0.9053 0.883,0.1674 1.8015,0.0335 2.6823,-0.5781 0.9487,-0.6587 1.597,-1.932 2.5098,-1.0365 0.6044,0.593 1.3082,0.7632 2.2894,0.6258 1.0937,-0.1531 1.4776,-0.1251 2.3263,-0.9657"/>
   <path id="_188344768_25" class="fil0 str0" d="M114.026 55.973c0.3562,-0.2927 2.4271,-1.7724 2.7469,-1.9702 0.2823,-0.1744 0.5422,-0.0283 0.7445,0.1137"/>
   <path id="_188343352_36" class="fil0 str0" d="M112.019 47.5283c0.9121,0.5769 1.7484,0.0492 2.6757,-0.7632 1.0466,-0.9169 1.4605,-1.2172 2.0841,-0.8991 0.4524,0.2308 0.5246,0.703 1.5912,0.9053 0.883,0.1674 2.7276,-0.5966 3.6084,-1.2081"/>
   <path id="_188343352_41" class="fil0 str0" d="M111.142 43.1082c1.0466,-0.917 1.4605,-1.2173 2.0841,-0.8992 0.4524,0.2308 1.4186,0.6323 2.4852,0.8346"/>
   <line id="_431383968" class="fil0 str0" x1="111.755" y1="78.9609" x2="109.686" y2= "81.5565" />
   <line id="_431384304" class="fil0 str0" x1="110.21" y1="73.7425" x2="103.357" y2= "80.7968" />
   <line id="_431384640" class="fil0 str0" x1="109.366" y1="67.2675" x2="96.8406" y2= "80.2306" />
   <line id="_431384976" class="fil0 str0" x1="108.101" y1="61.2667" x2="90.4446" y2= "79.5393" />
   <line id="_431385312" class="fil0 str0" x1="106.836" y1="55.2662" x2="83.9287" y2= "78.9728" />
   <line id="_431385648" class="fil0 str0" x1="105.57" y1="49.2653" x2="77.5317" y2= "78.2824" />
   <line id="_431385984" class="fil0 str0" x1="103.57" y1="43.7695" x2="70.6947" y2= "77.7918" />
   <line id="_431386320" class="fil0 str0" x1="97.5635" y1="42.9855" x2="64.6967" y2= "76.9452" />
   <line id="_431386656" class="fil0 str0" x1="86.0327" y1="47.3192" x2="57.8467" y2= "76.489" />
   <line id="_431386992" class="fil0 str0" x1="75.4948" y1="51.2208" x2="51.6737" y2= "75.8731" />
   <line id="_431387328" class="fil0 str0" x1="63.9982" y1="55.4771" x2="44.9057" y2= "75.2353" />
   <line id="_431387664" class="fil0 str0" x1="52.0089" y1="59.9159" x2="38.4427" y2= "74.5459" />
   <line id="_431388000" class="fil0 str0" x1="42.5102" y1="63.4326" x2="32.3357" y2= "73.9623" />
   <line id="_431388336" class="fil0 str0" x1="30.7592" y1="67.7833" x2="25.4567" y2= "73.2708" />
   <path id="_188344768_3" class="fil0 str0" d="M111.755 78.9609c-0.883,0.2007 -1.8015,0.1014 -2.6823,-0.4769 -0.9487,-0.623 -1.597,-1.8719 -2.5098,-0.9419 -0.6044,0.6158 -1.3082,0.8125 -2.2894,0.7122 -1.0937,-0.1119 -1.4776,-0.0693 -2.3263,-0.8779 -1.5818,-1.5068 -1.5999,-0.3474 -2.6293,0.0906 -0.628,0.3606 -2.8633,0.0504 -3.5407,-0.4808 -0.3562,-0.2793 -0.7809,-0.9568 -1.1007,-1.1425 -0.2823,-0.1638 -0.5422,-0.0079 -0.7445,0.1417"/>
   <path id="_188343352_4" class="fil0 str0" d="M94.0886 75.9203c-0.1337,0.1442 -0.7377,0.5907 -0.9401,0.7263 -0.9121,0.6113 -2.8646,0.4747 -3.7919,-0.3028 -1.0466,-0.8774 -1.4605,-1.1621 -2.0841,-0.8204 -0.4524,0.2478 -0.5246,0.7228 -1.5912,0.9653 -0.8829,0.2007 -1.8014,0.1014 -2.6822,-0.4769 -0.9487,-0.623 -1.597,-1.8719 -2.5098,-0.9418 -0.6044,0.6158 -1.3082,0.8125 -2.2894,0.7121 -1.0937,-0.1119 -1.4776,-0.0693 -2.3263,-0.8779 -1.5818,-1.5068 -1.5999,-0.3473 -2.6293,0.0907 -0.628,0.3605 -2.8633,0.0504 -3.5407,-0.4809 -0.3562,-0.2793 -0.7809,-0.9568 -1.1007,-1.1425 -0.2823,-0.1638 -0.5422,-0.0079 -0.7445,0.1417"/>
   <path id="_346964440_5" class="fil0 str0" d="M68.0147 73.4481c-0.1337,0.1443 -0.7377,0.5907 -0.9401,0.7263 -0.9121,0.6114 -2.8646,0.4746 -3.7919,-0.3027 -1.0466,-0.8775 -1.4605,-1.1621 -2.0841,-0.8205 -0.4524,0.2478 -0.5246,0.7228 -1.5913,0.9653 -0.883,0.2007 -1.8015,0.1014 -2.6823,-0.4769 -0.9487,-0.6229 -1.597,-1.8718 -2.5098,-0.9418 -0.6044,0.6157 -1.3082,0.8125 -2.2894,0.712 -1.0937,-0.1118 -1.4776,-0.0693 -2.3263,-0.8779 -1.5818,-1.5067 -1.5999,-0.3472 -2.6293,0.0908 -0.628,0.3604 -2.8633,0.0504 -3.5407,-0.4808 -0.3562,-0.2794 -0.7809,-0.9569 -1.1007,-1.1426 -0.2823,-0.1637 -0.5422,-0.0078 -0.7445,0.1418"/>
   <path id="_188342920" class="fil0 str0" d="M41.9407 70.9759c-0.1337,0.1442 -0.7377,0.5907 -0.9401,0.7263 -0.9121,0.6113 -2.8646,0.4746 -3.7919,-0.3027 -1.0466,-0.8775 -1.4605,-1.1622 -2.0841,-0.8205 -0.4524,0.2478 -0.5246,0.7227 -1.5913,0.9653 -0.883,0.2007 -1.8015,0.1014 -2.6823,-0.4769 -0.9487,-0.623 -1.597,-1.8719 -2.5098,-0.9419 -0.6044,0.6158 -1.3082,0.8125 -2.2894,0.7122 -1.0937,-0.1119 -1.4776,-0.0693 -2.3263,-0.8779"/>
   <path id="_188344768_0_6" class="fil0 str0" d="M110.21 73.7425c-0.6044,0.6158 -1.3082,0.8125 -2.2894,0.7121 -1.0937,-0.1118 -1.4776,-0.0693 -2.3263,-0.8778 -1.5818,-1.5069 -1.5999,-0.3474 -2.6293,0.0906 -0.628,0.3605 -2.8633,0.0505 -3.5407,-0.4808 -0.3562,-0.2793 -0.7809,-0.9569 -1.1007,-1.1425 -0.2823,-0.1638 -0.5422,-0.0079 -0.7445,0.1417"/>
   <path id="_188343352_1_7" class="fil0 str0" d="M97.7356 72.1207c-0.1337,0.1442 -0.7377,0.5907 -0.9401,0.7263 -0.9121,0.6113 -2.8646,0.4747 -3.7919,-0.3027 -1.0466,-0.8775 -1.4605,-1.1622 -2.0841,-0.8205 -0.4524,0.2478 -0.5246,0.7228 -1.5912,0.9653 -0.883,0.2007 -1.8015,0.1014 -2.6823,-0.4769 -0.9487,-0.623 -1.5969,-1.8719 -2.5097,-0.9418 -0.6044,0.6158 -1.3082,0.8125 -2.2894,0.7121 -1.0937,-0.1119 -1.4776,-0.0693 -2.3263,-0.8779 -1.5818,-1.5068 -1.5999,-0.3473 -2.6293,0.0907 -0.628,0.3605 -2.8633,0.0504 -3.5407,-0.4809 -0.3562,-0.2793 -0.7809,-0.9568 -1.1007,-1.1425 -0.2823,-0.1638 -0.5422,-0.0079 -0.7445,0.1417"/>
   <path id="_346964440_2_8" class="fil0 str0" d="M71.6617 69.6485c-0.1337,0.1443 -0.7377,0.5907 -0.9401,0.7263 -0.9121,0.6114 -2.8646,0.4746 -3.7919,-0.3027 -1.0466,-0.8775 -1.4605,-1.1621 -2.0841,-0.8205 -0.4524,0.2478 -0.5246,0.7228 -1.5913,0.9653 -0.883,0.2007 -1.8015,0.1014 -2.6823,-0.4769 -0.9487,-0.6229 -1.597,-1.8718 -2.5098,-0.9418 -0.6044,0.6157 -1.3082,0.8125 -2.2894,0.712 -1.0937,-0.1118 -1.4776,-0.0693 -2.3263,-0.8779 -1.5818,-1.5067 -1.5999,-0.3472 -2.6293,0.0907 -0.628,0.3605 -2.8633,0.0505 -3.5407,-0.4807 -0.3562,-0.2794 -0.7809,-0.9569 -1.1007,-1.1426 -0.2823,-0.1637 -0.5422,-0.0078 -0.7445,0.1418"/>
   <path id="_188342920_3" class="fil0 str0" d="M45.5877 67.1763c-0.1337,0.1442 -0.7377,0.5907 -0.9401,0.7263 -0.9121,0.6113 -2.8646,0.4746 -3.7919,-0.3027 -1.0466,-0.8775 -1.4605,-1.1622 -2.0841,-0.8205 -0.4524,0.2478 -0.5246,0.7227 -1.5913,0.9653 -0.883,0.2007 -2.5965,-0.473 -3.4773,-1.0513"/>
   <path id="_188344768_5" class="fil0 str0" d="M109.978 70.1675c-1.5818,-1.5068 -2.3368,-0.7377 -3.3662,-0.2997 -0.628,0.3605 -2.8633,0.0505 -3.5407,-0.4808 -0.3562,-0.2793 -0.7809,-0.9569 -1.1007,-1.1425 -0.2823,-0.1638 -0.5422,-0.0079 -0.7445,0.1417"/>
   <path id="_188343352_6_9" class="fil0 str0" d="M101.382 68.3211c-0.1337,0.1442 -0.7377,0.5907 -0.9401,0.7263 -0.9121,0.6113 -2.8646,0.4746 -3.7919,-0.3027 -1.0466,-0.8775 -1.4605,-1.1622 -2.0841,-0.8205 -0.4524,0.2478 -0.5246,0.7228 -1.5912,0.9653 -0.883,0.2007 -1.8015,0.1013 -2.6823,-0.4769 -0.9487,-0.623 -1.597,-1.8719 -2.5098,-0.9418 -0.6044,0.6157 -1.3082,0.8125 -2.2893,0.712 -1.0937,-0.1118 -1.4776,-0.0693 -2.3263,-0.8779 -1.5818,-1.5068 -1.5999,-0.3472 -2.6293,0.0907 -0.628,0.3605 -2.8633,0.0505 -3.5407,-0.4808 -0.3562,-0.2793 -0.7809,-0.9569 -1.1007,-1.1425 -0.2823,-0.1638 -0.5422,-0.0079 -0.7445,0.1417"/>
   <path id="_346964440_7_10" class="fil0 str0" d="M75.3087 65.8489c-0.1337,0.1443 -0.7377,0.5907 -0.9401,0.7263 -0.9121,0.6114 -2.8646,0.4746 -3.7919,-0.3027 -1.0466,-0.8775 -1.4605,-1.1621 -2.0841,-0.8205 -0.4524,0.2478 -0.5246,0.7228 -1.5913,0.9653 -0.883,0.2007 -1.8015,0.1014 -2.6823,-0.477 -0.9487,-0.6228 -1.597,-1.8717 -2.5098,-0.9418 -0.6044,0.6158 -1.3082,0.8125 -2.2894,0.7121 -1.0937,-0.1118 -1.4776,-0.0693 -2.3263,-0.8779 -1.5818,-1.5067 -1.5999,-0.3472 -2.6293,0.0907 -0.628,0.3605 -2.8633,0.0505 -3.5407,-0.4807 -0.3562,-0.2794 -0.7809,-0.9569 -1.1007,-1.1426 -0.2823,-0.1637 -0.5422,-0.0078 -0.7445,0.1417"/>
   <path id="_188342920_8" class="fil0 str0" d="M49.2347 63.3767c-0.1337,0.1442 -0.7377,0.5907 -0.9401,0.7263 -0.9121,0.6113 -2.8646,0.4746 -3.7919,-0.3027 -1.0466,-0.8775 -0.348,-1.0873 -0.9716,-0.7457 -0.4524,0.2479 -1.6371,0.6479 -2.7038,0.8905"/>
   <path id="_188343352_11_11" class="fil0 str0" d="M105.029 64.5215c-0.1337,0.1442 -0.7377,0.5906 -0.9401,0.7263 -0.9121,0.6113 -2.8646,0.4746 -3.7919,-0.3027 -1.0466,-0.8776 -1.4605,-1.1622 -2.0841,-0.8205 -0.4524,0.2478 -0.5246,0.7227 -1.5912,0.9652 -0.883,0.2008 -1.8015,0.1014 -2.6823,-0.4769 -0.9487,-0.6229 -1.597,-1.8717 -2.5098,-0.9418 -0.6044,0.6158 -1.3082,0.8125 -2.2894,0.7121 -1.0937,-0.1118 -1.4776,-0.0693 -2.3263,-0.8779 -1.5817,-1.5068 -1.5998,-0.3472 -2.6292,0.0907 -0.628,0.3605 -2.8633,0.0505 -3.5407,-0.4808 -0.3562,-0.2793 -0.7809,-0.9569 -1.1007,-1.1425 -0.2823,-0.1638 -0.5422,-0.0079 -0.7445,0.1417"/>
   <path id="_346964440_12_12" class="fil0 str0" d="M78.9557 62.0493c-0.1337,0.1443 -0.7377,0.5907 -0.9401,0.7263 -0.9121,0.6114 -2.8646,0.4746 -3.7919,-0.3027 -1.0466,-0.8775 -1.4605,-1.1622 -2.0841,-0.8205 -0.4524,0.2478 -0.5246,0.7228 -1.5913,0.9653 -0.883,0.2007 -1.8015,0.1014 -2.6823,-0.477 -0.9487,-0.6229 -1.597,-1.8717 -2.5098,-0.9418 -0.6044,0.6158 -1.3082,0.8125 -2.2894,0.7121 -1.0937,-0.1118 -1.4776,-0.0693 -2.3263,-0.8779 -1.5818,-1.5067 -1.5999,-0.3472 -2.6293,0.0907 -0.628,0.3605 -2.8633,0.0505 -3.5407,-0.4807 -0.3562,-0.2794 -0.7809,-0.9569 -1.1007,-1.1426 -0.2823,-0.1637 -0.5422,-0.0078 -0.7445,0.1417"/>
   <path id="_188343352_16_13" class="fil0 str0" d="M108.101 61.2667c-0.1337,0.1442 -0.1625,0.0458 -0.3649,0.1814 -0.9121,0.6114 -2.8646,0.4747 -3.7919,-0.3027 -1.0466,-0.8775 -1.4605,-1.1621 -2.0841,-0.8205 -0.4524,0.2479 -0.5246,0.7228 -1.5912,0.9653 -0.883,0.2008 -1.8015,0.1014 -2.6823,-0.4769 -0.9487,-0.6229 -1.597,-1.8718 -2.5098,-0.9418 -0.6044,0.6158 -1.3082,0.8125 -2.2894,0.7121 -1.0937,-0.1118 -1.4776,-0.0693 -2.3263,-0.8779 -1.5818,-1.5068 -1.5999,-0.3473 -2.6293,0.0907 -0.628,0.3605 -2.8632,0.0504 -3.5406,-0.4808 -0.3562,-0.2793 -0.7809,-0.9569 -1.1007,-1.1426 -0.2823,-0.1637 -0.5422,-0.0078 -0.7445,0.1418"/>
   <path id="_346964440_17_14" class="fil0 str0" d="M82.6027 58.2497c-0.1337,0.1442 -0.7377,0.5907 -0.9401,0.7263 -0.9121,0.6113 -2.8646,0.4746 -3.7919,-0.3027 -1.0466,-0.8775 -1.4605,-1.1622 -2.0841,-0.8205 -0.4524,0.2478 -0.5246,0.7227 -1.5913,0.9653 -0.883,0.2007 -1.8015,0.1014 -2.6823,-0.477 -0.9487,-0.6229 -1.597,-1.8718 -2.5098,-0.9418 -0.6044,0.6158 -1.3082,0.8125 -2.2894,0.7122 -1.0937,-0.1119 -1.4776,-0.0694 -2.3263,-0.878 -1.5818,-1.5067 -1.5999,-0.3472 -2.6293,0.0907 -0.628,0.3605 -1.8906,0.4642 -2.568,-0.067"/>
   <path id="_188343352_21_15" class="fil0 str0" d="M107.308 57.5075c-1.0466,-0.8774 -1.1778,-1.3238 -1.8014,-0.9822 -0.4524,0.2478 -0.5246,0.7228 -1.5912,0.9653 -0.883,0.2008 -1.8015,0.1014 -2.6823,-0.4769 -0.9487,-0.6229 -1.597,-1.8718 -2.5098,-0.9418 -0.6044,0.6158 -1.3082,0.8125 -2.2894,0.7121 -1.0937,-0.1118 -1.4776,-0.0693 -2.3263,-0.8779 -1.5818,-1.5068 -1.5999,-0.3473 -2.6293,0.0907 -0.628,0.3605 -2.8633,0.0504 -3.5407,-0.4808 -0.3562,-0.2793 -0.7809,-0.9569 -1.1007,-1.1426 -0.2823,-0.1637 -0.5422,-0.0078 -0.7445,0.1418"/>
   <path id="_346964440_22" class="fil0 str0" d="M86.2496 54.4501c-0.1337,0.1442 -0.7376,0.5906 -0.94,0.7263 -0.9121,0.6113 -2.8646,0.4746 -3.7919,-0.3027 -1.0466,-0.8775 -1.4605,-1.1622 -2.0841,-0.8205 -0.4524,0.2478 -0.5246,0.7227 -1.5913,0.9653 -0.883,0.2007 -1.8015,0.1014 -2.6823,-0.477 -0.9487,-0.6229 -1.597,-1.8718 -2.5098,-0.9418 -0.6044,0.6158 -1.3082,0.8125 -2.2894,0.7122 -1.0937,-0.1119 -0.6381,0.1686 -1.4868,-0.64"/>
   <path id="_188343352_26" class="fil0 str0" d="M106.571 54.0106c-0.883,0.2007 -1.1293,0.0097 -2.0101,-0.5685 -0.9487,-0.623 -1.597,-1.8719 -2.5098,-0.9419 -0.6044,0.6158 -1.3082,0.8125 -2.2894,0.7121 -1.0937,-0.1118 -1.4776,-0.0693 -2.3263,-0.8779 -1.5818,-1.5068 -1.5999,-0.3473 -2.6293,0.0907 -0.628,0.3605 -2.8633,0.0504 -3.5407,-0.4808 -0.3562,-0.2793 -0.7809,-0.9569 -1.1007,-1.1425 -0.2823,-0.1638 -0.5422,-0.0079 -0.7445,0.1417"/>
   <path id="_346964440_27" class="fil0 str0" d="M89.5766 50.8784c-0.1337,0.1442 -0.7377,0.5907 -0.9401,0.7263 -0.9121,0.6113 -2.8646,0.4746 -3.7918,-0.3028 -1.0466,-0.8775 -1.4605,-1.1621 -2.0841,-0.8204 -0.4524,0.2478 -0.5246,0.7227 -1.5913,0.9652 -0.883,0.2008 -2.7978,-0.3866 -3.6786,-0.9649"/>
   <path id="_188343352_31" class="fil0 str0" d="M105.481 48.8399c-0.6044,0.6158 -0.9122,0.4786 -1.8934,0.3783 -1.0937,-0.1119 -1.4776,-0.0694 -2.3263,-0.878 -1.5818,-1.5067 -1.5999,-0.3473 -2.6293,0.0907 -0.628,0.3605 -2.8633,0.0504 -3.5407,-0.4808 -0.3562,-0.2793 -0.7809,-0.9568 -1.1007,-1.1425 -0.2823,-0.1638 -0.5422,-0.0079 -0.7445,0.1417"/>
   <path id="_346964440_32" class="fil0 str0" d="M93.4016 46.8841c-0.1337,0.1442 -0.7377,0.5907 -0.9401,0.7263 -0.9121,0.6114 -2.8646,0.4747 -3.7919,-0.3027 -1.0466,-0.8775 -0.2099,-0.9978 -0.8335,-0.6561 -0.4524,0.2478 -1.7752,0.5584 -2.8418,0.8009"/>
   <path id="_188343352_36_16" class="fil0 str0" d="M104.834 44.5181c-1.5818,-1.5068 -1.5999,-0.3473 -2.6293,0.0907 -0.628,0.3605 -2.8633,0.0505 -3.5407,-0.4808 -0.3562,-0.2794 -0.7809,-0.9569 -1.1007,-1.1425 -0.2823,-0.1638 -0.5422,-0.0079 -0.7445,0.1417"/>
  </g>
 </g>
</svg>
