<?xml version="1.0" encoding="UTF-8"?>
<!DOCTYPE svg PUBLIC "-//W3C//DTD SVG 1.1//EN" "http://www.w3.org/Graphics/SVG/1.1/DTD/svg11.dtd">
<!-- Creator: CorelDRAW -->
<svg xmlns="http://www.w3.org/2000/svg" xml:space="preserve" width="210mm" height="297mm" style="shape-rendering:geometricPrecision; text-rendering:geometricPrecision; image-rendering:optimizeQuality; fill-rule:evenodd; clip-rule:evenodd"
viewBox="0 0 210 297"
 xmlns:xlink="http://www.w3.org/1999/xlink">
 <defs>
  <style type="text/css">
   <![CDATA[

   ]]>
  </style>
 </defs>
 <g id="layer_01">
  <metadata id="CorelCorpID_0Corel-Layer"/>
  <g id="_795907784">
   <g>
    <rect id="_795908744" class="fil0" x="185.636" y="21.8587" width="1.01697" height="20.3676"/>
    <rect id="_811952224" class="fil0" x="179.957" y="21.8587" width="1.01697" height="20.3676"/>
    <rect id="_811947832" class="fil0" x="174.28" y="21.8587" width="1.01697" height="20.3676"/>
    <rect id="_816164256" class="fil0" x="168.601" y="21.8587" width="1.01697" height="20.3676"/>
    <rect id="_816169104" class="fil0" x="191.315" y="21.8587" width="1.01697" height="20.3676"/>
    <rect id="_795894560" class="fil0" x="162.922" y="21.8587" width="1.01697" height="20.3676"/>
   </g>
   <rect id="_795900416" class="fil0" x="157.243" y="21.8587" width="1.01697" height="20.3676"/>
   <rect id="_811946248" class="fil0" x="151.565" y="21.8587" width="1.01697" height="20.3676"/>
   <rect id="_811945048" class="fil0" x="145.886" y="21.8587" width="1.01697" height="20.3676"/>
   <rect id="_811955800" class="fil0" x="140.208" y="21.8587" width="1.01697" height="20.3676"/>
   <rect id="_811954888" class="fil0" x="134.529" y="21.8587" width="1.01697" height="20.3676"/>
   <rect id="_811948288" class="fil0" x="128.851" y="21.8587" width="1.01697" height="20.3676"/>
   <rect id="_811950784" class="fil0" x="123.172" y="21.8587" width="1.01697" height="20.3676"/>
   <rect id="_811955896" class="fil0" x="117.493" y="21.8587" width="1.01697" height="20.3676"/>
   <rect id="_795893768" class="fil0" x="111.815" y="21.8587" width="1.01697" height="20.3676"/>
   <rect id="_795900872" class="fil0" x="106.137" y="21.8587" width="1.01697" height="20.3676"/>
   <rect id="_811957960" class="fil0" x="87.9727" y="21.8587" width="1.01697" height="20.3676"/>
   <rect id="_811957840" class="fil0" x="82.2941" y="21.8587" width="1.01697" height="20.3676"/>
   <rect id="_811959952" class="fil0" x="76.6156" y="21.8587" width="1.01697" height="20.3676"/>
   <rect id="_811958032" class="fil0" x="70.9373" y="21.8587" width="1.01697" height="20.3676"/>
   <rect id="_811953784" class="fil0" x="29.4257" y="42.2263" width="32.9986" height="3.0087"/>
   <rect id="_811944328" class="fil0" x="67.1355" y="42.2263" width="25.7881" height="3.0087"/>
   <path id="_795906896" class="fil0" d="M102.529 42.2262l23.0676 0 4.5123 3.0088 -27.5799 0 0 -3.0088zm28.1609 0l64.6045 0 0 3.0088 -60.0921 0 -4.5124 -3.0088z"/>
   <rect id="_811954768" class="fil0" x="63.1523" y="23.5817" width="3.25483" height="16.1735"/>
   <rect id="_811959064" class="fil0" x="62.4243" y="39.7558" width="4.71101" height="5.4792"/>
   <rect id="_811953928" class="fil0" x="62.4243" y="18.1026" width="4.71101" height="5.4792"/>
   <rect id="_811958152" class="fil0" x="93.6514" y="23.5817" width="3.25483" height="16.1735"/>
   <polygon id="_795893984" class="fil0" points="100.516,39.7551 98.3616,39.7551 98.3616,24.0667 100.516,25.5035 "/>
   <rect id="_811954552" class="fil0" x="92.9231" y="39.7558" width="4.71101" height="5.4792"/>
   <polygon id="_811955608" class="fil0" points="97.6336,39.7557 100.516,39.7557 100.516,45.235 97.6336,45.235 "/>
   <rect id="_811954480" class="fil0" x="92.9231" y="18.1026" width="4.71101" height="5.4792"/>
   <polygon id="_811948768" class="fil0" points="97.6336,18.1025 102.345,18.1025 102.345,23.3263 97.6343,20.1856 97.6336,23.5817 "/>
   <rect id="_811945024" class="fil0" x="196.021" y="23.5817" width="3.25483" height="16.1735"/>
   <rect id="_811945600" class="fil0" x="195.295" y="39.7558" width="4.71101" height="5.4792"/>
   <rect id="_811944424" class="fil0" x="195.295" y="18.1026" width="4.71101" height="5.4792"/>
   <rect id="_811949080" class="fil0" x="153.214" y="115.312" width="3.25483" height="16.1735"/>
   <rect id="_811948864" class="fil0" x="152.486" y="131.486" width="4.71101" height="5.4792"/>
   <rect id="_811949368" class="fil0" x="152.486" y="109.833" width="4.71101" height="5.4792"/>
   <polygon id="_795900056" class="fil0" points="164.762,94.1581 195.24,94.1581 195.24,100.274 164.762,100.274 "/>
   <polygon id="_795908432" class="fil0" points="164.762,100.274 195.24,100.274 195.24,106.389 164.762,106.389 "/>
   <polygon id="_795903920" class="fil0" points="164.762,106.389 195.24,106.389 195.24,112.505 164.762,112.505 "/>
   <polygon id="_795902432" class="fil0" points="164.762,112.504 195.24,112.504 195.24,118.62 164.762,118.62 "/>
   <polygon id="_795900536" class="fil0" points="164.762,118.62 195.24,118.62 195.24,124.735 164.762,124.735 "/>
   <polygon id="_795895640" class="fil0" points="164.762,124.735 195.24,124.735 195.24,130.85 164.762,130.85 "/>
   <rect id="_811958104" class="fil0" x="161.507" y="130.85" width="33.7324" height="6.1154"/>
   <rect id="_811949656" class="fil0" x="151.248" y="136.965" width="43.9919" height="6.1154"/>
   <rect id="_811958680" class="fil0" x="29.4258" y="18.9975" width="32.9986" height="2.8611"/>
   <rect id="_811957480" class="fil0" x="67.1355" y="18.9975" width="25.7881" height="2.8611"/>
   <rect id="_811952944" class="fil0" x="102.345" y="18.9975" width="92.9494" height="2.8611"/>
   <rect id="_811946776" class="fil0" x="160.779" y="62.2892" width="4.71101" height="5.4792"/>
   <path id="_795907544" class="fil0" d="M164.762 111.257l0 19.5923 -3.2548 0 0 -18.4776 1.8262 0c0.7859,0 1.4286,-0.5015 1.4286,-1.1147z"/>
   <polygon id="_811946104" class="fil0" points="101.616,26.237 160.779,65.6852 160.779,62.2891 102.345,23.3263 97.6343,20.1856 97.6336,23.5817 97.6343,23.5817 98.3616,24.0667 "/>
   <path id="_811952008" class="fil0" d="M164.762 109.833l0 -3.4439 0 -6.1153 0 -6.1154 0 -26.39 -3.2548 0 0 26.3901 0 13.1348 0 1.4249c0,0.6132 -0.6427,1.1148 -1.4286,1.1148l-2.8816 0 0 2.5396 4.3102 0 1.8262 0c0.7859,0 1.4286,-0.5016 1.4286,-1.1147l0 -1.4249z"/>
   <rect id="_811959448" class="fil0" x="62.4245" y="53.5834" width="4.71089" height="89.4975"/>
   <g>
    <rect id="_811944352" class="fil0" x="52.1399" y="21.8587" width="1.01697" height="20.3676"/>
    <rect id="_811955080" class="fil0" x="46.4615" y="21.8587" width="1.01697" height="20.3676"/>
    <rect id="_811959256" class="fil0" x="40.7831" y="21.8587" width="1.01697" height="20.3676"/>
    <rect id="_811955656" class="fil0" x="35.1043" y="21.8587" width="1.01697" height="20.3676"/>
    <rect id="_795898088" class="fil0" x="57.8187" y="21.8587" width="1.01697" height="20.3676"/>
    <rect id="_811944280" class="fil0" x="29.4258" y="21.8587" width="1.01697" height="20.3676"/>
   </g>
   <polygon id="_795893432" class="fil0" points="97.1542,51.3504 97.1542,45.235 92.9234,45.235 67.1352,45.235 62.4243,45.235 62.4243,53.5833 67.1352,53.5833 89.4575,53.5833 161.507,101.624 161.507,94.1587 158.311,94.1587 158.311,88.043 149.574,88.043 149.574,81.9273 140.837,81.9273 140.837,75.8122 132.101,75.8122 132.101,69.6967 123.364,69.6967 123.364,63.5813 114.628,63.5813 114.628,57.4658 105.891,57.4658 105.891,51.3504 "/>
   <g>
    <polygon id="_811960120" class="fil0" points="100.516,45.235 97.6343,45.235 97.1542,45.235 97.1542,51.3504 105.891,51.3504 105.891,57.4658 114.628,57.4658 114.628,63.5813 123.364,63.5813 123.364,69.6967 132.101,69.6967 132.101,75.8122 140.837,75.8122 140.837,81.9273 149.574,81.9273 149.574,88.043 158.311,88.043 158.311,94.1587 161.507,94.1587 161.507,84.56 102.529,45.235 "/>
    <polygon id="_795899768" class="fil0" points="164.762,90.2363 164.762,94.1587 195.24,94.1587 195.24,90.2363 170.02,90.2363 164.762,86.7306 "/>
   </g>
   <g>
    <polygon id="_795907088" class="fil0" points="100.516,51.3504 102.529,51.3504 102.529,26.8453 101.616,26.237 100.516,25.5035 "/>
    <polygon id="_811949272" class="fil0" points="109.253,57.4658 111.266,57.4658 111.266,32.6706 109.253,31.3289 "/>
    <polygon id="_811957024" class="fil0" points="117.991,63.5813 120.001,63.5813 120.001,38.496 117.991,37.1543 "/>
    <polygon id="_811947496" class="fil0" points="126.726,69.6967 128.738,69.6967 128.738,44.3216 126.726,42.9797 "/>
    <polygon id="_811958320" class="fil0" points="135.463,75.8122 137.475,75.8122 137.475,50.1469 135.463,48.8052 "/>
    <polygon id="_811956184" class="fil0" points="144.2,81.9273 146.212,81.9273 146.212,55.9722 144.2,54.6306 "/>
    <polygon id="_811956112" class="fil0" points="153.052,88.043 154.949,88.043 154.949,61.7978 153.052,60.5332 "/>
   </g>
   <path id="_811950208" class="fil0" d="M64.7797 15.0403l0 0c0.8952,0 1.6276,0.5714 1.6276,1.2697l0 1.7925 -3.255 0 0 -1.7925c0,-0.6983 0.7323,-1.2697 1.6274,-1.2697z"/>
   <path id="_811952056" class="fil0" d="M95.2786 15.0403l0 0c0.8954,0 1.6276,0.5714 1.6276,1.2697l0 1.7925 -3.2548 0 0 -1.7925c0,-0.6983 0.7323,-1.2697 1.6272,-1.2697z"/>
   <path id="_811953304" class="fil0" d="M99.989 15.0403l0 0c0.8952,0 1.6274,0.5714 1.6274,1.2697l0 1.7925 -3.2548 0 0 -1.7925c0,-0.6983 0.7323,-1.2697 1.6274,-1.2697z"/>
   <path id="_811949104" class="fil0" d="M197.65 15.0403l0 0c0.8952,0 1.6276,0.5714 1.6276,1.2697l0 1.7925 -3.2549 0 0 -1.7925c0,-0.6983 0.7322,-1.2697 1.6273,-1.2697z"/>
   <path id="_811953184" class="fil0" d="M163.135 59.2269l0 0c0.8953,0 1.6275,0.5714 1.6275,1.2698l0 1.7924 -3.2548 0 0 -1.7924c0,-0.6984 0.7323,-1.2698 1.6273,-1.2698z"/>
   <path id="_811955968" class="fil0" d="M154.841 106.771l0 0c0.8954,0 1.6277,0.5714 1.6277,1.2697l0 1.7925 -3.255 0 0 -1.7925c0,-0.6983 0.7324,-1.2697 1.6273,-1.2697z"/>
  </g>
 </g>
</svg>
