<?xml version="1.0" encoding="UTF-8"?>
<!DOCTYPE svg PUBLIC "-//W3C//DTD SVG 1.1//EN" "http://www.w3.org/Graphics/SVG/1.1/DTD/svg11.dtd">
<!-- Creator: CorelDRAW -->
<svg xmlns="http://www.w3.org/2000/svg" xml:space="preserve" width="210mm" height="297mm" style="shape-rendering:geometricPrecision; text-rendering:geometricPrecision; image-rendering:optimizeQuality; fill-rule:evenodd; clip-rule:evenodd"
viewBox="0 0 210 297"
 xmlns:xlink="http://www.w3.org/1999/xlink">
 <defs>
  <style type="text/css">
   <![CDATA[

   ]]>
  </style>
 </defs>
 <g id="layer_01">
  <metadata id="CorelCorpID_0Corel-Layer"/>
  <g id="_795907784">
   <g>
    <rect id="_795908744" class="fil0" x="185.636" y="23.482" width="1.01697" height="25.2166"/>
    <rect id="_811952224" class="fil0" x="179.957" y="23.482" width="1.01697" height="25.2166"/>
    <rect id="_811947832" class="fil0" x="174.28" y="23.482" width="1.01697" height="25.2166"/>
    <rect id="_816164256" class="fil0" x="168.601" y="23.482" width="1.01697" height="25.2166"/>
    <rect id="_816169104" class="fil0" x="191.315" y="23.482" width="1.01697" height="25.2166"/>
    <rect id="_795894560" class="fil0" x="162.922" y="23.482" width="1.01697" height="25.2166"/>
   </g>
   <rect id="_795900416" class="fil0" x="157.243" y="23.482" width="1.01697" height="25.2166"/>
   <rect id="_811946248" class="fil0" x="151.565" y="23.482" width="1.01697" height="25.2166"/>
   <rect id="_811945048" class="fil0" x="145.886" y="23.482" width="1.01697" height="25.2166"/>
   <rect id="_811955800" class="fil0" x="140.208" y="23.482" width="1.01697" height="25.2166"/>
   <rect id="_811954888" class="fil0" x="134.529" y="23.482" width="1.01697" height="25.2166"/>
   <rect id="_811948288" class="fil0" x="128.851" y="23.482" width="1.01697" height="25.2166"/>
   <rect id="_811950784" class="fil0" x="123.172" y="23.482" width="1.01697" height="25.2166"/>
   <rect id="_811955896" class="fil0" x="117.493" y="23.482" width="1.01697" height="25.2166"/>
   <rect id="_795893768" class="fil0" x="111.815" y="23.482" width="1.01697" height="25.2166"/>
   <rect id="_795900872" class="fil0" x="106.137" y="23.482" width="1.01697" height="25.2166"/>
   <rect id="_811957960" class="fil0" x="87.9727" y="23.482" width="1.01697" height="25.2166"/>
   <rect id="_811957840" class="fil0" x="82.2941" y="23.482" width="1.01697" height="25.2166"/>
   <rect id="_811959952" class="fil0" x="76.6156" y="23.482" width="1.01697" height="25.2166"/>
   <rect id="_811958032" class="fil0" x="70.9373" y="23.482" width="1.01697" height="25.2166"/>
   <rect id="_811953784" class="fil0" x="29.4257" y="48.6986" width="32.9986" height="3.72499"/>
   <rect id="_811944328" class="fil0" x="67.1355" y="48.6986" width="25.7881" height="3.72499"/>
   <path id="_795906896" class="fil0" d="M102.529 48.6984l23.0676 0 4.5123 3.7251 -27.5799 0 0 -3.7251zm28.1609 0l64.6045 0 0 3.7251 -60.0921 0 -4.5124 -3.7251z"/>
   <rect id="_811954768" class="fil0" x="63.1523" y="25.6152" width="3.25483" height="20.024"/>
   <rect id="_811959064" class="fil0" x="62.4243" y="45.6399" width="4.71101" height="6.78365"/>
   <rect id="_811953928" class="fil0" x="62.4243" y="18.8317" width="4.71101" height="6.78365"/>
   <rect id="_811958152" class="fil0" x="93.6514" y="25.6152" width="3.25483" height="20.024"/>
   <polygon id="_795893984" class="fil0" points="100.516,45.639 98.3616,45.639 98.3616,26.2156 100.516,27.9945 "/>
   <rect id="_811954552" class="fil0" x="92.9231" y="45.6399" width="4.71101" height="6.78365"/>
   <polygon id="_811955608" class="fil0" points="97.6336,45.6398 100.516,45.6398 100.516,52.4235 97.6336,52.4235 "/>
   <rect id="_811954480" class="fil0" x="92.9231" y="18.8317" width="4.71101" height="6.78365"/>
   <polygon id="_811948768" class="fil0" points="97.6336,18.8315 102.345,18.8315 102.345,25.299 97.6343,21.4106 97.6336,25.6152 "/>
   <rect id="_811945024" class="fil0" x="196.021" y="25.6152" width="3.25483" height="20.024"/>
   <rect id="_811945600" class="fil0" x="195.295" y="45.6399" width="4.71101" height="6.78365"/>
   <rect id="_811944424" class="fil0" x="195.295" y="18.8317" width="4.71101" height="6.78365"/>
   <rect id="_811949080" class="fil0" x="153.214" y="139.184" width="3.25483" height="20.024"/>
   <rect id="_811948864" class="fil0" x="152.486" y="159.209" width="4.71101" height="6.78365"/>
   <rect id="_811949368" class="fil0" x="152.486" y="132.401" width="4.71101" height="6.78365"/>
   <polygon id="_795900056" class="fil0" points="164.762,112.994 195.24,112.994 195.24,120.566 164.762,120.566 "/>
   <polygon id="_795908432" class="fil0" points="164.762,120.566 195.24,120.566 195.24,128.137 164.762,128.137 "/>
   <polygon id="_795903920" class="fil0" points="164.762,128.137 195.24,128.137 195.24,135.709 164.762,135.709 "/>
   <polygon id="_795902432" class="fil0" points="164.762,135.708 195.24,135.708 195.24,143.28 164.762,143.28 "/>
   <polygon id="_795900536" class="fil0" points="164.762,143.28 195.24,143.28 195.24,150.85 164.762,150.85 "/>
   <polygon id="_795895640" class="fil0" points="164.762,150.85 195.24,150.85 195.24,158.421 164.762,158.421 "/>
   <rect id="_811958104" class="fil0" x="161.507" y="158.421" width="33.7324" height="7.57131"/>
   <rect id="_811949656" class="fil0" x="151.248" y="165.992" width="43.9919" height="7.57131"/>
   <rect id="_811958680" class="fil0" x="29.4258" y="19.9396" width="32.9986" height="3.54225"/>
   <rect id="_811957480" class="fil0" x="67.1355" y="19.9396" width="25.7881" height="3.54225"/>
   <rect id="_811952944" class="fil0" x="102.345" y="19.9396" width="92.9494" height="3.54225"/>
   <rect id="_811946776" class="fil0" x="160.779" y="73.5379" width="4.71101" height="6.78365"/>
   <path id="_795907544" class="fil0" d="M164.762 134.164l0 24.2567 -3.2548 0 0 -22.8766 1.8262 0c0.7859,0 1.4286,-0.6209 1.4286,-1.3801z"/>
   <polygon id="_811946104" class="fil0" points="101.616,28.9026 160.779,77.7424 160.779,73.5378 102.345,25.299 97.6343,21.4106 97.6336,25.6152 97.6343,25.6152 98.3616,26.2156 "/>
   <path id="_811952008" class="fil0" d="M164.762 132.401l0 -4.2638 0 -7.5712 0 -7.5713 0 -32.6728 -3.2548 0 0 32.6729 0 16.2619 0 1.7641c0,0.7592 -0.6427,1.3802 -1.4286,1.3802l-2.8816 0 0 3.1442 4.3102 0 1.8262 0c0.7859,0 1.4286,-0.621 1.4286,-1.3801l0 -1.7641z"/>
   <rect id="_811959448" class="fil0" x="62.4245" y="62.7595" width="4.71089" height="110.804"/>
   <g>
    <rect id="_811944352" class="fil0" x="52.1399" y="23.482" width="1.01697" height="25.2166"/>
    <rect id="_811955080" class="fil0" x="46.4615" y="23.482" width="1.01697" height="25.2166"/>
    <rect id="_811959256" class="fil0" x="40.7831" y="23.482" width="1.01697" height="25.2166"/>
    <rect id="_811955656" class="fil0" x="35.1043" y="23.482" width="1.01697" height="25.2166"/>
    <rect id="_795898088" class="fil0" x="57.8187" y="23.482" width="1.01697" height="25.2166"/>
    <rect id="_811944280" class="fil0" x="29.4258" y="23.482" width="1.01697" height="25.2166"/>
   </g>
   <polygon id="_795893432" class="fil0" points="97.1542,59.9949 97.1542,52.4235 92.9234,52.4235 67.1352,52.4235 62.4243,52.4235 62.4243,62.7594 67.1352,62.7594 89.4575,62.7594 161.507,122.237 161.507,112.995 158.311,112.995 158.311,105.423 149.574,105.423 149.574,97.8513 140.837,97.8513 140.837,90.2804 132.101,90.2804 132.101,82.7089 123.364,82.7089 123.364,75.1376 114.628,75.1376 114.628,67.5662 105.891,67.5662 105.891,59.9949 "/>
   <g>
    <polygon id="_811960120" class="fil0" points="100.516,52.4235 97.6343,52.4235 97.1542,52.4235 97.1542,59.9949 105.891,59.9949 105.891,67.5662 114.628,67.5662 114.628,75.1376 123.364,75.1376 123.364,82.7089 132.101,82.7089 132.101,90.2804 140.837,90.2804 140.837,97.8513 149.574,97.8513 149.574,105.423 158.311,105.423 158.311,112.995 161.507,112.995 161.507,101.111 102.529,52.4235 "/>
    <polygon id="_795899768" class="fil0" points="164.762,108.138 164.762,112.995 195.24,112.995 195.24,108.138 170.02,108.138 164.762,103.798 "/>
   </g>
   <g>
    <polygon id="_795907088" class="fil0" points="100.516,59.9949 102.529,59.9949 102.529,29.6558 101.616,28.9026 100.516,27.9945 "/>
    <polygon id="_811949272" class="fil0" points="109.253,67.5662 111.266,67.5662 111.266,36.8679 109.253,35.2068 "/>
    <polygon id="_811957024" class="fil0" points="117.991,75.1376 120.001,75.1376 120.001,44.0802 117.991,42.419 "/>
    <polygon id="_811947496" class="fil0" points="126.726,82.7089 128.738,82.7089 128.738,51.2927 126.726,49.6313 "/>
    <polygon id="_811958320" class="fil0" points="135.463,90.2804 137.475,90.2804 137.475,58.5048 135.463,56.8437 "/>
    <polygon id="_811956184" class="fil0" points="144.2,97.8513 146.212,97.8513 146.212,65.717 144.2,64.056 "/>
    <polygon id="_811956112" class="fil0" points="153.052,105.423 154.949,105.423 154.949,72.9295 153.052,71.3638 "/>
   </g>
   <path id="_811950208" class="fil0" d="M64.7797 15.0403l0 0c0.8952,0 1.6276,0.7074 1.6276,1.572l0 2.2192 -3.255 0 0 -2.2192c0,-0.8646 0.7323,-1.572 1.6274,-1.572z"/>
   <path id="_811952056" class="fil0" d="M95.2786 15.0403l0 0c0.8954,0 1.6276,0.7074 1.6276,1.572l0 2.2192 -3.2548 0 0 -2.2192c0,-0.8646 0.7323,-1.572 1.6272,-1.572z"/>
   <path id="_811953304" class="fil0" d="M99.989 15.0403l0 0c0.8952,0 1.6274,0.7074 1.6274,1.572l0 2.2192 -3.2548 0 0 -2.2192c0,-0.8646 0.7323,-1.572 1.6274,-1.572z"/>
   <path id="_811949104" class="fil0" d="M197.65 15.0403l0 0c0.8952,0 1.6276,0.7074 1.6276,1.572l0 2.2192 -3.2549 0 0 -2.2192c0,-0.8646 0.7322,-1.572 1.6273,-1.572z"/>
   <path id="_811953184" class="fil0" d="M163.135 69.7465l0 0c0.8953,0 1.6275,0.7075 1.6275,1.5721l0 2.2192 -3.2548 0 0 -2.2192c0,-0.8646 0.7323,-1.5721 1.6273,-1.5721z"/>
   <path id="_811955968" class="fil0" d="M154.841 128.61l0 0c0.8954,0 1.6277,0.7075 1.6277,1.572l0 2.2192 -3.255 0 0 -2.2192c0,-0.8645 0.7324,-1.572 1.6273,-1.572z"/>
  </g>
 </g>
</svg>
