<?xml version="1.0" encoding="UTF-8"?>
<!DOCTYPE svg PUBLIC "-//W3C//DTD SVG 1.1//EN" "http://www.w3.org/Graphics/SVG/1.1/DTD/svg11.dtd">
<!-- Creator: CorelDRAW -->
<svg xmlns="http://www.w3.org/2000/svg" xml:space="preserve" width="210mm" height="297mm" style="shape-rendering:geometricPrecision; text-rendering:geometricPrecision; image-rendering:optimizeQuality; fill-rule:evenodd; clip-rule:evenodd"
viewBox="0 0 210 297"
 xmlns:xlink="http://www.w3.org/1999/xlink">
 <defs>
  <style type="text/css">
   <![CDATA[

   ]]>
  </style>
 </defs>
 <g id="layer_01">
  <metadata id="CorelCorpID_0Corel-Layer"/>
  <g id="_795907784">
   <g>
    <rect id="_795908744" class="fil0" x="167.705" y="21.8587" width="0.883701" height="20.3676"/>
    <rect id="_811952224" class="fil0" x="162.771" y="21.8587" width="0.883701" height="20.3676"/>
    <rect id="_811947832" class="fil0" x="157.837" y="21.8587" width="0.883701" height="20.3676"/>
    <rect id="_816164256" class="fil0" x="152.902" y="21.8587" width="0.883701" height="20.3676"/>
    <rect id="_816169104" class="fil0" x="172.64" y="21.8587" width="0.883701" height="20.3676"/>
    <rect id="_795894560" class="fil0" x="147.967" y="21.8587" width="0.883701" height="20.3676"/>
   </g>
   <rect id="_795900416" class="fil0" x="143.033" y="21.8587" width="0.883701" height="20.3676"/>
   <rect id="_811946248" class="fil0" x="138.099" y="21.8587" width="0.883701" height="20.3676"/>
   <rect id="_811945048" class="fil0" x="133.165" y="21.8587" width="0.883701" height="20.3676"/>
   <rect id="_811955800" class="fil0" x="128.23" y="21.8587" width="0.883701" height="20.3676"/>
   <rect id="_811954888" class="fil0" x="123.295" y="21.8587" width="0.883701" height="20.3676"/>
   <rect id="_811948288" class="fil0" x="118.362" y="21.8587" width="0.883701" height="20.3676"/>
   <rect id="_811950784" class="fil0" x="113.427" y="21.8587" width="0.883701" height="20.3676"/>
   <rect id="_811955896" class="fil0" x="108.492" y="21.8587" width="0.883701" height="20.3676"/>
   <rect id="_795893768" class="fil0" x="103.558" y="21.8587" width="0.883701" height="20.3676"/>
   <rect id="_795900872" class="fil0" x="98.6239" y="21.8587" width="0.883701" height="20.3676"/>
   <rect id="_811957960" class="fil0" x="82.8402" y="21.8587" width="0.883701" height="20.3676"/>
   <rect id="_811957840" class="fil0" x="77.9058" y="21.8587" width="0.883701" height="20.3676"/>
   <rect id="_811959952" class="fil0" x="72.9714" y="21.8587" width="0.883701" height="20.3676"/>
   <rect id="_811958032" class="fil0" x="68.0373" y="21.8587" width="0.883701" height="20.3676"/>
   <rect id="_811953784" class="fil0" x="31.9657" y="42.2263" width="28.6742" height="3.0087"/>
   <rect id="_811944328" class="fil0" x="64.7337" y="42.2263" width="22.4086" height="3.0087"/>
   <path id="_795906896" class="fil0" d="M95.4888 42.2262l20.0446 0 3.921 3.0088 -23.9656 0 0 -3.0088zm24.4704 0l56.1382 0 0 3.0088 -52.2172 0 -3.921 -3.0088z"/>
   <rect id="_811954768" class="fil0" x="61.2725" y="23.5817" width="2.82829" height="16.1735"/>
   <rect id="_811959064" class="fil0" x="60.6399" y="39.7558" width="4.09364" height="5.4792"/>
   <rect id="_811953928" class="fil0" x="60.6399" y="18.1026" width="4.09364" height="5.4792"/>
   <rect id="_811958152" class="fil0" x="87.7747" y="23.5817" width="2.82829" height="16.1735"/>
   <polygon id="_795893984" class="fil0" points="93.7402,39.7551 91.8677,39.7551 91.8677,24.0667 93.7402,25.5035 "/>
   <rect id="_811954552" class="fil0" x="87.1419" y="39.7558" width="4.09364" height="5.4792"/>
   <polygon id="_811955608" class="fil0" points="91.2351,39.7557 93.7402,39.7557 93.7402,45.235 91.2351,45.235 "/>
   <rect id="_811954480" class="fil0" x="87.1419" y="18.1026" width="4.09364" height="5.4792"/>
   <polygon id="_811948768" class="fil0" points="91.2351,18.1025 95.3286,18.1025 95.3286,23.3263 91.2357,20.1856 91.2351,23.5817 "/>
   <rect id="_811945024" class="fil0" x="176.729" y="23.5817" width="2.82829" height="16.1735"/>
   <rect id="_811945600" class="fil0" x="176.098" y="39.7558" width="4.09364" height="5.4792"/>
   <rect id="_811944424" class="fil0" x="176.098" y="18.1026" width="4.09364" height="5.4792"/>
   <rect id="_811949080" class="fil0" x="139.531" y="115.312" width="2.82829" height="16.1735"/>
   <rect id="_811948864" class="fil0" x="138.899" y="131.486" width="4.09364" height="5.4792"/>
   <rect id="_811949368" class="fil0" x="138.899" y="109.833" width="4.09364" height="5.4792"/>
   <polygon id="_795900056" class="fil0" points="149.567,94.1581 176.05,94.1581 176.05,100.274 149.567,100.274 "/>
   <polygon id="_795908432" class="fil0" points="149.567,100.274 176.05,100.274 176.05,106.389 149.567,106.389 "/>
   <polygon id="_795903920" class="fil0" points="149.567,106.389 176.05,106.389 176.05,112.505 149.567,112.505 "/>
   <polygon id="_795902432" class="fil0" points="149.567,112.504 176.05,112.504 176.05,118.62 149.567,118.62 "/>
   <polygon id="_795900536" class="fil0" points="149.567,118.62 176.05,118.62 176.05,124.735 149.567,124.735 "/>
   <polygon id="_795895640" class="fil0" points="149.567,124.735 176.05,124.735 176.05,130.85 149.567,130.85 "/>
   <rect id="_811958104" class="fil0" x="146.738" y="130.85" width="29.3118" height="6.1154"/>
   <rect id="_811949656" class="fil0" x="137.823" y="136.965" width="38.2269" height="6.1154"/>
   <rect id="_811958680" class="fil0" x="31.9658" y="18.9975" width="28.6742" height="2.8611"/>
   <rect id="_811957480" class="fil0" x="64.7337" y="18.9975" width="22.4086" height="2.8611"/>
   <rect id="_811952944" class="fil0" x="95.3286" y="18.9975" width="80.7686" height="2.8611"/>
   <rect id="_811946776" class="fil0" x="146.105" y="62.2892" width="4.09364" height="5.4792"/>
   <path id="_795907544" class="fil0" d="M149.567 111.257l0 19.5923 -2.8283 0 0 -18.4776 1.5869 0c0.6829,0 1.2414,-0.5015 1.2414,-1.1147z"/>
   <polygon id="_811946104" class="fil0" points="94.696,26.237 146.105,65.6852 146.105,62.2891 95.3286,23.3263 91.2357,20.1856 91.2351,23.5817 91.2357,23.5817 91.8677,24.0667 "/>
   <path id="_811952008" class="fil0" d="M149.567 109.833l0 -3.4439 0 -6.1153 0 -6.1154 0 -26.39 -2.8283 0 0 26.3901 0 13.1348 0 1.4249c0,0.6132 -0.5585,1.1148 -1.2414,1.1148l-2.504 0 0 2.5396 3.7454 0 1.5869 0c0.6829,0 1.2414,-0.5016 1.2414,-1.1147l0 -1.4249z"/>
   <rect id="_811959448" class="fil0" x="60.64" y="53.5834" width="4.09353" height="89.4975"/>
   <g>
    <rect id="_811944352" class="fil0" x="51.7032" y="21.8587" width="0.883701" height="20.3676"/>
    <rect id="_811955080" class="fil0" x="46.769" y="21.8587" width="0.883701" height="20.3676"/>
    <rect id="_811959256" class="fil0" x="41.8347" y="21.8587" width="0.883701" height="20.3676"/>
    <rect id="_811955656" class="fil0" x="36.9002" y="21.8587" width="0.883701" height="20.3676"/>
    <rect id="_795898088" class="fil0" x="56.6378" y="21.8587" width="0.883701" height="20.3676"/>
    <rect id="_811944280" class="fil0" x="31.9658" y="21.8587" width="0.883701" height="20.3676"/>
   </g>
   <polygon id="_795893432" class="fil0" points="90.8185,51.3504 90.8185,45.235 87.1421,45.235 64.7334,45.235 60.6399,45.235 60.6399,53.5833 64.7334,53.5833 84.1304,53.5833 146.738,101.624 146.738,94.1587 143.961,94.1587 143.961,88.043 136.369,88.043 136.369,81.9273 128.777,81.9273 128.777,75.8122 121.186,75.8122 121.186,69.6967 113.594,69.6967 113.594,63.5813 106.002,63.5813 106.002,57.4658 98.4103,57.4658 98.4103,51.3504 "/>
   <g>
    <polygon id="_811960120" class="fil0" points="93.7402,45.235 91.2357,45.235 90.8185,45.235 90.8185,51.3504 98.4103,51.3504 98.4103,57.4658 106.002,57.4658 106.002,63.5813 113.594,63.5813 113.594,69.6967 121.186,69.6967 121.186,75.8122 128.777,75.8122 128.777,81.9273 136.369,81.9273 136.369,88.043 143.961,88.043 143.961,94.1587 146.738,94.1587 146.738,84.56 95.4888,45.235 "/>
    <polygon id="_795899768" class="fil0" points="149.567,90.2363 149.567,94.1587 176.05,94.1587 176.05,90.2363 154.135,90.2363 149.567,86.7306 "/>
   </g>
   <g>
    <polygon id="_795907088" class="fil0" points="93.7402,51.3504 95.4888,51.3504 95.4888,26.8453 94.696,26.237 93.7402,25.5035 "/>
    <polygon id="_811949272" class="fil0" points="101.332,57.4658 103.081,57.4658 103.081,32.6706 101.332,31.3289 "/>
    <polygon id="_811957024" class="fil0" points="108.924,63.5813 110.672,63.5813 110.672,38.496 108.924,37.1543 "/>
    <polygon id="_811947496" class="fil0" points="116.515,69.6967 118.263,69.6967 118.263,44.3216 116.515,42.9797 "/>
    <polygon id="_811958320" class="fil0" points="124.107,75.8122 125.856,75.8122 125.856,50.1469 124.107,48.8052 "/>
    <polygon id="_811956184" class="fil0" points="131.699,81.9273 133.447,81.9273 133.447,55.9722 131.699,54.6306 "/>
    <polygon id="_811956112" class="fil0" points="139.391,88.043 141.039,88.043 141.039,61.7978 139.391,60.5332 "/>
   </g>
   <path id="_811950208" class="fil0" d="M62.6866 15.0403l0 0c0.7779,0 1.4143,0.5714 1.4143,1.2697l0 1.7925 -2.8284 0 0 -1.7925c0,-0.6983 0.6363,-1.2697 1.4141,-1.2697z"/>
   <path id="_811952056" class="fil0" d="M89.1887 15.0403l0 0c0.778,0 1.4143,0.5714 1.4143,1.2697l0 1.7925 -2.8283 0 0 -1.7925c0,-0.6983 0.6364,-1.2697 1.414,-1.2697z"/>
   <path id="_811953304" class="fil0" d="M93.2818 15.0403l0 0c0.7779,0 1.4142,0.5714 1.4142,1.2697l0 1.7925 -2.8283 0 0 -1.7925c0,-0.6983 0.6363,-1.2697 1.4141,-1.2697z"/>
   <path id="_811949104" class="fil0" d="M178.145 15.0403l0 0c0.7779,0 1.4142,0.5714 1.4142,1.2697l0 1.7925 -2.8282 0 0 -1.7925c0,-0.6983 0.6362,-1.2697 1.414,-1.2697z"/>
   <path id="_811953184" class="fil0" d="M148.152 59.2269l0 0c0.778,0 1.4143,0.5714 1.4143,1.2698l0 1.7924 -2.8283 0 0 -1.7924c0,-0.6984 0.6364,-1.2698 1.414,-1.2698z"/>
   <path id="_811955968" class="fil0" d="M140.946 106.771l0 0c0.7781,0 1.4144,0.5714 1.4144,1.2697l0 1.7925 -2.8284 0 0 -1.7925c0,-0.6983 0.6364,-1.2697 1.414,-1.2697z"/>
  </g>
 </g>
</svg>
