<?xml version="1.0" encoding="UTF-8"?>
<!DOCTYPE svg PUBLIC "-//W3C//DTD SVG 1.1//EN" "http://www.w3.org/Graphics/SVG/1.1/DTD/svg11.dtd">
<!-- Creator: CorelDRAW -->
<svg xmlns="http://www.w3.org/2000/svg" xml:space="preserve" width="210mm" height="297mm" style="shape-rendering:geometricPrecision; text-rendering:geometricPrecision; image-rendering:optimizeQuality; fill-rule:evenodd; clip-rule:evenodd"
viewBox="0 0 210 297"
 xmlns:xlink="http://www.w3.org/1999/xlink">
 <defs>
  <style type="text/css">
   <![CDATA[
   ]]>
  </style>
 </defs>
 <g id="layer_01">
  <metadata id="CorelCorpID_0Corel-Layer"/>
  <g id="_795907784">
   <g>
    <rect id="_795908744" class="fil0" x="153.85" y="21.8587" width="0.7935" height="20.3676"/>
    <rect id="_811952224" class="fil0" x="149.419" y="21.8587" width="0.7935" height="20.3676"/>
    <rect id="_811947832" class="fil0" x="144.989" y="21.8587" width="0.7935" height="20.3676"/>
    <rect id="_816164256" class="fil0" x="140.558" y="21.8587" width="0.7935" height="20.3676"/>
    <rect id="_816169104" class="fil0" x="158.281" y="21.8587" width="0.7935" height="20.3676"/>
    <rect id="_795894560" class="fil0" x="136.127" y="21.8587" width="0.7935" height="20.3676"/>
   </g>
   <rect id="_795900416" class="fil0" x="131.696" y="21.8587" width="0.7935" height="20.3676"/>
   <rect id="_811946248" class="fil0" x="127.266" y="21.8587" width="0.7935" height="20.3676"/>
   <rect id="_811945048" class="fil0" x="122.835" y="21.8587" width="0.7935" height="20.3676"/>
   <rect id="_811955800" class="fil0" x="118.404" y="21.8587" width="0.7935" height="20.3676"/>
   <rect id="_811954888" class="fil0" x="113.973" y="21.8587" width="0.7935" height="20.3676"/>
   <rect id="_811948288" class="fil0" x="109.543" y="21.8587" width="0.7935" height="20.3676"/>
   <rect id="_811950784" class="fil0" x="105.112" y="21.8587" width="0.7935" height="20.3676"/>
   <rect id="_811955896" class="fil0" x="100.681" y="21.8587" width="0.7935" height="20.3676"/>
   <rect id="_795893768" class="fil0" x="96.2507" y="21.8587" width="0.7935" height="20.3676"/>
   <rect id="_795900872" class="fil0" x="91.8199" y="21.8587" width="0.7935" height="20.3676"/>
   <rect id="_811957960" class="fil0" x="77.6474" y="21.8587" width="0.7935" height="20.3676"/>
   <rect id="_811957840" class="fil0" x="73.2166" y="21.8587" width="0.7935" height="20.3676"/>
   <rect id="_811959952" class="fil0" x="68.7859" y="21.8587" width="0.7935" height="20.3676"/>
   <rect id="_811958032" class="fil0" x="64.3553" y="21.8587" width="0.7935" height="20.3676"/>
   <rect id="_811953784" class="fil0" x="31.9657" y="42.2263" width="25.7474" height="3.0087"/>
   <rect id="_811944328" class="fil0" x="61.3889" y="42.2263" width="20.1213" height="3.0087"/>
   <path id="_795906896" class="fil0" d="M89.0049 42.2262l17.9986 0 3.5208 3.0088 -21.5194 0 0 -3.0088zm21.9727 0l50.4081 0 0 3.0088 -46.8873 0 -3.5208 -3.0088z"/>
   <rect id="_811954768" class="fil0" x="58.2811" y="23.5817" width="2.5396" height="16.1735"/>
   <rect id="_811959064" class="fil0" x="57.7131" y="39.7558" width="3.6758" height="5.4792"/>
   <rect id="_811953928" class="fil0" x="57.7131" y="18.1026" width="3.6758" height="5.4792"/>
   <rect id="_811958152" class="fil0" x="82.0782" y="23.5817" width="2.5396" height="16.1735"/>
   <polygon id="_795893984" class="fil0" points="87.4348,39.7551 85.7534,39.7551 85.7534,24.0667 87.4348,25.5035 "/>
   <rect id="_811954552" class="fil0" x="81.51" y="39.7558" width="3.6758" height="5.4792"/>
   <polygon id="_811955608" class="fil0" points="85.1854,39.7557 87.4348,39.7557 87.4348,45.235 85.1854,45.235 "/>
   <rect id="_811954480" class="fil0" x="81.51" y="18.1026" width="3.6758" height="5.4792"/>
   <polygon id="_811948768" class="fil0" points="85.1854,18.1025 88.8611,18.1025 88.8611,23.3263 85.1859,20.1856 85.1854,23.5817 "/>
   <rect id="_811945024" class="fil0" x="161.953" y="23.5817" width="2.5396" height="16.1735"/>
   <rect id="_811945600" class="fil0" x="161.386" y="39.7558" width="3.6758" height="5.4792"/>
   <rect id="_811944424" class="fil0" x="161.386" y="18.1026" width="3.6758" height="5.4792"/>
   <rect id="_811949080" class="fil0" x="128.552" y="115.312" width="2.5396" height="16.1735"/>
   <rect id="_811948864" class="fil0" x="127.984" y="131.486" width="3.6758" height="5.4792"/>
   <rect id="_811949368" class="fil0" x="127.984" y="109.833" width="3.6758" height="5.4792"/>
   <polygon id="_795900056" class="fil0" points="137.563,94.1581 161.343,94.1581 161.343,100.274 137.563,100.274 "/>
   <polygon id="_795908432" class="fil0" points="137.563,100.274 161.343,100.274 161.343,106.389 137.563,106.389 "/>
   <polygon id="_795903920" class="fil0" points="137.563,106.389 161.343,106.389 161.343,112.505 137.563,112.505 "/>
   <polygon id="_795902432" class="fil0" points="137.563,112.504 161.343,112.504 161.343,118.62 137.563,118.62 "/>
   <polygon id="_795900536" class="fil0" points="137.563,118.62 161.343,118.62 161.343,124.735 137.563,124.735 "/>
   <polygon id="_795895640" class="fil0" points="137.563,124.735 161.343,124.735 161.343,130.85 137.563,130.85 "/>
   <rect id="_811958104" class="fil0" x="135.023" y="130.85" width="26.3199" height="6.1154"/>
   <rect id="_811949656" class="fil0" x="127.018" y="136.965" width="34.325" height="6.1154"/>
   <rect id="_811958680" class="fil0" x="31.9658" y="18.9975" width="25.7474" height="2.8611"/>
   <rect id="_811957480" class="fil0" x="61.3889" y="18.9975" width="20.1213" height="2.8611"/>
   <rect id="_811952944" class="fil0" x="88.8611" y="18.9975" width="72.5244" height="2.8611"/>
   <rect id="_811946776" class="fil0" x="134.455" y="62.2892" width="3.6758" height="5.4792"/>
   <path id="_795907544" class="fil0" d="M137.563 111.257l0 19.5923 -2.5396 0 0 -18.4776 1.4249 0c0.6132,0 1.1147,-0.5015 1.1147,-1.1147z"/>
   <polygon id="_811946104" class="fil0" points="88.293,26.237 134.455,65.6852 134.455,62.2891 88.8611,23.3263 85.1859,20.1856 85.1854,23.5817 85.1859,23.5817 85.7534,24.0667 "/>
   <path id="_811952008" class="fil0" d="M137.563 109.833l0 -3.4439 0 -6.1153 0 -6.1154 0 -26.39 -2.5396 0 0 26.3901 0 13.1348 0 1.4249c0,0.6132 -0.5015,1.1148 -1.1147,1.1148l-2.2484 0 0 2.5396 3.3631 0 1.4249 0c0.6132,0 1.1147,-0.5016 1.1147,-1.1147l0 -1.4249z"/>
   <rect id="_811959448" class="fil0" x="57.7132" y="53.5834" width="3.6757" height="89.4975"/>
   <g>
    <rect id="_811944352" class="fil0" x="49.6886" y="21.8587" width="0.7935" height="20.3676"/>
    <rect id="_811955080" class="fil0" x="45.2579" y="21.8587" width="0.7935" height="20.3676"/>
    <rect id="_811959256" class="fil0" x="40.8273" y="21.8587" width="0.7935" height="20.3676"/>
    <rect id="_811955656" class="fil0" x="36.3965" y="21.8587" width="0.7935" height="20.3676"/>
    <rect id="_795898088" class="fil0" x="54.1194" y="21.8587" width="0.7935" height="20.3676"/>
    <rect id="_811944280" class="fil0" x="31.9658" y="21.8587" width="0.7935" height="20.3676"/>
   </g>
   <polygon id="_795893432" class="fil0" points="84.8113,51.3504 84.8113,45.235 81.5102,45.235 61.3888,45.235 57.7131,45.235 57.7131,53.5833 61.3888,53.5833 78.8059,53.5833 135.023,101.624 135.023,94.1587 132.529,94.1587 132.529,88.043 125.712,88.043 125.712,81.9273 118.895,81.9273 118.895,75.8122 112.079,75.8122 112.079,69.6967 105.262,69.6967 105.262,63.5813 98.4451,63.5813 98.4451,57.4658 91.6282,57.4658 91.6282,51.3504 "/>
   <g>
    <polygon id="_811960120" class="fil0" points="87.4348,45.235 85.1859,45.235 84.8113,45.235 84.8113,51.3504 91.6282,51.3504 91.6282,57.4658 98.4451,57.4658 98.4451,63.5813 105.262,63.5813 105.262,69.6967 112.079,69.6967 112.079,75.8122 118.895,75.8122 118.895,81.9273 125.712,81.9273 125.712,88.043 132.529,88.043 132.529,94.1587 135.023,94.1587 135.023,84.56 89.0049,45.235 "/>
    <polygon id="_795899768" class="fil0" points="137.563,90.2363 137.563,94.1587 161.343,94.1587 161.343,90.2363 141.665,90.2363 137.563,86.7306 "/>
   </g>
   <g>
    <polygon id="_795907088" class="fil0" points="87.4348,51.3504 89.0049,51.3504 89.0049,26.8453 88.293,26.237 87.4348,25.5035 "/>
    <polygon id="_811949272" class="fil0" points="94.2516,57.4658 95.8218,57.4658 95.8218,32.6706 94.2516,31.3289 "/>
    <polygon id="_811957024" class="fil0" points="101.069,63.5813 102.638,63.5813 102.638,38.496 101.069,37.1543 "/>
    <polygon id="_811947496" class="fil0" points="107.885,69.6967 109.455,69.6967 109.455,44.3216 107.885,42.9797 "/>
    <polygon id="_811958320" class="fil0" points="114.702,75.8122 116.272,75.8122 116.272,50.1469 114.702,48.8052 "/>
    <polygon id="_811956184" class="fil0" points="121.519,81.9273 123.089,81.9273 123.089,55.9722 121.519,54.6306 "/>
    <polygon id="_811956112" class="fil0" points="128.426,88.043 129.906,88.043 129.906,61.7978 128.426,60.5332 "/>
   </g>
   <path id="_811950208" class="fil0" d="M59.5509 15.0403l0 0c0.6985,0 1.2699,0.5714 1.2699,1.2697l0 1.7925 -2.5397 0 0 -1.7925c0,-0.6983 0.5714,-1.2697 1.2698,-1.2697z"/>
   <path id="_811952056" class="fil0" d="M83.3479 15.0403l0 0c0.6986,0 1.2699,0.5714 1.2699,1.2697l0 1.7925 -2.5396 0 0 -1.7925c0,-0.6983 0.5714,-1.2697 1.2697,-1.2697z"/>
   <path id="_811953304" class="fil0" d="M87.0232 15.0403l0 0c0.6985,0 1.2698,0.5714 1.2698,1.2697l0 1.7925 -2.5396 0 0 -1.7925c0,-0.6983 0.5714,-1.2697 1.2698,-1.2697z"/>
   <path id="_811949104" class="fil0" d="M163.224 15.0403l0 0c0.6985,0 1.2699,0.5714 1.2699,1.2697l0 1.7925 -2.5396 0 0 -1.7925c0,-0.6983 0.5713,-1.2697 1.2697,-1.2697z"/>
   <path id="_811953184" class="fil0" d="M136.293 59.2269l0 0c0.6986,0 1.2699,0.5714 1.2699,1.2698l0 1.7924 -2.5396 0 0 -1.7924c0,-0.6984 0.5714,-1.2698 1.2697,-1.2698z"/>
   <path id="_811955968" class="fil0" d="M129.822 106.771l0 0c0.6986,0 1.27,0.5714 1.27,1.2697l0 1.7925 -2.5397 0 0 -1.7925c0,-0.6983 0.5714,-1.2697 1.2697,-1.2697z"/>
  </g>
 </g>
</svg>
