<?xml version="1.0" encoding="UTF-8"?>
<!DOCTYPE svg PUBLIC "-//W3C//DTD SVG 1.1//EN" "http://www.w3.org/Graphics/SVG/1.1/DTD/svg11.dtd">
<!-- Creator: CorelDRAW -->
<svg xmlns="http://www.w3.org/2000/svg" xml:space="preserve" width="210mm" height="297mm" style="shape-rendering:geometricPrecision; text-rendering:geometricPrecision; image-rendering:optimizeQuality; fill-rule:evenodd; clip-rule:evenodd"
viewBox="0 0 210 297"
 xmlns:xlink="http://www.w3.org/1999/xlink">
 <defs>
  <style type="text/css">
   <![CDATA[

   ]]>
  </style>
 </defs>
 <g id="layer_01">
  <metadata id="CorelCorpID_0Corel-Layer"/>
  <g id="_795907784">
   <g>
    <rect id="_795908744" class="fil0" x="167.705" y="23.2475" width="0.883701" height="24.5162"/>
    <rect id="_811952224" class="fil0" x="162.771" y="23.2475" width="0.883701" height="24.5162"/>
    <rect id="_811947832" class="fil0" x="157.837" y="23.2475" width="0.883701" height="24.5162"/>
    <rect id="_816164256" class="fil0" x="152.902" y="23.2475" width="0.883701" height="24.5162"/>
    <rect id="_816169104" class="fil0" x="172.64" y="23.2475" width="0.883701" height="24.5162"/>
    <rect id="_795894560" class="fil0" x="147.967" y="23.2475" width="0.883701" height="24.5162"/>
   </g>
   <rect id="_795900416" class="fil0" x="143.033" y="23.2475" width="0.883701" height="24.5162"/>
   <rect id="_811946248" class="fil0" x="138.099" y="23.2475" width="0.883701" height="24.5162"/>
   <rect id="_811945048" class="fil0" x="133.165" y="23.2475" width="0.883701" height="24.5162"/>
   <rect id="_811955800" class="fil0" x="128.23" y="23.2475" width="0.883701" height="24.5162"/>
   <rect id="_811954888" class="fil0" x="123.295" y="23.2475" width="0.883701" height="24.5162"/>
   <rect id="_811948288" class="fil0" x="118.362" y="23.2475" width="0.883701" height="24.5162"/>
   <rect id="_811950784" class="fil0" x="113.427" y="23.2475" width="0.883701" height="24.5162"/>
   <rect id="_811955896" class="fil0" x="108.492" y="23.2475" width="0.883701" height="24.5162"/>
   <rect id="_795893768" class="fil0" x="103.558" y="23.2475" width="0.883701" height="24.5162"/>
   <rect id="_795900872" class="fil0" x="98.6239" y="23.2475" width="0.883701" height="24.5162"/>
   <rect id="_811957960" class="fil0" x="82.8402" y="23.2475" width="0.883701" height="24.5162"/>
   <rect id="_811957840" class="fil0" x="77.9058" y="23.2475" width="0.883701" height="24.5162"/>
   <rect id="_811959952" class="fil0" x="72.9714" y="23.2475" width="0.883701" height="24.5162"/>
   <rect id="_811958032" class="fil0" x="68.0373" y="23.2475" width="0.883701" height="24.5162"/>
   <rect id="_811953784" class="fil0" x="31.9657" y="47.7637" width="28.6742" height="3.62153"/>
   <rect id="_811944328" class="fil0" x="64.7337" y="47.7637" width="22.4086" height="3.62153"/>
   <path id="_795906896" class="fil0" d="M95.4888 47.7636l20.0446 0 3.921 3.6216 -23.9656 0 0 -3.6216zm24.4704 0l56.1382 0 0 3.6216 -52.2172 0 -3.921 -3.6216z"/>
   <rect id="_811954768" class="fil0" x="61.2725" y="25.3215" width="2.82829" height="19.4678"/>
   <rect id="_811959064" class="fil0" x="60.6399" y="44.79" width="4.09364" height="6.59523"/>
   <rect id="_811953928" class="fil0" x="60.6399" y="18.7263" width="4.09364" height="6.59523"/>
   <rect id="_811958152" class="fil0" x="87.7747" y="25.3215" width="2.82829" height="19.4678"/>
   <polygon id="_795893984" class="fil0" points="93.7402,44.7891 91.8677,44.7891 91.8677,25.9052 93.7402,27.6347 "/>
   <rect id="_811954552" class="fil0" x="87.1419" y="44.79" width="4.09364" height="6.59523"/>
   <polygon id="_811955608" class="fil0" points="91.2351,44.7899 93.7402,44.7899 93.7402,51.3852 91.2351,51.3852 "/>
   <rect id="_811954480" class="fil0" x="87.1419" y="18.7263" width="4.09364" height="6.59523"/>
   <polygon id="_811948768" class="fil0" points="91.2351,18.7262 95.3286,18.7262 95.3286,25.014 91.2357,21.2336 91.2351,25.3215 "/>
   <rect id="_811945024" class="fil0" x="176.729" y="25.3215" width="2.82829" height="19.4678"/>
   <rect id="_811945600" class="fil0" x="176.098" y="44.79" width="4.09364" height="6.59523"/>
   <rect id="_811944424" class="fil0" x="176.098" y="18.7263" width="4.09364" height="6.59523"/>
   <rect id="_811949080" class="fil0" x="139.531" y="135.736" width="2.82829" height="19.4678"/>
   <rect id="_811948864" class="fil0" x="138.899" y="155.204" width="4.09364" height="6.59523"/>
   <rect id="_811949368" class="fil0" x="138.899" y="129.141" width="4.09364" height="6.59523"/>
   <polygon id="_795900056" class="fil0" points="149.567,110.273 176.05,110.273 176.05,117.635 149.567,117.635 "/>
   <polygon id="_795908432" class="fil0" points="149.567,117.635 176.05,117.635 176.05,124.995 149.567,124.995 "/>
   <polygon id="_795903920" class="fil0" points="149.567,124.995 176.05,124.995 176.05,132.357 149.567,132.357 "/>
   <polygon id="_795902432" class="fil0" points="149.567,132.356 176.05,132.356 176.05,139.718 149.567,139.718 "/>
   <polygon id="_795900536" class="fil0" points="149.567,139.718 176.05,139.718 176.05,147.078 149.567,147.078 "/>
   <polygon id="_795895640" class="fil0" points="149.567,147.078 176.05,147.078 176.05,154.439 149.567,154.439 "/>
   <rect id="_811958104" class="fil0" x="146.738" y="154.439" width="29.3118" height="7.36101"/>
   <rect id="_811949656" class="fil0" x="137.823" y="161.799" width="38.2269" height="7.36101"/>
   <rect id="_811958680" class="fil0" x="31.9658" y="19.8035" width="28.6742" height="3.44386"/>
   <rect id="_811957480" class="fil0" x="64.7337" y="19.8035" width="22.4086" height="3.44386"/>
   <rect id="_811952944" class="fil0" x="95.3286" y="19.8035" width="80.7686" height="3.44386"/>
   <rect id="_811946776" class="fil0" x="146.105" y="71.9131" width="4.09364" height="6.59523"/>
   <path id="_795907544" class="fil0" d="M149.567 130.855l0 23.5829 -2.8283 0 0 -22.2412 1.5869 0c0.6829,0 1.2414,-0.6036 1.2414,-1.3417z"/>
   <polygon id="_811946104" class="fil0" points="94.696,28.5176 146.105,76.0008 146.105,71.913 95.3286,25.014 91.2357,21.2336 91.2351,25.3215 91.2357,25.3215 91.8677,25.9052 "/>
   <path id="_811952008" class="fil0" d="M149.567 129.141l0 -4.1453 0 -7.3609 0 -7.361 0 -31.7653 -2.8283 0 0 31.7654 0 15.8101 0 1.7152c0,0.7381 -0.5585,1.3418 -1.2414,1.3418l-2.504 0 0 3.0569 3.7454 0 1.5869 0c0.6829,0 1.2414,-0.6038 1.2414,-1.3417l0 -1.7152z"/>
   <rect id="_811959448" class="fil0" x="60.64" y="61.434" width="4.09353" height="107.727"/>
   <g>
    <rect id="_811944352" class="fil0" x="51.7032" y="23.2475" width="0.883701" height="24.5162"/>
    <rect id="_811955080" class="fil0" x="46.769" y="23.2475" width="0.883701" height="24.5162"/>
    <rect id="_811959256" class="fil0" x="41.8347" y="23.2475" width="0.883701" height="24.5162"/>
    <rect id="_811955656" class="fil0" x="36.9002" y="23.2475" width="0.883701" height="24.5162"/>
    <rect id="_795898088" class="fil0" x="56.6378" y="23.2475" width="0.883701" height="24.5162"/>
    <rect id="_811944280" class="fil0" x="31.9658" y="23.2475" width="0.883701" height="24.5162"/>
   </g>
   <polygon id="_795893432" class="fil0" points="90.8185,58.7462 90.8185,51.3852 87.1421,51.3852 64.7334,51.3852 60.6399,51.3852 60.6399,61.4339 64.7334,61.4339 84.1304,61.4339 146.738,119.26 146.738,110.274 143.961,110.274 143.961,102.912 136.369,102.912 136.369,95.5512 128.777,95.5512 128.777,88.1905 121.186,88.1905 121.186,80.8294 113.594,80.8294 113.594,73.4684 106.002,73.4684 106.002,66.1072 98.4103,66.1072 98.4103,58.7462 "/>
   <g>
    <polygon id="_811960120" class="fil0" points="93.7402,51.3852 91.2357,51.3852 90.8185,51.3852 90.8185,58.7462 98.4103,58.7462 98.4103,66.1072 106.002,66.1072 106.002,73.4684 113.594,73.4684 113.594,80.8294 121.186,80.8294 121.186,88.1905 128.777,88.1905 128.777,95.5512 136.369,95.5512 136.369,102.912 143.961,102.912 143.961,110.274 146.738,110.274 146.738,98.7201 95.4888,51.3852 "/>
    <polygon id="_795899768" class="fil0" points="149.567,105.553 149.567,110.274 176.05,110.274 176.05,105.553 154.135,105.553 149.567,101.333 "/>
   </g>
   <g>
    <polygon id="_795907088" class="fil0" points="93.7402,58.7462 95.4888,58.7462 95.4888,29.2498 94.696,28.5176 93.7402,27.6347 "/>
    <polygon id="_811949272" class="fil0" points="101.332,66.1072 103.081,66.1072 103.081,36.2616 101.332,34.6466 "/>
    <polygon id="_811957024" class="fil0" points="108.924,73.4684 110.672,73.4684 110.672,43.2736 108.924,41.6586 "/>
    <polygon id="_811947496" class="fil0" points="116.515,80.8294 118.263,80.8294 118.263,50.2858 116.515,48.6705 "/>
    <polygon id="_811958320" class="fil0" points="124.107,88.1905 125.856,88.1905 125.856,57.2976 124.107,55.6826 "/>
    <polygon id="_811956184" class="fil0" points="131.699,95.5512 133.447,95.5512 133.447,64.3094 131.699,62.6945 "/>
    <polygon id="_811956112" class="fil0" points="139.391,102.912 141.039,102.912 141.039,71.3216 139.391,69.7994 "/>
   </g>
   <path id="_811950208" class="fil0" d="M62.6866 15.0403l0 0c0.7779,0 1.4143,0.6878 1.4143,1.5283l0 2.1576 -2.8284 0 0 -2.1576c0,-0.8405 0.6363,-1.5283 1.4141,-1.5283z"/>
   <path id="_811952056" class="fil0" d="M89.1887 15.0403l0 0c0.778,0 1.4143,0.6878 1.4143,1.5283l0 2.1576 -2.8283 0 0 -2.1576c0,-0.8405 0.6364,-1.5283 1.414,-1.5283z"/>
   <path id="_811953304" class="fil0" d="M93.2818 15.0403l0 0c0.7779,0 1.4142,0.6878 1.4142,1.5283l0 2.1576 -2.8283 0 0 -2.1576c0,-0.8405 0.6363,-1.5283 1.4141,-1.5283z"/>
   <path id="_811949104" class="fil0" d="M178.145 15.0403l0 0c0.7779,0 1.4142,0.6878 1.4142,1.5283l0 2.1576 -2.8282 0 0 -2.1576c0,-0.8405 0.6362,-1.5283 1.414,-1.5283z"/>
   <path id="_811953184" class="fil0" d="M148.152 68.227l0 0c0.778,0 1.4143,0.6878 1.4143,1.5285l0 2.1575 -2.8283 0 0 -2.1575c0,-0.8407 0.6364,-1.5285 1.414,-1.5285z"/>
   <path id="_811955968" class="fil0" d="M140.946 125.455l0 0c0.7781,0 1.4144,0.6878 1.4144,1.5284l0 2.1576 -2.8284 0 0 -2.1576c0,-0.8406 0.6364,-1.5284 1.414,-1.5284z"/>
  </g>
 </g>
</svg>
