<?xml version="1.0" encoding="UTF-8"?>
<!DOCTYPE svg PUBLIC "-//W3C//DTD SVG 1.1//EN" "http://www.w3.org/Graphics/SVG/1.1/DTD/svg11.dtd">
<!-- Creator: CorelDRAW -->
<svg xmlns="http://www.w3.org/2000/svg" xml:space="preserve" width="210mm" height="297mm" style="shape-rendering:geometricPrecision; text-rendering:geometricPrecision; image-rendering:optimizeQuality; fill-rule:evenodd; clip-rule:evenodd"
viewBox="0 0 210 297"
 xmlns:xlink="http://www.w3.org/1999/xlink">
 <defs>
  <style type="text/css">
   <![CDATA[
   ]]>
  </style>
 </defs>
 <g id="layer_01">
  <metadata id="CorelCorpID_0Corel-Layer"/>
  <g id="_795907784">
   <g>
    <rect id="_795908744" class="fil0" x="153.85" y="22.8146" width="0.7935" height="23.2231"/>
    <rect id="_811952224" class="fil0" x="149.419" y="22.8146" width="0.7935" height="23.2231"/>
    <rect id="_811947832" class="fil0" x="144.989" y="22.8146" width="0.7935" height="23.2231"/>
    <rect id="_816164256" class="fil0" x="140.558" y="22.8146" width="0.7935" height="23.2231"/>
    <rect id="_816169104" class="fil0" x="158.281" y="22.8146" width="0.7935" height="23.2231"/>
    <rect id="_795894560" class="fil0" x="136.127" y="22.8146" width="0.7935" height="23.2231"/>
   </g>
   <rect id="_795900416" class="fil0" x="131.696" y="22.8146" width="0.7935" height="23.2231"/>
   <rect id="_811946248" class="fil0" x="127.266" y="22.8146" width="0.7935" height="23.2231"/>
   <rect id="_811945048" class="fil0" x="122.835" y="22.8146" width="0.7935" height="23.2231"/>
   <rect id="_811955800" class="fil0" x="118.404" y="22.8146" width="0.7935" height="23.2231"/>
   <rect id="_811954888" class="fil0" x="113.973" y="22.8146" width="0.7935" height="23.2231"/>
   <rect id="_811948288" class="fil0" x="109.543" y="22.8146" width="0.7935" height="23.2231"/>
   <rect id="_811950784" class="fil0" x="105.112" y="22.8146" width="0.7935" height="23.2231"/>
   <rect id="_811955896" class="fil0" x="100.681" y="22.8146" width="0.7935" height="23.2231"/>
   <rect id="_795893768" class="fil0" x="96.2507" y="22.8146" width="0.7935" height="23.2231"/>
   <rect id="_795900872" class="fil0" x="91.8199" y="22.8146" width="0.7935" height="23.2231"/>
   <rect id="_811957960" class="fil0" x="77.6474" y="22.8146" width="0.7935" height="23.2231"/>
   <rect id="_811957840" class="fil0" x="73.2166" y="22.8146" width="0.7935" height="23.2231"/>
   <rect id="_811959952" class="fil0" x="68.7859" y="22.8146" width="0.7935" height="23.2231"/>
   <rect id="_811958032" class="fil0" x="64.3553" y="22.8146" width="0.7935" height="23.2231"/>
   <rect id="_811953784" class="fil0" x="31.9657" y="46.0377" width="25.7474" height="3.43052"/>
   <rect id="_811944328" class="fil0" x="61.3889" y="46.0377" width="20.1213" height="3.43052"/>
   <path id="_795906896" class="fil0" d="M89.0049 46.0376l17.9986 0 3.5208 3.4307 -21.5194 0 0 -3.4307zm21.9727 0l50.4081 0 0 3.4307 -46.8873 0 -3.5208 -3.4307z"/>
   <rect id="_811954768" class="fil0" x="58.2811" y="24.7792" width="2.5396" height="18.441"/>
   <rect id="_811959064" class="fil0" x="57.7131" y="43.2209" width="3.6758" height="6.24738"/>
   <rect id="_811953928" class="fil0" x="57.7131" y="18.5319" width="3.6758" height="6.24738"/>
   <rect id="_811958152" class="fil0" x="82.0782" y="24.7792" width="2.5396" height="18.441"/>
   <polygon id="_795893984" class="fil0" points="87.4348,43.2201 85.7534,43.2201 85.7534,25.3322 87.4348,26.9704 "/>
   <rect id="_811954552" class="fil0" x="81.51" y="43.2209" width="3.6758" height="6.24738"/>
   <polygon id="_811955608" class="fil0" points="85.1854,43.2208 87.4348,43.2208 87.4348,49.4683 85.1854,49.4683 "/>
   <rect id="_811954480" class="fil0" x="81.51" y="18.5319" width="3.6758" height="6.24738"/>
   <polygon id="_811948768" class="fil0" points="85.1854,18.5318 88.8611,18.5318 88.8611,24.488 85.1859,20.907 85.1854,24.7792 "/>
   <rect id="_811945024" class="fil0" x="161.953" y="24.7792" width="2.5396" height="18.441"/>
   <rect id="_811945600" class="fil0" x="161.386" y="43.2209" width="3.6758" height="6.24738"/>
   <rect id="_811944424" class="fil0" x="161.386" y="18.5319" width="3.6758" height="6.24738"/>
   <rect id="_811949080" class="fil0" x="128.552" y="129.37" width="2.5396" height="18.441"/>
   <rect id="_811948864" class="fil0" x="127.984" y="147.812" width="3.6758" height="6.24738"/>
   <rect id="_811949368" class="fil0" x="127.984" y="123.123" width="3.6758" height="6.24738"/>
   <polygon id="_795900056" class="fil0" points="137.563,105.25 161.343,105.25 161.343,112.224 137.563,112.224 "/>
   <polygon id="_795908432" class="fil0" points="137.563,112.224 161.343,112.224 161.343,119.196 137.563,119.196 "/>
   <polygon id="_795903920" class="fil0" points="137.563,119.196 161.343,119.196 161.343,126.169 137.563,126.169 "/>
   <polygon id="_795902432" class="fil0" points="137.563,126.168 161.343,126.168 161.343,133.142 137.563,133.142 "/>
   <polygon id="_795900536" class="fil0" points="137.563,133.142 161.343,133.142 161.343,140.114 137.563,140.114 "/>
   <polygon id="_795895640" class="fil0" points="137.563,140.114 161.343,140.114 161.343,147.086 137.563,147.086 "/>
   <rect id="_811958104" class="fil0" x="135.023" y="147.086" width="26.3199" height="6.97277"/>
   <rect id="_811949656" class="fil0" x="127.018" y="154.059" width="34.325" height="6.97277"/>
   <rect id="_811958680" class="fil0" x="31.9658" y="19.5523" width="25.7474" height="3.26222"/>
   <rect id="_811957480" class="fil0" x="61.3889" y="19.5523" width="20.1213" height="3.26222"/>
   <rect id="_811952944" class="fil0" x="88.8611" y="19.5523" width="72.5244" height="3.26222"/>
   <rect id="_811946776" class="fil0" x="134.455" y="68.9134" width="3.6758" height="6.24738"/>
   <path id="_795907544" class="fil0" d="M137.563 124.747l0 22.3391 -2.5396 0 0 -21.0682 1.4249 0c0.6132,0 1.1147,-0.5718 1.1147,-1.2709z"/>
   <polygon id="_811946104" class="fil0" points="88.293,27.8068 134.455,72.7855 134.455,68.9133 88.8611,24.488 85.1859,20.907 85.1854,24.7792 85.1859,24.7792 85.7534,25.3322 "/>
   <path id="_811952008" class="fil0" d="M137.563 123.123l0 -3.9267 0 -6.9727 0 -6.9727 0 -30.0899 -2.5396 0 0 30.09 0 14.9762 0 1.6247c0,0.6992 -0.5015,1.2711 -1.1147,1.2711l-2.2484 0 0 2.8957 3.3631 0 1.4249 0c0.6132,0 1.1147,-0.572 1.1147,-1.271l0 -1.6247z"/>
   <rect id="_811959448" class="fil0" x="57.7132" y="58.9871" width="3.6757" height="102.045"/>
   <g>
    <rect id="_811944352" class="fil0" x="49.6886" y="22.8146" width="0.7935" height="23.2231"/>
    <rect id="_811955080" class="fil0" x="45.2579" y="22.8146" width="0.7935" height="23.2231"/>
    <rect id="_811959256" class="fil0" x="40.8273" y="22.8146" width="0.7935" height="23.2231"/>
    <rect id="_811955656" class="fil0" x="36.3965" y="22.8146" width="0.7935" height="23.2231"/>
    <rect id="_795898088" class="fil0" x="54.1194" y="22.8146" width="0.7935" height="23.2231"/>
    <rect id="_811944280" class="fil0" x="31.9658" y="22.8146" width="0.7935" height="23.2231"/>
   </g>
   <polygon id="_795893432" class="fil0" points="84.8113,56.441 84.8113,49.4683 81.5102,49.4683 61.3888,49.4683 57.7131,49.4683 57.7131,58.987 61.3888,58.987 78.8059,58.987 135.023,113.763 135.023,105.251 132.529,105.251 132.529,98.2779 125.712,98.2779 125.712,91.3048 118.895,91.3048 118.895,84.3323 112.079,84.3323 112.079,77.3595 105.262,77.3595 105.262,70.3867 98.4451,70.3867 98.4451,63.4138 91.6282,63.4138 91.6282,56.441 "/>
   <g>
    <polygon id="_811960120" class="fil0" points="87.4348,49.4683 85.1859,49.4683 84.8113,49.4683 84.8113,56.441 91.6282,56.441 91.6282,63.4138 98.4451,63.4138 98.4451,70.3867 105.262,70.3867 105.262,77.3595 112.079,77.3595 112.079,84.3323 118.895,84.3323 118.895,91.3048 125.712,91.3048 125.712,98.2779 132.529,98.2779 132.529,105.251 135.023,105.251 135.023,94.3066 89.0049,49.4683 "/>
    <polygon id="_795899768" class="fil0" points="137.563,100.779 137.563,105.251 161.343,105.251 161.343,100.779 141.665,100.779 137.563,96.7815 "/>
   </g>
   <g>
    <polygon id="_795907088" class="fil0" points="87.4348,56.441 89.0049,56.441 89.0049,28.5003 88.293,27.8068 87.4348,26.9704 "/>
    <polygon id="_811949272" class="fil0" points="94.2516,63.4138 95.8218,63.4138 95.8218,35.1423 94.2516,33.6125 "/>
    <polygon id="_811957024" class="fil0" points="101.069,70.3867 102.638,70.3867 102.638,41.7845 101.069,40.2547 "/>
    <polygon id="_811947496" class="fil0" points="107.885,77.3595 109.455,77.3595 109.455,48.4268 107.885,46.8968 "/>
    <polygon id="_811958320" class="fil0" points="114.702,84.3323 116.272,84.3323 116.272,55.0688 114.702,53.539 "/>
    <polygon id="_811956184" class="fil0" points="121.519,91.3048 123.089,91.3048 123.089,61.7108 121.519,60.1811 "/>
    <polygon id="_811956112" class="fil0" points="128.426,98.2779 129.906,98.2779 129.906,68.3531 128.426,66.9112 "/>
   </g>
   <path id="_811950208" class="fil0" d="M59.5509 15.0403l0 0c0.6985,0 1.2699,0.6515 1.2699,1.4477l0 2.0438 -2.5397 0 0 -2.0438c0,-0.7962 0.5714,-1.4477 1.2698,-1.4477z"/>
   <path id="_811952056" class="fil0" d="M83.3479 15.0403l0 0c0.6986,0 1.2699,0.6515 1.2699,1.4477l0 2.0438 -2.5396 0 0 -2.0438c0,-0.7962 0.5714,-1.4477 1.2697,-1.4477z"/>
   <path id="_811953304" class="fil0" d="M87.0232 15.0403l0 0c0.6985,0 1.2698,0.6515 1.2698,1.4477l0 2.0438 -2.5396 0 0 -2.0438c0,-0.7962 0.5714,-1.4477 1.2698,-1.4477z"/>
   <path id="_811949104" class="fil0" d="M163.224 15.0403l0 0c0.6985,0 1.2699,0.6515 1.2699,1.4477l0 2.0438 -2.5396 0 0 -2.0438c0,-0.7962 0.5713,-1.4477 1.2697,-1.4477z"/>
   <path id="_811953184" class="fil0" d="M136.293 65.4218l0 0c0.6986,0 1.2699,0.6515 1.2699,1.4478l0 2.0437 -2.5396 0 0 -2.0437c0,-0.7963 0.5714,-1.4478 1.2697,-1.4478z"/>
   <path id="_811955968" class="fil0" d="M129.822 119.632l0 0c0.6986,0 1.27,0.6515 1.27,1.4477l0 2.0438 -2.5397 0 0 -2.0438c0,-0.7962 0.5714,-1.4477 1.2697,-1.4477z"/>
  </g>
 </g>
</svg>
