<?xml version="1.0" encoding="UTF-8"?>
<!DOCTYPE svg PUBLIC "-//W3C//DTD SVG 1.1//EN" "http://www.w3.org/Graphics/SVG/1.1/DTD/svg11.dtd">
<!-- Creator: CorelDRAW -->
<svg xmlns="http://www.w3.org/2000/svg" xml:space="preserve" width="205.555mm" height="197.756mm" style="shape-rendering:geometricPrecision; text-rendering:geometricPrecision; image-rendering:optimizeQuality; fill-rule:evenodd; clip-rule:evenodd"
viewBox="0 0 205.555 197.756"
 xmlns:xlink="http://www.w3.org/1999/xlink">
 <defs>
  <style type="text/css">
   <![CDATA[
   ]]>
  </style>
 </defs>
 <g id="layer_01">
  <metadata id="CorelCorpID_0Corel-Layer"/>
  <g id="_795907784">
   <g>
    <rect id="_795908744" class="fil0 str0" x="188.157" y="10.6201" width="1.22427" height="31.4255"/>
    <rect id="_811952224" class="fil0 str0" x="181.321" y="10.6201" width="1.22427" height="31.4255"/>
    <rect id="_811947832" class="fil0 str0" x="174.485" y="10.6201" width="1.22427" height="31.4255"/>
    <rect id="_816164256" class="fil0 str0" x="167.648" y="10.6201" width="1.22427" height="31.4255"/>
    <rect id="_816169104" class="fil0 str0" x="194.993" y="10.6201" width="1.22427" height="31.4255"/>
    <rect id="_795894560" class="fil0 str0" x="160.812" y="10.6201" width="1.22427" height="31.4255"/>
   </g>
   <rect id="_795900416" class="fil0 str0" x="153.976" y="10.6201" width="1.22427" height="31.4255"/>
   <rect id="_811946248" class="fil0 str0" x="147.14" y="10.6201" width="1.22427" height="31.4255"/>
   <rect id="_811945048" class="fil0 str0" x="140.303" y="10.6201" width="1.22427" height="31.4255"/>
   <rect id="_811955800" class="fil0 str0" x="133.467" y="10.6201" width="1.22427" height="31.4255"/>
   <rect id="_811954888" class="fil0 str0" x="126.631" y="10.6201" width="1.22427" height="31.4255"/>
   <rect id="_811948288" class="fil0 str0" x="119.795" y="10.6201" width="1.22427" height="31.4255"/>
   <rect id="_811950784" class="fil0 str0" x="112.959" y="10.6201" width="1.22427" height="31.4255"/>
   <rect id="_811955896" class="fil0 str0" x="106.122" y="10.6201" width="1.22427" height="31.4255"/>
   <rect id="_795893768" class="fil0 str0" x="99.2862" y="10.6201" width="1.22427" height="31.4255"/>
   <rect id="_795900872" class="fil0 str0" x="92.45" y="10.6201" width="1.22427" height="31.4255"/>
   <rect id="_811957960" class="fil0 str0" x="70.583" y="10.6201" width="1.22427" height="31.4255"/>
   <rect id="_811957840" class="fil0 str0" x="63.7467" y="10.6201" width="1.22427" height="31.4255"/>
   <rect id="_811959952" class="fil0 str0" x="56.9105" y="10.6201" width="1.22427" height="31.4255"/>
   <rect id="_811958032" class="fil0 str0" x="50.0743" y="10.6201" width="1.22427" height="31.4255"/>
   <rect id="_811953784" class="fil1 str0" x="0.100012" y="42.0456" width="39.726" height="4.64215"/>
   <rect id="_811944328" class="fil1 str0" x="45.4973" y="42.0456" width="31.0455" height="4.64215"/>
   <path id="_795906896" class="fil1 str0" d="M88.1067 42.0456l27.7703 0 5.4323 4.6422 -33.2026 0 0 -4.6422zm33.902 0l77.7753 0 0 4.6422 -72.343 0 -5.4323 -4.6422z"/>
   <rect id="_811954768" class="fil0 str0" x="40.7025" y="13.2786" width="3.91842" height="24.9543"/>
   <rect id="_811959064" class="fil0 str0" x="39.826" y="38.2338" width="5.67138" height="8.45395"/>
   <rect id="_811953928" class="fil0 str0" x="39.826" y="4.82468" width="5.67138" height="8.45395"/>
   <rect id="_811958152" class="fil0 str0" x="77.4193" y="13.2786" width="3.91842" height="24.9543"/>
   <polygon id="_795893984" class="fil0 str0" points="85.6841,38.2329 83.0899,38.2329 83.0899,14.0269 85.6841,16.2439 "/>
   <rect id="_811954552" class="fil0 str0" x="76.5427" y="38.2338" width="5.67138" height="8.45395"/>
   <polygon id="_811955608" class="fil0 str0" points="82.2135,38.2338 85.6841,38.2338 85.6841,46.6878 82.2135,46.6878 "/>
   <rect id="_811954480" class="fil0 str0" x="76.5427" y="4.82468" width="5.67138" height="8.45395"/>
   <polygon id="_811948768" class="fil0 str0" points="82.2135,4.8247 87.8847,4.8247 87.8847,12.8846 82.2142,8.0388 82.2135,13.2786 "/>
   <rect id="_811945024" class="fil0 str0" x="200.66" y="13.2786" width="3.91842" height="24.9543"/>
   <rect id="_811945600" class="fil0 str0" x="199.784" y="38.2338" width="5.67138" height="8.45395"/>
   <rect id="_811944424" class="fil0 str0" x="199.784" y="4.82468" width="5.67138" height="8.45395"/>
   <rect id="_811949080" class="fil0 str0" x="149.125" y="154.811" width="3.91842" height="24.9543"/>
   <rect id="_811948864" class="fil0 str0" x="148.248" y="179.766" width="5.67138" height="8.45395"/>
   <rect id="_811949368" class="fil0 str0" x="148.248" y="146.357" width="5.67138" height="8.45395"/>
   <polygon id="_795900056" class="fil1 str0" points="163.027,122.172 199.718,122.172 199.718,131.608 163.027,131.608 "/>
   <polygon id="_795908432" class="fil1 str0" points="163.027,131.608 199.718,131.608 199.718,141.043 163.027,141.043 "/>
   <polygon id="_795903920" class="fil1 str0" points="163.027,141.043 199.718,141.043 199.718,150.479 163.027,150.479 "/>
   <polygon id="_795902432" class="fil1 str0" points="163.027,150.478 199.718,150.478 199.718,159.914 163.027,159.914 "/>
   <polygon id="_795900536" class="fil1 str0" points="163.027,159.914 199.718,159.914 199.718,169.349 163.027,169.349 "/>
   <polygon id="_795895640" class="fil1 str0" points="163.027,169.349 199.718,169.349 199.718,178.785 163.027,178.785 "/>
   <rect id="_811958104" class="fil1 str0" x="159.109" y="178.785" width="40.6093" height="9.4356"/>
   <rect id="_811949656" class="fil1 str0" x="146.757" y="188.22" width="52.9606" height="9.4356"/>
   <rect id="_811958680" class="fil1 str0" x="0.10001" y="6.20573" width="39.7261" height="4.4144"/>
   <rect id="_811957480" class="fil1 str0" x="45.4973" y="6.20573" width="31.0455" height="4.4144"/>
   <rect id="_811952944" class="fil1 str0" x="87.8847" y="6.20573" width="111.899" height="4.4144"/>
   <rect id="_811946776" class="fil0 str0" x="158.232" y="73.0009" width="5.67138" height="8.45395"/>
   <path id="_795907544" class="fil0 str0" d="M163.027 148.555l0 30.2292 -3.9184 0 0 -28.5093 2.1986 0c0.9461,0 1.7198,-0.7738 1.7198,-1.7199z"/>
   <polygon id="_811946104" class="fil1 str0" points="87.0083,17.3755 158.232,78.2408 158.232,73.0009 87.8847,12.8846 82.2142,8.0388 82.2135,13.2786 82.2142,13.2786 83.0899,14.0269 "/>
   <path id="_811952008" class="fil1 str0" d="M163.027 146.357l0 -5.3135 0 -9.4354 0 -9.4356 0 -40.7175 -3.9184 0 0 40.7177 0 20.2659 0 2.1985c0,0.9461 -0.7738,1.7199 -1.7199,1.7199l-3.469 0 0 3.9184 5.1889 0 2.1986 0c0.9461,0 1.7198,-0.7738 1.7198,-1.7199l0 -2.1985z"/>
   <rect id="_811959448" class="fil1 str0" x="39.8261" y="59.5685" width="5.67127" height="138.087"/>
   <g>
    <rect id="_811944352" class="fil0 str0" x="27.445" y="10.6201" width="1.22427" height="31.4255"/>
    <rect id="_811955080" class="fil0 str0" x="20.6087" y="10.6201" width="1.22427" height="31.4255"/>
    <rect id="_811959256" class="fil0 str0" x="13.7725" y="10.6201" width="1.22427" height="31.4255"/>
    <rect id="_811955656" class="fil0 str0" x="6.93631" y="10.6201" width="1.22427" height="31.4255"/>
    <rect id="_795898088" class="fil0 str0" x="34.2812" y="10.6201" width="1.22427" height="31.4255"/>
    <rect id="_811944280" class="fil0 str0" x="0.100057" y="10.6201" width="1.22427" height="31.4255"/>
   </g>
   <polygon id="_795893432" class="fil1 str0" points="81.6363,56.1234 81.6363,46.6878 76.5429,46.6878 45.4974,46.6878 39.8261,46.6878 39.8261,59.5685 45.4974,59.5685 72.3705,59.5685 159.109,133.691 159.109,122.173 155.261,122.173 155.261,112.737 144.743,112.737 144.743,103.301 134.225,103.301 134.225,93.8658 123.708,93.8658 123.708,84.4302 113.19,84.4302 113.19,74.9946 102.672,74.9946 102.672,65.559 92.1542,65.559 92.1542,56.1234 "/>
   <g>
    <polygon id="_811960120" class="fil1 str0" points="85.6841,46.6878 82.2142,46.6878 81.6363,46.6878 81.6363,56.1234 92.1542,56.1234 92.1542,65.559 102.672,65.559 102.672,74.9946 113.19,74.9946 113.19,84.4302 123.708,84.4302 123.708,93.8658 134.225,93.8658 134.225,103.301 144.743,103.301 144.743,112.737 155.261,112.737 155.261,122.173 159.109,122.173 159.109,107.363 88.1067,46.6878 "/>
    <polygon id="_795899768" class="fil1 str0" points="163.027,116.121 163.027,122.173 199.718,122.173 199.718,116.121 169.356,116.121 163.027,110.712 "/>
   </g>
   <g>
    <polygon id="_795907088" class="fil0 str0" points="85.6841,56.1234 88.1067,56.1234 88.1067,18.3141 87.0083,17.3755 85.6841,16.2439 "/>
    <polygon id="_811949272" class="fil0 str0" points="96.2019,65.559 98.6245,65.559 98.6245,27.3021 96.2019,25.232 "/>
    <polygon id="_811957024" class="fil0 str0" points="106.72,74.9946 109.142,74.9946 109.142,36.2902 106.72,34.22 "/>
    <polygon id="_811947496" class="fil0 str0" points="117.237,84.4302 119.66,84.4302 119.66,45.2785 117.237,43.2081 "/>
    <polygon id="_811958320" class="fil0 str0" points="127.755,93.8658 130.178,93.8658 130.178,54.2665 127.755,52.1963 "/>
    <polygon id="_811956184" class="fil0 str0" points="138.273,103.301 140.696,103.301 140.696,63.2545 138.273,61.1844 "/>
    <polygon id="_811956112" class="fil0 str0" points="148.93,112.737 151.213,112.737 151.213,72.2428 148.93,70.2917 "/>
   </g>
   <path id="_811950208" class="fil0 str0" d="M42.6616 0.1l0 0c1.0778,0 1.9593,0.8816 1.9593,1.9591l0 2.7656 -3.9184 0 0 -2.7656c0,-1.0775 0.8816,-1.9591 1.9591,-1.9591z"/>
   <path id="_811952056" class="fil0 str0" d="M79.3784 0.1l0 0c1.0778,0 1.9593,0.8816 1.9593,1.9591l0 2.7656 -3.9184 0 0 -2.7656c0,-1.0775 0.8816,-1.9591 1.9591,-1.9591z"/>
   <path id="_811953304" class="fil0 str0" d="M85.049 0.1l0 0c1.0777,0 1.9593,0.8816 1.9593,1.9591l0 2.7656 -3.9184 0 0 -2.7656c0,-1.0775 0.8816,-1.9591 1.9591,-1.9591z"/>
   <path id="_811949104" class="fil0 str0" d="M202.62 0.1l0 0c1.0777,0 1.9593,0.8816 1.9593,1.9591l0 2.7656 -3.9184 0 0 -2.7656c0,-1.0775 0.8815,-1.9591 1.9591,-1.9591z"/>
   <path id="_811953184" class="fil0 str0" d="M161.068 68.2762l0 0c1.0778,0 1.9594,0.8816 1.9594,1.9591l0 2.7656 -3.9185 0 0 -2.7656c0,-1.0775 0.8816,-1.9591 1.9591,-1.9591z"/>
   <path id="_811955968" class="fil0 str0" d="M151.084 141.632l0 0c1.0778,0 1.9594,0.8816 1.9594,1.9591l0 2.7656 -3.9185 0 0 -2.7656c0,-1.0775 0.8816,-1.9591 1.9591,-1.9591z"/>
  </g>
 </g>
</svg>
