<?xml version="1.0" encoding="UTF-8"?>
<!DOCTYPE svg PUBLIC "-//W3C//DTD SVG 1.1//EN" "http://www.w3.org/Graphics/SVG/1.1/DTD/svg11.dtd">
<!-- Creator: CorelDRAW -->
<svg xmlns="http://www.w3.org/2000/svg" xml:space="preserve" width="210mm" height="297mm" style="shape-rendering:geometricPrecision; text-rendering:geometricPrecision; image-rendering:optimizeQuality; fill-rule:evenodd; clip-rule:evenodd"
viewBox="0 0 210 297"
 xmlns:xlink="http://www.w3.org/1999/xlink">
 <defs>
  <style type="text/css">
   <![CDATA[

   ]]>
  </style>
 </defs>
 <g id="layer_01">
  <metadata id="CorelCorpID_0Corel-Layer"/>
  <path id="layer_01_ID" class="fil0" d="M73.6123 98.9612l0 9.9678 -0.3693 0 0 3.6105 -0.9619 0.0019 1.3312 0 0 9.3341 -0.3693 0.0004 0 3.612 -0.8658 0.0018 1.2351 0 0 9.1405 3.0949 0 0 -6.9602 3.0949 0 0 -9.1403 0.3692 0 0 -3.6122 0 -0.0004 -0.3692 0.0004 0 -9.3361 0.3692 0 0 -3.6124 -0.3692 0 -0.0322 -8.4408 -6.1576 5.433zm86.7273 -85.5788l0.0001 0c0.7088,0 1.2885,0.7275 1.2885,1.6168l0 2.9751 0.4639 0 0 10.7782 -0.8247 0 0 7.6313 0.8247 0 0 21.6864 2.9789 0 0 5.082 -119.175 105.67 -8.6388 0 0 -6.352 2.1927 0 0 -21.6863 0.8245 0 0 -7.6314 -0.8245 0 0 -10.7783 0.4638 0 0 -2.9751c0,-0.8893 0.5797,-1.6167 1.2885,-1.6167l0.0001 0c0.7088,0 1.2885,0.7274 1.2885,1.6167l0 2.9751 0.4639 0 0 2.3142 115.632 -102.023 0 -4.6903 0.4638 0 0 -2.9751c0,-0.8892 0.5797,-1.6167 1.2885,-1.6167l-0.0002 -0.0007 0.0005 0.0003zm-88.4273 121.248l0 -9.1405 0.3691 0 0 -3.6122 0 -0.0004 -0.3691 0.0004 0 -9.336 0.3691 0 0 -3.6124 -0.3691 0 -0.0321 -8.4393 -6.1576 5.4329 0 9.9662 -0.3691 0 0 3.6104 -0.962 0.002 1.3311 0 0 9.3341 -0.3691 0.0004 0 3.612 -0.8659 0.0018 1.235 0 0 9.1404 3.0948 0 0 -6.9598 3.0949 0zm-7.8901 6.9598l0 -9.1404 0.3693 0 0 -3.6123 0 -0.0003 -0.3693 0.0003 0 -9.336 0.3693 0 0 -3.6124 -0.3693 0 -0.0321 -8.4376 -6.1575 5.4328 0 9.9648 -0.3692 0 0 3.6106 -0.962 0.0018 1.3312 0 0 9.3341 -0.3692 0.0004 0 3.6119 -0.8659 0.0018 1.2351 0 0 9.1406 3.0948 0 0 -6.9601 3.0948 0zm-7.89 6.9601l0 -9.1406 0.3692 0 0 -3.6121 0 -0.0004 -0.3692 0.0004 0 -9.3361 0.3692 0 0 -3.6124 -0.3692 0 -0.0321 -8.436 -6.1576 5.4328 0 9.9632 -0.3692 0 0 3.6105 -0.9621 0.002 1.3313 0 0 9.334 -0.3692 0.0005 0 3.6119 -0.866 0.0018 1.2352 0 0 9.1404 3.0949 0 0 -6.9599 3.0948 0zm-7.8901 6.9599l0 -9.1404 0.3691 0 0 -3.6122 0 -0.0004 -0.3691 0.0004 0 -9.336 0.3691 0 0 -3.6125 -0.3691 0 -0.0321 -8.4346 -5.2552 4.6368 0 7.1413 -0.8248 0 0 7.6314 0.8248 0 0 21.6863 2.1925 0 0 -6.9601 3.0948 0zm110.346 -97.4394l0 -21.6863 0.8244 0 0 -7.6313 -0.8244 0 0 -4.7655 -6.0735 5.3585 0 9.9833 -0.3691 0 0 3.6105 -0.962 0.002 1.3311 0 0 9.334 -0.3691 0.0005 0 3.612 -0.8658 0.0016 1.2349 0 0 9.1407 3.0946 0 0 -6.96 2.9789 0zm-7.7739 6.96l0 -9.1407 0.3693 0 0 -3.6122 0 -0.0004 -0.3693 0.0004 0 -9.3359 0.3693 0 0 -3.6125 -0.3693 0 -0.0322 -8.4544 -6.1576 5.4327 0 9.9818 -0.3691 0 0 3.6104 -0.962 0.002 1.3311 0 0 9.334 -0.3691 0.0004 0 3.612 -0.8658 0.0017 1.2349 0 0 9.1407 3.0948 0 0 -6.96 3.095 0zm-7.8901 6.96l0 -9.1407 0.3692 0 0 -3.6122 0 -0.0003 -0.3692 0.0003 0 -9.3359 0.3692 0 0 -3.6124 -0.3692 0 -0.0323 -8.453 -6.1575 5.4329 0 9.9801 -0.3692 0 0 3.6104 -0.9619 0.002 1.3311 0 0 9.3341 -0.3692 0.0004 0 3.612 -0.8658 0.0016 1.235 0 0 9.1405 3.0947 0 0 -6.9598 3.0951 0zm-7.8902 6.9598l0 -9.1405 0.3693 0 0 -3.6121 0 -0.0004 -0.3693 0.0004 0 -9.336 0.3693 0 0 -3.6124 -0.3693 0 -0.0322 -8.4514 -6.1574 5.4329 0 9.9784 -0.3692 0 0 3.6103 -0.962 0.002 1.3312 0 0 9.3341 -0.3692 0.0004 0 3.612 -0.8658 0.0018 1.235 0 0 9.1406 3.0947 0 0 -6.9601 3.0949 0zm-7.89 6.9601l0 -9.1406 0.3692 0 0 -3.6123 0 -0.0004 -0.3692 0.0004 0 -9.336 0.3692 0 0 -3.6123 -0.3692 0 -0.0323 -8.4499 -6.1573 5.4327 0 9.9772 -0.3692 0 0 3.6104 -0.962 0.0019 1.3312 0 0 9.3341 -0.3692 0.0004 0 3.612 -0.8658 0.0018 1.235 0 0 9.1405 3.0947 0 0 -6.9599 3.0949 0zm-7.89 6.9599l0 -9.1405 0.3692 0 0 -3.6122 0 -0.0005 -0.3692 0.0005 0 -9.3361 0.3692 0 0 -3.6123 -0.3692 0 -0.0322 -8.4483 -6.1576 5.4328 0 9.9755 -0.3692 0 0 3.6104 -0.962 0.0019 1.3312 0 0 9.3342 -0.3692 0.0003 0 3.612 -0.8658 0.0018 1.235 0 0 9.1406 3.0947 0 0 -6.9601 3.0951 0zm-7.8902 6.9601l0 -9.1406 0.3692 0 0 -3.6122 0 -0.0005 -0.3692 0.0005 0 -9.3361 0.3692 0 0 -3.6123 -0.3692 0 -0.0322 -8.4468 -6.1576 5.4329 0 9.974 -0.3692 0 0 3.6105 -0.9619 0.0019 1.3311 0 0 9.3341 -0.3692 0.0004 0 3.612 -0.8658 0.0018 1.235 0 0 9.1402 3.0949 0 0 -6.9598 3.0949 0zm-7.8901 6.9598l0 -9.1402 0.3692 0 0 -3.6122 0 -0.0004 -0.3692 0.0004 0 -9.3361 0.3692 0 0 -3.6124 -0.3692 0 -0.0322 -8.4453 -6.1575 5.4327 0 9.9725 -0.3692 0 0 3.6104 -0.962 0.0019 1.3312 0 0 9.3342 -0.3692 0.0003 0 3.6121 -0.8658 0.0017 1.235 0 0 9.1405 3.0948 0 0 -6.9601 3.0949 0zm-7.8901 6.9601l0 -9.1405 0.3692 0 0 -3.6122 0 -0.0004 -0.3692 0.0004 0 -9.3361 0.3692 0 0 -3.6123 -0.3692 0 -0.0321 -8.4438 -6.1575 5.4329 0 9.9709 -0.3692 0 0 3.6104 -0.962 0.002 1.3312 0 0 9.3341 -0.3692 0.0003 0 3.612 -0.8658 0.0018 1.235 0 0 9.1406 3.0947 0 0 -6.9601 3.0949 0zm-7.89 6.9601l0 -9.1406 0.3692 0 0 -3.6122 0 -0.0004 -0.3692 0.0004 0 -9.336 0.3692 0 0 -3.6124 -0.3692 0 -0.032 -8.4423 -6.1578 5.4329 0 9.9694 -0.3692 0 0 3.6104 -0.9619 0.002 1.3311 0 0 9.3341 -0.3692 0.0003 0 3.6121 -0.8658 0.0017 1.235 0 0 9.1405 3.0948 0 0 -6.9599 3.095 0z"/>
 </g>
</svg>
