<?xml version="1.0" encoding="UTF-8"?>
<!DOCTYPE svg PUBLIC "-//W3C//DTD SVG 1.1//EN" "http://www.w3.org/Graphics/SVG/1.1/DTD/svg11.dtd">
<!-- Creator: CorelDRAW -->
<svg xmlns="http://www.w3.org/2000/svg" xml:space="preserve" width="210mm" height="297mm" style="shape-rendering:geometricPrecision; text-rendering:geometricPrecision; image-rendering:optimizeQuality; fill-rule:evenodd; clip-rule:evenodd"
viewBox="0 0 210 297"
 xmlns:xlink="http://www.w3.org/1999/xlink">
 <defs>
  <style type="text/css">
   <![CDATA[

   ]]>
  </style>
 </defs>
 <g id="layer_01">
  <metadata id="CorelCorpID_0Corel-Layer"/>
  <g id="_205895512">
   <polygon id="_203055736" class="fil0" points="113.54,65.452 113.54,103.212 112.575,103.212 112.575,65.7103 "/>
   <g>
    <polygon id="_205898224" class="fil0" points="112.575,96.5848 138.338,96.5848 138.338,98.2261 112.575,98.2261 "/>
    <polygon id="_205898056" class="fil0" points="112.575,98.2266 138.338,98.2266 138.338,99.868 112.575,99.868 "/>
   </g>
   <path id="_203055976" class="fil0" d="M157.592 51.5995l0 41.6418 -2.1547 0 0 -40.6673c0.7474,-0.3227 1.4624,-0.6478 2.1547,-0.9745z"/>
   <path id="_203061856" class="fil0" d="M138.338 58.5717l0 38.0127 -2.1547 0 0 -37.37c0.7245,-0.2136 1.4428,-0.4279 2.1547,-0.6427z"/>
   <path id="_203060152" class="fil0" d="M68.7494 83.3937c4.3583,-13.8444 97.7261,-24.5553 99.0187,-40.8935 0.4836,-7.4862 -22.4905,-14.4088 -36.4457,-17.1147 0.2272,0.0905 0.3957,0.4192 0.3957,0.8109 0,0.4615 -0.2338,0.8357 -0.5223,0.8357 13.8905,2.6896 33.7208,9.2989 34.4176,15.4681 -3.3096,14.6756 -96.0359,26.0899 -99.0187,40.8935l2.1547 0z"/>
   <polygon id="_26648768" class="fil0" points="113.587,9.1662 120.371,9.1662 120.371,156.495 113.587,156.495 "/>
   <g>
    <polygon id="_203060032" class="fil0" points="113.587,149.598 68.7494,149.598 68.7494,151.24 113.587,151.24 "/>
    <polygon id="_26648336" class="fil0" points="113.587,151.24 68.7494,151.24 68.7494,152.882 113.587,152.882 "/>
   </g>
   <g>
    <polygon id="_203062168" class="fil0" points="113.587,142.972 68.7494,142.972 68.7494,144.613 113.587,144.613 "/>
    <polygon id="_203061136" class="fil0" points="113.587,144.614 68.7494,144.614 68.7494,146.255 113.587,146.255 "/>
   </g>
   <g>
    <polygon id="_203061040" class="fil0" points="113.587,136.345 68.7494,136.345 68.7494,137.987 113.587,137.987 "/>
    <polygon id="_203061160" class="fil0" points="113.587,137.987 68.7494,137.987 68.7494,139.629 113.587,139.629 "/>
   </g>
   <g>
    <polygon id="_203056336" class="fil0" points="113.587,129.718 68.7494,129.718 68.7494,131.36 113.587,131.36 "/>
    <polygon id="_203056456" class="fil0" points="113.587,131.36 68.7494,131.36 68.7494,133.002 113.587,133.002 "/>
   </g>
   <g>
    <polygon id="_203057224" class="fil0" points="113.587,123.092 68.7494,123.092 68.7494,124.733 113.587,124.733 "/>
    <polygon id="_203061568" class="fil0" points="113.587,124.733 68.7494,124.733 68.7494,126.375 113.587,126.375 "/>
   </g>
   <g>
    <polygon id="_203062144" class="fil0" points="113.587,116.465 68.7494,116.465 68.7494,118.107 113.587,118.107 "/>
    <polygon id="_203056048" class="fil0" points="113.587,118.107 68.7494,118.107 68.7494,119.749 113.587,119.749 "/>
   </g>
   <g>
    <polygon id="_205898176" class="fil0" points="120.371,89.958 157.592,89.958 157.592,91.5998 120.371,91.5998 "/>
    <polygon id="_205898032" class="fil0" points="120.371,91.5998 157.592,91.5998 157.592,93.2411 120.371,93.2411 "/>
   </g>
   <g>
    <polygon id="_205899640" class="fil0" points="118.993,83.3311 165.614,83.3311 165.614,84.973 118.993,84.973 "/>
    <polygon id="_205897960" class="fil0" points="118.993,84.973 165.614,84.973 165.614,86.6148 118.993,86.6148 "/>
   </g>
   <g>
    <polygon id="_205897096" class="fil0" points="117.618,76.7043 163.459,76.7043 163.459,78.3461 117.618,78.3461 "/>
    <polygon id="_205894936" class="fil0" points="117.618,78.3461 163.459,78.3461 163.459,79.988 117.618,79.988 "/>
   </g>
   <g>
    <polygon id="_205898920" class="fil0" points="116.241,70.0774 163.459,70.0774 163.459,71.7193 116.241,71.7193 "/>
    <polygon id="_205897912" class="fil0" points="116.241,71.7193 163.459,71.7193 163.459,73.3612 116.241,73.3612 "/>
   </g>
   <g>
    <polygon id="_205896112" class="fil0" points="114.868,63.4511 150.165,63.4511 150.165,65.0925 114.868,65.0925 "/>
    <polygon id="_205896808" class="fil0" points="114.868,65.0925 150.165,65.0925 150.165,66.7343 114.868,66.7343 "/>
   </g>
   <polygon id="_205894120" class="fil0" points="102.947,17.2549 105.102,17.2549 105.102,56.8242 102.947,56.8242 "/>
   <polygon id="_205894168" class="fil0" points="70.5287,17.2549 70.5287,15.752 113.587,15.752 113.587,17.2549 "/>
   <polygon id="_205894792" class="fil0" points="79.1092,17.2549 81.2639,17.2549 81.2639,56.8242 79.1092,56.8242 "/>
   <polygon id="_205895344" class="fil0" points="134.396,27.7007 134.396,66.7343 132.241,66.7343 132.241,27.2422 "/>
   <polygon id="_203060224" class="fil0" points="132.012,63.4511 134.624,63.4511 134.624,66.7343 132.012,66.7343 "/>
   <polygon id="_26650256" class="fil0" points="152.32,33.0493 152.32,73.3612 150.165,73.3612 150.165,32.2379 "/>
   <polygon id="_205895584" class="fil0" points="149.937,70.0774 152.548,70.0774 152.548,73.3612 149.937,73.3612 "/>
   <path id="_205895056" class="fil0" d="M167.769 42.5002l0 44.1144 -2.1547 0 0 -40.1239c1.2927,-1.2941 2.0464,-2.6226 2.1547,-3.9905z"/>
   <polygon id="_205896664" class="fil0" points="165.384,83.3311 167.998,83.3311 167.998,86.6148 165.384,86.6148 "/>
   <polygon id="_205895464" class="fil0" points="155.209,89.958 157.82,89.958 157.82,93.2411 155.209,93.2411 "/>
   <path id="_205896880" class="fil0" d="M91.5424 71.6276l0 38.2104 -2.1545 0 0 -37.5341c0.7067,-0.2257 1.425,-0.4511 2.1545,-0.6763z"/>
   <path id="_205893784" class="fil0" d="M74.6174 78.1112l0 38.3535 -2.1546 0 0 -37.0771c0.6477,-0.4277 1.3669,-0.853 2.1546,-1.2764z"/>
   <polygon id="_203059600" class="fil0" points="66.5947,83.3937 68.7494,83.3937 68.7494,119.749 66.5947,119.749 "/>
   <polygon id="_205896280" class="fil0" points="66.5947,119.748 68.7494,119.748 68.7494,156.103 66.5947,156.103 "/>
   <polygon id="_205895848" class="fil0" points="113.587,119.748 115.741,119.748 115.741,156.103 113.587,156.103 "/>
   <g>
    <polygon id="_205896304" class="fil0" points="74.9851,56.8242 134.396,56.8242 134.396,58.4656 74.9851,58.4656 "/>
    <polygon id="_205894576" class="fil0" points="74.9851,58.4662 134.396,58.4662 134.396,60.1075 74.9851,60.1075 "/>
   </g>
   <path id="_26646728" class="fil0" d="M165.614 42.5002l0 37.4876 -2.1548 0 0 -40.8951c1.2575,1.1328 2.0271,2.2775 2.1548,3.4075z"/>
   <polygon id="_205897120" class="fil0" points="163.229,76.7043 165.843,76.7043 165.843,79.988 163.229,79.988 "/>
   <polygon id="_205893592" class="fil0" points="113.587,83.3937 115.741,83.3937 115.741,119.749 113.587,119.749 "/>
   <g>
    <polygon id="_205899664" class="fil0" points="113.587,103.212 90.3869,103.212 90.3869,104.853 113.587,104.853 "/>
    <polygon id="_205894336" class="fil0" points="113.587,104.854 90.3869,104.854 90.3869,106.495 113.587,106.495 "/>
   </g>
   <g>
    <polygon id="_205896928" class="fil0" points="113.587,109.839 74.1584,109.839 74.1584,111.48 113.587,111.48 "/>
    <polygon id="_205896904" class="fil0" points="113.587,111.48 74.1584,111.48 74.1584,113.122 113.587,113.122 "/>
   </g>
   <path id="_205894768" class="fil0" d="M131.196 25.3606c0.2885,0 0.5223,0.3742 0.5223,0.8358 0,0.4615 -0.2338,0.8357 -0.5223,0.8357 -0.2885,0 -0.5223,-0.3742 -0.5223,-0.8357 0,-0.4616 0.2338,-0.8358 0.5223,-0.8358z"/>
  </g>
 </g>
</svg>
