<?xml version="1.0" encoding="UTF-8"?>
<!DOCTYPE svg PUBLIC "-//W3C//DTD SVG 1.1//EN" "http://www.w3.org/Graphics/SVG/1.1/DTD/svg11.dtd">
<!-- Creator: CorelDRAW -->
<svg xmlns="http://www.w3.org/2000/svg" xml:space="preserve" width="210mm" height="297mm" style="shape-rendering:geometricPrecision; text-rendering:geometricPrecision; image-rendering:optimizeQuality; fill-rule:evenodd; clip-rule:evenodd"
viewBox="0 0 210 297"
 xmlns:xlink="http://www.w3.org/1999/xlink">
 <defs>
  <style type="text/css">
   <![CDATA[

   ]]>
  </style>
 </defs>
 <g id="layer_01">
  <metadata id="CorelCorpID_0Corel-Layer"/>
  <g id="_205895512">
   <polygon id="_203055736" class="fil0" points="99.3372,75.3373 99.3372,119.729 98.6638,119.729 98.6638,75.641 "/>
   <g>
    <polygon id="_205898224" class="fil0" points="98.6638,111.938 116.632,111.938 116.632,113.868 98.6638,113.868 "/>
    <polygon id="_205898056" class="fil0" points="98.6638,113.868 116.632,113.868 116.632,115.798 98.6638,115.798 "/>
   </g>
   <path id="_203055976" class="fil0" d="M130.061 59.052l0 48.9552 -1.5028 0 0 -47.8096c0.5213,-0.3794 1.02,-0.7616 1.5028,-1.1456z"/>
   <path id="_203061856" class="fil0" d="M116.632 67.2487l0 44.6887 -1.5028 0 0 -43.9332c0.5053,-0.2511 1.0063,-0.503 1.5028,-0.7555z"/>
   <path id="_203060152" class="fil0" d="M68.0975 96.4301c3.0397,-16.2759 68.1595,-28.8679 69.061,-48.0755 0.3373,-8.801 -15.6861,-16.9394 -25.4192,-20.1205 0.1585,0.1064 0.276,0.4928 0.276,0.9533 0,0.5425 -0.1631,0.9824 -0.3643,0.9824 9.688,3.162 23.5187,10.9321 24.0047,18.1848 -2.3083,17.253 -66.9806,30.672 -69.061,48.0755l1.5028 0z"/>
   <polygon id="_26648768" class="fil0" points="99.3696,9.1662 104.101,9.1662 104.101,182.37 99.3696,182.37 "/>
   <g>
    <polygon id="_203060032" class="fil0" points="99.3696,174.262 68.0975,174.262 68.0975,176.192 99.3696,176.192 "/>
    <polygon id="_26648336" class="fil0" points="99.3696,176.192 68.0975,176.192 68.0975,178.123 99.3696,178.123 "/>
   </g>
   <g>
    <polygon id="_203062168" class="fil0" points="99.3696,166.472 68.0975,166.472 68.0975,168.401 99.3696,168.401 "/>
    <polygon id="_203061136" class="fil0" points="99.3696,168.402 68.0975,168.402 68.0975,170.332 99.3696,170.332 "/>
   </g>
   <g>
    <polygon id="_203061040" class="fil0" points="99.3696,158.681 68.0975,158.681 68.0975,160.612 99.3696,160.612 "/>
    <polygon id="_203061160" class="fil0" points="99.3696,160.612 68.0975,160.612 68.0975,162.542 99.3696,162.542 "/>
   </g>
   <g>
    <polygon id="_203056336" class="fil0" points="99.3696,150.89 68.0975,150.89 68.0975,152.821 99.3696,152.821 "/>
    <polygon id="_203056456" class="fil0" points="99.3696,152.821 68.0975,152.821 68.0975,154.751 99.3696,154.751 "/>
   </g>
   <g>
    <polygon id="_203057224" class="fil0" points="99.3696,143.101 68.0975,143.101 68.0975,145.03 99.3696,145.03 "/>
    <polygon id="_203061568" class="fil0" points="99.3696,145.03 68.0975,145.03 68.0975,146.96 99.3696,146.96 "/>
   </g>
   <g>
    <polygon id="_203062144" class="fil0" points="99.3696,135.31 68.0975,135.31 68.0975,137.24 99.3696,137.24 "/>
    <polygon id="_203056048" class="fil0" points="99.3696,137.24 68.0975,137.24 68.0975,139.17 99.3696,139.17 "/>
   </g>
   <g>
    <polygon id="_205898176" class="fil0" points="104.101,104.147 130.061,104.147 130.061,106.077 104.101,106.077 "/>
    <polygon id="_205898032" class="fil0" points="104.101,106.077 130.061,106.077 130.061,108.007 104.101,108.007 "/>
   </g>
   <g>
    <polygon id="_205899640" class="fil0" points="103.14,96.3565 135.656,96.3565 135.656,98.2868 103.14,98.2868 "/>
    <polygon id="_205897960" class="fil0" points="103.14,98.2868 135.656,98.2868 135.656,100.217 103.14,100.217 "/>
   </g>
   <g>
    <polygon id="_205897096" class="fil0" points="102.181,88.5659 134.153,88.5659 134.153,90.496 102.181,90.496 "/>
    <polygon id="_205894936" class="fil0" points="102.181,90.496 134.153,90.496 134.153,92.4263 102.181,92.4263 "/>
   </g>
   <g>
    <polygon id="_205898920" class="fil0" points="101.221,80.7751 134.153,80.7751 134.153,82.7054 101.221,82.7054 "/>
    <polygon id="_205897912" class="fil0" points="101.221,82.7054 134.153,82.7054 134.153,84.6356 101.221,84.6356 "/>
   </g>
   <g>
    <polygon id="_205896112" class="fil0" points="100.263,72.985 124.881,72.985 124.881,74.9147 100.263,74.9147 "/>
    <polygon id="_205896808" class="fil0" points="100.263,74.9147 124.881,74.9147 124.881,76.8448 100.263,76.8448 "/>
   </g>
   <polygon id="_205894120" class="fil0" points="91.9488,18.6755 93.4515,18.6755 93.4515,65.1943 91.9488,65.1943 "/>
   <polygon id="_205894168" class="fil0" points="69.3385,18.6755 69.3385,16.9086 99.3696,16.9086 99.3696,18.6755 "/>
   <polygon id="_205894792" class="fil0" points="75.323,18.6755 76.8258,18.6755 76.8258,65.1943 75.323,65.1943 "/>
   <polygon id="_205895344" class="fil0" points="113.883,30.9559 113.883,76.8448 112.38,76.8448 112.38,30.4168 "/>
   <polygon id="_203060224" class="fil0" points="112.22,72.985 114.042,72.985 114.042,76.8448 112.22,76.8448 "/>
   <polygon id="_26650256" class="fil0" points="126.384,37.2438 126.384,84.6356 124.881,84.6356 124.881,36.2899 "/>
   <polygon id="_205895584" class="fil0" points="124.722,80.7751 126.543,80.7751 126.543,84.6356 124.722,84.6356 "/>
   <path id="_205895056" class="fil0" d="M137.159 48.3546l0 51.8621 -1.5028 0 0 -47.1708c0.9016,-1.5214 1.4273,-3.0832 1.5028,-4.6913z"/>
   <polygon id="_205896664" class="fil0" points="135.496,96.3565 137.319,96.3565 137.319,100.217 135.496,100.217 "/>
   <polygon id="_205895464" class="fil0" points="128.399,104.147 130.22,104.147 130.22,108.007 128.399,108.007 "/>
   <path id="_205896880" class="fil0" d="M83.9946 82.5975l0 44.9212 -1.5027 0 0 -44.1261c0.4929,-0.2653 0.9939,-0.5303 1.5027,-0.7951z"/>
   <path id="_205893784" class="fil0" d="M72.1902 90.2198l0 45.0895 -1.5028 0 0 -43.5889c0.4518,-0.5028 0.9534,-1.0028 1.5028,-1.5006z"/>
   <polygon id="_203059600" class="fil0" points="66.5947,96.4301 68.0975,96.4301 68.0975,139.17 66.5947,139.17 "/>
   <polygon id="_205896280" class="fil0" points="66.5947,139.169 68.0975,139.169 68.0975,181.909 66.5947,181.909 "/>
   <polygon id="_205895848" class="fil0" points="99.3696,139.169 100.872,139.169 100.872,181.909 99.3696,181.909 "/>
   <g>
    <polygon id="_205896304" class="fil0" points="72.4466,65.1943 113.883,65.1943 113.883,67.1239 72.4466,67.1239 "/>
    <polygon id="_205894576" class="fil0" points="72.4466,67.1246 113.883,67.1246 113.883,69.0542 72.4466,69.0542 "/>
   </g>
   <path id="_26646728" class="fil0" d="M135.656 48.3546l0 44.0714 -1.5029 0 0 -48.0774c0.8771,1.3318 1.4138,2.6775 1.5029,4.006z"/>
   <polygon id="_205897120" class="fil0" points="133.993,88.5659 135.816,88.5659 135.816,92.4263 133.993,92.4263 "/>
   <polygon id="_205893592" class="fil0" points="99.3696,96.4301 100.872,96.4301 100.872,139.17 99.3696,139.17 "/>
   <g>
    <polygon id="_205899664" class="fil0" points="99.3696,119.729 83.1887,119.729 83.1887,121.658 99.3696,121.658 "/>
    <polygon id="_205894336" class="fil0" points="99.3696,121.659 83.1887,121.659 83.1887,123.589 99.3696,123.589 "/>
   </g>
   <g>
    <polygon id="_205896928" class="fil0" points="99.3696,127.52 71.87,127.52 71.87,129.449 99.3696,129.449 "/>
    <polygon id="_205896904" class="fil0" points="99.3696,129.449 71.87,129.449 71.87,131.38 99.3696,131.38 "/>
   </g>
   <path id="_205894768" class="fil0" d="M111.651 28.2048c0.2012,0 0.3643,0.4399 0.3643,0.9826 0,0.5425 -0.1631,0.9824 -0.3643,0.9824 -0.2012,0 -0.3643,-0.4399 -0.3643,-0.9824 0,-0.5427 0.1631,-0.9826 0.3643,-0.9826z"/>
  </g>
 </g>
</svg>
