<?xml version="1.0" encoding="UTF-8"?>
<!DOCTYPE svg PUBLIC "-//W3C//DTD SVG 1.1//EN" "http://www.w3.org/Graphics/SVG/1.1/DTD/svg11.dtd">
<!-- Creator: CorelDRAW -->
<svg xmlns="http://www.w3.org/2000/svg" xml:space="preserve" width="210mm" height="297mm" style="shape-rendering:geometricPrecision; text-rendering:geometricPrecision; image-rendering:optimizeQuality; fill-rule:evenodd; clip-rule:evenodd"
viewBox="0 0 210 297"
 xmlns:xlink="http://www.w3.org/1999/xlink">
 <defs>
  <style type="text/css">
   <![CDATA[
   ]]>
  </style>
 </defs>
 <g id="layer_01">
  <metadata id="CorelCorpID_0Corel-Layer"/>
  <g id="_205895512">
   <polygon id="_203055736" class="fil0 str0" points="100.061,115.73 100.061,186.932 98.7912,186.932 98.7912,116.217 "/>
   <g>
    <polygon id="_205898224" class="fil1 str0" points="98.7912,174.436 132.674,174.436 132.674,177.531 98.7912,177.531 "/>
    <polygon id="_205898056" class="fil1 str0" points="98.7912,177.532 132.674,177.532 132.674,180.627 98.7912,180.627 "/>
   </g>
   <path id="_203055976" class="fil0 str0" d="M157.995 89.6088l0 78.5225 -2.8338 0 0 -76.6849c0.983,-0.6086 1.9235,-1.2216 2.8338,-1.8376z"/>
   <path id="_203061856" class="fil0 str0" d="M132.674 102.756l0 71.6792 -2.8338 0 0 -70.4672c0.9528,-0.4029 1.8975,-0.8069 2.8338,-1.212z"/>
   <path id="_203060152" class="fil0 str1" d="M41.1533 149.562c5.7318,-26.1059 128.526,-46.3031 130.226,-77.1114 0.6361,-14.1166 -29.5787,-27.1703 -47.9321,-32.2728 0.2989,0.1707 0.5204,0.7905 0.5204,1.5292 0,0.8703 -0.3075,1.5759 -0.6869,1.5759 18.2682,5.0716 44.3484,17.5345 45.2648,29.1677 -4.3527,27.6732 -126.303,49.1967 -130.226,77.1114l2.8338 0z"/>
   <polygon id="_26648768" class="fil0 str0" points="100.122,9.5937 109.044,9.5937 109.044,287.406 100.122,287.406 "/>
   <g>
    <polygon id="_203060032" class="fil1 str0" points="100.122,274.402 41.1533,274.402 41.1533,277.498 100.122,277.498 "/>
    <polygon id="_26648336" class="fil1 str0" points="100.122,277.498 41.1533,277.498 41.1533,280.594 100.122,280.594 "/>
   </g>
   <g>
    <polygon id="_203062168" class="fil1 str0" points="100.122,261.907 41.1533,261.907 41.1533,265.002 100.122,265.002 "/>
    <polygon id="_203061136" class="fil1 str0" points="100.122,265.003 41.1533,265.003 41.1533,268.098 100.122,268.098 "/>
   </g>
   <g>
    <polygon id="_203061040" class="fil1 str0" points="100.122,249.411 41.1533,249.411 41.1533,252.506 100.122,252.506 "/>
    <polygon id="_203061160" class="fil1 str0" points="100.122,252.507 41.1533,252.507 41.1533,255.602 100.122,255.602 "/>
   </g>
   <g>
    <polygon id="_203056336" class="fil1 str0" points="100.122,236.915 41.1533,236.915 41.1533,240.011 100.122,240.011 "/>
    <polygon id="_203056456" class="fil1 str0" points="100.122,240.011 41.1533,240.011 41.1533,243.107 100.122,243.107 "/>
   </g>
   <g>
    <polygon id="_203057224" class="fil1 str0" points="100.122,224.419 41.1533,224.419 41.1533,227.515 100.122,227.515 "/>
    <polygon id="_203061568" class="fil1 str0" points="100.122,227.515 41.1533,227.515 41.1533,230.611 100.122,230.611 "/>
   </g>
   <g>
    <polygon id="_203062144" class="fil1 str0" points="100.122,211.923 41.1533,211.923 41.1533,215.019 100.122,215.019 "/>
    <polygon id="_203056048" class="fil1 str0" points="100.122,215.019 41.1533,215.019 41.1533,218.115 100.122,218.115 "/>
   </g>
   <g>
    <polygon id="_205898176" class="fil1 str0" points="109.044,161.94 157.995,161.94 157.995,165.036 109.044,165.036 "/>
    <polygon id="_205898032" class="fil1 str0" points="109.044,165.036 157.995,165.036 157.995,168.131 109.044,168.131 "/>
   </g>
   <g>
    <polygon id="_205899640" class="fil1 str0" points="107.232,149.444 168.546,149.444 168.546,152.54 107.232,152.54 "/>
    <polygon id="_205897960" class="fil1 str0" points="107.232,152.54 168.546,152.54 168.546,155.636 107.232,155.636 "/>
   </g>
   <g>
    <polygon id="_205897096" class="fil1 str0" points="105.423,136.948 165.712,136.948 165.712,140.044 105.423,140.044 "/>
    <polygon id="_205894936" class="fil1 str0" points="105.423,140.044 165.712,140.044 165.712,143.14 105.423,143.14 "/>
   </g>
   <g>
    <polygon id="_205898920" class="fil1 str0" points="103.614,124.452 165.712,124.452 165.712,127.548 103.614,127.548 "/>
    <polygon id="_205897912" class="fil1 str0" points="103.614,127.548 165.712,127.548 165.712,130.644 103.614,130.644 "/>
   </g>
   <g>
    <polygon id="_205896112" class="fil1 str0" points="101.806,111.957 148.228,111.957 148.228,115.052 101.806,115.052 "/>
    <polygon id="_205896808" class="fil1 str0" points="101.806,115.052 148.228,115.052 148.228,118.148 101.806,118.148 "/>
   </g>
   <polygon id="_205894120" class="fil0 str0" points="86.1288,24.8462 88.9625,24.8462 88.9625,99.4607 86.1288,99.4607 "/>
   <polygon id="_205894168" class="fil0 str0" points="43.4933,24.8462 43.4933,22.0124 100.122,22.0124 100.122,24.8462 "/>
   <polygon id="_205894792" class="fil0 str0" points="54.7781,24.8462 57.6119,24.8462 57.6119,99.4607 54.7781,99.4607 "/>
   <polygon id="_205895344" class="fil0 str0" points="127.489,44.5435 127.489,118.148 124.655,118.148 124.655,43.6791 "/>
   <polygon id="_203060224" class="fil0 str0" points="124.354,111.957 127.79,111.957 127.79,118.148 124.354,118.148 "/>
   <polygon id="_26650256" class="fil0 str0" points="151.062,54.6292 151.062,130.644 148.228,130.644 148.228,53.0992 "/>
   <polygon id="_205895584" class="fil0 str0" points="147.928,124.452 151.363,124.452 151.363,130.644 147.928,130.644 "/>
   <path id="_205895056" class="fil0 str0" d="M171.38 72.4506l0 83.1849 -2.8338 0 0 -75.6602c1.7002,-2.4403 2.6915,-4.9454 2.8338,-7.5247z"/>
   <polygon id="_205896664" class="fil0 str0" points="168.245,149.444 171.681,149.444 171.681,155.636 168.245,155.636 "/>
   <polygon id="_205895464" class="fil0 str0" points="154.861,161.94 158.296,161.94 158.296,168.131 154.861,168.131 "/>
   <path id="_205896880" class="fil0 str0" d="M71.13 127.375l0 72.0522 -2.8337 0 0 -70.7768c0.9294,-0.4256 1.8741,-0.8507 2.8337,-1.2754z"/>
   <path id="_205893784" class="fil0 str0" d="M48.8708 139.601l0 72.3218 -2.8338 0 0 -69.9149c0.8519,-0.8065 1.7978,-1.6086 2.8338,-2.4069z"/>
   <polygon id="_203059600" class="fil0 str0" points="38.3195,149.562 41.1533,149.562 41.1533,218.115 38.3195,218.115 "/>
   <polygon id="_205896280" class="fil0 str0" points="38.3195,218.114 41.1533,218.114 41.1533,286.667 38.3195,286.667 "/>
   <polygon id="_205895848" class="fil0 str0" points="100.122,218.114 102.955,218.114 102.955,286.667 100.122,286.667 "/>
   <g>
    <polygon id="_205896304" class="fil1 str0" points="49.3542,99.4607 127.489,99.4607 127.489,102.556 49.3542,102.556 "/>
    <polygon id="_205894576" class="fil1 str0" points="49.3542,102.557 127.489,102.557 127.489,105.652 49.3542,105.652 "/>
   </g>
   <path id="_26646728" class="fil0 str0" d="M168.546 72.4506l0 70.6891 -2.8338 0 0 -77.1146c1.6538,2.136 2.6659,4.2946 2.8338,6.4255z"/>
   <polygon id="_205897120" class="fil0 str0" points="165.411,136.948 168.847,136.948 168.847,143.14 165.411,143.14 "/>
   <polygon id="_205893592" class="fil0 str0" points="100.122,149.562 102.955,149.562 102.955,218.115 100.122,218.115 "/>
   <g>
    <polygon id="_205899664" class="fil1 str0" points="100.122,186.932 69.6103,186.932 69.6103,190.027 100.122,190.027 "/>
    <polygon id="_205894336" class="fil1 str0" points="100.122,190.028 69.6103,190.028 69.6103,193.123 100.122,193.123 "/>
   </g>
   <g>
    <polygon id="_205896928" class="fil1 str0" points="100.122,199.428 48.267,199.428 48.267,202.523 100.122,202.523 "/>
    <polygon id="_205896904" class="fil1 str0" points="100.122,202.523 48.267,202.523 48.267,205.619 100.122,205.619 "/>
   </g>
   <path id="_205894768" class="fil0 str0" d="M123.281 40.131c0.3794,0 0.6869,0.7056 0.6869,1.576 0,0.8703 -0.3075,1.5759 -0.6869,1.5759 -0.3794,0 -0.6869,-0.7056 -0.6869,-1.5759 0,-0.8704 0.3075,-1.576 0.6869,-1.576z"/>
  </g>
 </g>
</svg>
