<?xml version="1.0" encoding="UTF-8"?>
<!DOCTYPE svg PUBLIC "-//W3C//DTD SVG 1.1//EN" "http://www.w3.org/Graphics/SVG/1.1/DTD/svg11.dtd">
<!-- Creator: CorelDRAW -->
<svg xmlns="http://www.w3.org/2000/svg" xml:space="preserve" width="210mm" height="297mm" style="shape-rendering:geometricPrecision; text-rendering:geometricPrecision; image-rendering:optimizeQuality; fill-rule:evenodd; clip-rule:evenodd"
viewBox="0 0 210 297"
 xmlns:xlink="http://www.w3.org/1999/xlink">
 <defs>
  <style type="text/css">
   <![CDATA[

   ]]>
  </style>
 </defs>
 <g id="layer_01">
  <metadata id="CorelCorpID_0Corel-Layer"/>
  <path id="layer_01_ID" class="fil0" d="M66.0961 106.328l0 10.4631 -0.4579 0 0 3.79 -1.193 0.002 1.6509 0 0 9.7979 -0.4579 0.0004 0 3.7915 -1.0738 0.0019 1.5317 0 0 9.5946 3.8383 0 0 -7.3059 3.8383 0 0 -9.5946 0.4578 0 0 -3.7917 0 -0.0005 -0.4578 0.0005 0 -9.8 0.4578 0 0 -3.7919 -0.4578 0 -0.0399 -8.8603 -7.6367 5.703zm107.559 -89.8315l0.0002 0c0.879,0 1.5979,0.7636 1.5979,1.6972l0 3.1229 0.5754 0 0 11.3138 -1.0228 0 0 8.0106 1.0228 0 0 22.7639 3.6944 0 0 5.3347 -147.801 110.921 -10.7139 0 0 -6.6677 2.7194 0 0 -22.764 1.0225 0 0 -8.0105 -1.0225 0 0 -11.3139 0.5752 0 0 -3.123c0,-0.9335 0.7189,-1.697 1.5979,-1.697l0.0002 0c0.8791,0 1.598,0.7635 1.598,1.697l0 3.123 0.5753 0 0 2.4292 143.407 -107.093 0 -4.9233 0.5751 0 0 -3.123c0,-0.9334 0.719,-1.697 1.5981,-1.697l-0.0002 -0.0008 0.0005 0.0003zm-109.667 127.273l0 -9.5947 0.4578 0 0 -3.7917 0 -0.0005 -0.4578 0.0005 0 -9.7999 0.4578 0 0 -3.7919 -0.4578 0 -0.0398 -8.8587 -7.6367 5.7028 0 10.4615 -0.4578 0 0 3.7899 -1.193 0.002 1.6508 0 0 9.798 -0.4578 0.0004 0 3.7915 -1.0738 0.0019 1.5316 0 0 9.5945 3.8382 0 0 -7.3056 3.8383 0zm-9.7853 7.3056l0 -9.5945 0.458 0 0 -3.7919 0 -0.0003 -0.458 0.0003 0 -9.7999 0.458 0 0 -3.7919 -0.458 0 -0.0397 -8.8569 -7.6366 5.7027 0 10.4601 -0.4579 0 0 3.7899 -1.1931 0.002 1.651 0 0 9.7979 -0.4579 0.0005 0 3.7914 -1.0738 0.0018 1.5317 0 0 9.5948 3.8381 0 0 -7.306 3.8382 0zm-9.7852 7.306l0 -9.5948 0.4579 0 0 -3.7916 0 -0.0004 -0.4579 0.0004 0 -9.8 0.4579 0 0 -3.7919 -0.4579 0 -0.0397 -8.8553 -7.6367 5.7029 0 10.4583 -0.4579 0 0 3.7898 -1.1932 0.0021 1.6511 0 0 9.7979 -0.4579 0.0005 0 3.7914 -1.0739 0.0019 1.5318 0 0 9.5946 3.8384 0 0 -7.3058 3.838 0zm-9.7852 7.3058l0 -9.5946 0.4577 0 0 -3.7917 0 -0.0004 -0.4577 0.0004 0 -9.8 0.4577 0 0 -3.7919 -0.4577 0 -0.0399 -8.8538 -6.5175 4.8672 0 7.4962 -1.0228 0 0 8.0106 1.0228 0 0 22.764 2.7192 0 0 -7.306 3.8382 0zm136.85 -102.281l0 -22.764 1.0225 0 0 -8.0104 -1.0225 0 0 -5.0023 -7.5323 5.6248 0 10.4794 -0.4578 0 0 3.7898 -1.193 0.0021 1.6508 0 0 9.7979 -0.4578 0.0004 0 3.7915 -1.0738 0.0018 1.5316 0 0 9.5949 3.8379 0 0 -7.3059 3.6944 0zm-9.6411 7.3059l0 -9.5949 0.458 0 0 -3.7917 0 -0.0005 -0.458 0.0005 0 -9.7999 0.458 0 0 -3.7919 -0.458 0 -0.0399 -8.8747 -7.6367 5.7028 0 10.4777 -0.4577 0 0 3.7899 -1.1931 0.0021 1.6508 0 0 9.7979 -0.4577 0.0003 0 3.7915 -1.0739 0.0019 1.5316 0 0 9.5949 3.8381 0 0 -7.3059 3.8385 0zm-9.7853 7.3059l0 -9.5949 0.4579 0 0 -3.7917 0 -0.0004 -0.4579 0.0004 0 -9.7999 0.4579 0 0 -3.792 -0.4579 0 -0.04 -8.8729 -7.6365 5.7028 0 10.476 -0.4579 0 0 3.7898 -1.1931 0.0021 1.651 0 0 9.798 -0.4579 0.0004 0 3.7915 -1.0738 0.0017 1.5317 0 0 9.5947 3.8379 0 0 -7.3056 3.8386 0zm-9.7854 7.3056l0 -9.5947 0.4579 0 0 -3.7916 0 -0.0004 -0.4579 0.0004 0 -9.8 0.4579 0 0 -3.7919 -0.4579 0 -0.04 -8.8713 -7.6363 5.7028 0 10.4743 -0.4579 0 0 3.7897 -1.193 0.0021 1.6509 0 0 9.7979 -0.4579 0.0004 0 3.7915 -1.0738 0.0019 1.5317 0 0 9.5949 3.838 0 0 -7.306 3.8383 0zm-9.7851 7.306l0 -9.5949 0.4579 0 0 -3.7917 0 -0.0004 -0.4579 0.0004 0 -9.8 0.4579 0 0 -3.7918 -0.4579 0 -0.0401 -8.8698 -7.6363 5.7027 0 10.4729 -0.4579 0 0 3.7899 -1.193 0.002 1.6509 0 0 9.7979 -0.4579 0.0004 0 3.7915 -1.0738 0.0019 1.5317 0 0 9.5948 3.838 0 0 -7.3058 3.8384 0zm-9.7852 7.3058l0 -9.5948 0.4579 0 0 -3.7917 0 -0.0005 -0.4579 0.0005 0 -9.8 0.4579 0 0 -3.7919 -0.4579 0 -0.04 -8.8681 -7.6366 5.7029 0 10.4711 -0.4579 0 0 3.7899 -1.193 0.0019 1.6509 0 0 9.7981 -0.4579 0.0003 0 3.7915 -1.0738 0.0018 1.5317 0 0 9.5949 3.838 0 0 -7.3059 3.8386 0zm-9.7854 7.3059l0 -9.5949 0.4579 0 0 -3.7917 0 -0.0004 -0.4579 0.0004 0 -9.8 0.4579 0 0 -3.7918 -0.4579 0 -0.0399 -8.8665 -7.6367 5.7029 0 10.4696 -0.4578 0 0 3.7899 -1.1931 0.002 1.6509 0 0 9.7979 -0.4578 0.0005 0 3.7915 -1.0738 0.0018 1.5316 0 0 9.5945 3.8382 0 0 -7.3057 3.8384 0zm-9.7854 7.3057l0 -9.5945 0.4579 0 0 -3.7917 0 -0.0004 -0.4579 0.0004 0 -9.8 0.4579 0 0 -3.7919 -0.4579 0 -0.0398 -8.8649 -7.6365 5.7026 0 10.4681 -0.4579 0 0 3.7898 -1.1931 0.002 1.651 0 0 9.798 -0.4579 0.0003 0 3.7916 -1.0738 0.0018 1.5317 0 0 9.5947 3.8382 0 0 -7.3059 3.8381 0zm-9.7851 7.3059l0 -9.5947 0.4578 0 0 -3.7917 0 -0.0005 -0.4578 0.0005 0 -9.8 0.4578 0 0 -3.7918 -0.4578 0 -0.0399 -8.8634 -7.6365 5.7028 0 10.4664 -0.4579 0 0 3.7899 -1.193 0.0021 1.6509 0 0 9.7979 -0.4579 0.0003 0 3.7915 -1.0738 0.0019 1.5317 0 0 9.5948 3.838 0 0 -7.306 3.8384 0zm-9.7852 7.306l0 -9.5948 0.4579 0 0 -3.7917 0 -0.0005 -0.4579 0.0005 0 -9.7999 0.4579 0 0 -3.792 -0.4579 0 -0.0398 -8.8618 -7.6368 5.7029 0 10.4648 -0.4579 0 0 3.7898 -1.193 0.0021 1.6509 0 0 9.798 -0.4579 0.0003 0 3.7916 -1.0738 0.0017 1.5317 0 0 9.5947 3.8382 0 0 -7.3057 3.8384 0z"/>
 </g>
</svg>
