<?xml version="1.0" encoding="UTF-8"?>
<!DOCTYPE svg PUBLIC "-//W3C//DTD SVG 1.1//EN" "http://www.w3.org/Graphics/SVG/1.1/DTD/svg11.dtd">
<!-- Creator: CorelDRAW -->
<svg xmlns="http://www.w3.org/2000/svg" xml:space="preserve" width="210mm" height="297mm" style="shape-rendering:geometricPrecision; text-rendering:geometricPrecision; image-rendering:optimizeQuality; fill-rule:evenodd; clip-rule:evenodd"
viewBox="0 0 210 297"
 xmlns:xlink="http://www.w3.org/1999/xlink">
 <defs>
  <style type="text/css">
   <![CDATA[

   ]]>
  </style>
 </defs>
 <g id="layer_01">
  <metadata id="CorelCorpID_0Corel-Layer"/>
  <path id="layer_01_ID" class="fil0" d="M58.9238 108.101l0 10.3069 -0.5694 0 0 3.7334 -1.4836 0.0019 2.053 0 0 9.6516 -0.5694 0.0004 0 3.7349 -1.3353 0.0018 1.9047 0 0 9.4514 4.773 0 0 -7.1968 4.7731 0 0 -9.4513 0.5693 0 0 -3.7351 0 -0.0004 -0.5693 0.0004 0 -9.6537 0.5693 0 0 -3.7353 -0.5693 0 -0.0496 -8.7278 -9.4965 5.6177zm133.753 -88.4899l0.0002 0c1.0931,0 1.9871,0.7522 1.9871,1.6718l0 3.0763 0.7155 0 0 11.1449 -1.2719 0 0 7.8909 1.2719 0 0 22.424 4.5941 0 0 5.255 -183.794 109.264 -13.323 0 0 -6.5681 3.3816 0 0 -22.424 1.2716 0 0 -7.891 -1.2716 0 0 -11.1449 0.7153 0 0 -3.0763c0,-0.9196 0.894,-1.6717 1.9871,-1.6717l0.0003 0c1.0931,0 1.987,0.7521 1.987,1.6717l0 3.0763 0.7155 0 0 2.3929 178.331 -105.494 0 -4.8497 0.7152 0 0 -3.0764c0,-0.9195 0.8941,-1.6716 1.9872,-1.6716l-0.0003 -0.0008 0.0007 0.0003zm-136.374 125.373l0 -9.4514 0.5693 0 0 -3.7351 0 -0.0004 -0.5693 0.0004 0 -9.6536 0.5693 0 0 -3.7353 -0.5693 0 -0.0495 -8.7263 -9.4964 5.6176 0 10.3053 -0.5693 0 0 3.7332 -1.4835 0.0021 2.0528 0 0 9.6516 -0.5693 0.0004 0 3.7349 -1.3353 0.0018 1.9046 0 0 9.4513 4.7729 0 0 -7.1965 4.773 0zm-12.1683 7.1965l0 -9.4513 0.5696 0 0 -3.7352 0 -0.0003 -0.5696 0.0003 0 -9.6535 0.5696 0 0 -3.7353 -0.5696 0 -0.0494 -8.7247 -9.4963 5.6176 0 10.3039 -0.5694 0 0 3.7333 -1.4836 0.002 2.053 0 0 9.6516 -0.5694 0.0004 0 3.7347 -1.3354 0.0019 1.9048 0 0 9.4515 4.7728 0 0 -7.1969 4.7729 0zm-12.1681 7.1969l0 -9.4515 0.5694 0 0 -3.735 0 -0.0004 -0.5694 0.0004 0 -9.6536 0.5694 0 0 -3.7353 -0.5694 0 -0.0494 -8.7231 -9.4965 5.6177 0 10.3021 -0.5694 0 0 3.7333 -1.4837 0.002 2.0531 0 0 9.6516 -0.5694 0.0005 0 3.7348 -1.3355 0.0019 1.9049 0 0 9.4512 4.7731 0 0 -7.1966 4.7728 0zm-12.1683 7.1966l0 -9.4512 0.5693 0 0 -3.7351 0 -0.0005 -0.5693 0.0005 0 -9.6537 0.5693 0 0 -3.7353 -0.5693 0 -0.0495 -8.7215 -8.1047 4.7945 0 7.3843 -1.272 0 0 7.8909 1.272 0 0 22.424 3.3813 0 0 -7.1969 4.7729 0zm170.177 -100.754l0 -22.4241 1.2715 0 0 -7.8908 -1.2715 0 0 -4.9276 -9.3666 5.5408 0 10.3229 -0.5693 0 0 3.7332 -1.4835 0.0021 2.0528 0 0 9.6516 -0.5693 0.0004 0 3.7349 -1.3353 0.0017 1.9046 0 0 9.4516 4.7725 0 0 -7.1967 4.5941 0zm-11.989 7.1967l0 -9.4516 0.5696 0 0 -3.7351 0 -0.0004 -0.5696 0.0004 0 -9.6535 0.5696 0 0 -3.7353 -0.5696 0 -0.0496 -8.7421 -9.4964 5.6176 0 10.3213 -0.5693 0 0 3.7332 -1.4835 0.0021 2.0528 0 0 9.6516 -0.5693 0.0003 0 3.7349 -1.3353 0.0018 1.9046 0 0 9.4516 4.7728 0 0 -7.1968 4.7732 0zm-12.1682 7.1968l0 -9.4516 0.5694 0 0 -3.7351 0 -0.0003 -0.5694 0.0003 0 -9.6535 0.5694 0 0 -3.7353 -0.5694 0 -0.0498 -8.7405 -9.4963 5.6177 0 10.3195 -0.5694 0 0 3.7333 -1.4835 0.002 2.0529 0 0 9.6516 -0.5694 0.0005 0 3.7348 -1.3353 0.0018 1.9047 0 0 9.4514 4.7727 0 0 -7.1966 4.7734 0zm-12.1684 7.1966l0 -9.4514 0.5694 0 0 -3.735 0 -0.0004 -0.5694 0.0004 0 -9.6537 0.5694 0 0 -3.7353 -0.5694 0 -0.0498 -8.7388 -9.496 5.6177 0 10.3178 -0.5694 0 0 3.7331 -1.4836 0.0021 2.053 0 0 9.6516 -0.5694 0.0004 0 3.7349 -1.3353 0.0018 1.9047 0 0 9.4516 4.7726 0 0 -7.1968 4.7732 0zm-12.1682 7.1968l0 -9.4516 0.5694 0 0 -3.7351 0 -0.0004 -0.5694 0.0004 0 -9.6536 0.5694 0 0 -3.7352 -0.5694 0 -0.0498 -8.7373 -9.496 5.6175 0 10.3166 -0.5693 0 0 3.7332 -1.4836 0.002 2.0529 0 0 9.6515 -0.5693 0.0005 0 3.7348 -1.3354 0.0019 1.9047 0 0 9.4515 4.7727 0 0 -7.1967 4.7731 0zm-12.1681 7.1967l0 -9.4515 0.5694 0 0 -3.7351 0 -0.0004 -0.5694 0.0004 0 -9.6536 0.5694 0 0 -3.7352 -0.5694 0 -0.0497 -8.7357 -9.4964 5.6176 0 10.3148 -0.5693 0 0 3.7333 -1.4836 0.0019 2.0529 0 0 9.6517 -0.5693 0.0003 0 3.7349 -1.3354 0.0019 1.9047 0 0 9.4516 4.7727 0 0 -7.1969 4.7734 0zm-12.1684 7.1969l0 -9.4516 0.5694 0 0 -3.7351 0 -0.0005 -0.5694 0.0005 0 -9.6537 0.5694 0 0 -3.7352 -0.5694 0 -0.0497 -8.734 -9.4964 5.6176 0 10.3133 -0.5693 0 0 3.7334 -1.4836 0.0019 2.0529 0 0 9.6516 -0.5693 0.0004 0 3.7349 -1.3354 0.0018 1.9047 0 0 9.4512 4.7729 0 0 -7.1965 4.7732 0zm-12.1684 7.1965l0 -9.4512 0.5694 0 0 -3.735 0 -0.0005 -0.5694 0.0005 0 -9.6537 0.5694 0 0 -3.7353 -0.5694 0 -0.0496 -8.7325 -9.4962 5.6174 0 10.3118 -0.5694 0 0 3.7332 -1.4836 0.002 2.053 0 0 9.6517 -0.5694 0.0003 0 3.735 -1.3353 0.0017 1.9047 0 0 9.4514 4.7729 0 0 -7.1968 4.7729 0zm-12.1682 7.1968l0 -9.4514 0.5694 0 0 -3.7351 0 -0.0004 -0.5694 0.0004 0 -9.6536 0.5694 0 0 -3.7352 -0.5694 0 -0.0495 -8.7311 -9.4962 5.6177 0 10.3101 -0.5694 0 0 3.7333 -1.4836 0.002 2.053 0 0 9.6516 -0.5694 0.0003 0 3.7349 -1.3353 0.0019 1.9047 0 0 9.4515 4.7726 0 0 -7.1969 4.7731 0zm-12.1681 7.1969l0 -9.4515 0.5694 0 0 -3.7351 0 -0.0005 -0.5694 0.0005 0 -9.6536 0.5694 0 0 -3.7353 -0.5694 0 -0.0494 -8.7295 -9.4966 5.6178 0 10.3085 -0.5694 0 0 3.7332 -1.4836 0.0021 2.053 0 0 9.6516 -0.5694 0.0003 0 3.735 -1.3353 0.0017 1.9047 0 0 9.4514 4.7729 0 0 -7.1966 4.7731 0z"/>
 </g>
</svg>
