<?xml version="1.0" encoding="UTF-8"?>
<!DOCTYPE svg PUBLIC "-//W3C//DTD SVG 1.1//EN" "http://www.w3.org/Graphics/SVG/1.1/DTD/svg11.dtd">
<!-- Creator: CorelDRAW -->
<svg xmlns="http://www.w3.org/2000/svg" xml:space="preserve" width="297mm" height="210mm" style="shape-rendering:geometricPrecision; text-rendering:geometricPrecision; image-rendering:optimizeQuality; fill-rule:evenodd; clip-rule:evenodd"
viewBox="0 0 297 210"
 xmlns:xlink="http://www.w3.org/1999/xlink">
 <defs>
  <style type="text/css">
   <![CDATA[
   ]]>
  </style>
 </defs>
 <g id="layer_01">
  <metadata id="CorelCorpID_0Corel-Layer"/>
  <path class="layer_01_fil" id="layer_01_ID" d="M105.348 114.81l0 12.4423 -0.5783 0 0 4.5068 -1.5067 0.0024 2.085 0 0 11.6513 -0.5783 0.0005 0 4.5087 -1.3561 0.0022 1.9344 0 0 11.4096 4.8474 0 0 -8.6879 4.8473 0 0 -11.4096 0.5782 0 0 -4.5089 0 -0.0005 -0.5782 0.0005 0 -11.6537 0.5782 0 0 -4.5092 -0.5782 0 -0.0503 -10.5363 -9.6444 6.7818zm135.835 -106.824l0.0002 0c1.1101,0 2.0181,0.908 2.0181,2.0181l0 3.7137 0.7266 0 0 13.454 -1.2917 0 0 9.5258 1.2917 0 0 27.07 4.6656 0 0 6.3437 -186.656 131.903 -13.5305 0 0 -7.929 3.4343 0 0 -27.07 1.2914 0 0 -9.5258 -1.2914 0 0 -13.454 0.7264 0 0 -3.7137c0,-1.1101 0.908,-2.0181 2.018,-2.0181l0.0003 0c1.1101,0 2.0181,0.908 2.0181,2.0181l0 3.7137 0.7266 0 0 2.8887 181.108 -127.351 0 -5.8545 0.7264 0 0 -3.7137c0,-1.1101 0.908,-2.0181 2.0181,-2.0181zm-138.498 151.348l0 -11.4096 0.5782 0 0 -4.509 0 -0.0005 -0.5782 0.0005 0 -11.6537 0.5782 0 0 -4.5092 -0.5782 0 -0.0503 -10.5343 -9.6442 6.7816 0 12.4404 -0.5782 0 0 4.5067 -1.5067 0.0024 2.0849 0 0 11.6513 -0.5782 0.0005 0 4.5087 -1.3561 0.0022 1.9343 0 0 11.4096 4.8472 0 0 -8.6876 4.8473 0zm-12.3577 8.6876l0 -11.4096 0.5783 0 0 -4.509 0 -0.0004 -0.5783 0.0004 0 -11.6537 0.5783 0 0 -4.5091 -0.5783 0 -0.0502 -10.5324 -9.6442 6.7815 0 12.4387 -0.5783 0 0 4.5068 -1.5067 0.0024 2.085 0 0 11.6513 -0.5783 0.0005 0 4.5086 -1.3561 0.0022 1.9344 0 0 11.4097 4.8472 0 0 -8.6879 4.8472 0zm-12.3576 8.6879l0 -11.4097 0.5782 0 0 -4.5089 0 -0.0005 -0.5782 0.0005 0 -11.6537 0.5782 0 0 -4.5092 -0.5782 0 -0.0503 -10.5304 -9.6444 6.7816 0 12.4367 -0.5782 0 0 4.5067 -1.5068 0.0025 2.085 0 0 11.6512 -0.5782 0.0005 0 4.5087 -1.3562 0.0022 1.9344 0 0 11.4096 4.8475 0 0 -8.6878 4.8472 0zm-12.3579 8.6878l0 -11.4096 0.5782 0 0 -4.5089 0 -0.0005 -0.5782 0.0005 0 -11.6537 0.5782 0 0 -4.5092 -0.5782 0 -0.0503 -10.5285 -8.2309 5.7877 0 8.9143 -1.2917 0 0 9.5258 1.2917 0 0 27.07 3.434 0 0 -8.6879 4.8472 0zm172.827 -121.629l0 -27.07 1.2914 0 0 -9.5258 -1.2914 0 0 -5.9485 -9.5124 6.6888 0 12.4616 -0.5782 0 0 4.5068 -1.5067 0.0024 2.0849 0 0 11.6513 -0.5782 0.0005 0 4.5087 -1.3561 0.0022 1.9343 0 0 11.4098 4.8468 0 0 -8.6878 4.6656 0zm-12.1756 8.6878l0 -11.4098 0.5783 0 0 -4.509 0 -0.0005 -0.5783 0.0005 0 -11.6537 0.5783 0 0 -4.5092 -0.5783 0 -0.0505 -10.5533 -9.6442 6.7815 0 12.4597 -0.5782 0 0 4.5067 -1.5067 0.0025 2.0849 0 0 11.6513 -0.5782 0.0004 0 4.5087 -1.3561 0.0022 1.9343 0 0 11.4099 4.847 0 0 -8.6879 4.8477 0zm-12.3578 8.6879l0 -11.4099 0.5782 0 0 -4.5089 0 -0.0005 -0.5782 0.0005 0 -11.6537 0.5782 0 0 -4.5092 -0.5782 0 -0.0506 -10.5514 -9.6441 6.7816 0 12.4577 -0.5783 0 0 4.5067 -1.5067 0.0024 2.085 0 0 11.6513 -0.5783 0.0005 0 4.5087 -1.3561 0.0022 1.9344 0 0 11.4096 4.8469 0 0 -8.6876 4.8478 0zm-12.3579 8.6876l0 -11.4096 0.5782 0 0 -4.5089 0 -0.0005 -0.5782 0.0005 0 -11.6538 0.5782 0 0 -4.5091 -0.5782 0 -0.0506 -10.5495 -9.6439 6.7816 0 12.4555 -0.5782 0 0 4.5067 -1.5067 0.0025 2.0849 0 0 11.6512 -0.5782 0.0005 0 4.5087 -1.3561 0.0022 1.9343 0 0 11.4099 4.847 0 0 -8.6879 4.8475 0zm-12.3577 8.6879l0 -11.4099 0.5783 0 0 -4.5089 0 -0.0005 -0.5783 0.0005 0 -11.6537 0.5783 0 0 -4.5092 -0.5783 0 -0.0505 -10.5475 -9.6439 6.7815 0 12.4539 -0.5783 0 0 4.5067 -1.5067 0.0024 2.085 0 0 11.6513 -0.5783 0.0005 0 4.5087 -1.3561 0.0022 1.9344 0 0 11.4098 4.847 0 0 -8.6878 4.8474 0zm-12.3576 8.6878l0 -11.4098 0.5782 0 0 -4.509 0 -0.0004 -0.5782 0.0004 0 -11.6537 0.5782 0 0 -4.5091 -0.5782 0 -0.0505 -10.5456 -9.6442 6.7816 0 12.4518 -0.5782 0 0 4.5068 -1.5068 0.0024 2.085 0 0 11.6513 -0.5782 0.0005 0 4.5086 -1.3562 0.0022 1.9344 0 0 11.4099 4.847 0 0 -8.6879 4.8477 0zm-12.3579 8.6879l0 -11.4099 0.5782 0 0 -4.5089 0 -0.0005 -0.5782 0.0005 0 -11.6537 0.5782 0 0 -4.5092 -0.5782 0 -0.0505 -10.5436 -9.6442 6.7816 0 12.4501 -0.5782 0 0 4.5068 -1.5067 0.0024 2.0849 0 0 11.6513 -0.5782 0.0005 0 4.5086 -1.3561 0.0022 1.9343 0 0 11.4094 4.8472 0 0 -8.6876 4.8475 0zm-12.3579 8.6876l0 -11.4094 0.5783 0 0 -4.5089 0 -0.0005 -0.5783 0.0005 0 -11.6537 0.5783 0 0 -4.5092 -0.5783 0 -0.0503 -10.5419 -9.6441 6.7814 0 12.4481 -0.5783 0 0 4.5068 -1.5067 0.0024 2.085 0 0 11.6513 -0.5783 0.0005 0 4.5087 -1.3561 0.0022 1.9344 0 0 11.4096 4.8472 0 0 -8.6879 4.8472 0zm-12.3576 8.6879l0 -11.4096 0.5782 0 0 -4.509 0 -0.0005 -0.5782 0.0005 0 -11.6537 0.5782 0 0 -4.5092 -0.5782 0 -0.0503 -10.5399 -9.6442 6.7816 0 12.4462 -0.5782 0 0 4.5067 -1.5067 0.0025 2.0849 0 0 11.6513 -0.5782 0.0004 0 4.5087 -1.3561 0.0022 1.9343 0 0 11.4097 4.847 0 0 -8.6879 4.8475 0zm-12.3577 8.6879l0 -11.4097 0.5783 0 0 -4.5089 0 -0.0005 -0.5783 0.0005 0 -11.6537 0.5783 0 0 -4.5092 -0.5783 0 -0.0502 -10.5382 -9.6445 6.7818 0 12.4443 -0.5782 0 0 4.5067 -1.5067 0.0025 2.0849 0 0 11.6512 -0.5782 0.0005 0 4.5087 -1.3561 0.0022 1.9343 0 0 11.4096 4.8473 0 0 -8.6878 4.8474 0z"/>
 </g>
</svg>
