<?xml version="1.0" encoding="UTF-8"?>
<!DOCTYPE svg PUBLIC "-//W3C//DTD SVG 1.1//EN" "http://www.w3.org/Graphics/SVG/1.1/DTD/svg11.dtd">
<!-- Creator: CorelDRAW -->
<svg xmlns="http://www.w3.org/2000/svg" xml:space="preserve" width="210mm" height="297mm" style="shape-rendering:geometricPrecision; text-rendering:geometricPrecision; image-rendering:optimizeQuality; fill-rule:evenodd; clip-rule:evenodd"
viewBox="0 0 210 297"
 xmlns:xlink="http://www.w3.org/1999/xlink">
 <defs>
  <style type="text/css">
   <![CDATA[

   ]]>
  </style>
 </defs>
 <g id="layer_01">
  <metadata id="CorelCorpID_0Corel-Layer"/>
  <g id="_205895512">
   <polygon id="_203055736" class="fil0" points="107.633,65.5279 107.633,103.288 106.403,103.288 106.403,65.7862 "/>
   <g>
    <polygon id="_205898224" class="fil0" points="106.403,96.6607 139.222,96.6607 139.222,98.302 106.403,98.302 "/>
    <polygon id="_205898056" class="fil0" points="106.403,98.3025 139.222,98.3025 139.222,99.9439 106.403,99.9439 "/>
   </g>
   <path id="_203055976" class="fil0" d="M163.75 51.6754l0 41.6418 -2.7449 0 0 -40.6673c0.9522,-0.3227 1.863,-0.6478 2.7449,-0.9745z"/>
   <path id="_203061856" class="fil0" d="M139.222 58.6476l0 38.0127 -2.7449 0 0 -37.37c0.923,-0.2136 1.838,-0.4279 2.7449,-0.6427z"/>
   <path id="_203060152" class="fil0" d="M50.5743 83.4696c5.552,-13.8444 124.492,-24.5553 126.139,-40.8935 0.6161,-7.4862 -28.6504,-14.4088 -46.4278,-17.1147 0.2895,0.0905 0.5042,0.4192 0.5042,0.8109 0,0.4615 -0.2979,0.8357 -0.6654,0.8357 17.695,2.6896 42.9565,9.2989 43.8442,15.4681 -4.2161,14.6756 -122.339,26.0899 -126.139,40.8935l2.7448 0z"/>
   <polygon id="_26648768" class="fil0" points="107.692,9.2421 116.334,9.2421 116.334,156.571 107.692,156.571 "/>
   <g>
    <polygon id="_203060032" class="fil0" points="107.692,149.674 50.5743,149.674 50.5743,151.316 107.692,151.316 "/>
    <polygon id="_26648336" class="fil0" points="107.692,151.316 50.5743,151.316 50.5743,152.958 107.692,152.958 "/>
   </g>
   <g>
    <polygon id="_203062168" class="fil0" points="107.692,143.048 50.5743,143.048 50.5743,144.689 107.692,144.689 "/>
    <polygon id="_203061136" class="fil0" points="107.692,144.69 50.5743,144.69 50.5743,146.331 107.692,146.331 "/>
   </g>
   <g>
    <polygon id="_203061040" class="fil0" points="107.692,136.421 50.5743,136.421 50.5743,138.063 107.692,138.063 "/>
    <polygon id="_203061160" class="fil0" points="107.692,138.063 50.5743,138.063 50.5743,139.705 107.692,139.705 "/>
   </g>
   <g>
    <polygon id="_203056336" class="fil0" points="107.692,129.794 50.5743,129.794 50.5743,131.436 107.692,131.436 "/>
    <polygon id="_203056456" class="fil0" points="107.692,131.436 50.5743,131.436 50.5743,133.078 107.692,133.078 "/>
   </g>
   <g>
    <polygon id="_203057224" class="fil0" points="107.692,123.168 50.5743,123.168 50.5743,124.809 107.692,124.809 "/>
    <polygon id="_203061568" class="fil0" points="107.692,124.809 50.5743,124.809 50.5743,126.451 107.692,126.451 "/>
   </g>
   <g>
    <polygon id="_203062144" class="fil0" points="107.692,116.541 50.5743,116.541 50.5743,118.183 107.692,118.183 "/>
    <polygon id="_203056048" class="fil0" points="107.692,118.183 50.5743,118.183 50.5743,119.825 107.692,119.825 "/>
   </g>
   <g>
    <polygon id="_205898176" class="fil0" points="116.334,90.0339 163.75,90.0339 163.75,91.6757 116.334,91.6757 "/>
    <polygon id="_205898032" class="fil0" points="116.334,91.6757 163.75,91.6757 163.75,93.317 116.334,93.317 "/>
   </g>
   <g>
    <polygon id="_205899640" class="fil0" points="114.579,83.407 173.969,83.407 173.969,85.0489 114.579,85.0489 "/>
    <polygon id="_205897960" class="fil0" points="114.579,85.0489 173.969,85.0489 173.969,86.6907 114.579,86.6907 "/>
   </g>
   <g>
    <polygon id="_205897096" class="fil0" points="112.827,76.7802 171.224,76.7802 171.224,78.422 112.827,78.422 "/>
    <polygon id="_205894936" class="fil0" points="112.827,78.422 171.224,78.422 171.224,80.0639 112.827,80.0639 "/>
   </g>
   <g>
    <polygon id="_205898920" class="fil0" points="111.074,70.1533 171.224,70.1533 171.224,71.7952 111.074,71.7952 "/>
    <polygon id="_205897912" class="fil0" points="111.074,71.7952 171.224,71.7952 171.224,73.4371 111.074,73.4371 "/>
   </g>
   <g>
    <polygon id="_205896112" class="fil0" points="109.324,63.527 154.289,63.527 154.289,65.1684 109.324,65.1684 "/>
    <polygon id="_205896808" class="fil0" points="109.324,65.1684 154.289,65.1684 154.289,66.8102 109.324,66.8102 "/>
   </g>
   <polygon id="_205894120" class="fil0" points="94.1384,17.3308 96.883,17.3308 96.883,56.9001 94.1384,56.9001 "/>
   <polygon id="_205894168" class="fil0" points="52.841,17.3308 52.841,15.8279 107.692,15.8279 107.692,17.3308 "/>
   <polygon id="_205894792" class="fil0" points="63.7716,17.3308 66.5165,17.3308 66.5165,56.9001 63.7716,56.9001 "/>
   <polygon id="_205895344" class="fil0" points="134.201,27.7766 134.201,66.8102 131.456,66.8102 131.456,27.3181 "/>
   <polygon id="_203060224" class="fil0" points="131.163,63.527 134.491,63.527 134.491,66.8102 131.163,66.8102 "/>
   <polygon id="_26650256" class="fil0" points="157.034,33.1252 157.034,73.4371 154.289,73.4371 154.289,32.3138 "/>
   <polygon id="_205895584" class="fil0" points="153.998,70.1533 157.324,70.1533 157.324,73.4371 153.998,73.4371 "/>
   <path id="_205895056" class="fil0" d="M176.714 42.5761l0 44.1144 -2.7449 0 0 -40.1239c1.6468,-1.2941 2.607,-2.6226 2.7449,-3.9905z"/>
   <polygon id="_205896664" class="fil0" points="173.677,83.407 177.006,83.407 177.006,86.6907 173.677,86.6907 "/>
   <polygon id="_205895464" class="fil0" points="160.714,90.0339 164.04,90.0339 164.04,93.317 160.714,93.317 "/>
   <path id="_205896880" class="fil0" d="M79.6102 71.7035l0 38.2104 -2.7447 0 0 -37.5341c0.9003,-0.2257 1.8153,-0.4511 2.7447,-0.6763z"/>
   <path id="_205893784" class="fil0" d="M58.0496 78.1871l0 38.3535 -2.7448 0 0 -37.0771c0.8252,-0.4277 1.7413,-0.853 2.7448,-1.2764z"/>
   <polygon id="_203059600" class="fil0" points="47.8295,83.4696 50.5743,83.4696 50.5743,119.825 47.8295,119.825 "/>
   <polygon id="_205896280" class="fil0" points="47.8295,119.824 50.5743,119.824 50.5743,156.179 47.8295,156.179 "/>
   <polygon id="_205895848" class="fil0" points="107.692,119.824 110.437,119.824 110.437,156.179 107.692,156.179 "/>
   <g>
    <polygon id="_205896304" class="fil0" points="58.5179,56.9001 134.201,56.9001 134.201,58.5415 58.5179,58.5415 "/>
    <polygon id="_205894576" class="fil0" points="58.5179,58.5421 134.201,58.5421 134.201,60.1834 58.5179,60.1834 "/>
   </g>
   <path id="_26646728" class="fil0" d="M173.969 42.5761l0 37.4876 -2.745 0 0 -40.8951c1.602,1.1328 2.5823,2.2775 2.745,3.4075z"/>
   <polygon id="_205897120" class="fil0" points="170.932,76.7802 174.261,76.7802 174.261,80.0639 170.932,80.0639 "/>
   <polygon id="_205893592" class="fil0" points="107.692,83.4696 110.437,83.4696 110.437,119.825 107.692,119.825 "/>
   <g>
    <polygon id="_205899664" class="fil0" points="107.692,103.288 78.1382,103.288 78.1382,104.929 107.692,104.929 "/>
    <polygon id="_205894336" class="fil0" points="107.692,104.93 78.1382,104.93 78.1382,106.571 107.692,106.571 "/>
   </g>
   <g>
    <polygon id="_205896928" class="fil0" points="107.692,109.915 57.4648,109.915 57.4648,111.556 107.692,111.556 "/>
    <polygon id="_205896904" class="fil0" points="107.692,111.556 57.4648,111.556 57.4648,113.198 107.692,113.198 "/>
   </g>
   <path id="_205894768" class="fil0" d="M130.124 25.4365c0.3675,0 0.6654,0.3742 0.6654,0.8358 0,0.4615 -0.2979,0.8357 -0.6654,0.8357 -0.3675,0 -0.6654,-0.3742 -0.6654,-0.8357 0,-0.4616 0.2979,-0.8358 0.6654,-0.8358z"/>
  </g>
 </g>
</svg>
