<?xml version="1.0" encoding="UTF-8"?>
<!DOCTYPE svg PUBLIC "-//W3C//DTD SVG 1.1//EN" "http://www.w3.org/Graphics/SVG/1.1/DTD/svg11.dtd">
<!-- Creator: CorelDRAW -->
<svg xmlns="http://www.w3.org/2000/svg" xml:space="preserve" width="210mm" height="297mm" style="shape-rendering:geometricPrecision; text-rendering:geometricPrecision; image-rendering:optimizeQuality; fill-rule:evenodd; clip-rule:evenodd"
viewBox="0 0 210 297"
 xmlns:xlink="http://www.w3.org/1999/xlink">
 <defs>
  <style type="text/css">
   <![CDATA[

   ]]>
  </style>
 </defs>
 <g id="layer_01">
  <metadata id="CorelCorpID_0Corel-Layer"/>
  <path id="layer_01_ID" class="fil0" d="M58.9238 87.8147l0 7.9441 -0.5694 0 0 2.8775 -1.4836 0.0015 2.053 0 0 7.439 -0.5694 0.0003 0 2.8787 -1.3353 0.0014 1.9047 0 0 7.2847 4.773 0 0 -5.547 4.7731 0 0 -7.2846 0.5693 0 0 -2.8789 0 -0.0003 -0.5693 0.0003 0 -7.4406 0.5693 0 0 -2.879 -0.5693 0 -0.0496 -6.7271 -9.4965 4.33zm133.753 -68.2041l0.0002 0c1.0931,0 1.9871,0.5797 1.9871,1.2885l0 2.3711 0.7155 0 0 8.5899 -1.2719 0 0 6.082 1.2719 0 0 17.2835 4.5941 0 0 4.0502 -183.794 84.2162 -13.323 0 0 -5.0624 3.3816 0 0 -17.2835 1.2716 0 0 -6.0819 -1.2716 0 0 -8.5901 0.7153 0 0 -2.3711c0,-0.7087 0.894,-1.2884 1.9871,-1.2884l0.0003 0c1.0931,0 1.987,0.5797 1.987,1.2884l0 2.3711 0.7155 0 0 1.8444 178.331 -81.3101 0 -3.738 0.7152 0 0 -2.3711c0,-0.7087 0.8941,-1.2884 1.9872,-1.2884l-0.0003 -0.0006 0.0007 0.0003zm-136.374 96.6316l0 -7.2847 0.5693 0 0 -2.8789 0 -0.0003 -0.5693 0.0003 0 -7.4405 0.5693 0 0 -2.879 -0.5693 0 -0.0495 -6.7259 -9.4964 4.3299 0 7.9428 -0.5693 0 0 2.8774 -1.4835 0.0016 2.0528 0 0 7.439 -0.5693 0.0004 0 2.8786 -1.3353 0.0014 1.9046 0 0 7.2847 4.7729 0 0 -5.5468 4.773 0zm-12.1683 5.5468l0 -7.2847 0.5696 0 0 -2.8789 0 -0.0002 -0.5696 0.0002 0 -7.4405 0.5696 0 0 -2.879 -0.5696 0 -0.0494 -6.7246 -9.4963 4.3298 0 7.9417 -0.5694 0 0 2.8776 -1.4836 0.0015 2.053 0 0 7.439 -0.5694 0.0003 0 2.8786 -1.3354 0.0014 1.9048 0 0 7.2848 4.7728 0 0 -5.547 4.7729 0zm-12.1681 5.547l0 -7.2848 0.5694 0 0 -2.8787 0 -0.0004 -0.5694 0.0004 0 -7.4406 0.5694 0 0 -2.8791 -0.5694 0 -0.0494 -6.7233 -9.4965 4.3299 0 7.9404 -0.5694 0 0 2.8774 -1.4837 0.0016 2.0531 0 0 7.439 -0.5694 0.0004 0 2.8786 -1.3355 0.0015 1.9049 0 0 7.2846 4.7731 0 0 -5.5469 4.7728 0zm-12.1683 5.5469l0 -7.2846 0.5693 0 0 -2.8789 0 -0.0003 -0.5693 0.0003 0 -7.4406 0.5693 0 0 -2.879 -0.5693 0 -0.0495 -6.7222 -8.1047 3.6954 0 5.6915 -1.272 0 0 6.082 1.272 0 0 17.2834 3.3813 0 0 -5.547 4.7729 0zm170.177 -77.6568l0 -17.2834 1.2715 0 0 -6.0819 -1.2715 0 0 -3.798 -9.3666 4.2706 0 7.9564 -0.5693 0 0 2.8775 -1.4835 0.0015 2.0528 0 0 7.4391 -0.5693 0.0003 0 2.8787 -1.3353 0.0013 1.9046 0 0 7.2849 4.7725 0 0 -5.547 4.5941 0zm-11.989 5.547l0 -7.2849 0.5696 0 0 -2.8788 0 -0.0004 -0.5696 0.0004 0 -7.4406 0.5696 0 0 -2.879 -0.5696 0 -0.0496 -6.738 -9.4964 4.3298 0 7.9552 -0.5693 0 0 2.8774 -1.4835 0.0016 2.0528 0 0 7.439 -0.5693 0.0003 0 2.8786 -1.3353 0.0015 1.9046 0 0 7.2848 4.7728 0 0 -5.5469 4.7732 0zm-12.1682 5.5469l0 -7.2848 0.5694 0 0 -2.8789 0 -0.0002 -0.5694 0.0002 0 -7.4405 0.5694 0 0 -2.879 -0.5694 0 -0.0498 -6.7368 -9.4963 4.3299 0 7.9538 -0.5694 0 0 2.8775 -1.4835 0.0015 2.0529 0 0 7.4391 -0.5694 0.0003 0 2.8787 -1.3353 0.0013 1.9047 0 0 7.2847 4.7727 0 0 -5.5468 4.7734 0zm-12.1684 5.5468l0 -7.2847 0.5694 0 0 -2.8787 0 -0.0004 -0.5694 0.0004 0 -7.4407 0.5694 0 0 -2.879 -0.5694 0 -0.0498 -6.7355 -9.496 4.3299 0 7.9525 -0.5694 0 0 2.8773 -1.4836 0.0016 2.053 0 0 7.4391 -0.5694 0.0003 0 2.8787 -1.3353 0.0014 1.9047 0 0 7.2849 4.7726 0 0 -5.5471 4.7732 0zm-12.1682 5.5471l0 -7.2849 0.5694 0 0 -2.8789 0 -0.0003 -0.5694 0.0003 0 -7.4406 0.5694 0 0 -2.8789 -0.5694 0 -0.0498 -6.7343 -9.496 4.3297 0 7.9516 -0.5693 0 0 2.8774 -1.4836 0.0015 2.0529 0 0 7.439 -0.5693 0.0003 0 2.8787 -1.3354 0.0014 1.9047 0 0 7.2848 4.7727 0 0 -5.5468 4.7731 0zm-12.1681 5.5468l0 -7.2848 0.5694 0 0 -2.8788 0 -0.0003 -0.5694 0.0003 0 -7.4406 0.5694 0 0 -2.8789 -0.5694 0 -0.0497 -6.7331 -9.4964 4.3298 0 7.9502 -0.5693 0 0 2.8774 -1.4836 0.0015 2.0529 0 0 7.4391 -0.5693 0.0003 0 2.8787 -1.3354 0.0014 1.9047 0 0 7.2849 4.7727 0 0 -5.5471 4.7734 0zm-12.1684 5.5471l0 -7.2849 0.5694 0 0 -2.8789 0 -0.0003 -0.5694 0.0003 0 -7.4406 0.5694 0 0 -2.8789 -0.5694 0 -0.0497 -6.7318 -9.4964 4.3298 0 7.9491 -0.5693 0 0 2.8775 -1.4836 0.0015 2.0529 0 0 7.439 -0.5693 0.0003 0 2.8787 -1.3354 0.0014 1.9047 0 0 7.2846 4.7729 0 0 -5.5468 4.7732 0zm-12.1684 5.5468l0 -7.2846 0.5694 0 0 -2.8788 0 -0.0004 -0.5694 0.0004 0 -7.4406 0.5694 0 0 -2.879 -0.5694 0 -0.0496 -6.7307 -9.4962 4.3297 0 7.9478 -0.5694 0 0 2.8774 -1.4836 0.0015 2.053 0 0 7.4392 -0.5694 0.0002 0 2.8788 -1.3353 0.0013 1.9047 0 0 7.2847 4.7729 0 0 -5.5469 4.7729 0zm-12.1682 5.5469l0 -7.2847 0.5694 0 0 -2.8788 0 -0.0004 -0.5694 0.0004 0 -7.4407 0.5694 0 0 -2.8789 -0.5694 0 -0.0495 -6.7295 -9.4962 4.3299 0 7.9466 -0.5694 0 0 2.8774 -1.4836 0.0016 2.053 0 0 7.439 -0.5694 0.0003 0 2.8786 -1.3353 0.0014 1.9047 0 0 7.2848 4.7726 0 0 -5.547 4.7731 0zm-12.1681 5.547l0 -7.2848 0.5694 0 0 -2.8788 0 -0.0003 -0.5694 0.0003 0 -7.4405 0.5694 0 0 -2.879 -0.5694 0 -0.0494 -6.7284 -9.4966 4.33 0 7.9453 -0.5694 0 0 2.8774 -1.4836 0.0016 2.053 0 0 7.4391 -0.5694 0.0002 0 2.8788 -1.3353 0.0013 1.9047 0 0 7.2847 4.7729 0 0 -5.5469 4.7731 0z"/>
 </g>
</svg>
