<?xml version="1.0" encoding="UTF-8"?>
<!DOCTYPE svg PUBLIC "-//W3C//DTD SVG 1.1//EN" "http://www.w3.org/Graphics/SVG/1.1/DTD/svg11.dtd">
<!-- Creator: CorelDRAW -->
<svg xmlns="http://www.w3.org/2000/svg" xml:space="preserve" width="210mm" height="297mm" style="shape-rendering:geometricPrecision; text-rendering:geometricPrecision; image-rendering:optimizeQuality; fill-rule:evenodd; clip-rule:evenodd"
viewBox="0 0 210 297"
 xmlns:xlink="http://www.w3.org/1999/xlink">
 <defs>
  <style type="text/css">
   <![CDATA[

   ]]>
  </style>
 </defs>
 <g id="layer_01">
  <metadata id="CorelCorpID_0Corel-Layer"/>
  <path id="layer_01_ID" class="fil0" d="M66.0961 84.7006l0 7.9441 -0.4579 0 0 2.8775 -1.193 0.0015 1.6509 0 0 7.439 -0.4579 0.0003 0 2.8787 -1.0738 0.0014 1.5317 0 0 7.2848 3.8383 0 0 -5.5471 3.8383 0 0 -7.2846 0.4578 0 0 -2.8789 0 -0.0003 -0.4578 0.0003 0 -7.4406 0.4578 0 0 -2.879 -0.4578 0 -0.0399 -6.727 -7.6367 4.3299zm107.559 -68.2041l0.0002 0c0.879,0 1.5979,0.5797 1.5979,1.2885l0 2.3711 0.5754 0 0 8.5899 -1.0228 0 0 6.082 1.0228 0 0 17.2835 3.6944 0 0 4.0502 -147.801 84.2162 -10.7139 0 0 -5.0624 2.7194 0 0 -17.2835 1.0225 0 0 -6.0819 -1.0225 0 0 -8.5901 0.5752 0 0 -2.3711c0,-0.7087 0.7189,-1.2884 1.5979,-1.2884l0.0002 0c0.8791,0 1.598,0.5797 1.598,1.2884l0 2.3711 0.5753 0 0 1.8444 143.407 -81.3101 0 -3.738 0.5751 0 0 -2.3711c0,-0.7087 0.719,-1.2884 1.5981,-1.2884l-0.0002 -0.0006 0.0005 0.0003zm-109.667 96.6316l0 -7.2847 0.4578 0 0 -2.8789 0 -0.0003 -0.4578 0.0003 0 -7.4405 0.4578 0 0 -2.879 -0.4578 0 -0.0398 -6.7259 -7.6367 4.3299 0 7.9428 -0.4578 0 0 2.8774 -1.193 0.0016 1.6508 0 0 7.439 -0.4578 0.0004 0 2.8786 -1.0738 0.0015 1.5316 0 0 7.2846 3.8382 0 0 -5.5468 3.8383 0zm-9.7853 5.5468l0 -7.2846 0.458 0 0 -2.879 0 -0.0002 -0.458 0.0002 0 -7.4405 0.458 0 0 -2.879 -0.458 0 -0.0397 -6.7246 -7.6366 4.3298 0 7.9418 -0.4579 0 0 2.8775 -1.1931 0.0015 1.651 0 0 7.439 -0.4579 0.0003 0 2.8786 -1.0738 0.0014 1.5317 0 0 7.2848 3.8381 0 0 -5.547 3.8382 0zm-9.7852 5.547l0 -7.2848 0.4579 0 0 -2.8787 0 -0.0004 -0.4579 0.0004 0 -7.4406 0.4579 0 0 -2.879 -0.4579 0 -0.0397 -6.7234 -7.6367 4.3299 0 7.9404 -0.4579 0 0 2.8774 -1.1932 0.0016 1.6511 0 0 7.439 -0.4579 0.0004 0 2.8786 -1.0739 0.0015 1.5318 0 0 7.2846 3.8384 0 0 -5.5469 3.838 0zm-9.7852 5.5469l0 -7.2846 0.4577 0 0 -2.8789 0 -0.0003 -0.4577 0.0003 0 -7.4406 0.4577 0 0 -2.879 -0.4577 0 -0.0399 -6.7221 -6.5175 3.6953 0 5.6915 -1.0228 0 0 6.082 1.0228 0 0 17.2834 2.7192 0 0 -5.547 3.8382 0zm136.85 -77.6568l0 -17.2834 1.0225 0 0 -6.0819 -1.0225 0 0 -3.798 -7.5323 4.2706 0 7.9564 -0.4578 0 0 2.8775 -1.193 0.0015 1.6508 0 0 7.4391 -0.4578 0.0003 0 2.8787 -1.0738 0.0013 1.5316 0 0 7.2849 3.8379 0 0 -5.547 3.6944 0zm-9.6411 5.547l0 -7.2849 0.458 0 0 -2.8788 0 -0.0004 -0.458 0.0004 0 -7.4406 0.458 0 0 -2.879 -0.458 0 -0.0399 -6.738 -7.6367 4.3298 0 7.9552 -0.4577 0 0 2.8774 -1.1931 0.0016 1.6508 0 0 7.439 -0.4577 0.0003 0 2.8786 -1.0739 0.0015 1.5316 0 0 7.2849 3.8381 0 0 -5.547 3.8385 0zm-9.7853 5.547l0 -7.2849 0.4579 0 0 -2.8789 0 -0.0002 -0.4579 0.0002 0 -7.4405 0.4579 0 0 -2.879 -0.4579 0 -0.04 -6.7368 -7.6365 4.3299 0 7.9538 -0.4579 0 0 2.8775 -1.1931 0.0016 1.651 0 0 7.439 -0.4579 0.0003 0 2.8787 -1.0738 0.0013 1.5317 0 0 7.2847 3.8379 0 0 -5.5467 3.8386 0zm-9.7854 5.5467l0 -7.2847 0.4579 0 0 -2.8787 0 -0.0004 -0.4579 0.0004 0 -7.4406 0.4579 0 0 -2.8791 -0.4579 0 -0.04 -6.7355 -7.6363 4.3299 0 7.9525 -0.4579 0 0 2.8774 -1.193 0.0015 1.6509 0 0 7.4391 -0.4579 0.0003 0 2.8787 -1.0738 0.0014 1.5317 0 0 7.2849 3.838 0 0 -5.5471 3.8383 0zm-9.7851 5.5471l0 -7.2849 0.4579 0 0 -2.8789 0 -0.0003 -0.4579 0.0003 0 -7.4406 0.4579 0 0 -2.8789 -0.4579 0 -0.0401 -6.7343 -7.6363 4.3297 0 7.9516 -0.4579 0 0 2.8774 -1.193 0.0015 1.6509 0 0 7.439 -0.4579 0.0003 0 2.8787 -1.0738 0.0014 1.5317 0 0 7.2848 3.838 0 0 -5.5468 3.8384 0zm-9.7852 5.5468l0 -7.2848 0.4579 0 0 -2.8788 0 -0.0003 -0.4579 0.0003 0 -7.4406 0.4579 0 0 -2.8789 -0.4579 0 -0.04 -6.7331 -7.6366 4.3298 0 7.9502 -0.4579 0 0 2.8774 -1.193 0.0015 1.6509 0 0 7.4392 -0.4579 0.0002 0 2.8787 -1.0738 0.0014 1.5317 0 0 7.2849 3.838 0 0 -5.5471 3.8386 0zm-9.7854 5.5471l0 -7.2849 0.4579 0 0 -2.8788 0 -0.0004 -0.4579 0.0004 0 -7.4407 0.4579 0 0 -2.8789 -0.4579 0 -0.0399 -6.7318 -7.6367 4.3298 0 7.9491 -0.4578 0 0 2.8775 -1.1931 0.0015 1.6509 0 0 7.439 -0.4578 0.0003 0 2.8787 -1.0738 0.0014 1.5316 0 0 7.2846 3.8382 0 0 -5.5468 3.8384 0zm-9.7854 5.5468l0 -7.2846 0.4579 0 0 -2.8788 0 -0.0004 -0.4579 0.0004 0 -7.4406 0.4579 0 0 -2.879 -0.4579 0 -0.0398 -6.7307 -7.6365 4.3297 0 7.9478 -0.4579 0 0 2.8774 -1.1931 0.0015 1.651 0 0 7.4392 -0.4579 0.0002 0 2.8788 -1.0738 0.0013 1.5317 0 0 7.2847 3.8382 0 0 -5.5469 3.8381 0zm-9.7851 5.5469l0 -7.2847 0.4578 0 0 -2.8788 0 -0.0004 -0.4578 0.0004 0 -7.4407 0.4578 0 0 -2.8789 -0.4578 0 -0.0399 -6.7295 -7.6365 4.3299 0 7.9466 -0.4579 0 0 2.8774 -1.193 0.0016 1.6509 0 0 7.439 -0.4579 0.0003 0 2.8786 -1.0738 0.0014 1.5317 0 0 7.2849 3.838 0 0 -5.5471 3.8384 0zm-9.7852 5.5471l0 -7.2849 0.4579 0 0 -2.8788 0 -0.0003 -0.4579 0.0003 0 -7.4405 0.4579 0 0 -2.879 -0.4579 0 -0.0398 -6.7284 -7.6368 4.33 0 7.9453 -0.4579 0 0 2.8774 -1.193 0.0016 1.6509 0 0 7.4391 -0.4579 0.0002 0 2.8788 -1.0738 0.0013 1.5317 0 0 7.2847 3.8382 0 0 -5.5468 3.8384 0z"/>
 </g>
</svg>
