<?xml version="1.0" encoding="UTF-8"?>
<!DOCTYPE svg PUBLIC "-//W3C//DTD SVG 1.1//EN" "http://www.w3.org/Graphics/SVG/1.1/DTD/svg11.dtd">
<!-- Creator: CorelDRAW -->
<svg xmlns="http://www.w3.org/2000/svg" xml:space="preserve" width="210mm" height="297mm" style="shape-rendering:geometricPrecision; text-rendering:geometricPrecision; image-rendering:optimizeQuality; fill-rule:evenodd; clip-rule:evenodd"
viewBox="0 0 210 297"
 xmlns:xlink="http://www.w3.org/1999/xlink">
 <defs>
  <style type="text/css">
   <![CDATA[

   ]]>
  </style>
 </defs>
 <g id="layer_01">
  <metadata id="CorelCorpID_0Corel-Layer"/>
  <g id="_205895512">
   <polygon id="_203055736" class="fil0" points="107.633,75.9018 107.633,120.621 106.403,120.621 106.403,76.2077 "/>
   <g>
    <polygon id="_205898224" class="fil0" points="106.403,112.773 139.222,112.773 139.222,114.717 106.403,114.717 "/>
    <polygon id="_205898056" class="fil0" points="106.403,114.717 139.222,114.717 139.222,116.661 106.403,116.661 "/>
   </g>
   <path id="_203055976" class="fil0" d="M163.75 59.4962l0 49.3167 -2.7449 0 0 -48.1626c0.9522,-0.3822 1.863,-0.7672 2.7449,-1.1541z"/>
   <path id="_203061856" class="fil0" d="M139.222 67.7534l0 45.0188 -2.7449 0 0 -44.2576c0.923,-0.253 1.838,-0.5068 2.7449,-0.7612z"/>
   <path id="_203060152" class="fil0" d="M50.5743 97.1503c5.552,-16.396 124.492,-29.081 126.139,-48.4305 0.6161,-8.8659 -28.6504,-17.0644 -46.4278,-20.269 0.2895,0.1071 0.5042,0.4964 0.5042,0.9603 0,0.5466 -0.2979,0.9897 -0.6654,0.9897 17.695,3.1853 42.9565,11.0128 43.8442,18.319 -4.2161,17.3805 -122.339,30.8985 -126.139,48.4305l2.7448 0z"/>
   <polygon id="_26648768" class="fil0" points="107.692,9.2421 116.334,9.2421 116.334,183.725 107.692,183.725 "/>
   <g>
    <polygon id="_203060032" class="fil0" points="107.692,175.557 50.5743,175.557 50.5743,177.501 107.692,177.501 "/>
    <polygon id="_26648336" class="fil0" points="107.692,177.501 50.5743,177.501 50.5743,179.446 107.692,179.446 "/>
   </g>
   <g>
    <polygon id="_203062168" class="fil0" points="107.692,167.709 50.5743,167.709 50.5743,169.653 107.692,169.653 "/>
    <polygon id="_203061136" class="fil0" points="107.692,169.654 50.5743,169.654 50.5743,171.598 107.692,171.598 "/>
   </g>
   <g>
    <polygon id="_203061040" class="fil0" points="107.692,159.861 50.5743,159.861 50.5743,161.806 107.692,161.806 "/>
    <polygon id="_203061160" class="fil0" points="107.692,161.806 50.5743,161.806 50.5743,163.75 107.692,163.75 "/>
   </g>
   <g>
    <polygon id="_203056336" class="fil0" points="107.692,152.013 50.5743,152.013 50.5743,153.957 107.692,153.957 "/>
    <polygon id="_203056456" class="fil0" points="107.692,153.957 50.5743,153.957 50.5743,155.902 107.692,155.902 "/>
   </g>
   <g>
    <polygon id="_203057224" class="fil0" points="107.692,144.165 50.5743,144.165 50.5743,146.109 107.692,146.109 "/>
    <polygon id="_203061568" class="fil0" points="107.692,146.109 50.5743,146.109 50.5743,148.054 107.692,148.054 "/>
   </g>
   <g>
    <polygon id="_203062144" class="fil0" points="107.692,136.317 50.5743,136.317 50.5743,138.262 107.692,138.262 "/>
    <polygon id="_203056048" class="fil0" points="107.692,138.262 50.5743,138.262 50.5743,140.206 107.692,140.206 "/>
   </g>
   <g>
    <polygon id="_205898176" class="fil0" points="116.334,104.924 163.75,104.924 163.75,106.869 116.334,106.869 "/>
    <polygon id="_205898032" class="fil0" points="116.334,106.869 163.75,106.869 163.75,108.813 116.334,108.813 "/>
   </g>
   <g>
    <polygon id="_205899640" class="fil0" points="114.579,97.0762 173.969,97.0762 173.969,99.0207 114.579,99.0207 "/>
    <polygon id="_205897960" class="fil0" points="114.579,99.0207 173.969,99.0207 173.969,100.965 114.579,100.965 "/>
   </g>
   <g>
    <polygon id="_205897096" class="fil0" points="112.827,89.228 171.224,89.228 171.224,91.1724 112.827,91.1724 "/>
    <polygon id="_205894936" class="fil0" points="112.827,91.1724 171.224,91.1724 171.224,93.1169 112.827,93.1169 "/>
   </g>
   <g>
    <polygon id="_205898920" class="fil0" points="111.074,81.3797 171.224,81.3797 171.224,83.3243 111.074,83.3243 "/>
    <polygon id="_205897912" class="fil0" points="111.074,83.3243 171.224,83.3243 171.224,85.2688 111.074,85.2688 "/>
   </g>
   <g>
    <polygon id="_205896112" class="fil0" points="109.324,73.5322 154.289,73.5322 154.289,75.4761 109.324,75.4761 "/>
    <polygon id="_205896808" class="fil0" points="109.324,75.4761 154.289,75.4761 154.289,77.4205 109.324,77.4205 "/>
   </g>
   <polygon id="_205894120" class="fil0" points="94.1384,18.8216 96.883,18.8216 96.883,65.6839 94.1384,65.6839 "/>
   <polygon id="_205894168" class="fil0" points="52.841,18.8216 52.841,17.0417 107.692,17.0417 107.692,18.8216 "/>
   <polygon id="_205894792" class="fil0" points="63.7716,18.8216 66.5165,18.8216 66.5165,65.6839 63.7716,65.6839 "/>
   <polygon id="_205895344" class="fil0" points="134.201,31.1927 134.201,77.4205 131.456,77.4205 131.456,30.6497 "/>
   <polygon id="_203060224" class="fil0" points="131.163,73.5322 134.491,73.5322 134.491,77.4205 131.163,77.4205 "/>
   <polygon id="_26650256" class="fil0" points="157.034,37.5271 157.034,85.2688 154.289,85.2688 154.289,36.5661 "/>
   <polygon id="_205895584" class="fil0" points="153.998,81.3797 157.324,81.3797 157.324,85.2688 153.998,85.2688 "/>
   <path id="_205895056" class="fil0" d="M176.714 48.7198l0 52.2451 -2.7449 0 0 -47.5191c1.6468,-1.5326 2.607,-3.106 2.7449,-4.726z"/>
   <polygon id="_205896664" class="fil0" points="173.677,97.0762 177.006,97.0762 177.006,100.965 173.677,100.965 "/>
   <polygon id="_205895464" class="fil0" points="160.714,104.924 164.04,104.924 164.04,108.813 160.714,108.813 "/>
   <path id="_205896880" class="fil0" d="M79.6102 83.2157l0 45.2528 -2.7447 0 0 -44.4519c0.9003,-0.2673 1.8153,-0.5342 2.7447,-0.8009z"/>
   <path id="_205893784" class="fil0" d="M58.0496 90.8942l0 45.4224 -2.7448 0 0 -43.9107c0.8252,-0.5065 1.7413,-1.0102 2.7448,-1.5117z"/>
   <polygon id="_203059600" class="fil0" points="47.8295,97.1503 50.5743,97.1503 50.5743,140.206 47.8295,140.206 "/>
   <polygon id="_205896280" class="fil0" points="47.8295,140.205 50.5743,140.205 50.5743,183.261 47.8295,183.261 "/>
   <polygon id="_205895848" class="fil0" points="107.692,140.205 110.437,140.205 110.437,183.261 107.692,183.261 "/>
   <g>
    <polygon id="_205896304" class="fil0" points="58.5179,65.6839 134.201,65.6839 134.201,67.6278 58.5179,67.6278 "/>
    <polygon id="_205894576" class="fil0" points="58.5179,67.6285 134.201,67.6285 134.201,69.5723 58.5179,69.5723 "/>
   </g>
   <path id="_26646728" class="fil0" d="M173.969 48.7198l0 44.3969 -2.745 0 0 -48.4324c1.602,1.3416 2.5823,2.6973 2.745,4.0355z"/>
   <polygon id="_205897120" class="fil0" points="170.932,89.228 174.261,89.228 174.261,93.1169 170.932,93.1169 "/>
   <polygon id="_205893592" class="fil0" points="107.692,97.1503 110.437,97.1503 110.437,140.206 107.692,140.206 "/>
   <g>
    <polygon id="_205899664" class="fil0" points="107.692,120.621 78.1382,120.621 78.1382,122.565 107.692,122.565 "/>
    <polygon id="_205894336" class="fil0" points="107.692,122.566 78.1382,122.566 78.1382,124.509 107.692,124.509 "/>
   </g>
   <g>
    <polygon id="_205896928" class="fil0" points="107.692,128.47 57.4648,128.47 57.4648,130.413 107.692,130.413 "/>
    <polygon id="_205896904" class="fil0" points="107.692,130.413 57.4648,130.413 57.4648,132.358 107.692,132.358 "/>
   </g>
   <path id="_205894768" class="fil0" d="M130.124 28.4213c0.3675,0 0.6654,0.4431 0.6654,0.9898 0,0.5466 -0.2979,0.9897 -0.6654,0.9897 -0.3675,0 -0.6654,-0.4431 -0.6654,-0.9897 0,-0.5467 0.2979,-0.9898 0.6654,-0.9898z"/>
  </g>
 </g>
</svg>
