<?xml version="1.0" encoding="UTF-8"?>
<!DOCTYPE svg PUBLIC "-//W3C//DTD SVG 1.1//EN" "http://www.w3.org/Graphics/SVG/1.1/DTD/svg11.dtd">
<!-- Creator: CorelDRAW -->
<svg xmlns="http://www.w3.org/2000/svg" xml:space="preserve" width="210mm" height="297mm" style="shape-rendering:geometricPrecision; text-rendering:geometricPrecision; image-rendering:optimizeQuality; fill-rule:evenodd; clip-rule:evenodd"
viewBox="0 0 210 297"
 xmlns:xlink="http://www.w3.org/1999/xlink">
 <defs>
  <style type="text/css">
   <![CDATA[

   ]]>
  </style>
 </defs>
 <g id="layer_01">
  <metadata id="CorelCorpID_0Corel-Layer"/>
  <g id="_205895512">
   <polygon id="_203055736" class="fil0" points="113.54,78.4429 113.54,124.918 112.575,124.918 112.575,78.7608 "/>
   <g>
    <polygon id="_205898224" class="fil0" points="112.575,116.761 138.338,116.761 138.338,118.781 112.575,118.781 "/>
    <polygon id="_205898056" class="fil0" points="112.575,118.782 138.338,118.782 138.338,120.802 112.575,120.802 "/>
   </g>
   <path id="_203055976" class="fil0" d="M157.592 61.3932l0 51.2528 -2.1547 0 0 -50.0534c0.7474,-0.3972 1.4624,-0.7973 2.1547,-1.1994z"/>
   <path id="_203061856" class="fil0" d="M138.338 69.9746l0 46.7861 -2.1547 0 0 -45.9951c0.7245,-0.2629 1.4428,-0.5266 2.1547,-0.791z"/>
   <path id="_203060152" class="fil0" d="M68.7494 100.526c4.3583,-17.0397 97.7261,-30.2227 99.0187,-50.3318 0.4836,-9.2141 -22.4905,-17.7344 -36.4457,-21.0648 0.2272,0.1113 0.3957,0.5159 0.3957,0.998 0,0.568 -0.2338,1.0286 -0.5223,1.0286 13.8905,3.3104 33.7208,11.4451 34.4176,19.0382 -3.3096,18.0627 -96.0359,32.1115 -99.0187,50.3318l2.1547 0z"/>
   <polygon id="_26648768" class="fil0" points="113.587,9.1662 120.371,9.1662 120.371,190.499 113.587,190.499 "/>
   <g>
    <polygon id="_203060032" class="fil0" points="113.587,182.01 68.7494,182.01 68.7494,184.031 113.587,184.031 "/>
    <polygon id="_26648336" class="fil0" points="113.587,184.031 68.7494,184.031 68.7494,186.052 113.587,186.052 "/>
   </g>
   <g>
    <polygon id="_203062168" class="fil0" points="113.587,173.855 68.7494,173.855 68.7494,175.874 113.587,175.874 "/>
    <polygon id="_203061136" class="fil0" points="113.587,175.876 68.7494,175.876 68.7494,177.895 113.587,177.895 "/>
   </g>
   <g>
    <polygon id="_203061040" class="fil0" points="113.587,165.698 68.7494,165.698 68.7494,167.719 113.587,167.719 "/>
    <polygon id="_203061160" class="fil0" points="113.587,167.719 68.7494,167.719 68.7494,169.74 113.587,169.74 "/>
   </g>
   <g>
    <polygon id="_203056336" class="fil0" points="113.587,157.542 68.7494,157.542 68.7494,159.563 113.587,159.563 "/>
    <polygon id="_203056456" class="fil0" points="113.587,159.563 68.7494,159.563 68.7494,161.584 113.587,161.584 "/>
   </g>
   <g>
    <polygon id="_203057224" class="fil0" points="113.587,149.386 68.7494,149.386 68.7494,151.406 113.587,151.406 "/>
    <polygon id="_203061568" class="fil0" points="113.587,151.406 68.7494,151.406 68.7494,153.427 113.587,153.427 "/>
   </g>
   <g>
    <polygon id="_203062144" class="fil0" points="113.587,141.23 68.7494,141.23 68.7494,143.251 113.587,143.251 "/>
    <polygon id="_203056048" class="fil0" points="113.587,143.251 68.7494,143.251 68.7494,145.272 113.587,145.272 "/>
   </g>
   <g>
    <polygon id="_205898176" class="fil0" points="120.371,108.605 157.592,108.605 157.592,110.626 120.371,110.626 "/>
    <polygon id="_205898032" class="fil0" points="120.371,110.626 157.592,110.626 157.592,112.646 120.371,112.646 "/>
   </g>
   <g>
    <polygon id="_205899640" class="fil0" points="118.993,100.449 165.614,100.449 165.614,102.469 118.993,102.469 "/>
    <polygon id="_205897960" class="fil0" points="118.993,102.469 165.614,102.469 165.614,104.49 118.993,104.49 "/>
   </g>
   <g>
    <polygon id="_205897096" class="fil0" points="117.618,92.2922 163.459,92.2922 163.459,94.313 117.618,94.313 "/>
    <polygon id="_205894936" class="fil0" points="117.618,94.313 163.459,94.313 163.459,96.3338 117.618,96.3338 "/>
   </g>
   <g>
    <polygon id="_205898920" class="fil0" points="116.241,84.1358 163.459,84.1358 163.459,86.1567 116.241,86.1567 "/>
    <polygon id="_205897912" class="fil0" points="116.241,86.1567 163.459,86.1567 163.459,88.1775 116.241,88.1775 "/>
   </g>
   <g>
    <polygon id="_205896112" class="fil0" points="114.868,75.9802 150.165,75.9802 150.165,78.0004 114.868,78.0004 "/>
    <polygon id="_205896808" class="fil0" points="114.868,78.0004 150.165,78.0004 150.165,80.0211 114.868,80.0211 "/>
   </g>
   <polygon id="_205894120" class="fil0" points="102.947,19.1218 105.102,19.1218 105.102,67.8238 102.947,67.8238 "/>
   <polygon id="_205894168" class="fil0" points="70.5287,19.1218 70.5287,17.272 113.587,17.272 113.587,19.1218 "/>
   <polygon id="_205894792" class="fil0" points="79.1092,19.1218 81.2639,19.1218 81.2639,67.8238 79.1092,67.8238 "/>
   <polygon id="_205895344" class="fil0" points="134.396,31.9785 134.396,80.0211 132.241,80.0211 132.241,31.4142 "/>
   <polygon id="_203060224" class="fil0" points="132.012,75.9802 134.624,75.9802 134.624,80.0211 132.012,80.0211 "/>
   <polygon id="_26650256" class="fil0" points="152.32,38.5616 152.32,88.1775 150.165,88.1775 150.165,37.5629 "/>
   <polygon id="_205895584" class="fil0" points="149.937,84.1358 152.548,84.1358 152.548,88.1775 149.937,88.1775 "/>
   <path id="_205895056" class="fil0" d="M167.769 50.1938l0 54.2961 -2.1547 0 0 -49.3846c1.2927,-1.5928 2.0464,-3.2279 2.1547,-4.9115z"/>
   <polygon id="_205896664" class="fil0" points="165.384,100.449 167.998,100.449 167.998,104.49 165.384,104.49 "/>
   <polygon id="_205895464" class="fil0" points="155.209,108.605 157.82,108.605 157.82,112.646 155.209,112.646 "/>
   <path id="_205896880" class="fil0" d="M91.5424 86.0438l0 47.0295 -2.1545 0 0 -46.1971c0.7067,-0.2778 1.425,-0.5552 2.1545,-0.8324z"/>
   <path id="_205893784" class="fil0" d="M74.6174 94.0239l0 47.2055 -2.1546 0 0 -45.6345c0.6477,-0.5265 1.3669,-1.0499 2.1546,-1.571z"/>
   <polygon id="_203059600" class="fil0" points="66.5947,100.526 68.7494,100.526 68.7494,145.272 66.5947,145.272 "/>
   <polygon id="_205896280" class="fil0" points="66.5947,145.271 68.7494,145.271 68.7494,190.016 66.5947,190.016 "/>
   <polygon id="_205895848" class="fil0" points="113.587,145.271 115.741,145.271 115.741,190.016 113.587,190.016 "/>
   <g>
    <polygon id="_205896304" class="fil0" points="74.9851,67.8238 134.396,67.8238 134.396,69.844 74.9851,69.844 "/>
    <polygon id="_205894576" class="fil0" points="74.9851,69.8448 134.396,69.8448 134.396,71.8649 74.9851,71.8649 "/>
   </g>
   <path id="_26646728" class="fil0" d="M165.614 50.1938l0 46.1398 -2.1548 0 0 -50.3338c1.2575,1.3943 2.0271,2.8032 2.1548,4.194z"/>
   <polygon id="_205897120" class="fil0" points="163.229,92.2922 165.843,92.2922 165.843,96.3338 163.229,96.3338 "/>
   <polygon id="_205893592" class="fil0" points="113.587,100.526 115.741,100.526 115.741,145.272 113.587,145.272 "/>
   <g>
    <polygon id="_205899664" class="fil0" points="113.587,124.918 90.3869,124.918 90.3869,126.938 113.587,126.938 "/>
    <polygon id="_205894336" class="fil0" points="113.587,126.939 90.3869,126.939 90.3869,128.959 113.587,128.959 "/>
   </g>
   <g>
    <polygon id="_205896928" class="fil0" points="113.587,133.075 74.1584,133.075 74.1584,135.094 113.587,135.094 "/>
    <polygon id="_205896904" class="fil0" points="113.587,135.094 74.1584,135.094 74.1584,137.115 113.587,137.115 "/>
   </g>
   <path id="_205894768" class="fil0" d="M131.196 29.0983c0.2885,0 0.5223,0.4606 0.5223,1.0287 0,0.568 -0.2338,1.0286 -0.5223,1.0286 -0.2885,0 -0.5223,-0.4606 -0.5223,-1.0286 0,-0.5681 0.2338,-1.0287 0.5223,-1.0287z"/>
  </g>
 </g>
</svg>
