<?xml version="1.0" encoding="UTF-8"?>
<!DOCTYPE svg PUBLIC "-//W3C//DTD SVG 1.1//EN" "http://www.w3.org/Graphics/SVG/1.1/DTD/svg11.dtd">
<!-- Creator: CorelDRAW -->
<svg xmlns="http://www.w3.org/2000/svg" xml:space="preserve" width="210mm" height="297mm" style="shape-rendering:geometricPrecision; text-rendering:geometricPrecision; image-rendering:optimizeQuality; fill-rule:evenodd; clip-rule:evenodd"
viewBox="0 0 210 297"
 xmlns:xlink="http://www.w3.org/1999/xlink">
 <defs>
  <style type="text/css">
   <![CDATA[

   ]]>
  </style>
 </defs>
 <g id="layer_01">
  <metadata id="CorelCorpID_0Corel-Layer"/>
  <g id="_205895512">
   <polygon id="_203055736" class="fil0" points="99.3372,65.452 99.3372,103.212 98.6638,103.212 98.6638,65.7103 "/>
   <g>
    <polygon id="_205898224" class="fil0" points="98.6638,96.5848 116.632,96.5848 116.632,98.2261 98.6638,98.2261 "/>
    <polygon id="_205898056" class="fil0" points="98.6638,98.2266 116.632,98.2266 116.632,99.868 98.6638,99.868 "/>
   </g>
   <path id="_203055976" class="fil0" d="M130.061 51.5995l0 41.6418 -1.5028 0 0 -40.6673c0.5213,-0.3227 1.02,-0.6478 1.5028,-0.9745z"/>
   <path id="_203061856" class="fil0" d="M116.632 58.5717l0 38.0127 -1.5028 0 0 -37.37c0.5053,-0.2136 1.0063,-0.4279 1.5028,-0.6427z"/>
   <path id="_203060152" class="fil0" d="M68.0975 83.3937c3.0397,-13.8444 68.1595,-24.5553 69.061,-40.8935 0.3373,-7.4862 -15.6861,-14.4088 -25.4192,-17.1147 0.1585,0.0905 0.276,0.4192 0.276,0.8109 0,0.4615 -0.1631,0.8357 -0.3643,0.8357 9.688,2.6896 23.5187,9.2989 24.0047,15.4681 -2.3083,14.6756 -66.9806,26.0899 -69.061,40.8935l1.5028 0z"/>
   <polygon id="_26648768" class="fil0" points="99.3696,9.1662 104.101,9.1662 104.101,156.495 99.3696,156.495 "/>
   <g>
    <polygon id="_203060032" class="fil0" points="99.3696,149.598 68.0975,149.598 68.0975,151.24 99.3696,151.24 "/>
    <polygon id="_26648336" class="fil0" points="99.3696,151.24 68.0975,151.24 68.0975,152.882 99.3696,152.882 "/>
   </g>
   <g>
    <polygon id="_203062168" class="fil0" points="99.3696,142.972 68.0975,142.972 68.0975,144.613 99.3696,144.613 "/>
    <polygon id="_203061136" class="fil0" points="99.3696,144.614 68.0975,144.614 68.0975,146.255 99.3696,146.255 "/>
   </g>
   <g>
    <polygon id="_203061040" class="fil0" points="99.3696,136.345 68.0975,136.345 68.0975,137.987 99.3696,137.987 "/>
    <polygon id="_203061160" class="fil0" points="99.3696,137.987 68.0975,137.987 68.0975,139.629 99.3696,139.629 "/>
   </g>
   <g>
    <polygon id="_203056336" class="fil0" points="99.3696,129.718 68.0975,129.718 68.0975,131.36 99.3696,131.36 "/>
    <polygon id="_203056456" class="fil0" points="99.3696,131.36 68.0975,131.36 68.0975,133.002 99.3696,133.002 "/>
   </g>
   <g>
    <polygon id="_203057224" class="fil0" points="99.3696,123.092 68.0975,123.092 68.0975,124.733 99.3696,124.733 "/>
    <polygon id="_203061568" class="fil0" points="99.3696,124.733 68.0975,124.733 68.0975,126.375 99.3696,126.375 "/>
   </g>
   <g>
    <polygon id="_203062144" class="fil0" points="99.3696,116.465 68.0975,116.465 68.0975,118.107 99.3696,118.107 "/>
    <polygon id="_203056048" class="fil0" points="99.3696,118.107 68.0975,118.107 68.0975,119.749 99.3696,119.749 "/>
   </g>
   <g>
    <polygon id="_205898176" class="fil0" points="104.101,89.958 130.061,89.958 130.061,91.5998 104.101,91.5998 "/>
    <polygon id="_205898032" class="fil0" points="104.101,91.5998 130.061,91.5998 130.061,93.2411 104.101,93.2411 "/>
   </g>
   <g>
    <polygon id="_205899640" class="fil0" points="103.14,83.3311 135.656,83.3311 135.656,84.973 103.14,84.973 "/>
    <polygon id="_205897960" class="fil0" points="103.14,84.973 135.656,84.973 135.656,86.6148 103.14,86.6148 "/>
   </g>
   <g>
    <polygon id="_205897096" class="fil0" points="102.181,76.7043 134.153,76.7043 134.153,78.3461 102.181,78.3461 "/>
    <polygon id="_205894936" class="fil0" points="102.181,78.3461 134.153,78.3461 134.153,79.988 102.181,79.988 "/>
   </g>
   <g>
    <polygon id="_205898920" class="fil0" points="101.221,70.0774 134.153,70.0774 134.153,71.7193 101.221,71.7193 "/>
    <polygon id="_205897912" class="fil0" points="101.221,71.7193 134.153,71.7193 134.153,73.3612 101.221,73.3612 "/>
   </g>
   <g>
    <polygon id="_205896112" class="fil0" points="100.263,63.4511 124.881,63.4511 124.881,65.0925 100.263,65.0925 "/>
    <polygon id="_205896808" class="fil0" points="100.263,65.0925 124.881,65.0925 124.881,66.7343 100.263,66.7343 "/>
   </g>
   <polygon id="_205894120" class="fil0" points="91.9488,17.2549 93.4515,17.2549 93.4515,56.8242 91.9488,56.8242 "/>
   <polygon id="_205894168" class="fil0" points="69.3385,17.2549 69.3385,15.752 99.3696,15.752 99.3696,17.2549 "/>
   <polygon id="_205894792" class="fil0" points="75.323,17.2549 76.8258,17.2549 76.8258,56.8242 75.323,56.8242 "/>
   <polygon id="_205895344" class="fil0" points="113.883,27.7007 113.883,66.7343 112.38,66.7343 112.38,27.2422 "/>
   <polygon id="_203060224" class="fil0" points="112.22,63.4511 114.042,63.4511 114.042,66.7343 112.22,66.7343 "/>
   <polygon id="_26650256" class="fil0" points="126.384,33.0493 126.384,73.3612 124.881,73.3612 124.881,32.2379 "/>
   <polygon id="_205895584" class="fil0" points="124.722,70.0774 126.543,70.0774 126.543,73.3612 124.722,73.3612 "/>
   <path id="_205895056" class="fil0" d="M137.159 42.5002l0 44.1144 -1.5028 0 0 -40.1239c0.9016,-1.2941 1.4273,-2.6226 1.5028,-3.9905z"/>
   <polygon id="_205896664" class="fil0" points="135.496,83.3311 137.319,83.3311 137.319,86.6148 135.496,86.6148 "/>
   <polygon id="_205895464" class="fil0" points="128.399,89.958 130.22,89.958 130.22,93.2411 128.399,93.2411 "/>
   <path id="_205896880" class="fil0" d="M83.9946 71.6276l0 38.2104 -1.5027 0 0 -37.5341c0.4929,-0.2257 0.9939,-0.4511 1.5027,-0.6763z"/>
   <path id="_205893784" class="fil0" d="M72.1902 78.1112l0 38.3535 -1.5028 0 0 -37.0771c0.4518,-0.4277 0.9534,-0.853 1.5028,-1.2764z"/>
   <polygon id="_203059600" class="fil0" points="66.5947,83.3937 68.0975,83.3937 68.0975,119.749 66.5947,119.749 "/>
   <polygon id="_205896280" class="fil0" points="66.5947,119.748 68.0975,119.748 68.0975,156.103 66.5947,156.103 "/>
   <polygon id="_205895848" class="fil0" points="99.3696,119.748 100.872,119.748 100.872,156.103 99.3696,156.103 "/>
   <g>
    <polygon id="_205896304" class="fil0" points="72.4466,56.8242 113.883,56.8242 113.883,58.4656 72.4466,58.4656 "/>
    <polygon id="_205894576" class="fil0" points="72.4466,58.4662 113.883,58.4662 113.883,60.1075 72.4466,60.1075 "/>
   </g>
   <path id="_26646728" class="fil0" d="M135.656 42.5002l0 37.4876 -1.5029 0 0 -40.8951c0.8771,1.1328 1.4138,2.2775 1.5029,3.4075z"/>
   <polygon id="_205897120" class="fil0" points="133.993,76.7043 135.816,76.7043 135.816,79.988 133.993,79.988 "/>
   <polygon id="_205893592" class="fil0" points="99.3696,83.3937 100.872,83.3937 100.872,119.749 99.3696,119.749 "/>
   <g>
    <polygon id="_205899664" class="fil0" points="99.3696,103.212 83.1887,103.212 83.1887,104.853 99.3696,104.853 "/>
    <polygon id="_205894336" class="fil0" points="99.3696,104.854 83.1887,104.854 83.1887,106.495 99.3696,106.495 "/>
   </g>
   <g>
    <polygon id="_205896928" class="fil0" points="99.3696,109.839 71.87,109.839 71.87,111.48 99.3696,111.48 "/>
    <polygon id="_205896904" class="fil0" points="99.3696,111.48 71.87,111.48 71.87,113.122 99.3696,113.122 "/>
   </g>
   <path id="_205894768" class="fil0" d="M111.651 25.3606c0.2012,0 0.3643,0.3742 0.3643,0.8358 0,0.4615 -0.1631,0.8357 -0.3643,0.8357 -0.2012,0 -0.3643,-0.3742 -0.3643,-0.8357 0,-0.4616 0.1631,-0.8358 0.3643,-0.8358z"/>
  </g>
 </g>
</svg>
