<?xml version="1.0" encoding="UTF-8"?>
<!DOCTYPE svg PUBLIC "-//W3C//DTD SVG 1.1//EN" "http://www.w3.org/Graphics/SVG/1.1/DTD/svg11.dtd">
<!-- Creator: CorelDRAW -->
<svg xmlns="http://www.w3.org/2000/svg" xml:space="preserve" width="210mm" height="297mm" style="shape-rendering:geometricPrecision; text-rendering:geometricPrecision; image-rendering:optimizeQuality; fill-rule:evenodd; clip-rule:evenodd"
viewBox="0 0 210 297"
 xmlns:xlink="http://www.w3.org/1999/xlink">
 <defs>
  <style type="text/css">
   <![CDATA[

   ]]>
  </style>
 </defs>
 <g id="layer_01">
  <metadata id="CorelCorpID_0Corel-Layer"/>
  <path id="layer_01_ID" class="fil0" d="M73.6123 81.5865l0 7.9441 -0.3693 0 0 2.8775 -0.9619 0.0015 1.3312 0 0 7.439 -0.3693 0.0003 0 2.8787 -0.8658 0.0014 1.2351 0 0 7.2848 3.0949 0 0 -5.5471 3.0949 0 0 -7.2846 0.3692 0 0 -2.8789 0 -0.0003 -0.3692 0.0003 0 -7.4406 0.3692 0 0 -2.879 -0.3692 0 -0.0322 -6.727 -6.1576 4.3299zm86.7273 -68.2041l0.0001 0c0.7088,0 1.2885,0.5797 1.2885,1.2885l0 2.3711 0.4639 0 0 8.5899 -0.8247 0 0 6.082 0.8247 0 0 17.2835 2.9789 0 0 4.0502 -119.175 84.2162 -8.6388 0 0 -5.0624 2.1927 0 0 -17.2835 0.8245 0 0 -6.0819 -0.8245 0 0 -8.5901 0.4638 0 0 -2.3711c0,-0.7087 0.5797,-1.2884 1.2885,-1.2884l0.0001 0c0.7088,0 1.2885,0.5797 1.2885,1.2884l0 2.3711 0.4639 0 0 1.8444 115.632 -81.3101 0 -3.738 0.4638 0 0 -2.3711c0,-0.7087 0.5797,-1.2884 1.2885,-1.2884l-0.0002 -0.0006 0.0005 0.0003zm-88.4273 96.6316l0 -7.2847 0.3691 0 0 -2.8789 0 -0.0003 -0.3691 0.0003 0 -7.4405 0.3691 0 0 -2.879 -0.3691 0 -0.0321 -6.7259 -6.1576 4.3299 0 7.9428 -0.3691 0 0 2.8774 -0.962 0.0016 1.3311 0 0 7.439 -0.3691 0.0004 0 2.8786 -0.8659 0.0015 1.235 0 0 7.2846 3.0948 0 0 -5.5468 3.0949 0zm-7.8901 5.5468l0 -7.2846 0.3693 0 0 -2.879 0 -0.0002 -0.3693 0.0002 0 -7.4405 0.3693 0 0 -2.879 -0.3693 0 -0.0321 -6.7246 -6.1575 4.3298 0 7.9418 -0.3692 0 0 2.8775 -0.962 0.0015 1.3312 0 0 7.439 -0.3692 0.0003 0 2.8786 -0.8659 0.0014 1.2351 0 0 7.2848 3.0948 0 0 -5.547 3.0948 0zm-7.89 5.547l0 -7.2848 0.3692 0 0 -2.8787 0 -0.0004 -0.3692 0.0004 0 -7.4406 0.3692 0 0 -2.879 -0.3692 0 -0.0321 -6.7234 -6.1576 4.3299 0 7.9404 -0.3692 0 0 2.8774 -0.9621 0.0016 1.3313 0 0 7.439 -0.3692 0.0004 0 2.8786 -0.866 0.0015 1.2352 0 0 7.2846 3.0949 0 0 -5.5469 3.0948 0zm-7.8901 5.5469l0 -7.2846 0.3691 0 0 -2.8789 0 -0.0003 -0.3691 0.0003 0 -7.4406 0.3691 0 0 -2.879 -0.3691 0 -0.0321 -6.7221 -5.2552 3.6953 0 5.6915 -0.8248 0 0 6.082 0.8248 0 0 17.2834 2.1925 0 0 -5.547 3.0948 0zm110.346 -77.6568l0 -17.2834 0.8244 0 0 -6.0819 -0.8244 0 0 -3.798 -6.0735 4.2706 0 7.9564 -0.3691 0 0 2.8775 -0.962 0.0015 1.3311 0 0 7.4391 -0.3691 0.0003 0 2.8787 -0.8658 0.0013 1.2349 0 0 7.2849 3.0946 0 0 -5.547 2.9789 0zm-7.7739 5.547l0 -7.2849 0.3693 0 0 -2.8788 0 -0.0004 -0.3693 0.0004 0 -7.4406 0.3693 0 0 -2.879 -0.3693 0 -0.0322 -6.738 -6.1576 4.3298 0 7.9552 -0.3691 0 0 2.8774 -0.962 0.0016 1.3311 0 0 7.439 -0.3691 0.0003 0 2.8786 -0.8658 0.0015 1.2349 0 0 7.2849 3.0948 0 0 -5.547 3.095 0zm-7.8901 5.547l0 -7.2849 0.3692 0 0 -2.8789 0 -0.0002 -0.3692 0.0002 0 -7.4405 0.3692 0 0 -2.879 -0.3692 0 -0.0323 -6.7368 -6.1575 4.3299 0 7.9538 -0.3692 0 0 2.8775 -0.9619 0.0016 1.3311 0 0 7.439 -0.3692 0.0003 0 2.8787 -0.8658 0.0013 1.235 0 0 7.2847 3.0947 0 0 -5.5467 3.0951 0zm-7.8902 5.5467l0 -7.2847 0.3693 0 0 -2.8787 0 -0.0004 -0.3693 0.0004 0 -7.4406 0.3693 0 0 -2.8791 -0.3693 0 -0.0322 -6.7355 -6.1574 4.3299 0 7.9525 -0.3692 0 0 2.8774 -0.962 0.0015 1.3312 0 0 7.4391 -0.3692 0.0003 0 2.8787 -0.8658 0.0014 1.235 0 0 7.2849 3.0947 0 0 -5.5471 3.0949 0zm-7.89 5.5471l0 -7.2849 0.3692 0 0 -2.8789 0 -0.0003 -0.3692 0.0003 0 -7.4406 0.3692 0 0 -2.8789 -0.3692 0 -0.0323 -6.7343 -6.1573 4.3297 0 7.9516 -0.3692 0 0 2.8774 -0.962 0.0015 1.3312 0 0 7.439 -0.3692 0.0003 0 2.8787 -0.8658 0.0014 1.235 0 0 7.2848 3.0947 0 0 -5.5468 3.0949 0zm-7.89 5.5468l0 -7.2848 0.3692 0 0 -2.8788 0 -0.0003 -0.3692 0.0003 0 -7.4406 0.3692 0 0 -2.8789 -0.3692 0 -0.0322 -6.7331 -6.1576 4.3298 0 7.9502 -0.3692 0 0 2.8774 -0.962 0.0015 1.3312 0 0 7.4392 -0.3692 0.0002 0 2.8787 -0.8658 0.0014 1.235 0 0 7.2849 3.0947 0 0 -5.5471 3.0951 0zm-7.8902 5.5471l0 -7.2849 0.3692 0 0 -2.8788 0 -0.0004 -0.3692 0.0004 0 -7.4407 0.3692 0 0 -2.8789 -0.3692 0 -0.0322 -6.7318 -6.1576 4.3298 0 7.9491 -0.3692 0 0 2.8775 -0.9619 0.0015 1.3311 0 0 7.439 -0.3692 0.0003 0 2.8787 -0.8658 0.0014 1.235 0 0 7.2846 3.0949 0 0 -5.5468 3.0949 0zm-7.8901 5.5468l0 -7.2846 0.3692 0 0 -2.8788 0 -0.0004 -0.3692 0.0004 0 -7.4406 0.3692 0 0 -2.879 -0.3692 0 -0.0322 -6.7307 -6.1575 4.3297 0 7.9478 -0.3692 0 0 2.8774 -0.962 0.0015 1.3312 0 0 7.4392 -0.3692 0.0002 0 2.8788 -0.8658 0.0013 1.235 0 0 7.2847 3.0948 0 0 -5.5469 3.0949 0zm-7.8901 5.5469l0 -7.2847 0.3692 0 0 -2.8788 0 -0.0004 -0.3692 0.0004 0 -7.4407 0.3692 0 0 -2.8789 -0.3692 0 -0.0321 -6.7295 -6.1575 4.3299 0 7.9466 -0.3692 0 0 2.8774 -0.962 0.0016 1.3312 0 0 7.439 -0.3692 0.0003 0 2.8786 -0.8658 0.0014 1.235 0 0 7.2849 3.0947 0 0 -5.5471 3.0949 0zm-7.89 5.5471l0 -7.2849 0.3692 0 0 -2.8788 0 -0.0003 -0.3692 0.0003 0 -7.4405 0.3692 0 0 -2.879 -0.3692 0 -0.032 -6.7284 -6.1578 4.33 0 7.9453 -0.3692 0 0 2.8774 -0.9619 0.0016 1.3311 0 0 7.4391 -0.3692 0.0002 0 2.8788 -0.8658 0.0013 1.235 0 0 7.2847 3.0948 0 0 -5.5468 3.095 0z"/>
 </g>
</svg>
