<?xml version="1.0" encoding="UTF-8"?>
<!DOCTYPE svg PUBLIC "-//W3C//DTD SVG 1.1//EN" "http://www.w3.org/Graphics/SVG/1.1/DTD/svg11.dtd">
<!-- Creator: CorelDRAW -->
<svg xmlns="http://www.w3.org/2000/svg" xml:space="preserve" width="210mm" height="297mm" style="shape-rendering:geometricPrecision; text-rendering:geometricPrecision; image-rendering:optimizeQuality; fill-rule:evenodd; clip-rule:evenodd"
viewBox="0 0 210 297"
 xmlns:xlink="http://www.w3.org/1999/xlink">
 <defs>
  <style type="text/css">
   <![CDATA[
   ]]>
  </style>
 </defs>
 <g id="layer_01">
  <metadata id="CorelCorpID_0Corel-Layer"/>
  <g id="_125535856">
   <polygon id="_325808792" class="fil0" points="106.855,45.0674 106.855,56.8242 170.708,56.8242 170.708,45.0674 "/>
   <rect id="_325806872" class="fil0" x="59.9942" y="11.9943" width="4.29578" height="67.8593"/>
   <rect id="_326602040" class="fil0" x="102.559" y="11.9943" width="4.29578" height="64.0555"/>
   <rect id="_325808648" class="fil0" x="102.559" y="9.57551" width="4.29578" height="2.41896"/>
   <rect id="_325813880" class="fil0" x="59.9942" y="9.57551" width="4.29578" height="2.41896"/>
   <rect id="_325807232" class="fil0" x="123.847" y="137.577" width="4.29578" height="46.1477"/>
   <rect id="_325807424" class="fil0" x="166.411" y="137.577" width="4.29578" height="46.1477"/>
   <rect id="_325807664" class="fil0" x="166.411" y="9.57551" width="4.29578" height="6.79722"/>
   <rect id="_325809200" class="fil0" x="166.411" y="38.2703" width="4.29578" height="6.79722"/>
   <rect id="_325807040" class="fil0" x="64.2901" y="45.0674" width="38.2696" height="7.912"/>
   <rect id="_325807688" class="fil0" x="64.2901" y="52.9789" width="38.2696" height="7.6907"/>
   <rect id="_325807112" class="fil0" x="64.2901" y="60.6689" width="38.2696" height="7.6907"/>
   <rect id="_325809344" class="fil0" x="64.2901" y="68.3591" width="38.2696" height="7.6907"/>
   <rect id="_325809320" class="fil0" x="64.2901" y="76.0494" width="38.2696" height="7.6907"/>
   <rect id="_325809992" class="fil0" x="64.2901" y="83.74" width="38.2696" height="7.6907"/>
   <rect id="_325809632" class="fil0" x="64.2901" y="91.4312" width="38.2696" height="7.6907"/>
   <rect id="_325806680" class="fil0" x="64.2901" y="99.1218" width="38.2696" height="7.6907"/>
   <rect id="_325809128" class="fil0" x="64.2901" y="106.813" width="38.2696" height="7.6907"/>
   <rect id="_325810328" class="fil0" x="64.2901" y="114.503" width="38.2696" height="7.6907"/>
   <rect id="_325808504" class="fil0" x="64.2901" y="122.195" width="43.6072" height="7.6907"/>
   <polygon id="_325806824" class="fil0" points="69.2611,129.885 170.708,129.886 170.708,137.577 95.8644,137.577 "/>
   <rect id="_325809800" class="fil0" x="128.143" y="137.578" width="38.2696" height="7.6907"/>
   <rect id="_325808984" class="fil0" x="128.143" y="145.269" width="38.2696" height="7.6907"/>
   <rect id="_325808816" class="fil0" x="128.143" y="152.96" width="38.2696" height="7.6907"/>
   <rect id="_325807760" class="fil0" x="128.143" y="160.651" width="38.2696" height="7.6907"/>
   <path id="_125270064" class="fil0" d="M120.79 168.343l3.0566 0 0 7.6908 -3.0566 0 0 -7.6908zm7.3524 0l38.2696 0 0 7.6908 -38.2696 0 0 -7.6908z"/>
   <path id="_125269680" class="fil0" d="M116.042 176.034l7.804 0 0 7.6906 -7.804 0 0 -7.6906zm12.0998 0l38.2696 0 0 7.6906 -38.2696 0 0 -7.6906z"/>
   <line id="_325808192" class="fil1" x1="107.897" y1="127.648" x2="64.29" y2= "114.503" />
   <rect id="_325808600" class="fil0" x="123.845" y="94.9574" width="4.29578" height="6.79722"/>
   <rect id="_325808480" class="fil0" x="123.845" y="123.089" width="4.29578" height="6.79722"/>
   <rect id="_125267376" class="fil0" x="59.9942" y="129.885" width="4.29578" height="53.8392"/>
   <rect id="_325808216" class="fil0" x="102.559" y="76.0501" width="4.29578" height="15.3809"/>
   <rect id="_125271192" class="fil0" x="102.559" y="106.813" width="4.29578" height="15.3809"/>
   <rect id="_325808960" class="fil0" x="103.279" y="91.4305" width="2.85727" height="15.3827"/>
   <rect id="_325810856" class="fil0" x="59.9942" y="79.8543" width="4.29578" height="6.79722"/>
   <rect id="_325809008" class="fil0" x="59.9942" y="107.706" width="4.29578" height="6.79722"/>
   <rect id="_325807976" class="fil0" x="59.9942" y="114.504" width="4.29578" height="7.69109"/>
   <rect id="_325807208" class="fil0" x="59.9942" y="122.195" width="4.29578" height="7.69109"/>
   <rect id="_325808264" class="fil0" x="60.7135" y="86.6513" width="2.85727" height="21.0552"/>
   <rect id="_326609720" class="fil0" x="124.566" y="101.754" width="2.85727" height="21.3345"/>
   <rect id="_125269560" class="fil0" x="167.131" y="16.3726" width="2.85727" height="21.8976"/>
   <rect id="_326606768" class="fil0" transform="matrix(4.20557E-014 -1.7079 0.694731 1.97897E-014 106.855 14.1785)" width="2.5576" height="85.7251"/>
   <rect id="_325808624" class="fil0" transform="matrix(4.20557E-014 -1.7079 0.694731 1.97897E-014 106.855 45.0675)" width="2.5576" height="85.7251"/>
   <polygon id="_325574872" class="fil0" points="106.855,91.4305 106.855,87.0626 123.847,94.9573 123.847,99.3252 "/>
   <rect id="_326605232" class="fil0" x="111.455" y="14.1785" width="2.02184" height="26.5209"/>
   <rect id="_325810904" class="fil0" x="117.52" y="14.1785" width="2.02184" height="26.5209"/>
   <rect id="_125268168" class="fil0" x="123.584" y="14.1785" width="2.02184" height="26.5209"/>
   <rect id="_325807640" class="fil0" x="129.65" y="14.1785" width="2.02184" height="26.5209"/>
   <rect id="_125529592" class="fil0" x="135.714" y="14.1785" width="2.02184" height="26.5209"/>
   <rect id="_325573240" class="fil0" x="141.78" y="14.1785" width="2.02184" height="26.5209"/>
   <rect id="_325810160" class="fil0" x="147.844" y="14.1785" width="2.02184" height="26.5209"/>
   <rect id="_325809296" class="fil0" x="153.909" y="14.1785" width="2.02184" height="26.5209"/>
   <rect id="_325812776" class="fil0" x="159.974" y="14.1785" width="2.02184" height="26.5209"/>
   <polygon id="_325807136" class="fil0" points="110.604,123.228 110.604,93.1729 108.583,92.2333 108.583,122.456 "/>
   <polygon id="_125532688" class="fil0" points="114.648,95.0513 114.648,124.771 116.67,125.543 116.67,95.9908 "/>
   <polygon id="_325808432" class="fil0" points="120.712,97.8693 120.712,127.085 122.734,127.857 122.734,98.8087 "/>
   <path id="_325809824" class="fil0" d="M104.707 72.5901l0.0001 0c0.7858,0 1.4286,0.6535 1.4286,1.4525l0 2.0075 -2.8573 0 0 -2.0075c0,-0.799 0.6429,-1.4525 1.4286,-1.4525z"/>
   <path id="_325808024" class="fil0" d="M104.707 6.1154l0.0001 0c0.7858,0 1.4286,0.6535 1.4286,1.4526l0 2.0074 -2.8573 0 0 -2.0074c0,-0.7991 0.6429,-1.4526 1.4286,-1.4526z"/>
   <path id="_125533216" class="fil0" d="M168.56 6.1154l0.0003 0c0.7857,0 1.4284,0.6535 1.4284,1.4526l0 2.0074 -2.8571 0 0 -2.0074c0,-0.7991 0.6428,-1.4526 1.4284,-1.4526z"/>
   <path id="_125536624" class="fil0" d="M62.1419 6.1154l0.0003 0c0.7857,0 1.4284,0.6535 1.4284,1.4526l0 2.0074 -2.8571 0 0 -2.0074c0,-0.7991 0.6427,-1.4526 1.4284,-1.4526z"/>
   <path id="_125537152" class="fil0" d="M62.1419 76.3942l0.0003 0c0.7857,0 1.4284,0.6535 1.4284,1.4525l0 2.0075 -2.8571 0 0 -2.0075c0,-0.799 0.6427,-1.4525 1.4284,-1.4525z"/>
   <path id="_325810496" class="fil0" d="M125.995 91.4972l0.0002 0c0.7858,0 1.4285,0.6537 1.4285,1.4526l0 2.0075 -2.8572 0 0 -2.0075c0,-0.7989 0.6427,-1.4526 1.4285,-1.4526z"/>
   <polygon id="_325811312" class="fil0" points="114.648,124.771 110.604,123.228 108.583,122.456 107.897,122.195 107.897,127.648 107.897,129.886 123.847,129.886 123.847,128.281 122.734,127.857 120.712,127.085 116.67,125.543 "/>
  </g>
 </g>
</svg>
