<?xml version="1.0" encoding="UTF-8"?>
<!DOCTYPE svg PUBLIC "-//W3C//DTD SVG 1.1//EN" "http://www.w3.org/Graphics/SVG/1.1/DTD/svg11.dtd">
<!-- Creator: CorelDRAW -->
<svg xmlns="http://www.w3.org/2000/svg" xml:space="preserve" width="173.945mm" height="274.309mm" style="shape-rendering:geometricPrecision; text-rendering:geometricPrecision; image-rendering:optimizeQuality; fill-rule:evenodd; clip-rule:evenodd"
viewBox="0 0 173.945 274.309"
 xmlns:xlink="http://www.w3.org/1999/xlink">
 <defs>
  <style type="text/css">
   <![CDATA[
   ]]>
  </style>
 </defs>
 <g id="layer_01">
  <metadata id="CorelCorpID_0Corel-Layer"/>
  <g id="_125535856">
   <polygon id="_325808792" class="fil0 str0" points="73.6402,60.2156 73.6402,78.3602 173.845,78.3602 173.845,60.2156 "/>
   <rect id="_325806872" class="fil0 str0" x="0.10013" y="9.17323" width="6.74143" height="104.729"/>
   <rect id="_326602040" class="fil0 str0" x="66.8988" y="9.17323" width="6.74143" height="98.8584"/>
   <rect id="_325808648" class="fil0 str0" x="66.8988" y="5.43993" width="6.74143" height="3.73329"/>
   <rect id="_325813880" class="fil0 str0" x="0.100023" y="5.43993" width="6.74143" height="3.73329"/>
   <rect id="_325807232" class="fil0 str0" x="100.305" y="202.988" width="6.74143" height="71.221"/>
   <rect id="_325807424" class="fil0 str0" x="167.103" y="202.988" width="6.74143" height="71.221"/>
   <rect id="_325807664" class="fil0 str0" x="167.103" y="5.43993" width="6.74143" height="10.4903"/>
   <rect id="_325809200" class="fil0 str0" x="167.103" y="49.7254" width="6.74143" height="10.4903"/>
   <rect id="_325807040" class="fil0 str0" x="6.84146" y="60.2157" width="60.0575" height="12.2108"/>
   <rect id="_325807688" class="fil0 str0" x="6.84146" y="72.4255" width="60.0575" height="11.8692"/>
   <rect id="_325807112" class="fil0 str0" x="6.84146" y="84.2939" width="60.0575" height="11.8692"/>
   <rect id="_325809344" class="fil0 str0" x="6.84146" y="96.1623" width="60.0575" height="11.8692"/>
   <rect id="_325809320" class="fil0 str0" x="6.84146" y="108.031" width="60.0575" height="11.8692"/>
   <rect id="_325809992" class="fil0 str0" x="6.84146" y="119.9" width="60.0575" height="11.8692"/>
   <rect id="_325809632" class="fil0 str0" x="6.84146" y="131.77" width="60.0575" height="11.8692"/>
   <rect id="_325806680" class="fil0 str0" x="6.84146" y="143.639" width="60.0575" height="11.8692"/>
   <rect id="_325809128" class="fil0 str0" x="6.84146" y="155.509" width="60.0575" height="11.8692"/>
   <rect id="_325810328" class="fil0 str0" x="6.84146" y="167.378" width="60.0575" height="11.8692"/>
   <rect id="_325808504" class="fil0 str0" x="6.84146" y="179.248" width="68.4339" height="11.8692"/>
   <polygon id="_325806824" class="fil0 str0" points="14.6428,191.117 173.845,191.119 173.845,202.988 56.392,202.988 "/>
   <rect id="_325809800" class="fil0 str0" x="107.046" y="202.989" width="60.0575" height="11.8692"/>
   <rect id="_325808984" class="fil0 str0" x="107.046" y="214.859" width="60.0575" height="11.8692"/>
   <rect id="_325808816" class="fil0 str0" x="107.046" y="226.729" width="60.0575" height="11.8692"/>
   <rect id="_325807760" class="fil0 str0" x="107.046" y="238.599" width="60.0575" height="11.8692"/>
   <path id="_125270064" class="fil0 str0" d="M95.5078 250.469l4.7968 0 0 11.8695 -4.7968 0 0 -11.8695zm11.5381 0l60.0575 0 0 11.8695 -60.0575 0 0 -11.8695z"/>
   <path id="_125269680" class="fil0 str0" d="M88.0575 262.34l12.2471 0 0 11.8691 -12.2471 0 0 -11.8691zm18.9884 0l60.0575 0 0 11.8691 -60.0575 0 0 -11.8691z"/>
   <line id="_325808192" class="fil1 str0" x1="75.2753" y1="187.664" x2="6.8415" y2= "167.378" />
   <rect id="_325808600" class="fil0 str0" x="100.304" y="137.212" width="6.74143" height="10.4903"/>
   <rect id="_325808480" class="fil0 str0" x="100.304" y="180.628" width="6.74143" height="10.4903"/>
   <rect id="_125267376" class="fil0 str0" x="0.10013" y="191.117" width="6.74143" height="83.0914"/>
   <rect id="_325808216" class="fil0 str0" x="66.8988" y="108.032" width="6.74143" height="23.7376"/>
   <rect id="_125271192" class="fil0 str0" x="66.8988" y="155.51" width="6.74143" height="23.7376"/>
   <rect id="_325808960" class="fil0 str0" x="68.0278" y="131.769" width="4.48389" height="23.7405"/>
   <rect id="_325810856" class="fil0 str0" x="0.100023" y="113.903" width="6.74143" height="10.4903"/>
   <rect id="_325809008" class="fil0 str0" x="0.100023" y="156.888" width="6.74143" height="10.4903"/>
   <rect id="_325807976" class="fil0 str0" x="0.100023" y="167.379" width="6.74143" height="11.8698"/>
   <rect id="_325807208" class="fil0 str0" x="0.100023" y="179.249" width="6.74143" height="11.8698"/>
   <rect id="_325808264" class="fil0 str0" x="1.22869" y="124.393" width="4.48389" height="32.4949"/>
   <rect id="_326609720" class="fil0 str0" x="101.433" y="147.702" width="4.48389" height="32.926"/>
   <rect id="_125269560" class="fil0 str0" x="168.232" y="15.9302" width="4.48389" height="33.7952"/>
   <rect id="_326606768" class="fil0 str0" transform="matrix(6.59992E-014 -2.63584 1.09026 3.0542E-014 73.6403 12.544)" width="2.5576" height="85.7251"/>
   <rect id="_325808624" class="fil0 str0" transform="matrix(6.59992E-014 -2.63584 1.09026 3.0542E-014 73.6403 60.2158)" width="2.5576" height="85.7251"/>
   <polygon id="_325574872" class="fil0 str0" points="73.6402,131.769 73.6402,125.028 100.305,137.212 100.305,143.953 "/>
   <rect id="_326605232" class="fil0 str0" x="80.8584" y="12.5439" width="3.17292" height="40.9304"/>
   <rect id="_325810904" class="fil0 str0" x="90.3762" y="12.5439" width="3.17292" height="40.9304"/>
   <rect id="_125268168" class="fil0 str0" x="99.8941" y="12.5439" width="3.17292" height="40.9304"/>
   <rect id="_325807640" class="fil0 str0" x="109.412" y="12.5439" width="3.17292" height="40.9304"/>
   <rect id="_125529592" class="fil0 str0" x="118.93" y="12.5439" width="3.17292" height="40.9304"/>
   <rect id="_325573240" class="fil0 str0" x="128.448" y="12.5439" width="3.17292" height="40.9304"/>
   <rect id="_325810160" class="fil0 str0" x="137.965" y="12.5439" width="3.17292" height="40.9304"/>
   <rect id="_325809296" class="fil0 str0" x="147.483" y="12.5439" width="3.17292" height="40.9304"/>
   <rect id="_325812776" class="fil0 str0" x="157.001" y="12.5439" width="3.17292" height="40.9304"/>
   <polygon id="_325807136" class="fil0 str0" points="79.5239,180.843 79.5239,134.458 76.351,133.008 76.351,179.652 "/>
   <polygon id="_125532688" class="fil0 str0" points="85.8688,137.357 85.8688,183.224 89.0419,184.415 89.0419,138.807 "/>
   <polygon id="_325808432" class="fil0 str0" points="95.3868,141.706 95.3868,186.796 98.5597,187.987 98.5597,143.156 "/>
   <path id="_325809824" class="fil0 str0" d="M70.2695 102.692l0.0004 0c1.233,0 2.2417,1.0087 2.2417,2.2418l0 3.0981 -4.4838 0 0 -3.0981c0,-1.2331 1.0087,-2.2418 2.2417,-2.2418z"/>
   <path id="_325808024" class="fil0 str0" d="M70.2695 0.1l0.0004 0c1.233,0 2.2417,1.0087 2.2417,2.2418l0 3.0981 -4.4838 0 0 -3.0981c0,-1.2331 1.0087,-2.2418 2.2417,-2.2418z"/>
   <path id="_125533216" class="fil0 str0" d="M170.474 0.1l0.0003 0c1.2331,0 2.2418,1.0087 2.2418,2.2418l0 3.0981 -4.4839 0 0 -3.0981c0,-1.2331 1.0088,-2.2418 2.2418,-2.2418z"/>
   <path id="_125536624" class="fil0 str0" d="M3.4705 0.1l0.0003 0c1.2331,0 2.2418,1.0087 2.2418,2.2418l0 3.0981 -4.4839 0 0 -3.0981c0,-1.2331 1.0087,-2.2418 2.2418,-2.2418z"/>
   <path id="_125537152" class="fil0 str0" d="M3.4705 108.563l0.0003 0c1.2331,0 2.2418,1.0087 2.2418,2.2417l0 3.0982 -4.4839 0 0 -3.0982c0,-1.233 1.0087,-2.2417 2.2418,-2.2417z"/>
   <path id="_325810496" class="fil0 str0" d="M103.675 131.872l0.0003 0c1.2331,0 2.2418,1.0088 2.2418,2.2418l0 3.0982 -4.4839 0 0 -3.0982c0,-1.233 1.0087,-2.2418 2.2418,-2.2418z"/>
   <polygon id="_325811312" class="fil0 str0" points="85.8688,183.224 79.5239,180.843 76.351,179.652 75.2753,179.248 75.2753,187.664 75.2753,191.118 100.305,191.118 100.305,188.642 98.5597,187.987 95.3868,186.796 89.0419,184.415 "/>
  </g>
 </g>
</svg>
