<?xml version="1.0" encoding="UTF-8"?>
<!DOCTYPE svg PUBLIC "-//W3C//DTD SVG 1.1//EN" "http://www.w3.org/Graphics/SVG/1.1/DTD/svg11.dtd">
<!-- Creator: CorelDRAW -->
<svg xmlns="http://www.w3.org/2000/svg" xml:space="preserve" width="210mm" height="297mm" style="shape-rendering:geometricPrecision; text-rendering:geometricPrecision; image-rendering:optimizeQuality; fill-rule:evenodd; clip-rule:evenodd"
viewBox="0 0 210 297"
 xmlns:xlink="http://www.w3.org/1999/xlink">
 <defs>
  <style type="text/css">
   <![CDATA[
   ]]>
  </style>
 </defs>
 <g id="layer_01">
  <metadata id="CorelCorpID_0Corel-Layer"/>
  <g id="_125535856">
   <polygon id="_325808792" class="fil0" points="106.855,35.7912 106.855,44.7482 170.708,44.7482 170.708,35.7912 "/>
   <rect id="_325806872" class="fil0" x="59.9942" y="10.5943" width="4.29578" height="51.699"/>
   <rect id="_326602040" class="fil0" x="102.559" y="10.5943" width="4.29578" height="48.801"/>
   <rect id="_325808648" class="fil0" x="102.559" y="8.7515" width="4.29578" height="1.8429"/>
   <rect id="_325813880" class="fil0" x="59.9942" y="8.7515" width="4.29578" height="1.8429"/>
   <rect id="_325807232" class="fil0" x="123.847" y="106.27" width="4.29578" height="35.1579"/>
   <rect id="_325807424" class="fil0" x="166.411" y="106.27" width="4.29578" height="35.1579"/>
   <rect id="_325807664" class="fil0" x="166.411" y="8.7515" width="4.29578" height="5.1785"/>
   <rect id="_325809200" class="fil0" x="166.411" y="30.6128" width="4.29578" height="5.1785"/>
   <rect id="_325807040" class="fil0" x="64.2901" y="35.7912" width="38.2696" height="6.0278"/>
   <rect id="_325807688" class="fil0" x="64.2901" y="41.8186" width="38.2696" height="5.8592"/>
   <rect id="_325807112" class="fil0" x="64.2901" y="47.6773" width="38.2696" height="5.8592"/>
   <rect id="_325809344" class="fil0" x="64.2901" y="53.5361" width="38.2696" height="5.8592"/>
   <rect id="_325809320" class="fil0" x="64.2901" y="59.395" width="38.2696" height="5.8592"/>
   <rect id="_325809992" class="fil0" x="64.2901" y="65.2541" width="38.2696" height="5.8592"/>
   <rect id="_325809632" class="fil0" x="64.2901" y="71.1137" width="38.2696" height="5.8592"/>
   <rect id="_325806680" class="fil0" x="64.2901" y="76.9728" width="38.2696" height="5.8592"/>
   <rect id="_325809128" class="fil0" x="64.2901" y="82.8323" width="38.2696" height="5.8592"/>
   <rect id="_325810328" class="fil0" x="64.2901" y="88.6914" width="38.2696" height="5.8592"/>
   <rect id="_325808504" class="fil0" x="64.2901" y="94.551" width="43.6072" height="5.8592"/>
   <polygon id="_325806824" class="fil0" points="69.2611,100.41 170.708,100.411 170.708,106.27 95.8644,106.27 "/>
   <rect id="_325809800" class="fil0" x="128.143" y="106.271" width="38.2696" height="5.8592"/>
   <rect id="_325808984" class="fil0" x="128.143" y="112.13" width="38.2696" height="5.8592"/>
   <rect id="_325808816" class="fil0" x="128.143" y="117.99" width="38.2696" height="5.8592"/>
   <rect id="_325807760" class="fil0" x="128.143" y="123.849" width="38.2696" height="5.8592"/>
   <path id="_125270064" class="fil0" d="M120.79 129.709l3.0566 0 0 5.8593 -3.0566 0 0 -5.8593zm7.3524 0l38.2696 0 0 5.8593 -38.2696 0 0 -5.8593z"/>
   <path id="_125269680" class="fil0" d="M116.042 135.569l7.804 0 0 5.8591 -7.804 0 0 -5.8591zm12.0998 0l38.2696 0 0 5.8591 -38.2696 0 0 -5.8591z"/>
   <line id="_325808192" class="fil1" x1="107.897" y1="98.7055" x2="64.29" y2= "88.6914" />
   <rect id="_325808600" class="fil0" x="123.845" y="73.8002" width="4.29578" height="5.1785"/>
   <rect id="_325808480" class="fil0" x="123.845" y="95.2323" width="4.29578" height="5.1785"/>
   <rect id="_125267376" class="fil0" x="59.9942" y="100.41" width="4.29578" height="41.0177"/>
   <rect id="_325808216" class="fil0" x="102.559" y="59.3955" width="4.29578" height="11.718"/>
   <rect id="_125271192" class="fil0" x="102.559" y="82.8328" width="4.29578" height="11.718"/>
   <rect id="_325808960" class="fil0" x="103.279" y="71.1132" width="2.85727" height="11.7194"/>
   <rect id="_325810856" class="fil0" x="59.9942" y="62.2938" width="4.29578" height="5.1785"/>
   <rect id="_325809008" class="fil0" x="59.9942" y="83.5131" width="4.29578" height="5.1785"/>
   <rect id="_325807976" class="fil0" x="59.9942" y="88.6919" width="4.29578" height="5.8595"/>
   <rect id="_325807208" class="fil0" x="59.9942" y="94.5515" width="4.29578" height="5.8595"/>
   <rect id="_325808264" class="fil0" x="60.7135" y="67.4721" width="2.85727" height="16.041"/>
   <rect id="_326609720" class="fil0" x="124.566" y="78.9784" width="2.85727" height="16.2538"/>
   <rect id="_125269560" class="fil0" x="167.131" y="13.9299" width="2.85727" height="16.6828"/>
   <rect id="_326606768" class="fil0" transform="matrix(4.20557E-014 -1.30117 0.694731 1.50769E-014 106.855 12.2583)" width="2.5576" height="85.7251"/>
   <rect id="_325808624" class="fil0" transform="matrix(4.20557E-014 -1.30117 0.694731 1.50769E-014 106.855 35.7913)" width="2.5576" height="85.7251"/>
   <polygon id="_325574872" class="fil0" points="106.855,71.1132 106.855,67.7855 123.847,73.8001 123.847,77.1278 "/>
   <rect id="_326605232" class="fil0" x="111.455" y="12.2583" width="2.02184" height="20.2051"/>
   <rect id="_325810904" class="fil0" x="117.52" y="12.2583" width="2.02184" height="20.2051"/>
   <rect id="_125268168" class="fil0" x="123.584" y="12.2583" width="2.02184" height="20.2051"/>
   <rect id="_325807640" class="fil0" x="129.65" y="12.2583" width="2.02184" height="20.2051"/>
   <rect id="_125529592" class="fil0" x="135.714" y="12.2583" width="2.02184" height="20.2051"/>
   <rect id="_325573240" class="fil0" x="141.78" y="12.2583" width="2.02184" height="20.2051"/>
   <rect id="_325810160" class="fil0" x="147.844" y="12.2583" width="2.02184" height="20.2051"/>
   <rect id="_325809296" class="fil0" x="153.909" y="12.2583" width="2.02184" height="20.2051"/>
   <rect id="_325812776" class="fil0" x="159.974" y="12.2583" width="2.02184" height="20.2051"/>
   <polygon id="_325807136" class="fil0" points="110.604,95.3384 110.604,72.4406 108.583,71.7248 108.583,94.7504 "/>
   <polygon id="_125532688" class="fil0" points="114.648,73.8717 114.648,96.5137 116.67,97.1017 116.67,74.5875 "/>
   <polygon id="_325808432" class="fil0" points="120.712,76.0186 120.712,98.277 122.734,98.865 122.734,76.7343 "/>
   <path id="_325809824" class="fil0" d="M104.707 56.7595l0.0001 0c0.7858,0 1.4286,0.4979 1.4286,1.1066l0 1.5294 -2.8573 0 0 -1.5294c0,-0.6087 0.6429,-1.1066 1.4286,-1.1066z"/>
   <path id="_325808024" class="fil0" d="M104.707 6.1154l0.0001 0c0.7858,0 1.4286,0.4979 1.4286,1.1067l0 1.5293 -2.8573 0 0 -1.5293c0,-0.6088 0.6429,-1.1067 1.4286,-1.1067z"/>
   <path id="_125533216" class="fil0" d="M168.56 6.1154l0.0003 0c0.7857,0 1.4284,0.4979 1.4284,1.1067l0 1.5293 -2.8571 0 0 -1.5293c0,-0.6088 0.6428,-1.1067 1.4284,-1.1067z"/>
   <path id="_125536624" class="fil0" d="M62.1419 6.1154l0.0003 0c0.7857,0 1.4284,0.4979 1.4284,1.1067l0 1.5293 -2.8571 0 0 -1.5293c0,-0.6088 0.6427,-1.1067 1.4284,-1.1067z"/>
   <path id="_125537152" class="fil0" d="M62.1419 59.6577l0.0003 0c0.7857,0 1.4284,0.4979 1.4284,1.1066l0 1.5294 -2.8571 0 0 -1.5294c0,-0.6087 0.6427,-1.1066 1.4284,-1.1066z"/>
   <path id="_325810496" class="fil0" d="M125.995 71.164l0.0002 0c0.7858,0 1.4285,0.498 1.4285,1.1067l0 1.5294 -2.8572 0 0 -1.5294c0,-0.6087 0.6427,-1.1067 1.4285,-1.1067z"/>
   <polygon id="_325811312" class="fil0" points="114.648,96.5137 110.604,95.3384 108.583,94.7504 107.897,94.551 107.897,98.7055 107.897,100.411 123.847,100.411 123.847,99.1883 122.734,98.865 120.712,98.277 116.67,97.1017 "/>
  </g>
 </g>
</svg>
