<?xml version="1.0" encoding="UTF-8"?>
<!DOCTYPE svg PUBLIC "-//W3C//DTD SVG 1.1//EN" "http://www.w3.org/Graphics/SVG/1.1/DTD/svg11.dtd">
<!-- Creator: CorelDRAW -->
<svg xmlns="http://www.w3.org/2000/svg" xml:space="preserve" width="210mm" height="297mm" style="shape-rendering:geometricPrecision; text-rendering:geometricPrecision; image-rendering:optimizeQuality; fill-rule:evenodd; clip-rule:evenodd"
viewBox="0 0 210 297"
 xmlns:xlink="http://www.w3.org/1999/xlink">
 <defs>
  <style type="text/css">
   <![CDATA[
   ]]>
  </style>
 </defs>
 <g id="layer_01">
  <metadata id="CorelCorpID_0Corel-Layer"/>
  <g id="_125535856">
   <polygon id="_325808792" class="fil0" points="96.297,43.1361 96.297,54.31 145.763,54.31 145.763,43.1361 "/>
   <rect id="_325806872" class="fil0" x="59.9942" y="11.7028" width="3.3279" height="64.4947"/>
   <rect id="_326602040" class="fil0" x="92.9691" y="11.7028" width="3.3279" height="60.8795"/>
   <rect id="_325808648" class="fil0" x="92.9691" y="9.40395" width="3.3279" height="2.29903"/>
   <rect id="_325813880" class="fil0" x="59.9942" y="9.40395" width="3.3279" height="2.29903"/>
   <rect id="_325807232" class="fil0" x="109.46" y="131.059" width="3.3279" height="43.8596"/>
   <rect id="_325807424" class="fil0" x="142.434" y="131.059" width="3.3279" height="43.8596"/>
   <rect id="_325807664" class="fil0" x="142.434" y="9.40395" width="3.3279" height="6.4602"/>
   <rect id="_325809200" class="fil0" x="142.434" y="36.676" width="3.3279" height="6.4602"/>
   <rect id="_325807040" class="fil0" x="63.3222" y="43.1361" width="29.6471" height="7.51971"/>
   <rect id="_325807688" class="fil0" x="63.3222" y="50.6553" width="29.6471" height="7.30938"/>
   <rect id="_325807112" class="fil0" x="63.3222" y="57.9641" width="29.6471" height="7.30938"/>
   <rect id="_325809344" class="fil0" x="63.3222" y="65.2729" width="29.6471" height="7.30938"/>
   <rect id="_325809320" class="fil0" x="63.3222" y="72.5819" width="29.6471" height="7.30938"/>
   <rect id="_325809992" class="fil0" x="63.3222" y="79.8912" width="29.6471" height="7.30938"/>
   <rect id="_325809632" class="fil0" x="63.3222" y="87.2011" width="29.6471" height="7.30938"/>
   <rect id="_325806680" class="fil0" x="63.3222" y="94.5103" width="29.6471" height="7.30938"/>
   <rect id="_325809128" class="fil0" x="63.3222" y="101.82" width="29.6471" height="7.30938"/>
   <rect id="_325810328" class="fil0" x="63.3222" y="109.129" width="29.6471" height="7.30938"/>
   <rect id="_325808504" class="fil0" x="63.3222" y="116.439" width="33.7821" height="7.30938"/>
   <polygon id="_325806824" class="fil0" points="67.1732,123.748 145.763,123.75 145.763,131.059 87.7825,131.059 "/>
   <rect id="_325809800" class="fil0" x="112.788" y="131.06" width="29.6471" height="7.30938"/>
   <rect id="_325808984" class="fil0" x="112.788" y="138.369" width="29.6471" height="7.30938"/>
   <rect id="_325808816" class="fil0" x="112.788" y="145.679" width="29.6471" height="7.30938"/>
   <rect id="_325807760" class="fil0" x="112.788" y="152.989" width="29.6471" height="7.30938"/>
   <path id="_125270064" class="fil0" d="M107.092 160.299l2.3679 0 0 7.3095 -2.3679 0 0 -7.3095zm5.6958 0l29.6471 0 0 7.3095 -29.6471 0 0 -7.3095z"/>
   <path id="_125269680" class="fil0" d="M103.414 167.609l6.0457 0 0 7.3093 -6.0457 0 0 -7.3093zm9.3736 0l29.6471 0 0 7.3093 -29.6471 0 0 -7.3093z"/>
   <line id="_325808192" class="fil1" x1="97.1041" y1="121.622" x2="63.3221" y2= "109.129" />
   <rect id="_325808600" class="fil0" x="109.459" y="90.5525" width="3.3279" height="6.4602"/>
   <rect id="_325808480" class="fil0" x="109.459" y="117.289" width="3.3279" height="6.4602"/>
   <rect id="_125267376" class="fil0" x="59.9942" y="123.748" width="3.3279" height="51.1698"/>
   <rect id="_325808216" class="fil0" x="92.9691" y="72.5826" width="3.3279" height="14.6183"/>
   <rect id="_125271192" class="fil0" x="92.9691" y="101.821" width="3.3279" height="14.6183"/>
   <rect id="_325808960" class="fil0" x="93.5264" y="87.2004" width="2.2135" height="14.62"/>
   <rect id="_325810856" class="fil0" x="59.9942" y="76.1982" width="3.3279" height="6.4602"/>
   <rect id="_325809008" class="fil0" x="59.9942" y="102.669" width="3.3279" height="6.4602"/>
   <rect id="_325807976" class="fil0" x="59.9942" y="109.13" width="3.3279" height="7.30975"/>
   <rect id="_325807208" class="fil0" x="59.9942" y="116.44" width="3.3279" height="7.30975"/>
   <rect id="_325808264" class="fil0" x="60.5514" y="82.6582" width="2.2135" height="20.0112"/>
   <rect id="_326609720" class="fil0" x="110.017" y="97.0123" width="2.2135" height="20.2767"/>
   <rect id="_125269560" class="fil0" x="142.992" y="15.864" width="2.2135" height="20.8119"/>
   <rect id="_326606768" class="fil0" transform="matrix(3.25802E-014 -1.62322 0.538202 1.88085E-014 96.2971 13.7787)" width="2.5576" height="85.7251"/>
   <rect id="_325808624" class="fil0" transform="matrix(3.25802E-014 -1.62322 0.538202 1.88085E-014 96.2971 43.1362)" width="2.5576" height="85.7251"/>
   <polygon id="_325574872" class="fil0" points="96.297,87.2004 96.297,83.0491 109.46,90.5524 109.46,94.7037 "/>
   <rect id="_326605232" class="fil0" x="99.8603" y="13.7787" width="1.5663" height="25.206"/>
   <rect id="_325810904" class="fil0" x="104.559" y="13.7787" width="1.5663" height="25.206"/>
   <rect id="_125268168" class="fil0" x="109.257" y="13.7787" width="1.5663" height="25.206"/>
   <rect id="_325807640" class="fil0" x="113.956" y="13.7787" width="1.5663" height="25.206"/>
   <rect id="_125529592" class="fil0" x="118.654" y="13.7787" width="1.5663" height="25.206"/>
   <rect id="_325573240" class="fil0" x="123.353" y="13.7787" width="1.5663" height="25.206"/>
   <rect id="_325810160" class="fil0" x="128.051" y="13.7787" width="1.5663" height="25.206"/>
   <rect id="_325809296" class="fil0" x="132.749" y="13.7787" width="1.5663" height="25.206"/>
   <rect id="_325812776" class="fil0" x="137.448" y="13.7787" width="1.5663" height="25.206"/>
   <polygon id="_325807136" class="fil0" points="99.2014,117.421 99.2014,88.8564 97.6352,87.9634 97.6352,116.688 "/>
   <polygon id="_125532688" class="fil0" points="102.334,90.6417 102.334,118.888 103.9,119.621 103.9,91.5347 "/>
   <polygon id="_325808432" class="fil0" points="107.032,93.32 107.032,121.087 108.598,121.821 108.598,94.2128 "/>
   <path id="_325809824" class="fil0" d="M94.6331 69.2941l0.0001 0c0.6087,0 1.1067,0.6212 1.1067,1.3805l0 1.908 -2.2135 0 0 -1.908c0,-0.7593 0.498,-1.3805 1.1067,-1.3805z"/>
   <path id="_325808024" class="fil0" d="M94.6331 6.1154l0.0001 0c0.6087,0 1.1067,0.6211 1.1067,1.3806l0 1.9078 -2.2135 0 0 -1.9078c0,-0.7595 0.498,-1.3806 1.1067,-1.3806z"/>
   <path id="_125533216" class="fil0" d="M144.099 6.1154l0.0002 0c0.6087,0 1.1066,0.6211 1.1066,1.3806l0 1.9078 -2.2134 0 0 -1.9078c0,-0.7595 0.498,-1.3806 1.1066,-1.3806z"/>
   <path id="_125536624" class="fil0" d="M61.658 6.1154l0.0002 0c0.6087,0 1.1066,0.6211 1.1066,1.3806l0 1.9078 -2.2134 0 0 -1.9078c0,-0.7595 0.4979,-1.3806 1.1066,-1.3806z"/>
   <path id="_125537152" class="fil0" d="M61.658 72.9097l0.0002 0c0.6087,0 1.1066,0.6211 1.1066,1.3804l0 1.908 -2.2134 0 0 -1.908c0,-0.7593 0.4979,-1.3804 1.1066,-1.3804z"/>
   <path id="_325810496" class="fil0" d="M111.124 87.2638l0.0002 0c0.6087,0 1.1066,0.6213 1.1066,1.3806l0 1.908 -2.2134 0 0 -1.908c0,-0.7593 0.4979,-1.3806 1.1066,-1.3806z"/>
   <polygon id="_325811312" class="fil0" points="102.334,118.888 99.2014,117.421 97.6352,116.688 97.1041,116.439 97.1041,121.622 97.1041,123.75 109.46,123.75 109.46,122.224 108.598,121.821 107.032,121.087 103.9,119.621 "/>
  </g>
 </g>
</svg>
