<?xml version="1.0" encoding="UTF-8"?>
<!DOCTYPE svg PUBLIC "-//W3C//DTD SVG 1.1//EN" "http://www.w3.org/Graphics/SVG/1.1/DTD/svg11.dtd">
<!-- Creator: CorelDRAW -->
<svg xmlns="http://www.w3.org/2000/svg" xml:space="preserve" width="210mm" height="297mm" style="shape-rendering:geometricPrecision; text-rendering:geometricPrecision; image-rendering:optimizeQuality; fill-rule:evenodd; clip-rule:evenodd"
viewBox="0 0 210 297"
 xmlns:xlink="http://www.w3.org/1999/xlink">
 <defs>
  <style type="text/css">
   <![CDATA[
   ]]>
  </style>
 </defs>
 <g id="layer_01">
  <metadata id="CorelCorpID_0Corel-Layer"/>
  <g id="_125535856">
   <polygon id="_325808792" class="fil0" points="96.297,35.7912 96.297,44.7482 145.763,44.7482 145.763,35.7912 "/>
   <rect id="_325806872" class="fil0" x="59.9942" y="10.5943" width="3.3279" height="51.699"/>
   <rect id="_326602040" class="fil0" x="92.9691" y="10.5943" width="3.3279" height="48.801"/>
   <rect id="_325808648" class="fil0" x="92.9691" y="8.7515" width="3.3279" height="1.8429"/>
   <rect id="_325813880" class="fil0" x="59.9942" y="8.7515" width="3.3279" height="1.8429"/>
   <rect id="_325807232" class="fil0" x="109.46" y="106.27" width="3.3279" height="35.1579"/>
   <rect id="_325807424" class="fil0" x="142.434" y="106.27" width="3.3279" height="35.1579"/>
   <rect id="_325807664" class="fil0" x="142.434" y="8.7515" width="3.3279" height="5.1785"/>
   <rect id="_325809200" class="fil0" x="142.434" y="30.6128" width="3.3279" height="5.1785"/>
   <rect id="_325807040" class="fil0" x="63.3222" y="35.7912" width="29.6471" height="6.0278"/>
   <rect id="_325807688" class="fil0" x="63.3222" y="41.8186" width="29.6471" height="5.8592"/>
   <rect id="_325807112" class="fil0" x="63.3222" y="47.6773" width="29.6471" height="5.8592"/>
   <rect id="_325809344" class="fil0" x="63.3222" y="53.5361" width="29.6471" height="5.8592"/>
   <rect id="_325809320" class="fil0" x="63.3222" y="59.395" width="29.6471" height="5.8592"/>
   <rect id="_325809992" class="fil0" x="63.3222" y="65.2541" width="29.6471" height="5.8592"/>
   <rect id="_325809632" class="fil0" x="63.3222" y="71.1137" width="29.6471" height="5.8592"/>
   <rect id="_325806680" class="fil0" x="63.3222" y="76.9728" width="29.6471" height="5.8592"/>
   <rect id="_325809128" class="fil0" x="63.3222" y="82.8323" width="29.6471" height="5.8592"/>
   <rect id="_325810328" class="fil0" x="63.3222" y="88.6914" width="29.6471" height="5.8592"/>
   <rect id="_325808504" class="fil0" x="63.3222" y="94.551" width="33.7821" height="5.8592"/>
   <polygon id="_325806824" class="fil0" points="67.1732,100.41 145.763,100.411 145.763,106.27 87.7825,106.27 "/>
   <rect id="_325809800" class="fil0" x="112.788" y="106.271" width="29.6471" height="5.8592"/>
   <rect id="_325808984" class="fil0" x="112.788" y="112.13" width="29.6471" height="5.8592"/>
   <rect id="_325808816" class="fil0" x="112.788" y="117.99" width="29.6471" height="5.8592"/>
   <rect id="_325807760" class="fil0" x="112.788" y="123.849" width="29.6471" height="5.8592"/>
   <path id="_125270064" class="fil0" d="M107.092 129.709l2.3679 0 0 5.8593 -2.3679 0 0 -5.8593zm5.6958 0l29.6471 0 0 5.8593 -29.6471 0 0 -5.8593z"/>
   <path id="_125269680" class="fil0" d="M103.414 135.569l6.0457 0 0 5.8591 -6.0457 0 0 -5.8591zm9.3736 0l29.6471 0 0 5.8591 -29.6471 0 0 -5.8591z"/>
   <line id="_325808192" class="fil1" x1="97.1041" y1="98.7055" x2="63.3221" y2= "88.6914" />
   <rect id="_325808600" class="fil0" x="109.459" y="73.8002" width="3.3279" height="5.1785"/>
   <rect id="_325808480" class="fil0" x="109.459" y="95.2323" width="3.3279" height="5.1785"/>
   <rect id="_125267376" class="fil0" x="59.9942" y="100.41" width="3.3279" height="41.0177"/>
   <rect id="_325808216" class="fil0" x="92.9691" y="59.3955" width="3.3279" height="11.718"/>
   <rect id="_125271192" class="fil0" x="92.9691" y="82.8328" width="3.3279" height="11.718"/>
   <rect id="_325808960" class="fil0" x="93.5264" y="71.1132" width="2.2135" height="11.7194"/>
   <rect id="_325810856" class="fil0" x="59.9942" y="62.2938" width="3.3279" height="5.1785"/>
   <rect id="_325809008" class="fil0" x="59.9942" y="83.5131" width="3.3279" height="5.1785"/>
   <rect id="_325807976" class="fil0" x="59.9942" y="88.6919" width="3.3279" height="5.8595"/>
   <rect id="_325807208" class="fil0" x="59.9942" y="94.5515" width="3.3279" height="5.8595"/>
   <rect id="_325808264" class="fil0" x="60.5514" y="67.4721" width="2.2135" height="16.041"/>
   <rect id="_326609720" class="fil0" x="110.017" y="78.9784" width="2.2135" height="16.2538"/>
   <rect id="_125269560" class="fil0" x="142.992" y="13.9299" width="2.2135" height="16.6828"/>
   <rect id="_326606768" class="fil0" transform="matrix(3.25802E-014 -1.30117 0.538202 1.50769E-014 96.2971 12.2583)" width="2.5576" height="85.7251"/>
   <rect id="_325808624" class="fil0" transform="matrix(3.25802E-014 -1.30117 0.538202 1.50769E-014 96.2971 35.7913)" width="2.5576" height="85.7251"/>
   <polygon id="_325574872" class="fil0" points="96.297,71.1132 96.297,67.7855 109.46,73.8001 109.46,77.1278 "/>
   <rect id="_326605232" class="fil0" x="99.8603" y="12.2583" width="1.5663" height="20.2051"/>
   <rect id="_325810904" class="fil0" x="104.559" y="12.2583" width="1.5663" height="20.2051"/>
   <rect id="_125268168" class="fil0" x="109.257" y="12.2583" width="1.5663" height="20.2051"/>
   <rect id="_325807640" class="fil0" x="113.956" y="12.2583" width="1.5663" height="20.2051"/>
   <rect id="_125529592" class="fil0" x="118.654" y="12.2583" width="1.5663" height="20.2051"/>
   <rect id="_325573240" class="fil0" x="123.353" y="12.2583" width="1.5663" height="20.2051"/>
   <rect id="_325810160" class="fil0" x="128.051" y="12.2583" width="1.5663" height="20.2051"/>
   <rect id="_325809296" class="fil0" x="132.749" y="12.2583" width="1.5663" height="20.2051"/>
   <rect id="_325812776" class="fil0" x="137.448" y="12.2583" width="1.5663" height="20.2051"/>
   <polygon id="_325807136" class="fil0" points="99.2014,95.3384 99.2014,72.4406 97.6352,71.7248 97.6352,94.7504 "/>
   <polygon id="_125532688" class="fil0" points="102.334,73.8717 102.334,96.5137 103.9,97.1017 103.9,74.5875 "/>
   <polygon id="_325808432" class="fil0" points="107.032,76.0186 107.032,98.277 108.598,98.865 108.598,76.7343 "/>
   <path id="_325809824" class="fil0" d="M94.6331 56.7595l0.0001 0c0.6087,0 1.1067,0.4979 1.1067,1.1066l0 1.5294 -2.2135 0 0 -1.5294c0,-0.6087 0.498,-1.1066 1.1067,-1.1066z"/>
   <path id="_325808024" class="fil0" d="M94.6331 6.1154l0.0001 0c0.6087,0 1.1067,0.4979 1.1067,1.1067l0 1.5293 -2.2135 0 0 -1.5293c0,-0.6088 0.498,-1.1067 1.1067,-1.1067z"/>
   <path id="_125533216" class="fil0" d="M144.099 6.1154l0.0002 0c0.6087,0 1.1066,0.4979 1.1066,1.1067l0 1.5293 -2.2134 0 0 -1.5293c0,-0.6088 0.498,-1.1067 1.1066,-1.1067z"/>
   <path id="_125536624" class="fil0" d="M61.658 6.1154l0.0002 0c0.6087,0 1.1066,0.4979 1.1066,1.1067l0 1.5293 -2.2134 0 0 -1.5293c0,-0.6088 0.4979,-1.1067 1.1066,-1.1067z"/>
   <path id="_125537152" class="fil0" d="M61.658 59.6577l0.0002 0c0.6087,0 1.1066,0.4979 1.1066,1.1066l0 1.5294 -2.2134 0 0 -1.5294c0,-0.6087 0.4979,-1.1066 1.1066,-1.1066z"/>
   <path id="_325810496" class="fil0" d="M111.124 71.164l0.0002 0c0.6087,0 1.1066,0.498 1.1066,1.1067l0 1.5294 -2.2134 0 0 -1.5294c0,-0.6087 0.4979,-1.1067 1.1066,-1.1067z"/>
   <polygon id="_325811312" class="fil0" points="102.334,96.5137 99.2014,95.3384 97.6352,94.7504 97.1041,94.551 97.1041,98.7055 97.1041,100.411 109.46,100.411 109.46,99.1883 108.598,98.865 107.032,98.277 103.9,97.1017 "/>
  </g>
 </g>
</svg>
