<?xml version="1.0" encoding="UTF-8"?>
<!DOCTYPE svg PUBLIC "-//W3C//DTD SVG 1.1//EN" "http://www.w3.org/Graphics/SVG/1.1/DTD/svg11.dtd">
<!-- Creator: CorelDRAW -->
<svg xmlns="http://www.w3.org/2000/svg" xml:space="preserve" width="210mm" height="297mm" style="shape-rendering:geometricPrecision; text-rendering:geometricPrecision; image-rendering:optimizeQuality; fill-rule:evenodd; clip-rule:evenodd"
viewBox="0 0 210 297"
 xmlns:xlink="http://www.w3.org/1999/xlink">
 <defs>
  <style type="text/css">
   <![CDATA[
   ]]>
  </style>
 </defs>
 <g id="layer_01">
  <metadata id="CorelCorpID_0Corel-Layer"/>
  <g id="_125535856">
   <polygon id="_325808792" class="fil0" points="103.969,38.5345 103.969,47.4915 185.402,47.4915 185.402,38.5345 "/>
   <rect id="_325806872" class="fil0" x="44.2057" y="13.3376" width="5.47854" height="51.699"/>
   <rect id="_326602040" class="fil0" x="98.4905" y="13.3376" width="5.47854" height="48.801"/>
   <rect id="_325808648" class="fil0" x="98.4905" y="11.4948" width="5.47854" height="1.8429"/>
   <rect id="_325813880" class="fil0" x="44.2057" y="11.4948" width="5.47854" height="1.8429"/>
   <rect id="_325807232" class="fil0" x="125.639" y="109.013" width="5.47854" height="35.1579"/>
   <rect id="_325807424" class="fil0" x="179.922" y="109.013" width="5.47854" height="35.1579"/>
   <rect id="_325807664" class="fil0" x="179.922" y="11.4948" width="5.47854" height="5.1785"/>
   <rect id="_325809200" class="fil0" x="179.922" y="33.3561" width="5.47854" height="5.1785"/>
   <rect id="_325807040" class="fil0" x="49.6844" y="38.5345" width="48.8064" height="6.0278"/>
   <rect id="_325807688" class="fil0" x="49.6844" y="44.5619" width="48.8064" height="5.8592"/>
   <rect id="_325807112" class="fil0" x="49.6844" y="50.4206" width="48.8064" height="5.8592"/>
   <rect id="_325809344" class="fil0" x="49.6844" y="56.2794" width="48.8064" height="5.8592"/>
   <rect id="_325809320" class="fil0" x="49.6844" y="62.1383" width="48.8064" height="5.8592"/>
   <rect id="_325809992" class="fil0" x="49.6844" y="67.9974" width="48.8064" height="5.8592"/>
   <rect id="_325809632" class="fil0" x="49.6844" y="73.857" width="48.8064" height="5.8592"/>
   <rect id="_325806680" class="fil0" x="49.6844" y="79.7161" width="48.8064" height="5.8592"/>
   <rect id="_325809128" class="fil0" x="49.6844" y="85.5756" width="48.8064" height="5.8592"/>
   <rect id="_325810328" class="fil0" x="49.6844" y="91.4347" width="48.8064" height="5.8592"/>
   <rect id="_325808504" class="fil0" x="49.6844" y="97.2943" width="55.6137" height="5.8592"/>
   <polygon id="_325806824" class="fil0" points="56.0241,103.153 185.402,103.154 185.402,109.013 89.9521,109.013 "/>
   <rect id="_325809800" class="fil0" x="131.117" y="109.014" width="48.8064" height="5.8592"/>
   <rect id="_325808984" class="fil0" x="131.117" y="114.873" width="48.8064" height="5.8592"/>
   <rect id="_325808816" class="fil0" x="131.117" y="120.733" width="48.8064" height="5.8592"/>
   <rect id="_325807760" class="fil0" x="131.117" y="126.592" width="48.8064" height="5.8592"/>
   <path id="_125270064" class="fil0" d="M121.74 132.452l3.8981 0 0 5.8593 -3.8981 0 0 -5.8593zm9.3767 0l48.8064 0 0 5.8593 -48.8064 0 0 -5.8593z"/>
   <path id="_125269680" class="fil0" d="M115.685 138.312l9.9527 0 0 5.8591 -9.9527 0 0 -5.8591zm15.4313 0l48.8064 0 0 5.8591 -48.8064 0 0 -5.8591z"/>
   <line id="_325808192" class="fil1" x1="105.298" y1="101.449" x2="49.6842" y2= "91.4347" />
   <rect id="_325808600" class="fil0" x="125.637" y="76.5435" width="5.47854" height="5.1785"/>
   <rect id="_325808480" class="fil0" x="125.637" y="97.9756" width="5.47854" height="5.1785"/>
   <rect id="_125267376" class="fil0" x="44.2057" y="103.153" width="5.47854" height="41.0177"/>
   <rect id="_325808216" class="fil0" x="98.4905" y="62.1388" width="5.47854" height="11.718"/>
   <rect id="_125271192" class="fil0" x="98.4905" y="85.5761" width="5.47854" height="11.718"/>
   <rect id="_325808960" class="fil0" x="99.408" y="73.8565" width="3.64397" height="11.7194"/>
   <rect id="_325810856" class="fil0" x="44.2057" y="65.0371" width="5.47854" height="5.1785"/>
   <rect id="_325809008" class="fil0" x="44.2057" y="86.2564" width="5.47854" height="5.1785"/>
   <rect id="_325807976" class="fil0" x="44.2057" y="91.4352" width="5.47854" height="5.8595"/>
   <rect id="_325807208" class="fil0" x="44.2057" y="97.2948" width="5.47854" height="5.8595"/>
   <rect id="_325808264" class="fil0" x="45.123" y="70.2154" width="3.64397" height="16.041"/>
   <rect id="_326609720" class="fil0" x="126.556" y="81.7217" width="3.64397" height="16.2538"/>
   <rect id="_125269560" class="fil0" x="180.841" y="16.6732" width="3.64397" height="16.6828"/>
   <rect id="_326606768" class="fil0" transform="matrix(5.3635E-014 -1.30117 0.886013 1.50769E-014 103.969 15.0016)" width="2.5576" height="85.7251"/>
   <rect id="_325808624" class="fil0" transform="matrix(5.3635E-014 -1.30117 0.886013 1.50769E-014 103.969 38.5346)" width="2.5576" height="85.7251"/>
   <polygon id="_325574872" class="fil0" points="103.969,73.8565 103.969,70.5288 125.639,76.5434 125.639,79.8711 "/>
   <rect id="_326605232" class="fil0" x="109.835" y="15.0016" width="2.57852" height="20.2051"/>
   <rect id="_325810904" class="fil0" x="117.57" y="15.0016" width="2.57852" height="20.2051"/>
   <rect id="_125268168" class="fil0" x="125.304" y="15.0016" width="2.57852" height="20.2051"/>
   <rect id="_325807640" class="fil0" x="133.04" y="15.0016" width="2.57852" height="20.2051"/>
   <rect id="_125529592" class="fil0" x="140.774" y="15.0016" width="2.57852" height="20.2051"/>
   <rect id="_325573240" class="fil0" x="148.51" y="15.0016" width="2.57852" height="20.2051"/>
   <rect id="_325810160" class="fil0" x="156.244" y="15.0016" width="2.57852" height="20.2051"/>
   <rect id="_325809296" class="fil0" x="163.978" y="15.0016" width="2.57852" height="20.2051"/>
   <rect id="_325812776" class="fil0" x="171.714" y="15.0016" width="2.57852" height="20.2051"/>
   <polygon id="_325807136" class="fil0" points="108.75,98.0817 108.75,75.1839 106.172,74.4681 106.172,97.4937 "/>
   <polygon id="_125532688" class="fil0" points="113.907,76.615 113.907,99.257 116.486,99.845 116.486,77.3308 "/>
   <polygon id="_325808432" class="fil0" points="121.642,78.7619 121.642,101.02 124.22,101.608 124.22,79.4776 "/>
   <path id="_325809824" class="fil0" d="M101.23 59.5028l0.0001 0c1.0021,0 1.8219,0.4979 1.8219,1.1066l0 1.5294 -3.6439 0 0 -1.5294c0,-0.6087 0.8198,-1.1066 1.8219,-1.1066z"/>
   <path id="_325808024" class="fil0" d="M101.23 8.8587l0.0001 0c1.0021,0 1.8219,0.4979 1.8219,1.1067l0 1.5293 -3.6439 0 0 -1.5293c0,-0.6088 0.8198,-1.1067 1.8219,-1.1067z"/>
   <path id="_125533216" class="fil0" d="M182.663 8.8587l0.0004 0c1.002,0 1.8217,0.4979 1.8217,1.1067l0 1.5293 -3.6438 0 0 -1.5293c0,-0.6088 0.8198,-1.1067 1.8217,-1.1067z"/>
   <path id="_125536624" class="fil0" d="M46.9447 8.8587l0.0004 0c1.002,0 1.8217,0.4979 1.8217,1.1067l0 1.5293 -3.6438 0 0 -1.5293c0,-0.6088 0.8197,-1.1067 1.8217,-1.1067z"/>
   <path id="_125537152" class="fil0" d="M46.9447 62.401l0.0004 0c1.002,0 1.8217,0.4979 1.8217,1.1066l0 1.5294 -3.6438 0 0 -1.5294c0,-0.6087 0.8197,-1.1066 1.8217,-1.1066z"/>
   <path id="_325810496" class="fil0" d="M128.378 73.9073l0.0003 0c1.0021,0 1.8217,0.498 1.8217,1.1067l0 1.5294 -3.6438 0 0 -1.5294c0,-0.6087 0.8197,-1.1067 1.8218,-1.1067z"/>
   <polygon id="_325811312" class="fil0" points="113.907,99.257 108.75,98.0817 106.172,97.4937 105.298,97.2943 105.298,101.449 105.298,103.154 125.639,103.154 125.639,101.932 124.22,101.608 121.642,101.02 116.486,99.845 "/>
  </g>
 </g>
</svg>
