<?xml version="1.0" encoding="UTF-8"?>
<!DOCTYPE svg PUBLIC "-//W3C//DTD SVG 1.1//EN" "http://www.w3.org/Graphics/SVG/1.1/DTD/svg11.dtd">
<!-- Creator: CorelDRAW -->
<svg xmlns="http://www.w3.org/2000/svg" xml:space="preserve" width="210mm" height="297mm" style="shape-rendering:geometricPrecision; text-rendering:geometricPrecision; image-rendering:optimizeQuality; fill-rule:evenodd; clip-rule:evenodd"
viewBox="0 0 210 297"
 xmlns:xlink="http://www.w3.org/1999/xlink">
 <defs>
  <style type="text/css">
   <![CDATA[
   ]]>
  </style>
 </defs>
 <g id="layer_01">
  <metadata id="CorelCorpID_0Corel-Layer"/>
  <g id="_125535856">
   <polygon id="_325808792" class="fil0" points="103.969,47.2091 103.969,58.7843 185.402,58.7843 185.402,47.2091 "/>
   <rect id="_325806872" class="fil0" x="44.2057" y="14.6468" width="5.47854" height="66.8112"/>
   <rect id="_326602040" class="fil0" x="98.4905" y="14.6468" width="5.47854" height="63.0661"/>
   <rect id="_325808648" class="fil0" x="98.4905" y="12.2654" width="5.47854" height="2.3816"/>
   <rect id="_325813880" class="fil0" x="44.2057" y="12.2654" width="5.47854" height="2.3816"/>
   <rect id="_325807232" class="fil0" x="125.639" y="138.29" width="5.47854" height="45.4349"/>
   <rect id="_325807424" class="fil0" x="179.922" y="138.29" width="5.47854" height="45.4349"/>
   <rect id="_325807664" class="fil0" x="179.922" y="12.2654" width="5.47854" height="6.69223"/>
   <rect id="_325809200" class="fil0" x="179.922" y="40.517" width="5.47854" height="6.69223"/>
   <rect id="_325807040" class="fil0" x="49.6844" y="47.2091" width="48.8064" height="7.78979"/>
   <rect id="_325807688" class="fil0" x="49.6844" y="54.9983" width="48.8064" height="7.57191"/>
   <rect id="_325807112" class="fil0" x="49.6844" y="62.5696" width="48.8064" height="7.57191"/>
   <rect id="_325809344" class="fil0" x="49.6844" y="70.141" width="48.8064" height="7.57191"/>
   <rect id="_325809320" class="fil0" x="49.6844" y="77.7125" width="48.8064" height="7.57191"/>
   <rect id="_325809992" class="fil0" x="49.6844" y="85.2843" width="48.8064" height="7.57191"/>
   <rect id="_325809632" class="fil0" x="49.6844" y="92.8567" width="48.8064" height="7.57191"/>
   <rect id="_325806680" class="fil0" x="49.6844" y="100.429" width="48.8064" height="7.57191"/>
   <rect id="_325809128" class="fil0" x="49.6844" y="108.001" width="48.8064" height="7.57191"/>
   <rect id="_325810328" class="fil0" x="49.6844" y="115.573" width="48.8064" height="7.57191"/>
   <rect id="_325808504" class="fil0" x="49.6844" y="123.145" width="55.6137" height="7.57191"/>
   <polygon id="_325806824" class="fil0" points="56.0241,130.717 185.402,130.718 185.402,138.29 89.9521,138.29 "/>
   <rect id="_325809800" class="fil0" x="131.117" y="138.291" width="48.8064" height="7.57191"/>
   <rect id="_325808984" class="fil0" x="131.117" y="145.863" width="48.8064" height="7.57191"/>
   <rect id="_325808816" class="fil0" x="131.117" y="153.435" width="48.8064" height="7.57191"/>
   <rect id="_325807760" class="fil0" x="131.117" y="161.007" width="48.8064" height="7.57191"/>
   <path id="_125270064" class="fil0" d="M121.74 168.58l3.8981 0 0 7.572 -3.8981 0 0 -7.572zm9.3767 0l48.8064 0 0 7.572 -48.8064 0 0 -7.572z"/>
   <path id="_125269680" class="fil0" d="M115.685 176.153l9.9527 0 0 7.5718 -9.9527 0 0 -7.5718zm15.4313 0l48.8064 0 0 7.5718 -48.8064 0 0 -7.5718z"/>
   <line id="_325808192" class="fil1" x1="105.298" y1="128.514" x2="49.6842" y2= "115.573" />
   <rect id="_325808600" class="fil0" x="125.637" y="96.3285" width="5.47854" height="6.69223"/>
   <rect id="_325808480" class="fil0" x="125.637" y="124.025" width="5.47854" height="6.69223"/>
   <rect id="_125267376" class="fil0" x="44.2057" y="130.717" width="5.47854" height="53.0076"/>
   <rect id="_325808216" class="fil0" x="98.4905" y="77.7132" width="5.47854" height="15.1433"/>
   <rect id="_125271192" class="fil0" x="98.4905" y="108.001" width="5.47854" height="15.1433"/>
   <rect id="_325808960" class="fil0" x="99.408" y="92.8561" width="3.64397" height="15.1451"/>
   <rect id="_325810856" class="fil0" x="44.2057" y="81.4587" width="5.47854" height="6.69223"/>
   <rect id="_325809008" class="fil0" x="44.2057" y="108.881" width="5.47854" height="6.69223"/>
   <rect id="_325807976" class="fil0" x="44.2057" y="115.573" width="5.47854" height="7.5723"/>
   <rect id="_325807208" class="fil0" x="44.2057" y="123.146" width="5.47854" height="7.5723"/>
   <rect id="_325808264" class="fil0" x="45.123" y="88.1506" width="3.64397" height="20.73"/>
   <rect id="_326609720" class="fil0" x="126.556" y="103.02" width="3.64397" height="21.005"/>
   <rect id="_125269560" class="fil0" x="180.841" y="18.9575" width="3.64397" height="21.5594"/>
   <rect id="_326606768" class="fil0" transform="matrix(5.3635E-014 -1.68152 0.886013 1.9484E-014 103.969 16.7972)" width="2.5576" height="85.7251"/>
   <rect id="_325808624" class="fil0" transform="matrix(5.3635E-014 -1.68152 0.886013 1.9484E-014 103.969 47.2092)" width="2.5576" height="85.7251"/>
   <polygon id="_325574872" class="fil0" points="103.969,92.8561 103.969,88.5557 125.639,96.3284 125.639,100.629 "/>
   <rect id="_326605232" class="fil0" x="109.835" y="16.7972" width="2.57852" height="26.1113"/>
   <rect id="_325810904" class="fil0" x="117.57" y="16.7972" width="2.57852" height="26.1113"/>
   <rect id="_125268168" class="fil0" x="125.304" y="16.7972" width="2.57852" height="26.1113"/>
   <rect id="_325807640" class="fil0" x="133.04" y="16.7972" width="2.57852" height="26.1113"/>
   <rect id="_125529592" class="fil0" x="140.774" y="16.7972" width="2.57852" height="26.1113"/>
   <rect id="_325573240" class="fil0" x="148.51" y="16.7972" width="2.57852" height="26.1113"/>
   <rect id="_325810160" class="fil0" x="156.244" y="16.7972" width="2.57852" height="26.1113"/>
   <rect id="_325809296" class="fil0" x="163.978" y="16.7972" width="2.57852" height="26.1113"/>
   <rect id="_325812776" class="fil0" x="171.714" y="16.7972" width="2.57852" height="26.1113"/>
   <polygon id="_325807136" class="fil0" points="108.75,124.163 108.75,94.5715 106.172,93.6465 106.172,123.403 "/>
   <polygon id="_125532688" class="fil0" points="113.907,96.4209 113.907,125.681 116.486,126.441 116.486,97.346 "/>
   <polygon id="_325808432" class="fil0" points="121.642,99.1954 121.642,127.96 124.22,128.72 124.22,100.12 "/>
   <path id="_325809824" class="fil0" d="M101.23 74.3066l0.0001 0c1.0021,0 1.8219,0.6435 1.8219,1.4301l0 1.9765 -3.6439 0 0 -1.9765c0,-0.7866 0.8198,-1.4301 1.8219,-1.4301z"/>
   <path id="_325808024" class="fil0" d="M101.23 8.8587l0.0001 0c1.0021,0 1.8219,0.6434 1.8219,1.4302l0 1.9763 -3.6439 0 0 -1.9763c0,-0.7868 0.8198,-1.4302 1.8219,-1.4302z"/>
   <path id="_125533216" class="fil0" d="M182.663 8.8587l0.0004 0c1.002,0 1.8217,0.6434 1.8217,1.4302l0 1.9763 -3.6438 0 0 -1.9763c0,-0.7868 0.8198,-1.4302 1.8217,-1.4302z"/>
   <path id="_125536624" class="fil0" d="M46.9447 8.8587l0.0004 0c1.002,0 1.8217,0.6434 1.8217,1.4302l0 1.9763 -3.6438 0 0 -1.9763c0,-0.7868 0.8197,-1.4302 1.8217,-1.4302z"/>
   <path id="_125537152" class="fil0" d="M46.9447 78.052l0.0004 0c1.002,0 1.8217,0.6434 1.8217,1.4301l0 1.9764 -3.6438 0 0 -1.9764c0,-0.7867 0.8197,-1.4301 1.8217,-1.4301z"/>
   <path id="_325810496" class="fil0" d="M128.378 92.9217l0.0003 0c1.0021,0 1.8217,0.6436 1.8217,1.4302l0 1.9765 -3.6438 0 0 -1.9765c0,-0.7866 0.8197,-1.4302 1.8218,-1.4302z"/>
   <polygon id="_325811312" class="fil0" points="113.907,125.681 108.75,124.163 106.172,123.403 105.298,123.145 105.298,128.514 105.298,130.718 125.639,130.718 125.639,129.138 124.22,128.72 121.642,127.96 116.486,126.441 "/>
  </g>
 </g>
</svg>
