<?xml version="1.0" encoding="UTF-8"?>
<!DOCTYPE svg PUBLIC "-//W3C//DTD SVG 1.1//EN" "http://www.w3.org/Graphics/SVG/1.1/DTD/svg11.dtd">
<!-- Creator: CorelDRAW -->
<svg xmlns="http://www.w3.org/2000/svg" xml:space="preserve" width="210mm" height="297mm" style="shape-rendering:geometricPrecision; text-rendering:geometricPrecision; image-rendering:optimizeQuality; fill-rule:evenodd; clip-rule:evenodd"
viewBox="0 0 210 297"
 xmlns:xlink="http://www.w3.org/1999/xlink">
 <defs>
  <style type="text/css">
   <![CDATA[
   ]]>
  </style>
 </defs>
 <g id="layer_01">
  <metadata id="CorelCorpID_0Corel-Layer"/>
  <g id="_224356472">
   <polygon id="_224354120" class="fil0 str0" points="37.6594,14.6302 44.2403,14.6302 44.2403,25.7544 37.6594,25.7544 "/>
   <polygon id="_224358512" class="fil0 str0" points="126.114,105.147 119.533,105.147 119.533,116.271 126.114,116.271 "/>
   <polygon id="_224355944" class="fil0 str0" points="172.561,245.324 122.225,273.577 110.499,285.647 88.2706,285.647 88.2706,268.679 113.323,241.729 172.561,221.197 "/>
   <polygon id="_224357192" class="fil0 str0" points="95.5354,214.787 102.116,214.787 102.116,225.911 95.5354,225.911 "/>
   <path id="_224595192" class="fil0 str1" d="M122.824 101.869l0.0001 0c1.1799,0 2.1451,0.9652 2.1451,2.1449l0 1.1326 -4.2901 0 0 -1.1326c0,-1.1797 0.9652,-2.1449 2.1449,-2.1449z"/>
   <path id="_224595216" class="fil0 str1" d="M98.8258 211.51l0.0002 0c1.1799,0 2.145,0.9652 2.145,2.1449l0 1.1326 -4.2901 0 0 -1.1326c0,-1.1797 0.9652,-2.1449 2.1449,-2.1449z"/>
   <path id="_222914984" class="fil0 str1" d="M40.9497 11.3526l0.0002 0c1.1799,0 2.145,0.9652 2.145,2.145l0 1.1326 -4.2901 0 0 -1.1326c0,-1.1798 0.9652,-2.145 2.1449,-2.145z"/>
   <polygon id="_224599416" class="fil0 str1" points="55.9652,87.8793 48.7156,87.8793 48.7156,70.4485 43.077,70.4485 38.8251,70.4485 37.4387,70.4485 37.4387,90.0309 119.533,188.724 119.533,157.603 117.558,157.603 113.962,157.603 106.713,157.603 106.713,140.172 103.059,140.172 99.4632,140.172 92.2135,140.172 92.2135,122.741 88.5598,122.741 84.9639,122.741 77.7142,122.741 77.7142,105.31 74.0606,105.31 70.4646,105.31 63.2148,105.31 63.2148,87.8793 59.5613,87.8793 "/>
   <polygon id="_222913568" class="fil0 str1" points="63.2148,87.8793 63.2148,105.31 70.4646,105.31 74.0606,105.31 77.7142,105.31 77.7142,122.741 84.9639,122.741 88.5598,122.741 92.2135,122.741 92.2135,140.172 99.4632,140.172 103.059,140.172 106.713,140.172 106.713,157.603 113.962,157.603 117.558,157.603 119.533,157.603 119.533,150.587 120.525,150.587 120.525,141.21 43.0759,48.1015 43.077,70.4485 48.7156,70.4485 48.7156,87.8793 55.9652,87.8793 59.5613,87.8793 "/>
   <polygon id="_224359616" class="fil0 str1" points="120.525,116.271 120.525,141.21 120.525,150.587 125.123,150.587 125.123,149.471 125.123,116.271 "/>
   <polygon id="_224353376" class="fil0 str1" points="125.123,150.587 120.525,150.587 119.533,150.587 119.533,157.603 119.533,188.724 119.533,198.869 119.533,206.045 119.533,233.94 126.114,233.94 126.114,220.895 126.114,207.267 126.114,189.761 126.114,173.571 126.114,150.587 "/>
   <polygon id="_224595864" class="fil0 str1" points="126.114,150.587 126.114,173.571 149.455,173.571 149.455,189.761 172.561,189.761 172.561,174.876 125.123,149.471 125.123,150.587 "/>
   <polygon id="_224353496" class="fil0 str1" points="149.455,173.571 126.114,173.571 126.114,189.761 149.455,189.761 "/>
   <polygon id="_224356424" class="fil0 str1" points="149.455,189.761 126.114,189.761 126.114,207.267 172.561,207.267 172.561,189.761 "/>
   <polygon id="_224358968" class="fil0 str1" points="172.561,207.267 126.114,207.267 126.114,220.895 172.561,220.895 "/>
   <polygon id="_224355800" class="fil0 str1" points="172.561,220.895 126.114,220.895 126.114,233.94 135.795,233.94 172.561,221.197 "/>
   <polygon id="_224357600" class="fil0 str1" points="114.535,221.307 114.535,211.122 110.939,214.774 110.939,221.307 111.709,221.307 113.764,221.307 "/>
   <polygon id="_224355872" class="fil0 str1" points="100.952,255.037 100.951,225.911 96.7012,225.911 96.7012,259.61 "/>
   <polygon id="_224357672" class="fil0 str1" points="102.116,223.734 110.939,214.774 114.535,211.122 119.533,206.045 119.533,198.869 102.116,216.557 "/>
   <polygon id="_224595744" class="fil0 str1" points="126.114,233.94 119.533,233.94 119.533,239.577 135.795,233.94 "/>
   <polygon id="_224595576" class="fil0 str1" points="113.764,221.307 111.709,221.307 111.709,243.465 113.323,241.729 113.764,241.576 "/>
   <polygon id="_224596272" class="fil0 str1" points="59.5613,47.5581 59.5613,42.5233 55.9652,38.2003 55.9652,47.5581 56.7356,47.5581 58.7908,47.5581 "/>
   <polygon id="_224596584" class="fil0 str1" points="70.4646,55.6311 70.4646,64.989 71.2349,64.989 73.2901,64.989 74.0606,64.989 74.0606,59.9542 "/>
   <polygon id="_224595360" class="fil0 str1" points="84.9639,73.062 84.9639,82.4198 85.7342,82.4198 87.7894,82.4198 88.5598,82.4198 88.5598,77.385 "/>
   <polygon id="_224596872" class="fil0 str1" points="99.4632,90.4929 99.4632,99.8508 100.233,99.8508 102.289,99.8508 103.059,99.8508 103.059,94.816 "/>
   <polygon id="_224596824" class="fil0 str1" points="113.962,107.924 113.962,117.282 114.733,117.282 116.788,117.282 117.558,117.282 117.558,112.247 "/>
   <polygon id="_224597112" class="fil0 str1" points="58.7908,77.3566 58.7908,47.5581 56.7356,47.5581 56.7356,77.3566 "/>
   <polygon id="_224596896" class="fil0 str1" points="71.2349,64.989 71.2349,94.7876 73.2901,94.7876 73.2901,64.989 "/>
   <polygon id="_224597064" class="fil0 str1" points="85.7342,82.4198 85.7342,112.219 87.7894,112.219 87.7894,82.4198 "/>
   <polygon id="_224595984" class="fil0 str1" points="100.233,99.8508 100.233,129.649 102.289,129.649 102.289,99.8508 "/>
   <polygon id="_224596152" class="fil0 str1" points="114.733,117.282 114.733,147.08 116.788,147.08 116.788,117.282 "/>
   <polygon id="_222914168" class="fil0 str1" points="59.5613,87.8793 59.5613,77.3566 58.7908,77.3566 56.7356,77.3566 55.9652,77.3566 55.9652,87.8793 "/>
   <polygon id="_224359784" class="fil0 str1" points="70.4646,94.7876 70.4646,105.31 74.0606,105.31 74.0606,94.7876 73.2901,94.7876 71.2349,94.7876 "/>
   <polygon id="_224355992" class="fil0 str1" points="84.9639,112.219 84.9639,122.741 88.5598,122.741 88.5598,112.219 87.7894,112.219 85.7342,112.219 "/>
   <polygon id="_224597592" class="fil0 str1" points="99.4632,129.649 99.4632,140.172 103.059,140.172 103.059,129.649 102.289,129.649 100.233,129.649 "/>
   <polygon id="_224597616" class="fil0 str1" points="113.962,147.08 113.962,157.603 117.558,157.603 117.558,147.08 116.788,147.08 114.733,147.08 "/>
   <polygon id="_224593896" class="fil0 str1" points="43.0759,48.1015 43.0745,25.7544 38.8251,25.7544 38.8251,70.4485 43.077,70.4485 "/>
   <polygon id="_224355512" class="fil0 str1" points="44.2402,24.1047 55.9652,38.2003 59.5613,42.5233 70.4646,55.6311 74.0606,59.9542 84.9639,73.062 88.5598,77.385 99.4632,90.4929 103.059,94.816 113.962,107.924 117.558,112.247 119.533,114.621 119.533,106.796 44.2402,16.2799 "/>
  </g>
 </g>
</svg>
