<?xml version="1.0" encoding="UTF-8"?>
<!DOCTYPE svg PUBLIC "-//W3C//DTD SVG 1.1//EN" "http://www.w3.org/Graphics/SVG/1.1/DTD/svg11.dtd">
<!-- Creator: CorelDRAW -->
<svg xmlns="http://www.w3.org/2000/svg" xml:space="preserve" width="210mm" height="297mm" style="shape-rendering:geometricPrecision; text-rendering:geometricPrecision; image-rendering:optimizeQuality; fill-rule:evenodd; clip-rule:evenodd"
viewBox="0 0 210 297"
 xmlns:xlink="http://www.w3.org/1999/xlink">
 <defs>
  <style type="text/css">
   <![CDATA[
   ]]>
  </style>
 </defs>
 <g id="layer_01">
  <metadata id="CorelCorpID_0Corel-Layer"/>
  <g id="_224356472">
   <polygon id="_224354120" class="fil0" points="21.3934,9.2163 28.4532,9.2163 28.4532,16.6572 21.3934,16.6572 "/>
   <polygon id="_224358512" class="fil0" points="116.287,69.7628 109.227,69.7628 109.227,77.2036 116.287,77.2036 "/>
   <polygon id="_224355944" class="fil0" points="166.116,163.526 112.115,182.426 99.5357,190.499 75.6887,190.499 75.6887,179.149 102.564,161.122 166.116,147.389 "/>
   <polygon id="_224357192" class="fil0" points="83.4824,143.101 90.5421,143.101 90.5421,150.542 83.4824,150.542 "/>
   <path id="_224595192" class="fil0" d="M112.758 67.57l0 0c1.2659,0 2.3013,0.6457 2.3013,1.4348l0 0.7576 -4.6025 0 0 -0.7576c0,-0.7891 1.0356,-1.4348 2.3012,-1.4348z"/>
   <path id="_224595216" class="fil0" d="M87.0128 140.909l0.0002 0c1.2658,0 2.3012,0.6456 2.3012,1.4347l0 0.7576 -4.6025 0 0 -0.7576c0,-0.7891 1.0356,-1.4347 2.3011,-1.4347z"/>
   <path id="_222914984" class="fil0" d="M24.9232 7.0239l0.0002 0c1.2657,0 2.3011,0.6456 2.3011,1.4348l0 0.7576 -4.6024 0 0 -0.7576c0,-0.7892 1.0356,-1.4348 2.3011,-1.4348z"/>
   <polygon id="_224599416" class="fil0" points="41.0316,58.2124 33.2544,58.2124 33.2544,46.553 27.2054,46.553 22.6439,46.553 21.1566,46.553 21.1566,59.6516 109.227,125.667 109.227,104.85 107.109,104.85 103.25,104.85 95.4744,104.85 95.4744,93.1909 91.5535,93.1909 87.6969,93.1909 79.9187,93.1909 79.9187,81.5314 75.9989,81.5314 72.1413,81.5314 64.3639,81.5314 64.3639,69.8718 60.4444,69.8718 56.5866,69.8718 48.809,69.8718 48.809,58.2124 44.8896,58.2124 "/>
   <polygon id="_222913568" class="fil0" points="48.809,58.2124 48.809,69.8718 56.5866,69.8718 60.4444,69.8718 64.3639,69.8718 64.3639,81.5314 72.1413,81.5314 75.9989,81.5314 79.9187,81.5314 79.9187,93.1909 87.6969,93.1909 91.5535,93.1909 95.4744,93.1909 95.4744,104.85 103.25,104.85 107.109,104.85 109.227,104.85 109.227,100.158 110.291,100.158 110.291,93.8852 27.2042,31.6052 27.2054,46.553 33.2544,46.553 33.2544,58.2124 41.0316,58.2124 44.8896,58.2124 "/>
   <polygon id="_224359616" class="fil0" points="110.291,77.2036 110.291,93.8852 110.291,100.158 115.223,100.158 115.223,99.4109 115.223,77.2036 "/>
   <polygon id="_224353376" class="fil0" points="115.223,100.158 110.291,100.158 109.227,100.158 109.227,104.85 109.227,125.667 109.227,132.453 109.227,137.253 109.227,155.913 116.287,155.913 116.287,147.186 116.287,138.07 116.287,126.361 116.287,115.531 116.287,100.158 "/>
   <polygon id="_224595864" class="fil0" points="116.287,100.158 116.287,115.531 141.327,115.531 141.327,126.361 166.116,126.361 166.116,116.404 115.223,99.4109 115.223,100.158 "/>
   <polygon id="_224353496" class="fil0" points="141.327,115.531 116.287,115.531 116.287,126.361 141.327,126.361 "/>
   <polygon id="_224356424" class="fil0" points="141.327,126.361 116.287,126.361 116.287,138.07 166.116,138.07 166.116,126.361 "/>
   <polygon id="_224358968" class="fil0" points="166.116,138.07 116.287,138.07 116.287,147.186 166.116,147.186 "/>
   <polygon id="_224355800" class="fil0" points="166.116,147.186 116.287,147.186 116.287,155.913 126.672,155.913 166.116,147.389 "/>
   <polygon id="_224357600" class="fil0" points="103.866,147.462 103.866,140.649 100.007,143.092 100.007,147.462 100.834,147.462 103.038,147.462 "/>
   <polygon id="_224355872" class="fil0" points="89.2929,170.023 89.2929,150.542 84.733,150.542 84.733,173.083 "/>
   <polygon id="_224357672" class="fil0" points="90.5421,149.085 100.007,143.092 103.866,140.649 109.227,137.253 109.227,132.453 90.5421,144.284 "/>
   <polygon id="_224595744" class="fil0" points="116.287,155.913 109.227,155.913 109.227,159.683 126.672,155.913 "/>
   <polygon id="_224595576" class="fil0" points="103.038,147.462 100.834,147.462 100.834,162.283 102.564,161.122 103.038,161.02 "/>
   <polygon id="_224596272" class="fil0" points="44.8896,31.2417 44.8896,27.8739 41.0316,24.9822 41.0316,31.2417 41.8581,31.2417 44.0629,31.2417 "/>
   <polygon id="_224596584" class="fil0" points="56.5866,36.6417 56.5866,42.9012 57.4128,42.9012 59.6177,42.9012 60.4444,42.9012 60.4444,39.5333 "/>
   <polygon id="_224595360" class="fil0" points="72.1413,48.3011 72.1413,54.5605 72.9676,54.5605 75.1725,54.5605 75.9989,54.5605 75.9989,51.1928 "/>
   <polygon id="_224596872" class="fil0" points="87.6969,59.9607 87.6969,66.2201 88.5212,66.2201 90.7272,66.2201 91.5535,66.2201 91.5535,62.8524 "/>
   <polygon id="_224596824" class="fil0" points="103.25,71.6203 103.25,77.8798 104.076,77.8798 106.282,77.8798 107.109,77.8798 107.109,74.5119 "/>
   <polygon id="_224597112" class="fil0" points="44.0629,51.1738 44.0629,31.2417 41.8581,31.2417 41.8581,51.1738 "/>
   <polygon id="_224596896" class="fil0" points="57.4128,42.9012 57.4128,62.8334 59.6177,62.8334 59.6177,42.9012 "/>
   <polygon id="_224597064" class="fil0" points="72.9676,54.5605 72.9676,74.4932 75.1725,74.4932 75.1725,54.5605 "/>
   <polygon id="_224595984" class="fil0" points="88.5212,66.2201 88.5212,86.1521 90.7272,86.1521 90.7272,66.2201 "/>
   <polygon id="_224596152" class="fil0" points="104.076,77.8798 104.076,97.8116 106.282,97.8116 106.282,77.8798 "/>
   <polygon id="_222914168" class="fil0" points="44.8896,58.2124 44.8896,51.1738 44.0629,51.1738 41.8581,51.1738 41.0316,51.1738 41.0316,58.2124 "/>
   <polygon id="_224359784" class="fil0" points="56.5866,62.8334 56.5866,69.8718 60.4444,69.8718 60.4444,62.8334 59.6177,62.8334 57.4128,62.8334 "/>
   <polygon id="_224355992" class="fil0" points="72.1413,74.4932 72.1413,81.5314 75.9989,81.5314 75.9989,74.4932 75.1725,74.4932 72.9676,74.4932 "/>
   <polygon id="_224597592" class="fil0" points="87.6969,86.1521 87.6969,93.1909 91.5535,93.1909 91.5535,86.1521 90.7272,86.1521 88.5212,86.1521 "/>
   <polygon id="_224597616" class="fil0" points="103.25,97.8116 103.25,104.85 107.109,104.85 107.109,97.8116 106.282,97.8116 104.076,97.8116 "/>
   <polygon id="_224593896" class="fil0" points="27.2042,31.6052 27.2027,16.6572 22.6439,16.6572 22.6439,46.553 27.2054,46.553 "/>
   <polygon id="_224355512" class="fil0" points="28.4532,15.5538 41.0316,24.9822 44.8896,27.8739 56.5866,36.6417 60.4444,39.5333 72.1413,48.3011 75.9989,51.1928 87.6969,59.9607 91.5535,62.8524 103.25,71.6203 107.109,74.5119 109.227,76.0999 109.227,70.8657 28.4532,10.3198 "/>
  </g>
 </g>
</svg>
