<?xml version="1.0" encoding="UTF-8"?>
<!DOCTYPE svg PUBLIC "-//W3C//DTD SVG 1.1//EN" "http://www.w3.org/Graphics/SVG/1.1/DTD/svg11.dtd">
<!-- Creator: CorelDRAW -->
<svg xmlns="http://www.w3.org/2000/svg" xml:space="preserve" width="210mm" height="297mm" style="shape-rendering:geometricPrecision; text-rendering:geometricPrecision; image-rendering:optimizeQuality; fill-rule:evenodd; clip-rule:evenodd"
viewBox="0 0 210 297"
 xmlns:xlink="http://www.w3.org/1999/xlink">
 <defs>
  <style type="text/css">
   <![CDATA[
   ]]>
  </style>
 </defs>
 <g id="layer_01">
  <metadata id="CorelCorpID_0Corel-Layer"/>
  <g id="_224356472">
   <polygon id="_224354120" class="fil0" points="46.2553,8.8282 51.7584,8.8282 51.7584,14.952 46.2553,14.952 "/>
   <polygon id="_224358512" class="fil0" points="120.225,58.6573 114.722,58.6573 114.722,64.781 120.225,64.781 "/>
   <polygon id="_224355944" class="fil0" points="159.067,135.824 116.973,151.378 107.167,158.022 88.5786,158.022 88.5786,148.681 109.528,133.845 159.067,122.543 "/>
   <polygon id="_224357192" class="fil0" points="94.6538,119.014 100.157,119.014 100.157,125.138 94.6538,125.138 "/>
   <path id="_224595192" class="fil0" d="M117.474 56.8527l0 0c0.9868,0 1.7939,0.5314 1.7939,1.1808l0 0.6235 -3.5876 0 0 -0.6235c0,-0.6494 0.8073,-1.1808 1.7937,-1.1808z"/>
   <path id="_224595216" class="fil0" d="M97.4058 117.21l0.0002 0c0.9866,0 1.7937,0.5313 1.7937,1.1807l0 0.6235 -3.5876 0 0 -0.6235c0,-0.6494 0.8072,-1.1807 1.7937,-1.1807z"/>
   <path id="_222914984" class="fil0" d="M49.0068 7.0239l0.0001 0c0.9867,0 1.7938,0.5313 1.7938,1.1808l0 0.6235 -3.5877 0 0 -0.6235c0,-0.6495 0.8073,-1.1808 1.7938,-1.1808z"/>
   <polygon id="_224599416" class="fil0" points="61.5633,49.1515 55.501,49.1515 55.501,39.5559 50.7858,39.5559 47.2301,39.5559 46.0707,39.5559 46.0707,50.3359 114.722,104.666 114.722,87.534 113.071,87.534 110.063,87.534 104.002,87.534 104.002,77.9384 100.945,77.9384 97.939,77.9384 91.8759,77.9384 91.8759,68.3427 88.8204,68.3427 85.8134,68.3427 79.7509,68.3427 79.7509,58.747 76.6956,58.747 73.6884,58.747 67.6258,58.747 67.6258,49.1515 64.5706,49.1515 "/>
   <polygon id="_222913568" class="fil0" points="67.6258,49.1515 67.6258,58.747 73.6884,58.747 76.6956,58.747 79.7509,58.747 79.7509,68.3427 85.8134,68.3427 88.8204,68.3427 91.8759,68.3427 91.8759,77.9384 97.939,77.9384 100.945,77.9384 104.002,77.9384 104.002,87.534 110.063,87.534 113.071,87.534 114.722,87.534 114.722,83.6718 115.551,83.6718 115.551,78.5098 50.7849,27.254 50.7858,39.5559 55.501,39.5559 55.501,49.1515 61.5633,49.1515 64.5706,49.1515 "/>
   <polygon id="_224359616" class="fil0" points="115.551,64.781 115.551,78.5098 115.551,83.6718 119.396,83.6718 119.396,83.0574 119.396,64.781 "/>
   <polygon id="_224353376" class="fil0" points="119.396,83.6718 115.551,83.6718 114.722,83.6718 114.722,87.534 114.722,104.666 114.722,110.251 114.722,114.201 114.722,129.558 120.225,129.558 120.225,122.376 120.225,114.874 120.225,105.237 120.225,96.3243 120.225,83.6718 "/>
   <polygon id="_224595864" class="fil0" points="120.225,83.6718 120.225,96.3243 139.744,96.3243 139.744,105.237 159.067,105.237 159.067,97.0427 119.396,83.0574 119.396,83.6718 "/>
   <polygon id="_224353496" class="fil0" points="139.744,96.3243 120.225,96.3243 120.225,105.237 139.744,105.237 "/>
   <polygon id="_224356424" class="fil0" points="139.744,105.237 120.225,105.237 120.225,114.874 159.067,114.874 159.067,105.237 "/>
   <polygon id="_224358968" class="fil0" points="159.067,114.874 120.225,114.874 120.225,122.376 159.067,122.376 "/>
   <polygon id="_224355800" class="fil0" points="159.067,122.376 120.225,122.376 120.225,129.558 128.321,129.558 159.067,122.543 "/>
   <polygon id="_224357600" class="fil0" points="110.543,122.603 110.543,116.996 107.535,119.007 107.535,122.603 108.179,122.603 109.897,122.603 "/>
   <polygon id="_224355872" class="fil0" points="99.1831,141.171 99.1831,125.138 95.6286,125.138 95.6286,143.689 "/>
   <polygon id="_224357672" class="fil0" points="100.157,123.939 107.535,119.007 110.543,116.996 114.722,114.201 114.722,110.251 100.157,119.988 "/>
   <polygon id="_224595744" class="fil0" points="120.225,129.558 114.722,129.558 114.722,132.661 128.321,129.558 "/>
   <polygon id="_224595576" class="fil0" points="109.897,122.603 108.179,122.603 108.179,134.801 109.528,133.845 109.897,133.761 "/>
   <polygon id="_224596272" class="fil0" points="64.5706,26.9549 64.5706,24.1832 61.5633,21.8034 61.5633,26.9549 62.2076,26.9549 63.9262,26.9549 "/>
   <polygon id="_224596584" class="fil0" points="73.6884,31.399 73.6884,36.5505 74.3325,36.5505 76.0512,36.5505 76.6956,36.5505 76.6956,33.7788 "/>
   <polygon id="_224595360" class="fil0" points="85.8134,40.9946 85.8134,46.146 86.4575,46.146 88.1762,46.146 88.8204,46.146 88.8204,43.3744 "/>
   <polygon id="_224596872" class="fil0" points="97.939,50.5903 97.939,55.7417 98.5816,55.7417 100.301,55.7417 100.945,55.7417 100.945,52.9701 "/>
   <polygon id="_224596824" class="fil0" points="110.063,60.186 110.063,65.3375 110.707,65.3375 112.427,65.3375 113.071,65.3375 113.071,62.5658 "/>
   <polygon id="_224597112" class="fil0" points="63.9262,43.3588 63.9262,26.9549 62.2076,26.9549 62.2076,43.3588 "/>
   <polygon id="_224596896" class="fil0" points="74.3325,36.5505 74.3325,52.9545 76.0512,52.9545 76.0512,36.5505 "/>
   <polygon id="_224597064" class="fil0" points="86.4575,46.146 86.4575,62.5504 88.1762,62.5504 88.1762,46.146 "/>
   <polygon id="_224595984" class="fil0" points="98.5816,55.7417 98.5816,72.1455 100.301,72.1455 100.301,55.7417 "/>
   <polygon id="_224596152" class="fil0" points="110.707,65.3375 110.707,81.7412 112.427,81.7412 112.427,65.3375 "/>
   <polygon id="_222914168" class="fil0" points="64.5706,49.1515 64.5706,43.3588 63.9262,43.3588 62.2076,43.3588 61.5633,43.3588 61.5633,49.1515 "/>
   <polygon id="_224359784" class="fil0" points="73.6884,52.9545 73.6884,58.747 76.6956,58.747 76.6956,52.9545 76.0512,52.9545 74.3325,52.9545 "/>
   <polygon id="_224355992" class="fil0" points="85.8134,62.5504 85.8134,68.3427 88.8204,68.3427 88.8204,62.5504 88.1762,62.5504 86.4575,62.5504 "/>
   <polygon id="_224597592" class="fil0" points="97.939,72.1455 97.939,77.9384 100.945,77.9384 100.945,72.1455 100.301,72.1455 98.5816,72.1455 "/>
   <polygon id="_224597616" class="fil0" points="110.063,81.7412 110.063,87.534 113.071,87.534 113.071,81.7412 112.427,81.7412 110.707,81.7412 "/>
   <polygon id="_224593896" class="fil0" points="50.7849,27.254 50.7836,14.952 47.2301,14.952 47.2301,39.5559 50.7858,39.5559 "/>
   <polygon id="_224355512" class="fil0" points="51.7584,14.0439 61.5633,21.8034 64.5706,24.1832 73.6884,31.399 76.6956,33.7788 85.8134,40.9946 88.8204,43.3744 97.939,50.5903 100.945,52.9701 110.063,60.186 113.071,62.5658 114.722,63.8727 114.722,59.565 51.7584,9.7364 "/>
  </g>
 </g>
</svg>
