<?xml version="1.0" encoding="UTF-8"?>
<!DOCTYPE svg PUBLIC "-//W3C//DTD SVG 1.1//EN" "http://www.w3.org/Graphics/SVG/1.1/DTD/svg11.dtd">
<!-- Creator: CorelDRAW -->
<svg xmlns="http://www.w3.org/2000/svg" xml:space="preserve" width="210mm" height="297mm" style="shape-rendering:geometricPrecision; text-rendering:geometricPrecision; image-rendering:optimizeQuality; fill-rule:evenodd; clip-rule:evenodd"
viewBox="0 0 210 297"
 xmlns:xlink="http://www.w3.org/1999/xlink">
 <defs>
  <style type="text/css">
   <![CDATA[
   ]]>
  </style>
 </defs>
 <g id="layer_01">
  <metadata id="CorelCorpID_0Corel-Layer"/>
  <g id="_224356472">
   <polygon id="_224354120" class="fil0" points="46.2553,9.2891 51.7584,9.2891 51.7584,16.9773 46.2553,16.9773 "/>
   <polygon id="_224358512" class="fil0" points="120.225,71.8475 114.722,71.8475 114.722,79.5356 120.225,79.5356 "/>
   <polygon id="_224355944" class="fil0" points="159.067,168.727 116.973,188.254 107.167,196.595 88.5786,196.595 88.5786,184.868 109.528,166.242 159.067,152.053 "/>
   <polygon id="_224357192" class="fil0" points="94.6538,147.623 100.157,147.623 100.157,155.311 94.6538,155.311 "/>
   <path id="_224595192" class="fil0" d="M117.474 69.5819l0 0c0.9868,0 1.7939,0.6672 1.7939,1.4825l0 0.7827 -3.5876 0 0 -0.7827c0,-0.8153 0.8073,-1.4825 1.7937,-1.4825z"/>
   <path id="_224595216" class="fil0" d="M97.4058 145.358l0.0002 0c0.9866,0 1.7937,0.6671 1.7937,1.4824l0 0.7827 -3.5876 0 0 -0.7827c0,-0.8153 0.8072,-1.4824 1.7937,-1.4824z"/>
   <path id="_222914984" class="fil0" d="M49.0068 7.0239l0.0001 0c0.9867,0 1.7938,0.667 1.7938,1.4824l0 0.7828 -3.5877 0 0 -0.7828c0,-0.8154 0.8073,-1.4824 1.7938,-1.4824z"/>
   <polygon id="_224599416" class="fil0" points="61.5633,59.9134 55.501,59.9134 55.501,47.8665 50.7858,47.8665 47.2301,47.8665 46.0707,47.8665 46.0707,61.4003 114.722,129.609 114.722,108.101 113.071,108.101 110.063,108.101 104.002,108.101 104.002,96.0541 100.945,96.0541 97.939,96.0541 91.8759,96.0541 91.8759,84.0071 88.8204,84.0071 85.8134,84.0071 79.7509,84.0071 79.7509,71.9601 76.6956,71.9601 73.6884,71.9601 67.6258,71.9601 67.6258,59.9134 64.5706,59.9134 "/>
   <polygon id="_222913568" class="fil0" points="67.6258,59.9134 67.6258,71.9601 73.6884,71.9601 76.6956,71.9601 79.7509,71.9601 79.7509,84.0071 85.8134,84.0071 88.8204,84.0071 91.8759,84.0071 91.8759,96.0541 97.939,96.0541 100.945,96.0541 104.002,96.0541 104.002,108.101 110.063,108.101 113.071,108.101 114.722,108.101 114.722,103.252 115.551,103.252 115.551,96.7715 50.7849,32.422 50.7858,47.8665 55.501,47.8665 55.501,59.9134 61.5633,59.9134 64.5706,59.9134 "/>
   <polygon id="_224359616" class="fil0" points="115.551,79.5356 115.551,96.7715 115.551,103.252 119.396,103.252 119.396,102.481 119.396,79.5356 "/>
   <polygon id="_224353376" class="fil0" points="119.396,103.252 115.551,103.252 114.722,103.252 114.722,108.101 114.722,129.609 114.722,136.621 114.722,141.58 114.722,160.86 120.225,160.86 120.225,151.843 120.225,142.425 120.225,130.326 120.225,119.137 120.225,103.252 "/>
   <polygon id="_224595864" class="fil0" points="120.225,103.252 120.225,119.137 139.744,119.137 139.744,130.326 159.067,130.326 159.067,120.039 119.396,102.481 119.396,103.252 "/>
   <polygon id="_224353496" class="fil0" points="139.744,119.137 120.225,119.137 120.225,130.326 139.744,130.326 "/>
   <polygon id="_224356424" class="fil0" points="139.744,130.326 120.225,130.326 120.225,142.425 159.067,142.425 159.067,130.326 "/>
   <polygon id="_224358968" class="fil0" points="159.067,142.425 120.225,142.425 120.225,151.843 159.067,151.843 "/>
   <polygon id="_224355800" class="fil0" points="159.067,151.843 120.225,151.843 120.225,160.86 128.321,160.86 159.067,152.053 "/>
   <polygon id="_224357600" class="fil0" points="110.543,152.128 110.543,145.089 107.535,147.614 107.535,152.128 108.179,152.128 109.897,152.128 "/>
   <polygon id="_224355872" class="fil0" points="99.1831,175.44 99.1831,155.311 95.6286,155.311 95.6286,178.601 "/>
   <polygon id="_224357672" class="fil0" points="100.157,153.806 107.535,147.614 110.543,145.089 114.722,141.58 114.722,136.621 100.157,148.845 "/>
   <polygon id="_224595744" class="fil0" points="120.225,160.86 114.722,160.86 114.722,164.756 128.321,160.86 "/>
   <polygon id="_224595576" class="fil0" points="109.897,152.128 108.179,152.128 108.179,167.442 109.528,166.242 109.897,166.137 "/>
   <polygon id="_224596272" class="fil0" points="64.5706,32.0464 64.5706,28.5667 61.5633,25.579 61.5633,32.0464 62.2076,32.0464 63.9262,32.0464 "/>
   <polygon id="_224596584" class="fil0" points="73.6884,37.6258 73.6884,44.0933 74.3325,44.0933 76.0512,44.0933 76.6956,44.0933 76.6956,40.6136 "/>
   <polygon id="_224595360" class="fil0" points="85.8134,49.6727 85.8134,56.1401 86.4575,56.1401 88.1762,56.1401 88.8204,56.1401 88.8204,52.6605 "/>
   <polygon id="_224596872" class="fil0" points="97.939,61.7197 97.939,68.1871 98.5816,68.1871 100.301,68.1871 100.945,68.1871 100.945,64.7075 "/>
   <polygon id="_224596824" class="fil0" points="110.063,73.7667 110.063,80.2342 110.707,80.2342 112.427,80.2342 113.071,80.2342 113.071,76.7545 "/>
   <polygon id="_224597112" class="fil0" points="63.9262,52.6409 63.9262,32.0464 62.2076,32.0464 62.2076,52.6409 "/>
   <polygon id="_224596896" class="fil0" points="74.3325,44.0933 74.3325,64.6879 76.0512,64.6879 76.0512,44.0933 "/>
   <polygon id="_224597064" class="fil0" points="86.4575,56.1401 86.4575,76.7351 88.1762,76.7351 88.1762,56.1401 "/>
   <polygon id="_224595984" class="fil0" points="98.5816,68.1871 98.5816,88.7814 100.301,88.7814 100.301,68.1871 "/>
   <polygon id="_224596152" class="fil0" points="110.707,80.2342 110.707,100.828 112.427,100.828 112.427,80.2342 "/>
   <polygon id="_222914168" class="fil0" points="64.5706,59.9134 64.5706,52.6409 63.9262,52.6409 62.2076,52.6409 61.5633,52.6409 61.5633,59.9134 "/>
   <polygon id="_224359784" class="fil0" points="73.6884,64.6879 73.6884,71.9601 76.6956,71.9601 76.6956,64.6879 76.0512,64.6879 74.3325,64.6879 "/>
   <polygon id="_224355992" class="fil0" points="85.8134,76.7351 85.8134,84.0071 88.8204,84.0071 88.8204,76.7351 88.1762,76.7351 86.4575,76.7351 "/>
   <polygon id="_224597592" class="fil0" points="97.939,88.7814 97.939,96.0541 100.945,96.0541 100.945,88.7814 100.301,88.7814 98.5816,88.7814 "/>
   <polygon id="_224597616" class="fil0" points="110.063,100.828 110.063,108.101 113.071,108.101 113.071,100.828 112.427,100.828 110.707,100.828 "/>
   <polygon id="_224593896" class="fil0" points="50.7849,32.422 50.7836,16.9773 47.2301,16.9773 47.2301,47.8665 50.7858,47.8665 "/>
   <polygon id="_224355512" class="fil0" points="51.7584,15.8372 61.5633,25.579 64.5706,28.5667 73.6884,37.6258 76.6956,40.6136 85.8134,49.6727 88.8204,52.6605 97.939,61.7197 100.945,64.7075 110.063,73.7667 113.071,76.7545 114.722,78.3952 114.722,72.9871 51.7584,10.4293 "/>
  </g>
 </g>
</svg>
