<?xml version="1.0" encoding="UTF-8"?>
<!DOCTYPE svg PUBLIC "-//W3C//DTD SVG 1.1//EN" "http://www.w3.org/Graphics/SVG/1.1/DTD/svg11.dtd">
<!-- Creator: CorelDRAW -->
<svg xmlns="http://www.w3.org/2000/svg" xml:space="preserve" width="210mm" height="297mm" style="shape-rendering:geometricPrecision; text-rendering:geometricPrecision; image-rendering:optimizeQuality; fill-rule:evenodd; clip-rule:evenodd"
viewBox="0 0 210 297"
 xmlns:xlink="http://www.w3.org/1999/xlink">
 <defs>
  <style type="text/css">
   <![CDATA[

   ]]>
  </style>
 </defs>
 <g id="layer_01">
  <metadata id="CorelCorpID_0Corel-Layer"/>
  <g id="_224356472">
   <polygon id="_224354120" class="fil0" points="67.3169,7.0365 70.9396,7.0365 70.9396,13.1603 67.3169,13.1603 "/>
   <polygon id="_224358512" class="fil0" points="116.011,56.8656 112.388,56.8656 112.388,62.9893 116.011,62.9893 "/>
   <polygon id="_224355944" class="fil0" points="141.58,134.032 113.87,149.586 107.415,156.23 95.1781,156.23 95.1781,146.889 108.969,132.053 141.58,120.751 "/>
   <polygon id="_224357192" class="fil0" points="99.1774,117.222 102.8,117.222 102.8,123.346 99.1774,123.346 "/>
   <path id="_224595192" class="fil0" d="M114.2 55.061l0 0c0.6496,0 1.1809,0.5314 1.1809,1.1808l0 0.6235 -2.3617 0 0 -0.6235c0,-0.6494 0.5314,-1.1808 1.1808,-1.1808z"/>
   <path id="_224595216" class="fil0" d="M100.989 115.418l0.0001 0c0.6495,0 1.1808,0.5313 1.1808,1.1807l0 0.6235 -2.3617 0 0 -0.6235c0,-0.6494 0.5314,-1.1807 1.1808,-1.1807z"/>
   <path id="_222914984" class="fil0" d="M69.1282 5.2322l0.0001 0c0.6495,0 1.1808,0.5313 1.1808,1.1808l0 0.6235 -2.3617 0 0 -0.6235c0,-0.6495 0.5314,-1.1808 1.1808,-1.1808z"/>
   <polygon id="_224599416" class="fil0" points="77.3941,47.3598 73.4033,47.3598 73.4033,37.7642 70.2993,37.7642 67.9586,37.7642 67.1954,37.7642 67.1954,48.5442 112.388,102.874 112.388,85.7423 111.301,85.7423 109.321,85.7423 105.331,85.7423 105.331,76.1467 103.319,76.1467 101.34,76.1467 97.3487,76.1467 97.3487,66.551 95.3373,66.551 93.3578,66.551 89.3669,66.551 89.3669,56.9553 87.3556,56.9553 85.376,56.9553 81.385,56.9553 81.385,47.3598 79.3738,47.3598 "/>
   <polygon id="_222913568" class="fil0" points="81.385,47.3598 81.385,56.9553 85.376,56.9553 87.3556,56.9553 89.3669,56.9553 89.3669,66.551 93.3578,66.551 95.3373,66.551 97.3487,66.551 97.3487,76.1467 101.34,76.1467 103.319,76.1467 105.331,76.1467 105.331,85.7423 109.321,85.7423 111.301,85.7423 112.388,85.7423 112.388,81.8801 112.934,81.8801 112.934,76.7181 70.2987,25.4623 70.2993,37.7642 73.4033,37.7642 73.4033,47.3598 77.3941,47.3598 79.3738,47.3598 "/>
   <polygon id="_224359616" class="fil0" points="112.934,62.9893 112.934,76.7181 112.934,81.8801 115.465,81.8801 115.465,81.2657 115.465,62.9893 "/>
   <polygon id="_224353376" class="fil0" points="115.465,81.8801 112.934,81.8801 112.388,81.8801 112.388,85.7423 112.388,102.874 112.388,108.459 112.388,112.409 112.388,127.766 116.011,127.766 116.011,120.584 116.011,113.082 116.011,103.445 116.011,94.5326 116.011,81.8801 "/>
   <polygon id="_224595864" class="fil0" points="116.011,81.8801 116.011,94.5326 128.86,94.5326 128.86,103.445 141.58,103.445 141.58,95.251 115.465,81.2657 115.465,81.8801 "/>
   <polygon id="_224353496" class="fil0" points="128.86,94.5326 116.011,94.5326 116.011,103.445 128.86,103.445 "/>
   <polygon id="_224356424" class="fil0" points="128.86,103.445 116.011,103.445 116.011,113.082 141.58,113.082 141.58,103.445 "/>
   <polygon id="_224358968" class="fil0" points="141.58,113.082 116.011,113.082 116.011,120.584 141.58,120.584 "/>
   <polygon id="_224355800" class="fil0" points="141.58,120.584 116.011,120.584 116.011,127.766 121.34,127.766 141.58,120.751 "/>
   <polygon id="_224357600" class="fil0" points="109.637,120.811 109.637,115.204 107.657,117.215 107.657,120.811 108.081,120.811 109.212,120.811 "/>
   <polygon id="_224355872" class="fil0" points="102.159,139.379 102.159,123.346 99.8191,123.346 99.8191,141.897 "/>
   <polygon id="_224357672" class="fil0" points="102.8,122.147 107.657,117.215 109.637,115.204 112.388,112.409 112.388,108.459 102.8,118.196 "/>
   <polygon id="_224595744" class="fil0" points="116.011,127.766 112.388,127.766 112.388,130.869 121.34,127.766 "/>
   <polygon id="_224595576" class="fil0" points="109.212,120.811 108.081,120.811 108.081,133.009 108.969,132.053 109.212,131.969 "/>
   <polygon id="_224596272" class="fil0" points="79.3738,25.1632 79.3738,22.3915 77.3941,20.0117 77.3941,25.1632 77.8182,25.1632 78.9496,25.1632 "/>
   <polygon id="_224596584" class="fil0" points="85.376,29.6073 85.376,34.7588 85.8,34.7588 86.9314,34.7588 87.3556,34.7588 87.3556,31.9871 "/>
   <polygon id="_224595360" class="fil0" points="93.3578,39.2029 93.3578,44.3543 93.7818,44.3543 94.9132,44.3543 95.3373,44.3543 95.3373,41.5827 "/>
   <polygon id="_224596872" class="fil0" points="101.34,48.7986 101.34,53.95 101.763,53.95 102.895,53.95 103.319,53.95 103.319,51.1784 "/>
   <polygon id="_224596824" class="fil0" points="109.321,58.3943 109.321,63.5458 109.745,63.5458 110.877,63.5458 111.301,63.5458 111.301,60.7741 "/>
   <polygon id="_224597112" class="fil0" points="78.9496,41.5671 78.9496,25.1632 77.8182,25.1632 77.8182,41.5671 "/>
   <polygon id="_224596896" class="fil0" points="85.8,34.7588 85.8,51.1628 86.9314,51.1628 86.9314,34.7588 "/>
   <polygon id="_224597064" class="fil0" points="93.7818,44.3543 93.7818,60.7587 94.9132,60.7587 94.9132,44.3543 "/>
   <polygon id="_224595984" class="fil0" points="101.763,53.95 101.763,70.3538 102.895,70.3538 102.895,53.95 "/>
   <polygon id="_224596152" class="fil0" points="109.745,63.5458 109.745,79.9495 110.877,79.9495 110.877,63.5458 "/>
   <polygon id="_222914168" class="fil0" points="79.3738,47.3598 79.3738,41.5671 78.9496,41.5671 77.8182,41.5671 77.3941,41.5671 77.3941,47.3598 "/>
   <polygon id="_224359784" class="fil0" points="85.376,51.1628 85.376,56.9553 87.3556,56.9553 87.3556,51.1628 86.9314,51.1628 85.8,51.1628 "/>
   <polygon id="_224355992" class="fil0" points="93.3578,60.7587 93.3578,66.551 95.3373,66.551 95.3373,60.7587 94.9132,60.7587 93.7818,60.7587 "/>
   <polygon id="_224597592" class="fil0" points="101.34,70.3538 101.34,76.1467 103.319,76.1467 103.319,70.3538 102.895,70.3538 101.763,70.3538 "/>
   <polygon id="_224597616" class="fil0" points="109.321,79.9495 109.321,85.7423 111.301,85.7423 111.301,79.9495 110.877,79.9495 109.745,79.9495 "/>
   <polygon id="_224593896" class="fil0" points="70.2987,25.4623 70.2979,13.1603 67.9586,13.1603 67.9586,37.7642 70.2993,37.7642 "/>
   <polygon id="_224355512" class="fil0" points="70.9396,12.2522 77.3941,20.0117 79.3738,22.3915 85.376,29.6073 87.3556,31.9871 93.3578,39.2029 95.3373,41.5827 101.34,48.7986 103.319,51.1784 109.321,58.3943 111.301,60.7741 112.388,62.081 112.388,57.7733 70.9396,7.9447 "/>
  </g>
 </g>
</svg>
