<?xml version="1.0" encoding="UTF-8"?>
<!DOCTYPE svg PUBLIC "-//W3C//DTD SVG 1.1//EN" "http://www.w3.org/Graphics/SVG/1.1/DTD/svg11.dtd">
<!-- Creator: CorelDRAW -->
<svg xmlns="http://www.w3.org/2000/svg" xml:space="preserve" width="210mm" height="297mm" style="shape-rendering:geometricPrecision; text-rendering:geometricPrecision; image-rendering:optimizeQuality; fill-rule:evenodd; clip-rule:evenodd"
viewBox="0 0 210 297"
 xmlns:xlink="http://www.w3.org/1999/xlink">
 <defs>
  <style type="text/css">
   <![CDATA[

   ]]>
  </style>
 </defs>
 <g id="layer_01">
  <metadata id="CorelCorpID_0Corel-Layer"/>
  <g id="_224356472">
   <polygon id="_224354120" class="fil0" points="67.3169,7.3731 70.9396,7.3731 70.9396,14.6395 67.3169,14.6395 "/>
   <polygon id="_224358512" class="fil0" points="116.011,66.499 112.388,66.499 112.388,73.7653 116.011,73.7653 "/>
   <polygon id="_224355944" class="fil0" points="141.58,158.063 113.87,176.519 107.415,184.402 95.1781,184.402 95.1781,173.318 108.969,155.714 141.58,142.304 "/>
   <polygon id="_224357192" class="fil0" points="99.1774,138.116 102.8,138.116 102.8,145.383 99.1774,145.383 "/>
   <path id="_224595192" class="fil0" d="M114.2 64.3577l0 0c0.6496,0 1.1809,0.6306 1.1809,1.4011l0 0.7399 -2.3617 0 0 -0.7399c0,-0.7705 0.5314,-1.4011 1.1808,-1.4011z"/>
   <path id="_224595216" class="fil0" d="M100.989 135.976l0.0001 0c0.6495,0 1.1808,0.6304 1.1808,1.401l0 0.7398 -2.3617 0 0 -0.7398c0,-0.7706 0.5314,-1.401 1.1808,-1.401z"/>
   <path id="_222914984" class="fil0" d="M69.1282 5.2322l0.0001 0c0.6495,0 1.1808,0.6304 1.1808,1.4011l0 0.7398 -2.3617 0 0 -0.7398c0,-0.7707 0.5314,-1.4011 1.1808,-1.4011z"/>
   <polygon id="_224599416" class="fil0" points="77.3941,55.2197 73.4033,55.2197 73.4033,43.8338 70.2993,43.8338 67.9586,43.8338 67.1954,43.8338 67.1954,56.6251 112.388,121.091 112.388,100.763 111.301,100.763 109.321,100.763 105.331,100.763 105.331,89.3775 103.319,89.3775 101.34,89.3775 97.3487,89.3775 97.3487,77.9915 95.3373,77.9915 93.3578,77.9915 89.3669,77.9915 89.3669,66.6055 87.3556,66.6055 85.376,66.6055 81.385,66.6055 81.385,55.2197 79.3738,55.2197 "/>
   <polygon id="_222913568" class="fil0" points="81.385,55.2197 81.385,66.6055 85.376,66.6055 87.3556,66.6055 89.3669,66.6055 89.3669,77.9915 93.3578,77.9915 95.3373,77.9915 97.3487,77.9915 97.3487,89.3775 101.34,89.3775 103.319,89.3775 105.331,89.3775 105.331,100.763 109.321,100.763 111.301,100.763 112.388,100.763 112.388,96.1806 112.934,96.1806 112.934,90.0555 70.2987,29.2367 70.2993,43.8338 73.4033,43.8338 73.4033,55.2197 77.3941,55.2197 79.3738,55.2197 "/>
   <polygon id="_224359616" class="fil0" points="112.934,73.7653 112.934,90.0555 112.934,96.1806 115.465,96.1806 115.465,95.4515 115.465,73.7653 "/>
   <polygon id="_224353376" class="fil0" points="115.465,96.1806 112.934,96.1806 112.388,96.1806 112.388,100.763 112.388,121.091 112.388,127.718 112.388,132.405 112.388,150.628 116.011,150.628 116.011,142.106 116.011,133.204 116.011,121.769 116.011,111.194 116.011,96.1806 "/>
   <polygon id="_224595864" class="fil0" points="116.011,96.1806 116.011,111.194 128.86,111.194 128.86,121.769 141.58,121.769 141.58,112.046 115.465,95.4515 115.465,96.1806 "/>
   <polygon id="_224353496" class="fil0" points="128.86,111.194 116.011,111.194 116.011,121.769 128.86,121.769 "/>
   <polygon id="_224356424" class="fil0" points="128.86,121.769 116.011,121.769 116.011,133.204 141.58,133.204 141.58,121.769 "/>
   <polygon id="_224358968" class="fil0" points="141.58,133.204 116.011,133.204 116.011,142.106 141.58,142.106 "/>
   <polygon id="_224355800" class="fil0" points="141.58,142.106 116.011,142.106 116.011,150.628 121.34,150.628 141.58,142.304 "/>
   <polygon id="_224357600" class="fil0" points="109.637,142.375 109.637,135.722 107.657,138.108 107.657,142.375 108.081,142.375 109.212,142.375 "/>
   <polygon id="_224355872" class="fil0" points="102.159,164.407 102.159,145.383 99.8191,145.383 99.8191,167.395 "/>
   <polygon id="_224357672" class="fil0" points="102.8,143.96 107.657,138.108 109.637,135.722 112.388,132.405 112.388,127.718 102.8,139.272 "/>
   <polygon id="_224595744" class="fil0" points="116.011,150.628 112.388,150.628 112.388,154.31 121.34,150.628 "/>
   <polygon id="_224595576" class="fil0" points="109.212,142.375 108.081,142.375 108.081,156.849 108.969,155.714 109.212,155.615 "/>
   <polygon id="_224596272" class="fil0" points="79.3738,28.8818 79.3738,25.593 77.3941,22.7692 77.3941,28.8818 77.8182,28.8818 78.9496,28.8818 "/>
   <polygon id="_224596584" class="fil0" points="85.376,34.1551 85.376,40.2677 85.8,40.2677 86.9314,40.2677 87.3556,40.2677 87.3556,36.9789 "/>
   <polygon id="_224595360" class="fil0" points="93.3578,45.5409 93.3578,51.6535 93.7818,51.6535 94.9132,51.6535 95.3373,51.6535 95.3373,48.3647 "/>
   <polygon id="_224596872" class="fil0" points="101.34,56.9269 101.34,63.0395 101.763,63.0395 102.895,63.0395 103.319,63.0395 103.319,59.7507 "/>
   <polygon id="_224596824" class="fil0" points="109.321,68.3129 109.321,74.4256 109.745,74.4256 110.877,74.4256 111.301,74.4256 111.301,71.1368 "/>
   <polygon id="_224597112" class="fil0" points="78.9496,48.3462 78.9496,28.8818 77.8182,28.8818 77.8182,48.3462 "/>
   <polygon id="_224596896" class="fil0" points="85.8,40.2677 85.8,59.7322 86.9314,59.7322 86.9314,40.2677 "/>
   <polygon id="_224597064" class="fil0" points="93.7818,51.6535 93.7818,71.1185 94.9132,71.1185 94.9132,51.6535 "/>
   <polygon id="_224595984" class="fil0" points="101.763,63.0395 101.763,82.5038 102.895,82.5038 102.895,63.0395 "/>
   <polygon id="_224596152" class="fil0" points="109.745,74.4256 109.745,93.8898 110.877,93.8898 110.877,74.4256 "/>
   <polygon id="_222914168" class="fil0" points="79.3738,55.2197 79.3738,48.3462 78.9496,48.3462 77.8182,48.3462 77.3941,48.3462 77.3941,55.2197 "/>
   <polygon id="_224359784" class="fil0" points="85.376,59.7322 85.376,66.6055 87.3556,66.6055 87.3556,59.7322 86.9314,59.7322 85.8,59.7322 "/>
   <polygon id="_224355992" class="fil0" points="93.3578,71.1185 93.3578,77.9915 95.3373,77.9915 95.3373,71.1185 94.9132,71.1185 93.7818,71.1185 "/>
   <polygon id="_224597592" class="fil0" points="101.34,82.5038 101.34,89.3775 103.319,89.3775 103.319,82.5038 102.895,82.5038 101.763,82.5038 "/>
   <polygon id="_224597616" class="fil0" points="109.321,93.8898 109.321,100.763 111.301,100.763 111.301,93.8898 110.877,93.8898 109.745,93.8898 "/>
   <polygon id="_224593896" class="fil0" points="70.2987,29.2367 70.2979,14.6395 67.9586,14.6395 67.9586,43.8338 70.2993,43.8338 "/>
   <polygon id="_224355512" class="fil0" points="70.9396,13.5619 77.3941,22.7692 79.3738,25.593 85.376,34.1551 87.3556,36.9789 93.3578,45.5409 95.3373,48.3647 101.34,56.9269 103.319,59.7507 109.321,68.3129 111.301,71.1368 112.388,72.6875 112.388,67.5761 70.9396,8.4508 "/>
  </g>
 </g>
</svg>
