<?xml version="1.0" encoding="UTF-8"?>
<!DOCTYPE svg PUBLIC "-//W3C//DTD SVG 1.1//EN" "http://www.w3.org/Graphics/SVG/1.1/DTD/svg11.dtd">
<!-- Creator: CorelDRAW -->
<svg xmlns="http://www.w3.org/2000/svg" xml:space="preserve" width="210mm" height="297mm" style="shape-rendering:geometricPrecision; text-rendering:geometricPrecision; image-rendering:optimizeQuality; fill-rule:evenodd; clip-rule:evenodd"
viewBox="0 0 210 297"
 xmlns:xlink="http://www.w3.org/1999/xlink">
 <defs>
  <style type="text/css">
   <![CDATA[
   ]]>
  </style>
 </defs>
 <g id="layer_01">
  <metadata id="CorelCorpID_0Corel-Layer"/>
  <g id="_224356472">
   <polygon id="_224354120" class="fil0" points="21.3934,8.8282 28.4532,8.8282 28.4532,14.952 21.3934,14.952 "/>
   <polygon id="_224358512" class="fil0" points="116.287,58.6573 109.227,58.6573 109.227,64.781 116.287,64.781 "/>
   <polygon id="_224355944" class="fil0" points="166.116,135.824 112.115,151.378 99.5357,158.022 75.6887,158.022 75.6887,148.681 102.564,133.845 166.116,122.543 "/>
   <polygon id="_224357192" class="fil0" points="83.4824,119.014 90.5421,119.014 90.5421,125.138 83.4824,125.138 "/>
   <path id="_224595192" class="fil0" d="M112.758 56.8527l0 0c1.2659,0 2.3013,0.5314 2.3013,1.1808l0 0.6235 -4.6025 0 0 -0.6235c0,-0.6494 1.0356,-1.1808 2.3012,-1.1808z"/>
   <path id="_224595216" class="fil0" d="M87.0128 117.21l0.0002 0c1.2658,0 2.3012,0.5313 2.3012,1.1807l0 0.6235 -4.6025 0 0 -0.6235c0,-0.6494 1.0356,-1.1807 2.3011,-1.1807z"/>
   <path id="_222914984" class="fil0" d="M24.9232 7.0239l0.0002 0c1.2657,0 2.3011,0.5313 2.3011,1.1808l0 0.6235 -4.6024 0 0 -0.6235c0,-0.6495 1.0356,-1.1808 2.3011,-1.1808z"/>
   <polygon id="_224599416" class="fil0" points="41.0316,49.1515 33.2544,49.1515 33.2544,39.5559 27.2054,39.5559 22.6439,39.5559 21.1566,39.5559 21.1566,50.3359 109.227,104.666 109.227,87.534 107.109,87.534 103.25,87.534 95.4744,87.534 95.4744,77.9384 91.5535,77.9384 87.6969,77.9384 79.9187,77.9384 79.9187,68.3427 75.9989,68.3427 72.1413,68.3427 64.3639,68.3427 64.3639,58.747 60.4444,58.747 56.5866,58.747 48.809,58.747 48.809,49.1515 44.8896,49.1515 "/>
   <polygon id="_222913568" class="fil0" points="48.809,49.1515 48.809,58.747 56.5866,58.747 60.4444,58.747 64.3639,58.747 64.3639,68.3427 72.1413,68.3427 75.9989,68.3427 79.9187,68.3427 79.9187,77.9384 87.6969,77.9384 91.5535,77.9384 95.4744,77.9384 95.4744,87.534 103.25,87.534 107.109,87.534 109.227,87.534 109.227,83.6718 110.291,83.6718 110.291,78.5098 27.2042,27.254 27.2054,39.5559 33.2544,39.5559 33.2544,49.1515 41.0316,49.1515 44.8896,49.1515 "/>
   <polygon id="_224359616" class="fil0" points="110.291,64.781 110.291,78.5098 110.291,83.6718 115.223,83.6718 115.223,83.0574 115.223,64.781 "/>
   <polygon id="_224353376" class="fil0" points="115.223,83.6718 110.291,83.6718 109.227,83.6718 109.227,87.534 109.227,104.666 109.227,110.251 109.227,114.201 109.227,129.558 116.287,129.558 116.287,122.376 116.287,114.874 116.287,105.237 116.287,96.3243 116.287,83.6718 "/>
   <polygon id="_224595864" class="fil0" points="116.287,83.6718 116.287,96.3243 141.327,96.3243 141.327,105.237 166.116,105.237 166.116,97.0427 115.223,83.0574 115.223,83.6718 "/>
   <polygon id="_224353496" class="fil0" points="141.327,96.3243 116.287,96.3243 116.287,105.237 141.327,105.237 "/>
   <polygon id="_224356424" class="fil0" points="141.327,105.237 116.287,105.237 116.287,114.874 166.116,114.874 166.116,105.237 "/>
   <polygon id="_224358968" class="fil0" points="166.116,114.874 116.287,114.874 116.287,122.376 166.116,122.376 "/>
   <polygon id="_224355800" class="fil0" points="166.116,122.376 116.287,122.376 116.287,129.558 126.672,129.558 166.116,122.543 "/>
   <polygon id="_224357600" class="fil0" points="103.866,122.603 103.866,116.996 100.007,119.007 100.007,122.603 100.834,122.603 103.038,122.603 "/>
   <polygon id="_224355872" class="fil0" points="89.2929,141.171 89.2929,125.138 84.733,125.138 84.733,143.689 "/>
   <polygon id="_224357672" class="fil0" points="90.5421,123.939 100.007,119.007 103.866,116.996 109.227,114.201 109.227,110.251 90.5421,119.988 "/>
   <polygon id="_224595744" class="fil0" points="116.287,129.558 109.227,129.558 109.227,132.661 126.672,129.558 "/>
   <polygon id="_224595576" class="fil0" points="103.038,122.603 100.834,122.603 100.834,134.801 102.564,133.845 103.038,133.761 "/>
   <polygon id="_224596272" class="fil0" points="44.8896,26.9549 44.8896,24.1832 41.0316,21.8034 41.0316,26.9549 41.8581,26.9549 44.0629,26.9549 "/>
   <polygon id="_224596584" class="fil0" points="56.5866,31.399 56.5866,36.5505 57.4128,36.5505 59.6177,36.5505 60.4444,36.5505 60.4444,33.7788 "/>
   <polygon id="_224595360" class="fil0" points="72.1413,40.9946 72.1413,46.146 72.9676,46.146 75.1725,46.146 75.9989,46.146 75.9989,43.3744 "/>
   <polygon id="_224596872" class="fil0" points="87.6969,50.5903 87.6969,55.7417 88.5212,55.7417 90.7272,55.7417 91.5535,55.7417 91.5535,52.9701 "/>
   <polygon id="_224596824" class="fil0" points="103.25,60.186 103.25,65.3375 104.076,65.3375 106.282,65.3375 107.109,65.3375 107.109,62.5658 "/>
   <polygon id="_224597112" class="fil0" points="44.0629,43.3588 44.0629,26.9549 41.8581,26.9549 41.8581,43.3588 "/>
   <polygon id="_224596896" class="fil0" points="57.4128,36.5505 57.4128,52.9545 59.6177,52.9545 59.6177,36.5505 "/>
   <polygon id="_224597064" class="fil0" points="72.9676,46.146 72.9676,62.5504 75.1725,62.5504 75.1725,46.146 "/>
   <polygon id="_224595984" class="fil0" points="88.5212,55.7417 88.5212,72.1455 90.7272,72.1455 90.7272,55.7417 "/>
   <polygon id="_224596152" class="fil0" points="104.076,65.3375 104.076,81.7412 106.282,81.7412 106.282,65.3375 "/>
   <polygon id="_222914168" class="fil0" points="44.8896,49.1515 44.8896,43.3588 44.0629,43.3588 41.8581,43.3588 41.0316,43.3588 41.0316,49.1515 "/>
   <polygon id="_224359784" class="fil0" points="56.5866,52.9545 56.5866,58.747 60.4444,58.747 60.4444,52.9545 59.6177,52.9545 57.4128,52.9545 "/>
   <polygon id="_224355992" class="fil0" points="72.1413,62.5504 72.1413,68.3427 75.9989,68.3427 75.9989,62.5504 75.1725,62.5504 72.9676,62.5504 "/>
   <polygon id="_224597592" class="fil0" points="87.6969,72.1455 87.6969,77.9384 91.5535,77.9384 91.5535,72.1455 90.7272,72.1455 88.5212,72.1455 "/>
   <polygon id="_224597616" class="fil0" points="103.25,81.7412 103.25,87.534 107.109,87.534 107.109,81.7412 106.282,81.7412 104.076,81.7412 "/>
   <polygon id="_224593896" class="fil0" points="27.2042,27.254 27.2027,14.952 22.6439,14.952 22.6439,39.5559 27.2054,39.5559 "/>
   <polygon id="_224355512" class="fil0" points="28.4532,14.0439 41.0316,21.8034 44.8896,24.1832 56.5866,31.399 60.4444,33.7788 72.1413,40.9946 75.9989,43.3744 87.6969,50.5903 91.5535,52.9701 103.25,60.186 107.109,62.5658 109.227,63.8727 109.227,59.565 28.4532,9.7364 "/>
  </g>
 </g>
</svg>
